<?xml version="1.0" standalone="no"?>
<!DOCTYPE svg PUBLIC "-//W3C//DTD SVG 1.1//EN" "http://www.w3.org/Graphics/SVG/1.1/DTD/svg11.dtd" >
<svg xmlns="http://www.w3.org/2000/svg" xmlns:xlink="http://www.w3.org/1999/xlink" version="1.1">
<metadata>
Created by FontForge 20170731 at Fri Sep 12 16:04:29 2008
 By ,,,
Copyright (C) 2005, 2008 Hoefler &#38; Frere-Jones. http://www.typography.com
</metadata>
<defs>
<font id="GothamNarrow-XLightItalic" horiz-adv-x="502" >
  <font-face 
    font-family="Gotham Narrow XLight"
    font-weight="275"
    font-style="italic"
    font-stretch="condensed"
    units-per-em="1000"
    panose-1="0 0 0 0 0 0 0 0 0 0"
    ascent="800"
    descent="-200"
    x-height="511"
    cap-height="700"
    bbox="-113 -200 1019 955"
    underline-thickness="50"
    underline-position="-200"
    slope="-12"
    unicode-range="U+0020-FB04"
  />
<missing-glyph 
d="M1 -200v1000h500v-1000h-500zM51 -76l172 376l-172 376v-752zM72 -150h358l-179 390zM251 360l179 390h-358zM451 -76v752l-172 -376z" />
    <glyph glyph-name="f_f" unicode="ff" horiz-adv-x="588" 
d="M41 0l117 482h-68l7 29h68l19 74q18 71 51 104t88 33q42 0 76 -17l-8 -29q-32 17 -69 17q-81 0 -106 -106l-19 -76h151l-8 -29h-150l-118 -482h-31zM334 0l117 482h-68l7 29h68l19 74q18 71 51 104t88 33q42 0 76 -17l-8 -29q-32 17 -69 17q-81 0 -106 -106l-19 -76h151
l-8 -29h-150l-118 -482h-31z" />
    <glyph glyph-name="fi" unicode="fi" horiz-adv-x="498" 
d="M41 0l117 482h-68l7 29h68l19 74q18 71 51 104t88 33q42 0 76 -17l-8 -29q-32 17 -69 17q-81 0 -106 -106l-19 -76h151l-8 -29h-150l-118 -482h-31zM316 0l125 511h31l-125 -511h-31zM469 643l15 62h40l-16 -62h-39z" />
    <glyph glyph-name="fl" unicode="fl" horiz-adv-x="498" 
d="M41 0l117 482h-68l7 29h68l19 74q18 71 51 104t88 33q42 0 76 -17l-8 -29q-32 17 -69 17q-81 0 -106 -106l-19 -76h151l-8 -29h-150l-118 -482h-31zM316 0l177 722h31l-177 -722h-31z" />
    <glyph glyph-name="f_f_i" unicode="ffi" horiz-adv-x="791" 
d="M41 0l117 482h-68l7 29h68l19 74q18 71 51 104t88 33q42 0 76 -17l-8 -29q-32 17 -69 17q-81 0 -106 -106l-19 -76h151l-8 -29h-150l-118 -482h-31zM334 0l117 482h-68l7 29h68l19 74q18 71 51 104t88 33q42 0 76 -17l-8 -29q-32 17 -69 17q-81 0 -106 -106l-19 -76h151
l-8 -29h-150l-118 -482h-31zM611 0l125 511h31l-125 -511h-31zM764 643l15 62h40l-16 -62h-39z" />
    <glyph glyph-name="f_f_l" unicode="ffl" horiz-adv-x="791" 
d="M41 0l117 482h-68l7 29h68l19 74q18 71 51 104t88 33q42 0 76 -17l-8 -29q-32 17 -69 17q-81 0 -106 -106l-19 -76h151l-8 -29h-150l-118 -482h-31zM334 0l117 482h-68l7 29h68l19 74q18 71 51 104t88 33q42 0 76 -17l-8 -29q-32 17 -69 17q-81 0 -106 -106l-19 -76h151
l-8 -29h-150l-118 -482h-31zM611 0l177 722h31l-177 -722h-31z" />
    <glyph glyph-name=".notdef" 
d="M1 -200v1000h500v-1000h-500zM51 -76l172 376l-172 376v-752zM72 -150h358l-179 390zM251 360l179 390h-358zM451 -76v752l-172 -376z" />
    <glyph glyph-name=".null" horiz-adv-x="0" 
 />
    <glyph glyph-name="nonmarkingreturn" horiz-adv-x="333" 
 />
    <glyph glyph-name="space" unicode=" " horiz-adv-x="233" 
 />
    <glyph glyph-name="exclam" unicode="!" horiz-adv-x="200" 
d="M74 183l96 431l21 86h36l-22 -86l-114 -431h-17zM15 0l16 65h45l-15 -65h-46z" />
    <glyph glyph-name="quotedbl" unicode="&#x22;" horiz-adv-x="308" 
d="M93 450l82 250h38v-5l-103 -245h-17zM228 450l82 250h39l-1 -5l-102 -245h-18z" />
    <glyph glyph-name="numbersign" unicode="#" horiz-adv-x="577" 
d="M80 0l59 195h-102l6 29h105l77 255h-111l7 30h113l57 191h30l-58 -191h192l58 191h29l-57 -191h101l-6 -30h-104l-77 -255h111l-7 -29h-113l-59 -195h-29l59 195h-193l-58 -195h-30zM178 224h192l77 255h-193z" />
    <glyph glyph-name="dollar" unicode="$" horiz-adv-x="531" 
d="M375 761h29l-17 -66q85 -16 149 -82l-22 -22q-60 62 -135 77l-73 -299q79 -41 115 -81.5t36 -100.5q0 -76 -58 -132.5t-159 -56.5q-5 0 -13 0.5t-12 0.5l-24 -97h-29l25 100q-113 20 -182 107l24 21q64 -83 167 -99l77 319q-77 38 -114 78t-37 96q0 72 57 124.5t151 52.5
q19 0 29 -1zM423 188q0 47 -29 81.5t-96 67.5l-76 -310h22q85 0 132 48.5t47 112.5zM156 525q0 -47 30 -79t96 -65l70 291q-8 1 -24 1q-79 0 -125.5 -44t-46.5 -104z" />
    <glyph glyph-name="percent" unicode="%" horiz-adv-x="719" 
d="M57 0l314 357l301 343h36l-315 -357l-300 -343h-36zM210 354q-53 0 -85.5 38.5t-32.5 99.5q0 48 18.5 94t48.5 76q45 45 102 45q53 0 85.5 -38t32.5 -99q0 -48 -18 -94t-48 -76q-46 -46 -103 -46zM212 383q43 0 77 34q58 60 58 152q0 49 -23.5 79.5t-64.5 30.5
q-44 0 -77 -35q-27 -26 -43 -67t-16 -84q0 -50 24 -80t65 -30zM503 -7q-52 0 -84.5 38t-32.5 99q0 48 18 94t48 76q48 46 103 46q52 0 84.5 -38.5t32.5 -99.5q0 -48 -18 -94t-48 -76q-45 -45 -103 -45zM506 21q44 0 77 35q26 26 42 67t16 84q0 50 -23.5 80t-65.5 30
q-41 0 -77 -34q-58 -60 -58 -152q0 -49 24 -79.5t65 -30.5z" />
    <glyph glyph-name="ampersand" unicode="&#x26;" horiz-adv-x="594" 
d="M532 327l27 -13q-58 -111 -114 -183l76 -125l-25 -16l-72 117q-108 -116 -224 -116q-75 0 -124 45.5t-49 120.5q0 163 225 241q-49 87 -49 148q0 71 46.5 118t116.5 47q61 0 99 -37t38 -92q0 -66 -52.5 -114.5t-155.5 -85.5l134 -227q49 64 103 172zM202 21
q107 0 207 110l-143 242q-206 -70 -206 -212q0 -64 40 -102t102 -38zM236 547q0 -62 44 -141q190 65 190 174q0 44 -29 73t-77 29q-55 0 -91.5 -39t-36.5 -96z" />
    <glyph glyph-name="quotesingle" unicode="'" horiz-adv-x="169" 
d="M93 450l82 250h38v-5l-103 -245h-17z" />
    <glyph glyph-name="parenleft" unicode="(" horiz-adv-x="350" 
d="M226 -131q-153 140 -153 338q0 221 158 381q82 80 196 127l11 -25q-109 -45 -183 -119q-72 -72 -110.5 -167t-38.5 -197q0 -185 138 -319z" />
    <glyph glyph-name="parenright" unicode=")" horiz-adv-x="350" 
d="M139 712q153 -140 153 -338q0 -221 -158 -381q-82 -80 -196 -127l-11 25q109 45 183 119q72 72 110.5 167t38.5 197q0 185 -138 319z" />
    <glyph glyph-name="asterisk" unicode="*" horiz-adv-x="381" 
d="M241 415l-28 7l38 125l-117 -42l-9 28l123 28l-96 84l21 21l85 -93l24 128l28 -7l-38 -124l118 42l9 -28l-123 -29l95 -83l-22 -22l-83 93z" />
    <glyph glyph-name="plus" unicode="+" horiz-adv-x="523" 
d="M217 143l49 194h-188l6 30h189l48 194h32l-50 -194h189l-7 -30h-189l-48 -194h-31z" />
    <glyph glyph-name="comma" unicode="," horiz-adv-x="168" 
d="M-30 -86l-6 18q45 15 55 68h-21l17 65h45l-14 -60q-10 -42 -27 -61.5t-49 -29.5z" />
    <glyph glyph-name="hyphen" unicode="-" horiz-adv-x="353" 
d="M66 281l9 32h230l-8 -32h-231z" />
    <glyph glyph-name="period" unicode="." horiz-adv-x="168" 
d="M-1 0l16 65h46l-16 -65h-46z" />
    <glyph glyph-name="slash" unicode="/" horiz-adv-x="419" 
d="M-95 -118l611 906h34l-612 -906h-33z" />
    <glyph glyph-name="zero" unicode="0" horiz-adv-x="602" 
d="M385 711q93 0 142.5 -64.5t49.5 -175.5q0 -107 -38.5 -222.5t-105.5 -182.5q-77 -77 -171 -77q-93 0 -142.5 64.5t-49.5 175.5q0 106 39 222t106 183q75 77 170 77zM264 19q79 0 143 66q62 62 99 172.5t37 213.5q0 97 -40.5 153.5t-118.5 56.5q-79 0 -143 -66
q-62 -62 -99.5 -173t-37.5 -213q0 -97 40.5 -153.5t119.5 -56.5z" />
    <glyph glyph-name="one" unicode="1" horiz-adv-x="281" 
d="M81 0l163 664l-126 -50v33l141 57h27l-172 -704h-33z" />
    <glyph glyph-name="two" unicode="2" horiz-adv-x="490" 
d="M-21 0l5 23l351 328q67 64 94 108.5t27 93.5q0 55 -38.5 90t-104.5 35q-92 0 -171 -89l-23 21q86 99 196 99q80 0 127.5 -44t47.5 -110q0 -58 -31 -107.5t-102 -117.5l-321 -299h360l-8 -31h-409z" />
    <glyph glyph-name="three" unicode="3" horiz-adv-x="490" 
d="M190 -10q-135 0 -200 107l26 18q59 -94 176 -94q88 0 145.5 54t57.5 135q0 73 -54.5 108t-135.5 37h-13l-4 19l289 295h-331l8 31h376l-6 -24l-289 -296q90 -8 142 -52t52 -118q0 -90 -62 -150q-68 -70 -177 -70z" />
    <glyph glyph-name="four" unicode="4" horiz-adv-x="537" 
d="M316 0l43 174h-339l-2 24l471 507h30l-122 -502h96l-7 -29h-96l-43 -174h-31zM61 203h304l108 445z" />
    <glyph glyph-name="five" unicode="5" horiz-adv-x="503" 
d="M203 -10q-66 0 -116.5 28.5t-80.5 73.5l26 19q61 -92 173 -92q91 0 150 64.5t59 152.5q0 74 -43.5 112.5t-114.5 38.5q-65 0 -135 -34l-19 15l99 332h316l-8 -31h-287l-83 -278q61 26 119 26q86 0 138.5 -47t51.5 -134q0 -105 -70 -175q-71 -71 -175 -71z" />
    <glyph glyph-name="six" unicode="6" horiz-adv-x="540" 
d="M258 -11q-82 0 -133 53q-58 58 -58 167q0 111 40.5 232t109.5 191q79 79 178 79q95 0 164 -76l-23 -23q-60 68 -143 68q-84 0 -153 -68q-101 -101 -132 -303q29 54 81 88t117 34q86 0 136.5 -51.5t50.5 -130.5q0 -117 -76 -195q-65 -65 -159 -65zM261 19q76 0 132 54
q32 32 49.5 79.5t17.5 94.5q0 69 -41.5 111.5t-115.5 42.5q-84 0 -140 -58q-61 -61 -61 -153q0 -80 46 -128q45 -43 113 -43z" />
    <glyph glyph-name="seven" unicode="7" horiz-adv-x="470" 
d="M49 0l427 669h-349l8 31h386l-5 -25l-431 -675h-36z" />
    <glyph glyph-name="eight" unicode="8" horiz-adv-x="535" 
d="M245 -9q-95 0 -153 48.5t-59 125.5q0 76 53.5 133t141.5 71q-45 19 -71 57.5t-26 88.5q0 78 60 136t152 58q81 0 134 -45t53 -118q0 -72 -47 -124.5t-122 -66.5q52 -21 84.5 -64t32.5 -98q0 -84 -65 -143t-168 -59zM247 21q89 0 143.5 50.5t54.5 123.5q0 65 -49 109
t-127 44q-88 0 -145.5 -53.5t-57.5 -126.5q0 -66 49.5 -106.5t131.5 -40.5zM313 373q80 0 132.5 50.5t52.5 120.5q0 60 -44 98t-112 38q-79 0 -128.5 -49.5t-49.5 -117.5q0 -58 41.5 -99t107.5 -41z" />
    <glyph glyph-name="nine" unicode="9" horiz-adv-x="539" 
d="M190 -11q-100 0 -170 83l23 22q64 -74 149 -74q84 0 152 68q103 101 132 298q-28 -54 -80 -89t-119 -35q-86 0 -136 52t-50 134q0 55 20 107.5t57 89.5q66 66 159 66q82 0 133 -53q58 -58 58 -167q0 -112 -40 -232.5t-110 -190.5q-79 -79 -178 -79zM281 292q83 0 139 58
q63 64 63 159q0 81 -46 129q-45 43 -112 43q-78 0 -132 -54q-68 -70 -68 -178q0 -71 41 -114t115 -43z" />
    <glyph glyph-name="colon" unicode=":" horiz-adv-x="175" 
d="M3 0l15 65h46l-15 -65h-46zM110 441l16 64h46l-16 -64h-46z" />
    <glyph glyph-name="semicolon" unicode=";" horiz-adv-x="174" 
d="M30 -22q-7 -27 -19.5 -38.5t-38.5 -20.5q3 2 4.5 8t2.5 14.5t2 11.5q30 11 34 47l-9 16l23 49l30 -15q-19 -70 -29 -72zM109 441l16 64h45l-15 -64h-46zM-29 -82l1 1q0 -1 -1 -1z" />
    <glyph glyph-name="less" unicode="&#x3c;" horiz-adv-x="525" 
d="M417 131l-342 210l6 22l445 210l-8 -37l-400 -187l306 -186z" />
    <glyph glyph-name="equal" unicode="=" horiz-adv-x="523" 
d="M67 236l7 31h378l-7 -31h-378zM117 437l8 31h378l-8 -31h-378z" />
    <glyph glyph-name="greater" unicode="&#x3e;" horiz-adv-x="525" 
d="M44 131l9 37l399 187l-306 186l8 32l342 -210l-6 -22z" />
    <glyph glyph-name="question" unicode="?" horiz-adv-x="446" 
d="M165 183l32 164l4 5q103 14 166.5 63.5t63.5 128.5q0 61 -41 97t-106 36q-88 0 -168 -72l-19 24q88 79 189 79q81 0 129.5 -46t48.5 -117q0 -88 -66 -143.5t-171 -75.5l-43 -143h-19zM108 0l16 65h46l-16 -65h-46z" />
    <glyph glyph-name="at" unicode="@" horiz-adv-x="858" 
d="M400 -152q-157 0 -250 94t-93 254q0 102 36 197t96 164.5t142.5 111.5t171.5 42q148 0 234 -92.5t86 -228.5q0 -133 -59.5 -223.5t-130.5 -90.5q-51 0 -73 32.5t-18 79.5q-28 -49 -71.5 -81t-95.5 -32q-59 0 -94.5 40t-35.5 106q0 101 65 187.5t151 86.5q57 0 89.5 -33.5
t39.5 -84.5l29 101l30 -8l-68 -226q-12 -45 -12 -71q0 -72 67 -72q59 0 111 84t52 204q0 127 -79.5 213t-217.5 86q-112 0 -209.5 -69t-154 -182t-56.5 -240q0 -148 86.5 -237t231.5 -89q106 0 200 51l11 -21q-101 -53 -211 -53zM381 105q73 0 132 77t59 157q0 56 -28.5 91
t-82.5 35q-72 0 -127 -77.5t-55 -164.5q0 -55 26.5 -86.5t75.5 -31.5z" />
    <glyph glyph-name="A" unicode="A" horiz-adv-x="648" 
d="M-26 0l448 705h32l102 -705h-33l-28 204h-355l-129 -204h-37zM159 234h331l-60 427z" />
    <glyph glyph-name="B" unicode="B" horiz-adv-x="610" 
d="M28 0l171 700h193q91 0 145 -42.5t54 -112.5q0 -82 -54.5 -131t-131.5 -61q63 -15 98 -52t35 -94q0 -94 -74 -150.5t-202 -56.5h-234zM68 30h196q116 0 178.5 48.5t62.5 128.5q0 61 -49.5 96t-132.5 35h-179zM151 369h172q109 0 172 47t63 125q0 61 -45 95t-124 34h-165z
" />
    <glyph glyph-name="C" unicode="C" horiz-adv-x="602" 
d="M312 -11q-101 0 -167.5 71.5t-66.5 193.5q0 98 36 195t102 163q99 99 222 99q136 0 201 -117l-28 -17q-60 104 -174 104q-111 0 -196 -87q-60 -61 -95 -153t-35 -187q0 -108 57 -171.5t147 -63.5q99 0 189 83l21 -23q-96 -90 -213 -90z" />
    <glyph glyph-name="D" unicode="D" horiz-adv-x="649" 
d="M28 0l171 700h118q148 0 229 -79q71 -71 71 -198q0 -84 -30.5 -168t-88.5 -141q-114 -114 -298 -114h-172zM521 599q-69 71 -203 71h-94l-156 -640h136q165 0 270 105q53 52 81 130.5t28 156.5q0 115 -62 177z" />
    <glyph glyph-name="E" unicode="E" horiz-adv-x="551" 
d="M28 0l171 700h408l-7 -30h-375l-74 -302h339l-7 -31h-339l-76 -307h380l-8 -30h-412z" />
    <glyph glyph-name="F" unicode="F" horiz-adv-x="533" 
d="M28 0l171 700h403l-8 -30h-370l-75 -311h334l-7 -30h-334l-81 -329h-33z" />
    <glyph glyph-name="G" unicode="G" horiz-adv-x="656" 
d="M333 -11q-114 0 -183.5 76t-69.5 202q0 94 35.5 185t98.5 154q103 105 241 105q128 0 204 -100l-26 -19q-67 89 -180 89q-119 0 -215 -94q-58 -58 -91.5 -144.5t-33.5 -174.5q0 -113 60.5 -181t161.5 -68q91 0 165 48l65 256h-200l8 32h232l-78 -307q-92 -59 -194 -59z
" />
    <glyph glyph-name="H" unicode="H" horiz-adv-x="647" 
d="M28 0l171 700h33l-81 -332h400l81 332h34l-171 -700h-34l82 337h-400l-82 -337h-33z" />
    <glyph glyph-name="I" unicode="I" horiz-adv-x="226" 
d="M35 0l171 700h33l-171 -700h-33z" />
    <glyph glyph-name="J" unicode="J" horiz-adv-x="437" 
d="M144 -9q-59 0 -99.5 32.5t-57.5 87.5l29 11q36 -101 129 -101q58 0 100 42q39 37 62 129l123 508h33l-125 -514q-24 -98 -71 -144q-50 -51 -123 -51z" />
    <glyph glyph-name="K" unicode="K" horiz-adv-x="596" 
d="M28 0l171 700h33l-112 -452l493 452h45l-335 -305l177 -395h-36l-167 372l-188 -171l-48 -201h-33z" />
    <glyph glyph-name="L" unicode="L" horiz-adv-x="493" 
d="M28 0l171 700h33l-164 -670h346l-7 -30h-379z" />
    <glyph glyph-name="M" unicode="M" horiz-adv-x="739" 
d="M28 0l171 700h30l143 -424l350 424h36l-171 -700h-32l155 638l-349 -423h-3l-142 423l-156 -638h-32z" />
    <glyph glyph-name="N" unicode="N" horiz-adv-x="668" 
d="M28 0l171 700h31l268 -641l158 641h31l-171 -700h-27l-271 648l-158 -648h-32z" />
    <glyph glyph-name="O" unicode="O" horiz-adv-x="703" 
d="M428 711q109 0 176 -76.5t67 -200.5q0 -95 -36.5 -192t-99.5 -160q-95 -93 -213 -93q-109 0 -175.5 76.5t-66.5 199.5q0 96 36 193t99 159q94 94 213 94zM323 19q105 0 188 83q59 59 93 151t34 181q0 110 -58.5 178.5t-152.5 68.5q-104 0 -188 -84q-58 -58 -92 -149.5
t-34 -181.5q0 -111 57.5 -179t152.5 -68z" />
    <glyph glyph-name="P" unicode="P" horiz-adv-x="568" 
d="M28 0l171 700h164q119 0 176 -57q46 -46 46 -125q0 -100 -66 -166q-84 -84 -245 -84h-147l-66 -268h-33zM513 622q-47 48 -152 48h-137l-90 -372h142q145 0 218 73q58 58 58 147q0 66 -39 104z" />
    <glyph glyph-name="Q" unicode="Q" horiz-adv-x="705" 
d="M428 711q109 0 176 -76.5t67 -200.5q0 -95 -37 -192t-99 -159l-5 -5l62 -74l-23 -20l-61 74q-83 -69 -186 -69q-109 0 -175.5 76.5t-66.5 199.5q0 96 36 193t99 159q94 94 213 94zM323 19q90 0 165 62l-103 126l25 20l101 -125q58 59 92.5 151.5t34.5 180.5
q0 110 -58.5 178.5t-152.5 68.5q-104 0 -188 -84q-58 -58 -92 -150t-34 -181q0 -111 57.5 -179t152.5 -68z" />
    <glyph glyph-name="R" unicode="R" horiz-adv-x="611" 
d="M460 0l-131 297q-11 -1 -33 -1h-163l-72 -296h-33l171 700h189q116 0 170 -56q45 -45 45 -117q0 -92 -60 -152q-60 -61 -180 -76l134 -299h-37zM141 325h165q145 0 212 67q52 52 52 133q0 61 -35 96q-49 49 -151 49h-159z" />
    <glyph glyph-name="S" unicode="S" horiz-adv-x="538" 
d="M248 -9q-146 0 -236 124l26 20q84 -114 213 -114q78 0 128 46t50 108q0 53 -33 88.5t-107 80.5q-79 49 -116 89t-37 97q0 70 50 118q59 61 157 61q122 0 206 -99l-25 -22q-77 91 -183 91q-76 0 -124 -44t-48 -103q0 -47 33 -81t107 -80q79 -48 116.5 -90t37.5 -103
q0 -72 -54 -126q-63 -61 -161 -61z" />
    <glyph glyph-name="T" unicode="T" horiz-adv-x="498" 
d="M167 0l163 670h-207l8 30h448l-8 -30h-207l-164 -670h-33z" />
    <glyph glyph-name="U" unicode="U" horiz-adv-x="644" 
d="M287 -10q-96 0 -153 50.5t-57 142.5q0 47 15 110l98 407h33l-101 -416q-13 -53 -13 -98q0 -79 48.5 -122.5t132.5 -43.5q90 0 153 63q61 62 90 180l105 437h33l-107 -444q-32 -127 -97 -193q-74 -73 -180 -73z" />
    <glyph glyph-name="V" unicode="V" horiz-adv-x="611" 
d="M224 -5l-85 705h33l77 -657l398 657h37l-431 -705h-29z" />
    <glyph glyph-name="W" unicode="W" horiz-adv-x="915" 
d="M181 -5l-37 705h33l31 -649l340 651h27l29 -651l343 649h36l-377 -705h-28l-30 643l-339 -643h-28z" />
    <glyph glyph-name="X" unicode="X" horiz-adv-x="576" 
d="M-23 0l316 361l-149 339h35l137 -317l279 317h40l-304 -345l155 -355h-35l-144 333l-291 -333h-39z" />
    <glyph glyph-name="Y" unicode="Y" horiz-adv-x="564" 
d="M199 0l72 294l-147 406h34l136 -377l320 377h42l-353 -412l-70 -288h-34z" />
    <glyph glyph-name="Z" unicode="Z" horiz-adv-x="557" 
d="M-13 0l5 20l564 650h-394l8 30h439l-4 -21l-566 -649h409l-7 -30h-454z" />
    <glyph glyph-name="bracketleft" unicode="[" horiz-adv-x="364" 
d="M9 -130l202 830h223l-7 -25h-191l-190 -780h191l-6 -25h-222z" />
    <glyph glyph-name="backslash" unicode="\" horiz-adv-x="410" 
d="M307 -118l-167 906h28l168 -906h-29z" />
    <glyph glyph-name="bracketright" unicode="]" horiz-adv-x="364" 
d="M366 700l-202 -830h-223l7 25h191l190 780h-191l6 25h222z" />
    <glyph glyph-name="asciicircum" unicode="^" horiz-adv-x="439" 
d="M138 506l176 191h24l82 -191h-27l-72 158l-152 -158h-31z" />
    <glyph glyph-name="underscore" unicode="_" horiz-adv-x="532" 
d="M-102 -153l7 28h535l-7 -28h-535z" />
    <glyph glyph-name="grave" unicode="`" 
d="M368 588l-75 103l37 18l58 -121h-20z" />
    <glyph glyph-name="a" unicode="a" horiz-adv-x="490" 
d="M160 -10q-59 0 -100.5 36t-41.5 100q0 81 52 132q54 54 152 54q87 0 170 -30l6 25q9 43 9 67q0 54 -37 84t-103 30q-60 0 -124 -25l-8 29q67 26 134 26q78 0 123.5 -37t45.5 -104q0 -32 -11 -74l-73 -303h-31l24 98q-70 -108 -187 -108zM166 18q73 0 130 51t75 126l15 60
q-80 29 -167 29q-80 0 -125 -45q-43 -42 -43 -110q0 -52 32.5 -81.5t82.5 -29.5z" />
    <glyph glyph-name="b" unicode="b" horiz-adv-x="556" 
d="M258 -10q-74 0 -118 45.5t-56 107.5l-35 -143h-31l177 722h31l-80 -325q30 49 81.5 86.5t114.5 37.5q76 0 123 -55.5t47 -143.5q0 -75 -27 -146.5t-75 -119.5q-68 -66 -152 -66zM257 19q73 0 130 57q42 43 67 109.5t25 133.5q0 76 -39 124.5t-102 48.5q-77 0 -141 -64
q-43 -43 -69 -106t-26 -125q0 -76 42.5 -127t112.5 -51z" />
    <glyph glyph-name="c" unicode="c" horiz-adv-x="462" 
d="M225 -10q-77 0 -131 55t-54 149q0 71 26.5 138.5t73.5 114.5q72 74 165 74q105 0 159 -92l-25 -18q-50 80 -136 80q-78 0 -139 -63q-41 -41 -66 -104.5t-25 -127.5q0 -83 44.5 -129.5t109.5 -46.5q71 0 135 56l19 -22q-71 -64 -156 -64z" />
    <glyph glyph-name="d" unicode="d" horiz-adv-x="556" 
d="M382 0l28 114q-30 -49 -82 -86.5t-115 -37.5q-75 0 -122 55.5t-47 143.5q0 74 27 146t74 119q67 67 153 67q74 0 118 -46t54 -108l88 355h31l-176 -722h-31zM218 19q77 0 140 63q43 42 69 106t26 126q0 76 -42.5 127t-111.5 51q-73 0 -130 -57q-43 -42 -67.5 -108.5
t-24.5 -134.5q0 -77 38.5 -125t102.5 -48z" />
    <glyph glyph-name="e" unicode="e" 
d="M447 244h-370q-3 -26 -3 -50q0 -82 43 -128t117 -46q78 0 147 54l17 -24q-78 -60 -164 -60q-87 0 -139.5 54t-52.5 148q0 72 27.5 141.5t74.5 116.5q69 71 157 71q79 0 120 -51t41 -131q0 -49 -15 -95zM167 433q-61 -61 -84 -160h339q8 34 8 65q0 68 -32.5 111t-97.5 43
q-72 0 -133 -59z" />
    <glyph glyph-name="f" unicode="f" horiz-adv-x="294" 
d="M41 0l117 482h-68l7 29h68l19 74q18 71 51 104t88 33q42 0 76 -17l-8 -29q-32 17 -69 17q-81 0 -106 -106l-19 -76h151l-8 -29h-150l-118 -482h-31z" />
    <glyph glyph-name="g" unicode="g" horiz-adv-x="554" 
d="M192 -151q-52 0 -105.5 19t-92.5 52l19 25q77 -66 181 -66q88 0 139 51q39 37 62 129l22 89q-81 -115 -195 -115q-74 0 -123.5 51.5t-49.5 133.5q0 65 25 128t68 106q71 69 159 69q72 0 115 -44t55 -103l34 137h31l-111 -456q-24 -99 -70 -144q-62 -62 -163 -62zM227 62
q81 0 146 65q36 36 58.5 90t22.5 106q0 68 -42 118.5t-112 50.5q-75 0 -134 -59q-39 -39 -61.5 -96.5t-22.5 -116.5q0 -70 41.5 -114t103.5 -44z" />
    <glyph glyph-name="h" unicode="h" horiz-adv-x="525" 
d="M18 0l177 722h31l-78 -316q68 115 181 115q66 0 104.5 -38t38.5 -105q0 -38 -13 -91l-69 -287h-31l69 288q12 45 12 88q0 55 -30.5 85.5t-87.5 30.5q-66 0 -122 -52.5t-77 -136.5l-74 -303h-31z" />
    <glyph glyph-name="i" unicode="i" horiz-adv-x="204" 
d="M24 0l125 511h31l-125 -511h-31zM177 643l15 62h40l-16 -62h-39z" />
    <glyph glyph-name="j" unicode="j" horiz-adv-x="205" 
d="M-67 -154q-25 0 -46 8l7 29q20 -8 39 -8q60 0 80 80l137 556h31l-138 -563q-24 -102 -110 -102zM177 643l16 62h39l-15 -62h-40z" />
    <glyph glyph-name="k" unicode="k" horiz-adv-x="466" 
d="M18 0l177 722h31l-132 -538l352 327h42l-241 -221l125 -290h-34l-115 267l-139 -126l-35 -141h-31z" />
    <glyph glyph-name="l" unicode="l" horiz-adv-x="204" 
d="M24 0l177 722h31l-177 -722h-31z" />
    <glyph glyph-name="m" unicode="m" horiz-adv-x="816" 
d="M18 0l124 511h31l-25 -105q68 115 167 115q57 0 92 -34.5t38 -93.5q31 57 79 92.5t106 35.5q60 0 97 -37.5t37 -102.5q0 -34 -15 -94l-69 -287h-31l70 288q12 55 12 91q0 53 -28.5 83t-79.5 30q-60 0 -113 -54t-73 -135l-72 -303h-32l70 288q13 54 13 91q0 53 -28.5 83
t-79.5 30q-60 0 -113 -54.5t-73 -135.5l-73 -302h-31z" />
    <glyph glyph-name="n" unicode="n" horiz-adv-x="526" 
d="M18 0l124 511h31l-25 -105q68 115 181 115q66 0 104.5 -38t38.5 -105q0 -38 -13 -91l-69 -287h-31l69 288q12 45 12 88q0 55 -30.5 85.5t-87.5 30.5q-66 0 -122 -52.5t-77 -136.5l-74 -303h-31z" />
    <glyph glyph-name="o" unicode="o" horiz-adv-x="536" 
d="M306 521q84 0 136 -57.5t52 -149.5q0 -71 -26 -138t-73 -114q-72 -72 -166 -72q-84 0 -136 57.5t-52 149.5q0 71 26.5 138t73.5 114q72 72 165 72zM231 19q78 0 140 62q41 42 65.5 104.5t24.5 126.5q0 81 -42.5 130.5t-114.5 49.5q-79 0 -140 -63q-41 -41 -65.5 -103.5
t-24.5 -127.5q0 -80 43 -129.5t114 -49.5z" />
    <glyph glyph-name="p" unicode="p" horiz-adv-x="557" 
d="M258 -10q-74 0 -118 45.5t-56 107.5l-71 -293h-31l160 661h31l-27 -114q30 49 81.5 86.5t114.5 37.5q76 0 123 -55.5t47 -143.5q0 -75 -27 -146.5t-75 -119.5q-68 -66 -152 -66zM257 19q73 0 130 57q42 43 67 109.5t25 133.5q0 76 -39 124.5t-102 48.5q-77 0 -141 -64
q-43 -43 -69 -106t-26 -125q0 -76 42.5 -127t112.5 -51z" />
    <glyph glyph-name="q" unicode="q" horiz-adv-x="556" 
d="M213 -10q-75 0 -122 55.5t-47 143.5q0 74 27 146t74 119q67 67 153 67q74 0 118 -46t54 -108l36 144h31l-161 -661h-31l65 264q-30 -49 -82 -86.5t-115 -37.5zM218 19q77 0 140 63q43 42 69 106t26 126q0 76 -42.5 127t-111.5 51q-73 0 -130 -57q-43 -42 -67.5 -108.5
t-24.5 -134.5q0 -77 38.5 -125t102.5 -48z" />
    <glyph glyph-name="r" unicode="r" horiz-adv-x="314" 
d="M18 0l124 511h31l-31 -129q40 65 96.5 102t117.5 35l-8 -33h-2q-70 0 -139 -59t-91 -151l-67 -276h-31z" />
    <glyph glyph-name="s" unicode="s" horiz-adv-x="418" 
d="M178 -8q-51 0 -98 23.5t-81 64.5l24 22q72 -81 158 -81q53 0 89 32t36 74q0 35 -23.5 61t-79.5 59q-63 36 -90 66.5t-27 74.5q0 55 43.5 93t112.5 38q91 0 158 -76l-24 -22q-63 69 -136 69q-54 0 -87.5 -29.5t-33.5 -70.5q0 -33 23.5 -59t80.5 -58q61 -35 88 -67.5
t27 -76.5q0 -56 -45.5 -96.5t-114.5 -40.5z" />
    <glyph glyph-name="t" unicode="t" horiz-adv-x="325" 
d="M163 -7q-45 0 -71.5 21.5t-26.5 62.5q0 19 8 51l85 354h-67l7 29h67l40 162h31l-39 -162h148l-7 -29h-149l-86 -357q-6 -24 -6 -44q0 -59 72 -59q28 0 61 14l-7 -32q-27 -11 -60 -11z" />
    <glyph glyph-name="u" unicode="u" horiz-adv-x="525" 
d="M196 -10q-66 0 -104.5 37.5t-38.5 105.5q0 32 14 91l69 287h31l-70 -288q-12 -51 -12 -88q0 -56 30.5 -86.5t87.5 -30.5q66 0 122.5 52.5t77.5 136.5l73 304h32l-125 -511h-31l26 105q-68 -115 -182 -115z" />
    <glyph glyph-name="v" unicode="v" horiz-adv-x="482" 
d="M160 -4l-69 515h33l58 -470l287 470h36l-319 -515h-26z" />
    <glyph glyph-name="w" unicode="w" horiz-adv-x="714" 
d="M127 -4l-30 515h31l23 -463l250 464h26l23 -464l247 463h34l-279 -515h-28l-23 458l-248 -458h-26z" />
    <glyph glyph-name="x" unicode="x" horiz-adv-x="465" 
d="M139 511l99 -225l208 225h39l-234 -251l116 -260h-33l-105 238l-219 -238h-38l245 263l-111 248h33z" />
    <glyph glyph-name="y" unicode="y" horiz-adv-x="491" 
d="M169 3l-80 508h33l71 -471l283 471h36l-312 -511q-55 -89 -94.5 -121t-83.5 -32q-50 0 -85 29l18 25q32 -25 69 -25q33 0 66 27t79 100z" />
    <glyph glyph-name="z" unicode="z" horiz-adv-x="431" 
d="M-23 0l3 19l421 464h-299l7 28h342l-3 -19l-421 -464h312l-7 -28h-355z" />
    <glyph glyph-name="braceleft" unicode="{" horiz-adv-x="394" 
d="M253 -139q-138 34 -138 147q0 40 28 120q21 50 21 81q0 29 -22.5 47t-69.5 18h-22l7 26h22q68 0 105 37q43 43 51 156q8 114 57 163q54 54 165 58v-26q-96 -4 -140 -50q-26 -26 -36 -62.5t-15 -89.5q-10 -116 -55 -161q-30 -32 -85 -39q70 -18 70 -79q0 -27 -21 -82
q-28 -76 -28 -115q0 -49 26.5 -79t87.5 -47z" />
    <glyph glyph-name="bar" unicode="|" horiz-adv-x="251" 
d="M20 -118l223 906h28l-223 -906h-28z" />
    <glyph glyph-name="braceright" unicode="}" horiz-adv-x="394" 
d="M154 714q138 -34 138 -147q0 -39 -28 -120q-21 -50 -21 -81q0 -29 22.5 -47t69.5 -18h22l-7 -26h-22q-68 0 -105 -37q-43 -43 -51 -156q-8 -114 -57 -163q-54 -54 -165 -58v26q96 4 140 50q26 26 36 62.5t15 89.5q10 116 55 161q30 32 85 39q-70 18 -70 79q0 27 21 82
q28 76 28 115q0 49 -26.5 79t-87.5 47z" />
    <glyph glyph-name="asciitilde" unicode="~" horiz-adv-x="401" 
d="M100 252l-21 8q34 82 81 82q26 0 58 -32q30 -30 46 -30q28 0 56 60l22 -8q-34 -82 -81 -82q-27 0 -58 33q-29 29 -46 29q-27 0 -57 -60z" />
    <glyph glyph-name="uni00A0" unicode="&#xa0;" horiz-adv-x="233" 
 />
    <glyph glyph-name="exclamdown" unicode="&#xa1;" horiz-adv-x="200" 
d="M169 517l-96 -431l-21 -86h-36l22 86l114 431h17zM228 700l-16 -65h-45l15 65h46z" />
    <glyph glyph-name="cent" unicode="&#xa2;" horiz-adv-x="473" 
d="M384 705h30l-31 -92q73 -18 116 -87l-25 -18q-41 62 -102 76l-153 -464q17 -4 40 -4q75 0 138 56l19 -22q-71 -63 -160 -63q-28 0 -45 5l-33 -98h-30l37 106q-53 21 -84.5 71t-31.5 120q0 71 26 140t72 115q73 73 166 73q8 0 22 -2zM102 292q0 -123 93 -164l151 460
q-5 1 -14 1q-81 0 -141 -62q-42 -41 -65.5 -105t-23.5 -130z" />
    <glyph glyph-name="sterling" unicode="&#xa3;" horiz-adv-x="516" 
d="M-8 0l4 17l79 13l70 289h-78l8 30h78l35 148q28 108 76 156q55 55 132 55q106 0 157 -96l-27 -16q-46 82 -132 82q-62 0 -105 -44q-45 -44 -69 -145l-35 -140h248l-8 -30h-247l-70 -289h314l-7 -30h-423z" />
    <glyph glyph-name="yen" unicode="&#xa5;" horiz-adv-x="582" 
d="M209 0l32 130h-174l7 28h174l30 123h-174l8 28h162l-138 391h35l133 -380l317 380h41l-330 -391h160l-7 -28h-175l-30 -123h174l-7 -28h-174l-31 -130h-33z" />
    <glyph glyph-name="section" unicode="&#xa7;" horiz-adv-x="535" 
d="M504 335q0 -53 -46.5 -86.5t-124.5 -33.5q-15 0 -24 1q83 -48 83 -109q0 -50 -42.5 -83t-109.5 -33q-108 0 -185 70l20 24q72 -65 167 -65q52 0 84.5 24t32.5 61q0 36 -31.5 63t-100.5 58q-76 34 -112.5 66t-36.5 73q0 53 46 86.5t124 33.5q16 0 25 -1q-83 47 -83 109
q0 50 42 83t110 33q108 0 185 -70l-20 -24q-72 65 -168 65q-52 0 -84 -24t-32 -61q0 -36 31.5 -63t100.5 -58q76 -34 112.5 -66t36.5 -73zM111 368q0 -30 22.5 -53.5t73.5 -47.5q59 -28 127 -28q62 0 99.5 26t37.5 67q0 30 -22.5 53.5t-73.5 47.5q-59 28 -127 28
q-62 0 -99.5 -26t-37.5 -67z" />
    <glyph glyph-name="dieresis" unicode="&#xa8;" 
d="M248 599l14 57h45l-15 -57h-44zM372 599l14 57h44l-14 -57h-44z" />
    <glyph glyph-name="copyright" unicode="&#xa9;" horiz-adv-x="733" 
d="M366 160q-55 0 -90.5 38t-35.5 104q0 52 20 105t54 87q50 52 117 52q74 0 110 -63l-23 -16q-31 53 -88 53q-53 0 -95 -42q-30 -30 -48 -78t-18 -97q0 -55 27.5 -86t71.5 -31q48 0 97 45l17 -20q-55 -51 -116 -51zM713 409q0 -88 -32 -173.5t-92 -145.5
q-102 -102 -240 -102q-130 0 -207 86t-77 217q0 87 32.5 173t91.5 146q102 102 240 102q130 0 207 -86t77 -217zM88 288q0 -118 70 -198.5t193 -80.5q125 0 221 94q57 57 87.5 140.5t30.5 168.5q1 118 -69 198.5t-193 80.5q-128 0 -222 -94q-57 -57 -87.5 -140t-30.5 -169z
" />
    <glyph glyph-name="ordfeminine" unicode="&#xaa;" horiz-adv-x="354" 
d="M190 409q-32 0 -54 20t-22 54q0 45 31.5 75.5t81.5 30.5q41 0 90 -17l3 12q5 20 5 36q0 28 -19.5 43t-54.5 15q-29 0 -69 -14l-6 23q44 16 78 16q45 0 71 -21.5t26 -58.5q0 -14 -5 -41l-41 -167h-26l12 51q-40 -57 -101 -57zM196 432q38 0 69 26.5t41 66.5l6 27
q-45 15 -85 15t-63 -23.5t-23 -58.5q0 -25 15.5 -39t39.5 -14zM70 315l5 24h217l-6 -24h-216z" />
    <glyph glyph-name="guillemotleft" unicode="&#xab;" horiz-adv-x="432" 
d="M139 45l-102 207l1 6l203 206l21 -17l-188 -196l89 -194zM303 45l-102 207l1 6l202 206l21 -17l-187 -196l89 -194z" />
    <glyph glyph-name="registered" unicode="&#xae;" horiz-adv-x="383" 
d="M280 712q64 0 102 -41t38 -104q0 -98 -62 -158q-48 -50 -119 -50q-63 0 -101 41.5t-38 103.5q0 96 62 158q48 50 118 50zM241 374q60 0 105 45q58 57 58 147q0 55 -33 93t-92 38q-60 0 -105 -45q-57 -58 -57 -148q0 -55 33 -92.5t91 -37.5zM220 517l-17 -69h-20l44 180
h48q62 0 62 -50q0 -21 -13.5 -37t-39.5 -22l27 -71h-21l-27 69h-43zM225 536h33q35 0 48 13q11 11 11 29q0 32 -43 32h-32z" />
    <glyph glyph-name="macron" unicode="&#xaf;" 
d="M218 609l7 29h240l-7 -29h-240z" />
    <glyph glyph-name="degree" unicode="&#xb0;" horiz-adv-x="353" 
d="M251 706q47 0 77 -32.5t30 -85.5q0 -84 -53 -137q-44 -41 -96 -41q-48 0 -78.5 32.5t-30.5 85.5q0 82 54 136q42 42 97 42zM211 437q41 0 73 32q46 46 46 118q0 42 -22.5 67t-59.5 25q-40 0 -73 -31q-46 -46 -46 -119q0 -42 22.5 -67t59.5 -25z" />
    <glyph glyph-name="plusminus" unicode="&#xb1;" horiz-adv-x="523" 
d="M226 173l46 185h-185l6 30h185l46 183h31l-46 -183h186l-7 -30h-185l-47 -185h-30zM6 33l7 29h400l-6 -29h-401z" />
    <glyph glyph-name="acute" unicode="&#xb4;" 
d="M261 588l110 121l36 -18l-119 -103h-27z" />
    <glyph glyph-name="paragraph" unicode="&#xb6;" horiz-adv-x="421" 
d="M236 0l65 267q-109 3 -161 57q-48 48 -48 126q0 104 68 170q78 80 229 80h51l-171 -700h-33z" />
    <glyph glyph-name="periodcentered" unicode="&#xb7;" horiz-adv-x="169" 
d="M63 259l16 65h46l-16 -65h-46z" />
    <glyph glyph-name="cedilla" unicode="&#xb8;" 
d="M126 -131l-31 16l108 123h25z" />
    <glyph glyph-name="ordmasculine" unicode="&#xba;" horiz-adv-x="355" 
d="M71 315l5 24h236l-6 -24h-235zM148 527q0 -42 22 -68t58 -26q42 0 74 32q45 47 45 121q0 42 -22 68t-59 26q-41 0 -73 -32q-45 -47 -45 -121zM375 587q0 -84 -53 -137q-42 -42 -96 -42q-47 0 -76.5 33t-29.5 85q0 84 53 137q42 42 95 42q47 0 77 -33t30 -85z" />
    <glyph glyph-name="guillemotright" unicode="&#xbb;" horiz-adv-x="432" 
d="M288 463l102 -207l-1 -6l-203 -206l-21 17l188 196l-89 194zM124 463l102 -207l-1 -6l-202 -206l-21 17l187 196l-89 194z" />
    <glyph glyph-name="questiondown" unicode="&#xbf;" horiz-adv-x="446" 
d="M325 517l-32 -164l-4 -5q-103 -14 -166.5 -63.5t-63.5 -128.5q0 -61 41 -97t106 -36q88 0 168 72l19 -24q-88 -79 -189 -79q-81 0 -129.5 46t-48.5 117q0 88 66 143.5t171 75.5l43 143h19zM382 700l-16 -65h-46l16 65h46z" />
    <glyph glyph-name="Agrave" unicode="&#xc0;" horiz-adv-x="648" 
d="M-26 0l448 705h32l102 -705h-33l-28 204h-355l-129 -204h-37zM159 234h331l-60 427zM430 763l-79 87l35 18l66 -105h-22z" />
    <glyph glyph-name="Aacute" unicode="&#xc1;" horiz-adv-x="648" 
d="M-26 0l448 705h32l102 -705h-33l-28 204h-355l-129 -204h-37zM159 234h331l-60 427zM433 763l111 105l35 -18l-117 -87h-29z" />
    <glyph glyph-name="Acircumflex" unicode="&#xc2;" horiz-adv-x="648" 
d="M-26 0l448 705h32l102 -705h-33l-28 204h-355l-129 -204h-37zM159 234h331l-60 427zM339 761l118 100h28l69 -100h-29l-59 69l-94 -69h-33z" />
    <glyph glyph-name="Atilde" unicode="&#xc3;" horiz-adv-x="648" 
d="M-26 0l448 705h32l102 -705h-33l-28 204h-355l-129 -204h-37zM159 234h331l-60 427zM350 766l-21 5q32 74 80 74q21 0 59 -23q32 -22 50 -22q29 0 55 48l22 -6q-34 -73 -80 -73q-20 0 -58 24q-37 22 -50 22q-29 0 -57 -49z" />
    <glyph glyph-name="Adieresis" unicode="&#xc4;" horiz-adv-x="648" 
d="M-26 0l448 705h32l102 -705h-33l-28 204h-355l-129 -204h-37zM159 234h331l-60 427zM365 774l14 57h47l-14 -57h-47zM498 774l14 57h47l-14 -57h-47z" />
    <glyph glyph-name="Aring" unicode="&#xc5;" horiz-adv-x="648" 
d="M-26 0l429 674q-50 17 -50 70q0 40 32 66.5t74 26.5q38 0 61.5 -21.5t23.5 -53.5q0 -35 -24.5 -60.5t-60.5 -31.5l97 -670h-33l-28 204h-355l-129 -204h-37zM159 234h331l-60 427zM442 690q31 0 54 20.5t23 49.5q0 25 -17 40.5t-46 15.5q-31 0 -54 -20.5t-23 -50.5
q0 -25 17 -40t46 -15z" />
    <glyph glyph-name="AE" unicode="&#xc6;" horiz-adv-x="871" 
d="M-47 0l534 700h436l-8 -30h-366l-74 -302h331l-7 -31h-331l-75 -307h370l-7 -30h-403l49 204h-255l-155 -204h-39zM170 234h239l107 436h-15z" />
    <glyph glyph-name="Ccedilla" unicode="&#xc7;" horiz-adv-x="604" 
d="M211 -131l-31 16l94 107q-87 13 -141.5 82t-54.5 180q0 98 36 195t102 163q99 99 222 99q136 0 201 -117l-28 -17q-60 104 -174 104q-111 0 -196 -87q-60 -61 -95 -153t-35 -187q0 -108 57 -171.5t147 -63.5q99 0 189 83l21 -23q-96 -90 -213 -90h-13z" />
    <glyph glyph-name="Egrave" unicode="&#xc8;" horiz-adv-x="551" 
d="M389 757l-79 87l35 18l66 -105h-22zM28 0l171 700h408l-7 -30h-375l-74 -302h339l-7 -31h-339l-76 -307h380l-8 -30h-412z" />
    <glyph glyph-name="Eacute" unicode="&#xc9;" horiz-adv-x="551" 
d="M390 757l111 105l35 -18l-117 -87h-29zM28 0l171 700h408l-7 -30h-375l-74 -302h339l-7 -31h-339l-76 -307h380l-8 -30h-412z" />
    <glyph glyph-name="Ecircumflex" unicode="&#xca;" horiz-adv-x="551" 
d="M28 0l171 700h408l-7 -30h-375l-74 -302h339l-7 -31h-339l-76 -307h380l-8 -30h-412zM297 758l118 100h28l69 -100h-29l-59 69l-94 -69h-33z" />
    <glyph glyph-name="Edieresis" unicode="&#xcb;" horiz-adv-x="551" 
d="M322 768l14 57h47l-14 -57h-47zM455 768l14 57h47l-14 -57h-47zM28 0l171 700h408l-7 -30h-375l-74 -302h339l-7 -31h-339l-76 -307h380l-8 -30h-412z" />
    <glyph glyph-name="Igrave" unicode="&#xcc;" horiz-adv-x="226" 
d="M35 0l171 700h33l-171 -700h-33zM215 757l-79 87l35 18l66 -105h-22z" />
    <glyph glyph-name="Iacute" unicode="&#xcd;" horiz-adv-x="226" 
d="M35 0l171 700h33l-171 -700h-33zM218 757l111 105l35 -18l-117 -87h-29z" />
    <glyph glyph-name="Icircumflex" unicode="&#xce;" horiz-adv-x="226" 
d="M35 0l171 700h33l-171 -700h-33zM124 758l118 100h28l69 -100h-29l-59 69l-94 -69h-33z" />
    <glyph glyph-name="Idieresis" unicode="&#xcf;" horiz-adv-x="226" 
d="M35 0l171 700h33l-171 -700h-33zM150 768l14 57h47l-14 -57h-47zM283 768l14 57h47l-14 -57h-47z" />
    <glyph glyph-name="Eth" unicode="&#xd0;" horiz-adv-x="657" 
d="M53 337l8 30h68l81 333h118q147 0 228 -79q72 -72 72 -198q0 -83 -30.5 -167t-88.5 -142q-116 -114 -299 -114h-171l82 337h-68zM531 599q-69 71 -202 71h-95l-74 -303h198l-8 -30h-197l-75 -307h137q166 0 269 105q53 52 81.5 130.5t28.5 156.5q0 114 -63 177z" />
    <glyph glyph-name="Ntilde" unicode="&#xd1;" horiz-adv-x="668" 
d="M352 755l-21 5q32 74 80 74q21 0 59 -23q32 -22 50 -22q29 0 55 48l22 -6q-34 -73 -80 -73q-20 0 -58 24q-37 22 -50 22q-29 0 -57 -49zM28 0l171 700h31l268 -641l158 641h31l-171 -700h-27l-271 648l-158 -648h-32z" />
    <glyph glyph-name="Ograve" unicode="&#xd2;" horiz-adv-x="703" 
d="M446 763l-79 87l35 18l66 -105h-22zM428 711q109 0 176 -76.5t67 -200.5q0 -95 -36.5 -192t-99.5 -160q-95 -93 -213 -93q-109 0 -175.5 76.5t-66.5 199.5q0 96 36 193t99 159q94 94 213 94zM323 19q105 0 188 83q59 59 93 151t34 181q0 110 -58.5 178.5t-152.5 68.5
q-104 0 -188 -84q-58 -58 -92 -149.5t-34 -181.5q0 -111 57.5 -179t152.5 -68z" />
    <glyph glyph-name="Oacute" unicode="&#xd3;" horiz-adv-x="703" 
d="M448 763l111 105l35 -18l-117 -87h-29zM428 711q109 0 176 -76.5t67 -200.5q0 -95 -36.5 -192t-99.5 -160q-95 -93 -213 -93q-109 0 -175.5 76.5t-66.5 199.5q0 96 36 193t99 159q94 94 213 94zM323 19q105 0 188 83q59 59 93 151t34 181q0 110 -58.5 178.5t-152.5 68.5
q-104 0 -188 -84q-58 -58 -92 -149.5t-34 -181.5q0 -111 57.5 -179t152.5 -68z" />
    <glyph glyph-name="Ocircumflex" unicode="&#xd4;" horiz-adv-x="703" 
d="M428 711q109 0 176 -76.5t67 -200.5q0 -95 -36.5 -192t-99.5 -160q-95 -93 -213 -93q-109 0 -175.5 76.5t-66.5 199.5q0 96 36 193t99 159q94 94 213 94zM323 19q105 0 188 83q59 59 93 151t34 181q0 110 -58.5 178.5t-152.5 68.5q-104 0 -188 -84q-58 -58 -92 -149.5
t-34 -181.5q0 -111 57.5 -179t152.5 -68zM355 764l118 100h28l69 -100h-29l-59 69l-94 -69h-33z" />
    <glyph glyph-name="Otilde" unicode="&#xd5;" horiz-adv-x="703" 
d="M365 766l-21 5q32 74 80 74q21 0 59 -23q32 -22 50 -22q29 0 55 48l22 -6q-34 -73 -80 -73q-20 0 -58 24q-37 22 -50 22q-29 0 -57 -49zM428 711q109 0 176 -76.5t67 -200.5q0 -95 -36.5 -192t-99.5 -160q-95 -93 -213 -93q-109 0 -175.5 76.5t-66.5 199.5q0 96 36 193
t99 159q94 94 213 94zM323 19q105 0 188 83q59 59 93 151t34 181q0 110 -58.5 178.5t-152.5 68.5q-104 0 -188 -84q-58 -58 -92 -149.5t-34 -181.5q0 -111 57.5 -179t152.5 -68z" />
    <glyph glyph-name="Odieresis" unicode="&#xd6;" horiz-adv-x="703" 
d="M380 774l14 57h47l-14 -57h-47zM513 774l14 57h47l-14 -57h-47zM428 711q109 0 176 -76.5t67 -200.5q0 -95 -36.5 -192t-99.5 -160q-95 -93 -213 -93q-109 0 -175.5 76.5t-66.5 199.5q0 96 36 193t99 159q94 94 213 94zM323 19q105 0 188 83q59 59 93 151t34 181
q0 110 -58.5 178.5t-152.5 68.5q-104 0 -188 -84q-58 -58 -92 -149.5t-34 -181.5q0 -111 57.5 -179t152.5 -68z" />
    <glyph glyph-name="multiply" unicode="&#xd7;" horiz-adv-x="522" 
d="M81 169l-19 22l201 164l-118 161l25 19l116 -162l200 163l18 -23l-200 -163l117 -161l-25 -20l-116 162z" />
    <glyph glyph-name="Oslash" unicode="&#xd8;" horiz-adv-x="703" 
d="M428 711q122 0 191 -96l93 91h40l-118 -116q37 -66 37 -156q0 -95 -36.5 -192t-99.5 -160q-93 -93 -213 -93q-123 0 -190 94l-94 -89h-40l118 115q-36 65 -36 156q0 95 36 192.5t98 159.5q94 94 214 94zM113 266q0 -78 27 -133l456 459q-59 89 -169 89q-106 0 -188 -84
q-58 -57 -92 -149.5t-34 -181.5zM323 19q106 0 189 83q57 58 91.5 151t34.5 181q0 74 -28 132l-455 -459q57 -88 168 -88z" />
    <glyph glyph-name="Ugrave" unicode="&#xd9;" horiz-adv-x="644" 
d="M413 752l-79 87l35 18l66 -105h-22zM287 -10q-96 0 -153 50.5t-57 142.5q0 47 15 110l98 407h33l-101 -416q-13 -53 -13 -98q0 -79 48.5 -122.5t132.5 -43.5q90 0 153 63q61 62 90 180l105 437h33l-107 -444q-32 -127 -97 -193q-74 -73 -180 -73z" />
    <glyph glyph-name="Uacute" unicode="&#xda;" horiz-adv-x="644" 
d="M417 752l111 105l35 -18l-117 -87h-29zM287 -10q-96 0 -153 50.5t-57 142.5q0 47 15 110l98 407h33l-101 -416q-13 -53 -13 -98q0 -79 48.5 -122.5t132.5 -43.5q90 0 153 63q61 62 90 180l105 437h33l-107 -444q-32 -127 -97 -193q-74 -73 -180 -73z" />
    <glyph glyph-name="Ucircumflex" unicode="&#xdb;" horiz-adv-x="644" 
d="M287 -10q-96 0 -153 50.5t-57 142.5q0 47 15 110l98 407h33l-101 -416q-13 -53 -13 -98q0 -79 48.5 -122.5t132.5 -43.5q90 0 153 63q61 62 90 180l105 437h33l-107 -444q-32 -127 -97 -193q-74 -73 -180 -73zM323 753l118 100h28l69 -100h-29l-59 69l-94 -69h-33z" />
    <glyph glyph-name="Udieresis" unicode="&#xdc;" horiz-adv-x="644" 
d="M349 763l14 57h47l-14 -57h-47zM482 763l14 57h47l-14 -57h-47zM287 -10q-96 0 -153 50.5t-57 142.5q0 47 15 110l98 407h33l-101 -416q-13 -53 -13 -98q0 -79 48.5 -122.5t132.5 -43.5q90 0 153 63q61 62 90 180l105 437h33l-107 -444q-32 -127 -97 -193
q-74 -73 -180 -73z" />
    <glyph glyph-name="Yacute" unicode="&#xdd;" horiz-adv-x="564" 
d="M199 0l72 294l-147 406h34l136 -377l320 377h42l-353 -412l-70 -288h-34zM372 752l111 105l35 -18l-117 -87h-29z" />
    <glyph glyph-name="Thorn" unicode="&#xde;" horiz-adv-x="570" 
d="M28 0l171 700h32l-31 -129h131q119 0 176 -57q46 -46 46 -125q0 -100 -66 -166q-84 -84 -245 -84h-147l-34 -139h-33zM102 169h141q144 0 219 73q58 58 58 147q0 64 -38 104q-47 48 -152 48h-137z" />
    <glyph glyph-name="germandbls" unicode="&#xdf;" horiz-adv-x="510" 
d="M170 -2l7 28q113 -1 176 49t63 127q0 117 -161 151l7 26q99 20 153.5 70.5t54.5 128.5q0 53 -32.5 86.5t-89.5 33.5q-63 0 -108 -48.5t-66 -136.5l-125 -513h-31l127 521q25 101 76 151q55 55 128 55q68 0 111 -41.5t43 -107.5q0 -81 -53.5 -135.5t-141.5 -77.5
q141 -42 141 -164q0 -90 -75.5 -148t-203.5 -55z" />
    <glyph glyph-name="agrave" unicode="&#xe0;" horiz-adv-x="490" 
d="M160 -10q-59 0 -100.5 36t-41.5 100q0 81 52 132q54 54 152 54q87 0 170 -30l6 25q9 43 9 67q0 54 -37 84t-103 30q-60 0 -124 -25l-8 29q67 26 134 26q78 0 123.5 -37t45.5 -104q0 -32 -11 -74l-73 -303h-31l24 98q-70 -108 -187 -108zM166 18q73 0 130 51t75 126l15 60
q-80 29 -167 29q-80 0 -125 -45q-43 -42 -43 -110q0 -52 32.5 -81.5t82.5 -29.5zM297 589l-75 103l37 18l58 -121h-20z" />
    <glyph glyph-name="aacute" unicode="&#xe1;" horiz-adv-x="490" 
d="M160 -10q-59 0 -100.5 36t-41.5 100q0 81 52 132q54 54 152 54q87 0 170 -30l6 25q9 43 9 67q0 54 -37 84t-103 30q-60 0 -124 -25l-8 29q67 26 134 26q78 0 123.5 -37t45.5 -104q0 -32 -11 -74l-73 -303h-31l24 98q-70 -108 -187 -108zM166 18q73 0 130 51t75 126l15 60
q-80 29 -167 29q-80 0 -125 -45q-43 -42 -43 -110q0 -52 32.5 -81.5t82.5 -29.5zM294 589l110 121l36 -18l-119 -103h-27z" />
    <glyph glyph-name="acircumflex" unicode="&#xe2;" horiz-adv-x="490" 
d="M160 -10q-59 0 -100.5 36t-41.5 100q0 81 52 132q54 54 152 54q87 0 170 -30l6 25q9 43 9 67q0 54 -37 84t-103 30q-60 0 -124 -25l-8 29q67 26 134 26q78 0 123.5 -37t45.5 -104q0 -32 -11 -74l-73 -303h-31l24 98q-70 -108 -187 -108zM166 18q73 0 130 51t75 126l15 60
q-80 29 -167 29q-80 0 -125 -45q-43 -42 -43 -110q0 -52 32.5 -81.5t82.5 -29.5zM210 591l120 118h23l62 -118h-25l-55 83l-97 -83h-28z" />
    <glyph glyph-name="atilde" unicode="&#xe3;" horiz-adv-x="490" 
d="M160 -10q-59 0 -100.5 36t-41.5 100q0 81 52 132q54 54 152 54q87 0 170 -30l6 25q9 43 9 67q0 54 -37 84t-103 30q-60 0 -124 -25l-8 29q67 26 134 26q78 0 123.5 -37t45.5 -104q0 -32 -11 -74l-73 -303h-31l24 98q-70 -108 -187 -108zM166 18q73 0 130 51t75 126l15 60
q-80 29 -167 29q-80 0 -125 -45q-43 -42 -43 -110q0 -52 32.5 -81.5t82.5 -29.5zM436 682l21 -6q-32 -80 -80 -80q-22 0 -58 27q-33 24 -48 24q-31 0 -55 -55l-22 6q31 80 80 80q20 0 58 -27q31 -24 48 -24q28 0 56 55z" />
    <glyph glyph-name="adieresis" unicode="&#xe4;" horiz-adv-x="490" 
d="M160 -10q-59 0 -100.5 36t-41.5 100q0 81 52 132q54 54 152 54q87 0 170 -30l6 25q9 43 9 67q0 54 -37 84t-103 30q-60 0 -124 -25l-8 29q67 26 134 26q78 0 123.5 -37t45.5 -104q0 -32 -11 -74l-73 -303h-31l24 98q-70 -108 -187 -108zM166 18q73 0 130 51t75 126l15 60
q-80 29 -167 29q-80 0 -125 -45q-43 -42 -43 -110q0 -52 32.5 -81.5t82.5 -29.5zM234 600l14 57h45l-15 -57h-44zM358 600l14 57h44l-14 -57h-44z" />
    <glyph glyph-name="aring" unicode="&#xe5;" horiz-adv-x="490" 
d="M160 -10q-59 0 -100.5 36t-41.5 100q0 81 52 132q54 54 152 54q87 0 170 -30l6 25q9 43 9 67q0 54 -37 84t-103 30q-60 0 -124 -25l-8 29q67 26 134 26q78 0 123.5 -37t45.5 -104q0 -32 -11 -74l-73 -303h-31l24 98q-70 -108 -187 -108zM166 18q73 0 130 51t75 126l15 60
q-80 29 -167 29q-80 0 -125 -45q-43 -42 -43 -110q0 -52 32.5 -81.5t82.5 -29.5zM429 687q0 -40 -29.5 -68t-69.5 -28q-37 0 -60.5 23t-23.5 58q0 39 30 67.5t69 28.5q37 0 60.5 -23t23.5 -58zM269 673q0 -27 17 -44.5t45 -17.5q30 0 52.5 22t22.5 53q0 26 -17 43.5
t-45 17.5q-30 0 -52.5 -22t-22.5 -52z" />
    <glyph glyph-name="ae" unicode="&#xe6;" horiz-adv-x="837" 
d="M571 -10q-70 0 -117 34.5t-64 97.5q-95 -132 -225 -132q-63 0 -105 36.5t-42 100.5q0 81 52 131q54 54 153 54q86 0 169 -30l6 25q9 43 9 67q0 54 -37 84t-103 30q-60 0 -124 -25l-8 29q67 26 134 26q74 0 119 -34t47 -97q34 59 87.5 96.5t114.5 37.5q78 0 119 -51
t41 -131q0 -47 -14 -95h-370q-3 -26 -3 -50q0 -82 43.5 -128t117.5 -46q77 0 146 54l17 -24q-78 -60 -163 -60zM169 18q122 0 214 139q-6 44 3 97q-81 30 -167 30q-80 0 -125 -45q-43 -42 -43 -109q0 -52 33.5 -82t84.5 -30zM503 433q-61 -61 -84 -160h339q8 42 8 65
q0 68 -32.5 111t-97.5 43q-74 0 -133 -59z" />
    <glyph glyph-name="ccedilla" unicode="&#xe7;" horiz-adv-x="462" 
d="M126 -131l-31 16l95 109q-65 12 -107.5 64.5t-42.5 135.5q0 71 26.5 138.5t73.5 114.5q72 74 165 74q105 0 159 -92l-25 -18q-50 80 -136 80q-78 0 -139 -63q-41 -41 -66 -104.5t-25 -127.5q0 -83 44.5 -129.5t109.5 -46.5q71 0 135 56l19 -22q-71 -64 -156 -64h-10z" />
    <glyph glyph-name="egrave" unicode="&#xe8;" 
d="M447 244h-370q-3 -26 -3 -50q0 -82 43 -128t117 -46q78 0 147 54l17 -24q-78 -60 -164 -60q-87 0 -139.5 54t-52.5 148q0 72 27.5 141.5t74.5 116.5q69 71 157 71q79 0 120 -51t41 -131q0 -49 -15 -95zM167 433q-61 -61 -84 -160h339q8 34 8 65q0 68 -32.5 111t-97.5 43
q-72 0 -133 -59zM315 589l-75 103l37 18l58 -121h-20z" />
    <glyph glyph-name="eacute" unicode="&#xe9;" 
d="M447 244h-370q-3 -26 -3 -50q0 -82 43 -128t117 -46q78 0 147 54l17 -24q-78 -60 -164 -60q-87 0 -139.5 54t-52.5 148q0 72 27.5 141.5t74.5 116.5q69 71 157 71q79 0 120 -51t41 -131q0 -49 -15 -95zM167 433q-61 -61 -84 -160h339q8 34 8 65q0 68 -32.5 111t-97.5 43
q-72 0 -133 -59zM313 589l110 121l36 -18l-119 -103h-27z" />
    <glyph glyph-name="ecircumflex" unicode="&#xea;" 
d="M447 244h-370q-3 -26 -3 -50q0 -82 43 -128t117 -46q78 0 147 54l17 -24q-78 -60 -164 -60q-87 0 -139.5 54t-52.5 148q0 72 27.5 141.5t74.5 116.5q69 71 157 71q79 0 120 -51t41 -131q0 -49 -15 -95zM167 433q-61 -61 -84 -160h339q8 34 8 65q0 68 -32.5 111t-97.5 43
q-72 0 -133 -59zM229 591l120 118h23l62 -118h-25l-55 83l-97 -83h-28z" />
    <glyph glyph-name="edieresis" unicode="&#xeb;" 
d="M447 244h-370q-3 -26 -3 -50q0 -82 43 -128t117 -46q78 0 147 54l17 -24q-78 -60 -164 -60q-87 0 -139.5 54t-52.5 148q0 72 27.5 141.5t74.5 116.5q69 71 157 71q79 0 120 -51t41 -131q0 -49 -15 -95zM167 433q-61 -61 -84 -160h339q8 34 8 65q0 68 -32.5 111t-97.5 43
q-72 0 -133 -59zM251 600l14 57h45l-15 -57h-44zM375 600l14 57h44l-14 -57h-44z" />
    <glyph glyph-name="igrave" unicode="&#xec;" horiz-adv-x="204" 
d="M24 0l124 511h31l-124 -511h-31zM166 588l-75 103l37 18l58 -121h-20z" />
    <glyph glyph-name="iacute" unicode="&#xed;" horiz-adv-x="204" 
d="M166 588l110 121l36 -18l-119 -103h-27zM24 0l124 511h31l-124 -511h-31z" />
    <glyph glyph-name="icircumflex" unicode="&#xee;" horiz-adv-x="204" 
d="M79 590l120 118h23l62 -118h-25l-55 83l-97 -83h-28zM24 0l124 511h31l-124 -511h-31z" />
    <glyph glyph-name="idieresis" unicode="&#xef;" horiz-adv-x="204" 
d="M104 599l14 57h45l-15 -57h-44zM228 599l14 57h44l-14 -57h-44zM24 0l124 511h31l-124 -511h-31z" />
    <glyph glyph-name="eth" unicode="&#xf0;" horiz-adv-x="529" 
d="M234 579l-11 25l122 55q-23 31 -48 63h38l37 -50l101 46l11 -24l-97 -45q103 -158 103 -310q0 -178 -102 -280q-67 -69 -161 -69q-85 0 -134.5 57t-49.5 150q0 72 26 140.5t71 112.5q67 69 156 69q109 0 162 -107q-21 109 -98 225zM229 19q79 0 138 61q40 40 64.5 103
t24.5 128q0 78 -44 128t-116 50q-75 0 -132 -57q-40 -40 -64.5 -104t-24.5 -129q0 -82 41 -131t113 -49z" />
    <glyph glyph-name="ntilde" unicode="&#xf1;" horiz-adv-x="526" 
d="M18 0l124 511h31l-25 -105q68 115 181 115q66 0 104.5 -38t38.5 -105q0 -38 -13 -91l-69 -287h-31l69 288q12 45 12 88q0 55 -30.5 85.5t-87.5 30.5q-66 0 -122 -52.5t-77 -136.5l-74 -303h-31zM460 682l21 -6q-32 -80 -80 -80q-22 0 -58 27q-33 24 -48 24q-31 0 -55 -55
l-22 6q31 80 80 80q20 0 58 -27q31 -24 48 -24q28 0 56 55z" />
    <glyph glyph-name="ograve" unicode="&#xf2;" horiz-adv-x="536" 
d="M306 521q84 0 136 -57.5t52 -149.5q0 -71 -26 -138t-73 -114q-72 -72 -166 -72q-84 0 -136 57.5t-52 149.5q0 71 26.5 138t73.5 114q72 72 165 72zM231 19q78 0 140 62q41 42 65.5 104.5t24.5 126.5q0 81 -42.5 130.5t-114.5 49.5q-79 0 -140 -63q-41 -41 -65.5 -103.5
t-24.5 -127.5q0 -80 43 -129.5t114 -49.5zM328 589l-75 103l37 18l58 -121h-20z" />
    <glyph glyph-name="oacute" unicode="&#xf3;" horiz-adv-x="536" 
d="M325 589l110 121l36 -18l-119 -103h-27zM306 521q84 0 136 -57.5t52 -149.5q0 -71 -26 -138t-73 -114q-72 -72 -166 -72q-84 0 -136 57.5t-52 149.5q0 71 26.5 138t73.5 114q72 72 165 72zM231 19q78 0 140 62q41 42 65.5 104.5t24.5 126.5q0 81 -42.5 130.5t-114.5 49.5
q-79 0 -140 -63q-41 -41 -65.5 -103.5t-24.5 -127.5q0 -80 43 -129.5t114 -49.5z" />
    <glyph glyph-name="ocircumflex" unicode="&#xf4;" horiz-adv-x="536" 
d="M239 591l120 118h23l62 -118h-25l-55 83l-97 -83h-28zM306 521q84 0 136 -57.5t52 -149.5q0 -71 -26 -138t-73 -114q-72 -72 -166 -72q-84 0 -136 57.5t-52 149.5q0 71 26.5 138t73.5 114q72 72 165 72zM231 19q78 0 140 62q41 42 65.5 104.5t24.5 126.5
q0 81 -42.5 130.5t-114.5 49.5q-79 0 -140 -63q-41 -41 -65.5 -103.5t-24.5 -127.5q0 -80 43 -129.5t114 -49.5z" />
    <glyph glyph-name="otilde" unicode="&#xf5;" horiz-adv-x="536" 
d="M306 521q84 0 136 -57.5t52 -149.5q0 -71 -26 -138t-73 -114q-72 -72 -166 -72q-84 0 -136 57.5t-52 149.5q0 71 26.5 138t73.5 114q72 72 165 72zM231 19q78 0 140 62q41 42 65.5 104.5t24.5 126.5q0 81 -42.5 130.5t-114.5 49.5q-79 0 -140 -63q-41 -41 -65.5 -103.5
t-24.5 -127.5q0 -80 43 -129.5t114 -49.5zM466 682l21 -6q-32 -80 -80 -80q-22 0 -58 27q-33 24 -48 24q-31 0 -55 -55l-22 6q31 80 80 80q20 0 58 -27q31 -24 48 -24q28 0 56 55z" />
    <glyph glyph-name="odieresis" unicode="&#xf6;" horiz-adv-x="536" 
d="M263 600l14 57h45l-15 -57h-44zM387 600l14 57h44l-14 -57h-44zM306 521q84 0 136 -57.5t52 -149.5q0 -71 -26 -138t-73 -114q-72 -72 -166 -72q-84 0 -136 57.5t-52 149.5q0 71 26.5 138t73.5 114q72 72 165 72zM231 19q78 0 140 62q41 42 65.5 104.5t24.5 126.5
q0 81 -42.5 130.5t-114.5 49.5q-79 0 -140 -63q-41 -41 -65.5 -103.5t-24.5 -127.5q0 -80 43 -129.5t114 -49.5z" />
    <glyph glyph-name="divide" unicode="&#xf7;" horiz-adv-x="523" 
d="M208 142l16 62h48l-15 -62h-49zM78 337l7 30h407l-7 -30h-407zM298 500l15 62h49l-16 -62h-48z" />
    <glyph glyph-name="oslash" unicode="&#xf8;" horiz-adv-x="536" 
d="M306 521q91 0 144 -67l65 62h38l-88 -85q29 -52 29 -117q0 -71 -26 -138t-73 -114q-72 -72 -166 -72q-92 0 -144 66l-64 -61h-38l87 84q-29 50 -29 118q0 71 26.5 138t73.5 114q72 72 165 72zM304 492q-79 0 -140 -63q-41 -41 -65.5 -103.5t-24.5 -127.5q0 -53 19 -96
l334 329q-42 61 -123 61zM461 312q0 54 -20 96l-334 -330q43 -59 124 -59q78 0 140 62q42 42 66 104t24 127z" />
    <glyph glyph-name="ugrave" unicode="&#xf9;" horiz-adv-x="525" 
d="M196 -10q-66 0 -104.5 37.5t-38.5 105.5q0 32 14 91l69 287h31l-70 -288q-12 -51 -12 -88q0 -56 30.5 -86.5t87.5 -30.5q66 0 122.5 52.5t77.5 136.5l73 304h32l-125 -511h-31l26 105q-68 -115 -182 -115zM318 585l-75 103l37 18l58 -121h-20z" />
    <glyph glyph-name="uacute" unicode="&#xfa;" horiz-adv-x="525" 
d="M315 585l110 121l36 -18l-119 -103h-27zM196 -10q-66 0 -104.5 37.5t-38.5 105.5q0 32 14 91l69 287h31l-70 -288q-12 -51 -12 -88q0 -56 30.5 -86.5t87.5 -30.5q66 0 122.5 52.5t77.5 136.5l73 304h32l-125 -511h-31l26 105q-68 -115 -182 -115z" />
    <glyph glyph-name="ucircumflex" unicode="&#xfb;" horiz-adv-x="525" 
d="M231 587l120 118h23l62 -118h-25l-55 83l-97 -83h-28zM196 -10q-66 0 -104.5 37.5t-38.5 105.5q0 32 14 91l69 287h31l-70 -288q-12 -51 -12 -88q0 -56 30.5 -86.5t87.5 -30.5q66 0 122.5 52.5t77.5 136.5l73 304h32l-125 -511h-31l26 105q-68 -115 -182 -115z" />
    <glyph glyph-name="udieresis" unicode="&#xfc;" horiz-adv-x="525" 
d="M252 596l14 57h45l-15 -57h-44zM376 596l14 57h44l-14 -57h-44zM196 -10q-66 0 -104.5 37.5t-38.5 105.5q0 32 14 91l69 287h31l-70 -288q-12 -51 -12 -88q0 -56 30.5 -86.5t87.5 -30.5q66 0 122.5 52.5t77.5 136.5l73 304h32l-125 -511h-31l26 105q-68 -115 -182 -115z
" />
    <glyph glyph-name="yacute" unicode="&#xfd;" horiz-adv-x="491" 
d="M169 3l-80 508h33l71 -471l283 471h36l-312 -511q-55 -89 -94.5 -121t-83.5 -32q-50 0 -85 29l18 25q32 -25 69 -25q33 0 66 27t79 100zM288 585l110 121l36 -18l-119 -103h-27z" />
    <glyph glyph-name="thorn" unicode="&#xfe;" horiz-adv-x="557" 
d="M226 722l-80 -325q30 49 81.5 86.5t114.5 37.5q76 0 123 -55.5t47 -143.5q0 -75 -27 -146.5t-75 -119.5q-68 -66 -152 -66q-74 0 -118 45.5t-56 107.5l-71 -293h-31l213 872h31zM257 19q73 0 130 57q42 43 67 109.5t25 133.5q0 76 -39 124.5t-102 48.5q-77 0 -141 -64
q-43 -43 -69 -106t-26 -125q0 -76 42.5 -127t112.5 -51z" />
    <glyph glyph-name="ydieresis" unicode="&#xff;" horiz-adv-x="491" 
d="M169 3l-80 508h33l71 -471l283 471h36l-312 -511q-55 -89 -94.5 -121t-83.5 -32q-50 0 -85 29l18 25q32 -25 69 -25q33 0 66 27t79 100zM228 596l14 57h45l-15 -57h-44zM352 596l14 57h44l-14 -57h-44z" />
    <glyph glyph-name="Amacron" unicode="&#x100;" horiz-adv-x="648" 
d="M-26 0l448 705h32l102 -705h-33l-28 204h-355l-129 -204h-37zM159 234h331l-60 427zM333 784l7 31h251l-7 -31h-251z" />
    <glyph glyph-name="amacron" unicode="&#x101;" horiz-adv-x="490" 
d="M160 -10q-59 0 -100.5 36t-41.5 100q0 81 52 132q54 54 152 54q87 0 170 -30l6 25q9 43 9 67q0 54 -37 84t-103 30q-60 0 -124 -25l-8 29q67 26 134 26q78 0 123.5 -37t45.5 -104q0 -32 -11 -74l-73 -303h-31l24 98q-70 -108 -187 -108zM166 18q73 0 130 51t75 126l15 60
q-80 29 -167 29q-80 0 -125 -45q-43 -42 -43 -110q0 -52 32.5 -81.5t82.5 -29.5zM200 610l7 29h240l-7 -29h-240z" />
    <glyph glyph-name="Abreve" unicode="&#x102;" horiz-adv-x="648" 
d="M-26 0l448 705h32l102 -705h-33l-28 204h-355l-129 -204h-37zM159 234h331l-60 427zM455 763q-50 0 -76.5 23t-21.5 64h26q2 -57 76 -57t104 57h28q-15 -41 -50.5 -64t-85.5 -23z" />
    <glyph glyph-name="abreve" unicode="&#x103;" horiz-adv-x="490" 
d="M160 -10q-59 0 -100.5 36t-41.5 100q0 81 52 132q54 54 152 54q87 0 170 -30l6 25q9 43 9 67q0 54 -37 84t-103 30q-60 0 -124 -25l-8 29q67 26 134 26q78 0 123.5 -37t45.5 -104q0 -32 -11 -74l-73 -303h-31l24 98q-70 -108 -187 -108zM166 18q73 0 130 51t75 126l15 60
q-80 29 -167 29q-80 0 -125 -45q-43 -42 -43 -110q0 -52 32.5 -81.5t82.5 -29.5zM317 590q-50 0 -75.5 27t-18.5 73h25q-2 -33 16 -52.5t57 -19.5q71 0 108 72h26q-38 -100 -138 -100z" />
    <glyph glyph-name="Aogonek" unicode="&#x104;" horiz-adv-x="648" 
d="M539 -121l-6 -23q-1 -1 -3 -1q-40 1 -62 16t-22 39q0 43 76 94l-27 200h-355l-129 -204h-37l448 705h32l102 -705h-9q-69 -53 -69 -85t61 -36zM159 234h331l-60 427z" />
    <glyph glyph-name="aogonek" unicode="&#x105;" horiz-adv-x="490" 
d="M340 -121l-6 -23q-1 -1 -3 -1q-40 1 -62 16t-22 39q0 43 77 95l23 93q-70 -108 -187 -108q-59 0 -100.5 36t-41.5 100q0 81 52 132q54 54 152 54q87 0 170 -30l6 25q9 43 9 67q0 54 -37 84t-103 30q-60 0 -124 -25l-8 29q67 26 134 26q78 0 123.5 -37t45.5 -104
q0 -32 -11 -74l-73 -303h-6q-69 -53 -69 -85t61 -36zM166 18q73 0 130 51t75 126l15 60q-80 29 -167 29q-80 0 -125 -45q-43 -42 -43 -110q0 -52 32.5 -81.5t82.5 -29.5z" />
    <glyph glyph-name="Cacute" unicode="&#x106;" horiz-adv-x="602" 
d="M312 -11q-101 0 -167.5 71.5t-66.5 193.5q0 98 36 195t102 163q99 99 222 99q136 0 201 -117l-28 -17q-60 104 -174 104q-111 0 -196 -87q-60 -61 -95 -153t-35 -187q0 -108 57 -171.5t147 -63.5q99 0 189 83l21 -23q-96 -90 -213 -90zM436 763l111 105l35 -18l-117 -87
h-29z" />
    <glyph glyph-name="cacute" unicode="&#x107;" horiz-adv-x="462" 
d="M307 589l110 121l36 -18l-119 -103h-27zM225 -10q-77 0 -131 55t-54 149q0 71 26.5 138.5t73.5 114.5q72 74 165 74q105 0 159 -92l-25 -18q-50 80 -136 80q-78 0 -139 -63q-41 -41 -66 -104.5t-25 -127.5q0 -83 44.5 -129.5t109.5 -46.5q71 0 135 56l19 -22
q-71 -64 -156 -64z" />
    <glyph glyph-name="Cdotaccent" unicode="&#x10a;" horiz-adv-x="602" 
d="M434 774l14 57h48l-14 -57h-48zM312 -11q-101 0 -167.5 71.5t-66.5 193.5q0 98 36 195t102 163q99 99 222 99q136 0 201 -117l-28 -17q-60 104 -174 104q-111 0 -196 -87q-60 -61 -95 -153t-35 -187q0 -108 57 -171.5t147 -63.5q99 0 189 83l21 -23q-96 -90 -213 -90z
" />
    <glyph glyph-name="cdotaccent" unicode="&#x10b;" horiz-adv-x="462" 
d="M225 -10q-77 0 -131 55t-54 149q0 71 26.5 138.5t73.5 114.5q72 74 165 74q105 0 159 -92l-25 -18q-50 80 -136 80q-78 0 -139 -63q-41 -41 -66 -104.5t-25 -127.5q0 -83 44.5 -129.5t109.5 -46.5q71 0 135 56l19 -22q-71 -64 -156 -64zM308 600l16 58h43l-15 -58h-44z
" />
    <glyph glyph-name="Ccaron" unicode="&#x10c;" horiz-adv-x="602" 
d="M312 -11q-101 0 -167.5 71.5t-66.5 193.5q0 98 36 195t102 163q99 99 222 99q136 0 201 -117l-28 -17q-60 104 -174 104q-111 0 -196 -87q-60 -61 -95 -153t-35 -187q0 -108 57 -171.5t147 -63.5q99 0 189 83l21 -23q-96 -90 -213 -90zM592 864l-118 -100h-28l-70 100h29
l61 -68l93 68h33z" />
    <glyph glyph-name="ccaron" unicode="&#x10d;" horiz-adv-x="462" 
d="M313 591l-62 118h25l54 -82l97 82h29l-120 -118h-23zM225 -10q-77 0 -131 55t-54 149q0 71 26.5 138.5t73.5 114.5q72 74 165 74q105 0 159 -92l-25 -18q-50 80 -136 80q-78 0 -139 -63q-41 -41 -66 -104.5t-25 -127.5q0 -83 44.5 -129.5t109.5 -46.5q71 0 135 56l19 -22
q-71 -64 -156 -64z" />
    <glyph glyph-name="Dcaron" unicode="&#x10e;" horiz-adv-x="649" 
d="M28 0l171 700h118q148 0 229 -79q71 -71 71 -198q0 -84 -30.5 -168t-88.5 -141q-114 -114 -298 -114h-172zM521 599q-69 71 -203 71h-94l-156 -640h136q165 0 270 105q53 52 81 130.5t28 156.5q0 115 -62 177zM549 858l-118 -100h-28l-70 100h29l61 -68l93 68h33z" />
    <glyph glyph-name="dcaron" unicode="&#x10f;" horiz-adv-x="556" 
d="M612 573l50 149h35v-2l-68 -147h-17zM382 0l28 114q-30 -49 -82 -86.5t-115 -37.5q-75 0 -122 55.5t-47 143.5q0 74 27 146t74 119q67 67 153 67q74 0 118 -46t54 -108l88 355h31l-176 -722h-31zM218 19q77 0 140 63q43 42 69 106t26 126q0 76 -42.5 127t-111.5 51
q-73 0 -130 -57q-43 -42 -67.5 -108.5t-24.5 -134.5q0 -77 38.5 -125t102.5 -48z" />
    <glyph glyph-name="Dcroat" unicode="&#x110;" horiz-adv-x="657" 
d="M53 337l8 30h68l81 333h118q147 0 228 -79q72 -72 72 -198q0 -83 -30.5 -167t-88.5 -142q-116 -114 -299 -114h-171l82 337h-68zM531 599q-69 71 -202 71h-95l-74 -303h198l-8 -30h-197l-75 -307h137q166 0 269 105q53 52 81.5 130.5t28.5 156.5q0 114 -63 177z" />
    <glyph glyph-name="dcroat" unicode="&#x111;" horiz-adv-x="556" 
d="M372 614l7 27h158l21 81h31l-20 -81h64l-7 -27h-63l-150 -614h-31l28 114q-30 -49 -82 -86.5t-115 -37.5q-75 0 -122 55.5t-47 143.5q0 74 27 146t74 119q67 67 153 67q74 0 118 -46t54 -108l61 247h-159zM218 19q77 0 140 63q43 42 69 106t26 126q0 76 -42.5 127
t-111.5 51q-73 0 -130 -57q-43 -42 -67.5 -108.5t-24.5 -134.5q0 -77 38.5 -125t102.5 -48z" />
    <glyph glyph-name="Emacron" unicode="&#x112;" horiz-adv-x="551" 
d="M290 778l7 31h251l-7 -31h-251zM28 0l171 700h408l-7 -30h-375l-74 -302h339l-7 -31h-339l-76 -307h380l-8 -30h-412z" />
    <glyph glyph-name="emacron" unicode="&#x113;" 
d="M447 244h-370q-3 -26 -3 -50q0 -82 43 -128t117 -46q78 0 147 54l17 -24q-78 -60 -164 -60q-87 0 -139.5 54t-52.5 148q0 72 27.5 141.5t74.5 116.5q69 71 157 71q79 0 120 -51t41 -131q0 -49 -15 -95zM167 433q-61 -61 -84 -160h339q8 34 8 65q0 68 -32.5 111t-97.5 43
q-72 0 -133 -59zM218 610l7 29h240l-7 -29h-240z" />
    <glyph glyph-name="Ebreve" unicode="&#x114;" horiz-adv-x="551" 
d="M412 757q-50 0 -76.5 23t-21.5 64h26q2 -57 76 -57t104 57h28q-15 -41 -50.5 -64t-85.5 -23zM28 0l171 700h408l-7 -30h-375l-74 -302h339l-7 -31h-339l-76 -307h380l-8 -30h-412z" />
    <glyph glyph-name="ebreve" unicode="&#x115;" 
d="M447 244h-370q-3 -26 -3 -50q0 -82 43 -128t117 -46q78 0 147 54l17 -24q-78 -60 -164 -60q-87 0 -139.5 54t-52.5 148q0 72 27.5 141.5t74.5 116.5q69 71 157 71q79 0 120 -51t41 -131q0 -49 -15 -95zM167 433q-61 -61 -84 -160h339q8 34 8 65q0 68 -32.5 111t-97.5 43
q-72 0 -133 -59zM335 590q-50 0 -75.5 27t-18.5 73h25q-2 -33 16 -52.5t57 -19.5q71 0 108 72h26q-38 -100 -138 -100z" />
    <glyph glyph-name="Edotaccent" unicode="&#x116;" horiz-adv-x="551" 
d="M389 768l14 57h48l-14 -57h-48zM28 0l171 700h408l-7 -30h-375l-74 -302h339l-7 -31h-339l-76 -307h380l-8 -30h-412z" />
    <glyph glyph-name="edotaccent" unicode="&#x117;" 
d="M447 244h-370q-3 -26 -3 -50q0 -82 43 -128t117 -46q78 0 147 54l17 -24q-78 -60 -164 -60q-87 0 -139.5 54t-52.5 148q0 72 27.5 141.5t74.5 116.5q69 71 157 71q79 0 120 -51t41 -131q0 -49 -15 -95zM167 433q-61 -61 -84 -160h339q8 34 8 65q0 68 -32.5 111t-97.5 43
q-72 0 -133 -59zM313 600l16 58h43l-15 -58h-44z" />
    <glyph glyph-name="Eogonek" unicode="&#x118;" horiz-adv-x="551" 
d="M28 0l171 700h408l-7 -30h-375l-74 -302h339l-7 -31h-339l-76 -307h380l-8 -30h-15q-69 -53 -69 -85t61 -36l-6 -23q-1 -1 -3 -1q-40 1 -62 16t-22 39q0 41 70 90h-366z" />
    <glyph glyph-name="eogonek" unicode="&#x119;" 
d="M381 74l17 -24q-12 -9 -54.5 -38t-58.5 -46q-28 -26 -28 -51q0 -32 60 -36l-5 -23l-3 -1q-41 1 -63 16t-22 39q0 39 64 86q-27 -6 -54 -6q-87 0 -139.5 54t-52.5 148q0 72 27.5 141.5t74.5 116.5q69 71 157 71q79 0 120 -51t41 -131q0 -49 -15 -95h-370q-3 -26 -3 -50
q0 -82 43 -128t117 -46q78 0 147 54zM167 433q-61 -61 -84 -160h339q8 34 8 65q0 68 -32.5 111t-97.5 43q-72 0 -133 -59z" />
    <glyph glyph-name="Ecaron" unicode="&#x11a;" horiz-adv-x="551" 
d="M546 858l-118 -100h-28l-70 100h29l61 -68l93 68h33zM28 0l171 700h408l-7 -30h-375l-74 -302h339l-7 -31h-339l-76 -307h380l-8 -30h-412z" />
    <glyph glyph-name="ecaron" unicode="&#x11b;" 
d="M447 244h-370q-3 -26 -3 -50q0 -82 43 -128t117 -46q78 0 147 54l17 -24q-78 -60 -164 -60q-87 0 -139.5 54t-52.5 148q0 72 27.5 141.5t74.5 116.5q69 71 157 71q79 0 120 -51t41 -131q0 -49 -15 -95zM167 433q-61 -61 -84 -160h339q8 34 8 65q0 68 -32.5 111t-97.5 43
q-72 0 -133 -59zM318 591l-62 118h25l54 -82l97 82h29l-120 -118h-23z" />
    <glyph glyph-name="Gbreve" unicode="&#x11e;" horiz-adv-x="656" 
d="M474 763q-50 0 -76.5 23t-21.5 64h26q2 -57 76 -57t104 57h28q-15 -41 -50.5 -64t-85.5 -23zM333 -11q-114 0 -183.5 76t-69.5 202q0 94 35.5 185t98.5 154q103 105 241 105q128 0 204 -100l-26 -19q-67 89 -180 89q-119 0 -215 -94q-58 -58 -91.5 -144.5t-33.5 -174.5
q0 -113 60.5 -181t161.5 -68q91 0 165 48l65 256h-200l8 32h232l-78 -307q-92 -59 -194 -59z" />
    <glyph glyph-name="gbreve" unicode="&#x11f;" horiz-adv-x="554" 
d="M192 -151q-52 0 -105.5 19t-92.5 52l19 25q77 -66 181 -66q88 0 139 51q39 37 62 129l22 89q-81 -115 -195 -115q-74 0 -123.5 51.5t-49.5 133.5q0 65 25 128t68 106q71 69 159 69q72 0 115 -44t55 -103l34 137h31l-111 -456q-24 -99 -70 -144q-62 -62 -163 -62zM227 62
q81 0 146 65q36 36 58.5 90t22.5 106q0 68 -42 118.5t-112 50.5q-75 0 -134 -59q-39 -39 -61.5 -96.5t-22.5 -116.5q0 -70 41.5 -114t103.5 -44zM356 590q-50 0 -75.5 27t-18.5 73h25q-2 -33 16 -52.5t57 -19.5q71 0 108 72h26q-38 -100 -138 -100z" />
    <glyph glyph-name="Gdotaccent" unicode="&#x120;" horiz-adv-x="656" 
d="M451 774l14 57h48l-14 -57h-48zM333 -11q-114 0 -183.5 76t-69.5 202q0 94 35.5 185t98.5 154q103 105 241 105q128 0 204 -100l-26 -19q-67 89 -180 89q-119 0 -215 -94q-58 -58 -91.5 -144.5t-33.5 -174.5q0 -113 60.5 -181t161.5 -68q91 0 165 48l65 256h-200l8 32
h232l-78 -307q-92 -59 -194 -59z" />
    <glyph glyph-name="gdotaccent" unicode="&#x121;" horiz-adv-x="554" 
d="M192 -151q-52 0 -105.5 19t-92.5 52l19 25q77 -66 181 -66q88 0 139 51q39 37 62 129l22 89q-81 -115 -195 -115q-74 0 -123.5 51.5t-49.5 133.5q0 65 25 128t68 106q71 69 159 69q72 0 115 -44t55 -103l34 137h31l-111 -456q-24 -99 -70 -144q-62 -62 -163 -62zM227 62
q81 0 146 65q36 36 58.5 90t22.5 106q0 68 -42 118.5t-112 50.5q-75 0 -134 -59q-39 -39 -61.5 -96.5t-22.5 -116.5q0 -70 41.5 -114t103.5 -44zM335 600l16 58h43l-15 -58h-44z" />
    <glyph glyph-name="Gcommaaccent" unicode="&#x122;" horiz-adv-x="656" 
d="M219 -194l-3 17q21 8 31 19t14 32h-20l14 55h46l-12 -46q-9 -36 -24.5 -52t-45.5 -25zM333 -11q-114 0 -183.5 76t-69.5 202q0 94 35.5 185t98.5 154q103 105 241 105q128 0 204 -100l-26 -19q-67 89 -180 89q-119 0 -215 -94q-58 -58 -91.5 -144.5t-33.5 -174.5
q0 -113 60.5 -181t161.5 -68q91 0 165 48l65 256h-200l8 32h232l-78 -307q-92 -59 -194 -59z" />
    <glyph glyph-name="gcommaaccent" unicode="&#x123;" horiz-adv-x="554" 
d="M412 722l3 -17q-21 -8 -31 -19t-14 -32h20l-14 -55h-46l12 46q9 36 24.5 52t45.5 25zM192 -151q-52 0 -105.5 19t-92.5 52l19 25q77 -66 181 -66q88 0 139 51q39 37 62 129l22 89q-81 -115 -195 -115q-74 0 -123.5 51.5t-49.5 133.5q0 65 25 128t68 106q71 69 159 69
q72 0 115 -44t55 -103l34 137h31l-111 -456q-24 -99 -70 -144q-62 -62 -163 -62zM227 62q81 0 146 65q36 36 58.5 90t22.5 106q0 68 -42 118.5t-112 50.5q-75 0 -134 -59q-39 -39 -61.5 -96.5t-22.5 -116.5q0 -70 41.5 -114t103.5 -44z" />
    <glyph glyph-name="Hbar" unicode="&#x126;" horiz-adv-x="650" 
d="M91 534l8 28h68l34 138h33l-34 -138h400l34 138h33l-34 -138h68l-8 -28h-67l-130 -534h-33l82 336h-400l-82 -336h-33l130 534h-69zM152 366h401l40 168h-400z" />
    <glyph glyph-name="hbar" unicode="&#x127;" horiz-adv-x="525" 
d="M106 614l6 27h63l20 81h31l-20 -81h160l-7 -27h-160l-51 -208q68 115 181 115q66 0 104.5 -38t38.5 -105q0 -38 -13 -91l-69 -287h-31l69 288q12 45 12 88q0 55 -30.5 85.5t-87.5 30.5q-66 0 -122 -52.5t-77 -136.5l-74 -303h-31l150 614h-62z" />
    <glyph glyph-name="Imacron" unicode="&#x12a;" horiz-adv-x="226" 
d="M35 0l171 700h33l-171 -700h-33zM118 778l7 31h251l-7 -31h-251z" />
    <glyph glyph-name="imacron" unicode="&#x12b;" horiz-adv-x="204" 
d="M24 0l124 511h31l-124 -511h-31zM70 609l7 29h240l-7 -29h-240z" />
    <glyph glyph-name="Ibreve" unicode="&#x12c;" horiz-adv-x="226" 
d="M35 0l171 700h33l-171 -700h-33zM240 757q-50 0 -76.5 23t-21.5 64h26q2 -57 76 -57t104 57h28q-15 -41 -50.5 -64t-85.5 -23z" />
    <glyph glyph-name="ibreve" unicode="&#x12d;" horiz-adv-x="204" 
d="M24 0l124 511h31l-124 -511h-31zM187 589q-50 0 -75.5 27t-18.5 73h25q-2 -33 16 -52.5t57 -19.5q71 0 108 72h26q-38 -100 -138 -100z" />
    <glyph glyph-name="Iogonek" unicode="&#x12e;" horiz-adv-x="228" 
d="M56 -121l-6 -23q-1 -1 -3 -1q-40 1 -62 16t-22 39q0 40 72 92l171 698h33l-171 -700h-4q-69 -53 -69 -85t61 -36z" />
    <glyph glyph-name="iogonek" unicode="&#x12f;" horiz-adv-x="204" 
d="M44 -121l-6 -23q-1 -1 -3 -1q-40 1 -62 16t-22 39q0 41 73 92l125 509h31l-125 -511h-3q-69 -53 -69 -85t61 -36zM177 643l15 62h40l-16 -62h-39z" />
    <glyph glyph-name="Idotaccent" unicode="&#x130;" horiz-adv-x="226" 
d="M35 0l171 700h33l-171 -700h-33zM216 768l14 57h48l-14 -57h-48z" />
    <glyph glyph-name="dotlessi" unicode="&#x131;" horiz-adv-x="204" 
d="M24 0l124 511h31l-124 -511h-31z" />
    <glyph glyph-name="Kcommaaccent" unicode="&#x136;" horiz-adv-x="596" 
d="M171 -190l-3 17q21 8 31 19t14 32h-20l14 55h46l-12 -46q-9 -36 -24.5 -52t-45.5 -25zM28 0l171 700h33l-112 -452l493 452h45l-335 -305l177 -395h-36l-167 372l-188 -171l-48 -201h-33z" />
    <glyph glyph-name="kcommaaccent" unicode="&#x137;" horiz-adv-x="466" 
d="M102 -191l-3 17q21 8 31 19t14 32h-20l14 55h46l-12 -46q-9 -36 -24.5 -52t-45.5 -25zM18 0l177 722h31l-132 -538l352 327h42l-241 -221l125 -290h-34l-115 267l-139 -126l-35 -141h-31z" />
    <glyph glyph-name="Lacute" unicode="&#x139;" horiz-adv-x="493" 
d="M221 757l111 105l35 -18l-117 -87h-29zM28 0l171 700h33l-164 -670h346l-7 -30h-379z" />
    <glyph glyph-name="lacute" unicode="&#x13a;" horiz-adv-x="204" 
d="M214 771l111 105l35 -18l-117 -87h-29zM24 0l177 722h31l-177 -722h-31z" />
    <glyph glyph-name="Lcommaaccent" unicode="&#x13b;" horiz-adv-x="493" 
d="M133 -193l-3 17q21 8 31 19t14 32h-20l14 55h46l-12 -46q-9 -36 -24.5 -52t-45.5 -25zM28 0l171 700h33l-164 -670h346l-7 -30h-379z" />
    <glyph glyph-name="lcommaaccent" unicode="&#x13c;" horiz-adv-x="204" 
d="M-32 -193l-3 17q21 8 31 19t14 32h-20l14 55h46l-12 -46q-9 -36 -24.5 -52t-45.5 -25zM24 0l177 722h31l-177 -722h-31z" />
    <glyph glyph-name="Lcaron" unicode="&#x13d;" horiz-adv-x="493" 
d="M279 551l50 149h35v-2l-68 -147h-17zM28 0l171 700h33l-164 -670h346l-7 -30h-379z" />
    <glyph glyph-name="lcaron" unicode="&#x13e;" horiz-adv-x="204" 
d="M256 573l50 149h35v-2l-68 -147h-17zM24 0l177 722h31l-177 -722h-31z" />
    <glyph glyph-name="Ldot" unicode="&#x13f;" horiz-adv-x="499" 
d="M365 324l15 62h44l-16 -62h-43zM28 0l171 700h33l-164 -670h346l-7 -30h-379z" />
    <glyph glyph-name="ldot" unicode="&#x140;" horiz-adv-x="231" 
d="M212 328l15 63h43l-15 -63h-43zM24 0l177 722h31l-177 -722h-31z" />
    <glyph glyph-name="Lslash" unicode="&#x141;" horiz-adv-x="520" 
d="M48 287l8 33l82 29l86 351h33l-83 -338l209 75l-7 -32l-210 -76l-73 -299h346l-7 -30h-379l77 316z" />
    <glyph glyph-name="lslash" unicode="&#x142;" horiz-adv-x="240" 
d="M47 312l8 33l79 30l85 347h31l-82 -333l80 31l-8 -33l-80 -31l-87 -356h-31l84 342z" />
    <glyph glyph-name="Nacute" unicode="&#x143;" horiz-adv-x="668" 
d="M435 752l111 105l35 -18l-117 -87h-29zM28 0l171 700h31l268 -641l158 641h31l-171 -700h-27l-271 648l-158 -648h-32z" />
    <glyph glyph-name="nacute" unicode="&#x144;" horiz-adv-x="526" 
d="M320 589l110 121l36 -18l-119 -103h-27zM18 0l124 511h31l-25 -105q68 115 181 115q66 0 104.5 -38t38.5 -105q0 -38 -13 -91l-69 -287h-31l69 288q12 45 12 88q0 55 -30.5 85.5t-87.5 30.5q-66 0 -122 -52.5t-77 -136.5l-74 -303h-31z" />
    <glyph glyph-name="Ncommaaccent" unicode="&#x145;" horiz-adv-x="668" 
d="M199 -190l-3 17q21 8 31 19t14 32h-20l14 55h46l-12 -46q-9 -36 -24.5 -52t-45.5 -25zM28 0l171 700h31l268 -641l158 641h31l-171 -700h-27l-271 648l-158 -648h-32z" />
    <glyph glyph-name="ncommaaccent" unicode="&#x146;" horiz-adv-x="526" 
d="M123 -191l-3 17q21 8 31 19t14 32h-20l14 55h46l-12 -46q-9 -36 -24.5 -52t-45.5 -25zM18 0l124 511h31l-25 -105q68 115 181 115q66 0 104.5 -38t38.5 -105q0 -38 -13 -91l-69 -287h-31l69 288q12 45 12 88q0 55 -30.5 85.5t-87.5 30.5q-66 0 -122 -52.5t-77 -136.5
l-74 -303h-31z" />
    <glyph glyph-name="Ncaron" unicode="&#x147;" horiz-adv-x="668" 
d="M590 853l-118 -100h-28l-70 100h29l61 -68l93 68h33zM28 0l171 700h31l268 -641l158 641h31l-171 -700h-27l-271 648l-158 -648h-32z" />
    <glyph glyph-name="ncaron" unicode="&#x148;" horiz-adv-x="526" 
d="M324 591l-62 118h25l54 -82l97 82h29l-120 -118h-23zM18 0l124 511h31l-25 -105q68 115 181 115q66 0 104.5 -38t38.5 -105q0 -38 -13 -91l-69 -287h-31l69 288q12 45 12 88q0 55 -30.5 85.5t-87.5 30.5q-66 0 -122 -52.5t-77 -136.5l-74 -303h-31z" />
    <glyph glyph-name="Omacron" unicode="&#x14c;" horiz-adv-x="703" 
d="M348 784l7 31h251l-7 -31h-251zM428 711q109 0 176 -76.5t67 -200.5q0 -95 -36.5 -192t-99.5 -160q-95 -93 -213 -93q-109 0 -175.5 76.5t-66.5 199.5q0 96 36 193t99 159q94 94 213 94zM323 19q105 0 188 83q59 59 93 151t34 181q0 110 -58.5 178.5t-152.5 68.5
q-104 0 -188 -84q-58 -58 -92 -149.5t-34 -181.5q0 -111 57.5 -179t152.5 -68z" />
    <glyph glyph-name="omacron" unicode="&#x14d;" horiz-adv-x="536" 
d="M230 610l7 29h240l-7 -29h-240zM306 521q84 0 136 -57.5t52 -149.5q0 -71 -26 -138t-73 -114q-72 -72 -166 -72q-84 0 -136 57.5t-52 149.5q0 71 26.5 138t73.5 114q72 72 165 72zM231 19q78 0 140 62q41 42 65.5 104.5t24.5 126.5q0 81 -42.5 130.5t-114.5 49.5
q-79 0 -140 -63q-41 -41 -65.5 -103.5t-24.5 -127.5q0 -80 43 -129.5t114 -49.5z" />
    <glyph glyph-name="Obreve" unicode="&#x14e;" horiz-adv-x="703" 
d="M470 763q-50 0 -76.5 23t-21.5 64h26q2 -57 76 -57t104 57h28q-15 -41 -50.5 -64t-85.5 -23zM428 711q109 0 176 -76.5t67 -200.5q0 -95 -36.5 -192t-99.5 -160q-95 -93 -213 -93q-109 0 -175.5 76.5t-66.5 199.5q0 96 36 193t99 159q94 94 213 94zM323 19q105 0 188 83
q59 59 93 151t34 181q0 110 -58.5 178.5t-152.5 68.5q-104 0 -188 -84q-58 -58 -92 -149.5t-34 -181.5q0 -111 57.5 -179t152.5 -68z" />
    <glyph glyph-name="obreve" unicode="&#x14f;" horiz-adv-x="536" 
d="M306 521q84 0 136 -57.5t52 -149.5q0 -71 -26 -138t-73 -114q-72 -72 -166 -72q-84 0 -136 57.5t-52 149.5q0 71 26.5 138t73.5 114q72 72 165 72zM231 19q78 0 140 62q41 42 65.5 104.5t24.5 126.5q0 81 -42.5 130.5t-114.5 49.5q-79 0 -140 -63q-41 -41 -65.5 -103.5
t-24.5 -127.5q0 -80 43 -129.5t114 -49.5zM346 590q-50 0 -75.5 27t-18.5 73h25q-2 -33 16 -52.5t57 -19.5q71 0 108 72h26q-38 -100 -138 -100z" />
    <glyph glyph-name="Ohungarumlaut" unicode="&#x150;" horiz-adv-x="703" 
d="M428 711q109 0 176 -76.5t67 -200.5q0 -95 -36.5 -192t-99.5 -160q-95 -93 -213 -93q-109 0 -175.5 76.5t-66.5 199.5q0 96 36 193t99 159q94 94 213 94zM323 19q105 0 188 83q59 59 93 151t34 181q0 110 -58.5 178.5t-152.5 68.5q-104 0 -188 -84q-58 -58 -92 -149.5
t-34 -181.5q0 -111 57.5 -179t152.5 -68zM382 763l112 105l35 -18l-117 -87h-30zM495 763l111 105l34 -18l-116 -87h-29z" />
    <glyph glyph-name="ohungarumlaut" unicode="&#x151;" horiz-adv-x="536" 
d="M262 589l109 121l32 -18l-117 -103h-24zM377 589l110 121l32 -18l-117 -103h-25zM306 521q84 0 136 -57.5t52 -149.5q0 -71 -26 -138t-73 -114q-72 -72 -166 -72q-84 0 -136 57.5t-52 149.5q0 71 26.5 138t73.5 114q72 72 165 72zM231 19q78 0 140 62q41 42 65.5 104.5
t24.5 126.5q0 81 -42.5 130.5t-114.5 49.5q-79 0 -140 -63q-41 -41 -65.5 -103.5t-24.5 -127.5q0 -80 43 -129.5t114 -49.5z" />
    <glyph glyph-name="OE" unicode="&#x152;" horiz-adv-x="968" 
d="M378 0q-148 0 -229 79q-71 73 -71 198q0 83 30.5 167t88.5 142q114 114 299 114h523l-8 -30h-365l-74 -302h331l-8 -31h-330l-76 -307h370l-7 -30h-474zM175 101q69 -71 202 -71h79l156 640h-121q-165 0 -270 -105q-52 -52 -80.5 -130.5t-28.5 -156.5q0 -112 63 -177z
" />
    <glyph glyph-name="oe" unicode="&#x153;" horiz-adv-x="907" 
d="M853 244h-370q-3 -26 -3 -50q0 -82 43.5 -128t117.5 -46q78 0 146 55l15 -26q-75 -59 -162 -59q-77 0 -127 44t-60 122q-31 -71 -91 -118.5t-135 -47.5q-83 0 -134.5 57.5t-51.5 149.5q0 70 26.5 137.5t73.5 114.5q72 72 165 72q75 0 123 -46.5t57 -123.5q32 72 90 121
t131 49q79 0 120 -51t41 -131q-2 -49 -15 -95zM230 19q78 0 141 63q41 41 65.5 103.5t24.5 125.5q0 82 -42.5 131.5t-114.5 49.5q-79 0 -140 -63q-41 -41 -65.5 -103.5t-24.5 -127.5q0 -81 42 -130t114 -49zM573 433q-61 -61 -84 -160h339q8 42 8 65q0 68 -32.5 111
t-97.5 43q-72 0 -133 -59z" />
    <glyph glyph-name="Racute" unicode="&#x154;" horiz-adv-x="611" 
d="M460 0l-131 297q-11 -1 -33 -1h-163l-72 -296h-33l171 700h189q116 0 170 -56q45 -45 45 -117q0 -92 -60 -152q-60 -61 -180 -76l134 -299h-37zM141 325h165q145 0 212 67q52 52 52 133q0 61 -35 96q-49 49 -151 49h-159zM377 757l111 105l35 -18l-117 -87h-29z" />
    <glyph glyph-name="racute" unicode="&#x155;" horiz-adv-x="314" 
d="M225 588l110 121l36 -18l-119 -103h-27zM18 0l124 511h31l-31 -129q40 65 96.5 102t117.5 35l-8 -33h-2q-70 0 -139 -59t-91 -151l-67 -276h-31z" />
    <glyph glyph-name="Rcommaaccent" unicode="&#x156;" horiz-adv-x="611" 
d="M460 0l-131 297q-11 -1 -33 -1h-163l-72 -296h-33l171 700h189q116 0 170 -56q45 -45 45 -117q0 -92 -60 -152q-60 -61 -180 -76l134 -299h-37zM141 325h165q145 0 212 67q52 52 52 133q0 61 -35 96q-49 49 -151 49h-159zM150 -190l-3 17q21 8 31 19t14 32h-20l14 55h46
l-12 -46q-9 -36 -24.5 -52t-45.5 -25z" />
    <glyph glyph-name="rcommaaccent" unicode="&#x157;" horiz-adv-x="314" 
d="M-32 -193l-3 17q21 8 31 19t14 32h-20l14 55h46l-12 -46q-9 -36 -24.5 -52t-45.5 -25zM18 0l124 511h31l-31 -129q40 65 96.5 102t117.5 35l-8 -33h-2q-70 0 -139 -59t-91 -151l-67 -276h-31z" />
    <glyph glyph-name="Rcaron" unicode="&#x158;" horiz-adv-x="611" 
d="M460 0l-131 297q-11 -1 -33 -1h-163l-72 -296h-33l171 700h189q116 0 170 -56q45 -45 45 -117q0 -92 -60 -152q-60 -61 -180 -76l134 -299h-37zM141 325h165q145 0 212 67q52 52 52 133q0 61 -35 96q-49 49 -151 49h-159zM533 858l-118 -100h-28l-70 100h29l61 -68l93 68
h33z" />
    <glyph glyph-name="rcaron" unicode="&#x159;" horiz-adv-x="314" 
d="M229 590l-62 118h25l54 -82l97 82h29l-120 -118h-23zM18 0l124 511h31l-31 -129q40 65 96.5 102t117.5 35l-8 -33h-2q-70 0 -139 -59t-91 -151l-67 -276h-31z" />
    <glyph glyph-name="Sacute" unicode="&#x15a;" horiz-adv-x="538" 
d="M248 -9q-146 0 -236 124l26 20q84 -114 213 -114q78 0 128 46t50 108q0 53 -33 88.5t-107 80.5q-79 49 -116 89t-37 97q0 70 50 118q59 61 157 61q122 0 206 -99l-25 -22q-77 91 -183 91q-76 0 -124 -44t-48 -103q0 -47 33 -81t107 -80q79 -48 116.5 -90t37.5 -103
q0 -72 -54 -126q-63 -61 -161 -61zM361 763l111 105l35 -18l-117 -87h-29z" />
    <glyph glyph-name="sacute" unicode="&#x15b;" horiz-adv-x="418" 
d="M260 589l110 121l36 -18l-119 -103h-27zM178 -8q-51 0 -98 23.5t-81 64.5l24 22q72 -81 158 -81q53 0 89 32t36 74q0 35 -23.5 61t-79.5 59q-63 36 -90 66.5t-27 74.5q0 55 43.5 93t112.5 38q91 0 158 -76l-24 -22q-63 69 -136 69q-54 0 -87.5 -29.5t-33.5 -70.5
q0 -33 23.5 -59t80.5 -58q61 -35 88 -67.5t27 -76.5q0 -56 -45.5 -96.5t-114.5 -40.5z" />
    <glyph glyph-name="Scedilla" unicode="&#x15e;" horiz-adv-x="541" 
d="M141 -131l-31 16l96 109q-120 17 -194 121l26 20q84 -114 213 -114q78 0 128 46t50 108q0 53 -33 88.5t-107 80.5q-79 49 -116 89t-37 97q0 70 50 118q59 61 157 61q122 0 206 -99l-25 -22q-77 91 -183 91q-76 0 -124 -44t-48 -103q0 -47 33 -81t107 -80
q79 -48 116.5 -90t37.5 -103q0 -72 -54 -126q-63 -61 -161 -61q-12 0 -17 1z" />
    <glyph glyph-name="scedilla" unicode="&#x15f;" horiz-adv-x="419" 
d="M72 -131l-31 16l97 111q-83 15 -139 84l24 22q72 -81 158 -81q53 0 89 32t36 74q0 35 -23.5 61t-79.5 59q-63 36 -90 66.5t-27 74.5q0 55 43.5 93t112.5 38q91 0 158 -76l-24 -22q-63 69 -136 69q-54 0 -87.5 -29.5t-33.5 -70.5q0 -33 23.5 -59t80.5 -58q61 -35 88 -67.5
t27 -76.5q0 -56 -45.5 -96.5t-114.5 -40.5q-11 0 -16 1z" />
    <glyph glyph-name="Scaron" unicode="&#x160;" horiz-adv-x="538" 
d="M248 -9q-146 0 -236 124l26 20q84 -114 213 -114q78 0 128 46t50 108q0 53 -33 88.5t-107 80.5q-79 49 -116 89t-37 97q0 70 50 118q59 61 157 61q122 0 206 -99l-25 -22q-77 91 -183 91q-76 0 -124 -44t-48 -103q0 -47 33 -81t107 -80q79 -48 116.5 -90t37.5 -103
q0 -72 -54 -126q-63 -61 -161 -61zM516 864l-118 -100h-28l-70 100h29l61 -68l93 68h33z" />
    <glyph glyph-name="scaron" unicode="&#x161;" horiz-adv-x="418" 
d="M265 591l-62 118h25l54 -82l97 82h29l-120 -118h-23zM178 -8q-51 0 -98 23.5t-81 64.5l24 22q72 -81 158 -81q53 0 89 32t36 74q0 35 -23.5 61t-79.5 59q-63 36 -90 66.5t-27 74.5q0 55 43.5 93t112.5 38q91 0 158 -76l-24 -22q-63 69 -136 69q-54 0 -87.5 -29.5
t-33.5 -70.5q0 -33 23.5 -59t80.5 -58q61 -35 88 -67.5t27 -76.5q0 -56 -45.5 -96.5t-114.5 -40.5z" />
    <glyph glyph-name="Tcommaaccent" unicode="&#x162;" horiz-adv-x="498" 
d="M112 -193l-3 17q21 8 31 19t14 32h-20l14 55h46l-12 -46q-9 -36 -24.5 -52t-45.5 -25zM167 0l163 670h-207l8 30h448l-8 -30h-207l-164 -670h-33z" />
    <glyph glyph-name="tcommaaccent" unicode="&#x163;" horiz-adv-x="325" 
d="M55 -194l-3 17q21 8 31 19t14 32h-20l14 55h46l-12 -46q-9 -36 -24.5 -52t-45.5 -25zM163 -7q-45 0 -71.5 21.5t-26.5 62.5q0 19 8 51l85 354h-67l7 29h67l40 162h31l-39 -162h148l-7 -29h-149l-86 -357q-6 -24 -6 -44q0 -59 72 -59q28 0 61 14l-7 -32q-27 -11 -60 -11z
" />
    <glyph glyph-name="Tcaron" unicode="&#x164;" horiz-adv-x="498" 
d="M504 858l-118 -100h-28l-70 100h29l61 -68l93 68h33zM167 0l163 670h-207l8 30h448l-8 -30h-207l-164 -670h-33z" />
    <glyph glyph-name="tcaron" unicode="&#x165;" horiz-adv-x="325" 
d="M296 573l50 149h35v-2l-68 -147h-17zM163 -7q-45 0 -71.5 21.5t-26.5 62.5q0 19 8 51l85 354h-67l7 29h67l40 162h31l-39 -162h148l-7 -29h-149l-86 -357q-6 -24 -6 -44q0 -59 72 -59q28 0 61 14l-7 -32q-27 -11 -60 -11z" />
    <glyph glyph-name="Umacron" unicode="&#x16a;" horiz-adv-x="644" 
d="M316 773l7 31h251l-7 -31h-251zM287 -10q-96 0 -153 50.5t-57 142.5q0 47 15 110l98 407h33l-101 -416q-13 -53 -13 -98q0 -79 48.5 -122.5t132.5 -43.5q90 0 153 63q61 62 90 180l105 437h33l-107 -444q-32 -127 -97 -193q-74 -73 -180 -73z" />
    <glyph glyph-name="umacron" unicode="&#x16b;" horiz-adv-x="525" 
d="M196 -10q-66 0 -104.5 37.5t-38.5 105.5q0 32 14 91l69 287h31l-70 -288q-12 -51 -12 -88q0 -56 30.5 -86.5t87.5 -30.5q66 0 122.5 52.5t77.5 136.5l73 304h32l-125 -511h-31l26 105q-68 -115 -182 -115zM219 606l7 29h240l-7 -29h-240z" />
    <glyph glyph-name="Ubreve" unicode="&#x16c;" horiz-adv-x="644" 
d="M438 752q-50 0 -76.5 23t-21.5 64h26q2 -57 76 -57t104 57h28q-15 -41 -50.5 -64t-85.5 -23zM287 -10q-96 0 -153 50.5t-57 142.5q0 47 15 110l98 407h33l-101 -416q-13 -53 -13 -98q0 -79 48.5 -122.5t132.5 -43.5q90 0 153 63q61 62 90 180l105 437h33l-107 -444
q-32 -127 -97 -193q-74 -73 -180 -73z" />
    <glyph glyph-name="ubreve" unicode="&#x16d;" horiz-adv-x="525" 
d="M196 -10q-66 0 -104.5 37.5t-38.5 105.5q0 32 14 91l69 287h31l-70 -288q-12 -51 -12 -88q0 -56 30.5 -86.5t87.5 -30.5q66 0 122.5 52.5t77.5 136.5l73 304h32l-125 -511h-31l26 105q-68 -115 -182 -115zM336 586q-50 0 -75.5 27t-18.5 73h25q-2 -33 16 -52.5t57 -19.5
q71 0 108 72h26q-38 -100 -138 -100z" />
    <glyph glyph-name="Uring" unicode="&#x16e;" horiz-adv-x="644" 
d="M287 -10q-96 0 -153 50.5t-57 142.5q0 47 15 110l98 407h33l-101 -416q-13 -53 -13 -98q0 -79 48.5 -122.5t132.5 -43.5q90 0 153 63q61 62 90 180l105 437h33l-107 -444q-32 -127 -97 -193q-74 -73 -180 -73zM465 911q39 0 62.5 -21t23.5 -54q0 -40 -32 -67t-74 -27
q-38 0 -61.5 21.5t-23.5 54.5q0 40 31.5 66.5t73.5 26.5zM448 764q31 0 54 20t23 50q0 25 -16.5 40.5t-45.5 15.5q-31 0 -54.5 -20.5t-23.5 -49.5q0 -24 17 -40t46 -16z" />
    <glyph glyph-name="uring" unicode="&#x16f;" horiz-adv-x="525" 
d="M446 678q0 -40 -29.5 -68t-69.5 -28q-37 0 -60.5 23t-23.5 58q0 39 30 67.5t69 28.5q37 0 60.5 -23t23.5 -58zM286 664q0 -27 17 -44.5t45 -17.5q30 0 52.5 22t22.5 53q0 26 -17 43.5t-45 17.5q-30 0 -52.5 -22t-22.5 -52zM196 -10q-66 0 -104.5 37.5t-38.5 105.5
q0 32 14 91l69 287h31l-70 -288q-12 -51 -12 -88q0 -56 30.5 -86.5t87.5 -30.5q66 0 122.5 52.5t77.5 136.5l73 304h32l-125 -511h-31l26 105q-68 -115 -182 -115z" />
    <glyph glyph-name="Uhungarumlaut" unicode="&#x170;" horiz-adv-x="644" 
d="M287 -10q-96 0 -153 50.5t-57 142.5q0 47 15 110l98 407h33l-101 -416q-13 -53 -13 -98q0 -79 48.5 -122.5t132.5 -43.5q90 0 153 63q61 62 90 180l105 437h33l-107 -444q-32 -127 -97 -193q-74 -73 -180 -73zM349 752l112 105l35 -18l-117 -87h-30zM462 752l111 105
l34 -18l-116 -87h-29z" />
    <glyph glyph-name="uhungarumlaut" unicode="&#x171;" horiz-adv-x="525" 
d="M196 -10q-66 0 -104.5 37.5t-38.5 105.5q0 32 14 91l69 287h31l-70 -288q-12 -51 -12 -88q0 -56 30.5 -86.5t87.5 -30.5q66 0 122.5 52.5t77.5 136.5l73 304h32l-125 -511h-31l26 105q-68 -115 -182 -115zM251 585l109 121l32 -18l-117 -103h-24zM366 585l110 121l32 -18
l-117 -103h-25z" />
    <glyph glyph-name="Uogonek" unicode="&#x172;" horiz-adv-x="644" 
d="M287 -10h-13q-56 -44 -56 -75q0 -32 61 -36l-6 -23q-1 -1 -3 -1q-40 1 -62 16t-22 39q0 37 59 83q-78 10 -123 59.5t-45 130.5q0 47 15 110l98 407h33l-101 -416q-13 -53 -13 -98q0 -79 48.5 -122.5t132.5 -43.5q90 0 153 63q61 62 90 180l105 437h33l-107 -444
q-32 -127 -97 -193q-74 -73 -180 -73z" />
    <glyph glyph-name="uogonek" unicode="&#x173;" horiz-adv-x="525" 
d="M196 -10q-66 0 -104.5 37.5t-38.5 105.5q0 32 14 91l69 287h31l-70 -288q-12 -51 -12 -88q0 -56 30.5 -86.5t87.5 -30.5q66 0 122.5 52.5t77.5 136.5l73 304h32l-125 -511h-5q-69 -53 -69 -85t61 -36l-6 -23q-1 -1 -3 -1q-40 1 -62 16t-22 39q0 43 76 94l25 101
q-68 -115 -182 -115z" />
    <glyph glyph-name="Wcircumflex" unicode="&#x174;" horiz-adv-x="915" 
d="M181 -5l-37 705h33l31 -649l340 651h27l29 -651l343 649h36l-377 -705h-28l-30 643l-339 -643h-28zM461 758l118 100h28l69 -100h-29l-59 69l-94 -69h-33z" />
    <glyph glyph-name="wcircumflex" unicode="&#x175;" horiz-adv-x="714" 
d="M325 590l120 118h23l62 -118h-25l-55 83l-97 -83h-28zM127 -4l-30 515h31l23 -463l250 464h26l23 -464l247 463h34l-279 -515h-28l-23 458l-248 -458h-26z" />
    <glyph glyph-name="Ycircumflex" unicode="&#x176;" horiz-adv-x="564" 
d="M199 0l72 294l-147 406h34l136 -377l320 377h42l-353 -412l-70 -288h-34zM279 753l118 100h28l69 -100h-29l-59 69l-94 -69h-33z" />
    <glyph glyph-name="ycircumflex" unicode="&#x177;" horiz-adv-x="491" 
d="M169 3l-80 508h33l71 -471l283 471h36l-312 -511q-55 -89 -94.5 -121t-83.5 -32q-50 0 -85 29l18 25q32 -25 69 -25q33 0 66 27t79 100zM204 587l120 118h23l62 -118h-25l-55 83l-97 -83h-28z" />
    <glyph glyph-name="Ydieresis" unicode="&#x178;" horiz-adv-x="564" 
d="M199 0l72 294l-147 406h34l136 -377l320 377h42l-353 -412l-70 -288h-34zM304 763l14 57h47l-14 -57h-47zM437 763l14 57h47l-14 -57h-47z" />
    <glyph glyph-name="Zacute" unicode="&#x179;" horiz-adv-x="557" 
d="M-13 0l5 20l564 650h-394l8 30h439l-4 -21l-566 -649h409l-7 -30h-454zM365 757l111 105l35 -18l-117 -87h-29z" />
    <glyph glyph-name="zacute" unicode="&#x17a;" horiz-adv-x="431" 
d="M264 588l110 121l36 -18l-119 -103h-27zM-23 0l3 19l421 464h-299l7 28h342l-3 -19l-421 -464h312l-7 -28h-355z" />
    <glyph glyph-name="Zdotaccent" unicode="&#x17b;" horiz-adv-x="557" 
d="M363 768l14 57h48l-14 -57h-48zM-13 0l5 20l564 650h-394l8 30h439l-4 -21l-566 -649h409l-7 -30h-454z" />
    <glyph glyph-name="zdotaccent" unicode="&#x17c;" horiz-adv-x="431" 
d="M-23 0l3 19l421 464h-299l7 28h342l-3 -19l-421 -464h312l-7 -28h-355zM264 599l16 58h43l-15 -58h-44z" />
    <glyph glyph-name="Zcaron" unicode="&#x17d;" horiz-adv-x="557" 
d="M520 858l-118 -100h-28l-70 100h29l61 -68l93 68h33zM-13 0l5 20l564 650h-394l8 30h439l-4 -21l-566 -649h409l-7 -30h-454z" />
    <glyph glyph-name="zcaron" unicode="&#x17e;" horiz-adv-x="431" 
d="M269 590l-62 118h25l54 -82l97 82h29l-120 -118h-23zM-23 0l3 19l421 464h-299l7 28h342l-3 -19l-421 -464h312l-7 -28h-355z" />
    <glyph glyph-name="Aringacute" unicode="&#x1fa;" horiz-adv-x="648" 
d="M-26 0l429 674q-50 17 -50 70q0 40 32 66.5t74 26.5q38 0 61.5 -21.5t23.5 -53.5q0 -35 -24.5 -60.5t-60.5 -31.5l97 -670h-33l-28 204h-355l-129 -204h-37zM159 234h331l-60 427zM442 690q31 0 54 20.5t23 49.5q0 25 -17 40.5t-46 15.5q-31 0 -54 -20.5t-23 -50.5
q0 -25 17 -40t46 -15zM461 865l104 90l34 -18l-108 -72h-30z" />
    <glyph glyph-name="aringacute" unicode="&#x1fb;" horiz-adv-x="491" 
d="M355 801l104 98l33 -18l-111 -80h-26zM160 -10q-59 0 -100.5 36t-41.5 100q0 81 52 132q54 54 152 54q87 0 170 -30l6 25q9 43 9 67q0 54 -37 84t-103 30q-60 0 -124 -25l-8 29q67 26 134 26q78 0 123.5 -37t45.5 -104q0 -32 -11 -74l-73 -303h-31l24 98
q-70 -108 -187 -108zM166 18q73 0 130 51t75 126l15 60q-80 29 -167 29q-80 0 -125 -45q-43 -42 -43 -110q0 -52 32.5 -81.5t82.5 -29.5zM433 686q0 -40 -29.5 -68t-69.5 -28q-37 0 -60.5 23t-23.5 58q0 39 30 67.5t69 28.5q37 0 60.5 -23t23.5 -58zM273 672q0 -27 17 -44.5
t45 -17.5q30 0 52.5 22t22.5 53q0 26 -17 43.5t-45 17.5q-30 0 -52.5 -22t-22.5 -52z" />
    <glyph glyph-name="AEacute" unicode="&#x1fc;" horiz-adv-x="871" 
d="M596 757l111 105l35 -18l-117 -87h-29zM-47 0l534 700h436l-8 -30h-366l-74 -302h331l-7 -31h-331l-75 -307h370l-7 -30h-403l49 204h-255l-155 -204h-39zM170 234h239l107 436h-15z" />
    <glyph glyph-name="aeacute" unicode="&#x1fd;" horiz-adv-x="837" 
d="M571 -10q-70 0 -117 34.5t-64 97.5q-95 -132 -225 -132q-63 0 -105 36.5t-42 100.5q0 81 52 131q54 54 153 54q86 0 169 -30l6 25q9 43 9 67q0 54 -37 84t-103 30q-60 0 -124 -25l-8 29q67 26 134 26q74 0 119 -34t47 -97q34 59 87.5 96.5t114.5 37.5q78 0 119 -51
t41 -131q0 -47 -14 -95h-370q-3 -26 -3 -50q0 -82 43.5 -128t117.5 -46q77 0 146 54l17 -24q-78 -60 -163 -60zM169 18q122 0 214 139q-6 44 3 97q-81 30 -167 30q-80 0 -125 -45q-43 -42 -43 -109q0 -52 33.5 -82t84.5 -30zM503 433q-61 -61 -84 -160h339q8 42 8 65
q0 68 -32.5 111t-97.5 43q-74 0 -133 -59zM461 588l110 121l36 -18l-119 -103h-27z" />
    <glyph glyph-name="Oslashacute" unicode="&#x1fe;" horiz-adv-x="703" 
d="M428 711q122 0 191 -96l93 91h40l-118 -116q37 -66 37 -156q0 -95 -36.5 -192t-99.5 -160q-93 -93 -213 -93q-123 0 -190 94l-94 -89h-40l118 115q-36 65 -36 156q0 95 36 192.5t98 159.5q94 94 214 94zM113 266q0 -78 27 -133l456 459q-59 89 -169 89q-106 0 -188 -84
q-58 -57 -92 -149.5t-34 -181.5zM323 19q106 0 189 83q57 58 91.5 151t34.5 181q0 74 -28 132l-455 -459q57 -88 168 -88zM448 763l111 105l35 -18l-117 -87h-29z" />
    <glyph glyph-name="oslashacute" unicode="&#x1ff;" horiz-adv-x="536" 
d="M306 521q91 0 144 -67l65 62h38l-88 -85q29 -52 29 -117q0 -71 -26 -138t-73 -114q-72 -72 -166 -72q-92 0 -144 66l-64 -61h-38l87 84q-29 50 -29 118q0 71 26.5 138t73.5 114q72 72 165 72zM304 492q-79 0 -140 -63q-41 -41 -65.5 -103.5t-24.5 -127.5q0 -53 19 -96
l334 329q-42 61 -123 61zM461 312q0 54 -20 96l-334 -330q43 -59 124 -59q78 0 140 62q42 42 66 104t24 127zM325 589l110 121l36 -18l-119 -103h-27z" />
    <glyph glyph-name="Scommaaccent" unicode="&#x218;" horiz-adv-x="538" 
d="M121 -194l-3 17q21 8 31 19t14 32h-20l14 55h46l-12 -46q-9 -36 -24.5 -52t-45.5 -25zM248 -9q-146 0 -236 124l26 20q84 -114 213 -114q78 0 128 46t50 108q0 53 -33 88.5t-107 80.5q-79 49 -116 89t-37 97q0 70 50 118q59 61 157 61q122 0 206 -99l-25 -22
q-77 91 -183 91q-76 0 -124 -44t-48 -103q0 -47 33 -81t107 -80q79 -48 116.5 -90t37.5 -103q0 -72 -54 -126q-63 -61 -161 -61z" />
    <glyph glyph-name="scommaaccent" unicode="&#x219;" horiz-adv-x="418" 
d="M62 -194l-3 17q21 8 31 19t14 32h-20l14 55h46l-12 -46q-9 -36 -24.5 -52t-45.5 -25zM178 -8q-51 0 -98 23.5t-81 64.5l24 22q72 -81 158 -81q53 0 89 32t36 74q0 35 -23.5 61t-79.5 59q-63 36 -90 66.5t-27 74.5q0 55 43.5 93t112.5 38q91 0 158 -76l-24 -22
q-63 69 -136 69q-54 0 -87.5 -29.5t-33.5 -70.5q0 -33 23.5 -59t80.5 -58q61 -35 88 -67.5t27 -76.5q0 -56 -45.5 -96.5t-114.5 -40.5z" />
    <glyph glyph-name="schwa" unicode="&#x259;" 
d="M37 171q0 48 15 95h369q4 21 4 50q0 82 -43 128t-117 46q-78 0 -147 -54l-17 24q78 60 164 60q87 0 139.5 -54t52.5 -148q0 -72 -27.5 -141.5t-74.5 -116.5q-69 -71 -157 -71q-79 0 -120 51t-41 131zM332 77q61 61 83 160h-338q-8 -34 -8 -65q0 -68 32.5 -111t97.5 -43
q72 0 133 59z" />
    <glyph glyph-name="circumflex" unicode="&#x2c6;" 
d="M231 590l120 118h23l62 -118h-25l-55 83l-97 -83h-28z" />
    <glyph glyph-name="caron" unicode="&#x2c7;" 
d="M321 590l-62 118h25l54 -82l97 82h29l-120 -118h-23z" />
    <glyph glyph-name="breve" unicode="&#x2d8;" 
d="M335 589q-50 0 -75.5 27t-18.5 73h25q-2 -33 16 -52.5t57 -19.5q71 0 108 72h26q-38 -100 -138 -100z" />
    <glyph glyph-name="dotaccent" unicode="&#x2d9;" 
d="M312 599l16 58h43l-15 -58h-44z" />
    <glyph glyph-name="ring" unicode="&#x2da;" 
d="M446 686q0 -40 -29.5 -68t-69.5 -28q-37 0 -60.5 23t-23.5 58q0 39 30 67.5t69 28.5q37 0 60.5 -23t23.5 -58zM286 672q0 -27 17 -44.5t45 -17.5q30 0 52.5 22t22.5 53q0 26 -17 43.5t-45 17.5q-30 0 -52.5 -22t-22.5 -52z" />
    <glyph glyph-name="ogonek" unicode="&#x2db;" 
d="M218 -121l-6 -23q-1 -1 -3 -1q-40 1 -62 16t-22 39q0 43 83 99l21 -7q-72 -54 -72 -87q0 -32 61 -36z" />
    <glyph glyph-name="tilde" unicode="&#x2dc;" 
d="M454 681l21 -6q-32 -80 -80 -80q-22 0 -58 27q-33 24 -48 24q-31 0 -55 -55l-22 6q31 80 80 80q20 0 58 -27q31 -24 48 -24q28 0 56 55z" />
    <glyph glyph-name="hungarumlaut" unicode="&#x2dd;" 
d="M213 588l109 121l32 -18l-117 -103h-24zM328 588l110 121l32 -18l-117 -103h-25z" />
    <glyph glyph-name="commaaccent" unicode="&#x326;" 
d="M114 -193l-3 17q21 8 31 19t14 32h-20l14 55h46l-12 -46q-9 -36 -24.5 -52t-45.5 -25z" />
    <glyph glyph-name="Wgrave" unicode="&#x1e80;" horiz-adv-x="915" 
d="M551 757l-79 87l35 18l66 -105h-22zM181 -5l-37 705h33l31 -649l340 651h27l29 -651l343 649h36l-377 -705h-28l-30 643l-339 -643h-28z" />
    <glyph glyph-name="wgrave" unicode="&#x1e81;" horiz-adv-x="714" 
d="M127 -4l-30 515h31l23 -463l250 464h26l23 -464l247 463h34l-279 -515h-28l-23 458l-248 -458h-26zM413 588l-75 103l37 18l58 -121h-20z" />
    <glyph glyph-name="Wacute" unicode="&#x1e82;" horiz-adv-x="915" 
d="M555 757l111 105l35 -18l-117 -87h-29zM181 -5l-37 705h33l31 -649l340 651h27l29 -651l343 649h36l-377 -705h-28l-30 643l-339 -643h-28z" />
    <glyph glyph-name="wacute" unicode="&#x1e83;" horiz-adv-x="714" 
d="M412 588l110 121l36 -18l-119 -103h-27zM127 -4l-30 515h31l23 -463l250 464h26l23 -464l247 463h34l-279 -515h-28l-23 458l-248 -458h-26z" />
    <glyph glyph-name="Wdieresis" unicode="&#x1e84;" horiz-adv-x="915" 
d="M487 768l14 57h47l-14 -57h-47zM620 768l14 57h47l-14 -57h-47zM181 -5l-37 705h33l31 -649l340 651h27l29 -651l343 649h36l-377 -705h-28l-30 643l-339 -643h-28z" />
    <glyph glyph-name="wdieresis" unicode="&#x1e85;" horiz-adv-x="714" 
d="M350 599l14 57h45l-15 -57h-44zM474 599l14 57h44l-14 -57h-44zM127 -4l-30 515h31l23 -463l250 464h26l23 -464l247 463h34l-279 -515h-28l-23 458l-248 -458h-26z" />
    <glyph glyph-name="Ygrave" unicode="&#x1ef2;" horiz-adv-x="564" 
d="M199 0l72 294l-147 406h34l136 -377l320 377h42l-353 -412l-70 -288h-34zM371 752l-79 87l35 18l66 -105h-22z" />
    <glyph glyph-name="ygrave" unicode="&#x1ef3;" horiz-adv-x="491" 
d="M169 3l-80 508h33l71 -471l283 471h36l-312 -511q-55 -89 -94.5 -121t-83.5 -32q-50 0 -85 29l18 25q32 -25 69 -25q33 0 66 27t79 100zM291 585l-75 103l37 18l58 -121h-20z" />
    <glyph glyph-name="enspace" unicode="&#x2002;" horiz-adv-x="500" 
 />
    <glyph glyph-name="emspace" unicode="&#x2003;" horiz-adv-x="1000" 
 />
    <glyph glyph-name="threeperemspace" unicode="&#x2004;" horiz-adv-x="333" 
 />
    <glyph glyph-name="fourperemspace" unicode="&#x2005;" horiz-adv-x="250" 
 />
    <glyph glyph-name="thinspace" unicode="&#x2009;" horiz-adv-x="126" 
 />
    <glyph glyph-name="hairspace" unicode="&#x200a;" horiz-adv-x="70" 
 />
    <glyph glyph-name="endash" unicode="&#x2013;" horiz-adv-x="490" 
d="M66 281l8 32h368l-7 -32h-369z" />
    <glyph glyph-name="emdash" unicode="&#x2014;" horiz-adv-x="794" 
d="M66 281l8 32h672l-8 -32h-672z" />
    <glyph glyph-name="quoteleft" unicode="&#x2018;" horiz-adv-x="168" 
d="M131 552l14 59q11 42 27.5 61.5t48.5 29.5l6 -17q-43 -16 -55 -69h21l-16 -64h-46z" />
    <glyph glyph-name="quoteright" unicode="&#x2019;" horiz-adv-x="168" 
d="M124 550l-6 17q45 16 55 68h-21l16 65h46l-14 -59q-10 -42 -27 -61.5t-49 -29.5z" />
    <glyph glyph-name="quotesinglbase" unicode="&#x201a;" horiz-adv-x="168" 
d="M-30 -86l-6 18q45 15 55 68h-21l17 65h45l-14 -60q-10 -42 -27 -61.5t-49 -29.5z" />
    <glyph glyph-name="quotedblleft" unicode="&#x201c;" horiz-adv-x="286" 
d="M131 552l14 59q10 42 27 61.5t49 29.5l5 -17q-42 -15 -54 -69h21l-16 -64h-46zM249 552l14 59q10 42 27 61.5t49 29.5l6 -17q-43 -16 -55 -69h21l-16 -64h-46z" />
    <glyph glyph-name="quotedblright" unicode="&#x201d;" horiz-adv-x="286" 
d="M124 550l-6 17q44 16 54 68h-20l16 65h46l-14 -59q-11 -42 -28 -61.5t-48 -29.5zM242 550l-6 17q45 16 55 68h-21l16 65h46l-14 -59q-10 -42 -27 -61.5t-49 -29.5z" />
    <glyph glyph-name="quotedblbase" unicode="&#x201e;" horiz-adv-x="286" 
d="M-30 -86l-6 18q45 15 55 68h-21l17 65h45l-14 -60q-10 -42 -27 -61.5t-49 -29.5zM89 -86l-6 18q44 15 54 68h-20l16 65h46l-14 -60q-11 -42 -28 -61.5t-48 -29.5z" />
    <glyph glyph-name="dagger" unicode="&#x2020;" horiz-adv-x="348" 
d="M149 238l76 293l-113 -7l8 31l109 -6l31 151h34l-44 -151l113 6l-7 -31l-111 7l-65 -293h-31z" />
    <glyph glyph-name="daggerdbl" unicode="&#x2021;" horiz-adv-x="356" 
d="M93 0l44 151l-114 -6l8 31l110 -7l39 181l49 181l-113 -7l8 31l110 -6l30 151h34l-44 -151l113 6l-7 -31l-111 7l-38 -181l-50 -181l114 7l-8 -31l-110 6l-30 -151h-34z" />
    <glyph glyph-name="bullet" unicode="&#x2022;" horiz-adv-x="402" 
d="M237 464q37 0 61 -24t24 -65q0 -61 -40 -101q-34 -32 -77 -32q-38 0 -61.5 23.5t-23.5 64.5q0 62 39 101q33 33 78 33z" />
    <glyph glyph-name="ellipsis" unicode="&#x2026;" horiz-adv-x="508" 
d="M-1 0l16 65h46l-16 -65h-46zM169 0l15 65h46l-15 -65h-46zM338 0l16 65h46l-16 -65h-46z" />
    <glyph glyph-name="perthousand" unicode="&#x2030;" horiz-adv-x="1060" 
d="M57 0l314 357l301 343h36l-315 -357l-300 -343h-36zM210 354q-53 0 -85.5 38.5t-32.5 99.5q0 48 18.5 94t48.5 76q45 45 102 45q53 0 85.5 -38t32.5 -99q0 -48 -18 -94t-48 -76q-46 -46 -103 -46zM212 383q43 0 77 34q58 60 58 152q0 49 -23.5 79.5t-64.5 30.5
q-44 0 -77 -35q-27 -26 -43 -67t-16 -84q0 -50 24 -80t65 -30zM503 -7q-52 0 -84.5 38t-32.5 99q0 48 18 94t48 76q48 46 103 46q52 0 84.5 -38.5t32.5 -99.5q0 -48 -18 -94t-48 -76q-45 -45 -103 -45zM506 21q44 0 77 35q26 26 42 67t16 84q0 50 -23.5 80t-65.5 30
q-41 0 -77 -34q-58 -60 -58 -152q0 -49 24 -79.5t65 -30.5zM844 -7q-53 0 -85.5 38t-32.5 99q0 48 18.5 94t48.5 76q46 46 102 46q53 0 85.5 -38.5t32.5 -99.5q0 -48 -18 -94t-49 -76q-45 -45 -102 -45zM846 21q43 0 78 35q26 26 42 67t16 84q0 50 -24 80t-65 30
q-43 0 -77 -34q-59 -59 -59 -152q0 -49 24 -79.5t65 -30.5z" />
    <glyph glyph-name="guilsinglleft" unicode="&#x2039;" horiz-adv-x="268" 
d="M139 45l-102 207l1 6l203 206l21 -17l-188 -196l89 -194z" />
    <glyph glyph-name="guilsinglright" unicode="&#x203a;" horiz-adv-x="268" 
d="M125 463l102 -207l-1 -6l-203 -206l-21 17l188 196l-89 194z" />
    <glyph glyph-name="Euro" unicode="&#x20ac;" horiz-adv-x="592" 
d="M78 424l7 29h70q37 110 104 177q77 79 181 79q65 0 111 -33t69 -87l-27 -15q-50 105 -157 105q-85 0 -153 -68q-59 -59 -94 -158h271l-8 -29h-273q-19 -67 -24 -139h264l-8 -30h-257v-6q0 -105 46 -166.5t127 -61.5q89 0 163 79l22 -22q-82 -87 -186 -87q-92 0 -148.5 68
t-56.5 187v9h-84l8 30h77q5 72 24 139h-68z" />
    <glyph glyph-name="published" unicode="&#x2117;" horiz-adv-x="733" 
d="M340 539h89q56 0 88.5 -25.5t32.5 -76.5q0 -61 -45.5 -97.5t-121.5 -36.5h-73l-33 -135h-28zM522 436q0 77 -93 77h-68l-45 -184h71q58 0 96 27t39 80zM429 712q130 0 207 -86t77 -217q0 -88 -32 -173.5t-92 -145.5q-102 -102 -240 -102q-130 0 -207 86t-77 217
q0 87 32.5 173t91.5 146q102 102 240 102zM351 9q125 0 221 94q57 57 87.5 140.5t30.5 168.5q1 118 -69 198.5t-193 80.5q-128 0 -222 -94q-57 -57 -87.5 -140t-30.5 -169q0 -118 70 -198.5t193 -80.5z" />
    <glyph glyph-name="servicemark" unicode="&#x2120;" horiz-adv-x="601" 
d="M178 386q-67 0 -107 57l18 14q37 -51 90 -51q32 0 53 18.5t21 43.5q0 36 -59 70q-37 22 -53 40t-16 44q0 31 23 56q27 27 72 27q55 0 95 -47l-18 -16q-34 42 -80 42q-31 0 -50 -17.5t-19 -42.5q0 -20 14 -34.5t46 -33.5q67 -38 67 -86q0 -33 -23 -56q-30 -28 -74 -28z
M324 390l79 310h22l58 -184l149 184h27l-79 -310h-23l68 267l-149 -182h-3l-58 181l-69 -266h-22z" />
    <glyph glyph-name="trademark" unicode="&#x2122;" horiz-adv-x="576" 
d="M129 390l73 288h-89l7 22h199l-6 -22h-89l-73 -288h-22zM300 390l79 310h21l58 -184l149 184h27l-79 -310h-22l68 267l-150 -182h-3l-58 181l-68 -266h-22z" />
    <glyph glyph-name="minus" unicode="&#x2212;" horiz-adv-x="523" 
d="M78 337l7 30h407l-7 -30h-407z" />
    <glyph glyph-name="Q.alt" horiz-adv-x="705" 
d="M428 711q109 0 176 -76.5t67 -200.5q0 -95 -37 -192t-99 -159l-5 -5l62 -74l-23 -20l-61 74q-83 -69 -186 -69q-109 0 -175.5 76.5t-66.5 199.5q0 96 36 193t99 159q94 94 213 94zM323 19q90 0 165 62l-103 126l25 20l101 -125q58 59 92.5 151.5t34.5 180.5
q0 110 -58.5 178.5t-152.5 68.5q-104 0 -188 -84q-58 -58 -92 -150t-34 -181q0 -111 57.5 -179t152.5 -68z" />
    <glyph glyph-name="a.alt" horiz-adv-x="556" 
d="M213 -10q-75 0 -122 55.5t-47 143.5q0 74 27 146t74 119q67 67 153 67q74 0 118 -46t54 -108l36 144h31l-124 -511h-31l28 114q-30 -49 -82 -86.5t-115 -37.5zM218 19q77 0 140 63q43 42 69 106t26 126q0 76 -42.5 127t-111.5 51q-73 0 -130 -57q-43 -42 -67.5 -108.5
t-24.5 -134.5q0 -77 38.5 -125t102.5 -48z" />
    <glyph glyph-name="aacute.alt" horiz-adv-x="556" 
d="M336 589l110 121l36 -18l-119 -103h-27zM213 -10q-75 0 -122 55.5t-47 143.5q0 74 27 146t74 119q67 67 153 67q74 0 118 -46t54 -108l36 144h31l-124 -511h-31l28 114q-30 -49 -82 -86.5t-115 -37.5zM218 19q77 0 140 63q43 42 69 106t26 126q0 76 -42.5 127t-111.5 51
q-73 0 -130 -57q-43 -42 -67.5 -108.5t-24.5 -134.5q0 -77 38.5 -125t102.5 -48z" />
    <glyph glyph-name="abreve.alt" horiz-adv-x="556" 
d="M213 -10q-75 0 -122 55.5t-47 143.5q0 74 27 146t74 119q67 67 153 67q74 0 118 -46t54 -108l36 144h31l-124 -511h-31l28 114q-30 -49 -82 -86.5t-115 -37.5zM218 19q77 0 140 63q43 42 69 106t26 126q0 76 -42.5 127t-111.5 51q-73 0 -130 -57q-43 -42 -67.5 -108.5
t-24.5 -134.5q0 -77 38.5 -125t102.5 -48zM357 590q-50 0 -75.5 27t-18.5 73h25q-2 -33 16 -52.5t57 -19.5q71 0 108 72h26q-38 -100 -138 -100z" />
    <glyph glyph-name="acircumflex.alt" horiz-adv-x="556" 
d="M250 591l120 118h23l62 -118h-25l-55 83l-97 -83h-28zM213 -10q-75 0 -122 55.5t-47 143.5q0 74 27 146t74 119q67 67 153 67q74 0 118 -46t54 -108l36 144h31l-124 -511h-31l28 114q-30 -49 -82 -86.5t-115 -37.5zM218 19q77 0 140 63q43 42 69 106t26 126
q0 76 -42.5 127t-111.5 51q-73 0 -130 -57q-43 -42 -67.5 -108.5t-24.5 -134.5q0 -77 38.5 -125t102.5 -48z" />
    <glyph glyph-name="adieresis.alt" horiz-adv-x="556" 
d="M274 600l14 57h45l-15 -57h-44zM398 600l14 57h44l-14 -57h-44zM213 -10q-75 0 -122 55.5t-47 143.5q0 74 27 146t74 119q67 67 153 67q74 0 118 -46t54 -108l36 144h31l-124 -511h-31l28 114q-30 -49 -82 -86.5t-115 -37.5zM218 19q77 0 140 63q43 42 69 106t26 126
q0 76 -42.5 127t-111.5 51q-73 0 -130 -57q-43 -42 -67.5 -108.5t-24.5 -134.5q0 -77 38.5 -125t102.5 -48z" />
    <glyph glyph-name="agrave.alt" horiz-adv-x="556" 
d="M213 -10q-75 0 -122 55.5t-47 143.5q0 74 27 146t74 119q67 67 153 67q74 0 118 -46t54 -108l36 144h31l-124 -511h-31l28 114q-30 -49 -82 -86.5t-115 -37.5zM218 19q77 0 140 63q43 42 69 106t26 126q0 76 -42.5 127t-111.5 51q-73 0 -130 -57q-43 -42 -67.5 -108.5
t-24.5 -134.5q0 -77 38.5 -125t102.5 -48zM339 589l-75 103l37 18l58 -121h-20z" />
    <glyph glyph-name="amacron.alt" horiz-adv-x="556" 
d="M213 -10q-75 0 -122 55.5t-47 143.5q0 74 27 146t74 119q67 67 153 67q74 0 118 -46t54 -108l36 144h31l-124 -511h-31l28 114q-30 -49 -82 -86.5t-115 -37.5zM218 19q77 0 140 63q43 42 69 106t26 126q0 76 -42.5 127t-111.5 51q-73 0 -130 -57q-43 -42 -67.5 -108.5
t-24.5 -134.5q0 -77 38.5 -125t102.5 -48zM241 610l7 29h240l-7 -29h-240z" />
    <glyph glyph-name="aogonek.alt" horiz-adv-x="556" 
d="M399 -121l-6 -23q-1 -1 -3 -1q-40 1 -62 16t-22 39q0 43 77 95l27 109q-30 -49 -82 -86.5t-115 -37.5q-75 0 -122 55.5t-47 143.5q0 74 27 146t74 119q67 67 153 67q74 0 118 -46t54 -108l36 144h31l-124 -511h-6q-69 -53 -69 -85t61 -36zM218 19q77 0 140 63
q43 42 69 106t26 126q0 76 -42.5 127t-111.5 51q-73 0 -130 -57q-43 -42 -67.5 -108.5t-24.5 -134.5q0 -77 38.5 -125t102.5 -48z" />
    <glyph glyph-name="aring.alt" horiz-adv-x="556" 
d="M468 687q0 -40 -29.5 -68t-69.5 -28q-37 0 -60.5 23t-23.5 58q0 39 30 67.5t69 28.5q37 0 60.5 -23t23.5 -58zM308 673q0 -27 17 -44.5t45 -17.5q30 0 52.5 22t22.5 53q0 26 -17 43.5t-45 17.5q-30 0 -52.5 -22t-22.5 -52zM213 -10q-75 0 -122 55.5t-47 143.5
q0 74 27 146t74 119q67 67 153 67q74 0 118 -46t54 -108l36 144h31l-124 -511h-31l28 114q-30 -49 -82 -86.5t-115 -37.5zM218 19q77 0 140 63q43 42 69 106t26 126q0 76 -42.5 127t-111.5 51q-73 0 -130 -57q-43 -42 -67.5 -108.5t-24.5 -134.5q0 -77 38.5 -125t102.5 -48z
" />
    <glyph glyph-name="aring.alt2" horiz-adv-x="490" 
d="M323 0l24 98q-70 -108 -187 -108q-59 0 -100.5 36t-41.5 100q0 81 52 132q54 54 152 54q87 0 170 -30l6 25q9 36 9 67q0 54 -37 84t-103 30q-60 0 -124 -25l-8 29q54 24 118 25q-25 22 -25 58q0 40 30 67.5t69 27.5q37 0 61 -22t24 -57q0 -29 -17.5 -52.5t-44.5 -34.5
q88 -34 88 -127q0 -32 -11 -74l-73 -303h-31zM313 516q30 0 53 21.5t23 51.5q0 27 -17 44t-46 17q-30 0 -52 -21.5t-22 -52.5q0 -26 16.5 -43t44.5 -17zM166 18q73 0 130 51t75 126l15 60q-80 29 -167 29q-80 0 -125 -45q-43 -42 -43 -110q0 -52 32.5 -81.5t82.5 -29.5z" />
    <glyph glyph-name="aringacute.alt" horiz-adv-x="556" 
d="M390 801l104 98l33 -18l-110 -80h-27zM466 686q0 -40 -29.5 -68t-69.5 -28q-37 0 -60.5 23t-23.5 58q0 39 30 67.5t69 28.5q37 0 60.5 -23t23.5 -58zM306 672q0 -27 17 -44.5t45 -17.5q30 0 52.5 22t22.5 53q0 26 -17 43.5t-45 17.5q-30 0 -52.5 -22t-22.5 -52zM213 -10
q-75 0 -122 55.5t-47 143.5q0 74 27 146t74 119q67 67 153 67q74 0 118 -46t54 -108l36 144h31l-124 -511h-31l28 114q-30 -49 -82 -86.5t-115 -37.5zM218 19q77 0 140 63q43 42 69 106t26 126q0 76 -42.5 127t-111.5 51q-73 0 -130 -57q-43 -42 -67.5 -108.5t-24.5 -134.5
q0 -77 38.5 -125t102.5 -48z" />
    <glyph glyph-name="aringacute.alt2" horiz-adv-x="491" 
d="M336 711l103 98l33 -18l-110 -80h-26zM323 0l24 98q-70 -108 -187 -108q-59 0 -100.5 36t-41.5 100q0 81 52 132q54 54 152 54q87 0 170 -30l6 25q9 36 9 67q0 54 -37 84t-103 30q-60 0 -124 -25l-8 29q54 24 118 25q-25 22 -25 58q0 40 30 67.5t69 27.5q37 0 61 -22
t24 -57q0 -29 -17.5 -52.5t-44.5 -34.5q88 -34 88 -127q0 -32 -11 -74l-73 -303h-31zM313 516q30 0 53 21.5t23 51.5q0 27 -17 44t-46 17q-30 0 -52 -21.5t-22 -52.5q0 -26 16.5 -43t44.5 -17zM166 18q73 0 130 51t75 126l15 60q-80 29 -167 29q-80 0 -125 -45
q-43 -42 -43 -110q0 -52 32.5 -81.5t82.5 -29.5z" />
    <glyph glyph-name="atilde.alt" horiz-adv-x="556" 
d="M213 -10q-75 0 -122 55.5t-47 143.5q0 74 27 146t74 119q67 67 153 67q74 0 118 -46t54 -108l36 144h31l-124 -511h-31l28 114q-30 -49 -82 -86.5t-115 -37.5zM218 19q77 0 140 63q43 42 69 106t26 126q0 76 -42.5 127t-111.5 51q-73 0 -130 -57q-43 -42 -67.5 -108.5
t-24.5 -134.5q0 -77 38.5 -125t102.5 -48zM476 682l21 -6q-32 -80 -80 -80q-22 0 -58 27q-33 24 -48 24q-31 0 -55 -55l-22 6q31 80 80 80q20 0 58 -27q31 -24 48 -24q28 0 56 55z" />
    <glyph glyph-name="three.alt" horiz-adv-x="493" 
d="M198 -10q-65 0 -119 27.5t-87 77.5l26 19q64 -94 182 -94q85 0 138 52t53 121t-52 109.5t-132 40.5h-34l7 28h41q104 0 171 49t67 128q0 58 -42.5 95t-110.5 37q-87 0 -161 -62l-20 23q81 69 181 69q83 0 135 -45t52 -115q0 -77 -54.5 -128.5t-143.5 -68.5
q61 -18 95.5 -60t34.5 -101q0 -83 -64 -142.5t-163 -59.5z" />
    <glyph glyph-name="registered.alt" horiz-adv-x="733" 
d="M429 712q130 0 207 -86t77 -217q0 -88 -32 -173.5t-92 -145.5q-102 -102 -240 -102q-130 0 -207 86t-77 217q0 87 32.5 173t91.5 146q102 102 240 102zM351 9q125 0 221 94q57 57 87.5 140.5t30.5 168.5q1 118 -69 198.5t-193 80.5q-128 0 -222 -94q-57 -57 -87.5 -140
t-30.5 -169q0 -118 70 -198.5t193 -80.5zM298 325l-37 -152h-29l91 372h104q64 0 94 -31q26 -24 26 -66q0 -48 -33 -81q-31 -31 -87 -38l66 -156h-31l-64 153q-4 -1 -100 -1zM305 351h82q74 0 106 32q25 24 25 64q0 31 -17 48q-23 23 -75 23h-82z" />
    <glyph glyph-name="NUL" horiz-adv-x="0" 
 />
    <glyph glyph-name="hfjslug" horiz-adv-x="696" 
d="M256 276h8l11 34h1l11 -34h8l14 47h-8l-10 -35h-1l-11 35h-7l-11 -35h-1l-10 35h-8zM322 388q19 0 29 24h1l12 -24l12 6l-17 32q6 14 13 39l-13 3q-4 -18 -8 -30h-1l-16 31q23 21 23 42q0 31 -27 31q-12 0 -20 -9t-8 -22t14 -39q-23 -18 -23 -47q0 -16 8 -26.5t21 -10.5z
M51 -200v303q13 0 22.5 9.5t9.5 22.5t-9.5 22.5t-22.5 9.5v554h100l30 79h334l29 -79h101v-921h-208l-8 14h-163l-8 -14h-207zM524 277h8v12l8 8l15 -20h10l-20 26l18 20h-10l-20 -24h-1v24h-8v-46zM194 277h34v7h-26v13h23v7h-23v12h26v7h-34v-46zM185 391h15v79h47v-79h15
v172h-15v-79h-47v79h-15v-172zM133 277h8v32l25 -32h7v46h-8v-32l-25 32h-7v-46zM401 391h15v78h38v14h-38v66h43v14h-58v-172zM469 277h8v15h12l10 -15h9l-12 17q10 4 10 14q0 15 -17 15h-20v-46zM367 277h8v17l18 29h-9l-13 -22l-13 22h-9l18 -29v-17zM482 390q31 0 31 36
v137h-16v-137q0 -22 -16 -22q-7 0 -20 5v-15q10 -4 21 -4zM477 299v17h11q10 0 10 -8q0 -9 -10 -9h-11zM323 402q-16 0 -16 25q0 19 16 35l20 -39q-8 -21 -20 -21zM328 479q-12 22 -12 32q0 19 14 19q13 0 13 -19q0 -15 -15 -32zM427 283q-16 0 -16 17q0 6 4.5 11.5
t11.5 5.5t11.5 -5.5t4.5 -11.5q0 -17 -16 -17zM427 276q10 0 17 7t7 17q0 9 -7 16.5t-17 7.5t-17 -7.5t-7 -16.5q0 -10 7 -17t17 -7z" />
    <glyph glyph-name="i.dot" horiz-adv-x="204" 
d="M24 0l125 511h31l-125 -511h-31zM177 643l15 62h40l-16 -62h-39z" />
    <glyph glyph-name="caron.alt" 
d="M296 573l50 149h35v-2l-68 -147h-17z" />
    <glyph glyph-name="acute.cap" 
d="M320 757l111 105l35 -18l-117 -87h-29z" />
    <glyph glyph-name="hungarumlaut.cap" 
d="M262 757l112 105l35 -18l-117 -87h-30zM375 757l111 105l34 -18l-116 -87h-29z" />
    <glyph glyph-name="grave.cap" 
d="M401 757l-79 87l35 18l66 -105h-22z" />
    <glyph glyph-name="circumflex.cap" 
d="M266 758l118 100h28l69 -100h-29l-59 69l-94 -69h-33z" />
    <glyph glyph-name="caron.cap" 
d="M506 858l-118 -100h-28l-70 100h29l61 -68l93 68h33z" />
    <glyph glyph-name="breve.cap" 
d="M375 757q-50 0 -76.5 23t-21.5 64h26q2 -57 76 -57t104 57h28q-15 -41 -50.5 -64t-85.5 -23z" />
    <glyph glyph-name="tilde.cap" 
d="M270 760l-21 5q32 74 80 74q21 0 59 -23q32 -22 50 -22q29 0 55 48l22 -6q-34 -73 -80 -73q-20 0 -58 24q-37 22 -50 22q-29 0 -57 -49z" />
    <glyph glyph-name="macron.cap" 
d="M254 778l7 31h251l-7 -31h-251z" />
    <glyph glyph-name="dieresis.cap" 
d="M286 768l14 57h47l-14 -57h-47zM419 768l14 57h47l-14 -57h-47z" />
    <glyph glyph-name="dotaccent.cap" 
d="M352 768l14 57h48l-14 -57h-48z" />
    <glyph glyph-name="ring.cap" 
d="M404 926q39 0 62.5 -21t23.5 -54q0 -40 -32 -67t-74 -27q-38 0 -61.5 21.5t-23.5 54.5q0 40 31.5 66.5t73.5 26.5zM387 779q31 0 54 20t23 50q0 25 -16.5 40.5t-45.5 15.5q-31 0 -54.5 -20.5t-23.5 -49.5q0 -24 17 -40t46 -16z" />
    </font>
</defs>
</svg>
