<?xml version="1.0" standalone="no"?>
<!DOCTYPE svg PUBLIC "-//W3C//DTD SVG 1.1//EN" "http://www.w3.org/Graphics/SVG/1.1/DTD/svg11.dtd" >
<svg xmlns="http://www.w3.org/2000/svg" xmlns:xlink="http://www.w3.org/1999/xlink" version="1.1">
<metadata>
Created by FontForge 20170731 at Thu Oct  2 18:57:41 2008
 By ,,,
Copyright (C) 2005, 2008 Hoefler &#38; Frere-Jones. http://www.typography.com
</metadata>
<defs>
<font id="GothamXNarrow-ThinItalic" horiz-adv-x="429" >
  <font-face 
    font-family="Gotham XNarrow Thin"
    font-weight="250"
    font-style="italic"
    font-stretch="condensed"
    units-per-em="1000"
    panose-1="0 0 0 0 0 0 0 0 0 0"
    ascent="800"
    descent="-200"
    x-height="516"
    cap-height="700"
    bbox="-102 -200 839 927"
    underline-thickness="50"
    underline-position="-200"
    slope="-5"
    unicode-range="U+0020-FB04"
  />
<missing-glyph horiz-adv-x="508" 
d="M4 -200v1000h500v-1000h-500zM54 -76l172 376l-172 376v-752zM75 -150h358l-179 390zM254 360l179 390h-358zM454 -76v752l-172 -376z" />
    <glyph glyph-name="f_f" unicode="ff" horiz-adv-x="463" 
d="M31 0l108 497h-60l4 19h60l16 73q17 74 42 99q26 26 67 26q32 0 54 -12l-4 -20q-22 12 -52 12q-31 0 -51.5 -20t-31.5 -71l-19 -87h113l-4 -19h-113l-108 -497h-21zM262 0l108 497h-60l4 19h60l16 73q16 74 42 99q26 26 67 26q32 0 54 -12l-4 -20q-22 12 -52 12
q-31 0 -51.5 -20t-31.5 -71l-19 -87h113l-4 -19h-113l-108 -497h-21z" />
    <glyph glyph-name="fi" unicode="fi" horiz-adv-x="395" 
d="M31 0l108 497h-60l4 19h60l16 73q17 74 42 99q26 26 67 26q32 0 54 -12l-4 -20q-22 12 -52 12q-31 0 -51.5 -20t-31.5 -71l-19 -87h113l-4 -19h-113l-108 -497h-21zM247 0l112 516h21l-112 -516h-21zM385 648l12 57h27l-12 -57h-27z" />
    <glyph glyph-name="fl" unicode="fl" horiz-adv-x="395" 
d="M31 0l108 497h-60l4 19h60l16 73q17 74 42 99q26 26 67 26q32 0 54 -12l-4 -20q-22 12 -52 12q-31 0 -51.5 -20t-31.5 -71l-19 -87h113l-4 -19h-113l-108 -497h-21zM247 0l155 713h21l-155 -713h-21z" />
    <glyph glyph-name="f_f_i" unicode="ffi" horiz-adv-x="625" 
d="M31 0l108 497h-60l4 19h60l16 73q17 74 42 99q26 26 67 26q32 0 54 -12l-4 -20q-22 12 -52 12q-31 0 -51.5 -20t-31.5 -71l-19 -87h113l-4 -19h-113l-108 -497h-21zM262 0l108 497h-60l4 19h60l16 73q16 74 42 99q26 26 67 26q32 0 54 -12l-4 -20q-22 12 -52 12
q-31 0 -51.5 -20t-31.5 -71l-19 -87h113l-4 -19h-113l-108 -497h-21zM478 0l112 516h21l-112 -516h-21zM616 648l12 57h27l-12 -57h-27z" />
    <glyph glyph-name="f_f_l" unicode="ffl" horiz-adv-x="625" 
d="M31 0l108 497h-60l4 19h60l16 73q17 74 42 99q26 26 67 26q32 0 54 -12l-4 -20q-22 12 -52 12q-31 0 -51.5 -20t-31.5 -71l-19 -87h113l-4 -19h-113l-108 -497h-21zM262 0l108 497h-60l4 19h60l16 73q16 74 42 99q26 26 67 26q32 0 54 -12l-4 -20q-22 12 -52 12
q-31 0 -51.5 -20t-31.5 -71l-19 -87h113l-4 -19h-113l-108 -497h-21zM478 0l155 713h21l-155 -713h-21z" />
    <glyph glyph-name=".notdef" horiz-adv-x="508" 
d="M4 -200v1000h500v-1000h-500zM54 -76l172 376l-172 376v-752zM75 -150h358l-179 390zM254 360l179 390h-358zM454 -76v752l-172 -376z" />
    <glyph glyph-name=".null" horiz-adv-x="0" 
 />
    <glyph glyph-name="nonmarkingreturn" horiz-adv-x="333" 
 />
    <glyph glyph-name="space" unicode=" " horiz-adv-x="190" 
 />
    <glyph glyph-name="exclam" unicode="!" horiz-adv-x="159" 
d="M59 183l88 435l18 82h22l-18 -82l-100 -435h-10zM9 0l11 51h30l-11 -51h-30z" />
    <glyph glyph-name="quotedbl" unicode="&#x22;" horiz-adv-x="244" 
d="M89 454l65 246h25l-2 -7l-76 -239h-12zM202 454l64 246h25l-1 -7l-76 -239h-12z" />
    <glyph glyph-name="numbersign" unicode="#" horiz-adv-x="467" 
d="M62 0l50 200h-83l4 19h84l65 264h-89l4 19h90l48 198h20l-49 -198h161l49 198h19l-49 -198h83l-4 -19h-84l-65 -264h89l-4 -19h-90l-49 -200h-19l49 200h-161l-49 -200h-20zM136 219h161l65 264h-161z" />
    <glyph glyph-name="dollar" unicode="$" horiz-adv-x="424" 
d="M310 765h19l-14 -65q66 -12 120 -70l-15 -15q-50 55 -109 67l-68 -312q65 -51 91.5 -92.5t26.5 -93.5q0 -73 -47 -130.5t-135 -57.5q-11 0 -17 1l-21 -96h-19l22 98q-85 12 -143 89l17 13q53 -72 130 -84l74 342q-58 43 -87 83t-29 91q0 68 46.5 119t128.5 51q10 0 15 -1
zM339 188q0 44 -23 80.5t-78 77.5l-72 -331h13q79 0 119.5 52.5t40.5 120.5zM128 532q0 -45 25 -79.5t74 -69.5l66 301q-5 1 -13 1q-72 0 -112 -45.5t-40 -107.5z" />
    <glyph glyph-name="percent" unicode="%" horiz-adv-x="597" 
d="M44 0l268 356l259 344h22l-268 -356l-259 -344h-22zM182 364q-43 0 -69 32.5t-26 88.5q0 52 19 103.5t50 82.5q35 35 77 35q43 0 68.5 -32t25.5 -89q0 -52 -18.5 -103.5t-49.5 -82.5q-35 -35 -77 -35zM182 382q34 0 62 28t45.5 76.5t17.5 97.5q0 47 -20 75.5t-55 28.5
q-34 0 -62 -28t-45.5 -76.5t-17.5 -97.5q0 -47 20 -75.5t55 -28.5zM404 -6q-43 0 -68.5 32t-25.5 89q0 52 18.5 103.5t49.5 82.5q37 35 77 35q43 0 69 -32.5t26 -88.5q0 -52 -19 -103.5t-50 -82.5q-35 -35 -77 -35zM405 12q34 0 62 28t45.5 76.5t17.5 97.5q0 47 -20 75.5
t-55 28.5q-34 0 -62 -28t-45.5 -76.5t-17.5 -97.5q0 -47 20 -75.5t55 -28.5z" />
    <glyph glyph-name="ampersand" unicode="&#x26;" horiz-adv-x="488" 
d="M439 324l20 -8q-50 -122 -98 -193l58 -120l-19 -11l-54 111q-86 -111 -184 -111q-62 0 -102 44.5t-40 111.5q0 87 50.5 144.5t140.5 103.5q-43 93 -43 158q0 67 39 111t98 44q51 0 82 -33.5t31 -82.5q0 -64 -45.5 -112t-134.5 -94l112 -243q48 73 89 180zM163 12
q92 0 173 112l-117 255q-177 -91 -177 -227q0 -63 33.5 -101.5t87.5 -38.5zM190 555q0 -61 40 -150q79 40 122.5 83t43.5 103q0 43 -25 70.5t-66 27.5q-51 0 -83 -38.5t-32 -95.5z" />
    <glyph glyph-name="quotesingle" unicode="'" horiz-adv-x="125" 
d="M89 454l65 246h25l-2 -7l-76 -239h-12z" />
    <glyph glyph-name="parenleft" unicode="(" horiz-adv-x="277" 
d="M171 -121q-120 123 -120 317q0 125 45 233t123 186q58 58 131 91l8 -18q-68 -29 -123 -84q-75 -75 -119 -180.5t-44 -227.5q0 -181 113 -304z" />
    <glyph glyph-name="parenright" unicode=")" horiz-adv-x="277" 
d="M113 703q120 -123 120 -317q0 -125 -45 -233t-123 -186q-58 -58 -131 -91l-8 18q68 29 123 84q75 75 119 180.5t44 227.5q0 181 -113 304z" />
    <glyph glyph-name="asterisk" unicode="*" horiz-adv-x="321" 
d="M208 424l-22 5l34 125l-107 -41l-8 21l110 31l-87 77l16 16l80 -84l22 127l21 -5l-33 -124l107 42l8 -22l-111 -31l87 -76l-17 -16l-78 83z" />
    <glyph glyph-name="plus" unicode="+" horiz-adv-x="420" 
d="M180 178l38 164h-154l4 20h154l38 164h20l-38 -164h155l-5 -20h-154l-38 -164h-20z" />
    <glyph glyph-name="comma" unicode="," horiz-adv-x="117" 
d="M-31 -66l-5 13q17 7 24 18t12 35h-13l11 51h30l-11 -55q-6 -28 -17.5 -41.5t-30.5 -20.5z" />
    <glyph glyph-name="hyphen" unicode="-" horiz-adv-x="295" 
d="M57 286l4 20h193l-4 -20h-193z" />
    <glyph glyph-name="period" unicode="." horiz-adv-x="120" 
d="M-11 0l11 51h30l-11 -51h-30z" />
    <glyph glyph-name="slash" unicode="/" horiz-adv-x="327" 
d="M-78 -107l489 884h23l-489 -884h-23z" />
    <glyph glyph-name="zero" unicode="0" horiz-adv-x="476" 
d="M322 709q67 0 103 -53.5t36 -154.5q0 -110 -38.5 -247t-109.5 -208q-55 -55 -119 -55q-67 0 -103 53.5t-36 154.5q0 110 38.5 247t109.5 208q55 55 119 55zM196 11q53 0 101 48q65 65 103.5 199t38.5 244q0 89 -30 138t-89 49q-53 0 -101 -48q-65 -65 -103.5 -199
t-38.5 -244q0 -89 30 -138t89 -49z" />
    <glyph glyph-name="one" unicode="1" horiz-adv-x="227" 
d="M62 0l147 675l-102 -47l2 22l110 52h17l-152 -702h-22z" />
    <glyph glyph-name="two" unicode="2" horiz-adv-x="388" 
d="M-21 0l2 15l280 331q65 77 88.5 124.5t23.5 96.5q0 53 -33 86t-87 33q-75 0 -135 -73l-15 14q62 79 148 79q66 0 105 -40t39 -98t-28 -110t-95 -131l-260 -307h291l-4 -20h-320z" />
    <glyph glyph-name="three" unicode="3" horiz-adv-x="379" 
d="M128 -6q-98 0 -155 76l16 14q56 -69 140 -69q79 0 128 58t49 137q0 27 -7.5 49t-16.5 36.5t-27.5 27t-29 18.5t-32 11.5t-26 6.5t-22.5 4v13l247 305h-271l5 19h296l-3 -17l-248 -305q75 -15 116 -57.5t41 -112.5q0 -94 -62 -156q-58 -58 -138 -58z" />
    <glyph glyph-name="four" unicode="4" horiz-adv-x="422" 
d="M246 0l38 173h-272l1 15l385 517h21l-111 -512h74l-4 -20h-74l-38 -173h-20zM40 193h248l102 470z" />
    <glyph glyph-name="five" unicode="5" horiz-adv-x="397" 
d="M148 -7q-93 0 -148 73l16 14q52 -67 133 -67q80 0 130.5 68t50.5 165q0 74 -37 109.5t-97 35.5q-48 0 -97 -22l-13 11l86 320h244l-4 -20h-225l-76 -286q42 17 87 17q70 0 112.5 -42t41.5 -126q0 -55 -19.5 -107.5t-53.5 -86.5q-56 -56 -131 -56z" />
    <glyph glyph-name="six" unicode="6" horiz-adv-x="433" 
d="M196 -9q-57 0 -95 38q-49 49 -49 159t39.5 250.5t112.5 213.5q57 57 126 57q66 0 122 -54l-14 -17q-52 50 -108 50q-61 0 -111 -50q-94 -94 -134 -322q58 112 163 112q64 0 104 -44t40 -120q0 -59 -20 -121t-61 -103q-49 -49 -115 -49zM198 11q55 0 97 42q37 37 56 95.5
t19 113.5q0 70 -34.5 108t-89.5 38q-60 0 -106 -46q-66 -66 -66 -189q0 -87 43 -130q32 -32 81 -32z" />
    <glyph glyph-name="seven" unicode="7" horiz-adv-x="363" 
d="M28 0l359 680h-273l4 20h296l-3 -19l-360 -681h-23z" />
    <glyph glyph-name="eight" unicode="8" horiz-adv-x="421" 
d="M186 -8q-74 0 -118.5 46t-44.5 121q0 76 44.5 135.5t122.5 73.5q-78 43 -78 145q0 74 47 134.5t125 60.5q62 0 102.5 -41.5t40.5 -113.5q0 -74 -39 -128t-108 -69q94 -47 94 -160q0 -80 -51 -142t-137 -62zM188 12q75 0 120 56t45 131q0 64 -37 109t-102 45
q-74 0 -122 -57t-48 -136q0 -64 38.5 -106t105.5 -42zM252 370q66 0 110.5 51.5t44.5 129.5q0 63 -34.5 100.5t-89.5 37.5q-68 0 -109 -55t-41 -124q0 -55 31.5 -97.5t87.5 -42.5z" />
    <glyph glyph-name="nine" unicode="9" horiz-adv-x="428" 
d="M139 -9q-66 0 -127 59l14 17q57 -55 113 -55q61 0 111 50q94 94 133 315q-58 -112 -163 -112q-64 0 -104 44.5t-40 122.5q0 60 20.5 123.5t61.5 104.5q49 49 115 49q57 0 95 -38q49 -49 49 -159t-39.5 -250.5t-112.5 -213.5q-57 -57 -126 -57zM222 285q60 0 106 46
q67 74 67 193q0 90 -43 133q-32 32 -81 32q-55 0 -97 -42q-37 -37 -56.5 -97t-19.5 -116q0 -72 34 -110.5t90 -38.5z" />
    <glyph glyph-name="colon" unicode=":" horiz-adv-x="126" 
d="M-8 0l11 51h30l-11 -51h-30zM89 445l11 50h30l-11 -50h-30z" />
    <glyph glyph-name="semicolon" unicode=";" horiz-adv-x="121" 
d="M-31 -66l-4 13q29 13 35 53h-13l11 51h31l-11 -55q-6 -28 -17.5 -41.5t-31.5 -20.5zM84 445l11 50h30l-11 -50h-30z" />
    <glyph glyph-name="less" unicode="&#x3c;" 
d="M343 169l-275 177l3 12l353 177l-4 -24l-321 -161l248 -160z" />
    <glyph glyph-name="equal" unicode="=" horiz-adv-x="420" 
d="M55 257l5 21h307l-4 -21h-308zM93 426l5 21h307l-4 -21h-308z" />
    <glyph glyph-name="greater" unicode="&#x3e;" 
d="M44 169l5 24l321 161l-249 160l5 21l274 -177l-3 -12z" />
    <glyph glyph-name="question" unicode="?" horiz-adv-x="361" 
d="M131 183l30 168l4 5q89 21 143.5 71.5t54.5 126.5q0 63 -37.5 97t-94.5 34q-64 0 -126 -48l-12 17q68 52 139 52q68 0 110.5 -42t42.5 -109q0 -80 -54.5 -134.5t-148.5 -80.5l-41 -157h-10zM83 0l11 51h31l-11 -51h-31z" />
    <glyph glyph-name="at" unicode="@" horiz-adv-x="733" 
d="M321 -141q-127 0 -201 82t-74 230q0 139 53.5 263t146.5 199.5t200 75.5q121 0 188.5 -81t67.5 -207q0 -86 -25 -166t-67 -130t-88 -50q-44 0 -62.5 32.5t-8.5 80.5q-24 -47 -62 -81t-84 -34q-47 0 -73 34t-26 94q0 103 60.5 200.5t136.5 97.5q47 0 72 -32.5t27 -82.5
l28 96l20 -4l-69 -239q-14 -46 -14 -78q0 -65 57 -65q39 0 76.5 48.5t60 124t22.5 151.5q0 118 -62.5 196t-174.5 78q-104 0 -193 -76.5t-138.5 -195.5t-49.5 -246q0 -139 69 -218.5t188 -79.5q89 0 182 58l9 -15q-96 -60 -192 -60zM309 94q45 0 87.5 45.5t66.5 108
t24 116.5q0 48 -21.5 82t-63.5 34q-66 0 -120.5 -91.5t-54.5 -185.5q0 -109 82 -109z" />
    <glyph glyph-name="A" unicode="A" horiz-adv-x="511" 
d="M-20 0l364 705h21l57 -705h-22l-16 211h-272l-108 -211h-24zM122 231h260l-34 437z" />
    <glyph glyph-name="B" unicode="B" horiz-adv-x="481" 
d="M19 0l152 700h109q93 0 143 -45t50 -111q0 -87 -55 -134.5t-128 -56.5q61 -13 94 -52t33 -94q0 -96 -68.5 -151.5t-193.5 -55.5h-136zM45 20h109q120 0 180.5 51t60.5 135q0 60 -45 98.5t-127 38.5h-107zM120 363h106q107 0 166 50t59 129q0 63 -45.5 100.5t-128.5 37.5
h-89z" />
    <glyph glyph-name="C" unicode="C" horiz-adv-x="451" 
d="M239 -9q-79 0 -128.5 63t-49.5 178q0 109 37 222.5t107 183.5q71 71 151 71q84 0 139 -74l-17 -14q-46 68 -122 68q-71 0 -134 -63q-65 -65 -102 -174.5t-37 -220.5q0 -104 43.5 -162t113.5 -58q58 0 122 47l11 -17q-67 -50 -134 -50z" />
    <glyph glyph-name="D" unicode="D" horiz-adv-x="509" 
d="M19 0l152 700h80q111 0 171 -60q64 -64 64 -191q0 -89 -33.5 -191t-96.5 -165q-93 -93 -232 -93h-105zM406 625q-54 55 -155 55h-62l-144 -660h80q129 0 215 86q59 59 91.5 158t32.5 185q0 118 -58 176z" />
    <glyph glyph-name="E" unicode="E" 
d="M19 0l152 700h308l-5 -20h-285l-69 -317h260l-5 -20h-259l-71 -323h289l-5 -20h-310z" />
    <glyph glyph-name="F" unicode="F" horiz-adv-x="402" 
d="M19 0l152 700h300l-5 -20h-278l-70 -326h252l-4 -20h-252l-73 -334h-22z" />
    <glyph glyph-name="G" unicode="G" horiz-adv-x="505" 
d="M261 -9q-89 0 -143.5 68t-54.5 191q0 104 37 208t103 170q81 81 174 81q85 0 147 -69l-16 -15q-55 64 -130 64q-83 0 -158 -73q-61 -60 -98 -162t-37 -202q0 -113 48.5 -177t129.5 -64q63 0 111 33l63 283h-156l4 21h178l-71 -317q-58 -40 -131 -40z" />
    <glyph glyph-name="H" unicode="H" horiz-adv-x="520" 
d="M19 0l152 700h22l-74 -337h326l74 337h22l-152 -700h-22l74 343h-326l-74 -343h-22z" />
    <glyph glyph-name="I" unicode="I" horiz-adv-x="183" 
d="M25 0l152 700h22l-152 -700h-22z" />
    <glyph glyph-name="J" unicode="J" horiz-adv-x="318" 
d="M87 -7q-76 0 -108 71l18 10q31 -61 91 -61q40 0 68 28q29 29 45 105l120 554h22l-120 -552q-20 -89 -53 -122t-83 -33z" />
    <glyph glyph-name="K" unicode="K" horiz-adv-x="456" 
d="M19 0l152 700h22l-96 -437l388 437h27l-275 -309l137 -391h-23l-131 372l-132 -149l-47 -223h-22z" />
    <glyph glyph-name="L" unicode="L" horiz-adv-x="378" 
d="M19 0l152 700h22l-148 -680h261l-4 -20h-283z" />
    <glyph glyph-name="M" unicode="M" horiz-adv-x="591" 
d="M19 0l152 700h22l103 -436l290 436h26l-153 -700h-21l142 653l-292 -436h-3l-103 436l-142 -653h-21z" />
    <glyph glyph-name="N" unicode="N" horiz-adv-x="532" 
d="M19 0l152 700h21l198 -652l142 652h21l-152 -700h-19l-199 659l-143 -659h-21z" />
    <glyph glyph-name="O" unicode="O" horiz-adv-x="541" 
d="M348 709q81 0 127.5 -64t46.5 -185q0 -108 -38 -221.5t-106 -181.5q-66 -66 -144 -66q-81 0 -127.5 64t-46.5 185q0 108 38 221.5t106 181.5q66 66 144 66zM235 11q68 0 128 60q64 64 100.5 175t36.5 214q0 111 -41 170t-112 59q-68 0 -128 -60q-64 -64 -100.5 -175
t-36.5 -214q0 -111 41 -170t112 -59z" />
    <glyph glyph-name="P" unicode="P" horiz-adv-x="451" 
d="M19 0l152 700h101q103 0 153 -50q43 -43 43 -123q0 -108 -70 -178q-79 -79 -209 -79h-89l-60 -270h-21zM408 636q-43 44 -137 44h-83l-85 -390h87q120 0 190 70q66 66 66 168q0 70 -38 108z" />
    <glyph glyph-name="Q" unicode="Q" horiz-adv-x="548" 
d="M348 709q81 0 127.5 -64t46.5 -185q0 -105 -36 -216.5t-100 -178.5l50 -68l-16 -12l-48 66q-63 -60 -138 -60q-81 0 -127.5 64t-46.5 185q0 108 38 222t105 180q67 67 145 67zM235 11q66 0 125 57l-83 115l16 12l81 -113q57 65 91.5 173.5t34.5 204.5q0 111 -41 170
t-112 59q-68 0 -128 -60q-62 -62 -99.5 -175t-37.5 -214q0 -111 41 -170t112 -59z" />
    <glyph glyph-name="R" unicode="R" horiz-adv-x="484" 
d="M361 0l-108 298q-16 -2 -50 -2h-98l-64 -296h-22l152 700h109q106 0 157 -51q44 -46 44 -120q0 -98 -61 -159q-57 -57 -146 -69l110 -301h-23zM109 316h99q129 0 195 66q56 56 56 147q0 67 -38 105q-46 46 -145 46h-88z" />
    <glyph glyph-name="S" unicode="S" horiz-adv-x="421" 
d="M183 -8q-121 0 -188 110l18 13q61 -103 170 -103q67 0 107.5 45t40.5 106q0 37 -17 73t-36 59.5t-55 61.5q-38 41 -55 62t-34.5 56.5t-17.5 70.5q0 69 46 115q47 47 118 47q96 0 165 -86l-17 -14q-59 80 -149 80q-62 0 -101.5 -41.5t-39.5 -98.5q0 -13 2.5 -25.5t5.5 -22
t11 -23t11.5 -20.5t16 -22.5t16.5 -20t20 -23t20 -22.5q57 -61 84.5 -105.5t27.5 -98.5q0 -75 -49 -124t-121 -49z" />
    <glyph glyph-name="T" unicode="T" horiz-adv-x="377" 
d="M120 0l148 680h-160l4 20h343l-5 -20h-160l-148 -680h-22z" />
    <glyph glyph-name="U" unicode="U" horiz-adv-x="514" 
d="M217 -8q-72 0 -118 41t-46 117q0 39 14 105l98 445h22l-98 -447q-14 -64 -14 -102q0 -68 40 -103.5t105 -35.5q72 0 122 50t72 153l105 485h22l-107 -491q-24 -108 -77 -161q-56 -56 -140 -56z" />
    <glyph glyph-name="V" unicode="V" horiz-adv-x="489" 
d="M176 -5l-47 705h22l43 -666l332 666h25l-355 -705h-20z" />
    <glyph glyph-name="W" unicode="W" horiz-adv-x="744" 
d="M140 -5l-7 705h22l5 -661l296 662h18l15 -662l288 661h24l-311 -705h-20l-15 657l-294 -657h-21z" />
    <glyph glyph-name="X" unicode="X" horiz-adv-x="449" 
d="M-24 0l257 357l-104 343h23l96 -324l233 324h25l-249 -345l108 -355h-23l-100 336l-241 -336h-25z" />
    <glyph glyph-name="Y" unicode="Y" horiz-adv-x="442" 
d="M152 0l65 300l-104 400h22l97 -379l263 379h25l-281 -402l-65 -298h-22z" />
    <glyph glyph-name="Z" unicode="Z" horiz-adv-x="428" 
d="M-12 0l2 17l456 663h-305l5 20h330l-2 -17l-457 -663h317l-5 -20h-341z" />
    <glyph glyph-name="bracketleft" unicode="[" horiz-adv-x="295" 
d="M8 -130l179 830h163l-4 -17h-141l-173 -796h142l-4 -17h-162z" />
    <glyph glyph-name="backslash" unicode="\" horiz-adv-x="321" 
d="M229 -107l-102 884h19l103 -884h-20z" />
    <glyph glyph-name="bracketright" unicode="]" horiz-adv-x="295" 
d="M291 700l-179 -830h-163l4 17h141l173 796h-142l4 17h162z" />
    <glyph glyph-name="asciicircum" unicode="^" horiz-adv-x="370" 
d="M139 521l133 170h14l57 -170h-14l-54 146l-119 -146h-17z" />
    <glyph glyph-name="underscore" unicode="_" horiz-adv-x="483" 
d="M-87 -148l4 16h478l-3 -16h-479z" />
    <glyph glyph-name="grave" unicode="`" horiz-adv-x="508" 
d="M364 581l-73 105l22 12l62 -117h-11z" />
    <glyph glyph-name="a" unicode="a" horiz-adv-x="397" 
d="M129 -8q-51 0 -84.5 34t-33.5 95q0 93 57 150q45 45 117 45q65 0 135 -32l8 36q11 57 11 83q0 46 -30 72.5t-83 26.5t-100 -22l-7 19q56 23 109 23q60 0 96 -31.5t36 -88.5q0 -34 -11 -80l-70 -322h-21l20 96q-56 -104 -149 -104zM131 12q58 0 104.5 50.5t62.5 123.5
l17 77q-61 33 -130 33q-63 0 -101 -38q-51 -51 -51 -137q0 -52 27.5 -80.5t70.5 -28.5z" />
    <glyph glyph-name="b" unicode="b" horiz-adv-x="445" 
d="M191 -8q-62 0 -93.5 46.5t-34.5 103.5l-31 -142h-21l155 713h21l-70 -322q22 48 66.5 90.5t100.5 42.5q59 0 93.5 -49.5t34.5 -129.5q0 -84 -29 -167t-80 -134q-52 -52 -112 -52zM190 12q52 0 98 46t74 127t28 160q0 70 -29.5 114.5t-79.5 44.5q-52 0 -97 -45
q-48 -48 -78 -127t-30 -159q0 -65 29.5 -113t84.5 -48z" />
    <glyph glyph-name="c" unicode="c" horiz-adv-x="351" 
d="M173 -8q-64 0 -103 50t-39 140q0 80 28.5 158.5t76.5 126.5q57 57 123 57q68 0 111 -61l-16 -13q-41 53 -98 53q-54 0 -101 -47q-46 -46 -73.5 -122t-27.5 -152q0 -81 33.5 -125t87.5 -44q48 0 93 35l12 -16q-48 -40 -107 -40z" />
    <glyph glyph-name="d" unicode="d" horiz-adv-x="445" 
d="M300 0l27 125q-22 -48 -66.5 -90.5t-100.5 -42.5q-59 0 -93.5 49.5t-34.5 129.5q0 84 29 167t80 134q52 52 112 52q62 0 93.5 -46.5t34.5 -103.5l74 339h21l-155 -713h-21zM163 12q52 0 97 45q48 48 78 127t30 159q0 65 -29.5 113t-84.5 48q-52 0 -98 -46t-74 -127
t-28 -160q0 -70 29.5 -114.5t79.5 -44.5z" />
    <glyph glyph-name="e" unicode="e" horiz-adv-x="404" 
d="M359 251h-299q-5 -37 -5 -66q0 -83 36 -128t99 -45q55 0 108 37l10 -18q-59 -39 -119 -39q-72 0 -113.5 49.5t-41.5 142.5q0 80 29.5 159t78.5 128q53 53 114 53q59 0 89 -44t30 -121q0 -51 -16 -108zM158 459q-68 -68 -94 -188h278q11 47 11 87q0 67 -24 106.5t-73 39.5
q-53 0 -98 -45z" />
    <glyph glyph-name="f" unicode="f" horiz-adv-x="233" 
d="M31 0l108 497h-60l4 19h60l16 73q17 74 42 99q26 26 67 26q32 0 54 -12l-4 -20q-22 12 -52 12q-31 0 -51.5 -20t-31.5 -71l-19 -87h113l-4 -19h-113l-108 -497h-21z" />
    <glyph glyph-name="g" unicode="g" horiz-adv-x="442" 
d="M137 -138q-86 0 -148 43l11 18q59 -41 136 -41q78 0 118 40q34 34 54 124l22 104q-70 -123 -163 -123q-59 0 -93.5 47t-34.5 121q0 80 28.5 155t77.5 124q50 50 111 50q32 0 56.5 -14t38 -37t21 -44.5t9.5 -42.5l29 130h21l-101 -462q-12 -56 -24.5 -88.5t-35.5 -55.5
q-48 -48 -133 -48zM170 47q51 0 103 52q42 42 67.5 113t25.5 134t-28.5 110.5t-82.5 47.5q-52 0 -95 -43q-45 -45 -72 -117.5t-27 -148.5q0 -65 29 -106.5t80 -41.5z" />
    <glyph glyph-name="h" unicode="h" 
d="M11 0l155 713h21l-65 -298q22 46 62 77.5t93 31.5q49 0 81.5 -29.5t32.5 -89.5q0 -34 -17 -113l-63 -292h-21l63 290q17 74 17 115q0 99 -97 99q-59 0 -105.5 -48.5t-64.5 -130.5l-71 -325h-21z" />
    <glyph glyph-name="i" unicode="i" horiz-adv-x="164" 
d="M16 0l112 516h21l-112 -516h-21zM154 648l12 57h27l-12 -57h-27z" />
    <glyph glyph-name="j" unicode="j" horiz-adv-x="164" 
d="M-62 -142q-22 0 -40 10l4 20q17 -10 37 -10q25 0 40.5 15.5t24.5 53.5l124 569h21l-125 -574q-17 -84 -86 -84zM154 648l12 57h27l-12 -57h-27z" />
    <glyph glyph-name="k" unicode="k" horiz-adv-x="361" 
d="M11 0l155 713h21l-116 -532l289 335h26l-191 -220l88 -296h-21l-82 279l-117 -134l-31 -145h-21z" />
    <glyph glyph-name="l" unicode="l" horiz-adv-x="164" 
d="M16 0l155 713h21l-155 -713h-21z" />
    <glyph glyph-name="m" unicode="m" horiz-adv-x="677" 
d="M11 0l112 516h21l-21 -98q52 106 144 106q45 0 76.5 -29t31.5 -89q24 52 64.5 85t90.5 33q45 0 76.5 -29.5t31.5 -88.5q0 -32 -17 -114l-63 -292h-21l63 290q17 77 17 114q0 50 -24.5 75t-65.5 25q-55 0 -100 -49.5t-62 -128.5l-70 -326h-21l64 293q16 70 16 111
q0 50 -25 75t-66 25q-55 0 -98.5 -50t-61.5 -128l-71 -326h-21z" />
    <glyph glyph-name="n" unicode="n" 
d="M11 0l112 516h21l-22 -101q22 46 62 77.5t93 31.5q49 0 81.5 -29.5t32.5 -89.5q0 -34 -17 -113l-63 -292h-21l63 290q17 74 17 115q0 99 -97 99q-59 0 -105.5 -48.5t-64.5 -130.5l-71 -325h-21z" />
    <glyph glyph-name="o" unicode="o" horiz-adv-x="430" 
d="M259 524q64 0 101 -49t37 -133t-28.5 -164.5t-79.5 -131.5q-54 -54 -118 -54t-101 49t-37 133t28.5 164.5t79.5 131.5q54 54 118 54zM172 12q53 0 101 48q47 47 74.5 124t27.5 157q0 74 -30.5 118.5t-86.5 44.5q-53 0 -101 -48q-47 -47 -74.5 -124t-27.5 -157
q0 -74 30.5 -118.5t86.5 -44.5z" />
    <glyph glyph-name="p" unicode="p" horiz-adv-x="446" 
d="M191 -8q-62 0 -93.5 46.5t-34.5 103.5l-61 -280h-21l142 654h21l-27 -125q22 48 66.5 90.5t100.5 42.5q59 0 93.5 -49.5t34.5 -129.5q0 -84 -29 -167t-80 -134q-52 -52 -112 -52zM190 12q52 0 98 46t74 127t28 160q0 70 -29.5 114.5t-79.5 44.5q-52 0 -97 -45
q-48 -48 -78 -127t-30 -159q0 -65 29.5 -113t84.5 -48z" />
    <glyph glyph-name="q" unicode="q" horiz-adv-x="445" 
d="M160 -8q-59 0 -93.5 49.5t-34.5 129.5q0 84 29 167t80 134q52 52 112 52q62 0 93.5 -46.5t34.5 -103.5l31 142h21l-142 -654h-21l57 263q-22 -48 -66.5 -90.5t-100.5 -42.5zM163 12q52 0 97 45q48 48 78 127t30 159q0 65 -29.5 113t-84.5 48q-52 0 -98 -46t-74 -127
t-28 -160q0 -70 29.5 -114.5t79.5 -44.5z" />
    <glyph glyph-name="r" unicode="r" horiz-adv-x="244" 
d="M11 0l112 516h21l-23 -107q28 52 71.5 83.5t93.5 30.5l-4 -22h-2q-55 0 -107.5 -48.5t-69.5 -126.5l-71 -326h-21z" />
    <glyph glyph-name="s" unicode="s" horiz-adv-x="330" 
d="M135 -6q-91 0 -143 85l17 12q49 -77 128 -77q47 0 75 30.5t28 73.5q0 33 -17.5 62.5t-60.5 74.5q-46 48 -66 81.5t-20 67.5q0 52 34 85.5t87 33.5q79 0 127 -75l-17 -12q-47 67 -111 67q-44 0 -71 -27.5t-27 -68.5q0 -30 17.5 -59.5t63.5 -78.5q44 -46 63.5 -79t19.5 -70
q0 -54 -35.5 -90t-91.5 -36z" />
    <glyph glyph-name="t" unicode="t" horiz-adv-x="252" 
d="M119 -5q-33 0 -53 17.5t-20 50.5q0 20 8 52l83 382h-57l4 19h57l34 157h21l-34 -157h113l-4 -19h-113l-83 -379q-8 -42 -8 -53q0 -50 56 -50q21 0 47 10l-4 -20q-17 -10 -47 -10z" />
    <glyph glyph-name="u" unicode="u" 
d="M153 -8q-49 0 -81 29.5t-32 89.5q0 34 17 113l63 292h21l-63 -290q-17 -74 -17 -115q0 -99 96 -99q59 0 105.5 48.5t64.5 130.5l71 325h21l-112 -516h-21l22 101q-22 -46 -62 -77.5t-93 -31.5z" />
    <glyph glyph-name="v" unicode="v" horiz-adv-x="390" 
d="M128 -3l-43 519h21l38 -482l248 482h23l-269 -519h-18z" />
    <glyph glyph-name="w" unicode="w" horiz-adv-x="578" 
d="M100 -3l-13 519h21l9 -475l218 476h17l11 -476l214 475h23l-237 -519h-17l-13 469l-216 -469h-17z" />
    <glyph glyph-name="x" unicode="x" horiz-adv-x="367" 
d="M113 516l74 -232l177 232h25l-194 -252l87 -264h-22l-80 246l-185 -246h-24l202 266l-82 250h22z" />
    <glyph glyph-name="y" unicode="y" horiz-adv-x="394" 
d="M133 12l-48 504h21l44 -474l245 474h23l-257 -494q-51 -98 -84 -131t-67 -33t-63 27l14 16q23 -23 50 -23t54 28.5t68 105.5z" />
    <glyph glyph-name="z" unicode="z" horiz-adv-x="332" 
d="M-22 0l2 14l344 483h-234l4 19h259l-2 -14l-344 -483h245l-4 -19h-270z" />
    <glyph glyph-name="braceleft" unicode="{" horiz-adv-x="313" 
d="M193 -137q-115 29 -115 126q0 42 36 120q31 65 31 102q0 30 -23 49t-64 19h-14l4 18h13q63 0 99 36q22 22 32 51t10 57.5t-1 61.5q-1 30 -1 57.5t10 57t31 50.5q44 44 134 47l1 -19q-80 -3 -118 -41q-42 -42 -36 -158q1 -32 0.5 -61t-11 -58.5t-32.5 -51.5
q-30 -30 -82 -39q70 -20 70 -80q0 -30 -30 -99q-37 -80 -37 -119q0 -81 99 -109z" />
    <glyph glyph-name="bar" unicode="|" horiz-adv-x="225" 
d="M23 -107l194 884h19l-194 -884h-19z" />
    <glyph glyph-name="braceright" unicode="}" horiz-adv-x="313" 
d="M130 715q115 -29 115 -126q0 -42 -36 -120q-31 -65 -31 -102q0 -30 23 -49t64 -19h14l-4 -18h-13q-63 0 -99 -36q-22 -22 -32 -51t-10 -57.5t1 -61.5q1 -30 1 -57.5t-10 -57t-31 -50.5q-44 -44 -134 -47l-1 19q80 3 118 41q42 42 36 158q-1 32 -0.5 61t11 58.5t32.5 51.5
q30 30 82 39q-70 20 -70 80q0 30 30 99q37 80 37 119q0 81 -99 109z" />
    <glyph glyph-name="asciitilde" unicode="~" horiz-adv-x="347" 
d="M86 259l-13 4q28 69 64 69q22 0 49 -30q27 -27 40 -27q26 0 50 56l14 -5q-28 -68 -65 -68q-23 0 -49 29q-25 27 -40 27q-26 0 -50 -55z" />
    <glyph glyph-name="uni00A0" unicode="&#xa0;" horiz-adv-x="190" 
 />
    <glyph glyph-name="exclamdown" unicode="&#xa1;" horiz-adv-x="159" 
d="M133 517l-88 -435l-18 -82h-22l18 82l100 435h10zM183 700l-11 -51h-30l11 51h30z" />
    <glyph glyph-name="cent" unicode="&#xa2;" horiz-adv-x="370" 
d="M312 704h19l-23 -89q50 -10 91 -55l-15 -14q-37 42 -81 51l-125 -492q9 -2 28 -2q47 0 91 35l12 -16q-51 -38 -106 -38q-15 0 -29 3l-25 -92h-19l25 96q-45 16 -70.5 62t-25.5 118q0 82 26.5 163.5t75.5 130.5q53 53 120 53h9zM81 272q0 -132 80 -161l124 488h-4
q-57 0 -103 -46t-71.5 -124.5t-25.5 -156.5z" />
    <glyph glyph-name="sterling" unicode="&#xa3;" horiz-adv-x="401" 
d="M-11 0l2 12l64 8l68 310h-66l4 19h66l39 180q21 98 60 137q42 42 102 42q82 0 127 -78l-18 -11q-40 69 -110 69q-50 0 -84 -34q-36 -36 -57 -135l-37 -170h187l-5 -19h-186l-68 -310h244l-4 -20h-328z" />
    <glyph glyph-name="yen" unicode="&#xa5;" horiz-adv-x="453" 
d="M159 0l30 141h-135l4 18h135l28 127h-135l4 18h132l-101 396h22l96 -382l259 382h25l-272 -396h129l-4 -18h-134l-28 -127h134l-4 -18h-134l-30 -141h-21z" />
    <glyph glyph-name="section" unicode="&#xa7;" horiz-adv-x="432" 
d="M410 336q0 -52 -37.5 -82t-98.5 -30q-32 0 -59 6q52 -36 71.5 -64.5t19.5 -60.5q0 -47 -34.5 -80t-91.5 -33q-78 0 -139 56l14 16q56 -53 126 -53q46 0 74.5 26t28.5 67q0 36 -26.5 66t-86.5 65q-107 62 -107 129q0 52 37.5 82t98.5 30q31 0 58 -6q-52 35 -71 63.5
t-19 61.5q0 47 34.5 80t91.5 33q78 0 139 -56l-14 -16q-56 53 -126 53q-46 0 -74.5 -26t-28.5 -67q0 -36 26.5 -66t86.5 -65q107 -62 107 -129zM86 365q0 -65 88 -104q43 -20 99 -20q50 0 82.5 24t32.5 70q0 65 -88 104q-43 20 -99 20q-50 0 -82.5 -24t-32.5 -70z" />
    <glyph glyph-name="dieresis" unicode="&#xa8;" horiz-adv-x="508" 
d="M268 593l9 40h28l-9 -40h-28zM359 593l9 40h28l-9 -40h-28z" />
    <glyph glyph-name="copyright" unicode="&#xa9;" horiz-adv-x="619" 
d="M309 155q-44 0 -70.5 34t-26.5 97q0 59 21 123t57 100q38 38 83 38q53 0 82 -47l-15 -10q-28 39 -68 39q-35 0 -66 -31q-34 -34 -54 -93.5t-20 -118.5q0 -54 21.5 -83.5t58.5 -29.5q35 0 71 34l11 -14q-41 -38 -85 -38zM611 432q0 -97 -34 -196t-97 -162
q-85 -85 -194 -85q-113 0 -175.5 78.5t-62.5 200.5q0 97 33.5 196t96.5 162q85 85 195 85q113 0 175.5 -78.5t62.5 -200.5zM65 265q0 -109 57.5 -184.5t164.5 -75.5q100 0 179 79q63 63 95.5 161t32.5 190q0 109 -57.5 184.5t-164.5 75.5q-101 0 -180 -79
q-62 -62 -94.5 -160t-32.5 -191z" />
    <glyph glyph-name="ordfeminine" unicode="&#xaa;" horiz-adv-x="289" 
d="M166 406q-27 0 -44.5 18.5t-17.5 53.5q0 43 25.5 75t68.5 32q35 0 73 -18l3 14q6 30 6 52q0 23 -15.5 37t-42.5 14q-31 0 -57 -13l-5 16q30 14 64 14q35 0 54.5 -18.5t19.5 -51.5q0 -16 -5 -43l-38 -176h-18l10 47q-31 -53 -81 -53zM169 422q31 0 56 26.5t34 64.5l8 39
q-38 18 -69 18q-36 0 -56 -28t-20 -64q0 -27 12.5 -41.5t34.5 -14.5zM67 330l3 15h177l-3 -15h-177z" />
    <glyph glyph-name="guillemotleft" unicode="&#xab;" horiz-adv-x="359" 
d="M116 46l-88 207l1 4l177 207l14 -12l-169 -200l81 -198zM251 46l-87 207l1 4l176 207l14 -12l-169 -200l82 -198z" />
    <glyph glyph-name="registered" unicode="&#xae;" horiz-adv-x="346" 
d="M256 715q57 0 88.5 -38.5t31.5 -98.5q0 -49 -17.5 -98t-49.5 -81q-44 -42 -99 -42q-56 0 -87.5 38.5t-31.5 97.5q0 49 17.5 98t49.5 81q41 43 98 43zM211 368q50 0 88 38q32 32 48.5 79.5t16.5 93.5q0 52 -28 88t-81 36q-50 0 -88 -38q-32 -32 -48.5 -79.5t-16.5 -93.5
q0 -52 28 -88t81 -36zM199 520l-16 -74h-14l40 186h34q26 0 41.5 -12.5t15.5 -37.5q0 -47 -49 -60l23 -76h-14l-23 75q-7 -1 -38 -1zM202 532h22q34 0 50 16q12 13 12 34q0 38 -46 38h-20z" />
    <glyph glyph-name="macron" unicode="&#xaf;" horiz-adv-x="508" 
d="M236 596l4 19h185l-4 -19h-185z" />
    <glyph glyph-name="degree" unicode="&#xb0;" horiz-adv-x="300" 
d="M228 707q39 0 63.5 -29t24.5 -81q0 -44 -15 -87.5t-42 -70.5q-35 -33 -75 -33q-39 0 -64 29t-25 81q0 44 15 87t43 71q31 33 75 33zM184 424q34 0 61 27q24 24 38 64t14 81q0 43 -19 68t-51 25t-61 -27q-23 -24 -37 -64.5t-14 -80.5q0 -43 18.5 -68t50.5 -25z" />
    <glyph glyph-name="plusminus" unicode="&#xb1;" horiz-adv-x="420" 
d="M186 192l35 160h-154l4 19h154l36 159h20l-36 -159h155l-4 -19h-155l-35 -160h-20zM6 75l4 18h327l-3 -18h-328z" />
    <glyph glyph-name="acute" unicode="&#xb4;" horiz-adv-x="508" 
d="M269 581l97 117l23 -12l-107 -105h-13z" />
    <glyph glyph-name="paragraph" unicode="&#xb6;" horiz-adv-x="359" 
d="M206 0l58 264q-88 0 -140 50q-46 46 -46 127q0 114 71 185q74 74 198 74h34l-153 -700h-22z" />
    <glyph glyph-name="periodcentered" unicode="&#xb7;" horiz-adv-x="122" 
d="M46 258l12 51h30l-11 -51h-31z" />
    <glyph glyph-name="cedilla" unicode="&#xb8;" horiz-adv-x="508" 
d="M141 -114l-21 10l91 113h13z" />
    <glyph glyph-name="ordmasculine" unicode="&#xba;" horiz-adv-x="293" 
d="M68 330l3 15h189l-3 -15h-189zM127 513q0 -41 17 -65.5t47 -24.5t54 24q23 23 36.5 64.5t13.5 85.5q0 41 -17 65.5t-46 24.5q-32 0 -54 -24q-24 -24 -37.5 -65t-13.5 -85zM314 597q0 -45 -14.5 -89.5t-40.5 -70.5q-31 -31 -69 -31q-36 0 -58.5 28.5t-22.5 78.5
q0 45 14.5 89.5t40.5 70.5q31 31 69 31q36 0 58.5 -29t22.5 -78z" />
    <glyph glyph-name="guillemotright" unicode="&#xbb;" horiz-adv-x="359" 
d="M232 464l88 -207l-1 -4l-177 -207l-14 12l169 200l-81 198zM97 464l87 -207l-1 -4l-176 -207l-14 12l169 200l-82 198z" />
    <glyph glyph-name="questiondown" unicode="&#xbf;" horiz-adv-x="361" 
d="M262 517l-30 -168l-4 -5q-89 -21 -143.5 -71.5t-54.5 -126.5q0 -63 37.5 -97t94.5 -34q64 0 126 48l12 -17q-68 -52 -139 -52q-68 0 -110.5 42t-42.5 109q0 80 54.5 134.5t148.5 80.5l41 157h10zM310 700l-11 -51h-31l11 51h31z" />
    <glyph glyph-name="Agrave" unicode="&#xc0;" horiz-adv-x="511" 
d="M-20 0l364 705h21l57 -705h-22l-16 211h-272l-108 -211h-24zM122 231h260l-34 437zM349 753l-71 87l22 12l61 -99h-12z" />
    <glyph glyph-name="Aacute" unicode="&#xc1;" horiz-adv-x="511" 
d="M-20 0l364 705h21l57 -705h-22l-16 211h-272l-108 -211h-24zM122 231h260l-34 437zM352 753l95 99l22 -12l-103 -87h-14z" />
    <glyph glyph-name="Acircumflex" unicode="&#xc2;" horiz-adv-x="511" 
d="M-20 0l364 705h21l57 -705h-22l-16 211h-272l-108 -211h-24zM122 231h260l-34 437zM272 754l102 97h16l59 -97h-15l-56 75l-88 -75h-18z" />
    <glyph glyph-name="Atilde" unicode="&#xc3;" horiz-adv-x="511" 
d="M-20 0l364 705h21l57 -705h-22l-16 211h-272l-108 -211h-24zM122 231h260l-34 437zM272 761l-14 4q26 62 66 62q19 0 52 -24q30 -22 43 -22q25 0 49 48l15 -4q-28 -63 -66 -63q-20 0 -52 25q-32 22 -43 22q-25 0 -50 -48z" />
    <glyph glyph-name="Adieresis" unicode="&#xc4;" horiz-adv-x="511" 
d="M-20 0l364 705h21l57 -705h-22l-16 211h-272l-108 -211h-24zM122 231h260l-34 437zM302 766l9 41h30l-9 -41h-30zM399 766l9 41h30l-9 -41h-30z" />
    <glyph glyph-name="Aring" unicode="&#xc5;" horiz-adv-x="511" 
d="M-20 0l349 677q-47 14 -47 64q0 33 26 56.5t62 23.5q34 0 54.5 -19.5t20.5 -47.5q0 -32 -22.5 -54.5t-54.5 -26.5l54 -673h-22l-16 211h-272l-107 -211h-25zM123 231h259l-34 435zM358 687q29 0 49.5 19t20.5 47q0 24 -16 39t-43 15q-29 0 -50 -19t-21 -46
q0 -24 16.5 -39.5t43.5 -15.5z" />
    <glyph glyph-name="AE" unicode="&#xc6;" horiz-adv-x="663" 
d="M-47 0l432 700h329l-5 -20h-281l-68 -317h255l-5 -20h-255l-70 -323h284l-5 -20h-305l45 211h-197l-129 -211h-25zM120 231h189l97 448h-11z" />
    <glyph glyph-name="Ccedilla" unicode="&#xc7;" horiz-adv-x="451" 
d="M145 -114l-21 10l79 99q-65 13 -103.5 74t-38.5 163q0 109 37 222.5t107 183.5q71 71 151 71q84 0 139 -74l-17 -14q-46 68 -122 68q-71 0 -134 -63q-65 -65 -102 -174.5t-37 -220.5q0 -104 43.5 -162t113.5 -58q58 0 122 47l11 -17q-67 -50 -134 -50q-8 0 -22 2z" />
    <glyph glyph-name="Egrave" unicode="&#xc8;" 
d="M315 748l-71 87l22 12l61 -99h-12zM19 0l152 700h308l-5 -20h-285l-69 -317h260l-5 -20h-259l-71 -323h289l-5 -20h-310z" />
    <glyph glyph-name="Eacute" unicode="&#xc9;" 
d="M318 748l95 99l22 -12l-103 -87h-14zM19 0l152 700h308l-5 -20h-285l-69 -317h260l-5 -20h-259l-71 -323h289l-5 -20h-310z" />
    <glyph glyph-name="Ecircumflex" unicode="&#xca;" 
d="M19 0l152 700h308l-5 -20h-285l-69 -317h260l-5 -20h-259l-71 -323h289l-5 -20h-310zM238 751l102 97h16l59 -97h-15l-56 75l-88 -75h-18z" />
    <glyph glyph-name="Edieresis" unicode="&#xcb;" 
d="M269 761l9 41h30l-9 -41h-30zM366 761l9 41h30l-9 -41h-30zM19 0l152 700h308l-5 -20h-285l-69 -317h260l-5 -20h-259l-71 -323h289l-5 -20h-310z" />
    <glyph glyph-name="Igrave" unicode="&#xcc;" horiz-adv-x="183" 
d="M25 0l152 700h22l-152 -700h-22zM185 748l-71 87l22 12l61 -99h-12z" />
    <glyph glyph-name="Iacute" unicode="&#xcd;" horiz-adv-x="183" 
d="M25 0l152 700h22l-152 -700h-22zM189 748l95 99l22 -12l-103 -87h-14z" />
    <glyph glyph-name="Icircumflex" unicode="&#xce;" horiz-adv-x="183" 
d="M25 0l152 700h22l-152 -700h-22zM108 751l102 97h16l59 -97h-15l-56 75l-88 -75h-18z" />
    <glyph glyph-name="Idieresis" unicode="&#xcf;" horiz-adv-x="183" 
d="M25 0l152 700h22l-152 -700h-22zM139 761l9 41h30l-9 -41h-30zM236 761l9 41h30l-9 -41h-30z" />
    <glyph glyph-name="Eth" unicode="&#xd0;" horiz-adv-x="514" 
d="M44 343l4 19h54l74 338h80q111 0 171 -60q64 -64 64 -191q0 -89 -33.5 -191t-96.5 -165q-93 -93 -232 -93h-105l74 343h-54zM411 625q-54 55 -155 55h-62l-70 -318h150l-4 -19h-150l-70 -323h80q129 0 215 86q59 59 91.5 158t32.5 185q0 118 -58 176z" />
    <glyph glyph-name="Ntilde" unicode="&#xd1;" horiz-adv-x="532" 
d="M278 751l-14 4q26 62 66 62q19 0 52 -24q30 -22 43 -22q25 0 49 48l15 -4q-28 -63 -66 -63q-20 0 -52 25q-32 22 -43 22q-25 0 -50 -48zM19 0l152 700h21l198 -652l142 652h21l-152 -700h-19l-199 659l-143 -659h-21z" />
    <glyph glyph-name="Ograve" unicode="&#xd2;" horiz-adv-x="541" 
d="M363 753l-71 87l22 12l61 -99h-12zM348 709q81 0 127.5 -64t46.5 -185q0 -108 -38 -221.5t-106 -181.5q-66 -66 -144 -66q-81 0 -127.5 64t-46.5 185q0 108 38 221.5t106 181.5q66 66 144 66zM235 11q68 0 128 60q64 64 100.5 175t36.5 214q0 111 -41 170t-112 59
q-68 0 -128 -60q-64 -64 -100.5 -175t-36.5 -214q0 -111 41 -170t112 -59z" />
    <glyph glyph-name="Oacute" unicode="&#xd3;" horiz-adv-x="541" 
d="M365 753l95 99l22 -12l-103 -87h-14zM348 709q81 0 127.5 -64t46.5 -185q0 -108 -38 -221.5t-106 -181.5q-66 -66 -144 -66q-81 0 -127.5 64t-46.5 185q0 108 38 221.5t106 181.5q66 66 144 66zM235 11q68 0 128 60q64 64 100.5 175t36.5 214q0 111 -41 170t-112 59
q-68 0 -128 -60q-64 -64 -100.5 -175t-36.5 -214q0 -111 41 -170t112 -59z" />
    <glyph glyph-name="Ocircumflex" unicode="&#xd4;" horiz-adv-x="541" 
d="M348 709q81 0 127.5 -64t46.5 -185q0 -108 -38 -221.5t-106 -181.5q-66 -66 -144 -66q-81 0 -127.5 64t-46.5 185q0 108 38 221.5t106 181.5q66 66 144 66zM235 11q68 0 128 60q64 64 100.5 175t36.5 214q0 111 -41 170t-112 59q-68 0 -128 -60q-64 -64 -100.5 -175
t-36.5 -214q0 -111 41 -170t112 -59zM285 756l102 97h16l59 -97h-15l-56 75l-88 -75h-18z" />
    <glyph glyph-name="Otilde" unicode="&#xd5;" horiz-adv-x="541" 
d="M286 761l-14 4q26 62 66 62q19 0 52 -24q30 -22 43 -22q25 0 49 48l15 -4q-28 -63 -66 -63q-20 0 -52 25q-32 22 -43 22q-25 0 -50 -48zM348 709q81 0 127.5 -64t46.5 -185q0 -108 -38 -221.5t-106 -181.5q-66 -66 -144 -66q-81 0 -127.5 64t-46.5 185q0 108 38 221.5
t106 181.5q66 66 144 66zM235 11q68 0 128 60q64 64 100.5 175t36.5 214q0 111 -41 170t-112 59q-68 0 -128 -60q-64 -64 -100.5 -175t-36.5 -214q0 -111 41 -170t112 -59z" />
    <glyph glyph-name="Odieresis" unicode="&#xd6;" horiz-adv-x="541" 
d="M315 766l9 41h30l-9 -41h-30zM412 766l9 41h30l-9 -41h-30zM348 709q81 0 127.5 -64t46.5 -185q0 -108 -38 -221.5t-106 -181.5q-66 -66 -144 -66q-81 0 -127.5 64t-46.5 185q0 108 38 221.5t106 181.5q66 66 144 66zM235 11q68 0 128 60q64 64 100.5 175t36.5 214
q0 111 -41 170t-112 59q-68 0 -128 -60q-64 -64 -100.5 -175t-36.5 -214q0 -111 41 -170t112 -59z" />
    <glyph glyph-name="multiply" unicode="&#xd7;" horiz-adv-x="418" 
d="M68 203l-13 15l158 135l-96 135l16 12l95 -134l157 135l13 -15l-158 -136l96 -134l-17 -13l-94 134z" />
    <glyph glyph-name="Oslash" unicode="&#xd8;" horiz-adv-x="541" 
d="M348 709q95 0 141 -88l70 86h22l-83 -106q24 -61 24 -141q0 -107 -39 -223t-103 -179q-67 -67 -147 -67q-94 0 -140 87l-70 -85h-23l83 105q-23 58 -23 142q0 106 39 222.5t102 179.5q67 67 147 67zM82 240q0 -71 18 -122l374 483q-40 88 -127 88q-70 0 -130 -60
q-61 -60 -98 -174t-37 -215zM234 11q71 0 131 60t97.5 174.5t37.5 214.5q0 65 -18 121l-374 -483q40 -87 126 -87z" />
    <glyph glyph-name="Ugrave" unicode="&#xd9;" horiz-adv-x="514" 
d="M345 743l-71 87l22 12l61 -99h-12zM217 -8q-72 0 -118 41t-46 117q0 39 14 105l98 445h22l-98 -447q-14 -64 -14 -102q0 -68 40 -103.5t105 -35.5q72 0 122 50t72 153l105 485h22l-107 -491q-24 -108 -77 -161q-56 -56 -140 -56z" />
    <glyph glyph-name="Uacute" unicode="&#xda;" horiz-adv-x="514" 
d="M348 743l95 99l22 -12l-103 -87h-14zM217 -8q-72 0 -118 41t-46 117q0 39 14 105l98 445h22l-98 -447q-14 -64 -14 -102q0 -68 40 -103.5t105 -35.5q72 0 122 50t72 153l105 485h22l-107 -491q-24 -108 -77 -161q-56 -56 -140 -56z" />
    <glyph glyph-name="Ucircumflex" unicode="&#xdb;" horiz-adv-x="514" 
d="M217 -8q-72 0 -118 41t-46 117q0 39 14 105l98 445h22l-98 -447q-14 -64 -14 -102q0 -68 40 -103.5t105 -35.5q72 0 122 50t72 153l105 485h22l-107 -491q-24 -108 -77 -161q-56 -56 -140 -56zM268 746l102 97h16l59 -97h-15l-56 75l-88 -75h-18z" />
    <glyph glyph-name="Udieresis" unicode="&#xdc;" horiz-adv-x="514" 
d="M298 756l9 41h30l-9 -41h-30zM395 756l9 41h30l-9 -41h-30zM217 -8q-72 0 -118 41t-46 117q0 39 14 105l98 445h22l-98 -447q-14 -64 -14 -102q0 -68 40 -103.5t105 -35.5q72 0 122 50t72 153l105 485h22l-107 -491q-24 -108 -77 -161q-56 -56 -140 -56z" />
    <glyph glyph-name="Yacute" unicode="&#xdd;" horiz-adv-x="442" 
d="M152 0l65 300l-104 400h22l97 -379l263 379h25l-281 -402l-65 -298h-22zM308 743l95 99l22 -12l-103 -87h-14z" />
    <glyph glyph-name="Thorn" unicode="&#xde;" horiz-adv-x="452" 
d="M19 0l152 700h21l-28 -126h80q103 0 153 -50q43 -43 43 -123q0 -108 -70 -178q-79 -79 -209 -79h-90l-31 -144h-21zM75 164h87q120 0 190 70q66 66 66 168q0 70 -38 108q-43 44 -137 44h-83z" />
    <glyph glyph-name="germandbls" unicode="&#xdf;" horiz-adv-x="408" 
d="M122 -2l3 19q99 -2 154.5 49t55.5 134q0 120 -137 156l4 16q88 17 138 70.5t50 136.5q0 53 -27 84.5t-74 31.5q-106 0 -141 -162l-116 -533h-21l117 537q21 94 64 136q39 41 97 41q57 0 90 -36.5t33 -98.5q0 -77 -47 -137t-130 -80q52 -17 87 -56t35 -106q0 -90 -63 -148
t-172 -54z" />
    <glyph glyph-name="agrave" unicode="&#xe0;" horiz-adv-x="397" 
d="M129 -8q-51 0 -84.5 34t-33.5 95q0 93 57 150q45 45 117 45q65 0 135 -32l8 36q11 57 11 83q0 46 -30 72.5t-83 26.5t-100 -22l-7 19q56 23 109 23q60 0 96 -31.5t36 -88.5q0 -34 -11 -80l-70 -322h-21l20 96q-56 -104 -149 -104zM131 12q58 0 104.5 50.5t62.5 123.5
l17 77q-61 33 -130 33q-63 0 -101 -38q-51 -51 -51 -137q0 -52 27.5 -80.5t70.5 -28.5zM250 584l-73 105l22 12l62 -117h-11z" />
    <glyph glyph-name="aacute" unicode="&#xe1;" horiz-adv-x="397" 
d="M129 -8q-51 0 -84.5 34t-33.5 95q0 93 57 150q45 45 117 45q65 0 135 -32l8 36q11 57 11 83q0 46 -30 72.5t-83 26.5t-100 -22l-7 19q56 23 109 23q60 0 96 -31.5t36 -88.5q0 -34 -11 -80l-70 -322h-21l20 96q-56 -104 -149 -104zM131 12q58 0 104.5 50.5t62.5 123.5
l17 77q-61 33 -130 33q-63 0 -101 -38q-51 -51 -51 -137q0 -52 27.5 -80.5t70.5 -28.5zM248 584l97 117l23 -12l-107 -105h-13z" />
    <glyph glyph-name="acircumflex" unicode="&#xe2;" horiz-adv-x="397" 
d="M129 -8q-51 0 -84.5 34t-33.5 95q0 93 57 150q45 45 117 45q65 0 135 -32l8 36q11 57 11 83q0 46 -30 72.5t-83 26.5t-100 -22l-7 19q56 23 109 23q60 0 96 -31.5t36 -88.5q0 -34 -11 -80l-70 -322h-21l20 96q-56 -104 -149 -104zM131 12q58 0 104.5 50.5t62.5 123.5
l17 77q-61 33 -130 33q-63 0 -101 -38q-51 -51 -51 -137q0 -52 27.5 -80.5t70.5 -28.5zM174 588l104 119h14l53 -119h-15l-49 95l-90 -95h-17z" />
    <glyph glyph-name="atilde" unicode="&#xe3;" horiz-adv-x="397" 
d="M129 -8q-51 0 -84.5 34t-33.5 95q0 93 57 150q45 45 117 45q65 0 135 -32l8 36q11 57 11 83q0 46 -30 72.5t-83 26.5t-100 -22l-7 19q56 23 109 23q60 0 96 -31.5t36 -88.5q0 -34 -11 -80l-70 -322h-21l20 96q-56 -104 -149 -104zM131 12q58 0 104.5 50.5t62.5 123.5
l17 77q-61 33 -130 33q-63 0 -101 -38q-51 -51 -51 -137q0 -52 27.5 -80.5t70.5 -28.5zM364 669l15 -4q-26 -70 -66 -70q-18 0 -46 26q-27 27 -40 27q-27 0 -49 -55l-15 4q26 70 66 70q18 0 48 -30q24 -24 38 -24q27 0 49 56z" />
    <glyph glyph-name="adieresis" unicode="&#xe4;" horiz-adv-x="397" 
d="M129 -8q-51 0 -84.5 34t-33.5 95q0 93 57 150q45 45 117 45q65 0 135 -32l8 36q11 57 11 83q0 46 -30 72.5t-83 26.5t-100 -22l-7 19q56 23 109 23q60 0 96 -31.5t36 -88.5q0 -34 -11 -80l-70 -322h-21l20 96q-56 -104 -149 -104zM131 12q58 0 104.5 50.5t62.5 123.5
l17 77q-61 33 -130 33q-63 0 -101 -38q-51 -51 -51 -137q0 -52 27.5 -80.5t70.5 -28.5zM204 596l9 40h28l-9 -40h-28zM295 596l9 40h28l-9 -40h-28z" />
    <glyph glyph-name="aring" unicode="&#xe5;" horiz-adv-x="397" 
d="M129 -8q-51 0 -84.5 34t-33.5 95q0 93 57 150q45 45 117 45q65 0 135 -32l8 36q11 57 11 83q0 46 -30 72.5t-83 26.5t-100 -22l-7 19q56 23 109 23q60 0 96 -31.5t36 -88.5q0 -34 -11 -80l-70 -322h-21l20 96q-56 -104 -149 -104zM131 12q58 0 104.5 50.5t62.5 123.5
l17 77q-61 33 -130 33q-63 0 -101 -38q-51 -51 -51 -137q0 -52 27.5 -80.5t70.5 -28.5zM355 674q0 -35 -24.5 -59t-57.5 -24q-32 0 -51.5 20t-19.5 51q0 34 24.5 58t57.5 24q31 0 51 -20t20 -50zM217 663q0 -26 15.5 -42t40.5 -16q28 0 47.5 20t19.5 48q0 25 -15.5 41
t-41.5 16q-27 0 -46.5 -20t-19.5 -47z" />
    <glyph glyph-name="ae" unicode="&#xe6;" horiz-adv-x="675" 
d="M462 -8q-59 0 -98 34t-52 100q-38 -65 -80.5 -99.5t-101.5 -34.5q-52 0 -85.5 35.5t-33.5 98.5q0 88 57 145q45 45 119 45q63 0 133 -32l8 36q11 57 11 83q0 46 -30 72.5t-83 26.5t-100 -22l-7 19q56 23 109 23q63 0 100 -34.5t32 -95.5q28 56 72 94t96 38q58 0 88 -44
t30 -121q0 -49 -16 -108h-297q-5 -37 -5 -66q0 -83 36 -128t99 -45q55 0 108 37l10 -18q-59 -39 -119 -39zM132 12q107 0 176 149q-3 46 7 102q-62 33 -130 33q-63 0 -101 -38q-51 -51 -51 -132q0 -53 27.5 -83.5t71.5 -30.5zM430 459q-66 -66 -93 -188h276q11 47 11 87
q0 67 -24 106.5t-72 39.5q-53 0 -98 -45z" />
    <glyph glyph-name="ccedilla" unicode="&#xe7;" horiz-adv-x="351" 
d="M82 -114l-21 10l80 100q-51 12 -80.5 60t-29.5 126q0 80 28.5 158.5t76.5 126.5q57 57 123 57q68 0 111 -61l-16 -13q-41 53 -98 53q-54 0 -101 -47q-46 -46 -73.5 -122t-27.5 -152q0 -81 33.5 -125t87.5 -44q48 0 93 35l12 -16q-48 -40 -107 -40q-13 0 -19 1z" />
    <glyph glyph-name="egrave" unicode="&#xe8;" horiz-adv-x="404" 
d="M359 251h-299q-5 -37 -5 -66q0 -83 36 -128t99 -45q55 0 108 37l10 -18q-59 -39 -119 -39q-72 0 -113.5 49.5t-41.5 142.5q0 80 29.5 159t78.5 128q53 53 114 53q59 0 89 -44t30 -121q0 -51 -16 -108zM158 459q-68 -68 -94 -188h278q11 47 11 87q0 67 -24 106.5t-73 39.5
q-53 0 -98 -45zM262 584l-73 105l22 12l62 -117h-11z" />
    <glyph glyph-name="eacute" unicode="&#xe9;" horiz-adv-x="404" 
d="M359 251h-299q-5 -37 -5 -66q0 -83 36 -128t99 -45q55 0 108 37l10 -18q-59 -39 -119 -39q-72 0 -113.5 49.5t-41.5 142.5q0 80 29.5 159t78.5 128q53 53 114 53q59 0 89 -44t30 -121q0 -51 -16 -108zM158 459q-68 -68 -94 -188h278q11 47 11 87q0 67 -24 106.5t-73 39.5
q-53 0 -98 -45zM261 584l97 117l23 -12l-107 -105h-13z" />
    <glyph glyph-name="ecircumflex" unicode="&#xea;" horiz-adv-x="404" 
d="M359 251h-299q-5 -37 -5 -66q0 -83 36 -128t99 -45q55 0 108 37l10 -18q-59 -39 -119 -39q-72 0 -113.5 49.5t-41.5 142.5q0 80 29.5 159t78.5 128q53 53 114 53q59 0 89 -44t30 -121q0 -51 -16 -108zM158 459q-68 -68 -94 -188h278q11 47 11 87q0 67 -24 106.5t-73 39.5
q-53 0 -98 -45zM186 588l104 119h14l53 -119h-15l-49 95l-90 -95h-17z" />
    <glyph glyph-name="edieresis" unicode="&#xeb;" horiz-adv-x="404" 
d="M359 251h-299q-5 -37 -5 -66q0 -83 36 -128t99 -45q55 0 108 37l10 -18q-59 -39 -119 -39q-72 0 -113.5 49.5t-41.5 142.5q0 80 29.5 159t78.5 128q53 53 114 53q59 0 89 -44t30 -121q0 -51 -16 -108zM158 459q-68 -68 -94 -188h278q11 47 11 87q0 67 -24 106.5t-73 39.5
q-53 0 -98 -45zM308 596l9 40h28l-9 -40h-28zM217 596l9 40h28l-9 -40h-28z" />
    <glyph glyph-name="igrave" unicode="&#xec;" horiz-adv-x="164" 
d="M17 0l109 516h21l-109 -516h-21zM142 581l-73 105l22 12l62 -117h-11z" />
    <glyph glyph-name="iacute" unicode="&#xed;" horiz-adv-x="164" 
d="M141 581l97 117l23 -12l-107 -105h-13zM17 0l109 516h21l-109 -516h-21z" />
    <glyph glyph-name="icircumflex" unicode="&#xee;" horiz-adv-x="164" 
d="M66 585l104 119h14l53 -119h-15l-49 95l-90 -95h-17zM17 0l109 516h21l-109 -516h-21z" />
    <glyph glyph-name="idieresis" unicode="&#xef;" horiz-adv-x="164" 
d="M97 593l9 40h28l-9 -40h-28zM188 593l9 40h28l-9 -40h-28zM17 0l109 516h21l-109 -516h-21z" />
    <glyph glyph-name="eth" unicode="&#xf0;" horiz-adv-x="422" 
d="M194 583l-7 17l108 48q-30 49 -42 65h25q24 -35 36 -57l84 38l6 -16l-82 -37q73 -134 73 -271q0 -103 -30 -188.5t-84 -139.5q-50 -50 -112 -50q-63 0 -98.5 48.5t-35.5 134.5q0 87 29 169.5t80 133.5q50 50 111 50q81 0 119 -94q-18 102 -70 198zM170 12q53 0 97 44
q47 47 75.5 126.5t28.5 159.5q0 74 -32.5 120t-84.5 46t-96 -44q-46 -47 -74 -126.5t-28 -161.5q0 -76 30 -120t84 -44z" />
    <glyph glyph-name="ntilde" unicode="&#xf1;" 
d="M11 0l112 516h21l-22 -101q22 46 62 77.5t93 31.5q49 0 81.5 -29.5t32.5 -89.5q0 -34 -17 -113l-63 -292h-21l63 290q17 74 17 115q0 99 -97 99q-59 0 -105.5 -48.5t-64.5 -130.5l-71 -325h-21zM381 669l15 -4q-26 -70 -66 -70q-18 0 -46 26q-27 27 -40 27q-27 0 -49 -55
l-15 4q26 70 66 70q18 0 48 -30q24 -24 38 -24q27 0 49 56z" />
    <glyph glyph-name="ograve" unicode="&#xf2;" horiz-adv-x="430" 
d="M259 524q64 0 101 -49t37 -133t-28.5 -164.5t-79.5 -131.5q-54 -54 -118 -54t-101 49t-37 133t28.5 164.5t79.5 131.5q54 54 118 54zM172 12q53 0 101 48q47 47 74.5 124t27.5 157q0 74 -30.5 118.5t-86.5 44.5q-53 0 -101 -48q-47 -47 -74.5 -124t-27.5 -157
q0 -74 30.5 -118.5t86.5 -44.5zM275 584l-73 105l22 12l62 -117h-11z" />
    <glyph glyph-name="oacute" unicode="&#xf3;" horiz-adv-x="430" 
d="M273 584l97 117l23 -12l-107 -105h-13zM259 524q64 0 101 -49t37 -133t-28.5 -164.5t-79.5 -131.5q-54 -54 -118 -54t-101 49t-37 133t28.5 164.5t79.5 131.5q54 54 118 54zM172 12q53 0 101 48q47 47 74.5 124t27.5 157q0 74 -30.5 118.5t-86.5 44.5q-53 0 -101 -48
q-47 -47 -74.5 -124t-27.5 -157q0 -74 30.5 -118.5t86.5 -44.5z" />
    <glyph glyph-name="ocircumflex" unicode="&#xf4;" horiz-adv-x="430" 
d="M199 588l104 119h14l53 -119h-15l-49 95l-90 -95h-17zM259 524q64 0 101 -49t37 -133t-28.5 -164.5t-79.5 -131.5q-54 -54 -118 -54t-101 49t-37 133t28.5 164.5t79.5 131.5q54 54 118 54zM172 12q53 0 101 48q47 47 74.5 124t27.5 157q0 74 -30.5 118.5t-86.5 44.5
q-53 0 -101 -48q-47 -47 -74.5 -124t-27.5 -157q0 -74 30.5 -118.5t86.5 -44.5z" />
    <glyph glyph-name="otilde" unicode="&#xf5;" horiz-adv-x="430" 
d="M259 524q64 0 101 -49t37 -133t-28.5 -164.5t-79.5 -131.5q-54 -54 -118 -54t-101 49t-37 133t28.5 164.5t79.5 131.5q54 54 118 54zM172 12q53 0 101 48q47 47 74.5 124t27.5 157q0 74 -30.5 118.5t-86.5 44.5q-53 0 -101 -48q-47 -47 -74.5 -124t-27.5 -157
q0 -74 30.5 -118.5t86.5 -44.5zM388 669l15 -4q-26 -70 -66 -70q-18 0 -46 26q-27 27 -40 27q-27 0 -49 -55l-15 4q26 70 66 70q18 0 48 -30q24 -24 38 -24q27 0 49 56z" />
    <glyph glyph-name="odieresis" unicode="&#xf6;" horiz-adv-x="430" 
d="M230 596l9 40h28l-9 -40h-28zM321 596l9 40h28l-9 -40h-28zM259 524q64 0 101 -49t37 -133t-28.5 -164.5t-79.5 -131.5q-54 -54 -118 -54t-101 49t-37 133t28.5 164.5t79.5 131.5q54 54 118 54zM172 12q53 0 101 48q47 47 74.5 124t27.5 157q0 74 -30.5 118.5t-86.5 44.5
q-53 0 -101 -48q-47 -47 -74.5 -124t-27.5 -157q0 -74 30.5 -118.5t86.5 -44.5z" />
    <glyph glyph-name="divide" unicode="&#xf7;" horiz-adv-x="420" 
d="M175 176l10 46h29l-10 -46h-29zM63 342l5 20h328l-5 -20h-328zM245 482l10 46h29l-10 -46h-29z" />
    <glyph glyph-name="oslash" unicode="&#xf8;" 
d="M259 524q72 0 108 -60l49 58h21l-60 -76q20 -43 20 -104q0 -84 -28.5 -164.5t-79.5 -131.5q-54 -54 -118 -54q-72 0 -109 59l-47 -57h-21l59 74q-20 45 -20 106q0 84 28.5 164.5t79.5 131.5q54 54 118 54zM258 504q-53 0 -101 -48q-47 -47 -74.5 -124t-27.5 -157
q0 -48 14 -87l284 356q-31 60 -95 60zM375 341q0 48 -14 85l-284 -356q30 -58 95 -58q53 0 101 48q47 47 74.5 124t27.5 157z" />
    <glyph glyph-name="ugrave" unicode="&#xf9;" 
d="M153 -8q-49 0 -81 29.5t-32 89.5q0 34 17 113l63 292h21l-63 -290q-17 -74 -17 -115q0 -99 96 -99q59 0 105.5 48.5t64.5 130.5l71 325h21l-112 -516h-21l22 101q-22 -46 -62 -77.5t-93 -31.5zM269 576l-73 105l22 12l62 -117h-11z" />
    <glyph glyph-name="uacute" unicode="&#xfa;" 
d="M267 576l97 117l23 -12l-107 -105h-13zM153 -8q-49 0 -81 29.5t-32 89.5q0 34 17 113l63 292h21l-63 -290q-17 -74 -17 -115q0 -99 96 -99q59 0 105.5 48.5t64.5 130.5l71 325h21l-112 -516h-21l22 101q-22 -46 -62 -77.5t-93 -31.5z" />
    <glyph glyph-name="ucircumflex" unicode="&#xfb;" 
d="M193 580l104 119h14l53 -119h-15l-49 95l-90 -95h-17zM153 -8q-49 0 -81 29.5t-32 89.5q0 34 17 113l63 292h21l-63 -290q-17 -74 -17 -115q0 -99 96 -99q59 0 105.5 48.5t64.5 130.5l71 325h21l-112 -516h-21l22 101q-22 -46 -62 -77.5t-93 -31.5z" />
    <glyph glyph-name="udieresis" unicode="&#xfc;" 
d="M222 588l9 40h28l-9 -40h-28zM313 588l9 40h28l-9 -40h-28zM153 -8q-49 0 -81 29.5t-32 89.5q0 34 17 113l63 292h21l-63 -290q-17 -74 -17 -115q0 -99 96 -99q59 0 105.5 48.5t64.5 130.5l71 325h21l-112 -516h-21l22 101q-22 -46 -62 -77.5t-93 -31.5z" />
    <glyph glyph-name="yacute" unicode="&#xfd;" horiz-adv-x="394" 
d="M133 12l-48 504h21l44 -474l245 474h23l-257 -494q-51 -98 -84 -131t-67 -33t-63 27l14 16q23 -23 50 -23t54 28.5t68 105.5zM244 576l97 117l23 -12l-107 -105h-13z" />
    <glyph glyph-name="thorn" unicode="&#xfe;" horiz-adv-x="446" 
d="M187 713l-70 -322q22 48 66.5 90.5t100.5 42.5q59 0 93.5 -49.5t34.5 -129.5q0 -84 -29 -167t-80 -134q-52 -52 -112 -52q-62 0 -93.5 46.5t-34.5 103.5l-61 -280h-21l185 851h21zM190 12q52 0 98 46t74 127t28 160q0 70 -29.5 114.5t-79.5 44.5q-52 0 -97 -45
q-48 -48 -78 -127t-30 -159q0 -65 29.5 -113t84.5 -48z" />
    <glyph glyph-name="ydieresis" unicode="&#xff;" horiz-adv-x="394" 
d="M133 12l-48 504h21l44 -474l245 474h23l-257 -494q-51 -98 -84 -131t-67 -33t-63 27l14 16q23 -23 50 -23t54 28.5t68 105.5zM200 588l9 40h28l-9 -40h-28zM291 588l9 40h28l-9 -40h-28z" />
    <glyph glyph-name="Amacron" unicode="&#x100;" horiz-adv-x="511" 
d="M-20 0l364 705h21l57 -705h-22l-16 211h-272l-108 -211h-24zM122 231h260l-34 437zM269 769l4 19h195l-5 -19h-194z" />
    <glyph glyph-name="amacron" unicode="&#x101;" horiz-adv-x="397" 
d="M129 -8q-51 0 -84.5 34t-33.5 95q0 93 57 150q45 45 117 45q65 0 135 -32l8 36q11 57 11 83q0 46 -30 72.5t-83 26.5t-100 -22l-7 19q56 23 109 23q60 0 96 -31.5t36 -88.5q0 -34 -11 -80l-70 -322h-21l20 96q-56 -104 -149 -104zM131 12q58 0 104.5 50.5t62.5 123.5
l17 77q-61 33 -130 33q-63 0 -101 -38q-51 -51 -51 -137q0 -52 27.5 -80.5t70.5 -28.5zM172 599l4 19h185l-4 -19h-185z" />
    <glyph glyph-name="Abreve" unicode="&#x102;" horiz-adv-x="511" 
d="M-20 0l364 705h21l57 -705h-22l-16 211h-272l-108 -211h-24zM122 231h260l-34 437zM364 755q-43 0 -67 21t-22 59h18q-1 -28 16.5 -45t54.5 -17q73 0 99 62h18q-29 -80 -117 -80z" />
    <glyph glyph-name="abreve" unicode="&#x103;" horiz-adv-x="397" 
d="M129 -8q-51 0 -84.5 34t-33.5 95q0 93 57 150q45 45 117 45q65 0 135 -32l8 36q11 57 11 83q0 46 -30 72.5t-83 26.5t-100 -22l-7 19q56 23 109 23q60 0 96 -31.5t36 -88.5q0 -34 -11 -80l-70 -322h-21l20 96q-56 -104 -149 -104zM131 12q58 0 104.5 50.5t62.5 123.5
l17 77q-61 33 -130 33q-63 0 -101 -38q-51 -51 -51 -137q0 -52 27.5 -80.5t70.5 -28.5zM261 586q-43 0 -65 26t-18 69h18q-3 -33 13 -55t53 -22q66 0 101 77h17q-36 -95 -119 -95z" />
    <glyph glyph-name="Aogonek" unicode="&#x104;" horiz-adv-x="511" 
d="M410 -106l-3 -15q-5 -1 -11 -1q-28 0 -43 12t-15 30q0 34 62 82l-16 209h-272l-108 -211h-24l364 705h21l57 -705h-7q-56 -49 -56 -76q0 -30 51 -30zM122 231h260l-34 437z" />
    <glyph glyph-name="aogonek" unicode="&#x105;" horiz-adv-x="397" 
d="M270 -106l-3 -15q-5 -1 -11 -1q-28 0 -43 12t-15 30q0 34 60 80l20 96q-56 -104 -149 -104q-51 0 -84.5 34t-33.5 95q0 93 57 150q45 45 117 45q65 0 135 -32l8 36q11 57 11 83q0 46 -30 72.5t-83 26.5t-100 -22l-7 19q56 23 109 23q60 0 96 -31.5t36 -88.5
q0 -34 -11 -80l-70 -322h-4q-56 -49 -56 -76q0 -30 51 -30zM131 12q58 0 104.5 50.5t62.5 123.5l17 77q-61 33 -130 33q-63 0 -101 -38q-51 -51 -51 -137q0 -52 27.5 -80.5t70.5 -28.5z" />
    <glyph glyph-name="Cacute" unicode="&#x106;" horiz-adv-x="451" 
d="M239 -9q-79 0 -128.5 63t-49.5 178q0 109 37 222.5t107 183.5q71 71 151 71q84 0 139 -74l-17 -14q-46 68 -122 68q-71 0 -134 -63q-65 -65 -102 -174.5t-37 -220.5q0 -104 43.5 -162t113.5 -58q58 0 122 47l11 -17q-67 -50 -134 -50zM358 753l95 99l22 -12l-103 -87h-14
z" />
    <glyph glyph-name="cacute" unicode="&#x107;" horiz-adv-x="351" 
d="M253 584l97 117l23 -12l-107 -105h-13zM173 -8q-64 0 -103 50t-39 140q0 80 28.5 158.5t76.5 126.5q57 57 123 57q68 0 111 -61l-16 -13q-41 53 -98 53q-54 0 -101 -47q-46 -46 -73.5 -122t-27.5 -152q0 -81 33.5 -125t87.5 -44q48 0 93 35l12 -16q-48 -40 -107 -40z" />
    <glyph glyph-name="Cdotaccent" unicode="&#x10a;" horiz-adv-x="451" 
d="M356 766l9 41h30l-9 -41h-30zM239 -9q-79 0 -128.5 63t-49.5 178q0 109 37 222.5t107 183.5q71 71 151 71q84 0 139 -74l-17 -14q-46 68 -122 68q-71 0 -134 -63q-65 -65 -102 -174.5t-37 -220.5q0 -104 43.5 -162t113.5 -58q58 0 122 47l11 -17q-67 -50 -134 -50z" />
    <glyph glyph-name="cdotaccent" unicode="&#x10b;" horiz-adv-x="351" 
d="M173 -8q-64 0 -103 50t-39 140q0 80 28.5 158.5t76.5 126.5q57 57 123 57q68 0 111 -61l-16 -13q-41 53 -98 53q-54 0 -101 -47q-46 -46 -73.5 -122t-27.5 -152q0 -81 33.5 -125t87.5 -44q48 0 93 35l12 -16q-48 -40 -107 -40zM254 596l9 40h29l-9 -40h-29z" />
    <glyph glyph-name="Ccaron" unicode="&#x10c;" horiz-adv-x="451" 
d="M239 -9q-79 0 -128.5 63t-49.5 178q0 109 37 222.5t107 183.5q71 71 151 71q84 0 139 -74l-17 -14q-46 68 -122 68q-71 0 -134 -63q-65 -65 -102 -174.5t-37 -220.5q0 -104 43.5 -162t113.5 -58q58 0 122 47l11 -17q-67 -50 -134 -50zM480 853l-102 -97h-16l-59 97h15
l56 -74l87 74h19z" />
    <glyph glyph-name="ccaron" unicode="&#x10d;" horiz-adv-x="351" 
d="M259 588l-52 119h14l49 -95l91 95h17l-105 -119h-14zM173 -8q-64 0 -103 50t-39 140q0 80 28.5 158.5t76.5 126.5q57 57 123 57q68 0 111 -61l-16 -13q-41 53 -98 53q-54 0 -101 -47q-46 -46 -73.5 -122t-27.5 -152q0 -81 33.5 -125t87.5 -44q48 0 93 35l12 -16
q-48 -40 -107 -40z" />
    <glyph glyph-name="Dcaron" unicode="&#x10e;" horiz-adv-x="509" 
d="M19 0l152 700h80q111 0 171 -60q64 -64 64 -191q0 -89 -33.5 -191t-96.5 -165q-93 -93 -232 -93h-105zM406 625q-54 55 -155 55h-62l-144 -660h80q129 0 215 86q59 59 91.5 158t32.5 185q0 118 -58 176zM438 848l-102 -97h-16l-59 97h15l56 -74l87 74h19z" />
    <glyph glyph-name="dcaron" unicode="&#x10f;" horiz-adv-x="445" 
d="M492 565l42 148h22v-2l-54 -146h-10zM300 0l27 125q-22 -48 -66.5 -90.5t-100.5 -42.5q-59 0 -93.5 49.5t-34.5 129.5q0 84 29 167t80 134q52 52 112 52q62 0 93.5 -46.5t34.5 -103.5l74 339h21l-155 -713h-21zM163 12q52 0 97 45q48 48 78 127t30 159q0 65 -29.5 113
t-84.5 48q-52 0 -98 -46t-74 -127t-28 -160q0 -70 29.5 -114.5t79.5 -44.5z" />
    <glyph glyph-name="Dcroat" unicode="&#x110;" horiz-adv-x="514" 
d="M44 343l4 19h54l74 338h80q111 0 171 -60q64 -64 64 -191q0 -89 -33.5 -191t-96.5 -165q-93 -93 -232 -93h-105l74 343h-54zM411 625q-54 55 -155 55h-62l-70 -318h150l-4 -19h-150l-70 -323h80q129 0 215 86q59 59 91.5 158t32.5 185q0 118 -58 176z" />
    <glyph glyph-name="dcroat" unicode="&#x111;" horiz-adv-x="445" 
d="M300 611l4 18h132l19 84h21l-19 -84h56l-4 -18h-56l-132 -611h-21l27 125q-22 -48 -66.5 -90.5t-100.5 -42.5q-59 0 -93.5 49.5t-34.5 129.5q0 84 29 167t80 134q52 52 112 52q62 0 93.5 -46.5t34.5 -103.5l51 237h-132zM163 12q52 0 97 45q48 48 78 127t30 159
q0 65 -29.5 113t-84.5 48q-52 0 -98 -46t-74 -127t-28 -160q0 -70 29.5 -114.5t79.5 -44.5z" />
    <glyph glyph-name="Emacron" unicode="&#x112;" 
d="M236 764l4 19h195l-5 -19h-194zM19 0l152 700h308l-5 -20h-285l-69 -317h260l-5 -20h-259l-71 -323h289l-5 -20h-310z" />
    <glyph glyph-name="emacron" unicode="&#x113;" horiz-adv-x="404" 
d="M359 251h-299q-5 -37 -5 -66q0 -83 36 -128t99 -45q55 0 108 37l10 -18q-59 -39 -119 -39q-72 0 -113.5 49.5t-41.5 142.5q0 80 29.5 159t78.5 128q53 53 114 53q59 0 89 -44t30 -121q0 -51 -16 -108zM158 459q-68 -68 -94 -188h278q11 47 11 87q0 67 -24 106.5t-73 39.5
q-53 0 -98 -45zM183 599l4 19h185l-4 -19h-185z" />
    <glyph glyph-name="Ebreve" unicode="&#x114;" 
d="M331 750q-43 0 -67 21t-22 59h18q-1 -28 16.5 -45t54.5 -17q73 0 99 62h18q-29 -80 -117 -80zM19 0l152 700h308l-5 -20h-285l-69 -317h260l-5 -20h-259l-71 -323h289l-5 -20h-310z" />
    <glyph glyph-name="ebreve" unicode="&#x115;" horiz-adv-x="404" 
d="M359 251h-299q-5 -37 -5 -66q0 -83 36 -128t99 -45q55 0 108 37l10 -18q-59 -39 -119 -39q-72 0 -113.5 49.5t-41.5 142.5q0 80 29.5 159t78.5 128q53 53 114 53q59 0 89 -44t30 -121q0 -51 -16 -108zM158 459q-68 -68 -94 -188h278q11 47 11 87q0 67 -24 106.5t-73 39.5
q-53 0 -98 -45zM273 586q-43 0 -65 26t-18 69h18q-3 -33 13 -55t53 -22q66 0 101 77h17q-36 -95 -119 -95z" />
    <glyph glyph-name="Edotaccent" unicode="&#x116;" 
d="M318 761l9 41h30l-9 -41h-30zM19 0l152 700h308l-5 -20h-285l-69 -317h260l-5 -20h-259l-71 -323h289l-5 -20h-310z" />
    <glyph glyph-name="edotaccent" unicode="&#x117;" horiz-adv-x="404" 
d="M359 251h-299q-5 -37 -5 -66q0 -83 36 -128t99 -45q55 0 108 37l10 -18q-59 -39 -119 -39q-72 0 -113.5 49.5t-41.5 142.5q0 80 29.5 159t78.5 128q53 53 114 53q59 0 89 -44t30 -121q0 -51 -16 -108zM158 459q-68 -68 -94 -188h278q11 47 11 87q0 67 -24 106.5t-73 39.5
q-53 0 -98 -45zM262 596l9 40h29l-9 -40h-29z" />
    <glyph glyph-name="Eogonek" unicode="&#x118;" 
d="M19 0l152 700h308l-5 -20h-285l-69 -317h260l-5 -20h-259l-71 -323h289l-5 -20h-17q-56 -49 -56 -76q0 -30 51 -30l-3 -15q-5 -1 -11 -1q-28 0 -43 12t-15 30q0 33 59 80h-275z" />
    <glyph glyph-name="eogonek" unicode="&#x119;" horiz-adv-x="404" 
d="M298 49l10 -18q-52 -32 -76 -56q-28 -28 -28 -51q0 -30 50 -30l-3 -15q-5 -1 -10 -1q-28 0 -43 12t-15 30q0 36 59 79q-30 -7 -53 -7q-72 0 -113.5 49.5t-41.5 142.5q0 80 29.5 159t78.5 128q53 53 114 53q59 0 89 -44t30 -121q0 -51 -16 -108h-299q-5 -37 -5 -66
q0 -83 36 -128t99 -45q55 0 108 37zM158 459q-68 -68 -94 -188h278q11 47 11 87q0 67 -24 106.5t-73 39.5q-53 0 -98 -45z" />
    <glyph glyph-name="Ecaron" unicode="&#x11a;" 
d="M441 848l-102 -97h-16l-59 97h15l56 -74l87 74h19zM19 0l152 700h308l-5 -20h-285l-69 -317h260l-5 -20h-259l-71 -323h289l-5 -20h-310z" />
    <glyph glyph-name="ecaron" unicode="&#x11b;" horiz-adv-x="404" 
d="M359 251h-299q-5 -37 -5 -66q0 -83 36 -128t99 -45q55 0 108 37l10 -18q-59 -39 -119 -39q-72 0 -113.5 49.5t-41.5 142.5q0 80 29.5 159t78.5 128q53 53 114 53q59 0 89 -44t30 -121q0 -51 -16 -108zM158 459q-68 -68 -94 -188h278q11 47 11 87q0 67 -24 106.5t-73 39.5
q-53 0 -98 -45zM267 588l-52 119h14l49 -95l91 95h17l-105 -119h-14z" />
    <glyph glyph-name="Gbreve" unicode="&#x11e;" horiz-adv-x="505" 
d="M390 755q-43 0 -67 21t-22 59h18q-1 -28 16.5 -45t54.5 -17q73 0 99 62h18q-29 -80 -117 -80zM261 -9q-89 0 -143.5 68t-54.5 191q0 104 37 208t103 170q81 81 174 81q85 0 147 -69l-16 -15q-55 64 -130 64q-83 0 -158 -73q-61 -60 -98 -162t-37 -202q0 -113 48.5 -177
t129.5 -64q63 0 111 33l63 283h-156l4 21h178l-71 -317q-58 -40 -131 -40z" />
    <glyph glyph-name="gbreve" unicode="&#x11f;" horiz-adv-x="442" 
d="M137 -138q-86 0 -148 43l11 18q59 -41 136 -41q78 0 118 40q34 34 54 124l22 104q-70 -123 -163 -123q-59 0 -93.5 47t-34.5 121q0 80 28.5 155t77.5 124q50 50 111 50q32 0 56.5 -14t38 -37t21 -44.5t9.5 -42.5l29 130h21l-101 -462q-12 -56 -24.5 -88.5t-35.5 -55.5
q-48 -48 -133 -48zM170 47q51 0 103 52q42 42 67.5 113t25.5 134t-28.5 110.5t-82.5 47.5q-52 0 -95 -43q-45 -45 -72 -117.5t-27 -148.5q0 -65 29 -106.5t80 -41.5zM288 586q-43 0 -65 26t-18 69h18q-3 -33 13 -55t53 -22q66 0 101 77h17q-36 -95 -119 -95z" />
    <glyph glyph-name="Gdotaccent" unicode="&#x120;" horiz-adv-x="505" 
d="M377 766l9 41h30l-9 -41h-30zM261 -9q-89 0 -143.5 68t-54.5 191q0 104 37 208t103 170q81 81 174 81q85 0 147 -69l-16 -15q-55 64 -130 64q-83 0 -158 -73q-61 -60 -98 -162t-37 -202q0 -113 48.5 -177t129.5 -64q63 0 111 33l63 283h-156l4 21h178l-71 -317
q-58 -40 -131 -40z" />
    <glyph glyph-name="gdotaccent" unicode="&#x121;" horiz-adv-x="442" 
d="M137 -138q-86 0 -148 43l11 18q59 -41 136 -41q78 0 118 40q34 34 54 124l22 104q-70 -123 -163 -123q-59 0 -93.5 47t-34.5 121q0 80 28.5 155t77.5 124q50 50 111 50q32 0 56.5 -14t38 -37t21 -44.5t9.5 -42.5l29 130h21l-101 -462q-12 -56 -24.5 -88.5t-35.5 -55.5
q-48 -48 -133 -48zM170 47q51 0 103 52q42 42 67.5 113t25.5 134t-28.5 110.5t-82.5 47.5q-52 0 -95 -43q-45 -45 -72 -117.5t-27 -148.5q0 -65 29 -106.5t80 -41.5zM277 596l9 40h29l-9 -40h-29z" />
    <glyph glyph-name="Gcommaaccent" unicode="&#x122;" horiz-adv-x="505" 
d="M168 -178l-4 13q16 9 22.5 18t10.5 29h-12l11 50h30l-11 -50q-6 -27 -16.5 -39.5t-30.5 -20.5zM261 -9q-89 0 -143.5 68t-54.5 191q0 104 37 208t103 170q81 81 174 81q85 0 147 -69l-16 -15q-55 64 -130 64q-83 0 -158 -73q-61 -60 -98 -162t-37 -202q0 -113 48.5 -177
t129.5 -64q63 0 111 33l63 283h-156l4 21h178l-71 -317q-58 -40 -131 -40z" />
    <glyph glyph-name="gcommaaccent" unicode="&#x123;" horiz-adv-x="442" 
d="M325 706l4 -13q-16 -9 -22.5 -18t-10.5 -29h12l-11 -50h-30l11 50q6 27 16.5 39.5t30.5 20.5zM137 -138q-86 0 -148 43l11 18q59 -41 136 -41q78 0 118 40q34 34 54 124l22 104q-70 -123 -163 -123q-59 0 -93.5 47t-34.5 121q0 80 28.5 155t77.5 124q50 50 111 50
q32 0 56.5 -14t38 -37t21 -44.5t9.5 -42.5l29 130h21l-101 -462q-12 -56 -24.5 -88.5t-35.5 -55.5q-48 -48 -133 -48zM170 47q51 0 103 52q42 42 67.5 113t25.5 134t-28.5 110.5t-82.5 47.5q-52 0 -95 -43q-45 -45 -72 -117.5t-27 -148.5q0 -65 29 -106.5t80 -41.5z" />
    <glyph glyph-name="Hbar" unicode="&#x126;" horiz-adv-x="527" 
d="M81 555l5 18h61l28 127h22l-28 -127h326l28 127h22l-28 -127h60l-5 -18h-59l-120 -555h-22l74 343h-326l-74 -343h-22l120 555h-62zM123 363h327l41 192h-326z" />
    <glyph glyph-name="hbar" unicode="&#x127;" 
d="M90 611l4 18h54l18 84h21l-19 -84h135l-4 -18h-135l-42 -196q22 46 62 77.5t93 31.5q49 0 81.5 -29.5t32.5 -89.5q0 -34 -17 -113l-63 -292h-21l63 290q17 74 17 115q0 99 -97 99q-59 0 -105.5 -48.5t-64.5 -130.5l-71 -325h-21l133 611h-54z" />
    <glyph glyph-name="Imacron" unicode="&#x12a;" horiz-adv-x="183" 
d="M25 0l152 700h22l-152 -700h-22zM106 764l4 19h195l-5 -19h-194z" />
    <glyph glyph-name="imacron" unicode="&#x12b;" horiz-adv-x="164" 
d="M17 0l109 516h21l-109 -516h-21zM64 596l4 19h185l-4 -19h-185z" />
    <glyph glyph-name="Ibreve" unicode="&#x12c;" horiz-adv-x="183" 
d="M25 0l152 700h22l-152 -700h-22zM201 750q-43 0 -67 21t-22 59h18q-1 -28 16.5 -45t54.5 -17q73 0 99 62h18q-29 -80 -117 -80z" />
    <glyph glyph-name="ibreve" unicode="&#x12d;" horiz-adv-x="164" 
d="M17 0l109 516h21l-109 -516h-21zM153 583q-43 0 -65 26t-18 69h18q-3 -33 13 -55t53 -22q66 0 101 77h17q-36 -95 -119 -95z" />
    <glyph glyph-name="Iogonek" unicode="&#x12e;" horiz-adv-x="183" 
d="M37 -106l-3 -15q-5 -1 -11 -1q-28 0 -43 12t-15 30q0 19 14 37t46 43l152 700h22l-152 -700h-5q-56 -51 -56 -76q0 -30 51 -30z" />
    <glyph glyph-name="iogonek" unicode="&#x12f;" horiz-adv-x="164" 
d="M28 -106l-3 -15q-5 -1 -11 -1q-28 0 -43 12t-15 30q0 19 14 37t46 43l112 516h21l-112 -516h-4q-56 -51 -56 -76q0 -30 51 -30zM154 648l12 57h27l-12 -57h-27z" />
    <glyph glyph-name="Idotaccent" unicode="&#x130;" horiz-adv-x="183" 
d="M25 0l152 700h22l-152 -700h-22zM188 761l9 41h30l-9 -41h-30z" />
    <glyph glyph-name="dotlessi" unicode="&#x131;" horiz-adv-x="164" 
d="M17 0l109 516h21l-109 -516h-21z" />
    <glyph glyph-name="Kcommaaccent" unicode="&#x136;" horiz-adv-x="456" 
d="M121 -176l-4 13q16 9 22.5 18t10.5 29h-12l11 50h30l-11 -50q-6 -27 -16.5 -39.5t-30.5 -20.5zM19 0l152 700h22l-96 -437l388 437h27l-275 -309l137 -391h-23l-131 372l-132 -149l-47 -223h-22z" />
    <glyph glyph-name="kcommaaccent" unicode="&#x137;" horiz-adv-x="361" 
d="M76 -176l-4 13q16 9 22.5 18t10.5 29h-12l11 50h30l-11 -50q-6 -27 -16.5 -39.5t-30.5 -20.5zM11 0l155 713h21l-116 -532l289 335h26l-191 -220l88 -296h-21l-82 279l-117 -134l-31 -145h-21z" />
    <glyph glyph-name="Lacute" unicode="&#x139;" horiz-adv-x="378" 
d="M187 748l95 99l22 -12l-103 -87h-14zM19 0l152 700h22l-148 -680h261l-4 -20h-283z" />
    <glyph glyph-name="lacute" unicode="&#x13a;" horiz-adv-x="164" 
d="M181 767l95 99l22 -12l-103 -87h-14zM16 0l155 713h21l-155 -713h-21z" />
    <glyph glyph-name="Lcommaaccent" unicode="&#x13b;" horiz-adv-x="378" 
d="M99 -177l-4 13q16 8 22.5 17.5t10.5 29.5h-12l11 50h30l-11 -50q-6 -27 -16.5 -39.5t-30.5 -20.5zM19 0l152 700h22l-148 -680h261l-4 -20h-283z" />
    <glyph glyph-name="lcommaaccent" unicode="&#x13c;" horiz-adv-x="164" 
d="M-31 -177l-4 13q16 8 22.5 17.5t10.5 29.5h-12l11 50h30l-11 -50q-6 -27 -16.5 -39.5t-30.5 -20.5zM16 0l155 713h21l-155 -713h-21z" />
    <glyph glyph-name="Lcaron" unicode="&#x13d;" horiz-adv-x="378" 
d="M228 551l42 148h22v-2l-54 -146h-10zM19 0l152 700h22l-148 -680h261l-4 -20h-283z" />
    <glyph glyph-name="lcaron" unicode="&#x13e;" horiz-adv-x="164" 
d="M207 565l42 148h22v-2l-54 -146h-10zM16 0l155 713h21l-155 -713h-21z" />
    <glyph glyph-name="Ldot" unicode="&#x13f;" horiz-adv-x="378" 
d="M279 326l10 44h27l-10 -44h-27zM19 0l152 700h22l-148 -680h261l-4 -20h-283z" />
    <glyph glyph-name="ldot" unicode="&#x140;" horiz-adv-x="181" 
d="M168 324l10 46h26l-10 -46h-26zM16 0l155 713h21l-155 -713h-21z" />
    <glyph glyph-name="Lslash" unicode="&#x141;" horiz-adv-x="391" 
d="M25 280l5 23l74 35l79 362h22l-77 -351l158 73l-5 -23l-158 -74l-66 -305h261l-4 -20h-283l68 314z" />
    <glyph glyph-name="lslash" unicode="&#x142;" horiz-adv-x="189" 
d="M30 308l5 23l73 37l75 345h21l-72 -332l74 38l-5 -23l-74 -38l-78 -358h-21l75 345z" />
    <glyph glyph-name="Nacute" unicode="&#x143;" horiz-adv-x="532" 
d="M357 743l95 99l22 -12l-103 -87h-14zM19 0l152 700h21l198 -652l142 652h21l-152 -700h-19l-199 659l-143 -659h-21z" />
    <glyph glyph-name="nacute" unicode="&#x144;" 
d="M265 584l97 117l23 -12l-107 -105h-13zM11 0l112 516h21l-22 -101q22 46 62 77.5t93 31.5q49 0 81.5 -29.5t32.5 -89.5q0 -34 -17 -113l-63 -292h-21l63 290q17 74 17 115q0 99 -97 99q-59 0 -105.5 -48.5t-64.5 -130.5l-71 -325h-21z" />
    <glyph glyph-name="Ncommaaccent" unicode="&#x145;" horiz-adv-x="532" 
d="M149 -176l-4 13q16 9 22.5 18t10.5 29h-12l11 50h30l-11 -50q-6 -27 -16.5 -39.5t-30.5 -20.5zM19 0l152 700h21l198 -652l142 652h21l-152 -700h-19l-199 659l-143 -659h-21z" />
    <glyph glyph-name="ncommaaccent" unicode="&#x146;" 
d="M93 -176l-4 13q16 9 22.5 18t10.5 29h-12l11 50h30l-11 -50q-6 -27 -16.5 -39.5t-30.5 -20.5zM11 0l112 516h21l-22 -101q22 46 62 77.5t93 31.5q49 0 81.5 -29.5t32.5 -89.5q0 -34 -17 -113l-63 -292h-21l63 290q17 74 17 115q0 99 -97 99q-59 0 -105.5 -48.5
t-64.5 -130.5l-71 -325h-21z" />
    <glyph glyph-name="Ncaron" unicode="&#x147;" horiz-adv-x="532" 
d="M479 843l-102 -97h-16l-59 97h15l56 -74l87 74h19zM19 0l152 700h21l198 -652l142 652h21l-152 -700h-19l-199 659l-143 -659h-21z" />
    <glyph glyph-name="ncaron" unicode="&#x148;" 
d="M271 588l-52 119h14l49 -95l91 95h17l-105 -119h-14zM11 0l112 516h21l-22 -101q22 46 62 77.5t93 31.5q49 0 81.5 -29.5t32.5 -89.5q0 -34 -17 -113l-63 -292h-21l63 290q17 74 17 115q0 99 -97 99q-59 0 -105.5 -48.5t-64.5 -130.5l-71 -325h-21z" />
    <glyph glyph-name="Omacron" unicode="&#x14c;" horiz-adv-x="541" 
d="M282 769l4 19h195l-5 -19h-194zM348 709q81 0 127.5 -64t46.5 -185q0 -108 -38 -221.5t-106 -181.5q-66 -66 -144 -66q-81 0 -127.5 64t-46.5 185q0 108 38 221.5t106 181.5q66 66 144 66zM235 11q68 0 128 60q64 64 100.5 175t36.5 214q0 111 -41 170t-112 59
q-68 0 -128 -60q-64 -64 -100.5 -175t-36.5 -214q0 -111 41 -170t112 -59z" />
    <glyph glyph-name="omacron" unicode="&#x14d;" horiz-adv-x="430" 
d="M196 599l4 19h185l-4 -19h-185zM259 524q64 0 101 -49t37 -133t-28.5 -164.5t-79.5 -131.5q-54 -54 -118 -54t-101 49t-37 133t28.5 164.5t79.5 131.5q54 54 118 54zM172 12q53 0 101 48q47 47 74.5 124t27.5 157q0 74 -30.5 118.5t-86.5 44.5q-53 0 -101 -48
q-47 -47 -74.5 -124t-27.5 -157q0 -74 30.5 -118.5t86.5 -44.5z" />
    <glyph glyph-name="Obreve" unicode="&#x14e;" horiz-adv-x="541" 
d="M377 755q-43 0 -67 21t-22 59h18q-1 -28 16.5 -45t54.5 -17q73 0 99 62h18q-29 -80 -117 -80zM348 709q81 0 127.5 -64t46.5 -185q0 -108 -38 -221.5t-106 -181.5q-66 -66 -144 -66q-81 0 -127.5 64t-46.5 185q0 108 38 221.5t106 181.5q66 66 144 66zM235 11
q68 0 128 60q64 64 100.5 175t36.5 214q0 111 -41 170t-112 59q-68 0 -128 -60q-64 -64 -100.5 -175t-36.5 -214q0 -111 41 -170t112 -59z" />
    <glyph glyph-name="obreve" unicode="&#x14f;" horiz-adv-x="430" 
d="M259 524q64 0 101 -49t37 -133t-28.5 -164.5t-79.5 -131.5q-54 -54 -118 -54t-101 49t-37 133t28.5 164.5t79.5 131.5q54 54 118 54zM172 12q53 0 101 48q47 47 74.5 124t27.5 157q0 74 -30.5 118.5t-86.5 44.5q-53 0 -101 -48q-47 -47 -74.5 -124t-27.5 -157
q0 -74 30.5 -118.5t86.5 -44.5zM286 586q-43 0 -65 26t-18 69h18q-3 -33 13 -55t53 -22q66 0 101 77h17q-36 -95 -119 -95z" />
    <glyph glyph-name="Ohungarumlaut" unicode="&#x150;" horiz-adv-x="541" 
d="M348 709q81 0 127.5 -64t46.5 -185q0 -108 -38 -221.5t-106 -181.5q-66 -66 -144 -66q-81 0 -127.5 64t-46.5 185q0 108 38 221.5t106 181.5q66 66 144 66zM235 11q68 0 128 60q64 64 100.5 175t36.5 214q0 111 -41 170t-112 59q-68 0 -128 -60q-64 -64 -100.5 -175
t-36.5 -214q0 -111 41 -170t112 -59zM317 753l95 99l22 -12l-102 -87h-15zM402 753l93 99l22 -12l-100 -87h-15z" />
    <glyph glyph-name="ohungarumlaut" unicode="&#x151;" horiz-adv-x="430" 
d="M228 584l97 117l23 -12l-107 -105h-13zM314 584l97 117l23 -12l-107 -105h-13zM259 524q64 0 101 -49t37 -133t-28.5 -164.5t-79.5 -131.5q-54 -54 -118 -54t-101 49t-37 133t28.5 164.5t79.5 131.5q54 54 118 54zM172 12q53 0 101 48q47 47 74.5 124t27.5 157
q0 74 -30.5 118.5t-86.5 44.5q-53 0 -101 -48q-47 -47 -74.5 -124t-27.5 -157q0 -74 30.5 -118.5t86.5 -44.5z" />
    <glyph glyph-name="OE" unicode="&#x152;" horiz-adv-x="740" 
d="M298 0q-111 0 -171 60q-64 64 -64 191q0 89 33.5 191t97.5 166q92 92 231 92h364l-4 -20h-281l-69 -317h256l-5 -20h-255l-70 -323h283l-4 -20h-342zM143 75q54 -55 155 -55h41l143 660h-58q-129 0 -215 -86q-58 -58 -91 -157.5t-33 -185.5q0 -118 58 -176z" />
    <glyph glyph-name="oe" unicode="&#x153;" horiz-adv-x="730" 
d="M685 251h-299q-5 -37 -5 -66q0 -83 36 -128t99 -45q55 0 108 37l10 -18q-58 -39 -119 -39q-67 0 -108.5 44.5t-46.5 130.5q-25 -73 -75.5 -124t-113.5 -51q-64 0 -101 49t-37 133t28.5 164.5t79.5 131.5q54 54 118 54q61 0 96.5 -45.5t39.5 -127.5q25 69 75.5 121
t111.5 52q59 0 89 -44t30 -121q0 -51 -16 -108zM172 12q53 0 101 48q46 46 74 123.5t28 155.5q0 77 -30.5 121t-86.5 44q-53 0 -101 -48q-47 -47 -74.5 -124t-27.5 -157q0 -74 30.5 -118.5t86.5 -44.5zM484 459q-68 -68 -94 -188h278q11 47 11 87q0 67 -24 106.5t-73 39.5
q-53 0 -98 -45z" />
    <glyph glyph-name="Racute" unicode="&#x154;" horiz-adv-x="484" 
d="M361 0l-108 298q-16 -2 -50 -2h-98l-64 -296h-22l152 700h109q106 0 157 -51q44 -46 44 -120q0 -98 -61 -159q-57 -57 -146 -69l110 -301h-23zM109 316h99q129 0 195 66q56 56 56 147q0 67 -38 105q-46 46 -145 46h-88zM315 748l95 99l22 -12l-103 -87h-14z" />
    <glyph glyph-name="racute" unicode="&#x155;" horiz-adv-x="244" 
d="M189 581l97 117l23 -12l-107 -105h-13zM11 0l112 516h21l-23 -107q28 52 71.5 83.5t93.5 30.5l-4 -22h-2q-55 0 -107.5 -48.5t-69.5 -126.5l-71 -326h-21z" />
    <glyph glyph-name="Rcommaaccent" unicode="&#x156;" horiz-adv-x="484" 
d="M361 0l-108 298q-16 -2 -50 -2h-98l-64 -296h-22l152 700h109q106 0 157 -51q44 -46 44 -120q0 -98 -61 -159q-57 -57 -146 -69l110 -301h-23zM109 316h99q129 0 195 66q56 56 56 147q0 67 -38 105q-46 46 -145 46h-88zM106 -176l-4 13q16 9 22.5 18t10.5 29h-12l11 50
h30l-11 -50q-6 -27 -16.5 -39.5t-30.5 -20.5z" />
    <glyph glyph-name="rcommaaccent" unicode="&#x157;" horiz-adv-x="244" 
d="M-32 -177l-4 13q16 8 22.5 17.5t10.5 29.5h-12l11 50h30l-11 -50q-6 -27 -16.5 -39.5t-30.5 -20.5zM11 0l112 516h21l-23 -107q28 52 71.5 83.5t93.5 30.5l-4 -22h-2q-55 0 -107.5 -48.5t-69.5 -126.5l-71 -326h-21z" />
    <glyph glyph-name="Rcaron" unicode="&#x158;" horiz-adv-x="484" 
d="M361 0l-108 298q-16 -2 -50 -2h-98l-64 -296h-22l152 700h109q106 0 157 -51q44 -46 44 -120q0 -98 -61 -159q-57 -57 -146 -69l110 -301h-23zM109 316h99q129 0 195 66q56 56 56 147q0 67 -38 105q-46 46 -145 46h-88zM437 848l-102 -97h-16l-59 97h15l56 -74l87 74h19z
" />
    <glyph glyph-name="rcaron" unicode="&#x159;" horiz-adv-x="244" 
d="M196 585l-52 119h14l49 -95l91 95h17l-105 -119h-14zM11 0l112 516h21l-23 -107q28 52 71.5 83.5t93.5 30.5l-4 -22h-2q-55 0 -107.5 -48.5t-69.5 -126.5l-71 -326h-21z" />
    <glyph glyph-name="Sacute" unicode="&#x15a;" horiz-adv-x="421" 
d="M183 -8q-121 0 -188 110l18 13q61 -103 170 -103q67 0 107.5 45t40.5 106q0 37 -17 73t-36 59.5t-55 61.5q-38 41 -55 62t-34.5 56.5t-17.5 70.5q0 69 46 115q47 47 118 47q96 0 165 -86l-17 -14q-59 80 -149 80q-62 0 -101.5 -41.5t-39.5 -98.5q0 -13 2.5 -25.5t5.5 -22
t11 -23t11.5 -20.5t16 -22.5t16.5 -20t20 -23t20 -22.5q57 -61 84.5 -105.5t27.5 -98.5q0 -75 -49 -124t-121 -49zM299 753l95 99l22 -12l-103 -87h-14z" />
    <glyph glyph-name="sacute" unicode="&#x15b;" horiz-adv-x="330" 
d="M209 584l97 117l23 -12l-107 -105h-13zM135 -6q-91 0 -143 85l17 12q49 -77 128 -77q47 0 75 30.5t28 73.5q0 33 -17.5 62.5t-60.5 74.5q-46 48 -66 81.5t-20 67.5q0 52 34 85.5t87 33.5q79 0 127 -75l-17 -12q-47 67 -111 67q-44 0 -71 -27.5t-27 -68.5
q0 -30 17.5 -59.5t63.5 -78.5q44 -46 63.5 -79t19.5 -70q0 -54 -35.5 -90t-91.5 -36z" />
    <glyph glyph-name="Scedilla" unicode="&#x15e;" horiz-adv-x="421" 
d="M94 -114l-21 10l79 98q-100 12 -157 108l18 13q61 -103 170 -103q67 0 107.5 45t40.5 106q0 37 -17 73t-36 59.5t-55 61.5q-38 41 -55 62t-34.5 56.5t-17.5 70.5q0 69 46 115q47 47 118 47q96 0 165 -86l-17 -14q-59 80 -149 80q-62 0 -101.5 -41.5t-39.5 -98.5
q0 -13 2.5 -25.5t5.5 -22t11 -23t11.5 -20.5t16 -22.5t16.5 -20t20 -23t20 -22.5q57 -61 84.5 -105.5t27.5 -98.5q0 -75 -49 -124t-121 -49q-3 0 -9 0.5t-8 0.5z" />
    <glyph glyph-name="scedilla" unicode="&#x15f;" horiz-adv-x="330" 
d="M42 -114l-21 10l81 101q-69 13 -110 82l17 12q49 -77 128 -77q47 0 75 30.5t28 73.5q0 33 -17.5 62.5t-60.5 74.5q-46 48 -66 81.5t-20 67.5q0 52 34 85.5t87 33.5q79 0 127 -75l-17 -12q-47 67 -111 67q-44 0 -71 -27.5t-27 -68.5q0 -30 17.5 -59.5t63.5 -78.5
q44 -46 63.5 -79t19.5 -70q0 -54 -35.5 -90t-91.5 -36q-3 0 -9.5 0.5t-10.5 0.5z" />
    <glyph glyph-name="Scaron" unicode="&#x160;" horiz-adv-x="421" 
d="M183 -8q-121 0 -188 110l18 13q61 -103 170 -103q67 0 107.5 45t40.5 106q0 37 -17 73t-36 59.5t-55 61.5q-38 41 -55 62t-34.5 56.5t-17.5 70.5q0 69 46 115q47 47 118 47q96 0 165 -86l-17 -14q-59 80 -149 80q-62 0 -101.5 -41.5t-39.5 -98.5q0 -13 2.5 -25.5t5.5 -22
t11 -23t11.5 -20.5t16 -22.5t16.5 -20t20 -23t20 -22.5q57 -61 84.5 -105.5t27.5 -98.5q0 -75 -49 -124t-121 -49zM421 853l-102 -97h-16l-59 97h15l56 -74l87 74h19z" />
    <glyph glyph-name="scaron" unicode="&#x161;" horiz-adv-x="330" 
d="M215 588l-52 119h14l49 -95l91 95h17l-105 -119h-14zM135 -6q-91 0 -143 85l17 12q49 -77 128 -77q47 0 75 30.5t28 73.5q0 33 -17.5 62.5t-60.5 74.5q-46 48 -66 81.5t-20 67.5q0 52 34 85.5t87 33.5q79 0 127 -75l-17 -12q-47 67 -111 67q-44 0 -71 -27.5t-27 -68.5
q0 -30 17.5 -59.5t63.5 -78.5q44 -46 63.5 -79t19.5 -70q0 -54 -35.5 -90t-91.5 -36z" />
    <glyph glyph-name="Tcommaaccent" unicode="&#x162;" horiz-adv-x="377" 
d="M75 -177l-4 13q16 8 22.5 17.5t10.5 29.5h-12l11 50h30l-11 -50q-6 -27 -16.5 -39.5t-30.5 -20.5zM120 0l148 680h-160l4 20h343l-5 -20h-160l-148 -680h-22z" />
    <glyph glyph-name="tcommaaccent" unicode="&#x163;" horiz-adv-x="252" 
d="M37 -178l-4 13q16 9 22.5 18t10.5 29h-12l11 50h30l-11 -50q-6 -27 -16.5 -39.5t-30.5 -20.5zM119 -5q-33 0 -53 17.5t-20 50.5q0 20 8 52l83 382h-57l4 19h57l34 157h21l-34 -157h113l-4 -19h-113l-83 -379q-8 -42 -8 -53q0 -50 56 -50q21 0 47 10l-4 -20
q-17 -10 -47 -10z" />
    <glyph glyph-name="Tcaron" unicode="&#x164;" horiz-adv-x="377" 
d="M406 848l-102 -97h-16l-59 97h15l56 -74l87 74h19zM120 0l148 680h-160l4 20h343l-5 -20h-160l-148 -680h-22z" />
    <glyph glyph-name="tcaron" unicode="&#x165;" horiz-adv-x="252" 
d="M239 565l42 148h22v-2l-54 -146h-10zM119 -5q-33 0 -53 17.5t-20 50.5q0 20 8 52l83 382h-57l4 19h57l34 157h21l-34 -157h113l-4 -19h-113l-83 -379q-8 -42 -8 -53q0 -50 56 -50q21 0 47 10l-4 -20q-17 -10 -47 -10z" />
    <glyph glyph-name="Umacron" unicode="&#x16a;" horiz-adv-x="514" 
d="M266 759l4 19h195l-5 -19h-194zM217 -8q-72 0 -118 41t-46 117q0 39 14 105l98 445h22l-98 -447q-14 -64 -14 -102q0 -68 40 -103.5t105 -35.5q72 0 122 50t72 153l105 485h22l-107 -491q-24 -108 -77 -161q-56 -56 -140 -56z" />
    <glyph glyph-name="umacron" unicode="&#x16b;" 
d="M153 -8q-49 0 -81 29.5t-32 89.5q0 34 17 113l63 292h21l-63 -290q-17 -74 -17 -115q0 -99 96 -99q59 0 105.5 48.5t64.5 130.5l71 325h21l-112 -516h-21l22 101q-22 -46 -62 -77.5t-93 -31.5zM190 591l4 19h185l-4 -19h-185z" />
    <glyph glyph-name="Ubreve" unicode="&#x16c;" horiz-adv-x="514" 
d="M360 745q-43 0 -67 21t-22 59h18q-1 -28 16.5 -45t54.5 -17q73 0 99 62h18q-29 -80 -117 -80zM217 -8q-72 0 -118 41t-46 117q0 39 14 105l98 445h22l-98 -447q-14 -64 -14 -102q0 -68 40 -103.5t105 -35.5q72 0 122 50t72 153l105 485h22l-107 -491q-24 -108 -77 -161
q-56 -56 -140 -56z" />
    <glyph glyph-name="ubreve" unicode="&#x16d;" 
d="M153 -8q-49 0 -81 29.5t-32 89.5q0 34 17 113l63 292h21l-63 -290q-17 -74 -17 -115q0 -99 96 -99q59 0 105.5 48.5t64.5 130.5l71 325h21l-112 -516h-21l22 101q-22 -46 -62 -77.5t-93 -31.5zM279 578q-43 0 -65 26t-18 69h18q-3 -33 13 -55t53 -22q66 0 101 77h17
q-36 -95 -119 -95z" />
    <glyph glyph-name="Uring" unicode="&#x16e;" horiz-adv-x="514" 
d="M217 -8q-72 0 -118 41t-46 117q0 39 14 105l98 445h22l-98 -447q-14 -64 -14 -102q0 -68 40 -103.5t105 -35.5q72 0 122 50t72 153l105 485h22l-107 -491q-24 -108 -77 -161q-56 -56 -140 -56zM380 886q34 0 54 -19.5t20 -48.5q0 -34 -26 -57.5t-62 -23.5q-34 0 -54 19.5
t-20 48.5q0 34 26 57.5t62 23.5zM368 752q29 0 49.5 19t20.5 46q0 24 -16 39t-43 15q-29 0 -50 -19t-21 -46q0 -24 16.5 -39t43.5 -15z" />
    <glyph glyph-name="uring" unicode="&#x16f;" 
d="M372 664q0 -35 -24.5 -59t-57.5 -24q-32 0 -51.5 20t-19.5 51q0 34 24.5 58t57.5 24q31 0 51 -20t20 -50zM234 653q0 -26 15.5 -42t40.5 -16q28 0 47.5 20t19.5 48q0 25 -15.5 41t-41.5 16q-27 0 -46.5 -20t-19.5 -47zM153 -8q-49 0 -81 29.5t-32 89.5q0 34 17 113
l63 292h21l-63 -290q-17 -74 -17 -115q0 -99 96 -99q59 0 105.5 48.5t64.5 130.5l71 325h21l-112 -516h-21l22 101q-22 -46 -62 -77.5t-93 -31.5z" />
    <glyph glyph-name="Uhungarumlaut" unicode="&#x170;" horiz-adv-x="514" 
d="M217 -8q-72 0 -118 41t-46 117q0 39 14 105l98 445h22l-98 -447q-14 -64 -14 -102q0 -68 40 -103.5t105 -35.5q72 0 122 50t72 153l105 485h22l-107 -491q-24 -108 -77 -161q-56 -56 -140 -56zM299 743l95 99l22 -12l-102 -87h-15zM384 743l93 99l22 -12l-100 -87h-15z
" />
    <glyph glyph-name="uhungarumlaut" unicode="&#x171;" 
d="M153 -8q-49 0 -81 29.5t-32 89.5q0 34 17 113l63 292h21l-63 -290q-17 -74 -17 -115q0 -99 96 -99q59 0 105.5 48.5t64.5 130.5l71 325h21l-112 -516h-21l22 101q-22 -46 -62 -77.5t-93 -31.5zM221 576l97 117l23 -12l-107 -105h-13zM307 576l97 117l23 -12l-107 -105
h-13z" />
    <glyph glyph-name="Uogonek" unicode="&#x172;" horiz-adv-x="514" 
d="M217 -8h-9q-47 -43 -47 -68q0 -30 51 -30l-3 -15q-5 -1 -11 -1q-28 0 -43 12t-15 30q0 32 51 74q-62 6 -100 46.5t-38 109.5q0 39 14 105l98 445h22l-98 -447q-14 -64 -14 -102q0 -68 40 -103.5t105 -35.5q72 0 122 50t72 153l105 485h22l-107 -491q-24 -108 -77 -161
q-56 -56 -140 -56z" />
    <glyph glyph-name="uogonek" unicode="&#x173;" 
d="M153 -8q-49 0 -81 29.5t-32 89.5q0 34 17 113l63 292h21l-63 -290q-17 -74 -17 -115q0 -99 96 -99q59 0 105.5 48.5t64.5 130.5l71 325h21l-112 -516h-4q-56 -49 -56 -76q0 -30 51 -30l-3 -15q-5 -1 -11 -1q-28 0 -43 12t-15 30q0 34 60 80l22 101q-22 -46 -62 -77.5
t-93 -31.5z" />
    <glyph glyph-name="Wcircumflex" unicode="&#x174;" horiz-adv-x="744" 
d="M140 -5l-7 705h22l5 -661l296 662h18l15 -662l288 661h24l-311 -705h-20l-15 657l-294 -657h-21zM383 751l102 97h16l59 -97h-15l-56 75l-88 -75h-18z" />
    <glyph glyph-name="wcircumflex" unicode="&#x175;" horiz-adv-x="578" 
d="M267 585l104 119h14l53 -119h-15l-49 95l-90 -95h-17zM100 -3l-13 519h21l9 -475l218 476h17l11 -476l214 475h23l-237 -519h-17l-13 469l-216 -469h-17z" />
    <glyph glyph-name="Ycircumflex" unicode="&#x176;" horiz-adv-x="442" 
d="M152 0l65 300l-104 400h22l97 -379l263 379h25l-281 -402l-65 -298h-22zM227 746l102 97h16l59 -97h-15l-56 75l-88 -75h-18z" />
    <glyph glyph-name="ycircumflex" unicode="&#x177;" horiz-adv-x="394" 
d="M133 12l-48 504h21l44 -474l245 474h23l-257 -494q-51 -98 -84 -131t-67 -33t-63 27l14 16q23 -23 50 -23t54 28.5t68 105.5zM170 580l104 119h14l53 -119h-15l-49 95l-90 -95h-17z" />
    <glyph glyph-name="Ydieresis" unicode="&#x178;" horiz-adv-x="442" 
d="M152 0l65 300l-104 400h22l97 -379l263 379h25l-281 -402l-65 -298h-22zM258 756l9 41h30l-9 -41h-30zM355 756l9 41h30l-9 -41h-30z" />
    <glyph glyph-name="Zacute" unicode="&#x179;" horiz-adv-x="428" 
d="M-12 0l2 17l456 663h-305l5 20h330l-2 -17l-457 -663h317l-5 -20h-341zM299 748l95 99l22 -12l-103 -87h-14z" />
    <glyph glyph-name="zacute" unicode="&#x17a;" horiz-adv-x="332" 
d="M214 581l97 117l23 -12l-107 -105h-13zM-22 0l2 14l344 483h-234l4 19h259l-2 -14l-344 -483h245l-4 -19h-270z" />
    <glyph glyph-name="Zdotaccent" unicode="&#x17b;" horiz-adv-x="428" 
d="M297 761l9 41h30l-9 -41h-30zM-12 0l2 17l456 663h-305l5 20h330l-2 -17l-457 -663h317l-5 -20h-341z" />
    <glyph glyph-name="zdotaccent" unicode="&#x17c;" horiz-adv-x="332" 
d="M-22 0l2 14l344 483h-234l4 19h259l-2 -14l-344 -483h245l-4 -19h-270zM215 593l9 40h29l-9 -40h-29z" />
    <glyph glyph-name="Zcaron" unicode="&#x17d;" horiz-adv-x="428" 
d="M420 848l-102 -97h-16l-59 97h15l56 -74l87 74h19zM-12 0l2 17l456 663h-305l5 20h330l-2 -17l-457 -663h317l-5 -20h-341z" />
    <glyph glyph-name="zcaron" unicode="&#x17e;" horiz-adv-x="332" 
d="M220 585l-52 119h14l49 -95l91 95h17l-105 -119h-14zM-22 0l2 14l344 483h-234l4 19h259l-2 -14l-344 -483h245l-4 -19h-270z" />
    <glyph glyph-name="Aringacute" unicode="&#x1fa;" horiz-adv-x="511" 
d="M-20 0l349 677q-47 14 -47 64q0 33 26 56.5t62 23.5q34 0 54.5 -19.5t20.5 -47.5q0 -32 -22.5 -54.5t-54.5 -26.5l54 -673h-22l-16 211h-272l-107 -211h-25zM123 231h259l-34 435zM358 687q29 0 49.5 19t20.5 47q0 24 -16 39t-43 15q-29 0 -50 -19t-21 -46
q0 -24 16.5 -39.5t43.5 -15.5zM377 847l87 80l22 -12l-94 -68h-15z" />
    <glyph glyph-name="aringacute" unicode="&#x1fb;" horiz-adv-x="397" 
d="M292 779l86 83l22 -12l-94 -71h-14zM129 -8q-51 0 -84.5 34t-33.5 95q0 93 57 150q45 45 117 45q65 0 135 -32l8 36q11 57 11 83q0 46 -30 72.5t-83 26.5t-100 -22l-7 19q56 23 109 23q60 0 96 -31.5t36 -88.5q0 -34 -11 -80l-70 -322h-21l20 96q-56 -104 -149 -104z
M131 12q58 0 104.5 50.5t62.5 123.5l17 77q-61 33 -130 33q-63 0 -101 -38q-51 -51 -51 -137q0 -52 27.5 -80.5t70.5 -28.5zM355 674q0 -35 -24.5 -59t-57.5 -24q-32 0 -51.5 20t-19.5 51q0 34 24.5 58t57.5 24q31 0 51 -20t20 -50zM217 663q0 -26 15.5 -42t40.5 -16
q28 0 47.5 20t19.5 48q0 25 -15.5 41t-41.5 16q-27 0 -46.5 -20t-19.5 -47z" />
    <glyph glyph-name="AEacute" unicode="&#x1fc;" horiz-adv-x="663" 
d="M457 748l95 99l22 -12l-103 -87h-14zM-47 0l432 700h329l-5 -20h-281l-68 -317h255l-5 -20h-255l-70 -323h284l-5 -20h-305l45 211h-197l-129 -211h-25zM120 231h189l97 448h-11z" />
    <glyph glyph-name="aeacute" unicode="&#x1fd;" horiz-adv-x="674" 
d="M462 -8q-59 0 -98 34t-52 100q-38 -65 -80.5 -99.5t-101.5 -34.5q-52 0 -85.5 35.5t-33.5 98.5q0 88 57 145q45 45 119 45q63 0 133 -32l8 36q11 57 11 83q0 46 -30 72.5t-83 26.5t-100 -22l-7 19q56 23 109 23q63 0 100 -34.5t32 -95.5q28 56 72 94t96 38q58 0 88 -44
t30 -121q0 -49 -16 -108h-297q-5 -37 -5 -66q0 -83 36 -128t99 -45q55 0 108 37l10 -18q-59 -39 -119 -39zM132 12q107 0 176 149q-3 46 7 102q-62 33 -130 33q-63 0 -101 -38q-51 -51 -51 -132q0 -53 27.5 -83.5t71.5 -30.5zM430 459q-66 -66 -93 -188h276q11 47 11 87
q0 67 -24 106.5t-72 39.5q-53 0 -98 -45zM383 581l97 117l23 -12l-107 -105h-13z" />
    <glyph glyph-name="Oslashacute" unicode="&#x1fe;" horiz-adv-x="541" 
d="M348 709q95 0 141 -88l70 86h22l-83 -106q24 -61 24 -141q0 -107 -39 -223t-103 -179q-67 -67 -147 -67q-94 0 -140 87l-70 -85h-23l83 105q-23 58 -23 142q0 106 39 222.5t102 179.5q67 67 147 67zM82 240q0 -71 18 -122l374 483q-40 88 -127 88q-70 0 -130 -60
q-61 -60 -98 -174t-37 -215zM234 11q71 0 131 60t97.5 174.5t37.5 214.5q0 65 -18 121l-374 -483q40 -87 126 -87zM365 753l95 99l22 -12l-103 -87h-14z" />
    <glyph glyph-name="oslashacute" unicode="&#x1ff;" 
d="M259 524q72 0 108 -60l49 58h21l-60 -76q20 -43 20 -104q0 -84 -28.5 -164.5t-79.5 -131.5q-54 -54 -118 -54q-72 0 -109 59l-47 -57h-21l59 74q-20 45 -20 106q0 84 28.5 164.5t79.5 131.5q54 54 118 54zM258 504q-53 0 -101 -48q-47 -47 -74.5 -124t-27.5 -157
q0 -48 14 -87l284 356q-31 60 -95 60zM375 341q0 48 -14 85l-284 -356q30 -58 95 -58q53 0 101 48q47 47 74.5 124t27.5 157zM273 584l97 117l23 -12l-107 -105h-13z" />
    <glyph glyph-name="Scommaaccent" unicode="&#x218;" horiz-adv-x="419" 
d="M87 -178l-4 13q16 9 22.5 18t10.5 29h-12l11 50h30l-11 -50q-6 -27 -16.5 -39.5t-30.5 -20.5zM182 -8q-121 0 -188 110l18 13q61 -103 170 -103q67 0 107.5 45t40.5 106q0 37 -17 73t-36 59.5t-55 61.5q-38 41 -55 62t-34.5 56.5t-17.5 70.5q0 69 46 115q47 47 118 47
q96 0 165 -86l-17 -14q-59 80 -149 80q-62 0 -101.5 -41.5t-39.5 -98.5q0 -13 2.5 -25.5t5.5 -22t11 -23t11.5 -20.5t16 -22.5t16.5 -20t20 -23t20 -22.5q57 -61 84.5 -105.5t27.5 -98.5q0 -75 -49 -124t-121 -49z" />
    <glyph glyph-name="scommaaccent" unicode="&#x219;" horiz-adv-x="330" 
d="M35 -178l-4 13q16 9 22.5 18t10.5 29h-12l11 50h30l-11 -50q-6 -27 -16.5 -39.5t-30.5 -20.5zM135 -6q-91 0 -143 85l17 12q49 -77 128 -77q47 0 75 30.5t28 73.5q0 33 -17.5 62.5t-60.5 74.5q-46 48 -66 81.5t-20 67.5q0 52 34 85.5t87 33.5q79 0 127 -75l-17 -12
q-47 67 -111 67q-44 0 -71 -27.5t-27 -68.5q0 -30 17.5 -59.5t63.5 -78.5q44 -46 63.5 -79t19.5 -70q0 -54 -35.5 -90t-91.5 -36z" />
    <glyph glyph-name="schwa" unicode="&#x259;" horiz-adv-x="406" 
d="M22 156q0 51 16 108h298q6 33 6 66q0 83 -36 128t-99 45q-55 0 -108 -37l-10 18q58 39 119 39q72 0 113.5 -49.5t41.5 -142.5q0 -80 -29.5 -159t-78.5 -128q-53 -53 -114 -53q-59 0 -89 44t-30 121zM239 56q69 69 93 188h-277q-11 -47 -11 -87q0 -67 24 -106.5t73 -39.5
q53 0 98 45z" />
    <glyph glyph-name="circumflex" unicode="&#x2c6;" horiz-adv-x="508" 
d="M240 585l104 119h14l53 -119h-15l-49 95l-90 -95h-17z" />
    <glyph glyph-name="caron" unicode="&#x2c7;" horiz-adv-x="508" 
d="M318 585l-52 119h14l49 -95l91 95h17l-105 -119h-14z" />
    <glyph glyph-name="breve" unicode="&#x2d8;" horiz-adv-x="508" 
d="M328 583q-43 0 -65 26t-18 69h18q-3 -33 13 -55t53 -22q66 0 101 77h17q-36 -95 -119 -95z" />
    <glyph glyph-name="dotaccent" unicode="&#x2d9;" horiz-adv-x="508" 
d="M312 593l9 40h29l-9 -40h-29z" />
    <glyph glyph-name="ring" unicode="&#x2da;" horiz-adv-x="508" 
d="M419 671q0 -35 -24.5 -59t-57.5 -24q-32 0 -51.5 20t-19.5 51q0 34 24.5 58t57.5 24q31 0 51 -20t20 -50zM281 660q0 -26 15.5 -42t40.5 -16q28 0 47.5 20t19.5 48q0 25 -15.5 41t-41.5 16q-27 0 -46.5 -20t-19.5 -47z" />
    <glyph glyph-name="ogonek" unicode="&#x2db;" horiz-adv-x="508" 
d="M217 -106l-3 -15q-5 -1 -11 -1q-28 0 -43 12t-15 30q0 20 15.5 38.5t50.5 46.5l15 -2q-60 -52 -60 -79q0 -30 51 -30z" />
    <glyph glyph-name="tilde" unicode="&#x2dc;" horiz-adv-x="508" 
d="M428 666l15 -4q-26 -70 -66 -70q-18 0 -46 26q-27 27 -40 27q-27 0 -49 -55l-15 4q26 70 66 70q18 0 48 -30q24 -24 38 -24q27 0 49 56z" />
    <glyph glyph-name="hungarumlaut" unicode="&#x2dd;" horiz-adv-x="508" 
d="M229 581l97 117l23 -12l-107 -105h-13zM315 581l97 117l23 -12l-107 -105h-13z" />
    <glyph glyph-name="commaaccent" unicode="&#x326;" horiz-adv-x="508" 
d="M143 -177l-4 13q16 8 22.5 17.5t10.5 29.5h-12l11 50h30l-11 -50q-6 -27 -16.5 -39.5t-30.5 -20.5z" />
    <glyph glyph-name="Wgrave" unicode="&#x1e80;" horiz-adv-x="744" 
d="M460 748l-71 87l22 12l61 -99h-12zM140 -5l-7 705h22l5 -661l296 662h18l15 -662l288 661h24l-311 -705h-20l-15 657l-294 -657h-21z" />
    <glyph glyph-name="wgrave" unicode="&#x1e81;" horiz-adv-x="578" 
d="M100 -3l-13 519h21l9 -475l218 476h17l11 -476l214 475h23l-237 -519h-17l-13 469l-216 -469h-17zM344 581l-73 105l22 12l62 -117h-11z" />
    <glyph glyph-name="Wacute" unicode="&#x1e82;" horiz-adv-x="744" 
d="M464 748l95 99l22 -12l-103 -87h-14zM140 -5l-7 705h22l5 -661l296 662h18l15 -662l288 661h24l-311 -705h-20l-15 657l-294 -657h-21z" />
    <glyph glyph-name="wacute" unicode="&#x1e83;" horiz-adv-x="578" 
d="M342 581l97 117l23 -12l-107 -105h-13zM100 -3l-13 519h21l9 -475l218 476h17l11 -476l214 475h23l-237 -519h-17l-13 469l-216 -469h-17z" />
    <glyph glyph-name="Wdieresis" unicode="&#x1e84;" horiz-adv-x="744" 
d="M414 761l9 41h30l-9 -41h-30zM511 761l9 41h30l-9 -41h-30zM140 -5l-7 705h22l5 -661l296 662h18l15 -662l288 661h24l-311 -705h-20l-15 657l-294 -657h-21z" />
    <glyph glyph-name="wdieresis" unicode="&#x1e85;" horiz-adv-x="578" 
d="M298 593l9 40h28l-9 -40h-28zM389 593l9 40h28l-9 -40h-28zM100 -3l-13 519h21l9 -475l218 476h17l11 -476l214 475h23l-237 -519h-17l-13 469l-216 -469h-17z" />
    <glyph glyph-name="Ygrave" unicode="&#x1ef2;" horiz-adv-x="442" 
d="M152 0l65 300l-104 400h22l97 -379l263 379h25l-281 -402l-65 -298h-22zM304 743l-71 87l22 12l61 -99h-12z" />
    <glyph glyph-name="ygrave" unicode="&#x1ef3;" horiz-adv-x="394" 
d="M133 12l-48 504h21l44 -474l245 474h23l-257 -494q-51 -98 -84 -131t-67 -33t-63 27l14 16q23 -23 50 -23t54 28.5t68 105.5zM246 576l-73 105l22 12l62 -117h-11z" />
    <glyph glyph-name="enspace" unicode="&#x2002;" horiz-adv-x="500" 
 />
    <glyph glyph-name="emspace" unicode="&#x2003;" horiz-adv-x="1000" 
 />
    <glyph glyph-name="threeperemspace" unicode="&#x2004;" horiz-adv-x="333" 
 />
    <glyph glyph-name="fourperemspace" unicode="&#x2005;" horiz-adv-x="250" 
 />
    <glyph glyph-name="thinspace" unicode="&#x2009;" horiz-adv-x="110" 
 />
    <glyph glyph-name="hairspace" unicode="&#x200a;" horiz-adv-x="58" 
 />
    <glyph glyph-name="endash" unicode="&#x2013;" horiz-adv-x="438" 
d="M57 286l4 20h336l-4 -20h-336z" />
    <glyph glyph-name="emdash" unicode="&#x2014;" horiz-adv-x="673" 
d="M57 286l4 20h570l-3 -20h-571z" />
    <glyph glyph-name="quoteleft" unicode="&#x2018;" horiz-adv-x="117" 
d="M114 584l12 55q6 29 17 42t31 20l5 -13q-17 -7 -24 -18t-12 -35h13l-11 -51h-31z" />
    <glyph glyph-name="quoteright" unicode="&#x2019;" horiz-adv-x="117" 
d="M110 583l-5 13q17 7 24 18t12 35h-13l11 51h30l-11 -54q-6 -29 -17 -42t-31 -21z" />
    <glyph glyph-name="quotesinglbase" unicode="&#x201a;" horiz-adv-x="117" 
d="M-31 -66l-5 13q17 7 24 18t12 35h-13l11 51h30l-11 -55q-6 -28 -17.5 -41.5t-30.5 -20.5z" />
    <glyph glyph-name="quotedblleft" unicode="&#x201c;" horiz-adv-x="202" 
d="M114 584l12 55q6 29 17 42t31 20l5 -13q-17 -7 -24 -18t-12 -35h13l-11 -51h-31zM199 584l11 55q6 28 17.5 41.5t30.5 20.5l5 -13q-16 -7 -23.5 -18.5t-12.5 -34.5h14l-12 -51h-30z" />
    <glyph glyph-name="quotedblright" unicode="&#x201d;" horiz-adv-x="202" 
d="M110 583l-5 13q17 7 24 18t12 35h-13l11 51h30l-11 -54q-6 -29 -17 -42t-31 -21zM194 583l-4 13q29 13 35 53h-13l11 51h31l-11 -54q-6 -29 -17 -42t-32 -21z" />
    <glyph glyph-name="quotedblbase" unicode="&#x201e;" horiz-adv-x="202" 
d="M-31 -66l-5 13q17 7 24 18t12 35h-13l11 51h30l-11 -55q-6 -28 -17.5 -41.5t-30.5 -20.5zM53 -66l-5 13q17 7 24.5 18.5t11.5 34.5h-13l11 51h31l-12 -55q-6 -28 -17 -41.5t-31 -20.5z" />
    <glyph glyph-name="dagger" unicode="&#x2020;" horiz-adv-x="293" 
d="M131 238l68 296l-96 -6l4 23l94 -5l28 154h25l-39 -154l96 5l-4 -23l-95 6l-58 -296h-23z" />
    <glyph glyph-name="daggerdbl" unicode="&#x2021;" horiz-adv-x="293" 
d="M77 0l39 154l-96 -5l5 23l94 -6l35 184l44 184l-96 -6l5 23l94 -5l28 154h25l-39 -154l96 5l-5 -23l-94 6l-34 -184l-46 -184l97 6l-6 -23l-94 5l-28 -154h-24z" />
    <glyph glyph-name="bullet" unicode="&#x2022;" horiz-adv-x="345" 
d="M202 451q31 0 49.5 -19.5t18.5 -51.5q0 -63 -35 -99q-24 -24 -60 -24q-31 0 -49 19t-18 51q0 65 34 99q27 25 60 25z" />
    <glyph glyph-name="ellipsis" unicode="&#x2026;" horiz-adv-x="377" 
d="M-11 0l11 51h30l-11 -51h-30zM118 0l11 51h30l-11 -51h-30zM246 0l12 51h30l-11 -51h-31z" />
    <glyph glyph-name="perthousand" unicode="&#x2030;" horiz-adv-x="886" 
d="M44 0l268 356l259 344h22l-268 -356l-259 -344h-22zM182 364q-43 0 -69 32.5t-26 88.5q0 52 19 103.5t50 82.5q35 35 77 35q43 0 68.5 -32t25.5 -89q0 -52 -18.5 -103.5t-49.5 -82.5q-35 -35 -77 -35zM182 382q34 0 62 28t45.5 76.5t17.5 97.5q0 47 -20 75.5t-55 28.5
q-34 0 -62 -28t-45.5 -76.5t-17.5 -97.5q0 -47 20 -75.5t55 -28.5zM404 -6q-43 0 -68.5 32t-25.5 89q0 52 18.5 103.5t49.5 82.5q37 35 77 35q43 0 69 -32.5t26 -88.5q0 -52 -19 -103.5t-50 -82.5q-35 -35 -77 -35zM405 12q34 0 62 28t45.5 76.5t17.5 97.5q0 47 -20 75.5
t-55 28.5q-34 0 -62 -28t-45.5 -76.5t-17.5 -97.5q0 -47 20 -75.5t55 -28.5zM693 -6q-43 0 -68.5 32t-25.5 89q0 52 18.5 103.5t49.5 82.5q35 35 77 35q43 0 69 -32.5t26 -88.5q0 -52 -19 -103.5t-50 -82.5q-35 -35 -77 -35zM694 12q33 0 62 28q28 28 45.5 76.5t17.5 97.5
q0 47 -20 75.5t-55 28.5q-34 0 -62 -28t-45.5 -76.5t-17.5 -97.5q0 -47 20 -75.5t55 -28.5z" />
    <glyph glyph-name="guilsinglleft" unicode="&#x2039;" horiz-adv-x="223" 
d="M116 46l-88 207l1 4l177 207l14 -12l-169 -200l81 -198z" />
    <glyph glyph-name="guilsinglright" unicode="&#x203a;" horiz-adv-x="223" 
d="M97 464l88 -207l-1 -4l-177 -207l-14 12l169 200l-81 198z" />
    <glyph glyph-name="Euro" unicode="&#x20ac;" horiz-adv-x="468" 
d="M65 428l4 19h69q38 132 105 199q60 60 132 60q82 0 129 -75l-18 -12q-44 67 -113 67q-61 0 -115 -54q-61 -61 -98 -185h216l-4 -19h-217q-21 -79 -27 -147h212l-4 -19h-209q-1 -14 -1 -40q0 -101 35.5 -154.5t101.5 -53.5q56 0 113 50l13 -17q-61 -53 -126 -53
q-76 0 -117.5 57.5t-41.5 168.5q0 27 1 42h-75l4 19h73q6 71 26 147h-68z" />
    <glyph glyph-name="published" unicode="&#x2117;" horiz-adv-x="619" 
d="M296 544h57q52 0 81 -26t29 -76q0 -59 -40.5 -100t-110.5 -41h-48l-30 -137h-20zM443 441q0 85 -90 85h-41l-44 -207h46q58 0 93.5 33.5t35.5 88.5zM373 711q113 0 175.5 -78.5t62.5 -200.5q0 -97 -34 -196t-97 -162q-85 -85 -194 -85q-113 0 -175.5 78.5t-62.5 200.5
q0 97 33.5 196t96.5 162q85 85 195 85zM287 5q100 0 179 79q63 63 95.5 161t32.5 190q0 109 -57.5 184.5t-164.5 75.5q-101 0 -180 -79q-62 -62 -94.5 -160t-32.5 -191q0 -109 57.5 -184.5t164.5 -75.5z" />
    <glyph glyph-name="servicemark" unicode="&#x2120;" horiz-adv-x="484" 
d="M151 384q-53 0 -85 53l13 8q30 -47 73 -47q28 0 44 18.5t16 45.5q0 34 -47 81q-49 49 -49 87q0 32 21 53t54 21q49 0 77 -46l-12 -8q-26 40 -66 40q-26 0 -42 -16.5t-16 -42.5q0 -20 10 -36t34 -40q28 -28 40 -48t12 -44q0 -34 -23 -57q-22 -22 -54 -22zM264 387l69 313
h15l43 -190l122 190h19l-69 -313h-15l62 279l-124 -189h-3l-42 188l-62 -278h-15z" />
    <glyph glyph-name="trademark" unicode="&#x2122;" horiz-adv-x="456" 
d="M104 387l66 299h-69l3 14h153l-3 -14h-69l-66 -299h-15zM236 387l69 313h15l43 -190l122 190h19l-69 -313h-15l62 279l-124 -189h-3l-42 188l-62 -278h-15z" />
    <glyph glyph-name="minus" unicode="&#x2212;" horiz-adv-x="420" 
d="M64 342l5 20h328l-5 -20h-328z" />
    <glyph glyph-name="Q.alt" horiz-adv-x="548" 
d="M348 709q81 0 127.5 -64t46.5 -185q0 -105 -36 -216.5t-100 -178.5l50 -68l-16 -12l-48 66q-63 -60 -138 -60q-81 0 -127.5 64t-46.5 185q0 108 38 222t105 180q67 67 145 67zM235 11q66 0 125 57l-83 115l16 12l81 -113q57 65 91.5 173.5t34.5 204.5q0 111 -41 170
t-112 59q-68 0 -128 -60q-62 -62 -99.5 -175t-37.5 -214q0 -111 41 -170t112 -59z" />
    <glyph glyph-name="a.alt" horiz-adv-x="445" 
d="M160 -8q-59 0 -93.5 49.5t-34.5 129.5q0 84 29 167t80 134q52 52 112 52q62 0 93.5 -46.5t34.5 -103.5l31 142h21l-112 -516h-21l27 125q-22 -48 -66.5 -90.5t-100.5 -42.5zM163 12q52 0 97 45q48 48 78 127t30 159q0 65 -29.5 113t-84.5 48q-52 0 -98 -46t-74 -127
t-28 -160q0 -70 29.5 -114.5t79.5 -44.5z" />
    <glyph glyph-name="aacute.alt" horiz-adv-x="445" 
d="M289 584l97 117l23 -12l-107 -105h-13zM160 -8q-59 0 -93.5 49.5t-34.5 129.5q0 84 29 167t80 134q52 52 112 52q62 0 93.5 -46.5t34.5 -103.5l31 142h21l-112 -516h-21l27 125q-22 -48 -66.5 -90.5t-100.5 -42.5zM163 12q52 0 97 45q48 48 78 127t30 159q0 65 -29.5 113
t-84.5 48q-52 0 -98 -46t-74 -127t-28 -160q0 -70 29.5 -114.5t79.5 -44.5z" />
    <glyph glyph-name="abreve.alt" horiz-adv-x="445" 
d="M160 -8q-59 0 -93.5 49.5t-34.5 129.5q0 84 29 167t80 134q52 52 112 52q62 0 93.5 -46.5t34.5 -103.5l31 142h21l-112 -516h-21l27 125q-22 -48 -66.5 -90.5t-100.5 -42.5zM163 12q52 0 97 45q48 48 78 127t30 159q0 65 -29.5 113t-84.5 48q-52 0 -98 -46t-74 -127
t-28 -160q0 -70 29.5 -114.5t79.5 -44.5zM302 586q-43 0 -65 26t-18 69h18q-3 -33 13 -55t53 -22q66 0 101 77h17q-36 -95 -119 -95z" />
    <glyph glyph-name="acircumflex.alt" horiz-adv-x="445" 
d="M215 588l104 119h14l53 -119h-15l-49 95l-90 -95h-17zM160 -8q-59 0 -93.5 49.5t-34.5 129.5q0 84 29 167t80 134q52 52 112 52q62 0 93.5 -46.5t34.5 -103.5l31 142h21l-112 -516h-21l27 125q-22 -48 -66.5 -90.5t-100.5 -42.5zM163 12q52 0 97 45q48 48 78 127t30 159
q0 65 -29.5 113t-84.5 48q-52 0 -98 -46t-74 -127t-28 -160q0 -70 29.5 -114.5t79.5 -44.5z" />
    <glyph glyph-name="adieresis.alt" horiz-adv-x="445" 
d="M246 596l9 40h28l-9 -40h-28zM337 596l9 40h28l-9 -40h-28zM160 -8q-59 0 -93.5 49.5t-34.5 129.5q0 84 29 167t80 134q52 52 112 52q62 0 93.5 -46.5t34.5 -103.5l31 142h21l-112 -516h-21l27 125q-22 -48 -66.5 -90.5t-100.5 -42.5zM163 12q52 0 97 45q48 48 78 127
t30 159q0 65 -29.5 113t-84.5 48q-52 0 -98 -46t-74 -127t-28 -160q0 -70 29.5 -114.5t79.5 -44.5z" />
    <glyph glyph-name="agrave.alt" horiz-adv-x="445" 
d="M160 -8q-59 0 -93.5 49.5t-34.5 129.5q0 84 29 167t80 134q52 52 112 52q62 0 93.5 -46.5t34.5 -103.5l31 142h21l-112 -516h-21l27 125q-22 -48 -66.5 -90.5t-100.5 -42.5zM163 12q52 0 97 45q48 48 78 127t30 159q0 65 -29.5 113t-84.5 48q-52 0 -98 -46t-74 -127
t-28 -160q0 -70 29.5 -114.5t79.5 -44.5zM291 584l-73 105l22 12l62 -117h-11z" />
    <glyph glyph-name="amacron.alt" horiz-adv-x="445" 
d="M160 -8q-59 0 -93.5 49.5t-34.5 129.5q0 84 29 167t80 134q52 52 112 52q62 0 93.5 -46.5t34.5 -103.5l31 142h21l-112 -516h-21l27 125q-22 -48 -66.5 -90.5t-100.5 -42.5zM163 12q52 0 97 45q48 48 78 127t30 159q0 65 -29.5 113t-84.5 48q-52 0 -98 -46t-74 -127
t-28 -160q0 -70 29.5 -114.5t79.5 -44.5zM212 599l4 19h185l-4 -19h-185z" />
    <glyph glyph-name="aogonek.alt" horiz-adv-x="445" 
d="M313 -106l-3 -15q-5 -1 -11 -1q-28 0 -43 12t-15 30q0 33 59 80l27 125q-22 -48 -66.5 -90.5t-100.5 -42.5q-59 0 -93.5 49.5t-34.5 129.5q0 84 29 167t80 134q52 52 112 52q62 0 93.5 -46.5t34.5 -103.5l31 142h21l-112 -513h1l-1 -1v-2h-3q-56 -49 -56 -76
q0 -30 51 -30zM163 12q52 0 97 45q48 48 78 127t30 159q0 65 -29.5 113t-84.5 48q-52 0 -98 -46t-74 -127t-28 -160q0 -70 29.5 -114.5t79.5 -44.5z" />
    <glyph glyph-name="aring.alt" horiz-adv-x="445" 
d="M396 674q0 -35 -24.5 -59t-57.5 -24q-32 0 -51.5 20t-19.5 51q0 34 24.5 58t57.5 24q31 0 51 -20t20 -50zM258 663q0 -26 15.5 -42t40.5 -16q28 0 47.5 20t19.5 48q0 25 -15.5 41t-41.5 16q-27 0 -46.5 -20t-19.5 -47zM160 -8q-59 0 -93.5 49.5t-34.5 129.5q0 84 29 167
t80 134q52 52 112 52q62 0 93.5 -46.5t34.5 -103.5l31 142h21l-112 -516h-21l27 125q-22 -48 -66.5 -90.5t-100.5 -42.5zM163 12q52 0 97 45q48 48 78 127t30 159q0 65 -29.5 113t-84.5 48q-52 0 -98 -46t-74 -127t-28 -160q0 -70 29.5 -114.5t79.5 -44.5z" />
    <glyph glyph-name="aring.alt2" horiz-adv-x="397" 
d="M258 0l20 96q-56 -104 -149 -104q-51 0 -84.5 34t-33.5 95q0 93 57 150q45 45 117 45q65 0 135 -32l8 36q11 57 11 83q0 46 -30 72.5t-83 26.5t-100 -22l-7 19q52 22 103 23q-26 18 -26 55q0 35 24 58.5t57 23.5q31 0 51 -20t20 -50q0 -28 -16.5 -49t-41.5 -29
q70 -27 70 -109q0 -34 -11 -80l-70 -322h-21zM267 521q28 0 47 19.5t19 47.5q0 26 -15.5 42t-40.5 16q-28 0 -47 -20t-19 -48q0 -25 15.5 -41t40.5 -16zM131 12q58 0 104.5 50.5t62.5 123.5l17 77q-61 33 -130 33q-63 0 -101 -38q-51 -51 -51 -137q0 -52 27.5 -80.5
t70.5 -28.5z" />
    <glyph glyph-name="aringacute.alt" horiz-adv-x="445" 
d="M333 779l86 83l22 -12l-94 -71h-14zM396 674q0 -35 -24.5 -59t-57.5 -24q-32 0 -51.5 20t-19.5 51q0 34 24.5 58t57.5 24q31 0 51 -20t20 -50zM258 663q0 -26 15.5 -42t40.5 -16q28 0 47.5 20t19.5 48q0 25 -15.5 41t-41.5 16q-27 0 -46.5 -20t-19.5 -47zM160 -8
q-59 0 -93.5 49.5t-34.5 129.5q0 84 29 167t80 134q52 52 112 52q62 0 93.5 -46.5t34.5 -103.5l31 142h21l-112 -516h-21l27 125q-22 -48 -66.5 -90.5t-100.5 -42.5zM163 12q52 0 97 45q48 48 78 127t30 159q0 65 -29.5 113t-84.5 48q-52 0 -98 -46t-74 -127t-28 -160
q0 -70 29.5 -114.5t79.5 -44.5z" />
    <glyph glyph-name="aringacute.alt2" horiz-adv-x="398" 
d="M285 694l86 83l22 -12l-94 -71h-14zM258 0l20 96q-56 -104 -149 -104q-51 0 -84.5 34t-33.5 95q0 93 57 150q45 45 117 45q65 0 135 -32l8 36q11 57 11 83q0 46 -30 72.5t-83 26.5t-100 -22l-7 19q52 22 103 23q-26 18 -26 55q0 35 24 58.5t57 23.5q31 0 51 -20t20 -50
q0 -28 -16.5 -49t-41.5 -29q70 -27 70 -109q0 -34 -11 -80l-70 -322h-21zM267 521q28 0 47 19.5t19 47.5q0 26 -15.5 42t-40.5 16q-28 0 -47 -20t-19 -48q0 -25 15.5 -41t40.5 -16zM131 12q58 0 104.5 50.5t62.5 123.5l17 77q-61 33 -130 33q-63 0 -101 -38
q-51 -51 -51 -137q0 -52 27.5 -80.5t70.5 -28.5z" />
    <glyph glyph-name="atilde.alt" horiz-adv-x="445" 
d="M160 -8q-59 0 -93.5 49.5t-34.5 129.5q0 84 29 167t80 134q52 52 112 52q62 0 93.5 -46.5t34.5 -103.5l31 142h21l-112 -516h-21l27 125q-22 -48 -66.5 -90.5t-100.5 -42.5zM163 12q52 0 97 45q48 48 78 127t30 159q0 65 -29.5 113t-84.5 48q-52 0 -98 -46t-74 -127
t-28 -160q0 -70 29.5 -114.5t79.5 -44.5zM405 669l15 -4q-26 -70 -66 -70q-18 0 -46 26q-27 27 -40 27q-27 0 -49 -55l-15 4q26 70 66 70q18 0 48 -30q24 -24 38 -24q27 0 49 56z" />
    <glyph glyph-name="three.alt" horiz-adv-x="383" 
d="M134 -6q-101 0 -156 85l17 13q51 -78 140 -78q75 0 121 58t46 128t-47.5 111t-118.5 41h-7l5 18h21q91 0 152.5 53t61.5 135q0 56 -35 92.5t-94 36.5q-66 0 -121 -48l-13 16q60 52 134 52q70 0 110.5 -42.5t40.5 -105.5q0 -76 -50 -130.5t-132 -71.5q115 -42 115 -161
q0 -78 -54 -140t-136 -62z" />
    <glyph glyph-name="registered.alt" horiz-adv-x="619" 
d="M373 711q113 0 175.5 -78.5t62.5 -200.5q0 -97 -34 -196t-97 -162q-85 -85 -194 -85q-113 0 -175.5 78.5t-62.5 200.5q0 97 33.5 196t96.5 162q85 85 195 85zM287 5q100 0 179 79q63 63 95.5 161t32.5 190q0 109 -57.5 184.5t-164.5 75.5q-101 0 -180 -79
q-62 -62 -94.5 -160t-32.5 -191q0 -109 57.5 -184.5t164.5 -75.5zM256 323l-34 -155h-20l82 379h63q57 0 86 -29q26 -26 26 -68q0 -54 -34 -88q-25 -25 -68 -34l49 -160h-21l-48 157q-14 -2 -81 -2zM260 341h47q71 0 102 31q30 30 30 78q0 33 -20 55q-23 23 -70 23h-49z" />
    <glyph glyph-name="NUL" horiz-adv-x="0" 
 />
    <glyph glyph-name="hfjslug" horiz-adv-x="702" 
d="M259 276h8l11 34h1l11 -34h8l14 47h-8l-10 -35h-1l-11 35h-7l-11 -35h-1l-10 35h-8zM325 388q19 0 29 24h1l12 -24l12 6l-17 32q6 14 13 39l-13 3q-4 -18 -8 -30h-1l-16 31q23 21 23 42q0 31 -27 31q-12 0 -20 -9t-8 -22t14 -39q-23 -18 -23 -47q0 -16 8 -26.5t21 -10.5z
M54 -200v303q14 0 23 9.5t9 22.5t-9.5 22.5t-22.5 9.5v554h100l30 79h334l29 -79h101v-921h-208l-8 14h-163l-8 -14h-207zM527 277h8v12l8 8l15 -20h10l-20 26l18 20h-10l-20 -24h-1v24h-8v-46zM197 277h34v7h-26v13h23v7h-23v12h26v7h-34v-46zM188 391h15v79h47v-79h15v172
h-15v-79h-47v79h-15v-172zM136 277h8v32l25 -32h7v46h-8v-32l-25 32h-7v-46zM404 391h15v78h38v14h-38v66h43v14h-58v-172zM472 277h8v15h12l10 -15h9l-12 17q10 4 10 14q0 15 -17 15h-20v-46zM370 277h8v17l18 29h-9l-13 -22l-13 22h-9l18 -29v-17zM485 390q31 0 31 36v137
h-16v-137q0 -22 -16 -22q-7 0 -20 5v-15q10 -4 21 -4zM480 299v17h11q10 0 10 -8q0 -9 -10 -9h-11zM326 402q-16 0 -16 25q0 19 16 35l20 -39q-8 -21 -20 -21zM331 479q-12 22 -12 32q0 19 14 19q13 0 13 -19q0 -15 -15 -32zM430 283q-16 0 -16 17q0 6 4.5 11.5t11.5 5.5
t11.5 -5.5t4.5 -11.5q0 -17 -16 -17zM430 276q10 0 17 7t7 17q0 9 -7 16.5t-17 7.5t-17 -7.5t-7 -16.5q0 -10 7 -17t17 -7z" />
    <glyph glyph-name="i.dot" horiz-adv-x="164" 
d="M16 0l112 516h21l-112 -516h-21zM154 648l12 57h27l-12 -57h-27z" />
    <glyph glyph-name="caron.alt" horiz-adv-x="508" 
d="M287 565l42 148h22v-2l-54 -146h-10z" />
    <glyph glyph-name="acute.cap" horiz-adv-x="508" 
d="M312 748l95 99l22 -12l-103 -87h-14z" />
    <glyph glyph-name="hungarumlaut.cap" horiz-adv-x="508" 
d="M262 748l95 99l22 -12l-102 -87h-15zM347 748l93 99l22 -12l-100 -87h-15z" />
    <glyph glyph-name="grave.cap" horiz-adv-x="508" 
d="M396 748l-71 87l22 12l61 -99h-12z" />
    <glyph glyph-name="circumflex.cap" horiz-adv-x="508" 
d="M273 751l102 97h16l59 -97h-15l-56 75l-88 -75h-18z" />
    <glyph glyph-name="caron.cap" horiz-adv-x="508" 
d="M471 848l-102 -97h-16l-59 97h15l56 -74l87 74h19z" />
    <glyph glyph-name="breve.cap" horiz-adv-x="508" 
d="M364 750q-43 0 -67 21t-22 59h18q-1 -28 16.5 -45t54.5 -17q73 0 99 62h18q-29 -80 -117 -80z" />
    <glyph glyph-name="tilde.cap" horiz-adv-x="508" 
d="M272 756l-14 4q26 62 66 62q19 0 52 -24q30 -22 43 -22q25 0 49 48l15 -4q-28 -63 -66 -63q-20 0 -52 25q-32 22 -43 22q-25 0 -50 -48z" />
    <glyph glyph-name="macron.cap" horiz-adv-x="508" 
d="M268 764l4 19h195l-5 -19h-194z" />
    <glyph glyph-name="dieresis.cap" horiz-adv-x="508" 
d="M300 761l9 41h30l-9 -41h-30zM397 761l9 41h30l-9 -41h-30z" />
    <glyph glyph-name="dotaccent.cap" horiz-adv-x="508" 
d="M348 761l9 41h30l-9 -41h-30z" />
    <glyph glyph-name="ring.cap" horiz-adv-x="508" 
d="M385 901q34 0 54 -19.5t20 -48.5q0 -34 -26 -57.5t-62 -23.5q-34 0 -54 19.5t-20 48.5q0 34 26 57.5t62 23.5zM373 767q29 0 49.5 19t20.5 46q0 24 -16 39t-43 15q-29 0 -50 -19t-21 -46q0 -24 16.5 -39t43.5 -15z" />
    </font>
</defs>
</svg>
