<?xml version="1.0" standalone="no"?>
<!DOCTYPE svg PUBLIC "-//W3C//DTD SVG 1.1//EN" "http://www.w3.org/Graphics/SVG/1.1/DTD/svg11.dtd" >
<svg xmlns="http://www.w3.org/2000/svg" xmlns:xlink="http://www.w3.org/1999/xlink" version="1.1">
<metadata>
Created by FontForge 20170731 at Fri Sep 12 16:08:55 2008
 By ,,,
Copyright (C) 2005, 2008 Hoefler &#38; Frere-Jones. http://www.typography.com
</metadata>
<defs>
<font id="GothamXNarrow-LightItalic" horiz-adv-x="300" >
  <font-face 
    font-family="Gotham XNarrow Light"
    font-weight="300"
    font-style="italic"
    font-stretch="condensed"
    units-per-em="1000"
    panose-1="0 0 0 0 0 0 0 0 0 0"
    ascent="800"
    descent="-200"
    x-height="521"
    cap-height="700"
    bbox="-234 -200 870 939"
    underline-thickness="50"
    underline-position="-200"
    slope="-13"
    unicode-range="U+0020-FB04"
  />
<missing-glyph horiz-adv-x="500" 
d="M0 -200v1000h500v-1000h-500zM50 -76l172 376l-172 376v-752zM71 -150h358l-179 390zM250 360l179 390h-358zM450 -76v752l-172 -376z" />
    <glyph glyph-name="f_f" unicode="ff" horiz-adv-x="517" 
d="M32 0l104 480h-60l10 41h59l14 62q14 69 43 98q34 34 83 34q34 0 62 -13l-10 -41q-29 12 -52 12q-34 0 -52.5 -21.5t-29.5 -69.5l-14 -61h115l-9 -41h-115l-104 -480h-44zM291 0l104 480h-60l10 41h59l14 62q14 69 43 98q34 34 83 34q34 0 62 -13l-10 -41q-28 12 -52 12
q-34 0 -52.5 -21.5t-29.5 -69.5l-14 -61h115l-9 -41h-115l-104 -480h-44z" />
    <glyph glyph-name="fi" unicode="fi" horiz-adv-x="444" 
d="M32 0l104 480h-60l10 41h59l14 62q14 69 43 98q34 34 83 34q34 0 62 -13l-10 -41q-29 12 -52 12q-34 0 -52.5 -21.5t-29.5 -69.5l-14 -61h115l-9 -41h-115l-104 -480h-44zM273 0l113 521h44l-113 -521h-44zM409 639l15 69h50l-15 -69h-50z" />
    <glyph glyph-name="fl" unicode="fl" horiz-adv-x="444" 
d="M32 0l104 480h-60l10 41h59l14 62q14 69 43 98q34 34 83 34q34 0 62 -13l-10 -41q-29 12 -52 12q-34 0 -52.5 -21.5t-29.5 -69.5l-14 -61h115l-9 -41h-115l-104 -480h-44zM273 0l155 714h44l-155 -714h-44z" />
    <glyph glyph-name="f_f_i" unicode="ffi" horiz-adv-x="703" 
d="M32 0l104 480h-60l10 41h59l14 62q14 69 43 98q34 34 83 34q34 0 62 -13l-10 -41q-29 12 -52 12q-34 0 -52.5 -21.5t-29.5 -69.5l-14 -61h115l-9 -41h-115l-104 -480h-44zM291 0l104 480h-60l10 41h59l14 62q14 69 43 98q34 34 83 34q34 0 62 -13l-10 -41q-28 12 -52 12
q-34 0 -52.5 -21.5t-29.5 -69.5l-14 -61h115l-9 -41h-115l-104 -480h-44zM532 0l113 521h44l-113 -521h-44zM668 639l15 69h50l-15 -69h-50z" />
    <glyph glyph-name="f_f_l" unicode="ffl" horiz-adv-x="703" 
d="M32 0l104 480h-60l10 41h59l14 62q14 69 43 98q34 34 83 34q34 0 62 -13l-10 -41q-29 12 -52 12q-34 0 -52.5 -21.5t-29.5 -69.5l-14 -61h115l-9 -41h-115l-104 -480h-44zM291 0l104 480h-60l10 41h59l14 62q14 69 43 98q34 34 83 34q34 0 62 -13l-10 -41q-28 12 -52 12
q-34 0 -52.5 -21.5t-29.5 -69.5l-14 -61h115l-9 -41h-115l-104 -480h-44zM532 0l155 714h44l-155 -714h-44z" />
    <glyph glyph-name=".notdef" horiz-adv-x="500" 
d="M0 -200v1000h500v-1000h-500zM50 -76l172 376l-172 376v-752zM71 -150h358l-179 390zM250 360l179 390h-358zM450 -76v752l-172 -376z" />
    <glyph glyph-name=".null" horiz-adv-x="0" 
 />
    <glyph glyph-name="nonmarkingreturn" horiz-adv-x="333" 
 />
    <glyph glyph-name="space" unicode=" " horiz-adv-x="200" 
 />
    <glyph glyph-name="exclam" unicode="!" horiz-adv-x="213" 
d="M77 183l83 447l15 70h54l-15 -70l-113 -447h-24zM19 0l17 83h62l-17 -83h-62z" />
    <glyph glyph-name="quotedbl" unicode="&#x22;" horiz-adv-x="294" 
d="M88 454l62 246h55l-2 -8l-92 -238h-23zM219 454l62 246h55l-1 -8l-93 -238h-23z" />
    <glyph glyph-name="numbersign" unicode="#" horiz-adv-x="490" 
d="M63 0l46 185h-89l8 42h92l61 246h-92l8 42h94l47 185h40l-47 -185h145l46 185h40l-46 -185h89l-8 -42h-92l-61 -246h92l-8 -42h-94l-47 -185h-40l47 185h-145l-46 -185h-40zM160 227h144l61 246h-144z" />
    <glyph glyph-name="dollar" unicode="$" horiz-adv-x="437" 
d="M311 765h39l-15 -67q71 -16 132 -77l-33 -33q-54 57 -110 69l-63 -283q120 -81 120 -184q0 -81 -52.5 -137.5t-140.5 -56.5h-11l-21 -95h-40l23 100q-94 19 -155 95l33 33q62 -72 133 -87l67 303q-117 80 -117 178q0 75 53 127.5t136 52.5h7zM335 192q0 77 -84 135
l-64 -289h7q67 0 104 45.5t37 108.5zM146 525q0 -74 82 -132l60 268q-65 0 -103.5 -39.5t-38.5 -96.5z" />
    <glyph glyph-name="percent" unicode="%" horiz-adv-x="612" 
d="M38 0l274 359l256 341h46l-274 -359l-256 -341h-46zM184 364q-46 0 -75 36t-29 100q0 49 17 94.5t44 72.5q39 39 88 39q46 0 75 -36t29 -100q0 -49 -17 -94.5t-44 -72.5q-39 -39 -88 -39zM187 404q29 0 53 24q50 50 50 142q0 46 -17 71t-47 25q-29 0 -53 -24
q-50 -50 -50 -142q0 -46 17 -71t47 -25zM423 -6q-46 0 -75 36t-29 100q0 49 17 94.5t44 72.5q39 39 88 39q46 0 75 -36t29 -100q0 -49 -17 -94.5t-44 -72.5q-39 -39 -88 -39zM426 34q29 0 53 24q50 50 50 142q0 46 -17 71t-47 25q-29 0 -53 -24q-50 -50 -50 -142
q0 -46 17 -71t47 -25z" />
    <glyph glyph-name="ampersand" unicode="&#x26;" horiz-adv-x="508" 
d="M436 319l38 -17q-47 -108 -92 -173l60 -120l-39 -18l-50 101q-83 -100 -179 -100q-70 0 -113 45t-43 116q0 156 186 245q-40 91 -40 152q0 66 40.5 112.5t104.5 46.5q59 0 92.5 -36.5t33.5 -87.5q0 -127 -176 -204l101 -215q34 54 76 153zM178 34q82 0 155 94l-111 235
q-156 -68 -156 -202q0 -57 29.5 -92t82.5 -35zM209 552q0 -61 33 -137q73 29 110.5 72t37.5 94q0 38 -22.5 63t-62.5 25q-42 0 -69 -35t-27 -82z" />
    <glyph glyph-name="quotesingle" unicode="'" horiz-adv-x="156" 
d="M88 454l62 246h55l-2 -8l-92 -238h-23z" />
    <glyph glyph-name="parenleft" unicode="(" horiz-adv-x="303" 
d="M184 -135q-131 136 -131 322q0 258 164 422q67 67 150 106l14 -29q-76 -41 -128 -93q-76 -76 -116 -184.5t-40 -219.5q0 -178 111 -301z" />
    <glyph glyph-name="parenright" unicode=")" horiz-adv-x="303" 
d="M132 715q131 -136 131 -322q0 -258 -164 -422q-67 -67 -150 -106l-14 29q76 41 128 93q76 76 116 184.5t40 219.5q0 178 -111 301z" />
    <glyph glyph-name="asterisk" unicode="*" horiz-adv-x="331" 
d="M217 422l-37 8l34 115l-103 -43l-12 36l110 29l-88 72l27 29l75 -84l17 119l37 -8l-34 -116l103 44l12 -36l-110 -29l88 -73l-27 -28l-74 84z" />
    <glyph glyph-name="plus" unicode="+" horiz-adv-x="438" 
d="M179 174l34 157h-155l9 42h155l34 157h44l-35 -157h155l-9 -42h-155l-34 -157h-43z" />
    <glyph glyph-name="comma" unicode="," horiz-adv-x="178" 
d="M-34 -103l-9 26q35 14 51 31t20 46h-27l18 83h63l-15 -72q-11 -50 -33 -74t-68 -40z" />
    <glyph glyph-name="hyphen" unicode="-" horiz-adv-x="317" 
d="M53 274l10 45h216l-10 -45h-216z" />
    <glyph glyph-name="period" unicode="." horiz-adv-x="178" 
d="M1 0l18 83h63l-17 -83h-64z" />
    <glyph glyph-name="slash" unicode="/" horiz-adv-x="344" 
d="M-90 -109l499 888h45l-499 -888h-45z" />
    <glyph glyph-name="zero" unicode="0" horiz-adv-x="490" 
d="M322 709q75 0 115 -56.5t40 -163.5q0 -116 -39.5 -245.5t-105.5 -195.5q-57 -57 -125 -57q-75 0 -115 56.5t-40 162.5q0 116 39 245.5t106 196.5q57 57 125 57zM207 33q48 0 89 41q59 59 96.5 183.5t37.5 231.5q0 87 -27.5 132.5t-80.5 45.5q-48 0 -89 -41
q-59 -59 -96.5 -183.5t-37.5 -231.5q0 -87 27.5 -132.5t80.5 -45.5z" />
    <glyph glyph-name="one" unicode="1" horiz-adv-x="250" 
d="M62 0l140 643l-103 -41l5 51l118 49h40l-153 -702h-47z" />
    <glyph glyph-name="two" unicode="2" horiz-adv-x="420" 
d="M-21 0l6 33l272 312q61 70 87.5 117.5t26.5 93.5q0 49 -30 78.5t-81 29.5q-63 0 -130 -67l-30 32q73 80 164 80q71 0 114 -42t43 -106q0 -59 -29 -110.5t-92 -122.5l-249 -283h282l-10 -45h-344z" />
    <glyph glyph-name="three" unicode="3" horiz-adv-x="414" 
d="M155 -9q-97 0 -166 78l33 33q60 -68 136 -68q69 0 112 51.5t43 128.5q0 42 -18 72t-46.5 43.5t-52 19t-44.5 5.5v29l230 271h-261l11 46h323l-7 -32l-238 -281q151 -33 151 -175q0 -99 -66 -165q-56 -56 -140 -56z" />
    <glyph glyph-name="four" unicode="4" horiz-adv-x="449" 
d="M245 0l36 165h-268l2 40l384 500h43l-108 -500h76l-9 -40h-76l-36 -165h-44zM65 205h226l88 410z" />
    <glyph glyph-name="five" unicode="5" horiz-adv-x="424" 
d="M158 -9q-100 0 -165 76l33 33q57 -67 134 -67t123 65.5t46 150.5q0 68 -33.5 99.5t-88.5 31.5q-48 0 -94 -23l-28 22l85 321h270l-10 -45h-229l-67 -249q37 16 79 16q75 0 119.5 -44.5t44.5 -128.5q0 -56 -19.5 -108.5t-53.5 -86.5q-63 -63 -146 -63z" />
    <glyph glyph-name="six" unicode="6" horiz-adv-x="454" 
d="M211 -9q-63 0 -104 41q-55 55 -55 171q0 99 38.5 235.5t108.5 206.5q62 64 143 64q75 0 133 -55l-29 -36q-47 47 -108 47q-58 0 -107 -49q-76 -78 -118 -270q57 88 148 88q72 0 113 -48t41 -128q0 -62 -21 -119.5t-59 -95.5q-52 -52 -124 -52zM215 32q49 0 87 38
q32 32 49 83t17 103q0 66 -30.5 101t-84.5 35q-52 0 -92 -40q-61 -61 -61 -171q0 -80 38 -118q31 -31 77 -31z" />
    <glyph glyph-name="seven" unicode="7" horiz-adv-x="403" 
d="M38 0l352 655h-272l11 45h320l-8 -38l-353 -662h-50z" />
    <glyph glyph-name="eight" unicode="8" horiz-adv-x="438" 
d="M193 -9q-78 0 -125.5 47t-47.5 123q0 73 42 131.5t115 77.5q-32 19 -51.5 56t-19.5 81q0 81 51.5 141.5t131.5 60.5q69 0 112 -43.5t43 -116.5q0 -68 -38.5 -123t-98.5 -73q38 -22 61 -63.5t23 -92.5q0 -81 -55.5 -143.5t-142.5 -62.5zM194 33q66 0 108 50.5t42 119.5
q0 62 -34.5 99.5t-92.5 37.5q-65 0 -107.5 -53.5t-42.5 -122.5q0 -61 35.5 -96t91.5 -35zM259 380q61 0 100 52t39 115q0 54 -30 87t-81 33q-61 0 -98 -50t-37 -114q0 -52 28.5 -87.5t78.5 -35.5z" />
    <glyph glyph-name="nine" unicode="9" horiz-adv-x="454" 
d="M152 -9q-78 0 -141 62l29 36q52 -54 116 -54q58 0 107 49q77 78 116 261q-57 -87 -148 -87q-72 0 -112.5 48.5t-40.5 131.5q0 138 81 219q52 52 124 52q63 0 104 -41q55 -55 55 -171q0 -100 -38.5 -236t-108.5 -206q-64 -64 -143 -64zM239 300q52 0 92 40q63 63 63 175
q0 84 -38 122q-31 31 -77 31q-49 0 -87 -38q-32 -32 -49.5 -84t-17.5 -106q0 -69 30 -104.5t84 -35.5z" />
    <glyph glyph-name="colon" unicode=":" horiz-adv-x="188" 
d="M6 0l18 83h63l-17 -83h-64zM101 437l18 83h63l-17 -83h-64z" />
    <glyph glyph-name="semicolon" unicode=";" horiz-adv-x="188" 
d="M-29 -103l-9 26q35 14 51 31t20 46h-27l18 83h63l-15 -72q-11 -50 -33 -74t-68 -40zM101 437l18 83h63l-17 -83h-64z" />
    <glyph glyph-name="less" unicode="&#x3c;" horiz-adv-x="438" 
d="M348 150l-284 182l9 40l363 183l-12 -56l-306 -150l239 -152z" />
    <glyph glyph-name="equal" unicode="=" horiz-adv-x="438" 
d="M48 245l10 45h336l-10 -45h-336zM85 414l10 45h336l-10 -45h-336z" />
    <glyph glyph-name="greater" unicode="&#x3e;" horiz-adv-x="438" 
d="M41 149l12 56l306 150l-239 152l9 47l284 -182l-9 -40z" />
    <glyph glyph-name="question" unicode="?" horiz-adv-x="384" 
d="M129 183l27 175l7 6q90 15 141 65t51 121q0 54 -32 83.5t-79 29.5q-61 0 -128 -51l-23 36q73 58 152 58q71 0 114 -43t43 -112q0 -86 -57 -143.5t-147 -78.5l-40 -146h-29zM74 0l18 83h62l-17 -83h-63z" />
    <glyph glyph-name="at" unicode="@" horiz-adv-x="755" 
d="M343 -143q-134 0 -217.5 83t-83.5 241q0 132 52 253t147 198t208 77q133 0 206.5 -84.5t73.5 -218.5q0 -128 -57 -230.5t-130 -102.5q-45 0 -66 30t-19 75q-69 -108 -148 -108q-47 0 -76 35t-29 96q0 107 63 206t143 99q44 0 69.5 -28t32.5 -74l26 87l41 -9l-71 -252
q-12 -41 -12 -66q0 -26 13.5 -42t38.5 -16q37 0 72 44.5t56.5 114t21.5 141.5q0 122 -65 198.5t-186 76.5q-105 0 -193 -75.5t-135.5 -190t-47.5 -234.5q0 -144 76.5 -220t195.5 -76q87 0 174 47l13 -25q-96 -50 -187 -50zM319 112q59 0 115.5 80.5t56.5 166.5
q0 47 -21.5 76t-59.5 29q-40 0 -77.5 -42t-59.5 -102.5t-22 -116.5q0 -44 18.5 -67.5t49.5 -23.5z" />
    <glyph glyph-name="A" unicode="A" horiz-adv-x="532" 
d="M-25 0l366 704h49l60 -704h-47l-15 196h-263l-101 -196h-49zM146 238h238l-31 401z" />
    <glyph glyph-name="B" unicode="B" horiz-adv-x="493" 
d="M17 0l152 700h143q82 0 130.5 -41t48.5 -112q0 -80 -49.5 -129.5t-120.5 -64.5q53 -16 85 -52.5t32 -90.5q0 -103 -76.5 -156.5t-187.5 -53.5h-157zM73 43h105q99 0 156 43.5t57 123.5q0 56 -42 89t-113 33h-101zM145 374h87q95 0 153 47.5t58 121.5q0 55 -35.5 84.5
t-99.5 29.5h-102z" />
    <glyph glyph-name="C" unicode="C" horiz-adv-x="471" 
d="M253 -8q-88 0 -140.5 66.5t-52.5 184.5q0 107 36.5 216t103.5 176q73 73 162 73q84 0 147 -80l-35 -29q-53 65 -114 65q-68 0 -125 -57t-92.5 -159t-35.5 -204q0 -97 39 -152.5t108 -55.5q60 0 122 52l25 -34q-73 -62 -148 -62z" />
    <glyph glyph-name="D" unicode="D" horiz-adv-x="530" 
d="M17 0l152 700h97q111 0 175 -64q68 -68 68 -204q0 -85 -31.5 -179.5t-95.5 -158.5q-94 -94 -238 -94h-127zM405 605q-52 52 -142 52h-57l-133 -614h80q115 0 195 80q56 56 85 142.5t29 163.5q0 119 -57 176z" />
    <glyph glyph-name="E" unicode="E" horiz-adv-x="438" 
d="M17 0l152 700h327l-9 -43h-280l-62 -283h254l-10 -42h-253l-63 -289h285l-10 -43h-331z" />
    <glyph glyph-name="F" unicode="F" horiz-adv-x="429" 
d="M17 0l152 700h321l-9 -43h-274l-64 -293h248l-10 -43h-247l-70 -321h-47z" />
    <glyph glyph-name="G" unicode="G" horiz-adv-x="531" 
d="M272 -9q-96 0 -154 71.5t-58 190.5q0 103 37 204t103 167q84 84 187 84q92 0 154 -70l-34 -33q-47 59 -125 59q-79 0 -150 -71q-58 -58 -91 -151.5t-33 -188.5q0 -100 46 -160t122 -60q58 0 102 29l55 255h-149l10 43h194l-71 -325q-70 -44 -145 -44z" />
    <glyph glyph-name="H" unicode="H" horiz-adv-x="535" 
d="M17 0l152 700h47l-71 -327h295l71 327h47l-152 -700h-47l72 331h-295l-72 -331h-47z" />
    <glyph glyph-name="I" unicode="I" horiz-adv-x="206" 
d="M24 0l152 700h47l-152 -700h-47z" />
    <glyph glyph-name="J" unicode="J" horiz-adv-x="345" 
d="M103 -7q-92 0 -128 83l38 23q32 -63 92 -63q39 0 66 27q25 25 39 88l119 549h47l-123 -563q-15 -70 -51 -106q-38 -38 -99 -38z" />
    <glyph glyph-name="K" unicode="K" horiz-adv-x="490" 
d="M17 0l152 700h47l-91 -418l375 418h56l-283 -314l145 -386h-51l-130 346l-129 -144l-44 -202h-47z" />
    <glyph glyph-name="L" unicode="L" horiz-adv-x="395" 
d="M17 0l152 700h47l-143 -657h259l-10 -43h-305z" />
    <glyph glyph-name="M" unicode="M" horiz-adv-x="615" 
d="M17 0l152 700h46l98 -405l271 405h54l-152 -700h-45l130 605l-275 -406h-4l-99 406l-132 -605h-44z" />
    <glyph glyph-name="N" unicode="N" horiz-adv-x="548" 
d="M17 0l152 700h45l184 -600l130 600h45l-152 -700h-38l-188 615l-133 -615h-45z" />
    <glyph glyph-name="O" unicode="O" horiz-adv-x="560" 
d="M357 710q86 0 135 -65.5t49 -180.5q0 -106 -39 -222.5t-105 -182.5q-69 -69 -154 -69q-86 0 -135 65.5t-49 180.5q0 106 39 222.5t105 182.5q69 69 154 69zM246 33q63 0 117 54q59 59 95 169.5t36 205.5q0 96 -37 150.5t-103 54.5q-63 0 -117 -54q-59 -59 -95 -169.5
t-36 -205.5q0 -96 37 -150.5t103 -54.5z" />
    <glyph glyph-name="P" unicode="P" horiz-adv-x="469" 
d="M17 0l152 700h114q108 0 159 -51q48 -48 48 -129q0 -112 -72 -184q-77 -77 -216 -77h-82l-56 -259h-47zM407 619q-38 38 -128 38h-72l-78 -356h74q118 0 181 63q58 58 58 158q0 62 -35 97z" />
    <glyph glyph-name="Q" unicode="Q" horiz-adv-x="560" 
d="M357 710q86 0 135 -65.5t49 -180.5q0 -97 -33.5 -205t-91.5 -178l55 -74l-35 -28l-51 69q-64 -58 -142 -58q-86 0 -135 65.5t-49 180.5q0 106 39 222.5t105 182.5q69 69 154 69zM246 33q62 0 114 49l-75 101l35 28l70 -95q47 65 75.5 163.5t28.5 182.5q0 96 -37 150.5
t-103 54.5q-63 0 -117 -54q-59 -59 -95 -169.5t-36 -205.5q0 -96 37 -150.5t103 -54.5z" />
    <glyph glyph-name="R" unicode="R" horiz-adv-x="499" 
d="M356 0l-99 287q-14 -2 -40 -2h-91l-62 -285h-47l152 700h137q97 0 149 -52q45 -45 45 -119q0 -103 -66 -169q-49 -49 -130 -66l103 -294h-51zM135 327h92q114 0 172 58q54 54 54 143q0 57 -32 89q-40 40 -121 40h-93z" />
    <glyph glyph-name="S" unicode="S" horiz-adv-x="435" 
d="M194 -9q-116 0 -195 103l36 31q71 -90 160 -90q56 0 93.5 38.5t37.5 93.5q0 75 -94 168q-66 68 -91 111.5t-25 90.5q0 71 48 119q53 53 130 53q98 0 168 -84l-35 -31q-57 71 -135 71q-58 0 -93.5 -37.5t-35.5 -87.5q0 -38 22 -74.5t76 -90.5q60 -61 86 -108t26 -96
q0 -77 -53 -130q-50 -50 -126 -50z" />
    <glyph glyph-name="T" unicode="T" horiz-adv-x="408" 
d="M123 0l143 657h-160l10 43h366l-9 -43h-160l-143 -657h-47z" />
    <glyph glyph-name="U" unicode="U" horiz-adv-x="529" 
d="M230 -10q-83 0 -129.5 44.5t-46.5 120.5q0 37 13 100l96 445h47l-100 -463q-9 -42 -9 -79q0 -58 34.5 -91.5t98.5 -33.5q62 0 106 44q47 47 70 146l103 477h47l-105 -484q-25 -111 -81 -166q-58 -60 -144 -60z" />
    <glyph glyph-name="V" unicode="V" horiz-adv-x="503" 
d="M170 -5l-49 705h47l39 -630l312 630h51l-356 -705h-44z" />
    <glyph glyph-name="W" unicode="W" horiz-adv-x="773" 
d="M141 -5l-15 705h47l7 -615l279 616h41l11 -616l274 615h50l-321 -705h-41l-12 610l-279 -610h-41z" />
    <glyph glyph-name="X" unicode="X" horiz-adv-x="474" 
d="M-26 0l259 369l-103 331h48l88 -296l208 296h53l-242 -341l110 -359h-48l-97 324l-225 -324h-51z" />
    <glyph glyph-name="Y" unicode="Y" horiz-adv-x="463" 
d="M150 0l64 296l-110 404h49l94 -357l248 357h56l-291 -410l-63 -290h-47z" />
    <glyph glyph-name="Z" unicode="Z" horiz-adv-x="444" 
d="M-18 0l4 28l448 632h-304l10 40h358l-4 -28l-448 -632h318l-9 -40h-373z" />
    <glyph glyph-name="bracketleft" unicode="[" horiz-adv-x="315" 
d="M9 -130l180 830h186l-8 -35h-143l-165 -760h142l-7 -35h-185z" />
    <glyph glyph-name="backslash" unicode="\" horiz-adv-x="344" 
d="M232 -109l-111 888h38l112 -888h-39z" />
    <glyph glyph-name="bracketright" unicode="]" horiz-adv-x="315" 
d="M317 700l-180 -830h-186l8 35h143l165 760h-142l7 35h185z" />
    <glyph glyph-name="asciicircum" unicode="^" horiz-adv-x="370" 
d="M120 519l138 173h38l63 -173h-40l-49 126l-103 -126h-47z" />
    <glyph glyph-name="underscore" unicode="_" horiz-adv-x="504" 
d="M-93 -159l8 38h508l-8 -38h-508z" />
    <glyph glyph-name="grave" unicode="`" horiz-adv-x="500" 
d="M348 582l-79 100l49 27l61 -127h-31z" />
    <glyph glyph-name="a" unicode="a" horiz-adv-x="411" 
d="M131 -10q-55 0 -89 37t-34 102q0 88 58 146q50 50 127 50q58 0 124 -27l4 20q10 53 10 77q0 42 -26 66t-77 24q-55 0 -103 -23l-15 38q59 27 120 27q69 0 107 -34t38 -92q0 -29 -12 -88l-67 -313h-44l17 76q-59 -86 -138 -86zM141 29q53 0 94.5 43.5t56.5 109.5l17 77
q-54 27 -116 27q-58 0 -94 -36q-46 -46 -46 -119q0 -48 23.5 -75t64.5 -27z" />
    <glyph glyph-name="b" unicode="b" horiz-adv-x="457" 
d="M206 -9q-51 0 -83.5 34.5t-44.5 89.5l-25 -115h-44l155 714h44l-62 -284q66 100 148 100q60 0 95.5 -50t35.5 -139q0 -83 -28 -165.5t-80 -134.5q-50 -50 -111 -50zM205 31q44 0 81 37q43 43 68.5 118t25.5 151q0 72 -24.5 113t-72.5 41q-47 0 -91 -44
q-42 -42 -67.5 -117t-25.5 -147q0 -69 30 -110.5t76 -41.5z" />
    <glyph glyph-name="c" unicode="c" horiz-adv-x="363" 
d="M179 -8q-67 0 -108.5 48.5t-41.5 139.5q0 81 29.5 161.5t78.5 129.5q58 58 126 58q70 0 119 -59l-32 -31q-43 49 -90 49t-90 -43t-69 -116.5t-26 -140.5q0 -78 30 -116.5t76 -38.5q43 0 88 35l23 -34q-51 -42 -113 -42z" />
    <glyph glyph-name="d" unicode="d" horiz-adv-x="457" 
d="M293 0l20 91q-66 -100 -148 -100q-60 0 -95.5 50t-35.5 139q0 83 28 165.5t80 134.5q50 50 111 50q51 0 83.5 -34.5t44.5 -89.5l67 308h44l-155 -714h-44zM176 30q47 0 91 44q42 42 67.5 117t25.5 147q0 69 -30 110.5t-76 41.5q-44 0 -81 -37q-43 -43 -68.5 -118
t-25.5 -151q0 -72 24.5 -113t72.5 -41z" />
    <glyph glyph-name="e" unicode="e" horiz-adv-x="416" 
d="M370 243h-292q-3 -27 -3 -52q0 -75 33 -116.5t87 -41.5t108 40l20 -36q-68 -45 -130 -45q-73 0 -117.5 51.5t-44.5 146.5q0 81 29 159t77 125q54 56 120 56q61 0 95.5 -45.5t34.5 -123.5q0 -51 -17 -118zM168 449q-58 -56 -83 -167h249q9 33 9 80q0 58 -22.5 92.5
t-66.5 34.5q-46 0 -86 -40z" />
    <glyph glyph-name="f" unicode="f" horiz-adv-x="257" 
d="M32 0l104 480h-60l10 41h59l14 62q14 69 43 98q34 34 83 34q34 0 62 -13l-10 -41q-29 12 -52 12q-34 0 -52.5 -21.5t-29.5 -69.5l-14 -61h115l-9 -41h-115l-104 -480h-44z" />
    <glyph glyph-name="g" unicode="g" horiz-adv-x="457" 
d="M152 -141q-87 0 -163 48l21 39q67 -46 146 -46q61 0 100 39q30 30 46 99l19 90q-28 -43 -67.5 -70t-82.5 -27q-59 0 -95.5 48t-36.5 133q0 67 26 141.5t73 121.5q55 55 116 55q52 0 83.5 -34t43.5 -88l25 113h44l-105 -485q-19 -86 -58 -125q-52 -52 -135 -52zM180 71
q55 0 99 44q33 33 58 94t25 133q0 66 -29.5 107t-76.5 41q-45 0 -87 -42q-39 -39 -62.5 -107t-23.5 -129q0 -67 26.5 -104t70.5 -37z" />
    <glyph glyph-name="h" unicode="h" horiz-adv-x="441" 
d="M9 0l155 714h44l-60 -276q61 92 142 92q52 0 83.5 -32.5t31.5 -91.5q0 -38 -10 -87l-69 -319h-44l70 323q9 43 9 80q0 42 -22 65t-62 23q-51 0 -94 -45.5t-57 -110.5l-73 -335h-44z" />
    <glyph glyph-name="i" unicode="i" horiz-adv-x="186" 
d="M15 0l113 521h44l-113 -521h-44zM151 639l15 69h50l-15 -69h-50z" />
    <glyph glyph-name="j" unicode="j" horiz-adv-x="191" 
d="M-57 -141q-23 0 -45 6l10 41q15 -5 35 -5q55 0 73 86l116 534h44l-119 -549q-24 -113 -114 -113zM155 639l15 69h50l-15 -69h-50z" />
    <glyph glyph-name="k" unicode="k" horiz-adv-x="390" 
d="M9 0l155 714h44l-106 -490l262 297h53l-195 -216l91 -305h-46l-79 267l-101 -111l-34 -156h-44z" />
    <glyph glyph-name="l" unicode="l" horiz-adv-x="186" 
d="M15 0l155 714h44l-155 -714h-44z" />
    <glyph glyph-name="m" unicode="m" horiz-adv-x="693" 
d="M9 0l113 521h44l-18 -83q60 92 137 92q45 0 72.5 -28t33.5 -74q62 102 154 102q51 0 82 -32.5t31 -91.5q0 -38 -10 -87l-69 -319h-44l70 323q9 43 9 80q0 42 -21 65t-58 23q-46 0 -88.5 -43.5t-56.5 -104.5l-74 -343h-44l70 323q9 43 9 80q0 42 -21 65t-58 23
q-49 0 -90 -45.5t-56 -110.5l-73 -335h-44z" />
    <glyph glyph-name="n" unicode="n" horiz-adv-x="441" 
d="M9 0l113 521h44l-18 -83q61 92 142 92q52 0 83.5 -32.5t31.5 -91.5q0 -38 -10 -87l-69 -319h-44l70 323q9 43 9 80q0 42 -22 65t-62 23q-51 0 -94 -45.5t-57 -110.5l-73 -335h-44z" />
    <glyph glyph-name="o" unicode="o" horiz-adv-x="441" 
d="M262 530q67 0 107 -52.5t40 -142.5q0 -84 -27.5 -161.5t-75.5 -125.5q-57 -57 -127 -57q-67 0 -107 52.5t-40 142.5q0 84 27.5 161.5t75.5 125.5q57 57 127 57zM182 32q48 0 91 43q42 42 66.5 114t24.5 144q0 75 -28 115.5t-77 40.5q-48 0 -91 -43q-42 -42 -66.5 -114
t-24.5 -144q0 -75 28 -115.5t77 -40.5z" />
    <glyph glyph-name="p" unicode="p" horiz-adv-x="457" 
d="M206 -9q-51 0 -83.5 34.5t-44.5 89.5l-55 -254h-44l143 660h44l-20 -91q66 100 148 100q60 0 95.5 -50t35.5 -139q0 -83 -28 -165.5t-80 -134.5q-50 -50 -111 -50zM205 31q44 0 81 37q43 43 68.5 118t25.5 151q0 72 -24.5 113t-72.5 41q-47 0 -91 -44q-42 -42 -67.5 -117
t-25.5 -147q0 -69 30 -110.5t76 -41.5z" />
    <glyph glyph-name="q" unicode="q" horiz-adv-x="457" 
d="M165 -9q-60 0 -95.5 50t-35.5 139q0 83 28 165.5t80 134.5q50 50 111 50q51 0 83.5 -34.5t44.5 -89.5l25 115h44l-143 -660h-44l50 230q-66 -100 -148 -100zM176 30q47 0 91 44q42 42 67.5 117t25.5 147q0 69 -30 110.5t-76 41.5q-44 0 -81 -37q-43 -43 -68.5 -118
t-25.5 -151q0 -72 24.5 -113t72.5 -41z" />
    <glyph glyph-name="r" unicode="r" horiz-adv-x="281" 
d="M9 0l113 521h44l-21 -97q72 109 174 103l-11 -47h-4q-66 0 -115.5 -43.5t-67.5 -125.5l-68 -311h-44z" />
    <glyph glyph-name="s" unicode="s" horiz-adv-x="340" 
d="M138 -7q-84 0 -156 82l31 32q65 -74 127 -74q41 0 68.5 26t27.5 69q0 27 -16.5 53.5t-59.5 63.5q-53 46 -74 79t-21 72q0 55 37.5 93.5t99.5 38.5q77 0 142 -69l-30 -33q-57 62 -112 62q-41 0 -66.5 -25t-25.5 -63q0 -51 77 -118q52 -45 73 -80t21 -73q0 -59 -40.5 -97.5
t-102.5 -38.5z" />
    <glyph glyph-name="t" unicode="t" horiz-adv-x="275" 
d="M134 -5q-39 0 -62.5 19t-23.5 57q0 26 7 52l77 357h-57l9 41h57l33 152h44l-33 -152h111l-9 -41h-111l-80 -373q-4 -15 -4 -29q0 -42 53 -42q25 0 49 12l-8 -42q-24 -11 -52 -11z" />
    <glyph glyph-name="u" unicode="u" horiz-adv-x="441" 
d="M152 -9q-52 0 -83.5 32.5t-31.5 91.5q0 38 10 87l69 319h44l-70 -323q-9 -43 -9 -80q0 -42 22 -65t62 -23q51 0 94 45.5t57 110.5l73 335h44l-113 -521h-44l18 83q-61 -92 -142 -92z" />
    <glyph glyph-name="v" unicode="v" horiz-adv-x="406" 
d="M123 -3l-44 524h45l31 -455l229 455h48l-271 -524h-38z" />
    <glyph glyph-name="w" unicode="w" horiz-adv-x="621" 
d="M103 -3l-17 524h44l8 -452l205 452h38l9 -452l204 452h46l-246 -524h-39l-11 440l-202 -440h-39z" />
    <glyph glyph-name="x" unicode="x" horiz-adv-x="401" 
d="M145 521l64 -216l159 216h51l-192 -253l86 -268h-45l-71 233l-171 -233h-49l202 270l-79 251h45z" />
    <glyph glyph-name="y" unicode="y" horiz-adv-x="408" 
d="M126 1l-49 520h45l38 -457l225 457h48l-265 -528q-38 -75 -69.5 -105t-69.5 -30q-42 0 -74 28l22 39q28 -24 54 -24q23 0 43.5 21t51.5 79z" />
    <glyph glyph-name="z" unicode="z" horiz-adv-x="356" 
d="M-20 0l4 29l329 453h-228l9 39h281l-4 -29l-329 -453h236l-8 -39h-290z" />
    <glyph glyph-name="braceleft" unicode="{" horiz-adv-x="341" 
d="M220 -138q-136 29 -136 132q0 35 38 123q25 56 25 83q0 31 -23.5 52t-74.5 21h-13l8 32h15q70 0 106 36q46 46 38 150q-4 57 4.5 98t42.5 75q50 50 149 51l1 -34q-81 -4 -116 -39q-28 -28 -34 -64t-2 -98q6 -102 -44 -152q-30 -30 -86 -42q72 -25 72 -89q0 -29 -27 -91
q-35 -82 -35 -114q0 -35 23 -59t78 -38z" />
    <glyph glyph-name="bar" unicode="|" horiz-adv-x="241" 
d="M21 -109l194 888h38l-194 -888h-38z" />
    <glyph glyph-name="braceright" unicode="}" horiz-adv-x="341" 
d="M134 715q136 -29 136 -132q0 -35 -38 -123q-25 -56 -25 -83q0 -31 23.5 -52t74.5 -21h13l-8 -32h-15q-70 0 -106 -36q-46 -46 -38 -150q4 -57 -4.5 -98t-42.5 -75q-50 -50 -149 -51l-1 34q81 4 116 39q28 28 34 64t2 98q-6 102 44 152q30 30 86 42q-72 25 -72 89
q0 29 27 91q35 82 35 114q0 35 -23 59t-78 38z" />
    <glyph glyph-name="asciitilde" unicode="~" horiz-adv-x="352" 
d="M94 250l-32 11q18 44 35.5 63.5t41.5 19.5q26 0 52 -29q25 -26 37 -26q21 0 44 51l32 -11q-18 -43 -36 -62.5t-42 -19.5q-26 0 -52 28q-25 26 -37 26q-20 0 -43 -51z" />
    <glyph glyph-name="uni00A0" unicode="&#xa0;" horiz-adv-x="200" 
 />
    <glyph glyph-name="exclamdown" unicode="&#xa1;" horiz-adv-x="213" 
d="M176 517l-83 -447l-15 -70h-54l15 70l113 447h24zM234 700l-17 -83h-62l17 83h62z" />
    <glyph glyph-name="cent" unicode="&#xa2;" horiz-adv-x="384" 
d="M310 704h40l-25 -89q55 -13 96 -63l-33 -30q-35 42 -76 52l-118 -447q14 -2 23 -2q46 0 94 34l19 -34q-53 -42 -117 -42q-20 0 -29 2l-24 -90h-40l28 100q-94 41 -94 181q0 80 27 160.5t74 127.5q56 56 129 56h3zM100 281q0 -109 61 -143l116 440q-50 -3 -88 -41
q-42 -42 -65.5 -115t-23.5 -141z" />
    <glyph glyph-name="sterling" unicode="&#xa3;" horiz-adv-x="428" 
d="M-11 0l5 22l65 19l60 278h-65l10 41h64l34 156q22 100 67 145q46 46 113 46q92 0 138 -76l-37 -25q-36 59 -102 59q-47 0 -79 -32q-36 -36 -55 -125l-32 -148h187l-9 -41h-187l-60 -277h251l-9 -42h-359z" />
    <glyph glyph-name="yen" unicode="&#xa5;" horiz-adv-x="467" 
d="M151 0l29 135h-136l9 39h136l21 99h-136l9 38h125l-101 389h49l89 -369l251 369h55l-273 -389h125l-9 -38h-139l-22 -99h140l-9 -39h-139l-29 -135h-45z" />
    <glyph glyph-name="section" unicode="&#xa7;" horiz-adv-x="455" 
d="M439 339q0 -56 -45 -91t-125 -35q63 -45 63 -100q0 -50 -39 -85.5t-103 -35.5q-85 0 -152 57l26 36q60 -52 128 -52q42 0 68.5 21.5t26.5 54.5q0 29 -20.5 51t-76.5 54q-73 42 -103.5 74.5t-30.5 72.5q0 56 44.5 90.5t124.5 35.5q-62 43 -62 100q0 50 39 85.5t103 35.5
q85 0 152 -57l-26 -36q-60 52 -128 52q-42 0 -68.5 -21.5t-26.5 -54.5q0 -29 20.5 -51t76.5 -54q73 -42 103.5 -74.5t30.5 -72.5zM103 365q0 -27 16 -47t51 -43q47 -29 102 -29q51 0 85.5 23.5t34.5 65.5q0 27 -16 47t-51 43q-47 29 -102 29q-51 0 -85.5 -23.5t-34.5 -65.5z
" />
    <glyph glyph-name="dieresis" unicode="&#xa8;" horiz-adv-x="500" 
d="M233 589l15 70h53l-15 -70h-53zM351 589l15 70h53l-15 -70h-53z" />
    <glyph glyph-name="copyright" unicode="&#xa9;" horiz-adv-x="630" 
d="M314 157q-49 0 -77.5 36.5t-28.5 100.5q0 59 21 119t58 97t85 37q49 0 82 -41l-28 -28q-25 32 -56 32t-56 -25q-29 -29 -48 -81.5t-19 -105.5q0 -49 18 -76.5t51 -27.5q26 0 60 26l18 -30q-41 -33 -80 -33zM624 422q0 -97 -32.5 -191t-94.5 -156q-88 -86 -202 -86
q-116 0 -182 82t-66 207q0 97 32.5 191t94.5 156q88 86 202 86q116 0 182 -82t66 -207zM75 277q0 -111 58 -186.5t164 -75.5q103 0 179 76q60 60 90 151.5t30 180.5q0 111 -58 186.5t-164 75.5q-103 0 -179 -76q-60 -60 -90 -151.5t-30 -180.5z" />
    <glyph glyph-name="ordfeminine" unicode="&#xaa;" horiz-adv-x="299" 
d="M158 405q-29 0 -47.5 19.5t-18.5 53.5q0 45 27.5 78.5t72.5 33.5q33 0 68 -14l3 14q4 22 4 33q0 45 -55 45q-27 0 -59 -13l-11 32q38 16 72 16q43 0 66 -20t23 -54q0 -19 -5 -45l-38 -173h-35l8 39q-37 -45 -75 -45zM167 436q27 0 50.5 24.5t30.5 57.5l6 29
q-30 13 -60 13q-32 0 -49 -24t-17 -56q0 -44 39 -44zM55 312l7 32h193l-7 -32h-193z" />
    <glyph glyph-name="guillemotleft" unicode="&#xab;" horiz-adv-x="401" 
d="M125 43l-90 208l2 8l180 208l29 -23l-160 -194l74 -192zM275 43l-89 208l1 8l180 208l30 -23l-160 -194l74 -192z" />
    <glyph glyph-name="registered" unicode="&#xae;" horiz-adv-x="348" 
d="M257 715q58 0 91 -39.5t33 -99.5q0 -48 -16.5 -95.5t-48.5 -79.5q-44 -44 -104 -44q-59 0 -92 39.5t-33 98.5q0 48 16.5 95.5t48.5 79.5q47 45 105 45zM213 375q50 0 88 38q30 30 45.5 75t15.5 87q0 51 -27.5 86t-79.5 35q-50 0 -88 -38q-29 -29 -44.5 -74.5t-15.5 -87.5
q0 -50 27.5 -85.5t78.5 -35.5zM204 516l-15 -70h-24l40 186h31q68 0 68 -53q0 -46 -47 -59l24 -74h-24l-22 70h-31zM209 537h19q30 0 41 12q11 11 11 30q0 30 -40 30h-16z" />
    <glyph glyph-name="macron" unicode="&#xaf;" horiz-adv-x="500" 
d="M216 598l9 41h216l-9 -41h-216z" />
    <glyph glyph-name="degree" unicode="&#xb0;" horiz-adv-x="289" 
d="M220 707q43 0 70 -31.5t27 -83.5q0 -94 -56 -150q-37 -37 -84 -37q-43 0 -70 31.5t-27 83.5q0 94 56 150q37 37 84 37zM181 442q28 0 52 24q45 47 45 124q0 38 -16.5 59t-45.5 21q-28 0 -50 -22q-47 -47 -47 -126q0 -38 16.5 -59t45.5 -21z" />
    <glyph glyph-name="plusminus" unicode="&#xb1;" horiz-adv-x="438" 
d="M182 189l33 152h-152l10 43h150l33 152h43l-33 -152h152l-9 -43h-151l-33 -152h-43zM3 63l10 44h345l-10 -44h-345z" />
    <glyph glyph-name="two.sup" unicode="&#xb2;" 
d="M87 452l6 26l162 153q59 56 59 98q0 24 -17.5 39t-44.5 15q-35 0 -81 -38l-20 27q51 45 105 45q42 0 68.5 -24.5t26.5 -61.5q0 -29 -15 -56t-55 -64l-133 -124h163l-8 -35h-216z" />
    <glyph glyph-name="three.sup" unicode="&#xb3;" 
d="M206 446q-74 0 -112 59l26 23q34 -48 88 -48q35 0 55.5 22.5t20.5 55.5q0 66 -92 68h-7l-1 23l132 129h-152l8 35h201l-6 -29l-137 -131q42 -7 66.5 -31.5t24.5 -62.5q0 -49 -32.5 -81t-82.5 -32z" />
    <glyph glyph-name="acute" unicode="&#xb4;" horiz-adv-x="500" 
d="M252 582l100 127l49 -27l-111 -100h-38z" />
    <glyph glyph-name="paragraph" unicode="&#xb6;" horiz-adv-x="381" 
d="M205 0l56 260q-94 7 -141 55q-49 49 -49 130q0 111 71 182q71 73 205 73h57l-152 -700h-47z" />
    <glyph glyph-name="periodcentered" unicode="&#xb7;" horiz-adv-x="180" 
d="M56 255l18 85h65l-18 -85h-65z" />
    <glyph glyph-name="cedilla" unicode="&#xb8;" horiz-adv-x="500" 
d="M149 -121l-45 22l92 109h36z" />
    <glyph glyph-name="one.sup" unicode="&#xb9;" horiz-adv-x="244" 
d="M164 452l69 319l-82 -36l4 38l91 41h33l-78 -362h-37z" />
    <glyph glyph-name="ordmasculine" unicode="&#xba;" horiz-adv-x="299" 
d="M59 312l7 32h197l-8 -32h-196zM136 513q0 -33 14 -54t40 -21q25 0 46 21q22 22 34.5 60.5t12.5 75.5q0 33 -14 54t-40 21q-25 0 -46 -21q-22 -22 -34.5 -60.5t-12.5 -75.5zM320 594q0 -99 -57 -156q-34 -34 -75 -34t-65 29.5t-24 80.5q0 99 57 156q34 34 75 34t65 -29.5
t24 -80.5z" />
    <glyph glyph-name="guillemotright" unicode="&#xbb;" horiz-adv-x="401" 
d="M273 466l90 -208l-2 -8l-180 -208l-29 23l160 194l-74 192zM123 466l89 -208l-1 -8l-180 -208l-30 23l160 194l-74 192z" />
    <glyph glyph-name="onequarter" unicode="&#xbc;" horiz-adv-x="620" 
d="M121 340l69 319l-82 -36l4 38l91 41h33l-78 -362h-37zM29 0l258 357l245 344h39l-259 -358l-244 -343h-39zM431 -1l17 79h-154l2 28l201 257h47l-55 -254h42l-7 -31h-42l-17 -79h-34zM338 109h117l43 201h-4z" />
    <glyph glyph-name="onehalf" unicode="&#xbd;" horiz-adv-x="620" 
d="M283 0l6 26l162 153q59 56 59 98q0 24 -17.5 39t-44.5 15q-35 0 -81 -38l-20 27q51 45 105 45q42 0 68.5 -24.5t26.5 -61.5q0 -29 -15 -56t-55 -64l-133 -124h163l-8 -35h-216zM7 0l258 357l245 344h39l-259 -358l-244 -343h-39zM121 340l69 319l-82 -36l4 38l91 41h33
l-78 -362h-37z" />
    <glyph glyph-name="threequarters" unicode="&#xbe;" horiz-adv-x="675" 
d="M489 -1l17 79h-154l2 28l201 257h47l-55 -254h42l-7 -31h-42l-17 -79h-34zM396 109h117l43 201h-4zM85 0l258 357l245 344h39l-259 -358l-244 -343h-39zM162 334q-74 0 -112 59l26 23q34 -48 88 -48q35 0 55.5 22.5t20.5 55.5q0 66 -92 68h-7l-1 23l132 129h-152l8 35
h201l-6 -29l-137 -131q42 -7 66.5 -31.5t24.5 -62.5q0 -49 -32.5 -81t-82.5 -32z" />
    <glyph glyph-name="questiondown" unicode="&#xbf;" horiz-adv-x="384" 
d="M294 517l-27 -175l-7 -6q-90 -15 -141 -65t-51 -121q0 -54 32 -83.5t79 -29.5q61 0 128 51l23 -36q-73 -58 -152 -58q-71 0 -114 43t-43 112q0 86 57 143.5t147 78.5l40 146h29zM349 700l-18 -83h-62l17 83h63z" />
    <glyph glyph-name="Agrave" unicode="&#xc0;" horiz-adv-x="532" 
d="M-25 0l366 704h49l60 -704h-47l-15 196h-263l-101 -196h-49zM146 238h238l-31 401zM359 755l-83 85l49 24l68 -109h-34z" />
    <glyph glyph-name="Aacute" unicode="&#xc1;" horiz-adv-x="532" 
d="M-25 0l366 704h49l60 -704h-47l-15 196h-263l-101 -196h-49zM146 238h238l-31 401zM352 755l96 109l51 -25l-106 -84h-41z" />
    <glyph glyph-name="Acircumflex" unicode="&#xc2;" horiz-adv-x="532" 
d="M-25 0l366 704h49l60 -704h-47l-15 196h-263l-101 -196h-49zM146 238h238l-31 401zM271 758l105 101h42l61 -101h-44l-46 59l-71 -59h-47z" />
    <glyph glyph-name="Atilde" unicode="&#xc3;" horiz-adv-x="532" 
d="M-25 0l366 704h49l60 -704h-47l-15 196h-263l-101 -196h-49zM146 238h238l-31 401zM297 756l-33 10q18 37 35.5 54t40.5 17q21 0 53 -20q27 -18 42 -18q21 0 43 38l33 -10q-18 -37 -35.5 -54t-41.5 -17q-19 0 -52 20q-30 19 -42 19q-13 0 -22 -9t-21 -30z" />
    <glyph glyph-name="Adieresis" unicode="&#xc4;" horiz-adv-x="532" 
d="M-25 0l366 704h49l60 -704h-47l-15 196h-263l-101 -196h-49zM146 238h238l-31 401zM287 761l14 68h58l-14 -68h-58zM416 761l14 68h58l-14 -68h-58z" />
    <glyph glyph-name="Aring" unicode="&#xc5;" horiz-adv-x="532" 
d="M-25 0l348 669q-40 19 -40 65q0 37 28.5 63t68.5 26q35 0 58 -21.5t23 -52.5q0 -30 -19 -53.5t-49 -31.5l57 -664h-47l-15 196h-263l-101 -196h-49zM146 238h238l-31 401zM366 689q27 0 44 16.5t17 40.5q0 21 -13 34.5t-36 13.5q-26 0 -43.5 -17t-17.5 -41
q0 -21 13.5 -34t35.5 -13z" />
    <glyph glyph-name="AE" unicode="&#xc6;" horiz-adv-x="699" 
d="M-42 0l428 700h371l-10 -43h-276l-62 -283h251l-10 -42h-250l-63 -289h281l-10 -43h-327l42 196h-195l-119 -196h-51zM153 238h179l92 420h-16z" />
    <glyph glyph-name="Ccedilla" unicode="&#xc7;" horiz-adv-x="471" 
d="M166 -121l-45 22l82 97q-67 18 -105 81.5t-38 163.5q0 107 36.5 216t103.5 176q73 73 162 73q84 0 147 -80l-35 -29q-53 65 -114 65q-68 0 -125 -57t-92.5 -159t-35.5 -204q0 -97 39 -152.5t108 -55.5q60 0 122 52l25 -34q-73 -62 -148 -62q-10 0 -15 1z" />
    <glyph glyph-name="Egrave" unicode="&#xc8;" horiz-adv-x="438" 
d="M317 749l-83 85l49 24l68 -109h-34zM17 0l152 700h327l-9 -43h-280l-62 -283h254l-10 -42h-253l-63 -289h285l-10 -43h-331z" />
    <glyph glyph-name="Eacute" unicode="&#xc9;" horiz-adv-x="438" 
d="M310 749l96 109l51 -25l-106 -84h-41zM17 0l152 700h327l-9 -43h-280l-62 -283h254l-10 -42h-253l-63 -289h285l-10 -43h-331z" />
    <glyph glyph-name="Ecircumflex" unicode="&#xca;" horiz-adv-x="438" 
d="M17 0l152 700h327l-9 -43h-280l-62 -283h254l-10 -42h-253l-63 -289h285l-10 -43h-331zM230 752l105 101h42l61 -101h-44l-46 59l-71 -59h-47z" />
    <glyph glyph-name="Edieresis" unicode="&#xcb;" horiz-adv-x="438" 
d="M245 755l14 68h58l-14 -68h-58zM374 755l14 68h58l-14 -68h-58zM17 0l152 700h327l-9 -43h-280l-62 -283h254l-10 -42h-253l-63 -289h285l-10 -43h-331z" />
    <glyph glyph-name="Igrave" unicode="&#xcc;" horiz-adv-x="206" 
d="M24 0l152 700h47l-152 -700h-47zM191 749l-83 85l49 24l68 -109h-34z" />
    <glyph glyph-name="Iacute" unicode="&#xcd;" horiz-adv-x="206" 
d="M24 0l152 700h47l-152 -700h-47zM184 749l96 109l51 -25l-106 -84h-41z" />
    <glyph glyph-name="Icircumflex" unicode="&#xce;" horiz-adv-x="206" 
d="M24 0l152 700h47l-152 -700h-47zM103 752l105 101h42l61 -101h-44l-46 59l-71 -59h-47z" />
    <glyph glyph-name="Idieresis" unicode="&#xcf;" horiz-adv-x="206" 
d="M24 0l152 700h47l-152 -700h-47zM119 755l14 68h58l-14 -68h-58zM248 755l14 68h58l-14 -68h-58z" />
    <glyph glyph-name="Eth" unicode="&#xd0;" horiz-adv-x="544" 
d="M41 331l9 42h62l71 327h97q111 0 175 -64q68 -68 68 -204q0 -85 -31.5 -179.5t-95.5 -158.5q-94 -94 -238 -94h-127l72 331h-62zM419 605q-52 52 -142 52h-57l-61 -284h139l-10 -42h-138l-63 -288h80q115 0 195 80q56 56 85 142.5t29 163.5q0 119 -57 176z" />
    <glyph glyph-name="Ntilde" unicode="&#xd1;" horiz-adv-x="548" 
d="M297 745l-33 10q18 37 35.5 54t40.5 17q21 0 53 -20q27 -18 42 -18q21 0 43 38l33 -10q-18 -37 -35.5 -54t-41.5 -17q-19 0 -52 20q-30 19 -42 19q-13 0 -22 -9t-21 -30zM17 0l152 700h45l184 -600l130 600h45l-152 -700h-38l-188 615l-133 -615h-45z" />
    <glyph glyph-name="Ograve" unicode="&#xd2;" horiz-adv-x="560" 
d="M361 755l-83 85l49 24l68 -109h-34zM357 710q86 0 135 -65.5t49 -180.5q0 -106 -39 -222.5t-105 -182.5q-69 -69 -154 -69q-86 0 -135 65.5t-49 180.5q0 106 39 222.5t105 182.5q69 69 154 69zM246 33q63 0 117 54q59 59 95 169.5t36 205.5q0 96 -37 150.5t-103 54.5
q-63 0 -117 -54q-59 -59 -95 -169.5t-36 -205.5q0 -96 37 -150.5t103 -54.5z" />
    <glyph glyph-name="Oacute" unicode="&#xd3;" horiz-adv-x="560" 
d="M354 755l96 109l51 -25l-106 -84h-41zM357 710q86 0 135 -65.5t49 -180.5q0 -106 -39 -222.5t-105 -182.5q-69 -69 -154 -69q-86 0 -135 65.5t-49 180.5q0 106 39 222.5t105 182.5q69 69 154 69zM246 33q63 0 117 54q59 59 95 169.5t36 205.5q0 96 -37 150.5t-103 54.5
q-63 0 -117 -54q-59 -59 -95 -169.5t-36 -205.5q0 -96 37 -150.5t103 -54.5z" />
    <glyph glyph-name="Ocircumflex" unicode="&#xd4;" horiz-adv-x="560" 
d="M357 710q86 0 135 -65.5t49 -180.5q0 -106 -39 -222.5t-105 -182.5q-69 -69 -154 -69q-86 0 -135 65.5t-49 180.5q0 106 39 222.5t105 182.5q69 69 154 69zM246 33q63 0 117 54q59 59 95 169.5t36 205.5q0 96 -37 150.5t-103 54.5q-63 0 -117 -54q-59 -59 -95 -169.5
t-36 -205.5q0 -96 37 -150.5t103 -54.5zM273 758l105 101h42l61 -101h-44l-46 59l-71 -59h-47z" />
    <glyph glyph-name="Otilde" unicode="&#xd5;" horiz-adv-x="560" 
d="M299 756l-33 10q18 37 35.5 54t40.5 17q21 0 53 -20q27 -18 42 -18q21 0 43 38l33 -10q-18 -37 -35.5 -54t-41.5 -17q-19 0 -52 20q-30 19 -42 19q-13 0 -22 -9t-21 -30zM357 710q86 0 135 -65.5t49 -180.5q0 -106 -39 -222.5t-105 -182.5q-69 -69 -154 -69
q-86 0 -135 65.5t-49 180.5q0 106 39 222.5t105 182.5q69 69 154 69zM246 33q63 0 117 54q59 59 95 169.5t36 205.5q0 96 -37 150.5t-103 54.5q-63 0 -117 -54q-59 -59 -95 -169.5t-36 -205.5q0 -96 37 -150.5t103 -54.5z" />
    <glyph glyph-name="Odieresis" unicode="&#xd6;" horiz-adv-x="560" 
d="M288 761l14 68h58l-14 -68h-58zM417 761l14 68h58l-14 -68h-58zM357 710q86 0 135 -65.5t49 -180.5q0 -106 -39 -222.5t-105 -182.5q-69 -69 -154 -69q-86 0 -135 65.5t-49 180.5q0 106 39 222.5t105 182.5q69 69 154 69zM246 33q63 0 117 54q59 59 95 169.5t36 205.5
q0 96 -37 150.5t-103 54.5q-63 0 -117 -54q-59 -59 -95 -169.5t-36 -205.5q0 -96 37 -150.5t103 -54.5z" />
    <glyph glyph-name="multiply" unicode="&#xd7;" horiz-adv-x="438" 
d="M82 191l-26 31l155 133l-94 130l34 26l93 -129l153 131l26 -31l-155 -133l94 -130l-34 -26l-93 129z" />
    <glyph glyph-name="Oslash" unicode="&#xd8;" horiz-adv-x="560" 
d="M357 710q92 0 142 -76l62 73h53l-94 -115q21 -54 21 -128q0 -106 -39 -222.5t-105 -182.5q-69 -69 -154 -69q-93 0 -142 75l-62 -72h-53l94 113q-21 54 -21 130q0 106 39 222.5t105 182.5q69 69 154 69zM106 238q0 -52 10 -88l352 444q-36 73 -114 73q-63 0 -117 -54
q-59 -59 -95 -169.5t-36 -205.5zM246 33q63 0 117 54q59 59 95 169.5t36 205.5q0 44 -10 86l-352 -443q38 -72 114 -72z" />
    <glyph glyph-name="Ugrave" unicode="&#xd9;" horiz-adv-x="529" 
d="M343 744l-83 85l49 24l68 -109h-34zM230 -10q-83 0 -129.5 44.5t-46.5 120.5q0 37 13 100l96 445h47l-100 -463q-9 -42 -9 -79q0 -58 34.5 -91.5t98.5 -33.5q62 0 106 44q47 47 70 146l103 477h47l-105 -484q-25 -111 -81 -166q-58 -60 -144 -60z" />
    <glyph glyph-name="Uacute" unicode="&#xda;" horiz-adv-x="529" 
d="M336 744l96 109l51 -25l-106 -84h-41zM230 -10q-83 0 -129.5 44.5t-46.5 120.5q0 37 13 100l96 445h47l-100 -463q-9 -42 -9 -79q0 -58 34.5 -91.5t98.5 -33.5q62 0 106 44q47 47 70 146l103 477h47l-105 -484q-25 -111 -81 -166q-58 -60 -144 -60z" />
    <glyph glyph-name="Ucircumflex" unicode="&#xdb;" horiz-adv-x="529" 
d="M230 -10q-83 0 -129.5 44.5t-46.5 120.5q0 37 13 100l96 445h47l-100 -463q-9 -42 -9 -79q0 -58 34.5 -91.5t98.5 -33.5q62 0 106 44q47 47 70 146l103 477h47l-105 -484q-25 -111 -81 -166q-58 -60 -144 -60zM255 747l105 101h42l61 -101h-44l-46 59l-71 -59h-47z" />
    <glyph glyph-name="Udieresis" unicode="&#xdc;" horiz-adv-x="529" 
d="M270 750l14 68h58l-14 -68h-58zM399 750l14 68h58l-14 -68h-58zM230 -10q-83 0 -129.5 44.5t-46.5 120.5q0 37 13 100l96 445h47l-100 -463q-9 -42 -9 -79q0 -58 34.5 -91.5t98.5 -33.5q62 0 106 44q47 47 70 146l103 477h47l-105 -484q-25 -111 -81 -166
q-58 -60 -144 -60z" />
    <glyph glyph-name="Yacute" unicode="&#xdd;" horiz-adv-x="463" 
d="M150 0l64 296l-110 404h49l94 -357l248 357h56l-291 -410l-63 -290h-47zM300 744l96 109l51 -25l-106 -84h-41z" />
    <glyph glyph-name="Thorn" unicode="&#xde;" horiz-adv-x="470" 
d="M17 0l152 700h47l-27 -124h67q108 0 159 -51q48 -48 48 -129q0 -112 -72 -184q-77 -77 -216 -77h-82l-29 -135h-47zM102 177h74q118 0 181 63q58 58 58 158q0 62 -35 97q-38 38 -128 38h-72z" />
    <glyph glyph-name="germandbls" unicode="&#xdf;" horiz-adv-x="438" 
d="M136 -2l9 38q101 -1 149.5 46t48.5 123q0 105 -131 140l8 36q83 17 129 70t46 122q0 47 -25.5 75t-69.5 28q-99 0 -135 -157l-112 -519h-44l115 532q20 93 66 139q47 47 112 47q61 0 100 -40t39 -103q0 -75 -45.5 -132t-123.5 -80q117 -50 117 -160q0 -91 -66.5 -150.5
t-186.5 -54.5z" />
    <glyph glyph-name="agrave" unicode="&#xe0;" horiz-adv-x="411" 
d="M131 -10q-55 0 -89 37t-34 102q0 88 58 146q50 50 127 50q58 0 124 -27l4 20q10 53 10 77q0 42 -26 66t-77 24q-55 0 -103 -23l-15 38q59 27 120 27q69 0 107 -34t38 -92q0 -29 -12 -88l-67 -313h-44l17 76q-59 -86 -138 -86zM141 29q53 0 94.5 43.5t56.5 109.5l17 77
q-54 27 -116 27q-58 0 -94 -36q-46 -46 -46 -119q0 -48 23.5 -75t64.5 -27zM240 585l-79 100l49 27l61 -127h-31z" />
    <glyph glyph-name="aacute" unicode="&#xe1;" horiz-adv-x="411" 
d="M131 -10q-55 0 -89 37t-34 102q0 88 58 146q50 50 127 50q58 0 124 -27l4 20q10 53 10 77q0 42 -26 66t-77 24q-55 0 -103 -23l-15 38q59 27 120 27q69 0 107 -34t38 -92q0 -29 -12 -88l-67 -313h-44l17 76q-59 -86 -138 -86zM141 29q53 0 94.5 43.5t56.5 109.5l17 77
q-54 27 -116 27q-58 0 -94 -36q-46 -46 -46 -119q0 -48 23.5 -75t64.5 -27zM238 585l100 127l49 -27l-111 -100h-38z" />
    <glyph glyph-name="acircumflex" unicode="&#xe2;" horiz-adv-x="411" 
d="M131 -10q-55 0 -89 37t-34 102q0 88 58 146q50 50 127 50q58 0 124 -27l4 20q10 53 10 77q0 42 -26 66t-77 24q-55 0 -103 -23l-15 38q59 27 120 27q69 0 107 -34t38 -92q0 -29 -12 -88l-67 -313h-44l17 76q-59 -86 -138 -86zM141 29q53 0 94.5 43.5t56.5 109.5l17 77
q-54 27 -116 27q-58 0 -94 -36q-46 -46 -46 -119q0 -48 23.5 -75t64.5 -27zM166 588l103 122h36l49 -122h-37l-38 73l-73 -73h-40z" />
    <glyph glyph-name="atilde" unicode="&#xe3;" horiz-adv-x="411" 
d="M131 -10q-55 0 -89 37t-34 102q0 88 58 146q50 50 127 50q58 0 124 -27l4 20q10 53 10 77q0 42 -26 66t-77 24q-55 0 -103 -23l-15 38q59 27 120 27q69 0 107 -34t38 -92q0 -29 -12 -88l-67 -313h-44l17 76q-59 -86 -138 -86zM141 29q53 0 94.5 43.5t56.5 109.5l17 77
q-54 27 -116 27q-58 0 -94 -36q-46 -46 -46 -119q0 -48 23.5 -75t64.5 -27zM360 675l31 -9q-17 -42 -34.5 -61t-41.5 -19q-23 0 -49 24q-26 23 -39 23q-21 0 -42 -48l-30 9q31 81 75 81q21 0 50 -24q24 -23 39 -23q21 0 41 47z" />
    <glyph glyph-name="adieresis" unicode="&#xe4;" horiz-adv-x="411" 
d="M131 -10q-55 0 -89 37t-34 102q0 88 58 146q50 50 127 50q58 0 124 -27l4 20q10 53 10 77q0 42 -26 66t-77 24q-55 0 -103 -23l-15 38q59 27 120 27q69 0 107 -34t38 -92q0 -29 -12 -88l-67 -313h-44l17 76q-59 -86 -138 -86zM141 29q53 0 94.5 43.5t56.5 109.5l17 77
q-54 27 -116 27q-58 0 -94 -36q-46 -46 -46 -119q0 -48 23.5 -75t64.5 -27zM180 592l15 70h53l-15 -70h-53zM298 592l15 70h53l-15 -70h-53z" />
    <glyph glyph-name="aring" unicode="&#xe5;" horiz-adv-x="411" 
d="M131 -10q-55 0 -89 37t-34 102q0 88 58 146q50 50 127 50q58 0 124 -27l4 20q10 53 10 77q0 42 -26 66t-77 24q-55 0 -103 -23l-15 38q59 27 120 27q69 0 107 -34t38 -92q0 -29 -12 -88l-67 -313h-44l17 76q-59 -86 -138 -86zM141 29q53 0 94.5 43.5t56.5 109.5l17 77
q-54 27 -116 27q-58 0 -94 -36q-46 -46 -46 -119q0 -48 23.5 -75t64.5 -27zM369 677q0 -38 -27.5 -65t-67.5 -27q-35 0 -57.5 22t-22.5 55q0 38 28 65.5t67 27.5q35 0 57.5 -22.5t22.5 -55.5zM225 664q0 -22 13.5 -37t37.5 -15q27 0 44.5 18.5t17.5 44.5q0 23 -13.5 37.5
t-36.5 14.5q-27 0 -45 -18.5t-18 -44.5z" />
    <glyph glyph-name="ae" unicode="&#xe6;" horiz-adv-x="682" 
d="M461 -8q-117 0 -149 124q-78 -126 -176 -126q-58 0 -93 37t-35 102q0 88 58 146q50 50 127 50q58 0 124 -27l4 20q10 53 10 77q0 42 -26 66t-77 24q-55 0 -103 -23l-15 38q59 27 120 27q60 0 95.5 -27t43.5 -76q64 106 154 106q61 0 95.5 -45.5t34.5 -123.5
q0 -51 -17 -118h-292q-3 -27 -3 -52q0 -75 33 -116.5t87 -41.5t108 40l20 -36q-67 -45 -128 -45zM143 29q48 0 86.5 35.5t74.5 97.5q-3 51 5 96q-53 28 -116 28q-58 0 -94 -36q-46 -46 -46 -119q0 -48 24 -75t66 -27zM434 449q-58 -56 -83 -167h249q10 37 10 80
q0 58 -22.5 92.5t-67.5 34.5q-46 0 -86 -40z" />
    <glyph glyph-name="ccedilla" unicode="&#xe7;" horiz-adv-x="363" 
d="M102 -121l-45 22l81 96q-50 13 -79.5 60t-29.5 123q0 81 29.5 161.5t78.5 129.5q58 58 126 58q70 0 119 -59l-32 -31q-43 49 -90 49t-90 -43t-69 -116.5t-26 -140.5q0 -78 30 -116.5t76 -38.5q43 0 88 35l23 -34q-51 -42 -113 -42h-6z" />
    <glyph glyph-name="egrave" unicode="&#xe8;" horiz-adv-x="416" 
d="M370 243h-292q-3 -27 -3 -52q0 -75 33 -116.5t87 -41.5t108 40l20 -36q-68 -45 -130 -45q-73 0 -117.5 51.5t-44.5 146.5q0 81 29 159t77 125q54 56 120 56q61 0 95.5 -45.5t34.5 -123.5q0 -51 -17 -118zM168 449q-58 -56 -83 -167h249q9 33 9 80q0 58 -22.5 92.5
t-66.5 34.5q-46 0 -86 -40zM256 585l-79 100l49 27l61 -127h-31z" />
    <glyph glyph-name="eacute" unicode="&#xe9;" horiz-adv-x="416" 
d="M370 243h-292q-3 -27 -3 -52q0 -75 33 -116.5t87 -41.5t108 40l20 -36q-68 -45 -130 -45q-73 0 -117.5 51.5t-44.5 146.5q0 81 29 159t77 125q54 56 120 56q61 0 95.5 -45.5t34.5 -123.5q0 -51 -17 -118zM168 449q-58 -56 -83 -167h249q9 33 9 80q0 58 -22.5 92.5
t-66.5 34.5q-46 0 -86 -40zM253 585l100 127l49 -27l-111 -100h-38z" />
    <glyph glyph-name="ecircumflex" unicode="&#xea;" horiz-adv-x="416" 
d="M370 243h-292q-3 -27 -3 -52q0 -75 33 -116.5t87 -41.5t108 40l20 -36q-68 -45 -130 -45q-73 0 -117.5 51.5t-44.5 146.5q0 81 29 159t77 125q54 56 120 56q61 0 95.5 -45.5t34.5 -123.5q0 -51 -17 -118zM168 449q-58 -56 -83 -167h249q9 33 9 80q0 58 -22.5 92.5
t-66.5 34.5q-46 0 -86 -40zM182 588l103 122h36l49 -122h-37l-38 73l-73 -73h-40z" />
    <glyph glyph-name="edieresis" unicode="&#xeb;" horiz-adv-x="416" 
d="M370 243h-292q-3 -27 -3 -52q0 -75 33 -116.5t87 -41.5t108 40l20 -36q-68 -45 -130 -45q-73 0 -117.5 51.5t-44.5 146.5q0 81 29 159t77 125q54 56 120 56q61 0 95.5 -45.5t34.5 -123.5q0 -51 -17 -118zM168 449q-58 -56 -83 -167h249q9 33 9 80q0 58 -22.5 92.5
t-66.5 34.5q-46 0 -86 -40zM312 592l15 70h53l-15 -70h-53zM194 592l15 70h53l-15 -70h-53z" />
    <glyph glyph-name="igrave" unicode="&#xec;" horiz-adv-x="186" 
d="M15 0l112 521h44l-112 -521h-44zM142 582l-79 100l49 27l61 -127h-31z" />
    <glyph glyph-name="iacute" unicode="&#xed;" horiz-adv-x="186" 
d="M140 582l100 127l49 -27l-111 -100h-38zM15 0l112 521h44l-112 -521h-44z" />
    <glyph glyph-name="icircumflex" unicode="&#xee;" horiz-adv-x="186" 
d="M68 585l103 122h36l49 -122h-37l-38 73l-73 -73h-40zM15 0l112 521h44l-112 -521h-44z" />
    <glyph glyph-name="idieresis" unicode="&#xef;" horiz-adv-x="186" 
d="M81 589l15 70h53l-15 -70h-53zM199 589l15 70h53l-15 -70h-53zM15 0l112 521h44l-112 -521h-44z" />
    <glyph glyph-name="eth" unicode="&#xf0;" horiz-adv-x="438" 
d="M201 574l-15 34l95 42q-16 26 -42 64h51l28 -47l86 38l15 -33l-83 -37q74 -140 74 -270q0 -103 -30.5 -187.5t-76.5 -130.5q-55 -56 -125 -56q-66 0 -106 52.5t-40 140.5q0 85 28.5 164.5t72.5 123.5q54 54 119 54q72 0 114 -77q-16 79 -66 169zM182 32q49 0 91 42
q38 38 63 112.5t25 148.5q0 69 -29.5 110t-78.5 41t-87 -40q-39 -38 -64 -113.5t-25 -149.5q0 -70 28 -110.5t77 -40.5z" />
    <glyph glyph-name="ntilde" unicode="&#xf1;" horiz-adv-x="441" 
d="M9 0l113 521h44l-18 -83q61 92 142 92q52 0 83.5 -32.5t31.5 -91.5q0 -38 -10 -87l-69 -319h-44l70 323q9 43 9 80q0 42 -22 65t-62 23q-51 0 -94 -45.5t-57 -110.5l-73 -335h-44zM385 675l31 -9q-17 -42 -34.5 -61t-41.5 -19q-23 0 -49 24q-26 23 -39 23q-21 0 -42 -48
l-30 9q31 81 75 81q21 0 50 -24q24 -23 39 -23q21 0 41 47z" />
    <glyph glyph-name="ograve" unicode="&#xf2;" horiz-adv-x="441" 
d="M262 530q67 0 107 -52.5t40 -142.5q0 -84 -27.5 -161.5t-75.5 -125.5q-57 -57 -127 -57q-67 0 -107 52.5t-40 142.5q0 84 27.5 161.5t75.5 125.5q57 57 127 57zM182 32q48 0 91 43q42 42 66.5 114t24.5 144q0 75 -28 115.5t-77 40.5q-48 0 -91 -43q-42 -42 -66.5 -114
t-24.5 -144q0 -75 28 -115.5t77 -40.5zM264 585l-79 100l49 27l61 -127h-31z" />
    <glyph glyph-name="oacute" unicode="&#xf3;" horiz-adv-x="441" 
d="M261 585l100 127l49 -27l-111 -100h-38zM262 530q67 0 107 -52.5t40 -142.5q0 -84 -27.5 -161.5t-75.5 -125.5q-57 -57 -127 -57q-67 0 -107 52.5t-40 142.5q0 84 27.5 161.5t75.5 125.5q57 57 127 57zM182 32q48 0 91 43q42 42 66.5 114t24.5 144q0 75 -28 115.5
t-77 40.5q-48 0 -91 -43q-42 -42 -66.5 -114t-24.5 -144q0 -75 28 -115.5t77 -40.5z" />
    <glyph glyph-name="ocircumflex" unicode="&#xf4;" horiz-adv-x="441" 
d="M190 588l103 122h36l49 -122h-37l-38 73l-73 -73h-40zM262 530q67 0 107 -52.5t40 -142.5q0 -84 -27.5 -161.5t-75.5 -125.5q-57 -57 -127 -57q-67 0 -107 52.5t-40 142.5q0 84 27.5 161.5t75.5 125.5q57 57 127 57zM182 32q48 0 91 43q42 42 66.5 114t24.5 144
q0 75 -28 115.5t-77 40.5q-48 0 -91 -43q-42 -42 -66.5 -114t-24.5 -144q0 -75 28 -115.5t77 -40.5z" />
    <glyph glyph-name="otilde" unicode="&#xf5;" horiz-adv-x="441" 
d="M262 530q67 0 107 -52.5t40 -142.5q0 -84 -27.5 -161.5t-75.5 -125.5q-57 -57 -127 -57q-67 0 -107 52.5t-40 142.5q0 84 27.5 161.5t75.5 125.5q57 57 127 57zM182 32q48 0 91 43q42 42 66.5 114t24.5 144q0 75 -28 115.5t-77 40.5q-48 0 -91 -43q-42 -42 -66.5 -114
t-24.5 -144q0 -75 28 -115.5t77 -40.5zM384 675l31 -9q-17 -42 -34.5 -61t-41.5 -19q-23 0 -49 24q-26 23 -39 23q-21 0 -42 -48l-30 9q31 81 75 81q21 0 50 -24q24 -23 39 -23q21 0 41 47z" />
    <glyph glyph-name="odieresis" unicode="&#xf6;" horiz-adv-x="441" 
d="M203 592l15 70h53l-15 -70h-53zM321 592l15 70h53l-15 -70h-53zM262 530q67 0 107 -52.5t40 -142.5q0 -84 -27.5 -161.5t-75.5 -125.5q-57 -57 -127 -57q-67 0 -107 52.5t-40 142.5q0 84 27.5 161.5t75.5 125.5q57 57 127 57zM182 32q48 0 91 43q42 42 66.5 114t24.5 144
q0 75 -28 115.5t-77 40.5q-48 0 -91 -43q-42 -42 -66.5 -114t-24.5 -144q0 -75 28 -115.5t77 -40.5z" />
    <glyph glyph-name="divide" unicode="&#xf7;" horiz-adv-x="438" 
d="M167 163l17 77h63l-17 -77h-63zM58 329l10 46h353l-10 -46h-353zM232 464l17 77h63l-17 -77h-63z" />
    <glyph glyph-name="oslash" unicode="&#xf8;" horiz-adv-x="441" 
d="M262 530q69 0 108 -55l45 50h49l-74 -86q19 -46 19 -104q0 -84 -27.5 -161.5t-75.5 -125.5q-57 -57 -127 -57q-71 0 -109 55l-44 -51h-49l73 86q-18 43 -18 105q0 84 27.5 161.5t75.5 125.5q57 57 127 57zM259 490q-48 0 -92 -44q-42 -42 -66.5 -113.5t-24.5 -144.5
q0 -40 7 -67l260 318q-29 51 -84 51zM365 333q0 36 -8 66l-259 -317q27 -51 84 -51q48 0 92 44q42 42 66.5 113.5t24.5 144.5z" />
    <glyph glyph-name="ugrave" unicode="&#xf9;" horiz-adv-x="441" 
d="M152 -9q-52 0 -83.5 32.5t-31.5 91.5q0 38 10 87l69 319h44l-70 -323q-9 -43 -9 -80q0 -42 22 -65t62 -23q51 0 94 45.5t57 110.5l73 335h44l-113 -521h-44l18 83q-61 -92 -142 -92zM262 579l-79 100l49 27l61 -127h-31z" />
    <glyph glyph-name="uacute" unicode="&#xfa;" horiz-adv-x="441" 
d="M259 579l100 127l49 -27l-111 -100h-38zM152 -9q-52 0 -83.5 32.5t-31.5 91.5q0 38 10 87l69 319h44l-70 -323q-9 -43 -9 -80q0 -42 22 -65t62 -23q51 0 94 45.5t57 110.5l73 335h44l-113 -521h-44l18 83q-61 -92 -142 -92z" />
    <glyph glyph-name="ucircumflex" unicode="&#xfb;" horiz-adv-x="441" 
d="M188 582l103 122h36l49 -122h-37l-38 73l-73 -73h-40zM152 -9q-52 0 -83.5 32.5t-31.5 91.5q0 38 10 87l69 319h44l-70 -323q-9 -43 -9 -80q0 -42 22 -65t62 -23q51 0 94 45.5t57 110.5l73 335h44l-113 -521h-44l18 83q-61 -92 -142 -92z" />
    <glyph glyph-name="udieresis" unicode="&#xfc;" horiz-adv-x="441" 
d="M200 586l15 70h53l-15 -70h-53zM318 586l15 70h53l-15 -70h-53zM152 -9q-52 0 -83.5 32.5t-31.5 91.5q0 38 10 87l69 319h44l-70 -323q-9 -43 -9 -80q0 -42 22 -65t62 -23q51 0 94 45.5t57 110.5l73 335h44l-113 -521h-44l18 83q-61 -92 -142 -92z" />
    <glyph glyph-name="yacute" unicode="&#xfd;" horiz-adv-x="408" 
d="M126 1l-49 520h45l38 -457l225 457h48l-265 -528q-38 -75 -69.5 -105t-69.5 -30q-42 0 -74 28l22 39q28 -24 54 -24q23 0 43.5 21t51.5 79zM233 579l100 127l49 -27l-111 -100h-38z" />
    <glyph glyph-name="thorn" unicode="&#xfe;" horiz-adv-x="457" 
d="M208 714l-62 -284q66 100 148 100q60 0 95.5 -50t35.5 -139q0 -83 -28 -165.5t-80 -134.5q-50 -50 -111 -50q-51 0 -83.5 34.5t-44.5 89.5l-55 -254h-44l185 853h44zM205 31q44 0 81 37q43 43 68.5 118t25.5 151q0 72 -24.5 113t-72.5 41q-47 0 -91 -44
q-42 -42 -67.5 -117t-25.5 -147q0 -69 30 -110.5t76 -41.5z" />
    <glyph glyph-name="ydieresis" unicode="&#xff;" horiz-adv-x="408" 
d="M126 1l-49 520h45l38 -457l225 457h48l-265 -528q-38 -75 -69.5 -105t-69.5 -30q-42 0 -74 28l22 39q28 -24 54 -24q23 0 43.5 21t51.5 79zM174 586l15 70h53l-15 -70h-53zM292 586l15 70h53l-15 -70h-53z" />
    <glyph glyph-name="Amacron" unicode="&#x100;" horiz-adv-x="532" 
d="M-25 0l366 704h49l60 -704h-47l-15 196h-263l-101 -196h-49zM146 238h238l-31 401zM267 772l9 43h233l-9 -43h-233z" />
    <glyph glyph-name="amacron" unicode="&#x101;" horiz-adv-x="411" 
d="M131 -10q-55 0 -89 37t-34 102q0 88 58 146q50 50 127 50q58 0 124 -27l4 20q10 53 10 77q0 42 -26 66t-77 24q-55 0 -103 -23l-15 38q59 27 120 27q69 0 107 -34t38 -92q0 -29 -12 -88l-67 -313h-44l17 76q-59 -86 -138 -86zM141 29q53 0 94.5 43.5t56.5 109.5l17 77
q-54 27 -116 27q-58 0 -94 -36q-46 -46 -46 -119q0 -48 23.5 -75t64.5 -27zM159 601l9 41h216l-9 -41h-216z" />
    <glyph glyph-name="Abreve" unicode="&#x102;" horiz-adv-x="532" 
d="M-25 0l366 704h49l60 -704h-47l-15 196h-263l-101 -196h-49zM146 238h238l-31 401zM380 756q-45 0 -71 22.5t-22 63.5h38q6 -43 61 -43q53 0 76 43h40q-13 -41 -45.5 -63.5t-76.5 -22.5z" />
    <glyph glyph-name="abreve" unicode="&#x103;" horiz-adv-x="411" 
d="M131 -10q-55 0 -89 37t-34 102q0 88 58 146q50 50 127 50q58 0 124 -27l4 20q10 53 10 77q0 42 -26 66t-77 24q-55 0 -103 -23l-15 38q59 27 120 27q69 0 107 -34t38 -92q0 -29 -12 -88l-67 -313h-44l17 76q-59 -86 -138 -86zM141 29q53 0 94.5 43.5t56.5 109.5l17 77
q-54 27 -116 27q-58 0 -94 -36q-46 -46 -46 -119q0 -48 23.5 -75t64.5 -27zM265 586q-45 0 -69 25.5t-17 73.5h36q-3 -57 54 -57q53 0 81 57h38q-33 -99 -123 -99z" />
    <glyph glyph-name="Aogonek" unicode="&#x104;" horiz-adv-x="532" 
d="M432 -99l-7 -33q-83 1 -83 52q0 35 61 80l-15 196h-263l-101 -196h-49l366 704h49l60 -704h-11q-30 -28 -42 -42.5t-12 -27.5q0 -25 47 -29zM146 238h238l-31 401z" />
    <glyph glyph-name="aogonek" unicode="&#x105;" horiz-adv-x="411" 
d="M282 -99l-7 -33q-83 1 -83 52q0 35 61 80h-1l17 76q-59 -86 -138 -86q-55 0 -89 37t-34 102q0 88 58 146q50 50 127 50q58 0 124 -27l4 20q10 53 10 77q0 42 -26 66t-77 24q-55 0 -103 -23l-15 38q59 27 120 27q69 0 107 -34t38 -92q0 -29 -12 -88l-67 -313h-7
q-30 -28 -42 -42.5t-12 -27.5q0 -25 47 -29zM141 29q53 0 94.5 43.5t56.5 109.5l17 77q-54 27 -116 27q-58 0 -94 -36q-46 -46 -46 -119q0 -48 23.5 -75t64.5 -27z" />
    <glyph glyph-name="Cacute" unicode="&#x106;" horiz-adv-x="471" 
d="M253 -8q-88 0 -140.5 66.5t-52.5 184.5q0 107 36.5 216t103.5 176q73 73 162 73q84 0 147 -80l-35 -29q-53 65 -114 65q-68 0 -125 -57t-92.5 -159t-35.5 -204q0 -97 39 -152.5t108 -55.5q60 0 122 52l25 -34q-73 -62 -148 -62zM346 755l96 109l51 -25l-106 -84h-41z" />
    <glyph glyph-name="cacute" unicode="&#x107;" horiz-adv-x="363" 
d="M249 585l100 127l49 -27l-111 -100h-38zM179 -8q-67 0 -108.5 48.5t-41.5 139.5q0 81 29.5 161.5t78.5 129.5q58 58 126 58q70 0 119 -59l-32 -31q-43 49 -90 49t-90 -43t-69 -116.5t-26 -140.5q0 -78 30 -116.5t76 -38.5q43 0 88 35l23 -34q-51 -42 -113 -42z" />
    <glyph glyph-name="Cdotaccent" unicode="&#x10a;" horiz-adv-x="471" 
d="M344 761l14 68h60l-14 -68h-60zM253 -8q-88 0 -140.5 66.5t-52.5 184.5q0 107 36.5 216t103.5 176q73 73 162 73q84 0 147 -80l-35 -29q-53 65 -114 65q-68 0 -125 -57t-92.5 -159t-35.5 -204q0 -97 39 -152.5t108 -55.5q60 0 122 52l25 -34q-73 -62 -148 -62z" />
    <glyph glyph-name="cdotaccent" unicode="&#x10b;" horiz-adv-x="363" 
d="M179 -8q-67 0 -108.5 48.5t-41.5 139.5q0 81 29.5 161.5t78.5 129.5q58 58 126 58q70 0 119 -59l-32 -31q-43 49 -90 49t-90 -43t-69 -116.5t-26 -140.5q0 -78 30 -116.5t76 -38.5q43 0 88 35l23 -34q-51 -42 -113 -42zM247 591l16 72h54l-16 -72h-54z" />
    <glyph glyph-name="Ccaron" unicode="&#x10c;" horiz-adv-x="471" 
d="M253 -8q-88 0 -140.5 66.5t-52.5 184.5q0 107 36.5 216t103.5 176q73 73 162 73q84 0 147 -80l-35 -29q-53 65 -114 65q-68 0 -125 -57t-92.5 -159t-35.5 -204q0 -97 39 -152.5t108 -55.5q60 0 122 52l25 -34q-73 -62 -148 -62zM499 859l-104 -101h-42l-61 101h43l47 -60
l71 60h46z" />
    <glyph glyph-name="ccaron" unicode="&#x10d;" horiz-adv-x="363" 
d="M249 588l-50 122h38l38 -73l73 73h40l-103 -122h-36zM179 -8q-67 0 -108.5 48.5t-41.5 139.5q0 81 29.5 161.5t78.5 129.5q58 58 126 58q70 0 119 -59l-32 -31q-43 49 -90 49t-90 -43t-69 -116.5t-26 -140.5q0 -78 30 -116.5t76 -38.5q43 0 88 35l23 -34
q-51 -42 -113 -42z" />
    <glyph glyph-name="Dcaron" unicode="&#x10e;" horiz-adv-x="530" 
d="M17 0l152 700h97q111 0 175 -64q68 -68 68 -204q0 -85 -31.5 -179.5t-95.5 -158.5q-94 -94 -238 -94h-127zM405 605q-52 52 -142 52h-57l-133 -614h80q115 0 195 80q56 56 85 142.5t29 163.5q0 119 -57 176zM465 853l-104 -101h-42l-61 101h43l47 -60l71 60h46z" />
    <glyph glyph-name="dcaron" unicode="&#x10f;" horiz-adv-x="457" 
d="M500 565l43 149h45v-3l-65 -146h-23zM293 0l20 91q-66 -100 -148 -100q-60 0 -95.5 50t-35.5 139q0 83 28 165.5t80 134.5q50 50 111 50q51 0 83.5 -34.5t44.5 -89.5l67 308h44l-155 -714h-44zM176 30q47 0 91 44q42 42 67.5 117t25.5 147q0 69 -30 110.5t-76 41.5
q-44 0 -81 -37q-43 -43 -68.5 -118t-25.5 -151q0 -72 24.5 -113t72.5 -41z" />
    <glyph glyph-name="Dcroat" unicode="&#x110;" horiz-adv-x="544" 
d="M41 331l9 42h62l71 327h97q111 0 175 -64q68 -68 68 -204q0 -85 -31.5 -179.5t-95.5 -158.5q-94 -94 -238 -94h-127l72 331h-62zM419 605q-52 52 -142 52h-57l-61 -284h139l-10 -42h-138l-63 -288h80q115 0 195 80q56 56 85 142.5t29 163.5q0 119 -57 176z" />
    <glyph glyph-name="dcroat" unicode="&#x111;" horiz-adv-x="457" 
d="M295 605l9 38h128l16 71h44l-16 -71h55l-9 -38h-54l-131 -605h-44l20 91q-66 -100 -148 -100q-60 0 -95.5 50t-35.5 139q0 83 28 165.5t80 134.5q50 50 111 50q51 0 83.5 -34.5t44.5 -89.5l43 199h-129zM176 30q47 0 91 44q42 42 67.5 117t25.5 147q0 69 -30 110.5
t-76 41.5q-44 0 -81 -37q-43 -43 -68.5 -118t-25.5 -151q0 -72 24.5 -113t72.5 -41z" />
    <glyph glyph-name="Emacron" unicode="&#x112;" horiz-adv-x="438" 
d="M225 766l9 43h233l-9 -43h-233zM17 0l152 700h327l-9 -43h-280l-62 -283h254l-10 -42h-253l-63 -289h285l-10 -43h-331z" />
    <glyph glyph-name="emacron" unicode="&#x113;" horiz-adv-x="416" 
d="M370 243h-292q-3 -27 -3 -52q0 -75 33 -116.5t87 -41.5t108 40l20 -36q-68 -45 -130 -45q-73 0 -117.5 51.5t-44.5 146.5q0 81 29 159t77 125q54 56 120 56q61 0 95.5 -45.5t34.5 -123.5q0 -51 -17 -118zM168 449q-58 -56 -83 -167h249q9 33 9 80q0 58 -22.5 92.5
t-66.5 34.5q-46 0 -86 -40zM174 601l9 41h216l-9 -41h-216z" />
    <glyph glyph-name="Ebreve" unicode="&#x114;" horiz-adv-x="438" 
d="M339 750q-45 0 -71 22.5t-22 63.5h38q6 -43 61 -43q53 0 76 43h40q-13 -41 -45.5 -63.5t-76.5 -22.5zM17 0l152 700h327l-9 -43h-280l-62 -283h254l-10 -42h-253l-63 -289h285l-10 -43h-331z" />
    <glyph glyph-name="ebreve" unicode="&#x115;" horiz-adv-x="416" 
d="M370 243h-292q-3 -27 -3 -52q0 -75 33 -116.5t87 -41.5t108 40l20 -36q-68 -45 -130 -45q-73 0 -117.5 51.5t-44.5 146.5q0 81 29 159t77 125q54 56 120 56q61 0 95.5 -45.5t34.5 -123.5q0 -51 -17 -118zM168 449q-58 -56 -83 -167h249q9 33 9 80q0 58 -22.5 92.5
t-66.5 34.5q-46 0 -86 -40zM280 586q-45 0 -69 25.5t-17 73.5h36q-3 -57 54 -57q53 0 81 57h38q-33 -99 -123 -99z" />
    <glyph glyph-name="Edotaccent" unicode="&#x116;" horiz-adv-x="438" 
d="M309 755l14 68h60l-14 -68h-60zM17 0l152 700h327l-9 -43h-280l-62 -283h254l-10 -42h-253l-63 -289h285l-10 -43h-331z" />
    <glyph glyph-name="edotaccent" unicode="&#x117;" horiz-adv-x="416" 
d="M370 243h-292q-3 -27 -3 -52q0 -75 33 -116.5t87 -41.5t108 40l20 -36q-68 -45 -130 -45q-73 0 -117.5 51.5t-44.5 146.5q0 81 29 159t77 125q54 56 120 56q61 0 95.5 -45.5t34.5 -123.5q0 -51 -17 -118zM168 449q-58 -56 -83 -167h249q9 33 9 80q0 58 -22.5 92.5
t-66.5 34.5q-46 0 -86 -40zM252 591l16 72h54l-16 -72h-54z" />
    <glyph glyph-name="Eogonek" unicode="&#x118;" horiz-adv-x="438" 
d="M17 0l152 700h327l-9 -43h-280l-62 -283h254l-10 -42h-253l-63 -289h285l-10 -43h-10q-30 -28 -42 -42.5t-12 -27.5q0 -25 47 -29l-7 -33q-83 1 -83 52q0 35 61 80h-285z" />
    <glyph glyph-name="eogonek" unicode="&#x119;" horiz-adv-x="416" 
d="M303 73l20 -36q-55 -38 -77 -60q-28 -28 -28 -47q0 -25 47 -29l-7 -33h-1q-82 1 -82 52q0 35 54 76q-16 -4 -36 -4q-73 0 -117.5 51.5t-44.5 146.5q0 81 29 159t77 125q54 56 120 56q61 0 95.5 -45.5t34.5 -123.5q0 -51 -17 -118h-292q-3 -27 -3 -52q0 -75 33 -116.5
t87 -41.5t108 40zM168 449q-58 -56 -83 -167h249q9 33 9 80q0 58 -22.5 92.5t-66.5 34.5q-46 0 -86 -40z" />
    <glyph glyph-name="Ecaron" unicode="&#x11a;" horiz-adv-x="438" 
d="M464 853l-104 -101h-42l-61 101h43l47 -60l71 60h46zM17 0l152 700h327l-9 -43h-280l-62 -283h254l-10 -42h-253l-63 -289h285l-10 -43h-331z" />
    <glyph glyph-name="ecaron" unicode="&#x11b;" horiz-adv-x="416" 
d="M370 243h-292q-3 -27 -3 -52q0 -75 33 -116.5t87 -41.5t108 40l20 -36q-68 -45 -130 -45q-73 0 -117.5 51.5t-44.5 146.5q0 81 29 159t77 125q54 56 120 56q61 0 95.5 -45.5t34.5 -123.5q0 -51 -17 -118zM168 449q-58 -56 -83 -167h249q9 33 9 80q0 58 -22.5 92.5
t-66.5 34.5q-46 0 -86 -40zM255 588l-50 122h38l38 -73l73 73h40l-103 -122h-36z" />
    <glyph glyph-name="Gbreve" unicode="&#x11e;" horiz-adv-x="531" 
d="M398 756q-45 0 -71 22.5t-22 63.5h38q6 -43 61 -43q53 0 76 43h40q-13 -41 -45.5 -63.5t-76.5 -22.5zM272 -9q-96 0 -154 71.5t-58 190.5q0 103 37 204t103 167q84 84 187 84q92 0 154 -70l-34 -33q-47 59 -125 59q-79 0 -150 -71q-58 -58 -91 -151.5t-33 -188.5
q0 -100 46 -160t122 -60q58 0 102 29l55 255h-149l10 43h194l-71 -325q-70 -44 -145 -44z" />
    <glyph glyph-name="gbreve" unicode="&#x11f;" horiz-adv-x="457" 
d="M152 -141q-87 0 -163 48l21 39q67 -46 146 -46q61 0 100 39q30 30 46 99l19 90q-28 -43 -67.5 -70t-82.5 -27q-59 0 -95.5 48t-36.5 133q0 67 26 141.5t73 121.5q55 55 116 55q52 0 83.5 -34t43.5 -88l25 113h44l-105 -485q-19 -86 -58 -125q-52 -52 -135 -52zM180 71
q55 0 99 44q33 33 58 94t25 133q0 66 -29.5 107t-76.5 41q-45 0 -87 -42q-39 -39 -62.5 -107t-23.5 -129q0 -67 26.5 -104t70.5 -37zM301 586q-45 0 -69 25.5t-17 73.5h36q-3 -57 54 -57q53 0 81 57h38q-33 -99 -123 -99z" />
    <glyph glyph-name="Gdotaccent" unicode="&#x120;" horiz-adv-x="531" 
d="M368 761l14 68h60l-14 -68h-60zM272 -9q-96 0 -154 71.5t-58 190.5q0 103 37 204t103 167q84 84 187 84q92 0 154 -70l-34 -33q-47 59 -125 59q-79 0 -150 -71q-58 -58 -91 -151.5t-33 -188.5q0 -100 46 -160t122 -60q58 0 102 29l55 255h-149l10 43h194l-71 -325
q-70 -44 -145 -44z" />
    <glyph glyph-name="gdotaccent" unicode="&#x121;" horiz-adv-x="457" 
d="M152 -141q-87 0 -163 48l21 39q67 -46 146 -46q61 0 100 39q30 30 46 99l19 90q-28 -43 -67.5 -70t-82.5 -27q-59 0 -95.5 48t-36.5 133q0 67 26 141.5t73 121.5q55 55 116 55q52 0 83.5 -34t43.5 -88l25 113h44l-105 -485q-19 -86 -58 -125q-52 -52 -135 -52zM180 71
q55 0 99 44q33 33 58 94t25 133q0 66 -29.5 107t-76.5 41q-45 0 -87 -42q-39 -39 -62.5 -107t-23.5 -129q0 -67 26.5 -104t70.5 -37zM273 591l16 72h54l-16 -72h-54z" />
    <glyph glyph-name="Gcommaaccent" unicode="&#x122;" horiz-adv-x="531" 
d="M171 -197l-6 21q25 10 35 20.5t13 31.5h-24l13 62h56l-13 -59q-8 -34 -23.5 -49.5t-50.5 -26.5zM272 -9q-96 0 -154 71.5t-58 190.5q0 103 37 204t103 167q84 84 187 84q92 0 154 -70l-34 -33q-47 59 -125 59q-79 0 -150 -71q-58 -58 -91 -151.5t-33 -188.5
q0 -100 46 -160t122 -60q58 0 102 29l55 255h-149l10 43h194l-71 -325q-70 -44 -145 -44z" />
    <glyph glyph-name="gcommaaccent" unicode="&#x123;" horiz-adv-x="457" 
d="M356 723l6 -21q-25 -10 -35 -20.5t-13 -31.5h24l-13 -62h-56l13 59q8 34 23.5 49.5t50.5 26.5zM152 -141q-87 0 -163 48l21 39q67 -46 146 -46q61 0 100 39q30 30 46 99l19 90q-28 -43 -67.5 -70t-82.5 -27q-59 0 -95.5 48t-36.5 133q0 67 26 141.5t73 121.5
q55 55 116 55q52 0 83.5 -34t43.5 -88l25 113h44l-105 -485q-19 -86 -58 -125q-52 -52 -135 -52zM180 71q55 0 99 44q33 33 58 94t25 133q0 66 -29.5 107t-76.5 41q-45 0 -87 -42q-39 -39 -62.5 -107t-23.5 -129q0 -67 26.5 -104t70.5 -37z" />
    <glyph glyph-name="Hbar" unicode="&#x126;" horiz-adv-x="543" 
d="M74 539l10 40h62l27 121h47l-26 -121h295l26 121h47l-27 -121h62l-10 -40h-60l-117 -539h-47l72 329h-295l-72 -329h-47l117 539h-64zM149 372h295l36 168h-295z" />
    <glyph glyph-name="hbar" unicode="&#x127;" horiz-adv-x="441" 
d="M87 605l8 38h53l16 71h44l-16 -71h130l-8 -38h-130l-36 -167q61 92 142 92q52 0 83.5 -32.5t31.5 -91.5q0 -38 -10 -87l-69 -319h-44l70 323q9 43 9 80q0 42 -22 65t-62 23q-51 0 -94 -45.5t-57 -110.5l-73 -335h-44l131 605h-53z" />
    <glyph glyph-name="Imacron" unicode="&#x12a;" horiz-adv-x="206" 
d="M24 0l152 700h47l-152 -700h-47zM99 766l9 43h233l-9 -43h-233z" />
    <glyph glyph-name="imacron" unicode="&#x12b;" horiz-adv-x="186" 
d="M15 0l112 521h44l-112 -521h-44zM60 598l9 41h216l-9 -41h-216z" />
    <glyph glyph-name="Ibreve" unicode="&#x12c;" horiz-adv-x="206" 
d="M24 0l152 700h47l-152 -700h-47zM212 750q-45 0 -71 22.5t-22 63.5h38q6 -43 61 -43q53 0 76 43h40q-13 -41 -45.5 -63.5t-76.5 -22.5z" />
    <glyph glyph-name="ibreve" unicode="&#x12d;" horiz-adv-x="186" 
d="M15 0l112 521h44l-112 -521h-44zM167 583q-45 0 -69 25.5t-17 73.5h36q-3 -57 54 -57q53 0 81 57h38q-33 -99 -123 -99z" />
    <glyph glyph-name="Iogonek" unicode="&#x12e;" horiz-adv-x="206" 
d="M24 0l152 700h47l-152 -700h-6q-30 -28 -42 -42.5t-12 -27.5q0 -25 47 -29l-7 -33q-83 1 -83 52q0 35 61 80h-5z" />
    <glyph glyph-name="iogonek" unicode="&#x12f;" horiz-adv-x="186" 
d="M15 0l113 521h44l-113 -521h-5q-30 -28 -42 -42.5t-12 -27.5q0 -25 47 -29l-7 -33q-83 1 -83 52q0 35 61 80h-3zM151 639l15 69h50l-15 -69h-50z" />
    <glyph glyph-name="Idotaccent" unicode="&#x130;" horiz-adv-x="206" 
d="M24 0l152 700h47l-152 -700h-47zM183 755l14 68h60l-14 -68h-60z" />
    <glyph glyph-name="dotlessi" unicode="&#x131;" horiz-adv-x="186" 
d="M15 0l112 521h44l-112 -521h-44z" />
    <glyph glyph-name="Kcommaaccent" unicode="&#x136;" horiz-adv-x="490" 
d="M136 -196l-6 21q25 10 35 20.5t13 31.5h-24l13 62h56l-13 -59q-8 -34 -23.5 -49.5t-50.5 -26.5zM17 0l152 700h47l-91 -418l375 418h56l-283 -314l145 -386h-51l-130 346l-129 -144l-44 -202h-47z" />
    <glyph glyph-name="kcommaaccent" unicode="&#x137;" horiz-adv-x="390" 
d="M74 -194l-6 21q25 10 35 20.5t13 31.5h-24l13 62h56l-13 -59q-8 -34 -23.5 -49.5t-50.5 -26.5zM9 0l155 714h44l-106 -490l262 297h53l-195 -216l91 -305h-46l-79 267l-101 -111l-34 -156h-44z" />
    <glyph glyph-name="Lacute" unicode="&#x139;" horiz-adv-x="395" 
d="M186 749l96 109l51 -25l-106 -84h-41zM17 0l152 700h47l-143 -657h259l-10 -43h-305z" />
    <glyph glyph-name="lacute" unicode="&#x13a;" horiz-adv-x="186" 
d="M178 755l96 109l51 -25l-106 -84h-41zM15 0l155 714h44l-155 -714h-44z" />
    <glyph glyph-name="Lcommaaccent" unicode="&#x13b;" horiz-adv-x="395" 
d="M92 -197l-6 21q25 10 35 20.5t13 31.5h-24l13 62h56l-13 -59q-8 -34 -23.5 -49.5t-50.5 -26.5zM17 0l152 700h47l-143 -657h259l-10 -43h-305z" />
    <glyph glyph-name="lcommaaccent" unicode="&#x13c;" horiz-adv-x="186" 
d="M-32 -197l-6 21q25 10 35 20.5t13 31.5h-24l13 62h56l-13 -59q-8 -34 -23.5 -49.5t-50.5 -26.5zM15 0l155 714h44l-155 -714h-44z" />
    <glyph glyph-name="Lcaron" unicode="&#x13d;" horiz-adv-x="395" 
d="M237 550l43 149h45v-3l-65 -146h-23zM17 0l152 700h47l-143 -657h259l-10 -43h-305z" />
    <glyph glyph-name="lcaron" unicode="&#x13e;" horiz-adv-x="186" 
d="M224 565l43 149h45v-3l-65 -146h-23zM15 0l155 714h44l-155 -714h-44z" />
    <glyph glyph-name="Ldot" unicode="&#x13f;" horiz-adv-x="401" 
d="M285 325l16 72h58l-16 -72h-58zM17 0l152 700h47l-143 -657h259l-10 -43h-305z" />
    <glyph glyph-name="ldot" unicode="&#x140;" horiz-adv-x="238" 
d="M198 321l17 77h54l-17 -77h-54zM15 0l155 714h44l-155 -714h-44z" />
    <glyph glyph-name="Lslash" unicode="&#x141;" horiz-adv-x="416" 
d="M36 268l10 49l67 30l77 353h47l-72 -330l151 68l-10 -49l-151 -68l-61 -278h259l-10 -43h-305l64 298z" />
    <glyph glyph-name="lslash" unicode="&#x142;" horiz-adv-x="210" 
d="M28 291l10 50l70 34l74 339h44l-68 -314l71 35l-11 -49l-71 -35l-76 -351h-44l70 326z" />
    <glyph glyph-name="Nacute" unicode="&#x143;" horiz-adv-x="548" 
d="M352 744l96 109l51 -25l-106 -84h-41zM17 0l152 700h45l184 -600l130 600h45l-152 -700h-38l-188 615l-133 -615h-45z" />
    <glyph glyph-name="nacute" unicode="&#x144;" horiz-adv-x="441" 
d="M262 585l100 127l49 -27l-111 -100h-38zM9 0l113 521h44l-18 -83q61 92 142 92q52 0 83.5 -32.5t31.5 -91.5q0 -38 -10 -87l-69 -319h-44l70 323q9 43 9 80q0 42 -22 65t-62 23q-51 0 -94 -45.5t-57 -110.5l-73 -335h-44z" />
    <glyph glyph-name="Ncommaaccent" unicode="&#x145;" horiz-adv-x="548" 
d="M148 -196l-6 21q25 10 35 20.5t13 31.5h-24l13 62h56l-13 -59q-8 -34 -23.5 -49.5t-50.5 -26.5zM17 0l152 700h45l184 -600l130 600h45l-152 -700h-38l-188 615l-133 -615h-45z" />
    <glyph glyph-name="ncommaaccent" unicode="&#x146;" horiz-adv-x="441" 
d="M92 -194l-6 21q25 10 35 20.5t13 31.5h-24l13 62h56l-13 -59q-8 -34 -23.5 -49.5t-50.5 -26.5zM9 0l113 521h44l-18 -83q61 92 142 92q52 0 83.5 -32.5t31.5 -91.5q0 -38 -10 -87l-69 -319h-44l70 323q9 43 9 80q0 42 -22 65t-62 23q-51 0 -94 -45.5t-57 -110.5l-73 -335
h-44z" />
    <glyph glyph-name="Ncaron" unicode="&#x147;" horiz-adv-x="548" 
d="M504 848l-104 -101h-42l-61 101h43l47 -60l71 60h46zM17 0l152 700h45l184 -600l130 600h45l-152 -700h-38l-188 615l-133 -615h-45z" />
    <glyph glyph-name="ncaron" unicode="&#x148;" horiz-adv-x="441" 
d="M264 588l-50 122h38l38 -73l73 73h40l-103 -122h-36zM9 0l113 521h44l-18 -83q61 92 142 92q52 0 83.5 -32.5t31.5 -91.5q0 -38 -10 -87l-69 -319h-44l70 323q9 43 9 80q0 42 -22 65t-62 23q-51 0 -94 -45.5t-57 -110.5l-73 -335h-44z" />
    <glyph glyph-name="Omacron" unicode="&#x14c;" horiz-adv-x="560" 
d="M268 772l9 43h233l-9 -43h-233zM357 710q86 0 135 -65.5t49 -180.5q0 -106 -39 -222.5t-105 -182.5q-69 -69 -154 -69q-86 0 -135 65.5t-49 180.5q0 106 39 222.5t105 182.5q69 69 154 69zM246 33q63 0 117 54q59 59 95 169.5t36 205.5q0 96 -37 150.5t-103 54.5
q-63 0 -117 -54q-59 -59 -95 -169.5t-36 -205.5q0 -96 37 -150.5t103 -54.5z" />
    <glyph glyph-name="omacron" unicode="&#x14d;" horiz-adv-x="441" 
d="M182 601l9 41h216l-9 -41h-216zM262 530q67 0 107 -52.5t40 -142.5q0 -84 -27.5 -161.5t-75.5 -125.5q-57 -57 -127 -57q-67 0 -107 52.5t-40 142.5q0 84 27.5 161.5t75.5 125.5q57 57 127 57zM182 32q48 0 91 43q42 42 66.5 114t24.5 144q0 75 -28 115.5t-77 40.5
q-48 0 -91 -43q-42 -42 -66.5 -114t-24.5 -144q0 -75 28 -115.5t77 -40.5z" />
    <glyph glyph-name="Obreve" unicode="&#x14e;" horiz-adv-x="560" 
d="M382 756q-45 0 -71 22.5t-22 63.5h38q6 -43 61 -43q53 0 76 43h40q-13 -41 -45.5 -63.5t-76.5 -22.5zM357 710q86 0 135 -65.5t49 -180.5q0 -106 -39 -222.5t-105 -182.5q-69 -69 -154 -69q-86 0 -135 65.5t-49 180.5q0 106 39 222.5t105 182.5q69 69 154 69zM246 33
q63 0 117 54q59 59 95 169.5t36 205.5q0 96 -37 150.5t-103 54.5q-63 0 -117 -54q-59 -59 -95 -169.5t-36 -205.5q0 -96 37 -150.5t103 -54.5z" />
    <glyph glyph-name="obreve" unicode="&#x14f;" horiz-adv-x="441" 
d="M262 530q67 0 107 -52.5t40 -142.5q0 -84 -27.5 -161.5t-75.5 -125.5q-57 -57 -127 -57q-67 0 -107 52.5t-40 142.5q0 84 27.5 161.5t75.5 125.5q57 57 127 57zM182 32q48 0 91 43q42 42 66.5 114t24.5 144q0 75 -28 115.5t-77 40.5q-48 0 -91 -43q-42 -42 -66.5 -114
t-24.5 -144q0 -75 28 -115.5t77 -40.5zM289 586q-45 0 -69 25.5t-17 73.5h36q-3 -57 54 -57q53 0 81 57h38q-33 -99 -123 -99z" />
    <glyph glyph-name="Ohungarumlaut" unicode="&#x150;" horiz-adv-x="560" 
d="M357 710q86 0 135 -65.5t49 -180.5q0 -106 -39 -222.5t-105 -182.5q-69 -69 -154 -69q-86 0 -135 65.5t-49 180.5q0 106 39 222.5t105 182.5q69 69 154 69zM246 33q63 0 117 54q59 59 95 169.5t36 205.5q0 96 -37 150.5t-103 54.5q-63 0 -117 -54q-59 -59 -95 -169.5
t-36 -205.5q0 -96 37 -150.5t103 -54.5zM296 755l96 109l49 -24l-105 -85h-40zM403 755l96 109l49 -24l-105 -85h-40z" />
    <glyph glyph-name="ohungarumlaut" unicode="&#x151;" horiz-adv-x="441" 
d="M204 585l100 127l42 -26l-108 -101h-34zM314 585l101 127l42 -26l-108 -101h-35zM262 530q67 0 107 -52.5t40 -142.5q0 -84 -27.5 -161.5t-75.5 -125.5q-57 -57 -127 -57q-67 0 -107 52.5t-40 142.5q0 84 27.5 161.5t75.5 125.5q57 57 127 57zM182 32q48 0 91 43
q42 42 66.5 114t24.5 144q0 75 -28 115.5t-77 40.5q-48 0 -91 -43q-42 -42 -66.5 -114t-24.5 -144q0 -75 28 -115.5t77 -40.5z" />
    <glyph glyph-name="OE" unicode="&#x152;" horiz-adv-x="762" 
d="M304 0q-111 0 -175 64q-68 68 -68 204q0 85 31.5 179.5t95.5 158.5q94 94 238 94h394l-10 -43h-276l-62 -283h250l-9 -42h-250l-63 -289h281l-10 -43h-367zM165 95q52 -52 142 -52h46l133 614h-69q-115 0 -195 -80q-56 -56 -85 -143t-29 -163q0 -119 57 -176z" />
    <glyph glyph-name="oe" unicode="&#x153;" horiz-adv-x="731" 
d="M685 243h-291q-3 -27 -3 -52q0 -76 33 -117t89 -41q54 0 112 42l6 -41q-53 -42 -120 -42q-60 0 -101 35.5t-54 102.5q-29 -61 -74.5 -100t-102.5 -39q-67 0 -107 52.5t-40 142.5q0 84 28 161.5t76 125.5q57 57 126 57q55 0 91 -37t47 -101q28 59 71.5 98.5t100.5 39.5
q61 0 95.5 -45.5t34.5 -123.5q0 -51 -17 -118zM182 32q48 0 91 43q42 42 66.5 114t24.5 144q0 75 -28 115.5t-77 40.5q-48 0 -91 -43q-42 -42 -66.5 -114t-24.5 -144q0 -75 28 -115.5t77 -40.5zM483 449q-57 -55 -82 -167h248q10 37 10 80q0 58 -22.5 92.5t-67.5 34.5
q-46 0 -86 -40z" />
    <glyph glyph-name="Racute" unicode="&#x154;" horiz-adv-x="499" 
d="M356 0l-99 287q-14 -2 -40 -2h-91l-62 -285h-47l152 700h137q97 0 149 -52q45 -45 45 -119q0 -103 -66 -169q-49 -49 -130 -66l103 -294h-51zM135 327h92q114 0 172 58q54 54 54 143q0 57 -32 89q-40 40 -121 40h-93zM311 749l96 109l51 -25l-106 -84h-41z" />
    <glyph glyph-name="racute" unicode="&#x155;" horiz-adv-x="281" 
d="M195 582l100 127l49 -27l-111 -100h-38zM9 0l113 521h44l-21 -97q72 109 174 103l-11 -47h-4q-66 0 -115.5 -43.5t-67.5 -125.5l-68 -311h-44z" />
    <glyph glyph-name="Rcommaaccent" unicode="&#x156;" horiz-adv-x="499" 
d="M356 0l-99 287q-14 -2 -40 -2h-91l-62 -285h-47l152 700h137q97 0 149 -52q45 -45 45 -119q0 -103 -66 -169q-49 -49 -130 -66l103 -294h-51zM135 327h92q114 0 172 58q54 54 54 143q0 57 -32 89q-40 40 -121 40h-93zM120 -196l-6 21q25 10 35 20.5t13 31.5h-24l13 62h56
l-13 -59q-8 -34 -23.5 -49.5t-50.5 -26.5z" />
    <glyph glyph-name="rcommaaccent" unicode="&#x157;" horiz-adv-x="281" 
d="M-36 -197l-6 21q25 10 35 20.5t13 31.5h-24l13 62h56l-13 -59q-8 -34 -23.5 -49.5t-50.5 -26.5zM9 0l113 521h44l-21 -97q72 109 174 103l-11 -47h-4q-66 0 -115.5 -43.5t-67.5 -125.5l-68 -311h-44z" />
    <glyph glyph-name="Rcaron" unicode="&#x158;" horiz-adv-x="499" 
d="M356 0l-99 287q-14 -2 -40 -2h-91l-62 -285h-47l152 700h137q97 0 149 -52q45 -45 45 -119q0 -103 -66 -169q-49 -49 -130 -66l103 -294h-51zM135 327h92q114 0 172 58q54 54 54 143q0 57 -32 89q-40 40 -121 40h-93zM465 853l-104 -101h-42l-61 101h43l47 -60l71 60h46z
" />
    <glyph glyph-name="rcaron" unicode="&#x159;" horiz-adv-x="281" 
d="M196 585l-50 122h38l38 -73l73 73h40l-103 -122h-36zM9 0l113 521h44l-21 -97q72 109 174 103l-11 -47h-4q-66 0 -115.5 -43.5t-67.5 -125.5l-68 -311h-44z" />
    <glyph glyph-name="Sacute" unicode="&#x15a;" horiz-adv-x="435" 
d="M194 -9q-116 0 -195 103l36 31q71 -90 160 -90q56 0 93.5 38.5t37.5 93.5q0 75 -94 168q-66 68 -91 111.5t-25 90.5q0 71 48 119q53 53 130 53q98 0 168 -84l-35 -31q-57 71 -135 71q-58 0 -93.5 -37.5t-35.5 -87.5q0 -38 22 -74.5t76 -90.5q60 -61 86 -108t26 -96
q0 -77 -53 -130q-50 -50 -126 -50zM294 755l96 109l51 -25l-106 -84h-41z" />
    <glyph glyph-name="sacute" unicode="&#x15b;" horiz-adv-x="340" 
d="M205 585l100 127l49 -27l-111 -100h-38zM138 -7q-84 0 -156 82l31 32q65 -74 127 -74q41 0 68.5 26t27.5 69q0 27 -16.5 53.5t-59.5 63.5q-53 46 -74 79t-21 72q0 55 37.5 93.5t99.5 38.5q77 0 142 -69l-30 -33q-57 62 -112 62q-41 0 -66.5 -25t-25.5 -63q0 -51 77 -118
q52 -45 73 -80t21 -73q0 -59 -40.5 -97.5t-102.5 -38.5z" />
    <glyph glyph-name="Scedilla" unicode="&#x15e;" horiz-adv-x="435" 
d="M113 -121l-45 22l79 95q-85 17 -148 98l36 31q71 -90 160 -90q56 0 93.5 38.5t37.5 93.5q0 75 -94 168q-66 68 -91 111.5t-25 90.5q0 71 48 119q53 53 130 53q98 0 168 -84l-35 -31q-57 71 -135 71q-58 0 -93.5 -37.5t-35.5 -87.5q0 -38 22 -74.5t76 -90.5
q60 -61 86 -108t26 -96q0 -77 -53 -130q-50 -50 -126 -50h-10z" />
    <glyph glyph-name="scedilla" unicode="&#x15f;" horiz-adv-x="340" 
d="M62 -121l-45 22l81 97q-63 14 -116 77l31 32q65 -74 127 -74q41 0 68.5 26t27.5 69q0 27 -16.5 53.5t-59.5 63.5q-53 46 -74 79t-21 72q0 55 37.5 93.5t99.5 38.5q77 0 142 -69l-30 -33q-57 62 -112 62q-41 0 -66.5 -25t-25.5 -63q0 -51 77 -118q52 -45 73 -80t21 -73
q0 -59 -40.5 -97.5t-102.5 -38.5h-4z" />
    <glyph glyph-name="Scaron" unicode="&#x160;" horiz-adv-x="435" 
d="M194 -9q-116 0 -195 103l36 31q71 -90 160 -90q56 0 93.5 38.5t37.5 93.5q0 75 -94 168q-66 68 -91 111.5t-25 90.5q0 71 48 119q53 53 130 53q98 0 168 -84l-35 -31q-57 71 -135 71q-58 0 -93.5 -37.5t-35.5 -87.5q0 -38 22 -74.5t76 -90.5q60 -61 86 -108t26 -96
q0 -77 -53 -130q-50 -50 -126 -50zM447 859l-104 -101h-42l-61 101h43l47 -60l71 60h46z" />
    <glyph glyph-name="scaron" unicode="&#x161;" horiz-adv-x="340" 
d="M206 588l-50 122h38l38 -73l73 73h40l-103 -122h-36zM138 -7q-84 0 -156 82l31 32q65 -74 127 -74q41 0 68.5 26t27.5 69q0 27 -16.5 53.5t-59.5 63.5q-53 46 -74 79t-21 72q0 55 37.5 93.5t99.5 38.5q77 0 142 -69l-30 -33q-57 62 -112 62q-41 0 -66.5 -25t-25.5 -63
q0 -51 77 -118q52 -45 73 -80t21 -73q0 -59 -40.5 -97.5t-102.5 -38.5z" />
    <glyph glyph-name="Tcommaaccent" unicode="&#x162;" horiz-adv-x="408" 
d="M78 -197l-6 21q25 10 35 20.5t13 31.5h-24l13 62h56l-13 -59q-8 -34 -23.5 -49.5t-50.5 -26.5zM123 0l143 657h-160l10 43h366l-9 -43h-160l-143 -657h-47z" />
    <glyph glyph-name="tcommaaccent" unicode="&#x163;" horiz-adv-x="275" 
d="M35 -197l-6 21q25 10 35 20.5t13 31.5h-24l13 62h56l-13 -59q-8 -34 -23.5 -49.5t-50.5 -26.5zM134 -5q-39 0 -62.5 19t-23.5 57q0 26 7 52l77 357h-57l9 41h57l33 152h44l-33 -152h111l-9 -41h-111l-80 -373q-4 -15 -4 -29q0 -42 53 -42q25 0 49 12l-8 -42
q-24 -11 -52 -11z" />
    <glyph glyph-name="Tcaron" unicode="&#x164;" horiz-adv-x="408" 
d="M436 853l-104 -101h-42l-61 101h43l47 -60l71 60h46zM123 0l143 657h-160l10 43h366l-9 -43h-160l-143 -657h-47z" />
    <glyph glyph-name="tcaron" unicode="&#x165;" horiz-adv-x="275" 
d="M252 565l43 149h45v-3l-65 -146h-23zM134 -5q-39 0 -62.5 19t-23.5 57q0 26 7 52l77 357h-57l9 41h57l33 152h44l-33 -152h111l-9 -41h-111l-80 -373q-4 -15 -4 -29q0 -42 53 -42q25 0 49 12l-8 -42q-24 -11 -52 -11z" />
    <glyph glyph-name="Umacron" unicode="&#x16a;" horiz-adv-x="529" 
d="M250 761l9 43h233l-9 -43h-233zM230 -10q-83 0 -129.5 44.5t-46.5 120.5q0 37 13 100l96 445h47l-100 -463q-9 -42 -9 -79q0 -58 34.5 -91.5t98.5 -33.5q62 0 106 44q47 47 70 146l103 477h47l-105 -484q-25 -111 -81 -166q-58 -60 -144 -60z" />
    <glyph glyph-name="umacron" unicode="&#x16b;" horiz-adv-x="441" 
d="M152 -9q-52 0 -83.5 32.5t-31.5 91.5q0 38 10 87l69 319h44l-70 -323q-9 -43 -9 -80q0 -42 22 -65t62 -23q51 0 94 45.5t57 110.5l73 335h44l-113 -521h-44l18 83q-61 -92 -142 -92zM180 595l9 41h216l-9 -41h-216z" />
    <glyph glyph-name="Ubreve" unicode="&#x16c;" horiz-adv-x="529" 
d="M364 745q-45 0 -71 22.5t-22 63.5h38q6 -43 61 -43q53 0 76 43h40q-13 -41 -45.5 -63.5t-76.5 -22.5zM230 -10q-83 0 -129.5 44.5t-46.5 120.5q0 37 13 100l96 445h47l-100 -463q-9 -42 -9 -79q0 -58 34.5 -91.5t98.5 -33.5q62 0 106 44q47 47 70 146l103 477h47
l-105 -484q-25 -111 -81 -166q-58 -60 -144 -60z" />
    <glyph glyph-name="ubreve" unicode="&#x16d;" horiz-adv-x="441" 
d="M152 -9q-52 0 -83.5 32.5t-31.5 91.5q0 38 10 87l69 319h44l-70 -323q-9 -43 -9 -80q0 -42 22 -65t62 -23q51 0 94 45.5t57 110.5l73 335h44l-113 -521h-44l18 83q-61 -92 -142 -92zM287 580q-45 0 -69 25.5t-17 73.5h36q-3 -57 54 -57q53 0 81 57h38q-33 -99 -123 -99z
" />
    <glyph glyph-name="Uring" unicode="&#x16e;" horiz-adv-x="529" 
d="M230 -10q-83 0 -129.5 44.5t-46.5 120.5q0 37 13 100l96 445h47l-100 -463q-9 -42 -9 -79q0 -58 34.5 -91.5t98.5 -33.5q62 0 106 44q47 47 70 146l103 477h47l-105 -484q-25 -111 -81 -166q-58 -60 -144 -60zM386 896q36 0 58.5 -21t22.5 -52q0 -38 -28.5 -63.5
t-68.5 -25.5q-36 0 -58.5 21t-22.5 53q0 37 28.5 62.5t68.5 25.5zM372 762q26 0 43.5 17t17.5 41q0 20 -13 34t-36 14q-26 0 -43.5 -17t-17.5 -41q0 -21 13.5 -34.5t35.5 -13.5z" />
    <glyph glyph-name="uring" unicode="&#x16f;" horiz-adv-x="441" 
d="M389 669q0 -38 -27.5 -65t-67.5 -27q-35 0 -57.5 22t-22.5 55q0 38 28 65.5t67 27.5q35 0 57.5 -22.5t22.5 -55.5zM245 656q0 -22 13.5 -37t37.5 -15q27 0 44.5 18.5t17.5 44.5q0 23 -13.5 37.5t-36.5 14.5q-27 0 -45 -18.5t-18 -44.5zM152 -9q-52 0 -83.5 32.5
t-31.5 91.5q0 38 10 87l69 319h44l-70 -323q-9 -43 -9 -80q0 -42 22 -65t62 -23q51 0 94 45.5t57 110.5l73 335h44l-113 -521h-44l18 83q-61 -92 -142 -92z" />
    <glyph glyph-name="Uhungarumlaut" unicode="&#x170;" horiz-adv-x="529" 
d="M230 -10q-83 0 -129.5 44.5t-46.5 120.5q0 37 13 100l96 445h47l-100 -463q-9 -42 -9 -79q0 -58 34.5 -91.5t98.5 -33.5q62 0 106 44q47 47 70 146l103 477h47l-105 -484q-25 -111 -81 -166q-58 -60 -144 -60zM278 744l96 109l49 -24l-105 -85h-40zM385 744l96 109
l49 -24l-105 -85h-40z" />
    <glyph glyph-name="uhungarumlaut" unicode="&#x171;" horiz-adv-x="441" 
d="M152 -9q-52 0 -83.5 32.5t-31.5 91.5q0 38 10 87l69 319h44l-70 -323q-9 -43 -9 -80q0 -42 22 -65t62 -23q51 0 94 45.5t57 110.5l73 335h44l-113 -521h-44l18 83q-61 -92 -142 -92zM202 579l100 127l42 -26l-108 -101h-34zM312 579l101 127l42 -26l-108 -101h-35z" />
    <glyph glyph-name="Uogonek" unicode="&#x172;" horiz-adv-x="529" 
d="M230 -10h-5q-43 -40 -43 -60q0 -25 47 -29l-7 -33q-83 1 -83 52q0 33 51 73q-65 10 -100.5 53t-35.5 109q0 37 13 100l96 445h47l-100 -463q-9 -42 -9 -79q0 -58 34.5 -91.5t98.5 -33.5q62 0 106 44q47 47 70 146l103 477h47l-105 -484q-25 -111 -81 -166
q-58 -60 -144 -60z" />
    <glyph glyph-name="uogonek" unicode="&#x173;" horiz-adv-x="441" 
d="M152 -9q-52 0 -83.5 32.5t-31.5 91.5q0 38 10 87l69 319h44l-70 -323q-9 -43 -9 -80q0 -42 22 -65t62 -23q51 0 94 45.5t57 110.5l73 335h44l-113 -521h-6q-30 -28 -42 -42.5t-12 -27.5q0 -25 47 -29l-7 -33q-83 1 -83 52q0 35 61 80h-2l18 83q-61 -92 -142 -92z" />
    <glyph glyph-name="Wcircumflex" unicode="&#x174;" horiz-adv-x="773" 
d="M141 -5l-15 705h47l7 -615l279 616h41l11 -616l274 615h50l-321 -705h-41l-12 610l-279 -610h-41zM381 752l105 101h42l61 -101h-44l-46 59l-71 -59h-47z" />
    <glyph glyph-name="wcircumflex" unicode="&#x175;" horiz-adv-x="621" 
d="M275 585l103 122h36l49 -122h-37l-38 73l-73 -73h-40zM103 -3l-17 524h44l8 -452l205 452h38l9 -452l204 452h46l-246 -524h-39l-11 440l-202 -440h-39z" />
    <glyph glyph-name="Ycircumflex" unicode="&#x176;" horiz-adv-x="463" 
d="M150 0l64 296l-110 404h49l94 -357l248 357h56l-291 -410l-63 -290h-47zM220 747l105 101h42l61 -101h-44l-46 59l-71 -59h-47z" />
    <glyph glyph-name="ycircumflex" unicode="&#x177;" horiz-adv-x="408" 
d="M126 1l-49 520h45l38 -457l225 457h48l-265 -528q-38 -75 -69.5 -105t-69.5 -30q-42 0 -74 28l22 39q28 -24 54 -24q23 0 43.5 21t51.5 79zM161 582l103 122h36l49 -122h-37l-38 73l-73 -73h-40z" />
    <glyph glyph-name="Ydieresis" unicode="&#x178;" horiz-adv-x="463" 
d="M150 0l64 296l-110 404h49l94 -357l248 357h56l-291 -410l-63 -290h-47zM235 750l14 68h58l-14 -68h-58zM364 750l14 68h58l-14 -68h-58z" />
    <glyph glyph-name="Zacute" unicode="&#x179;" horiz-adv-x="444" 
d="M-18 0l4 28l448 632h-304l10 40h358l-4 -28l-448 -632h318l-9 -40h-373zM288 749l96 109l51 -25l-106 -84h-41z" />
    <glyph glyph-name="zacute" unicode="&#x17a;" horiz-adv-x="356" 
d="M213 582l100 127l49 -27l-111 -100h-38zM-20 0l4 29l329 453h-228l9 39h281l-4 -29l-329 -453h236l-8 -39h-290z" />
    <glyph glyph-name="Zdotaccent" unicode="&#x17b;" horiz-adv-x="444" 
d="M286 755l14 68h60l-14 -68h-60zM-18 0l4 28l448 632h-304l10 40h358l-4 -28l-448 -632h318l-9 -40h-373z" />
    <glyph glyph-name="zdotaccent" unicode="&#x17c;" horiz-adv-x="356" 
d="M-20 0l4 29l329 453h-228l9 39h281l-4 -29l-329 -453h236l-8 -39h-290zM211 588l16 72h54l-16 -72h-54z" />
    <glyph glyph-name="Zcaron" unicode="&#x17d;" horiz-adv-x="444" 
d="M441 853l-104 -101h-42l-61 101h43l47 -60l71 60h46zM-18 0l4 28l448 632h-304l10 40h358l-4 -28l-448 -632h318l-9 -40h-373z" />
    <glyph glyph-name="zcaron" unicode="&#x17e;" horiz-adv-x="356" 
d="M214 585l-50 122h38l38 -73l73 73h40l-103 -122h-36zM-20 0l4 29l329 453h-228l9 39h281l-4 -29l-329 -453h236l-8 -39h-290z" />
    <glyph glyph-name="florin" unicode="&#x192;" horiz-adv-x="394" 
d="M18 -7q-28 0 -52 12l10 41q19 -11 43 -11q30 0 48.5 22.5t37.5 75.5l86 254h-73l8 39h78l54 161q42 120 134 120q36 0 70 -17l-11 -43q-29 16 -61 16q-28 0 -51 -20.5t-41 -73.5l-48 -143h122l-9 -39h-125l-94 -278q-22 -59 -51.5 -87.5t-74.5 -28.5z" />
    <glyph glyph-name="Aringacute" unicode="&#x1fa;" horiz-adv-x="532" 
d="M-25 0l348 669q-40 19 -40 65q0 37 28.5 63t68.5 26q35 0 58 -21.5t23 -52.5q0 -30 -19 -53.5t-49 -31.5l57 -664h-47l-15 196h-263l-101 -196h-49zM146 238h238l-31 401zM366 689q27 0 44 16.5t17 40.5q0 21 -13 34.5t-36 13.5q-26 0 -43.5 -17t-17.5 -41
q0 -21 13.5 -34t35.5 -13zM375 847l95 92l47 -23l-100 -69h-42z" />
    <glyph glyph-name="aringacute" unicode="&#x1fb;" horiz-adv-x="411" 
d="M285 785l97 105l44 -26l-104 -79h-37zM131 -10q-55 0 -89 37t-34 102q0 88 58 146q50 50 127 50q58 0 124 -27l4 20q10 53 10 77q0 42 -26 66t-77 24q-55 0 -103 -23l-15 38q59 27 120 27q69 0 107 -34t38 -92q0 -29 -12 -88l-67 -313h-44l17 76q-59 -86 -138 -86z
M141 29q53 0 94.5 43.5t56.5 109.5l17 77q-54 27 -116 27q-58 0 -94 -36q-46 -46 -46 -119q0 -48 23.5 -75t64.5 -27zM369 677q0 -38 -27.5 -65t-67.5 -27q-35 0 -57.5 22t-22.5 55q0 38 28 65.5t67 27.5q35 0 57.5 -22.5t22.5 -55.5zM225 664q0 -22 13.5 -37t37.5 -15
q27 0 44.5 18.5t17.5 44.5q0 23 -13.5 37.5t-36.5 14.5q-27 0 -45 -18.5t-18 -44.5z" />
    <glyph glyph-name="AEacute" unicode="&#x1fc;" horiz-adv-x="705" 
d="M490 749l96 109l51 -25l-106 -84h-41zM-42 0l428 700h371l-10 -43h-276l-62 -283h251l-10 -42h-250l-63 -289h281l-10 -43h-327l42 196h-195l-119 -196h-51zM153 238h179l92 420h-16z" />
    <glyph glyph-name="aeacute" unicode="&#x1fd;" horiz-adv-x="682" 
d="M461 -8q-117 0 -149 124q-78 -126 -176 -126q-58 0 -93 37t-35 102q0 88 58 146q50 50 127 50q58 0 124 -27l4 20q10 53 10 77q0 42 -26 66t-77 24q-55 0 -103 -23l-15 38q59 27 120 27q60 0 95.5 -27t43.5 -76q64 106 154 106q61 0 95.5 -45.5t34.5 -123.5
q0 -51 -17 -118h-292q-3 -27 -3 -52q0 -75 33 -116.5t87 -41.5t108 40l20 -36q-67 -45 -128 -45zM143 29q48 0 86.5 35.5t74.5 97.5q-3 51 5 96q-53 28 -116 28q-58 0 -94 -36q-46 -46 -46 -119q0 -48 24 -75t66 -27zM434 449q-58 -56 -83 -167h249q10 37 10 80
q0 58 -22.5 92.5t-67.5 34.5q-46 0 -86 -40zM367 582l100 127l49 -27l-111 -100h-38z" />
    <glyph glyph-name="Oslashacute" unicode="&#x1fe;" horiz-adv-x="560" 
d="M357 710q92 0 142 -76l62 73h53l-94 -115q21 -54 21 -128q0 -106 -39 -222.5t-105 -182.5q-69 -69 -154 -69q-93 0 -142 75l-62 -72h-53l94 113q-21 54 -21 130q0 106 39 222.5t105 182.5q69 69 154 69zM106 238q0 -52 10 -88l352 444q-36 73 -114 73q-63 0 -117 -54
q-59 -59 -95 -169.5t-36 -205.5zM246 33q63 0 117 54q59 59 95 169.5t36 205.5q0 44 -10 86l-352 -443q38 -72 114 -72zM354 755l96 109l51 -25l-106 -84h-41z" />
    <glyph glyph-name="oslashacute" unicode="&#x1ff;" horiz-adv-x="441" 
d="M262 530q69 0 108 -55l45 50h49l-74 -86q19 -46 19 -104q0 -84 -27.5 -161.5t-75.5 -125.5q-57 -57 -127 -57q-71 0 -109 55l-44 -51h-49l73 86q-18 43 -18 105q0 84 27.5 161.5t75.5 125.5q57 57 127 57zM259 490q-48 0 -92 -44q-42 -42 -66.5 -113.5t-24.5 -144.5
q0 -40 7 -67l260 318q-29 51 -84 51zM365 333q0 36 -8 66l-259 -317q27 -51 84 -51q48 0 92 44q42 42 66.5 113.5t24.5 144.5zM261 585l100 127l49 -27l-111 -100h-38z" />
    <glyph glyph-name="Scommaaccent" unicode="&#x218;" horiz-adv-x="435" 
d="M88 -197l-6 21q25 10 35 20.5t13 31.5h-24l13 62h56l-13 -59q-8 -34 -23.5 -49.5t-50.5 -26.5zM194 -9q-116 0 -195 103l36 31q71 -90 160 -90q56 0 93.5 38.5t37.5 93.5q0 75 -94 168q-66 68 -91 111.5t-25 90.5q0 71 48 119q53 53 130 53q98 0 168 -84l-35 -31
q-57 71 -135 71q-58 0 -93.5 -37.5t-35.5 -87.5q0 -38 22 -74.5t76 -90.5q60 -61 86 -108t26 -96q0 -77 -53 -130q-50 -50 -126 -50z" />
    <glyph glyph-name="scommaaccent" unicode="&#x219;" horiz-adv-x="340" 
d="M33 -197l-6 21q25 10 35 20.5t13 31.5h-24l13 62h56l-13 -59q-8 -34 -23.5 -49.5t-50.5 -26.5zM138 -7q-84 0 -156 82l31 32q65 -74 127 -74q41 0 68.5 26t27.5 69q0 27 -16.5 53.5t-59.5 63.5q-53 46 -74 79t-21 72q0 55 37.5 93.5t99.5 38.5q77 0 142 -69l-30 -33
q-57 62 -112 62q-41 0 -66.5 -25t-25.5 -63q0 -51 77 -118q52 -45 73 -80t21 -73q0 -59 -40.5 -97.5t-102.5 -38.5z" />
    <glyph glyph-name="schwa" unicode="&#x259;" horiz-adv-x="416" 
d="M29 160q0 51 17 118h291q4 23 4 52q0 75 -33 116.5t-87 41.5t-108 -40l-20 36q67 45 130 45q73 0 117.5 -51.5t44.5 -146.5q0 -81 -29 -159t-77 -125q-54 -56 -120 -56q-61 0 -95.5 45.5t-34.5 123.5zM248 72q57 55 82 167h-248q-9 -33 -9 -80q0 -58 22.5 -92.5
t66.5 -34.5q46 0 86 40z" />
    <glyph glyph-name="circumflex" unicode="&#x2c6;" horiz-adv-x="500" 
d="M227 585l103 122h36l49 -122h-37l-38 73l-73 -73h-40z" />
    <glyph glyph-name="caron" unicode="&#x2c7;" horiz-adv-x="500" 
d="M303 585l-50 122h38l38 -73l73 73h40l-103 -122h-36z" />
    <glyph glyph-name="breve" unicode="&#x2d8;" horiz-adv-x="500" 
d="M325 583q-45 0 -69 25.5t-17 73.5h36q-3 -57 54 -57q53 0 81 57h38q-33 -99 -123 -99z" />
    <glyph glyph-name="dotaccent" unicode="&#x2d9;" horiz-adv-x="500" 
d="M294 588l16 72h54l-16 -72h-54z" />
    <glyph glyph-name="ring" unicode="&#x2da;" horiz-adv-x="500" 
d="M426 674q0 -38 -27.5 -65t-67.5 -27q-35 0 -57.5 22t-22.5 55q0 38 28 65.5t67 27.5q35 0 57.5 -22.5t22.5 -55.5zM282 661q0 -22 13.5 -37t37.5 -15q27 0 44.5 18.5t17.5 44.5q0 23 -13.5 37.5t-36.5 14.5q-27 0 -45 -18.5t-18 -44.5z" />
    <glyph glyph-name="ogonek" unicode="&#x2db;" horiz-adv-x="500" 
d="M220 -99l-7 -33q-83 1 -83 52q0 36 72 88l29 -5q-32 -29 -45 -44.5t-13 -28.5q0 -25 47 -29z" />
    <glyph glyph-name="tilde" unicode="&#x2dc;" horiz-adv-x="500" 
d="M417 672l31 -9q-17 -42 -34.5 -61t-41.5 -19q-23 0 -49 24q-26 23 -39 23q-21 0 -42 -48l-30 9q31 81 75 81q21 0 50 -24q24 -23 39 -23q21 0 41 47z" />
    <glyph glyph-name="hungarumlaut" unicode="&#x2dd;" horiz-adv-x="500" 
d="M202 582l100 127l42 -26l-108 -101h-34zM312 582l101 127l42 -26l-108 -101h-35z" />
    <glyph glyph-name="commaaccent" unicode="&#x326;" horiz-adv-x="500" 
d="M123 -197l-6 21q25 10 35 20.5t13 31.5h-24l13 62h56l-13 -59q-8 -34 -23.5 -49.5t-50.5 -26.5z" />
    <glyph glyph-name="baht" unicode="&#xe3f;" horiz-adv-x="463" 
d="M15 0l153 700h122q25 0 50 -5l30 84h41l-33 -97q40 -18 62.5 -53.5t22.5 -80.5q0 -83 -52 -133t-124 -62q55 -15 86 -51.5t31 -91.5q0 -96 -70.5 -152t-184.5 -58l-42 -119h-42l42 119h-92zM359 210q0 47 -26.5 77.5t-76.5 40.5l-96 -286q95 3 147 48t52 120zM142 373h61
q21 0 31 1l94 279q-22 5 -44 5h-80zM70 42h54l97 290q-3 0 -7.5 0.5t-6.5 0.5h-74zM416 545q0 66 -55 96l-89 -261q68 15 106 58.5t38 106.5z" />
    <glyph glyph-name="Wgrave" unicode="&#x1e80;" horiz-adv-x="773" 
d="M468 749l-83 85l49 24l68 -109h-34zM141 -5l-15 705h47l7 -615l279 616h41l11 -616l274 615h50l-321 -705h-41l-12 610l-279 -610h-41z" />
    <glyph glyph-name="wgrave" unicode="&#x1e81;" horiz-adv-x="621" 
d="M103 -3l-17 524h44l8 -452l205 452h38l9 -452l204 452h46l-246 -524h-39l-11 440l-202 -440h-39zM349 582l-79 100l49 27l61 -127h-31z" />
    <glyph glyph-name="Wacute" unicode="&#x1e82;" horiz-adv-x="773" 
d="M462 749l96 109l51 -25l-106 -84h-41zM141 -5l-15 705h47l7 -615l279 616h41l11 -616l274 615h50l-321 -705h-41l-12 610l-279 -610h-41z" />
    <glyph glyph-name="wacute" unicode="&#x1e83;" horiz-adv-x="621" 
d="M347 582l100 127l49 -27l-111 -100h-38zM103 -3l-17 524h44l8 -452l205 452h38l9 -452l204 452h46l-246 -524h-39l-11 440l-202 -440h-39z" />
    <glyph glyph-name="Wdieresis" unicode="&#x1e84;" horiz-adv-x="773" 
d="M396 755l14 68h58l-14 -68h-58zM525 755l14 68h58l-14 -68h-58zM141 -5l-15 705h47l7 -615l279 616h41l11 -616l274 615h50l-321 -705h-41l-12 610l-279 -610h-41z" />
    <glyph glyph-name="wdieresis" unicode="&#x1e85;" horiz-adv-x="621" 
d="M288 589l15 70h53l-15 -70h-53zM406 589l15 70h53l-15 -70h-53zM103 -3l-17 524h44l8 -452l205 452h38l9 -452l204 452h46l-246 -524h-39l-11 440l-202 -440h-39z" />
    <glyph glyph-name="Ygrave" unicode="&#x1ef2;" horiz-adv-x="463" 
d="M150 0l64 296l-110 404h49l94 -357l248 357h56l-291 -410l-63 -290h-47zM307 744l-83 85l49 24l68 -109h-34z" />
    <glyph glyph-name="ygrave" unicode="&#x1ef3;" horiz-adv-x="408" 
d="M126 1l-49 520h45l38 -457l225 457h48l-265 -528q-38 -75 -69.5 -105t-69.5 -30q-42 0 -74 28l22 39q28 -24 54 -24q23 0 43.5 21t51.5 79zM235 579l-79 100l49 27l61 -127h-31z" />
    <glyph glyph-name="enspace" unicode="&#x2002;" horiz-adv-x="500" 
 />
    <glyph glyph-name="emspace" unicode="&#x2003;" horiz-adv-x="1000" 
 />
    <glyph glyph-name="threeperemspace" unicode="&#x2004;" horiz-adv-x="333" 
 />
    <glyph glyph-name="fourperemspace" unicode="&#x2005;" horiz-adv-x="250" 
 />
    <glyph glyph-name="figurespace" unicode="&#x2007;" horiz-adv-x="450" 
 />
    <glyph glyph-name="thinspace" unicode="&#x2009;" horiz-adv-x="133" 
 />
    <glyph glyph-name="hairspace" unicode="&#x200a;" horiz-adv-x="75" 
 />
    <glyph glyph-name="endash" unicode="&#x2013;" horiz-adv-x="444" 
d="M53 274l9 44h343l-9 -44h-343z" />
    <glyph glyph-name="emdash" unicode="&#x2014;" horiz-adv-x="690" 
d="M53 274l9 44h589l-9 -44h-589z" />
    <glyph glyph-name="quoteleft" unicode="&#x2018;" horiz-adv-x="178" 
d="M111 516l15 72q11 50 33 74t68 39l9 -25q-35 -14 -51 -31t-20 -46h27l-17 -83h-64z" />
    <glyph glyph-name="quoteright" unicode="&#x2019;" horiz-adv-x="178" 
d="M101 514l-9 26q35 14 51 31t20 46h-27l17 83h64l-16 -72q-11 -50 -32.5 -74t-67.5 -40z" />
    <glyph glyph-name="quotesinglbase" unicode="&#x201a;" horiz-adv-x="178" 
d="M-34 -103l-9 26q35 14 51 31t20 46h-27l18 83h63l-15 -72q-11 -50 -33 -74t-68 -40z" />
    <glyph glyph-name="quotedblleft" unicode="&#x201c;" horiz-adv-x="326" 
d="M111 516l15 72q11 50 33 74t68 39l9 -25q-36 -14 -51.5 -31t-19.5 -46h27l-18 -83h-63zM258 516l16 72q11 50 32.5 74t67.5 39l9 -25q-35 -14 -51 -31t-20 -46h27l-17 -83h-64z" />
    <glyph glyph-name="quotedblright" unicode="&#x201d;" horiz-adv-x="326" 
d="M100 514l-9 26q35 14 51 31t20 46h-27l18 83h63l-15 -72q-11 -50 -33 -74t-68 -40zM248 514l-9 26q35 14 51 31t20 46h-27l17 83h64l-15 -72q-12 -50 -33.5 -74t-67.5 -40z" />
    <glyph glyph-name="quotedblbase" unicode="&#x201e;" horiz-adv-x="326" 
d="M-34 -103l-9 26q35 14 51 31t20 46h-27l18 83h63l-15 -72q-11 -50 -33 -74t-68 -40zM114 -103l-9 26q35 14 51 31t20 46h-27l18 83h63l-15 -72q-11 -50 -33 -74t-68 -40z" />
    <glyph glyph-name="dagger" unicode="&#x2020;" horiz-adv-x="294" 
d="M115 238l68 289l-100 -9l9 43l97 -9l23 148h48l-42 -148l100 9l-9 -43l-97 9l-55 -289h-42z" />
    <glyph glyph-name="daggerdbl" unicode="&#x2021;" horiz-adv-x="316" 
d="M70 0l43 148l-100 -9l10 43l96 -9l29 177l47 177l-101 -9l10 43l97 -9l23 148h48l-42 -148l100 9l-10 -43l-96 9l-29 -177l-47 -177l101 9l-10 -43l-97 9l-23 -148h-49z" />
    <glyph glyph-name="bullet" unicode="&#x2022;" horiz-adv-x="367" 
d="M216 470q37 0 60 -24.5t23 -65.5q0 -70 -43 -113q-31 -31 -70 -31q-37 0 -60 24.5t-23 65.5q0 70 43 113q31 31 70 31z" />
    <glyph glyph-name="ellipsis" unicode="&#x2026;" horiz-adv-x="545" 
d="M1 0l18 85h65l-19 -85h-64zM184 0l18 85h65l-18 -85h-65zM367 0l18 85h65l-18 -85h-65z" />
    <glyph glyph-name="perthousand" unicode="&#x2030;" horiz-adv-x="911" 
d="M38 0l274 359l256 341h46l-274 -359l-256 -341h-46zM184 364q-46 0 -75 36t-29 100q0 49 17 94.5t44 72.5q39 39 88 39q46 0 75 -36t29 -100q0 -49 -17 -94.5t-44 -72.5q-39 -39 -88 -39zM187 404q29 0 53 24q50 50 50 142q0 46 -17 71t-47 25q-29 0 -53 -24
q-50 -50 -50 -142q0 -46 17 -71t47 -25zM423 -6q-46 0 -75 36t-29 100q0 49 17 94.5t44 72.5q39 39 88 39q46 0 75 -36t29 -100q0 -49 -17 -94.5t-44 -72.5q-39 -39 -88 -39zM426 34q29 0 53 24q50 50 50 142q0 46 -17 71t-47 25q-29 0 -53 -24q-50 -50 -50 -142
q0 -46 17 -71t47 -25zM721 -6q-46 0 -75 36t-29 100q0 49 17 94.5t44 72.5q39 39 88 39q46 0 75 -36t29 -100q0 -49 -17 -94.5t-44 -72.5q-39 -39 -88 -39zM724 34q29 0 53 24q50 50 50 142q0 46 -17 71t-47 25q-29 0 -53 -24q-50 -50 -50 -142q0 -46 17 -71t47 -25z" />
    <glyph glyph-name="guilsinglleft" unicode="&#x2039;" horiz-adv-x="250" 
d="M125 43l-90 208l2 8l180 208l29 -23l-160 -194l74 -192z" />
    <glyph glyph-name="guilsinglright" unicode="&#x203a;" horiz-adv-x="250" 
d="M122 467l90 -208l-2 -8l-180 -208l-29 23l160 194l-74 192z" />
    <glyph glyph-name="fraction" unicode="&#x2044;" horiz-adv-x="74" 
d="M-234 0l258 357l245 344h39l-259 -358l-244 -343h-39z" />
    <glyph glyph-name="zero.sup" unicode="&#x2070;" 
d="M357 697q0 -53 -19 -116.5t-57 -101.5q-33 -33 -74 -33q-43 0 -66.5 33.5t-23.5 87.5q0 53 19 116.5t57 101.5q33 33 74 33q43 0 66.5 -33.5t23.5 -87.5zM154 567q0 -87 57 -87q23 0 43 20q32 32 49 92t17 105q0 87 -57 87q-23 0 -43 -20q-32 -32 -49 -92t-17 -105z" />
    <glyph glyph-name="four.sup" unicode="&#x2074;" 
d="M241 451l17 79h-154l2 28l201 257h47l-55 -254h42l-7 -31h-42l-17 -79h-34zM148 561h117l43 201h-4z" />
    <glyph glyph-name="five.sup" unicode="&#x2075;" 
d="M205 446q-69 0 -107 55l25 24q31 -46 85 -46q39 0 60 27.5t21 67.5q0 64 -66 64q-26 0 -54 -15l-26 17l49 172h170l-8 -36h-139l-33 -114q24 10 48 10q42 0 69 -25.5t27 -72.5q0 -51 -31.5 -89.5t-89.5 -38.5z" />
    <glyph glyph-name="six.sup" unicode="&#x2076;" 
d="M215 446q-42 0 -69.5 28t-27.5 87q0 51 20.5 117.5t57.5 103.5q36 36 82 36q44 0 84 -35l-21 -29q-30 30 -64 30q-31 0 -56 -25q-34 -34 -56 -113q31 35 77 35q38 0 64 -24.5t26 -69.5q0 -56 -33.5 -98.5t-83.5 -42.5zM217 479q35 0 57 31t22 73q0 32 -17 48.5t-44 16.5
q-33 0 -54 -21q-26 -26 -26 -75q0 -35 17 -54t45 -19z" />
    <glyph glyph-name="seven.sup" unicode="&#x2077;" 
d="M126 451l206 325h-168l8 36h208l-6 -29l-207 -332h-41z" />
    <glyph glyph-name="eight.sup" unicode="&#x2078;" 
d="M212 446q-48 0 -77.5 26t-29.5 66q0 39 24 67.5t63 37.5q-41 27 -41 73q0 45 31.5 73.5t76.5 28.5q43 0 70.5 -24.5t27.5 -64.5q0 -34 -20 -60.5t-52 -36.5q46 -25 46 -79q0 -45 -33.5 -76t-85.5 -31zM214 479q35 0 58 21.5t23 54.5q0 28 -19 47t-53 19q-36 0 -59 -22.5
t-23 -55.5q0 -27 19.5 -45.5t53.5 -18.5zM251 653q30 0 50.5 21.5t20.5 51.5q0 26 -17.5 43t-45.5 17q-31 0 -51.5 -20.5t-20.5 -51.5q0 -26 17.5 -43.5t46.5 -17.5z" />
    <glyph glyph-name="nine.sup" unicode="&#x2079;" 
d="M196 446q-43 0 -90 39l21 29q38 -34 70 -34q31 0 56 25q33 33 55 109q-31 -35 -77 -35q-38 0 -63.5 24.5t-25.5 71.5q0 58 33.5 100.5t83.5 42.5q42 0 69.5 -28t27.5 -87q0 -51 -20.5 -117.5t-57.5 -103.5q-36 -36 -82 -36zM238 612q33 0 54 21q27 27 27 77
q0 37 -16.5 56t-45.5 19q-35 0 -57 -31t-22 -75q0 -33 16.5 -50t43.5 -17z" />
    <glyph glyph-name="zero.inf" unicode="&#x2080;" 
d="M230 113q0 -53 -19 -116.5t-57 -101.5q-33 -33 -74 -33q-43 0 -66.5 33.5t-23.5 87.5q0 53 19 116.5t57 101.5q33 33 74 33q43 0 66.5 -33.5t23.5 -87.5zM27 -17q0 -87 57 -87q23 0 43 20q32 32 49 92t17 105q0 87 -57 87q-23 0 -43 -20q-32 -32 -49 -92t-17 -105z" />
    <glyph glyph-name="one.inf" unicode="&#x2081;" horiz-adv-x="244" 
d="M35 -132l69 319l-82 -36l4 38l91 41h33l-78 -362h-37z" />
    <glyph glyph-name="two.inf" unicode="&#x2082;" 
d="M-40 -132l6 26l162 153q59 56 59 98q0 24 -17.5 39t-44.5 15q-35 0 -81 -38l-20 27q51 45 105 45q42 0 68.5 -24.5t26.5 -61.5q0 -29 -15 -56t-55 -64l-133 -124h163l-8 -35h-216z" />
    <glyph glyph-name="three.inf" unicode="&#x2083;" 
d="M79 -138q-74 0 -112 59l26 23q34 -48 88 -48q35 0 55.5 22.5t20.5 55.5q0 66 -92 68h-7l-1 23l132 129h-152l8 35h201l-6 -29l-137 -131q42 -7 66.5 -31.5t24.5 -62.5q0 -49 -32 -81t-83 -32z" />
    <glyph glyph-name="four.inf" unicode="&#x2084;" 
d="M114 -133l17 79h-154l2 28l201 257h47l-55 -254h42l-7 -31h-42l-17 -79h-34zM21 -23h117l43 201h-4z" />
    <glyph glyph-name="five.inf" unicode="&#x2085;" 
d="M78 -138q-69 0 -107 55l25 24q31 -46 85 -46q39 0 60 27.5t21 67.5q0 64 -66 64q-26 0 -54 -15l-26 17l49 172h170l-8 -36h-139l-33 -114q24 10 48 10q42 0 69 -25.5t27 -72.5q0 -51 -31.5 -89.5t-89.5 -38.5z" />
    <glyph glyph-name="six.inf" unicode="&#x2086;" 
d="M88 -138q-42 0 -69.5 28t-27.5 87q0 51 20.5 117.5t57.5 103.5q36 36 82 36q44 0 84 -35l-21 -29q-30 30 -64 30q-31 0 -56 -25q-34 -34 -56 -113q31 35 77 35q38 0 64 -24.5t26 -69.5q0 -56 -33.5 -98.5t-83.5 -42.5zM90 -105q35 0 57 31t22 73q0 32 -17 48.5t-44 16.5
q-33 0 -54 -21q-26 -26 -26 -75q0 -35 17 -54t45 -19z" />
    <glyph glyph-name="seven.inf" unicode="&#x2087;" 
d="M-1 -133l206 325h-168l8 36h208l-6 -29l-207 -332h-41z" />
    <glyph glyph-name="eight.inf" unicode="&#x2088;" 
d="M85 -138q-48 0 -77.5 26t-29.5 66q0 39 24 67.5t63 37.5q-41 27 -41 73q0 45 31.5 73.5t76.5 28.5q43 0 70.5 -24.5t27.5 -64.5q0 -34 -20 -60.5t-52 -36.5q46 -25 46 -79q0 -45 -33.5 -76t-85.5 -31zM87 -105q35 0 58 21.5t23 54.5q0 28 -19 47t-53 19q-36 0 -59 -22.5
t-23 -55.5q0 -27 19.5 -45.5t53.5 -18.5zM124 69q30 0 50.5 21.5t20.5 51.5q0 26 -17.5 43t-45.5 17q-31 0 -51.5 -20.5t-20.5 -51.5q0 -26 17.5 -43.5t46.5 -17.5z" />
    <glyph glyph-name="nine.inf" unicode="&#x2089;" 
d="M69 -138q-43 0 -90 39l21 29q38 -34 70 -34q31 0 56 25q33 33 55 109q-31 -35 -77 -35q-38 0 -63.5 24.5t-25.5 71.5q0 58 33.5 100.5t83.5 42.5q42 0 69.5 -28t27.5 -87q0 -51 -20.5 -117.5t-57.5 -103.5q-36 -36 -82 -36zM111 28q33 0 54 21q27 27 27 77q0 37 -16.5 56
t-45.5 19q-35 0 -57 -31t-22 -75q0 -33 16.5 -50t43.5 -17z" />
    <glyph glyph-name="colonmonetary" unicode="&#x20a1;" horiz-adv-x="443" 
d="M460 779h41l-38 -107q25 -17 47 -42l-31 -32q-18 20 -34 33l-201 -594h9q58 0 118 49l23 -37q-67 -54 -142 -54q-4 0 -10.5 0.5t-9.5 0.5l-40 -114h-41l42 121q-35 11 -60 33l-54 -154h-41l65 186q-46 64 -46 175q0 106 36 214.5t102 174.5q58 58 125 70l27 77h41
l-25 -74q35 -1 66 -14zM147 84q25 -30 63 -42l206 607q-31 14 -63 14h-9zM101 244q0 -72 23 -123l183 535q-42 -12 -83 -53q-54 -54 -88.5 -156t-34.5 -203z" />
    <glyph glyph-name="naira" unicode="&#x20a6;" horiz-adv-x="599" 
d="M567 241h-81l-52 -241h-63l-47 241h-175l-53 -241h-45l52 241h-77l8 37h77l32 148h-78l8 37h78l52 237h67l47 -237h173l52 237h44l-52 -237h80l-8 -37h-80l-32 -148h81zM188 426l-31 -148h158l-31 148h-96zM325 426l31 -148h94l32 148h-157zM237 652l-41 -191h81z
M364 243l39 -186l40 186h-79z" />
    <glyph glyph-name="rupee" unicode="&#x20a8;" horiz-adv-x="755" 
d="M648 126q0 52 -73 118q-50 46 -70.5 79t-20.5 71q0 56 37.5 95t100.5 39q76 0 135 -65l-31 -31q-51 56 -104 56q-43 0 -68 -25.5t-25 -64.5q0 -26 15.5 -51.5t57.5 -64.5q49 -45 70 -79.5t21 -71.5q0 -60 -40.5 -99.5t-102.5 -39.5q-44 0 -85 21.5t-69 59.5l32 30
q55 -71 123 -71q41 0 69 25t28 69zM299 0l-81 281q-10 -2 -111 -2l-60 -279h-44l152 700h96q91 0 141.5 -47.5t50.5 -128.5q0 -84 -49 -149t-132 -87l85 -288h-48zM116 318h70q99 0 155 59.5t56 148.5q0 65 -38.5 99t-105.5 34h-63z" />
    <glyph glyph-name="won" unicode="&#x20a9;" horiz-adv-x="787" 
d="M764 240h-135l-97 -243h-55v243h-176l-104 -243h-55l8 243h-135l8 37h128l5 150h-100l8 37h93l8 236h46l-12 -236h159l101 237h60l-3 -237h157l92 236h49l-95 -236h94l-8 -37h-101l-60 -150h128zM318 277h158l1 150h-95zM190 277h89l62 150h-144zM517 427l-2 -150h89
l56 150h-143zM477 650l-79 -186h80l2 186h-3zM513 47h4l73 193h-75zM180 47h3l80 193h-75z" />
    <glyph glyph-name="sheqel" unicode="&#x20aa;" horiz-adv-x="475" 
d="M-1 0l111 510h99q125 0 125 -109q0 -32 -8 -64l-36 -166h-42l37 166q7 32 7 59q0 44 -21.5 59t-62.5 15h-65l-102 -470h-42zM269 0q-63 0 -93 33.5t-22 112.5l20 203h40l-19 -192q-6 -65 11.5 -91t64.5 -26h58l103 470h42l-111 -510h-94z" />
    <glyph glyph-name="Euro" unicode="&#x20ac;" horiz-adv-x="473" 
d="M56 417l8 39h59q41 124 107 190q62 62 141 62q95 0 152 -83l-35 -28q-51 67 -120 67q-58 0 -105 -47q-58 -58 -91 -161h214l-8 -39h-218q-16 -61 -21 -127h211l-9 -40h-203v-3q0 -98 34 -154.5t101 -56.5q51 0 113 52l26 -33q-72 -63 -145 -63q-80 0 -128 65.5t-48 182.5
v10h-71l9 40h63q5 70 20 127h-56z" />
    <glyph glyph-name="peso" unicode="&#x20b1;" horiz-adv-x="529" 
d="M555 460h-74q-15 -83 -70 -138q-71 -71 -194 -71h-76l-55 -251h-47l100 460h-80l9 37h79l44 203h102q96 0 144 -48q49 -49 49 -135q0 -14 -1 -20h79zM149 293h69q102 0 160 58q43 43 56 110h-248zM229 657l-36 -161h245q1 7 1 23q0 66 -35 101q-37 37 -115 37h-60z" />
    <glyph glyph-name="published" unicode="&#x2117;" horiz-adv-x="630" 
d="M292 546h66q56 0 86.5 -26.5t30.5 -76.5q0 -62 -41.5 -102t-115.5 -40h-42l-29 -133h-38zM436 440q1 34 -18.5 52t-57.5 18h-38l-38 -172h40q52 0 81.5 27t30.5 75zM376 711q116 0 182 -82t66 -207q0 -97 -32.5 -191t-94.5 -156q-88 -86 -202 -86q-116 0 -182 82t-66 207
q0 97 32.5 191t94.5 156q88 86 202 86zM297 15q103 0 179 76q60 60 90 151.5t30 180.5q0 111 -58 186.5t-164 75.5q-103 0 -179 -76q-60 -60 -90 -151.5t-30 -180.5q0 -111 58 -186.5t164 -75.5z" />
    <glyph glyph-name="servicemark" unicode="&#x2120;" horiz-adv-x="518" 
d="M156 383q-50 0 -92 50l23 23q37 -43 71 -43q22 0 37.5 14.5t15.5 38.5q0 27 -41 65q-55 51 -55 92q0 34 23 57q24 24 60 24q45 0 84 -43l-22 -24q-32 37 -65 37q-20 0 -33.5 -14.5t-13.5 -34.5q0 -27 45 -69q51 -48 51 -88q0 -36 -25 -61q-24 -24 -63 -24zM281 387
l68 313h37l38 -169l107 169h42l-68 -313h-32l55 254l-114 -176h-5l-41 176l-55 -254h-32z" />
    <glyph glyph-name="trademark" unicode="&#x2122;" horiz-adv-x="494" 
d="M105 387l61 282h-68l8 31h168l-7 -31h-69l-61 -282h-32zM257 387l68 313h37l38 -169l107 169h42l-68 -313h-32l55 254l-114 -176h-5l-41 176l-55 -254h-32z" />
    <glyph glyph-name="onethird" unicode="&#x2153;" horiz-adv-x="620" 
d="M411 -6q-74 0 -112 59l26 23q34 -48 88 -48q35 0 55.5 22.5t20.5 55.5q0 66 -92 68h-7l-1 23l132 129h-152l8 35h201l-6 -29l-137 -131q42 -7 66.5 -31.5t24.5 -62.5q0 -49 -32 -81t-83 -32zM121 340l69 319l-82 -36l4 38l91 41h33l-78 -362h-37zM2 0l258 357l245 344h39
l-259 -358l-244 -343h-39z" />
    <glyph glyph-name="twothirds" unicode="&#x2154;" horiz-adv-x="675" 
d="M470 -6q-74 0 -112 59l26 23q34 -48 88 -48q35 0 55.5 22.5t20.5 55.5q0 66 -92 68h-7l-1 23l132 129h-152l8 35h201l-6 -29l-137 -131q42 -7 66.5 -31.5t24.5 -62.5q0 -49 -32.5 -81t-82.5 -32zM37 340l6 26l162 153q59 56 59 98q0 24 -17.5 39t-44.5 15q-35 0 -81 -38
l-20 27q51 45 105 45q42 0 68.5 -24.5t26.5 -61.5q0 -29 -15 -56t-55 -64l-133 -124h163l-8 -35h-216zM67 0l258 357l245 344h39l-259 -358l-244 -343h-39z" />
    <glyph glyph-name="onefifth" unicode="&#x2155;" horiz-adv-x="620" 
d="M404 -6q-69 0 -107 55l25 24q31 -46 85 -46q39 0 60 27.5t21 67.5q0 64 -66 64q-26 0 -54 -15l-26 17l49 172h170l-8 -36h-139l-33 -114q24 10 48 10q42 0 69 -25.5t27 -72.5q0 -51 -31.5 -89.5t-89.5 -38.5zM121 340l69 319l-82 -36l4 38l91 41h33l-78 -362h-37zM4 0
l258 357l245 344h39l-259 -358l-244 -343h-39z" />
    <glyph glyph-name="twofifths" unicode="&#x2156;" horiz-adv-x="675" 
d="M472 -6q-69 0 -107 55l25 24q31 -46 85 -46q39 0 60 27.5t21 67.5q0 64 -66 64q-26 0 -54 -15l-26 17l49 172h170l-8 -36h-139l-33 -114q24 10 48 10q42 0 69 -25.5t27 -72.5q0 -51 -31.5 -89.5t-89.5 -38.5zM74 0l258 357l245 344h39l-259 -358l-244 -343h-39zM37 340
l6 26l162 153q59 56 59 98q0 24 -17.5 39t-44.5 15q-35 0 -81 -38l-20 27q51 45 105 45q42 0 68.5 -24.5t26.5 -61.5q0 -29 -15 -56t-55 -64l-133 -124h163l-8 -35h-216z" />
    <glyph glyph-name="threefifths" unicode="&#x2157;" horiz-adv-x="675" 
d="M472 -6q-69 0 -107 55l25 24q31 -46 85 -46q39 0 60 27.5t21 67.5q0 64 -66 64q-26 0 -54 -15l-26 17l49 172h170l-8 -36h-139l-33 -114q24 10 48 10q42 0 69 -25.5t27 -72.5q0 -51 -31.5 -89.5t-89.5 -38.5zM63 0l258 357l245 344h39l-259 -358l-244 -343h-39zM152 334
q-74 0 -112 59l26 23q34 -48 88 -48q35 0 55.5 22.5t20.5 55.5q0 66 -92 68h-7l-1 23l132 129h-152l8 35h201l-6 -29l-137 -131q42 -7 66.5 -31.5t24.5 -62.5q0 -49 -32.5 -81t-82.5 -32z" />
    <glyph glyph-name="fourfifths" unicode="&#x2158;" horiz-adv-x="675" 
d="M188 339l17 79h-154l2 28l201 257h47l-55 -254h42l-7 -31h-42l-17 -79h-34zM95 449h117l43 201h-4zM472 -6q-69 0 -107 55l25 24q31 -46 85 -46q39 0 60 27.5t21 67.5q0 64 -66 64q-26 0 -54 -15l-26 17l49 172h170l-8 -36h-139l-33 -114q24 10 48 10q42 0 69 -25.5
t27 -72.5q0 -51 -31.5 -89.5t-89.5 -38.5zM70 0l258 357l245 344h39l-259 -358l-244 -343h-39z" />
    <glyph glyph-name="onesixth" unicode="&#x2159;" horiz-adv-x="620" 
d="M408 -6q-42 0 -69.5 28t-27.5 87q0 51 20.5 117.5t57.5 103.5q36 36 82 36q44 0 84 -35l-21 -29q-30 30 -64 30q-31 0 -56 -25q-34 -34 -56 -113q31 35 77 35q38 0 64 -24.5t26 -69.5q0 -56 -33.5 -98.5t-83.5 -42.5zM10 0l258 357l245 344h39l-259 -358l-244 -343h-39z
M410 27q35 0 57 31t22 73q0 32 -17 48.5t-44 16.5q-33 0 -54 -21q-26 -26 -26 -75q0 -35 17 -54t45 -19zM121 340l69 319l-82 -36l4 38l91 41h33l-78 -362h-37z" />
    <glyph glyph-name="fivesixths" unicode="&#x215a;" horiz-adv-x="675" 
d="M476 -6q-42 0 -69.5 28t-27.5 87q0 51 20.5 117.5t57.5 103.5q36 36 82 36q44 0 84 -35l-21 -29q-30 30 -64 30q-31 0 -56 -25q-34 -34 -56 -113q31 35 77 35q38 0 64 -24.5t26 -69.5q0 -56 -33.5 -98.5t-83.5 -42.5zM155 334q-69 0 -107 55l25 24q31 -46 85 -46
q39 0 60 27.5t21 67.5q0 64 -66 64q-26 0 -54 -15l-26 17l49 172h170l-8 -36h-139l-33 -114q24 10 48 10q42 0 69 -25.5t27 -72.5q0 -51 -31.5 -89.5t-89.5 -38.5zM65 0l258 357l245 344h39l-259 -358l-244 -343h-39zM478 27q35 0 57 31t22 73q0 32 -17 48.5t-44 16.5
q-33 0 -54 -21q-26 -26 -26 -75q0 -35 17 -54t45 -19z" />
    <glyph glyph-name="oneeighth" unicode="&#x215b;" horiz-adv-x="620" 
d="M405 -6q-48 0 -77.5 26t-29.5 66q0 39 24 67.5t63 37.5q-41 27 -41 73q0 45 31.5 73.5t76.5 28.5q43 0 70.5 -24.5t27.5 -64.5q0 -34 -20 -60.5t-52 -36.5q46 -25 46 -79q0 -45 -33.5 -76t-85.5 -31zM407 27q35 0 58 21.5t23 54.5q0 28 -19 47t-53 19q-36 0 -59 -22.5
t-23 -55.5q0 -27 19.5 -45.5t53.5 -18.5zM444 201q30 0 50.5 21.5t20.5 51.5q0 26 -17.5 43t-45.5 17q-31 0 -51.5 -20.5t-20.5 -51.5q0 -26 17.5 -43.5t46.5 -17.5zM121 340l69 319l-82 -36l4 38l91 41h33l-78 -362h-37zM10 0l258 357l245 344h39l-259 -358l-244 -343h-39z
" />
    <glyph glyph-name="threeeighths" unicode="&#x215c;" horiz-adv-x="675" 
d="M473 -6q-48 0 -77.5 26t-29.5 66q0 39 24 67.5t63 37.5q-41 27 -41 73q0 45 31.5 73.5t76.5 28.5q43 0 70.5 -24.5t27.5 -64.5q0 -34 -20 -60.5t-52 -36.5q46 -25 46 -79q0 -45 -33.5 -76t-85.5 -31zM475 27q35 0 58 21.5t23 54.5q0 28 -19 47t-53 19q-36 0 -59 -22.5
t-23 -55.5q0 -27 19.5 -45.5t53.5 -18.5zM512 201q30 0 50.5 21.5t20.5 51.5q0 26 -17.5 43t-45.5 17q-31 0 -51.5 -20.5t-20.5 -51.5q0 -26 17.5 -43.5t46.5 -17.5zM65 0l258 357l245 344h39l-259 -358l-244 -343h-39zM156 334q-74 0 -112 59l26 23q34 -48 88 -48
q35 0 55.5 22.5t20.5 55.5q0 66 -92 68h-7l-1 23l132 129h-152l8 35h201l-6 -29l-137 -131q42 -7 66.5 -31.5t24.5 -62.5q0 -49 -32.5 -81t-82.5 -32z" />
    <glyph glyph-name="fiveeighths" unicode="&#x215d;" horiz-adv-x="675" 
d="M473 -6q-48 0 -77.5 26t-29.5 66q0 39 24 67.5t63 37.5q-41 27 -41 73q0 45 31.5 73.5t76.5 28.5q43 0 70.5 -24.5t27.5 -64.5q0 -34 -20 -60.5t-52 -36.5q46 -25 46 -79q0 -45 -33.5 -76t-85.5 -31zM475 27q35 0 58 21.5t23 54.5q0 28 -19 47t-53 19q-36 0 -59 -22.5
t-23 -55.5q0 -27 19.5 -45.5t53.5 -18.5zM512 201q30 0 50.5 21.5t20.5 51.5q0 26 -17.5 43t-45.5 17q-31 0 -51.5 -20.5t-20.5 -51.5q0 -26 17.5 -43.5t46.5 -17.5zM65 0l258 357l245 344h39l-259 -358l-244 -343h-39zM155 334q-69 0 -107 55l25 24q31 -46 85 -46
q39 0 60 27.5t21 67.5q0 64 -66 64q-26 0 -54 -15l-26 17l49 172h170l-8 -36h-139l-33 -114q24 10 48 10q42 0 69 -25.5t27 -72.5q0 -51 -31.5 -89.5t-89.5 -38.5z" />
    <glyph glyph-name="seveneighths" unicode="&#x215e;" horiz-adv-x="675" 
d="M461 -6q-48 0 -77.5 26t-29.5 66q0 39 24 67.5t63 37.5q-41 27 -41 73q0 45 31.5 73.5t76.5 28.5q43 0 70.5 -24.5t27.5 -64.5q0 -34 -20 -60.5t-52 -36.5q46 -25 46 -79q0 -45 -33.5 -76t-85.5 -31zM463 27q35 0 58 21.5t23 54.5q0 28 -19 47t-53 19q-36 0 -59 -22.5
t-23 -55.5q0 -27 19.5 -45.5t53.5 -18.5zM500 201q30 0 50.5 21.5t20.5 51.5q0 26 -17.5 43t-45.5 17q-31 0 -51.5 -20.5t-20.5 -51.5q0 -26 17.5 -43.5t46.5 -17.5zM82 339l206 325h-168l8 36h208l-6 -29l-207 -332h-41zM32 0l258 357l245 344h39l-259 -358l-244 -343h-39z
" />
    <glyph glyph-name="minus" unicode="&#x2212;" horiz-adv-x="438" 
d="M58 329l10 46h352l-9 -46h-353z" />
    <glyph glyph-name="Q.alt" horiz-adv-x="560" 
d="M357 710q86 0 135 -65.5t49 -180.5q0 -97 -33.5 -205t-91.5 -178l55 -74l-35 -28l-51 69q-64 -58 -142 -58q-86 0 -135 65.5t-49 180.5q0 106 39 222.5t105 182.5q69 69 154 69zM246 33q62 0 114 49l-75 101l35 28l70 -95q47 65 75.5 163.5t28.5 182.5q0 96 -37 150.5
t-103 54.5q-63 0 -117 -54q-59 -59 -95 -169.5t-36 -205.5q0 -96 37 -150.5t103 -54.5z" />
    <glyph glyph-name="a.alt" horiz-adv-x="457" 
d="M165 -9q-60 0 -95.5 50t-35.5 139q0 83 28 165.5t80 134.5q50 50 111 50q51 0 83.5 -34.5t44.5 -89.5l25 115h44l-113 -521h-44l20 91q-66 -100 -148 -100zM176 30q47 0 91 44q42 42 67.5 117t25.5 147q0 69 -30 110.5t-76 41.5q-44 0 -81 -37q-43 -43 -68.5 -118
t-25.5 -151q0 -72 24.5 -113t72.5 -41z" />
    <glyph glyph-name="aacute.alt" horiz-adv-x="457" 
d="M271 585l100 127l49 -27l-111 -100h-38zM165 -9q-60 0 -95.5 50t-35.5 139q0 83 28 165.5t80 134.5q50 50 111 50q51 0 83.5 -34.5t44.5 -89.5l25 115h44l-113 -521h-44l20 91q-66 -100 -148 -100zM176 30q47 0 91 44q42 42 67.5 117t25.5 147q0 69 -30 110.5t-76 41.5
q-44 0 -81 -37q-43 -43 -68.5 -118t-25.5 -151q0 -72 24.5 -113t72.5 -41z" />
    <glyph glyph-name="abreve.alt" horiz-adv-x="457" 
d="M165 -9q-60 0 -95.5 50t-35.5 139q0 83 28 165.5t80 134.5q50 50 111 50q51 0 83.5 -34.5t44.5 -89.5l25 115h44l-113 -521h-44l20 91q-66 -100 -148 -100zM176 30q47 0 91 44q42 42 67.5 117t25.5 147q0 69 -30 110.5t-76 41.5q-44 0 -81 -37q-43 -43 -68.5 -118
t-25.5 -151q0 -72 24.5 -113t72.5 -41zM299 586q-45 0 -69 25.5t-17 73.5h36q-3 -57 54 -57q53 0 81 57h38q-33 -99 -123 -99z" />
    <glyph glyph-name="acircumflex.alt" horiz-adv-x="457" 
d="M201 588l103 122h36l49 -122h-37l-38 73l-73 -73h-40zM165 -9q-60 0 -95.5 50t-35.5 139q0 83 28 165.5t80 134.5q50 50 111 50q51 0 83.5 -34.5t44.5 -89.5l25 115h44l-113 -521h-44l20 91q-66 -100 -148 -100zM176 30q47 0 91 44q42 42 67.5 117t25.5 147
q0 69 -30 110.5t-76 41.5q-44 0 -81 -37q-43 -43 -68.5 -118t-25.5 -151q0 -72 24.5 -113t72.5 -41z" />
    <glyph glyph-name="adieresis.alt" horiz-adv-x="457" 
d="M213 592l15 70h53l-15 -70h-53zM331 592l15 70h53l-15 -70h-53zM165 -9q-60 0 -95.5 50t-35.5 139q0 83 28 165.5t80 134.5q50 50 111 50q51 0 83.5 -34.5t44.5 -89.5l25 115h44l-113 -521h-44l20 91q-66 -100 -148 -100zM176 30q47 0 91 44q42 42 67.5 117t25.5 147
q0 69 -30 110.5t-76 41.5q-44 0 -81 -37q-43 -43 -68.5 -118t-25.5 -151q0 -72 24.5 -113t72.5 -41z" />
    <glyph glyph-name="agrave.alt" horiz-adv-x="457" 
d="M165 -9q-60 0 -95.5 50t-35.5 139q0 83 28 165.5t80 134.5q50 50 111 50q51 0 83.5 -34.5t44.5 -89.5l25 115h44l-113 -521h-44l20 91q-66 -100 -148 -100zM176 30q47 0 91 44q42 42 67.5 117t25.5 147q0 69 -30 110.5t-76 41.5q-44 0 -81 -37q-43 -43 -68.5 -118
t-25.5 -151q0 -72 24.5 -113t72.5 -41zM274 585l-79 100l49 27l61 -127h-31z" />
    <glyph glyph-name="amacron.alt" horiz-adv-x="457" 
d="M165 -9q-60 0 -95.5 50t-35.5 139q0 83 28 165.5t80 134.5q50 50 111 50q51 0 83.5 -34.5t44.5 -89.5l25 115h44l-113 -521h-44l20 91q-66 -100 -148 -100zM176 30q47 0 91 44q42 42 67.5 117t25.5 147q0 69 -30 110.5t-76 41.5q-44 0 -81 -37q-43 -43 -68.5 -118
t-25.5 -151q0 -72 24.5 -113t72.5 -41zM193 601l9 41h216l-9 -41h-216z" />
    <glyph glyph-name="aogonek.alt" horiz-adv-x="457" 
d="M323 -99l-7 -33q-83 1 -83 52q0 35 61 80h-1l20 91q-66 -100 -148 -100q-60 0 -95.5 50t-35.5 139q0 83 28 165.5t80 134.5q50 50 111 50q51 0 83.5 -34.5t44.5 -89.5l25 115h44l-113 -521h-7q-30 -28 -42 -42.5t-12 -27.5q0 -25 47 -29zM176 30q47 0 91 44
q42 42 67.5 117t25.5 147q0 69 -30 110.5t-76 41.5q-44 0 -81 -37q-43 -43 -68.5 -118t-25.5 -151q0 -72 24.5 -113t72.5 -41z" />
    <glyph glyph-name="aring.alt" horiz-adv-x="457" 
d="M403 677q0 -38 -27.5 -65t-67.5 -27q-35 0 -57.5 22t-22.5 55q0 38 28 65.5t67 27.5q35 0 57.5 -22.5t22.5 -55.5zM259 664q0 -22 13.5 -37t37.5 -15q27 0 44.5 18.5t17.5 44.5q0 23 -13.5 37.5t-36.5 14.5q-27 0 -45 -18.5t-18 -44.5zM165 -9q-60 0 -95.5 50t-35.5 139
q0 83 28 165.5t80 134.5q50 50 111 50q51 0 83.5 -34.5t44.5 -89.5l25 115h44l-113 -521h-44l20 91q-66 -100 -148 -100zM176 30q47 0 91 44q42 42 67.5 117t25.5 147q0 69 -30 110.5t-76 41.5q-44 0 -81 -37q-43 -43 -68.5 -118t-25.5 -151q0 -72 24.5 -113t72.5 -41z" />
    <glyph glyph-name="aring.alt2" horiz-adv-x="411" 
d="M252 0l17 76q-59 -86 -138 -86q-55 0 -89 37t-34 102q0 88 58 146q50 50 127 50q58 0 124 -27l4 20q10 53 10 77q0 42 -26 66t-77 24q-55 0 -103 -23l-15 38q47 20 90 25q-17 22 -17 52q0 38 27.5 65t67.5 27q35 0 57.5 -22t22.5 -55q0 -25 -13.5 -47.5t-35.5 -33.5
q66 -31 66 -110q0 -29 -12 -88l-67 -313h-44zM264 527q27 0 45 18.5t18 44.5q0 22 -13.5 37t-37.5 15q-27 0 -44.5 -18.5t-17.5 -44.5q0 -23 13.5 -37.5t36.5 -14.5zM141 29q53 0 94.5 43.5t56.5 109.5l17 77q-54 27 -116 27q-58 0 -94 -36q-46 -46 -46 -119q0 -48 23.5 -75
t64.5 -27z" />
    <glyph glyph-name="aringacute.alt" horiz-adv-x="457" 
d="M319 785l97 105l44 -26l-104 -79h-37zM403 677q0 -38 -27.5 -65t-67.5 -27q-35 0 -57.5 22t-22.5 55q0 38 28 65.5t67 27.5q35 0 57.5 -22.5t22.5 -55.5zM259 664q0 -22 13.5 -37t37.5 -15q27 0 44.5 18.5t17.5 44.5q0 23 -13.5 37.5t-36.5 14.5q-27 0 -45 -18.5
t-18 -44.5zM165 -9q-60 0 -95.5 50t-35.5 139q0 83 28 165.5t80 134.5q50 50 111 50q51 0 83.5 -34.5t44.5 -89.5l25 115h44l-113 -521h-44l20 91q-66 -100 -148 -100zM176 30q47 0 91 44q42 42 67.5 117t25.5 147q0 69 -30 110.5t-76 41.5q-44 0 -81 -37
q-43 -43 -68.5 -118t-25.5 -151q0 -72 24.5 -113t72.5 -41z" />
    <glyph glyph-name="aringacute.alt2" horiz-adv-x="411" 
d="M274 699l97 105l44 -26l-104 -79h-37zM252 0l17 76q-59 -86 -138 -86q-55 0 -89 37t-34 102q0 88 58 146q50 50 127 50q58 0 124 -27l4 20q10 53 10 77q0 42 -26 66t-77 24q-55 0 -103 -23l-15 38q47 20 90 25q-17 22 -17 52q0 38 27.5 65t67.5 27q35 0 57.5 -22
t22.5 -55q0 -25 -13.5 -47.5t-35.5 -33.5q66 -31 66 -110q0 -29 -12 -88l-67 -313h-44zM264 527q27 0 45 18.5t18 44.5q0 22 -13.5 37t-37.5 15q-27 0 -44.5 -18.5t-17.5 -44.5q0 -23 13.5 -37.5t36.5 -14.5zM141 29q53 0 94.5 43.5t56.5 109.5l17 77q-54 27 -116 27
q-58 0 -94 -36q-46 -46 -46 -119q0 -48 23.5 -75t64.5 -27z" />
    <glyph glyph-name="atilde.alt" horiz-adv-x="457" 
d="M165 -9q-60 0 -95.5 50t-35.5 139q0 83 28 165.5t80 134.5q50 50 111 50q51 0 83.5 -34.5t44.5 -89.5l25 115h44l-113 -521h-44l20 91q-66 -100 -148 -100zM176 30q47 0 91 44q42 42 67.5 117t25.5 147q0 69 -30 110.5t-76 41.5q-44 0 -81 -37q-43 -43 -68.5 -118
t-25.5 -151q0 -72 24.5 -113t72.5 -41zM394 675l31 -9q-17 -42 -34.5 -61t-41.5 -19q-23 0 -49 24q-26 23 -39 23q-21 0 -42 -48l-30 9q31 81 75 81q21 0 50 -24q24 -23 39 -23q21 0 41 47z" />
    <glyph glyph-name="three.alt" horiz-adv-x="412" 
d="M157 -9q-101 0 -170 83l33 31q62 -72 139 -72q65 0 107.5 47t42.5 113q0 64 -49 105.5t-122 41.5h-2l9 41h5q99 0 160 47t61 124q0 51 -32.5 82.5t-86.5 31.5q-61 0 -120 -45l-24 34q67 54 146 54q73 0 118.5 -43.5t45.5 -110.5q0 -72 -45.5 -125.5t-132.5 -75.5
q52 -21 84.5 -63t32.5 -100q0 -85 -57.5 -142.5t-142.5 -57.5z" />
    <glyph glyph-name="registered.alt" horiz-adv-x="630" 
d="M376 711q116 0 182 -82t66 -207q0 -97 -32.5 -191t-94.5 -156q-88 -86 -202 -86q-116 0 -182 82t-66 207q0 97 32.5 191t94.5 156q88 86 202 86zM297 15q103 0 179 76q60 60 90 151.5t30 180.5q0 111 -58 186.5t-164 75.5q-103 0 -179 -76q-60 -60 -90 -151.5t-30 -180.5
q0 -111 58 -186.5t164 -75.5zM268 317l-32 -148h-38l83 378h73q63 0 94 -31q26 -24 26 -69q0 -53 -34 -87q-25 -25 -66 -35l52 -156h-40l-49 149q-11 -1 -69 -1zM277 352h46q59 0 88 29q24 23 24 65q0 29 -15 44q-20 20 -67 20h-44z" />
    <glyph glyph-name="R_p" horiz-adv-x="839" 
d="M3 0l152 700h96q91 0 141.5 -47.5t50.5 -128.5q0 -84 -49 -149t-132 -87l85 -288h-48l-81 281q-10 -2 -111 -2l-60 -279h-44zM389 -141l144 665h44l-20 -90q64 98 138 98q56 0 87.5 -48t31.5 -134t-27.5 -174t-77.5 -138q-47 -47 -103 -47q-46 0 -76 34.5t-42 87.5
l-55 -254h-44zM116 318h70q99 0 155 59.5t56 148.5q0 65 -38.5 99t-105.5 34h-63zM606 30q38 0 71 33q42 42 67 125t25 161q0 69 -22 106.5t-63 37.5q-40 0 -80 -40q-42 -42 -67.5 -118.5t-25.5 -149.5q0 -69 26.5 -112t68.5 -43z" />
    <glyph glyph-name="onehalf.alt" horiz-adv-x="675" 
d="M46 340l7 33h90l63 288l-97 -39l6 39l103 43h33l-72 -331h84l-7 -33h-210zM350 0l6 26l162 153q59 56 59 98q0 24 -17.5 39t-44.5 15q-35 0 -81 -38l-20 27q51 45 105 45q42 0 68.5 -24.5t26.5 -61.5q0 -29 -15 -56t-55 -64l-133 -124h163l-8 -35h-216zM78 0l258 357
l245 344h39l-259 -358l-244 -343h-39z" />
    <glyph glyph-name="onethird.alt" horiz-adv-x="675" 
d="M46 340l7 33h90l63 288l-97 -39l6 39l103 43h33l-72 -331h84l-7 -33h-210zM470 -6q-74 0 -112 59l26 23q34 -48 88 -48q35 0 55.5 22.5t20.5 55.5q0 66 -92 68h-7l-1 23l132 129h-152l8 35h201l-6 -29l-137 -131q42 -7 66.5 -31.5t24.5 -62.5q0 -49 -32.5 -81t-82.5 -32z
M72 0l258 357l245 344h39l-259 -358l-244 -343h-39z" />
    <glyph glyph-name="onequarter.alt" horiz-adv-x="675" 
d="M50 340l7 33h90l63 288l-97 -39l6 39l103 43h33l-72 -331h84l-7 -33h-210zM87 0l258 357l245 344h39l-259 -358l-244 -343h-39zM493 -1l17 79h-154l2 28l201 257h47l-55 -254h42l-7 -31h-42l-17 -79h-34zM400 109h117l43 201h-4z" />
    <glyph glyph-name="onefifth.alt" horiz-adv-x="675" 
d="M46 340l7 33h90l63 288l-97 -39l6 39l103 43h33l-72 -331h84l-7 -33h-210zM469 -6q-69 0 -107 55l25 24q31 -46 85 -46q39 0 60 27.5t21 67.5q0 64 -66 64q-26 0 -54 -15l-26 17l49 172h170l-8 -36h-139l-33 -114q24 10 48 10q42 0 69 -25.5t27 -72.5q0 -51 -31.5 -89.5
t-89.5 -38.5zM77 0l258 357l245 344h39l-259 -358l-244 -343h-39z" />
    <glyph glyph-name="onesixth.alt" horiz-adv-x="675" 
d="M479 -6q-42 0 -69.5 28t-27.5 87q0 51 20.5 117.5t57.5 103.5q36 36 82 36q44 0 84 -35l-21 -29q-30 30 -64 30q-31 0 -56 -25q-34 -34 -56 -113q31 35 77 35q38 0 64 -24.5t26 -69.5q0 -56 -33.5 -98.5t-83.5 -42.5zM80 0l258 357l245 344h39l-259 -358l-244 -343h-39z
M46 340l7 33h90l63 288l-97 -39l6 39l103 43h33l-72 -331h84l-7 -33h-210zM481 27q35 0 57 31t22 73q0 32 -17 48.5t-44 16.5q-33 0 -54 -21q-26 -26 -26 -75q0 -35 17 -54t45 -19z" />
    <glyph glyph-name="oneeighth.alt" horiz-adv-x="675" 
d="M46 340l7 33h90l63 288l-97 -39l6 39l103 43h33l-72 -331h84l-7 -33h-210zM476 -6q-48 0 -77.5 26t-29.5 66q0 39 24 67.5t63 37.5q-41 27 -41 73q0 45 31.5 73.5t76.5 28.5q43 0 70.5 -24.5t27.5 -64.5q0 -34 -20 -60.5t-52 -36.5q46 -25 46 -79q0 -45 -33.5 -76
t-85.5 -31zM478 27q35 0 58 21.5t23 54.5q0 28 -19 47t-53 19q-36 0 -59 -22.5t-23 -55.5q0 -27 19.5 -45.5t53.5 -18.5zM515 201q30 0 50.5 21.5t20.5 51.5q0 26 -17.5 43t-45.5 17q-31 0 -51.5 -20.5t-20.5 -51.5q0 -26 17.5 -43.5t46.5 -17.5zM80 0l258 357l245 344h39
l-259 -358l-244 -343h-39z" />
    <glyph glyph-name="one.sup_alt" 
d="M102 452l7 33h90l63 288l-97 -39l6 39l103 43h33l-72 -331h84l-7 -33h-210z" />
    <glyph glyph-name="one.inf_alt" 
d="M-25 -132l7 33h90l63 288l-97 -39l6 39l103 43h33l-72 -331h84l-7 -33h-210z" />
    <glyph glyph-name="zero.tab" horiz-adv-x="450" 
d="M425 503q0 -112 -41.5 -252t-110.5 -209q-51 -51 -108 -51q-65 0 -102.5 50t-37.5 156q0 112 41.5 252t110.5 209q51 51 108 51q65 0 102.5 -50t37.5 -156zM72 199q0 -166 94 -166q38 0 72 34q62 62 101 196.5t39 237.5q0 166 -94 166q-38 0 -72 -34q-62 -62 -101 -196.5
t-39 -237.5z" />
    <glyph glyph-name="one.tab" horiz-adv-x="450" 
d="M-10 0l10 43h158l130 600l-165 -74l6 52l179 81h40l-144 -659h143l-10 -43h-347z" />
    <glyph glyph-name="two.tab" horiz-adv-x="450" 
d="M-27 0l7 33l279 311q63 70 90.5 118.5t27.5 98.5q0 48 -31 75.5t-77 27.5q-70 0 -143 -79l-31 33q82 91 175 91q71 0 114 -42t43 -107q0 -56 -31 -109t-93 -122l-256 -284h293l-10 -45h-357z" />
    <glyph glyph-name="three.tab" horiz-adv-x="450" 
d="M165 -9q-111 0 -188 92l33 33q65 -82 156 -82q71 0 114 48.5t43 124.5q0 63 -43.5 99.5t-121.5 43.5h-8l-2 31l245 273h-277l11 46h340l-8 -35l-254 -281q76 -13 121.5 -59.5t45.5 -117.5q0 -88 -58 -152t-149 -64z" />
    <glyph glyph-name="three.tab_alt" horiz-adv-x="450" 
d="M166 -9q-116 0 -184 93l33 31q26 -37 66 -59.5t85 -22.5q73 0 112 46.5t39 114.5q0 73 -54 109.5t-128 36.5h-2l9 41h14q108 4 165.5 50t57.5 119q0 53 -33.5 84.5t-89.5 31.5q-66 0 -131 -54l-24 34q73 63 160 63q74 0 120 -44.5t46 -113.5q0 -70 -46 -122.5t-137 -72.5
q55 -20 88 -61.5t33 -102.5q0 -85 -53.5 -143t-145.5 -58z" />
    <glyph glyph-name="four.tab" horiz-adv-x="450" 
d="M229 0l36 164h-266l4 43l366 498h56l-108 -500h72l-9 -41h-72l-36 -164h-43zM49 205h225l92 427h-3z" />
    <glyph glyph-name="five.tab" horiz-adv-x="450" 
d="M160 -9q-102 0 -176 87l33 33q67 -78 145 -78q76 0 122 63t46 149q0 67 -33.5 99.5t-89.5 32.5q-55 0 -104 -29l-29 21l90 331h279l-10 -45h-239l-70 -255q36 19 87 19q76 0 121.5 -45t45.5 -129q0 -64 -24 -121t-75 -95t-119 -38z" />
    <glyph glyph-name="six.tab" horiz-adv-x="450" 
d="M191 -9q-63 0 -104 41q-51 51 -51 165q0 104 39 239.5t118 214.5q58 58 131 58q70 0 129 -53l-28 -37q-48 46 -103 46q-54 0 -99 -45q-84 -84 -124 -266q66 82 147 82q66 0 107 -45t41 -126q0 -104 -55.5 -189t-147.5 -85zM193 32q50 0 86.5 40.5t51.5 91.5t15 100
q0 63 -28.5 96.5t-79.5 33.5q-52 0 -91 -39q-63 -63 -63 -184q0 -57 27 -98t82 -41z" />
    <glyph glyph-name="seven.tab" horiz-adv-x="450" 
d="M41 0l371 655h-300l11 45h348l-9 -38l-371 -662h-50z" />
    <glyph glyph-name="eight.tab" horiz-adv-x="450" 
d="M179 -9q-75 0 -123 46t-48 121q0 73 42 133t114 79q-32 19 -51 55.5t-19 82.5q0 81 50.5 141t130.5 60q65 0 109 -41t44 -115q0 -67 -37 -124t-99 -76q37 -22 60 -63t23 -92q0 -83 -53.5 -145t-142.5 -62zM182 33q65 0 105.5 49t40.5 120q0 62 -33 100t-91 38
q-65 0 -107 -53.5t-42 -124.5q0 -62 36 -95.5t91 -33.5zM245 380q63 0 100 54t37 117q0 56 -30.5 86t-78.5 30q-63 0 -98 -50t-35 -114q0 -52 28 -87.5t77 -35.5z" />
    <glyph glyph-name="nine.tab" horiz-adv-x="450" 
d="M128 -9q-72 0 -138 60l28 37q58 -53 112 -53t99 45q85 85 122 259q-66 -82 -147 -82q-66 0 -106.5 45.5t-40.5 129.5q0 106 56 191.5t148 85.5q63 0 104 -41q51 -51 51 -165q0 -104 -39 -239.5t-118 -214.5q-58 -58 -131 -58zM212 299q52 0 91 39q65 65 65 188
q0 59 -26.5 100.5t-82.5 41.5q-50 0 -87 -40.5t-52 -92t-15 -102.5q0 -66 27.5 -100t79.5 -34z" />
    <glyph glyph-name="period.tab" horiz-adv-x="225" 
d="M-2 0l20 92h77l-20 -92h-77z" />
    <glyph glyph-name="comma.tab" horiz-adv-x="225" 
d="M-30 -103l-9 26q35 14 51 31t20 46h-34l20 92h77l-18 -81q-11 -49 -34 -73t-73 -41z" />
    <glyph glyph-name="colon.tab" horiz-adv-x="225" 
d="M-2 0l20 92h77l-20 -92h-77zM91 427l20 92h77l-20 -92h-77z" />
    <glyph glyph-name="semicolon.tab" horiz-adv-x="225" 
d="M-30 -103l-9 26q35 14 51 31t20 46h-34l20 92h77l-18 -81q-11 -49 -34 -73t-73 -41zM91 427l20 92h77l-20 -92h-77z" />
    <glyph glyph-name="twodotleader.tab" horiz-adv-x="450" 
d="M1 0l19 87h73l-19 -87h-73zM224 0l18 87h73l-19 -87h-72z" />
    <glyph glyph-name="periodcentered.tab" horiz-adv-x="225" 
d="M52 252l20 92h77l-20 -92h-77z" />
    <glyph glyph-name="slash.tab" horiz-adv-x="450" 
d="M-80 -109l544 888h46l-544 -888h-46z" />
    <glyph glyph-name="bar.tab" horiz-adv-x="225" 
d="M-8 -109l195 888h38l-194 -888h-39z" />
    <glyph glyph-name="underscore.tab" horiz-adv-x="450" 
d="M-109 -159l8 38h448l-9 -38h-447z" />
    <glyph glyph-name="dollar.tab" horiz-adv-x="450" 
d="M317 774h39l-19 -78q66 -18 121 -75l-33 -33q-51 53 -101 67l-71 -281q63 -44 91 -87.5t28 -96.5q0 -81 -52.5 -137.5t-140.5 -56.5q-4 0 -12 0.5t-11 0.5l-27 -105h-39l28 111q-86 22 -143 93l33 33q56 -66 123 -84l77 301q-117 79 -117 177q0 75 53 127.5t136 52.5
q12 0 18 -1zM326 192q0 78 -85 136l-74 -289q6 -1 18 -1q67 0 104 45.5t37 108.5zM137 525q0 -74 82 -132l68 268h-8q-65 0 -103.5 -39.5t-38.5 -96.5z" />
    <glyph glyph-name="sterling.tab" horiz-adv-x="450" 
d="M-25 0l5 22l65 19l60 278h-65l10 41h64l34 156q21 98 68 145q46 46 116 46q56 0 91.5 -25.5t51.5 -55.5l-37 -25q-36 64 -108 64q-49 0 -80 -31q-39 -39 -57 -126l-32 -148h194l-10 -41h-193l-60 -277h255l-9 -42h-363z" />
    <glyph glyph-name="Euro.tab" horiz-adv-x="450" 
d="M44 417l8 37h59q37 118 105 186t141 68q78 0 125 -68l-34 -29q-39 54 -92 54q-54 0 -104 -50q-59 -59 -93 -161h195l-8 -37h-198q-16 -61 -21 -128h191l-8 -37h-184v-4v-12q0 -96 31 -148.5t87 -52.5q41 0 94 42l24 -34q-60 -51 -120 -51q-75 0 -119.5 62t-44.5 178l1 11
v9h-71l8 37h64q5 71 20 128h-56z" />
    <glyph glyph-name="yen.tab" horiz-adv-x="450" 
d="M54 273l8 37h122l-91 390h49l79 -362l236 362h55l-263 -390h119l-8 -37h-130l-22 -103h130l-8 -37h-130l-29 -133h-45l29 133h-131l8 37h131l22 103h-131z" />
    <glyph glyph-name="cent.tab" horiz-adv-x="450" 
d="M361 704l-27 -90q68 -16 106 -77l-34 -26q-35 51 -83 63l-126 -447q8 -2 23 -2q36 0 60 11.5t58 39.5l24 -32q-67 -61 -147 -61q-10 0 -30 2l-27 -90h-40l31 101q-47 21 -75 70t-28 118q0 76 25.5 151t74.5 124q61 61 144 61h7l25 84h39zM91 287q0 -111 71 -148l124 440
q-60 0 -108 -48q-41 -41 -64 -111t-23 -133z" />
    <glyph glyph-name="numbersign.tab" horiz-adv-x="450" 
d="M47 0l42 186h-80l8 41h81l54 246h-79l8 41h80l41 186h38l-41 -186h137l42 186h38l-42 -186h80l-8 -41h-81l-54 -246h79l-8 -41h-80l-41 -186h-38l41 186h-137l-42 -186h-38zM136 227h137l54 246h-137z" />
    <glyph glyph-name="paragraph.tab" horiz-adv-x="450" 
d="M242 0l56 259q-122 0 -182 60q-47 47 -47 126q0 111 70 181q74 74 210 74h93l-153 -700h-47z" />
    <glyph glyph-name="section.tab" horiz-adv-x="450" 
d="M166 -8q-79 0 -142 49l25 36q55 -44 119 -44q42 0 68.5 21.5t26.5 54.5q0 29 -20.5 51t-74.5 54q-71 42 -100.5 74.5t-29.5 72.5q0 56 43 90.5t121 35.5q-63 43 -63 100q0 50 39 85.5t103 35.5q77 0 143 -50q-14 -20 -25 -37q-57 46 -120 46q-42 0 -68.5 -21.5
t-26.5 -54.5q0 -29 20.5 -51t74.5 -54q71 -42 100.5 -74.5t29.5 -72.5q0 -56 -43 -91t-121 -35q63 -46 63 -100q0 -50 -39 -85.5t-103 -35.5zM247 246q48 0 82 23.5t34 65.5q0 27 -15.5 47t-49.5 43q-47 29 -98 29q-48 0 -82 -23.5t-34 -65.5q0 -27 15.5 -47t49.5 -43
q47 -29 98 -29z" />
    <glyph glyph-name="degree.tab" horiz-adv-x="450" 
d="M284 708q57 0 92.5 -40.5t35.5 -108.5q0 -117 -72 -189q-49 -49 -108 -49q-57 0 -92.5 40.5t-35.5 108.5q0 117 72 189q49 49 108 49zM233 359q42 0 77 35q61 61 61 166q0 51 -24 80.5t-64 29.5q-42 0 -77 -35q-61 -61 -61 -166q0 -51 24 -80.5t64 -29.5z" />
    <glyph glyph-name="percent.tab" horiz-adv-x="450" 
d="M181 706q38 0 59.5 -29t21.5 -81q0 -46 -17 -98t-49 -84q-28 -28 -63 -28q-38 0 -60 29t-22 81q0 46 17 98t49 84q28 28 64 28zM269 -6q-38 0 -59.5 29t-21.5 81q0 46 17 98t49 84q28 28 63 28q38 0 60 -29t22 -81q0 -46 -17 -98t-49 -84q-28 -28 -64 -28zM436 700h40
l-240 -360l-222 -340h-40l239 359zM271 29q20 0 37 17q25 25 39 72.5t14 88.5q0 72 -46 72q-19 0 -36 -17q-25 -25 -39 -72.5t-14 -88.5q0 -72 45 -72zM179 671q-20 0 -37 -17q-25 -25 -39 -72.5t-14 -88.5q0 -72 46 -72q19 0 36 17q25 25 39 72.5t14 88.5q0 72 -45 72z" />
    <glyph glyph-name="quotedbl.tab" horiz-adv-x="450" 
d="M131 453l86 247h55l-2 -8l-116 -239h-23zM290 453l85 247h56l-3 -8l-115 -239h-23z" />
    <glyph glyph-name="quotesingle.tab" horiz-adv-x="225" 
d="M100 453l86 247h55l-3 -8l-115 -239h-23z" />
    <glyph glyph-name="plus.tab" horiz-adv-x="450" 
d="M163 171l35 160h-153l9 42h153l35 160h44l-35 -160h153l-9 -42h-153l-35 -160h-44z" />
    <glyph glyph-name="minus.tab" horiz-adv-x="450" 
d="M44 329l10 46h351l-10 -46h-351z" />
    <glyph glyph-name="divide.tab" horiz-adv-x="450" 
d="M150 161l17 77h65l-17 -77h-65zM44 329l10 46h351l-10 -46h-351zM217 466l17 77h65l-17 -77h-65z" />
    <glyph glyph-name="equal.tab" horiz-adv-x="450" 
d="M35 245l10 44h333l-10 -44h-333zM72 415l10 44h333l-10 -44h-333z" />
    <glyph glyph-name="multiply.tab" horiz-adv-x="450" 
d="M67 186l-27 32l159 137l-98 134l34 26l96 -133l157 136l27 -32l-159 -137l98 -134l-34 -26l-96 133z" />
    <glyph glyph-name="less.tab" horiz-adv-x="450" 
d="M332 149l-281 183l9 40l360 183l-12 -54l-304 -152l238 -153z" />
    <glyph glyph-name="greater.tab" horiz-adv-x="450" 
d="M118 555l281 -183l-9 -40l-360 -183l12 54l304 152l-238 153z" />
    <glyph glyph-name="plusminus.tab" horiz-adv-x="450" 
d="M168 189l35 154h-152l9 42h152l35 154h44l-35 -154h152l-9 -42h-152l-35 -154h-44zM-10 60l9 44h347l-9 -44h-347z" />
    <glyph glyph-name="space.tab" horiz-adv-x="225" 
 />
    <glyph glyph-name="NUL" horiz-adv-x="0" 
 />
    <glyph glyph-name="hfjslug" horiz-adv-x="694" 
d="M255 276h8l11 34h1l11 -34h8l14 47h-8l-10 -35h-1l-11 35h-7l-11 -35h-1l-10 35h-8zM321 388q19 0 29 24h1l12 -24l12 6l-17 32q6 14 13 39l-13 3q-4 -18 -8 -30h-1l-16 31q23 21 23 42q0 31 -27 31q-12 0 -20 -9t-8 -22t14 -39q-23 -18 -23 -47q0 -16 8 -26.5t21 -10.5z
M50 -200v303q14 0 23 9.5t9 22.5t-9.5 22.5t-22.5 9.5v554h100l30 79h334l29 -79h101v-921h-208l-8 14h-163l-8 -14h-207zM523 277h8v12l8 8l15 -20h10l-20 26l18 20h-10l-20 -24h-1v24h-8v-46zM193 277h34v7h-26v13h23v7h-23v12h26v7h-34v-46zM184 391h15v79h47v-79h15v172
h-15v-79h-47v79h-15v-172zM132 277h8v32l25 -32h7v46h-8v-32l-25 32h-7v-46zM400 391h15v78h38v14h-38v66h43v14h-58v-172zM468 277h8v15h12l10 -15h9l-12 17q10 4 10 14q0 15 -17 15h-20v-46zM366 277h8v17l18 29h-9l-13 -22l-13 22h-9l18 -29v-17zM481 390q31 0 31 36v137
h-16v-137q0 -22 -16 -22q-8 0 -20 5v-15q10 -4 21 -4zM476 299v17h11q10 0 10 -8q0 -9 -10 -9h-11zM322 402q-16 0 -16 25q0 19 16 35l20 -39q-8 -21 -20 -21zM327 479q-12 22 -12 32q0 19 14 19q13 0 13 -19q0 -15 -15 -32zM426 283q-16 0 -16 17q0 6 4.5 11.5t11.5 5.5
t11.5 -5.5t4.5 -11.5q0 -17 -16 -17zM426 276q10 0 17 7t7 17q0 9 -7 16.5t-17 7.5t-17 -7.5t-7 -16.5q0 -10 7 -17t17 -7z" />
    <glyph glyph-name="i.dot" horiz-adv-x="186" 
d="M15 0l113 521h44l-113 -521h-44zM151 639l15 69h50l-15 -69h-50z" />
    <glyph glyph-name="zero.num" 
d="M309 585q0 -53 -19 -116.5t-57 -101.5q-33 -33 -74 -33q-43 0 -66.5 33.5t-23.5 87.5q0 53 19 116.5t57 101.5q33 33 74 33q43 0 66.5 -33.5t23.5 -87.5zM106 455q0 -87 57 -87q23 0 43 20q32 32 49 92t17 105q0 87 -57 87q-23 0 -43 -20q-32 -32 -49 -92t-17 -105z" />
    <glyph glyph-name="one.num" horiz-adv-x="244" 
d="M117 340l69 319l-82 -36l4 38l91 41h33l-78 -362h-37z" />
    <glyph glyph-name="one.num_alt" 
d="M54 340l7 33h90l63 288l-97 -39l6 39l103 43h33l-72 -331h84l-7 -33h-210z" />
    <glyph glyph-name="two.num" 
d="M39 340l6 26l162 153q59 56 59 98q0 24 -17.5 39t-44.5 15q-35 0 -81 -38l-20 27q51 45 105 45q42 0 68.5 -24.5t26.5 -61.5q0 -29 -15 -56t-55 -64l-133 -124h163l-8 -35h-216z" />
    <glyph glyph-name="three.num" 
d="M158 334q-74 0 -112 59l26 23q34 -48 88 -48q35 0 55.5 22.5t20.5 55.5q0 66 -92 68h-7l-1 23l132 129h-152l8 35h201l-6 -29l-137 -131q42 -7 66.5 -31.5t24.5 -62.5q0 -49 -32.5 -81t-82.5 -32z" />
    <glyph glyph-name="four.num" 
d="M193 339l17 79h-154l2 28l201 257h47l-55 -254h42l-7 -31h-42l-17 -79h-34zM100 449h117l43 201h-4z" />
    <glyph glyph-name="five.num" 
d="M157 334q-69 0 -107 55l25 24q31 -46 85 -46q39 0 60 27.5t21 67.5q0 64 -66 64q-26 0 -54 -15l-26 17l49 172h170l-8 -36h-139l-33 -114q24 10 48 10q42 0 69 -25.5t27 -72.5q0 -51 -31.5 -89.5t-89.5 -38.5z" />
    <glyph glyph-name="six.num" 
d="M167 334q-42 0 -69.5 28t-27.5 87q0 51 20.5 117.5t57.5 103.5q36 36 82 36q44 0 84 -35l-21 -29q-30 30 -64 30q-31 0 -56 -25q-34 -34 -56 -113q31 35 77 35q38 0 64 -24.5t26 -69.5q0 -56 -33.5 -98.5t-83.5 -42.5zM169 367q35 0 57 31t22 73q0 32 -17 48.5t-44 16.5
q-33 0 -54 -21q-26 -26 -26 -75q0 -35 17 -54t45 -19z" />
    <glyph glyph-name="seven.num" 
d="M78 339l206 325h-168l8 36h208l-6 -29l-207 -332h-41z" />
    <glyph glyph-name="eight.num" 
d="M164 334q-48 0 -77.5 26t-29.5 66q0 39 24 67.5t63 37.5q-41 27 -41 73q0 45 31.5 73.5t76.5 28.5q43 0 70.5 -24.5t27.5 -64.5q0 -34 -20 -60.5t-52 -36.5q46 -25 46 -79q0 -45 -33.5 -76t-85.5 -31zM166 367q35 0 58 21.5t23 54.5q0 28 -19 47t-53 19q-36 0 -59 -22.5
t-23 -55.5q0 -27 19.5 -45.5t53.5 -18.5zM203 541q30 0 50.5 21.5t20.5 51.5q0 26 -17.5 43t-45.5 17q-31 0 -51.5 -20.5t-20.5 -51.5q0 -26 17.5 -43.5t46.5 -17.5z" />
    <glyph glyph-name="nine.num" 
d="M148 334q-43 0 -90 39l21 29q38 -34 70 -34q31 0 56 25q33 33 55 109q-31 -35 -77 -35q-38 0 -63.5 24.5t-25.5 71.5q0 58 33.5 100.5t83.5 42.5q42 0 69.5 -28t27.5 -87q0 -51 -20.5 -117.5t-57.5 -103.5q-36 -36 -82 -36zM190 500q33 0 54 21q27 27 27 77
q0 37 -16.5 56t-45.5 19q-35 0 -57 -31t-22 -75q0 -33 16.5 -50t43.5 -17z" />
    <glyph glyph-name="zero.den" 
d="M235 245q0 -53 -19 -116.5t-57 -101.5q-33 -33 -74 -33q-43 0 -66.5 33.5t-23.5 87.5q0 53 19 116.5t57 101.5q33 33 74 33q43 0 66.5 -33.5t23.5 -87.5zM32 115q0 -87 57 -87q23 0 43 20q32 32 49 92t17 105q0 87 -57 87q-23 0 -43 -20q-32 -32 -49 -92t-17 -105z" />
    <glyph glyph-name="one.den" horiz-adv-x="244" 
d="M43 0l69 319l-82 -36l4 38l91 41h33l-78 -362h-37z" />
    <glyph glyph-name="one.den_alt" 
d="M-20 0l7 33h90l63 288l-97 -39l6 39l103 43h33l-72 -331h84l-7 -33h-210z" />
    <glyph glyph-name="two.den" 
d="M-35 0l6 26l162 153q59 56 59 98q0 24 -17.5 39t-44.5 15q-35 0 -81 -38l-20 27q51 45 105 45q42 0 68.5 -24.5t26.5 -61.5q0 -29 -15 -56t-55 -64l-133 -124h163l-8 -35h-216z" />
    <glyph glyph-name="three.den" 
d="M84 -6q-74 0 -112 59l26 23q34 -48 88 -48q35 0 55.5 22.5t20.5 55.5q0 66 -92 68h-7l-1 23l132 129h-152l8 35h201l-6 -29l-137 -131q42 -7 66.5 -31.5t24.5 -62.5q0 -49 -32.5 -81t-82.5 -32z" />
    <glyph glyph-name="four.den" 
d="M119 -1l17 79h-154l2 28l201 257h47l-55 -254h42l-7 -31h-42l-17 -79h-34zM26 109h117l43 201h-4z" />
    <glyph glyph-name="five.den" 
d="M83 -6q-69 0 -107 55l25 24q31 -46 85 -46q39 0 60 27.5t21 67.5q0 64 -66 64q-26 0 -54 -15l-26 17l49 172h170l-8 -36h-139l-33 -114q24 10 48 10q42 0 69 -25.5t27 -72.5q0 -51 -31.5 -89.5t-89.5 -38.5z" />
    <glyph glyph-name="six.den" 
d="M93 -6q-42 0 -69.5 28t-27.5 87q0 51 20.5 117.5t57.5 103.5q36 36 82 36q44 0 84 -35l-21 -29q-30 30 -64 30q-31 0 -56 -25q-34 -34 -56 -113q31 35 77 35q38 0 64 -24.5t26 -69.5q0 -56 -33.5 -98.5t-83.5 -42.5zM95 27q35 0 57 31t22 73q0 32 -17 48.5t-44 16.5
q-33 0 -54 -21q-26 -26 -26 -75q0 -35 17 -54t45 -19z" />
    <glyph glyph-name="seven.den" 
d="M4 -1l206 325h-168l8 36h208l-6 -29l-207 -332h-41z" />
    <glyph glyph-name="eight.den" 
d="M90 -6q-48 0 -77.5 26t-29.5 66q0 39 24 67.5t63 37.5q-41 27 -41 73q0 45 31.5 73.5t76.5 28.5q43 0 70.5 -24.5t27.5 -64.5q0 -34 -20 -60.5t-52 -36.5q46 -25 46 -79q0 -45 -33.5 -76t-85.5 -31zM92 27q35 0 58 21.5t23 54.5q0 28 -19 47t-53 19q-36 0 -59 -22.5
t-23 -55.5q0 -27 19.5 -45.5t53.5 -18.5zM129 201q30 0 50.5 21.5t20.5 51.5q0 26 -17.5 43t-45.5 17q-31 0 -51.5 -20.5t-20.5 -51.5q0 -26 17.5 -43.5t46.5 -17.5z" />
    <glyph glyph-name="nine.den" 
d="M74 -6q-43 0 -90 39l21 29q38 -34 70 -34q31 0 56 25q33 33 55 109q-31 -35 -77 -35q-38 0 -63.5 24.5t-25.5 71.5q0 58 33.5 100.5t83.5 42.5q42 0 69.5 -28t27.5 -87q0 -51 -20.5 -117.5t-57.5 -103.5q-36 -36 -82 -36zM116 160q33 0 54 21q27 27 27 77q0 37 -16.5 56
t-45.5 19q-35 0 -57 -31t-22 -75q0 -33 16.5 -50t43.5 -17z" />
    <glyph glyph-name="caron.alt" horiz-adv-x="500" 
d="M269 565l43 149h45v-3l-65 -146h-23z" />
    <glyph glyph-name="acute.cap" horiz-adv-x="500" 
d="M294 749l96 109l51 -25l-106 -84h-41z" />
    <glyph glyph-name="hungarumlaut.cap" horiz-adv-x="500" 
d="M294 749l96 109l49 -24l-105 -85h-40zM401 749l96 109l49 -24l-105 -85h-40z" />
    <glyph glyph-name="grave.cap" horiz-adv-x="500" 
d="M382 749l-83 85l49 24l68 -109h-34z" />
    <glyph glyph-name="circumflex.cap" horiz-adv-x="500" 
d="M253 752l105 101h42l61 -101h-44l-46 59l-71 -59h-47z" />
    <glyph glyph-name="caron.cap" horiz-adv-x="500" 
d="M482 853l-104 -101h-42l-61 101h43l47 -60l71 60h46z" />
    <glyph glyph-name="breve.cap" horiz-adv-x="500" 
d="M360 750q-45 0 -71 22.5t-22 63.5h38q6 -43 61 -43q53 0 76 43h40q-13 -41 -45.5 -63.5t-76.5 -22.5z" />
    <glyph glyph-name="tilde.cap" horiz-adv-x="500" 
d="M273 750l-33 10q18 37 35.5 54t40.5 17q21 0 53 -20q27 -18 42 -18q21 0 43 38l33 -10q-18 -37 -35.5 -54t-41.5 -17q-19 0 -52 20q-30 19 -42 19q-13 0 -22 -9t-21 -30z" />
    <glyph glyph-name="macron.cap" horiz-adv-x="500" 
d="M244 766l9 43h233l-9 -43h-233z" />
    <glyph glyph-name="dieresis.cap" horiz-adv-x="500" 
d="M264 755l14 68h58l-14 -68h-58zM393 755l14 68h58l-14 -68h-58z" />
    <glyph glyph-name="dotaccent.cap" horiz-adv-x="500" 
d="M328 755l14 68h60l-14 -68h-60z" />
    <glyph glyph-name="ring.cap" horiz-adv-x="500" 
d="M382 911q36 0 58.5 -21t22.5 -52q0 -38 -28.5 -63.5t-68.5 -25.5q-36 0 -58.5 21t-22.5 53q0 37 28.5 62.5t68.5 25.5zM368 777q26 0 43.5 17t17.5 41q0 20 -13 34t-36 14q-26 0 -43.5 -17t-17.5 -41q0 -21 13.5 -34.5t35.5 -13.5z" />
    </font>
</defs>
</svg>
