<?xml version="1.0" standalone="no"?>
<!DOCTYPE svg PUBLIC "-//W3C//DTD SVG 1.1//EN" "http://www.w3.org/Graphics/SVG/1.1/DTD/svg11.dtd" >
<svg xmlns="http://www.w3.org/2000/svg" xmlns:xlink="http://www.w3.org/1999/xlink" version="1.1">
<metadata>
Created by FontForge 20170731 at Fri Sep 12 16:07:15 2008
 By ,,,
Copyright (C) 2001, 2008 Hoefler &#38; Frere-Jones. http://www.typography.com
</metadata>
<defs>
<font id="GothamXNarrow-Black" horiz-adv-x="500" >
  <font-face 
    font-family="Gotham XNarrow Black"
    font-weight="450"
    font-stretch="condensed"
    units-per-em="1000"
    panose-1="0 0 0 0 0 0 0 0 0 0"
    ascent="800"
    descent="-200"
    x-height="541"
    cap-height="700"
    bbox="-50 -252 966 978"
    underline-thickness="50"
    underline-position="-200"
    unicode-range="U+0020-FB04"
  />
<missing-glyph 
d="M0 -200v1000h500v-1000h-500zM71 750l179 -390l179 390h-358zM50 -76l172 376l-172 376v-752zM450 676l-172 -376l172 -376v752zM250 240l-179 -390h358z" />
    <glyph glyph-name="f_f" unicode="ff" horiz-adv-x="603" 
d="M56 0v412h-42v128h42v20q0 81 40 121t119 40q44 0 82 -9v-120q-22 4 -38 4q-45 0 -45 -44v-13h82v-127h-80v-412h-160zM357 0v412h-41v127h41v21q0 81 41 121q39 40 118 40q44 0 82 -9v-120q-22 4 -37 4q-46 0 -46 -44v-13h83v-127h-81v-412h-160z" />
    <glyph glyph-name="fi" unicode="fi" horiz-adv-x="536" 
d="M56 0v412h-42v128h42v20q0 81 40 121t119 40q44 0 82 -9v-120q-22 4 -38 4q-45 0 -45 -44v-13h83v-127h-81v-412h-160zM340 0v541h160v-541h-160zM338 585v132h164v-132h-164z" />
    <glyph glyph-name="fl" unicode="fl" horiz-adv-x="536" 
d="M56 0v412h-42v128h42v20q0 81 40 121t119 40q44 0 82 -9v-120q-22 4 -38 4q-45 0 -45 -44v-13h83v-127h-81v-412h-160zM340 0v717h160v-717h-160z" />
    <glyph glyph-name="f_f_i" unicode="ffi" horiz-adv-x="837" 
d="M56 0v412h-42v128h42v20q0 81 40 121t119 40q44 0 82 -9v-120q-22 4 -38 4q-45 0 -45 -44v-13h82v-127h-80v-412h-160zM357 0v412h-41v127h41v21q0 81 41 121q39 40 118 40q44 0 82 -9v-120q-22 4 -37 4q-46 0 -46 -44v-13h83v-127h-81v-412h-160zM640 0v541h160v-541
h-160zM638 585v132h164v-132h-164z" />
    <glyph glyph-name="f_f_l" unicode="ffl" horiz-adv-x="837" 
d="M56 0v412h-42v128h42v20q0 81 40 121t119 40q44 0 82 -9v-120q-22 4 -38 4q-45 0 -45 -44v-13h82v-127h-80v-412h-160zM357 0v412h-41v127h41v21q0 81 41 121q39 40 118 40q44 0 82 -9v-120q-22 4 -37 4q-46 0 -46 -44v-13h83v-127h-81v-412h-160zM640 0v717h160v-717
h-160z" />
    <glyph glyph-name=".notdef" 
d="M0 -200v1000h500v-1000h-500zM71 750l179 -390l179 390h-358zM50 -76l172 376l-172 376v-752zM450 676l-172 -376l172 -376v752zM250 240l-179 -390h358z" />
    <glyph glyph-name=".null" horiz-adv-x="0" 
 />
    <glyph glyph-name="nonmarkingreturn" horiz-adv-x="333" 
 />
    <glyph glyph-name="space" unicode=" " horiz-adv-x="176" 
 />
    <glyph glyph-name="exclam" unicode="!" horiz-adv-x="263" 
d="M90 226l-55 437v37h194v-37l-56 -437h-83zM44 0v163h175v-163h-175z" />
    <glyph glyph-name="quotedbl" unicode="&#x22;" horiz-adv-x="417" 
d="M234 368l7 332h162v-7l-98 -325h-71zM33 368l8 332h161v-7l-97 -325h-72z" />
    <glyph glyph-name="numbersign" unicode="#" horiz-adv-x="511" 
d="M469 286v-141h-84l-18 -145h-113l18 145h-85l-17 -145h-113l18 145h-56v141h73l17 132h-67v142h84l18 140h113l-18 -140h85l17 140h113l-18 -140h57v-142h-74l-17 -132h67zM218 422l-17 -140h92l17 140h-92z" />
    <glyph glyph-name="dollar" unicode="$" horiz-adv-x="472" 
d="M455 624l-80 -123q-61 57 -125 57q-29 0 -43.5 -14t-14.5 -34v-1q0 -22 17.5 -38.5t70.5 -47.5q91 -48 131.5 -97t40.5 -121v-4q0 -75 -44 -127t-115 -69v-109h-104v104q-111 15 -186 90l79 123q77 -70 149 -70q29 0 45 14.5t16 36.5v2q0 19 -17 36.5t-62 41.5
q-97 52 -139 100t-42 123v3q0 76 42.5 127.5t114.5 67.5v74h105v-71q97 -15 161 -74z" />
    <glyph glyph-name="percent" unicode="%" horiz-adv-x="685" 
d="M163 322q-62 0 -100 50t-38 136v13q0 86 38 136.5t100 50.5t100 -50.5t38 -136.5v-12q0 -86 -38 -136.5t-100 -50.5zM163 613q-37 0 -37 -92v-12q0 -92 37 -92q38 0 38 92v11q0 93 -38 93zM306 364l188 336h99l-213 -365l-187 -335h-99zM522 -8q-62 0 -100 50.5
t-38 136.5v13q0 86 38 136t100 50t100 -50t38 -136v-13q0 -86 -38 -136.5t-100 -50.5zM522 88q37 0 37 92v11q0 93 -37 93q-38 0 -38 -93v-11q0 -92 38 -92z" />
    <glyph glyph-name="ampersand" unicode="&#x26;" horiz-adv-x="545" 
d="M421 -15l-44 60q-68 -56 -155 -56q-90 0 -148.5 53t-58.5 143v4q0 121 117 198q-55 82 -55 150v4q0 72 50.5 121.5t131.5 49.5q80 0 127.5 -46.5t47.5 -120.5v-4q0 -110 -114 -186l64 -93q16 36 31 92l117 -36q-24 -104 -63 -171l66 -89zM249 445q51 39 51 92v1
q0 23 -11.5 38t-29.5 15q-20 0 -31.5 -15t-11.5 -39v-1q0 -42 33 -91zM243 120q31 0 59 23l-94 140q-35 -35 -35 -83v-3q0 -35 19 -56t51 -21z" />
    <glyph glyph-name="quotesingle" unicode="'" horiz-adv-x="219" 
d="M33 368l8 332h164v-7l-100 -325h-72z" />
    <glyph glyph-name="parenleft" unicode="(" horiz-adv-x="343" 
d="M279 -139q-246 102 -246 418v16q0 316 246 418l54 -103q-83 -49 -114.5 -128.5t-31.5 -193.5v-2q0 -114 31.5 -193.5t114.5 -128.5z" />
    <glyph glyph-name="parenright" unicode=")" horiz-adv-x="343" 
d="M64 -139l-54 103q83 49 114.5 128.5t31.5 193.5v2q0 114 -31.5 193.5t-114.5 128.5l54 103q246 -102 246 -418v-16q0 -316 -246 -418z" />
    <glyph glyph-name="asterisk" unicode="*" horiz-adv-x="353" 
d="M126 374l26 120l-84 -81l-51 88l112 36l-112 37l51 88l84 -81l-26 120h102l-27 -120l85 81l51 -88l-113 -37l113 -36l-51 -88l-85 81l27 -120h-102z" />
    <glyph glyph-name="plus" unicode="+" horiz-adv-x="488" 
d="M171 135v146h-137v143h137v145h146v-145h137v-143h-137v-146h-146z" />
    <glyph glyph-name="comma" unicode="," horiz-adv-x="239" 
d="M30 -154l-14 63q96 18 94 92h-77v173h173v-141q0 -169 -176 -187z" />
    <glyph glyph-name="hyphen" unicode="-" horiz-adv-x="353" 
d="M32 237v152h290v-152h-290z" />
    <glyph glyph-name="period" unicode="." horiz-adv-x="239" 
d="M33 0v173h173v-173h-173z" />
    <glyph glyph-name="slash" unicode="/" horiz-adv-x="391" 
d="M-23 -108l304 886h124l-304 -886h-124z" />
    <glyph glyph-name="zero" unicode="0" horiz-adv-x="538" 
d="M269 -13q-115 0 -179 91.5t-64 256.5v29q0 165 65 257t179 92t178 -91.5t64 -255.5v-30q0 -165 -64.5 -257t-178.5 -92zM270 137q77 0 77 199v28q0 199 -78 199t-78 -198v-28q0 -200 79 -200z" />
    <glyph glyph-name="one" unicode="1" horiz-adv-x="321" 
d="M111 0v537l-87 -25l-12 148l146 44h118v-704h-165z" />
    <glyph glyph-name="two" unicode="2" horiz-adv-x="460" 
d="M27 0v136l181 231q39 50 53 76t14 52q0 27 -17.5 45t-46.5 18q-45 0 -115 -68l-80 121q101 101 218 101q90 0 146.5 -53t56.5 -141v-3q0 -55 -23 -104.5t-83 -121.5l-113 -139h216v-150h-407z" />
    <glyph glyph-name="three" unicode="3" horiz-adv-x="452" 
d="M201 -12q-116 0 -195 65l66 131q59 -45 114 -45q37 0 60.5 21.5t23.5 56.5v2q0 85 -140 85h-17l-10 100l132 148h-196v148h384v-135l-143 -154q151 -42 151 -193v-3q0 -104 -63.5 -165.5t-166.5 -61.5z" />
    <glyph glyph-name="four" unicode="4" horiz-adv-x="514" 
d="M275 0v125h-251l-11 117l254 461h163v-444h69v-134h-69v-125h-155zM164 259h112v213z" />
    <glyph glyph-name="five" unicode="5" horiz-adv-x="460" 
d="M204 -12q-106 0 -193 65l65 134q66 -47 117 -47q39 0 62 24.5t23 65.5v1q0 40 -23.5 62.5t-61.5 22.5q-37 0 -70 -20l-85 49l19 355h355v-149h-229l-6 -108q34 9 66 9q84 0 140.5 -53.5t56.5 -161.5v-4q0 -114 -66.5 -179.5t-169.5 -65.5z" />
    <glyph glyph-name="six" unicode="6" 
d="M258 -13q-92 0 -150 58q-82 82 -82 284v5q0 192 71 285t195 93q81 0 156 -45l-57 -132q-46 33 -94 33q-51 0 -79 -38.5t-31 -106.5q50 34 108 34q75 0 128.5 -54.5t53.5 -161.5v-4q0 -113 -63 -181.5t-156 -68.5zM254 123q66 0 66 103v1q0 49 -17 76t-50 27
q-32 0 -49 -27t-17 -76v-1q0 -48 17.5 -75.5t49.5 -27.5z" />
    <glyph glyph-name="seven" unicode="7" horiz-adv-x="447" 
d="M54 0l202 546h-231v154h403v-113l-205 -587h-169z" />
    <glyph glyph-name="eight" unicode="8" horiz-adv-x="492" 
d="M246 -13q-101 0 -164 55.5t-63 147.5v6q0 113 96 168q-82 54 -82 152v5q0 84 59.5 138t153.5 54q95 0 154 -53.5t59 -137.5v-5q0 -98 -83 -153q97 -54 97 -168v-6q0 -92 -63 -147.5t-164 -55.5zM246 116q31 0 50 24t19 67v2q0 43 -19 67t-50 24t-50 -24t-19 -67v-2
q0 -43 19 -67t50 -24zM246 419q27 0 44.5 23t17.5 62q0 40 -17.5 61t-44.5 21t-44 -21t-17 -61t17 -62.5t44 -22.5z" />
    <glyph glyph-name="nine" unicode="9" horiz-adv-x="499" 
d="M203 132q50 0 78 37.5t31 101.5q-49 -35 -107 -35q-75 0 -128.5 55t-53.5 164v5q0 115 63 184t156 69q94 0 150 -58q82 -82 82 -285v-6q0 -192 -71 -284t-195 -92q-84 0 -167 52l57 132q58 -40 105 -40zM247 363q66 0 66 106v2q0 50 -17.5 78t-49.5 28q-66 0 -66 -106v-2
q0 -106 67 -106z" />
    <glyph glyph-name="colon" unicode=":" horiz-adv-x="245" 
d="M37 369v172h172v-172h-172zM37 0v173h172v-173h-172z" />
    <glyph glyph-name="semicolon" unicode=";" horiz-adv-x="245" 
d="M37 369v172h172v-172h-172zM33 -154l-13 62q49 9 71.5 33.5t21.5 58.5h-76v173h172v-141q0 -168 -176 -186z" />
    <glyph glyph-name="less" unicode="&#x3c;" horiz-adv-x="488" 
d="M438 87l-398 193v145l398 192v-164l-243 -100l243 -100v-166z" />
    <glyph glyph-name="equal" unicode="=" horiz-adv-x="488" 
d="M38 396v145h412v-145h-412zM38 163v146h412v-146h-412z" />
    <glyph glyph-name="greater" unicode="&#x3e;" horiz-adv-x="488" 
d="M50 87v164l244 100l-244 100v166l398 -192v-145z" />
    <glyph glyph-name="question" unicode="?" horiz-adv-x="415" 
d="M132 226l-20 175l5 6q120 20 120 90v2q0 26 -17.5 42t-46.5 16q-49 0 -109 -49l-66 128q93 72 191 72q97 0 154 -53.5t57 -141.5q0 -142 -150 -193l-14 -94h-104zM95 0v163h176v-163h-176z" />
    <glyph glyph-name="at" unicode="@" horiz-adv-x="739" 
d="M362 -145q-146 0 -239.5 102.5t-92.5 277.5q0 125 45 233.5t131 176t194 67.5q134 0 221.5 -98.5t87.5 -235.5q0 -139 -51.5 -229.5t-133.5 -90.5q-93 0 -116 81q-50 -78 -118 -78q-53 0 -87 40.5t-34 114.5q0 120 53 212t125 92q66 0 93 -70l11 59l123 -19l-47 -280
q-6 -25 -6 -52q0 -45 40 -45q41 0 73 79t32 190q0 119 -75 204t-194 85q-140 0 -232 -131.5t-92 -307.5q0 -154 80.5 -245.5t211.5 -91.5q96 0 178 50l21 -35q-94 -55 -202 -55zM337 164q18 0 33 15q21 21 34.5 76.5t13.5 96.5q0 57 -39 57q-18 0 -33 -15
q-21 -21 -34.5 -76.5t-13.5 -95.5q0 -58 39 -58z" />
    <glyph glyph-name="A" unicode="A" horiz-adv-x="556" 
d="M1 0l188 703h178l189 -703h-169l-30 127h-162l-30 -127h-164zM227 262h98l-49 214z" />
    <glyph glyph-name="B" unicode="B" horiz-adv-x="521" 
d="M40 0v700h214q129 0 189 -60q45 -45 45 -120v-5q0 -105 -97 -154q115 -47 115 -159v-7q0 -90 -66.5 -142.5t-185.5 -52.5h-214zM327 486v1q0 69 -79 69h-47v-140h45q38 0 59.5 18.5t21.5 51.5zM342 217q0 33 -23 52.5t-63 19.5h-55v-145h56q39 0 62 19.5t23 52.5v1z" />
    <glyph glyph-name="C" unicode="C" horiz-adv-x="489" 
d="M294 -10q-120 0 -194 90.5t-74 256.5v24q0 166 78 257.5t197 91.5q106 0 180 -71l-85 -132q-44 46 -89 46q-50 0 -81.5 -50.5t-31.5 -148.5v-6q0 -102 32.5 -151t80.5 -49q45 0 94 49l82 -128q-82 -79 -189 -79z" />
    <glyph glyph-name="D" unicode="D" horiz-adv-x="556" 
d="M40 0v700h185q148 0 227.5 -88.5t79.5 -248.5v-24q0 -160 -80 -249.5t-228 -89.5h-184zM228 551h-23v-402h23q135 0 135 192v18q0 192 -135 192z" />
    <glyph glyph-name="E" unicode="E" horiz-adv-x="460" 
d="M40 0v700h391v-150h-227v-125h204v-145h-204v-130h231v-150h-395z" />
    <glyph glyph-name="F" unicode="F" horiz-adv-x="442" 
d="M40 0v700h383v-152h-218v-131h194v-147h-194v-270h-165z" />
    <glyph glyph-name="G" unicode="G" horiz-adv-x="547" 
d="M311 -10q-126 0 -205.5 90.5t-79.5 255.5v28q0 159 82 252.5t210 93.5q103 0 192 -67l-84 -135q-46 48 -102 48q-58 0 -94.5 -52t-36.5 -145v-18q0 -103 35 -153.5t89 -50.5q28 0 46 11v126h-82v136h234v-356q-100 -64 -204 -64z" />
    <glyph glyph-name="H" unicode="H" horiz-adv-x="553" 
d="M40 0v700h165v-271h144v271h165v-700h-165v276h-144v-276h-165z" />
    <glyph glyph-name="I" unicode="I" horiz-adv-x="250" 
d="M43 0v700h164v-700h-164z" />
    <glyph glyph-name="J" unicode="J" horiz-adv-x="398" 
d="M160 -10q-95 0 -159 64l73 126q33 -35 67 -35q57 0 57 76v479h164v-489q0 -110 -57 -167q-54 -54 -145 -54z" />
    <glyph glyph-name="K" unicode="K" horiz-adv-x="530" 
d="M41 0v700h164v-270l138 270h182l-162 -295l168 -405h-186l-101 250l-39 -68v-182h-164z" />
    <glyph glyph-name="L" unicode="L" horiz-adv-x="423" 
d="M40 0v700h165v-548h203v-152h-368z" />
    <glyph glyph-name="M" unicode="M" horiz-adv-x="633" 
d="M40 0v700h164l113 -243l112 243h165v-700h-161v384l-116 -243h-2l-116 242v-383h-159z" />
    <glyph glyph-name="N" unicode="N" horiz-adv-x="567" 
d="M40 0v700h156l171 -332v332h160v-700h-148l-179 348v-348h-160z" />
    <glyph glyph-name="O" unicode="O" horiz-adv-x="581" 
d="M290 -13q-120 0 -192 93t-72 255v30q0 162 72.5 255t192.5 93t192 -92.5t72 -254.5v-30q0 -162 -72.5 -255.5t-192.5 -93.5zM291 137q96 0 96 202v21q0 104 -26 153.5t-71 49.5t-71 -49.5t-26 -152.5v-21q0 -103 26 -153t72 -50z" />
    <glyph glyph-name="P" unicode="P" horiz-adv-x="499" 
d="M40 0v700h193q118 0 186 -61.5t68 -179.5v-6q0 -120 -70.5 -182t-176.5 -64h-36v-207h-164zM204 347h28q43 0 67 27t24 76v3q0 104 -91 104h-28v-210z" />
    <glyph glyph-name="Q" unicode="Q" horiz-adv-x="584" 
d="M574 65l-97 -82l-43 52q-62 -48 -144 -48q-119 0 -191.5 93.5t-72.5 255.5v29q0 162 72.5 255t192.5 93t192 -92.5t72 -254.5v-30q0 -115 -42 -202zM294 134q23 0 41 12l-68 74l97 81l22 -25q3 27 3 60v25q0 103 -26.5 152.5t-71.5 49.5q-98 0 -98 -201v-25
q0 -203 101 -203z" />
    <glyph glyph-name="R" unicode="R" horiz-adv-x="524" 
d="M40 0v700h212q126 0 191 -65q59 -59 59 -166v-7q0 -134 -103 -196l119 -266h-182l-94 223h-38v-223h-164zM204 357h43q43 0 66 25.5t23 72.5v4q0 96 -90 96h-42v-198z" />
    <glyph glyph-name="S" unicode="S" horiz-adv-x="469" 
d="M229 -9q-132 0 -236 90l81 133q86 -74 150 -74q30 0 46.5 15.5t16.5 39.5q0 20 -18 37.5t-66 43.5q-94 48 -138 96.5t-44 124.5v3q0 94 62 151.5t163 57.5q118 0 208 -78l-84 -129q-67 58 -126 58q-25 0 -41 -13.5t-16 -33.5v-1q0 -21 20 -39.5t80 -51.5
q83 -45 124.5 -93.5t41.5 -120.5v-4q0 -94 -63.5 -153t-160.5 -59z" />
    <glyph glyph-name="T" unicode="T" horiz-adv-x="460" 
d="M148 0v548h-132v152h429v-152h-132v-548h-165z" />
    <glyph glyph-name="U" unicode="U" horiz-adv-x="547" 
d="M272 -12q-110 0 -173.5 64t-63.5 191v457h166v-464q0 -48 19.5 -72.5t53.5 -24.5q73 0 73 96v465h164v-455q0 -129 -64.5 -193t-174.5 -64z" />
    <glyph glyph-name="V" unicode="V" horiz-adv-x="533" 
d="M184 -3l-183 703h174l94 -427l93 427h170l-182 -703h-166z" />
    <glyph glyph-name="W" unicode="W" horiz-adv-x="797" 
d="M156 -3l-151 703h173l70 -405l81 406h142l81 -406l70 405h170l-151 -703h-161l-82 370l-81 -370h-161z" />
    <glyph glyph-name="X" unicode="X" horiz-adv-x="520" 
d="M336 700h172l-152 -342l158 -358h-177l-78 219l-81 -219h-172l158 356l-152 344h178l71 -205z" />
    <glyph glyph-name="Y" unicode="Y" horiz-adv-x="517" 
d="M176 0v261l-179 439h176l87 -250l87 250h172l-178 -438v-262h-165z" />
    <glyph glyph-name="Z" unicode="Z" horiz-adv-x="475" 
d="M26 0v128l224 423h-217v149h417v-128l-224 -423h224v-149h-424z" />
    <glyph glyph-name="bracketleft" unicode="[" horiz-adv-x="337" 
d="M51 -130v830h259v-111h-118v-608h118v-111h-259z" />
    <glyph glyph-name="backslash" unicode="\" horiz-adv-x="391" 
d="M291 -108l-304 886h124l303 -886h-123z" />
    <glyph glyph-name="bracketright" unicode="]" horiz-adv-x="337" 
d="M28 -130v111h118v608h-118v111h259v-830h-259z" />
    <glyph glyph-name="asciicircum" unicode="^" 
d="M88 492l101 206h122l101 -206h-106l-57 119l-57 -119h-104z" />
    <glyph glyph-name="underscore" unicode="_" horiz-adv-x="522" 
d="M-2 -154v111h526v-111h-526z" />
    <glyph glyph-name="grave" unicode="`" 
d="M249 577l-123 106l140 48l86 -154h-103z" />
    <glyph glyph-name="a" unicode="a" horiz-adv-x="450" 
d="M147 -10q-57 0 -94.5 43t-37.5 119v12q0 86 41.5 128.5t112.5 42.5q50 0 93 -20v16q0 80 -79 80q-55 0 -103 -31l-42 128q84 41 172 41q103 0 158 -53q52 -52 52 -157v-339h-159v53q-43 -63 -114 -63zM208 102q23 -1 38.5 17t15.5 49v59q-22 10 -46 10q-51 0 -51 -67v-6
q0 -60 43 -62z" />
    <glyph glyph-name="b" unicode="b" horiz-adv-x="499" 
d="M316 -11q-71 0 -122 75v-64h-160v717h160v-242q24 36 51.5 56.5t69.5 20.5q70 0 115 -64t45 -199v-36q0 -135 -44.5 -199.5t-114.5 -64.5zM255 130q29 0 45 34.5t16 94.5v24q0 60 -16 94t-45 34t-45.5 -34t-16.5 -94v-24q0 -60 16.5 -94.5t45.5 -34.5z" />
    <glyph glyph-name="c" unicode="c" horiz-adv-x="396" 
d="M238 -12q-99 0 -157.5 72.5t-58.5 196.5v21q0 124 62.5 199t161.5 75q83 0 147 -58l-74 -124q-30 35 -63 35q-35 0 -55 -34.5t-20 -95.5v-5q0 -65 20 -100t57 -35q32 0 64 36l69 -117q-63 -66 -153 -66z" />
    <glyph glyph-name="d" unicode="d" horiz-adv-x="499" 
d="M184 -11q-70 0 -115 64t-45 199v36q0 135 44.5 199.5t114.5 64.5q42 0 69.5 -19.5t52.5 -55.5v240h160v-717h-160v67q-51 -78 -121 -78zM244 130q29 0 45.5 34.5t16.5 94.5v24q0 60 -16.5 94t-45.5 34t-45 -34t-16 -94v-24q0 -60 16 -94.5t45 -34.5z" />
    <glyph glyph-name="e" unicode="e" horiz-adv-x="456" 
d="M251 -12q-103 0 -166.5 72t-63.5 199v21q0 125 59 199t153 74q97 0 150.5 -75t53.5 -205v-62h-260q15 -87 90 -87q48 0 98 46l62 -114q-85 -68 -176 -68zM175 310h113q-3 112 -56 112q-51 0 -57 -112z" />
    <glyph glyph-name="f" unicode="f" horiz-adv-x="302" 
d="M56 0v412h-42v128h42v20q0 81 40 121t119 40q44 0 82 -9v-120q-22 4 -38 4q-45 0 -45 -44v-13h83v-127h-81v-412h-160z" />
    <glyph glyph-name="g" unicode="g" horiz-adv-x="499" 
d="M223 -143q-96 0 -187 35l36 125q64 -32 135 -32q99 0 99 97v35q-52 -76 -123 -76t-115 60.5t-44 186.5v14q0 127 44 188.5t113 61.5q42 0 70 -19.5t54 -54.5v63h160v-452q0 -117 -57 -172q-59 -60 -185 -60zM244 177q29 0 45.5 31t16.5 86v4q0 55 -16.5 86t-45.5 31
t-45 -31t-16 -87v-3q0 -117 61 -117z" />
    <glyph glyph-name="h" unicode="h" horiz-adv-x="479" 
d="M34 0v717h160v-242q50 77 122 77q63 0 97.5 -42t34.5 -114v-396h-160v349q0 29 -12.5 44.5t-33.5 15.5q-22 0 -35 -15.5t-13 -44.5v-349h-160z" />
    <glyph glyph-name="i" unicode="i" horiz-adv-x="234" 
d="M35 585v132h164v-132h-164zM37 0v541h160v-541h-160z" />
    <glyph glyph-name="j" unicode="j" horiz-adv-x="236" 
d="M36 585v132h165v-132h-165zM40 -144q-34 0 -67 6v110q12 -2 20 -2q45 0 45 49v522h161v-526q0 -84 -40.5 -121.5t-118.5 -37.5z" />
    <glyph glyph-name="k" unicode="k" horiz-adv-x="458" 
d="M34 0v717h160v-356l91 180h172l-118 -215l119 -326h-174l-62 189l-28 -47v-142h-160z" />
    <glyph glyph-name="l" unicode="l" horiz-adv-x="234" 
d="M37 0v717h160v-717h-160z" />
    <glyph glyph-name="m" unicode="m" horiz-adv-x="726" 
d="M34 0v541h160v-66q48 77 121 77q80 0 115 -73q55 73 130 73q61 0 98 -41.5t37 -114.5v-396h-160v349q0 60 -44 60q-21 0 -34 -15.5t-13 -44.5v-349h-159v349q0 60 -45 60q-21 0 -33.5 -15.5t-12.5 -44.5v-349h-160z" />
    <glyph glyph-name="n" unicode="n" horiz-adv-x="479" 
d="M34 0v541h160v-66q50 77 122 77q63 0 97.5 -42t34.5 -114v-396h-160v349q0 29 -12.5 44.5t-33.5 15.5q-22 0 -35 -15.5t-13 -44.5v-349h-160z" />
    <glyph glyph-name="o" unicode="o" horiz-adv-x="487" 
d="M243 -13q-99 0 -160 72.5t-61 195.5v29q0 123 61.5 196t160.5 73t160 -72.5t61 -195.5v-29q0 -123 -61.5 -196t-160.5 -73zM244 127q63 0 63 135v17q0 135 -64 135q-63 0 -63 -135v-17q0 -64 16.5 -99.5t47.5 -35.5z" />
    <glyph glyph-name="p" unicode="p" horiz-adv-x="499" 
d="M34 -140v681h160v-66q24 36 51.5 56.5t69.5 20.5q70 0 115 -64t45 -199v-36q0 -135 -44.5 -199.5t-114.5 -64.5q-71 0 -122 75v-204h-160zM255 130q29 0 45 34.5t16 94.5v24q0 60 -16 94t-45 34t-45.5 -34t-16.5 -94v-24q0 -60 16.5 -94.5t45.5 -34.5z" />
    <glyph glyph-name="q" unicode="q" horiz-adv-x="499" 
d="M305 -140v207q-51 -78 -121 -78t-115 64t-45 199v36q0 135 44.5 199.5t114.5 64.5q42 0 69.5 -19.5t52.5 -55.5v64h160v-681h-160zM244 130q29 0 45.5 34.5t16.5 94.5v24q0 60 -16.5 94t-45.5 34t-45 -34t-16 -94v-24q0 -60 16 -94.5t45 -34.5z" />
    <glyph glyph-name="r" unicode="r" horiz-adv-x="319" 
d="M34 0v541h160v-86q34 98 114 93v-183h-7q-107 0 -107 -134v-231h-160z" />
    <glyph glyph-name="s" unicode="s" horiz-adv-x="385" 
d="M188 -11q-104 0 -190 66l62 121q74 -56 124 -56q19 0 29 9t10 22v1q0 14 -14.5 26t-54.5 33q-70 35 -102.5 71.5t-32.5 97.5v2q0 76 50.5 122.5t132.5 46.5q92 0 170 -52l-62 -119q-57 41 -103 41q-18 0 -28 -8.5t-10 -20.5v-2q0 -14 14.5 -25t56.5 -33
q70 -37 101.5 -74.5t31.5 -92.5v-2q0 -80 -50.5 -127t-134.5 -47z" />
    <glyph glyph-name="t" unicode="t" horiz-adv-x="316" 
d="M195 -10q-139 0 -139 135v287h-42v129h42v134h159v-134h83v-129h-83v-244q0 -37 36 -37q21 0 46 11v-127q-48 -25 -102 -25z" />
    <glyph glyph-name="u" unicode="u" horiz-adv-x="479" 
d="M163 -11q-63 0 -97.5 42t-34.5 115v395h160v-349q0 -28 12.5 -44t33.5 -16t34 16t13 44v349h161v-541h-161v66q-48 -77 -121 -77z" />
    <glyph glyph-name="v" unicode="v" horiz-adv-x="464" 
d="M154 -3l-150 544h164l66 -317l65 317h162l-150 -544h-157z" />
    <glyph glyph-name="w" unicode="w" horiz-adv-x="653" 
d="M125 -3l-118 544h158l47 -276l51 277h128l52 -278l47 277h157l-120 -544h-144l-57 265l-58 -265h-143z" />
    <glyph glyph-name="x" unicode="x" horiz-adv-x="453" 
d="M173 541l53 -142l56 142h163l-126 -266l130 -275h-167l-56 150l-58 -150h-164l129 275l-126 266h166z" />
    <glyph glyph-name="y" unicode="y" horiz-adv-x="463" 
d="M234 231l64 310h161l-142 -522q-23 -88 -61.5 -126t-105.5 -38q-55 0 -109 28l29 119q28 -16 52 -16q26 0 32 21l-149 534h163z" />
    <glyph glyph-name="z" unicode="z" horiz-adv-x="400" 
d="M19 0v112l176 298h-171v131h359v-111l-176 -298h176v-132h-364z" />
    <glyph glyph-name="braceleft" unicode="{" horiz-adv-x="376" 
d="M340 -139q-228 15 -228 168q0 23 9 64t9 61q0 75 -88 75h-19v115h19q88 0 88 75q0 20 -9 61t-9 64q0 152 228 167l17 -105q-55 -6 -78.5 -25t-23.5 -56q0 -20 9.5 -59.5t9.5 -61.5q0 -46 -30 -77t-83 -40q53 -10 83 -41t30 -77q0 -22 -9.5 -61.5t-9.5 -59.5
q0 -37 23.5 -56.5t78.5 -24.5z" />
    <glyph glyph-name="bar" unicode="|" horiz-adv-x="272" 
d="M78 -108v886h117v-886h-117z" />
    <glyph glyph-name="braceright" unicode="}" horiz-adv-x="376" 
d="M37 -139l-17 106q55 5 78.5 24.5t23.5 56.5q0 20 -9.5 59.5t-9.5 61.5q0 46 30 77t83 41q-53 9 -83 40t-30 77q0 22 9.5 61.5t9.5 59.5q0 37 -23.5 56t-78.5 25l17 105q227 -15 227 -167q0 -23 -9 -64t-9 -61q0 -75 89 -75h18v-115h-18q-89 0 -89 -75q0 -20 9 -61t9 -64
q0 -153 -227 -168z" />
    <glyph glyph-name="asciitilde" unicode="~" horiz-adv-x="410" 
d="M281 245q-30 0 -76 20q-43 17 -56 17q-15 0 -23 -9.5t-15 -32.5l-76 19q8 62 33 93.5t63 31.5q31 0 75 -21q47 -17 55 -17q30 0 41 43l74 -19q-18 -125 -95 -125z" />
    <glyph glyph-name="uni00A0" unicode="&#xa0;" horiz-adv-x="176" 
 />
    <glyph glyph-name="exclamdown" unicode="&#xa1;" horiz-adv-x="263" 
d="M44 537v163h175v-163h-175zM35 0v38l55 437h83l56 -437v-38h-194z" />
    <glyph glyph-name="cent" unicode="&#xa2;" horiz-adv-x="407" 
d="M308 705l-6 -76q50 -12 95 -52l-71 -120q-33 37 -68 37q-38 0 -59.5 -35.5t-21.5 -101.5v-4q0 -69 21.5 -105t60.5 -36q36 0 70 36l67 -113q-56 -54 -127 -63l-5 -78h-105l6 91q-66 25 -104 92t-38 163v21q0 107 47.5 178.5t126.5 89.5l5 76h106z" />
    <glyph glyph-name="sterling" unicode="&#xa3;" horiz-adv-x="467" 
d="M27 0v108l60 28v132h-58v135h58v75q0 120 60 179q56 54 144 54q99 0 164 -62l-74 -126q-38 34 -70 34q-23 0 -40 -15q-19 -19 -19 -68v-71h142v-135h-142v-124h195v-144h-420z" />
    <glyph glyph-name="yen" unicode="&#xa5;" horiz-adv-x="517" 
d="M52 259v115h90l-141 326h173l87 -246l86 246h170l-142 -326h91v-115h-126v-50h126v-114h-126v-95h-162v95h-126v114h126v50h-126z" />
    <glyph glyph-name="section" unicode="&#xa7;" horiz-adv-x="490" 
d="M382 238q41 -36 41 -93v-2q0 -69 -49.5 -112t-134.5 -43q-97 0 -180 51l53 114q69 -40 118 -40q43 0 43 29v1q0 15 -17 26t-66 29q-88 32 -127.5 62t-39.5 83v2q0 78 86 117q-41 38 -41 94v2q0 69 49.5 111.5t134.5 42.5q99 0 180 -50l-53 -115q-66 41 -118 41
q-20 0 -31.5 -8.5t-11.5 -21.5v-1q0 -15 17 -26t66 -29q88 -32 127.5 -61.5t39.5 -83.5v-2q0 -78 -86 -117zM290 292q18 0 31 12t13 28v1q0 18 -17.5 32t-60.5 29q-36 14 -55 14t-31.5 -11.5t-12.5 -28.5v-1q0 -17 17.5 -31t60.5 -29q35 -15 55 -15z" />
    <glyph glyph-name="dieresis" unicode="&#xa8;" 
d="M269 578v125h129v-125h-129zM103 578v125h129v-125h-129z" />
    <glyph glyph-name="copyright" unicode="&#xa9;" horiz-adv-x="622" 
d="M311 -13q-123 0 -202 98.5t-79 253.5v23q0 155 79 253t202 98t202 -98t79 -253v-23q0 -155 -79 -253.5t-202 -98.5zM311 25q108 0 175 87.5t67 226.5v24q0 139 -66.5 226t-175.5 87q-108 0 -175 -87.5t-67 -226.5v-24q0 -139 66.5 -226t175.5 -87zM324 147
q-69 0 -112 51.5t-43 145.5v15q0 94 45 146t113 52q59 0 103 -39l-48 -78q-23 25 -49 25q-28 0 -45.5 -27t-17.5 -82v-6q0 -57 18.5 -84t45.5 -27q25 0 51 28l46 -75q-42 -45 -107 -45z" />
    <glyph glyph-name="ordfeminine" unicode="&#xaa;" horiz-adv-x="299" 
d="M107 400q-32 0 -52 23.5t-20 65.5v6q0 47 22.5 70.5t61.5 23.5q27 0 51 -12v9q0 43 -44 43q-29 0 -57 -18l-23 72q47 22 97 22q56 0 84 -28q30 -29 30 -87v-184h-87v29q-25 -35 -63 -35zM33 284v69h231v-69h-231zM141 462q13 0 21.5 9t8.5 24v34q-16 7 -26 7
q-29 0 -29 -35v-7q0 -32 25 -32z" />
    <glyph glyph-name="guillemotleft" unicode="&#xab;" 
d="M374 40l-147 226v8l147 226l105 -50l-98 -179l99 -180zM162 40l-141 215v30l141 215l105 -50l-99 -179l100 -180z" />
    <glyph glyph-name="registered" unicode="&#xae;" horiz-adv-x="313" 
d="M157 360q-62 0 -101.5 47.5t-39.5 122.5v12q0 75 40 122.5t101 47.5t100.5 -47.5t39.5 -122.5v-11q0 -75 -39.5 -123t-100.5 -48zM157 379q54 0 87 42.5t33 109.5v11q0 66 -33 108.5t-87 42.5q-53 0 -86.5 -42.5t-33.5 -108.5v-12q0 -67 33 -109t87 -42zM95 443v192h62
q71 0 71 -64v-2q0 -37 -29 -54l33 -72h-52l-28 60h-9v-60h-48zM143 542h12q24 0 24 25v2q0 24 -24 24h-12v-51z" />
    <glyph glyph-name="macron" unicode="&#xaf;" 
d="M105 582v98h290v-98h-290z" />
    <glyph glyph-name="degree" unicode="&#xb0;" horiz-adv-x="342" 
d="M171 354q-61 0 -101 47t-40 122v15q0 75 40 122t101 47t101.5 -47t40.5 -122v-15q0 -76 -40 -122.5t-102 -46.5zM171 443q22 0 34.5 22t12.5 62v7q0 84 -47 84t-47 -84v-7q0 -40 12.5 -62t34.5 -22z" />
    <glyph glyph-name="plusminus" unicode="&#xb1;" horiz-adv-x="488" 
d="M453 330h-138v-142h-142l1 142h-139v139l139 -1l-1 143h142v-143l138 1v-139zM452 0h-416v130h416v-130z" />
    <glyph glyph-name="acute" unicode="&#xb4;" 
d="M145 577l86 154l140 -48l-123 -106h-103z" />
    <glyph glyph-name="paragraph" unicode="&#xb6;" horiz-adv-x="438" 
d="M244 0v223h-7q-97 7 -159 66t-62 171v3q0 119 68.5 178t181.5 59h130v-700h-152z" />
    <glyph glyph-name="periodcentered" unicode="&#xb7;" horiz-adv-x="245" 
d="M36 226v173h173v-173h-173z" />
    <glyph glyph-name="cedilla" unicode="&#xb8;" 
d="M261 -144l-138 44l87 120h102z" />
    <glyph glyph-name="ordmasculine" unicode="&#xba;" horiz-adv-x="299" 
d="M149 398q-53 0 -86.5 39t-33.5 106v16q0 67 33.5 107t87.5 40t87.5 -39.5t33.5 -106.5v-16q0 -67 -34 -106.5t-88 -39.5zM38 284v69h223v-69h-223zM150 474q34 0 34 72v11q0 73 -34 73q-35 0 -35 -73v-10q0 -73 35 -73z" />
    <glyph glyph-name="guillemotright" unicode="&#xbb;" 
d="M338 40l-104 50l98 179l-99 180l105 51l141 -215v-30zM126 40l-105 50l99 179l-100 180l106 51l148 -226v-8z" />
    <glyph glyph-name="questiondown" unicode="&#xbf;" horiz-adv-x="415" 
d="M227 -8q-97 0 -154.5 53.5t-57.5 141.5q0 141 151 194l13 94h105l19 -175l-5 -7q-120 -19 -120 -90v-1q0 -26 17.5 -42t46.5 -16q47 0 110 48l65 -128q-93 -72 -190 -72zM144 537v163h176v-163h-176z" />
    <glyph glyph-name="Agrave" unicode="&#xc0;" horiz-adv-x="556" 
d="M1 0l188 703h178l189 -703h-169l-30 127h-162l-30 -127h-164zM227 262h98l-49 214zM341 740h-116l-120 87l151 46z" />
    <glyph glyph-name="Aacute" unicode="&#xc1;" horiz-adv-x="556" 
d="M1 0l188 703h178l189 -703h-169l-30 127h-162l-30 -127h-164zM227 262h98l-49 214zM216 740l85 133l151 -46l-120 -87h-116z" />
    <glyph glyph-name="Acircumflex" unicode="&#xc2;" horiz-adv-x="556" 
d="M1 0l188 703h178l189 -703h-169l-30 127h-162l-30 -127h-164zM227 262h98l-49 214zM120 739l91 123h132l91 -123h-104l-54 44l-53 -44h-103z" />
    <glyph glyph-name="Atilde" unicode="&#xc3;" horiz-adv-x="556" 
d="M1 0l188 703h178l189 -703h-169l-30 127h-162l-30 -127h-164zM227 262h98l-49 214zM357 738q-21 0 -76 19q-42 16 -54 16q-14 0 -21.5 -9t-14.5 -30l-78 18q18 126 92 126q29 0 77 -19q39 -15 53 -15q15 0 22.5 8.5t13.5 30.5l78 -18q-9 -65 -31 -96t-61 -31z" />
    <glyph glyph-name="Adieresis" unicode="&#xc4;" horiz-adv-x="556" 
d="M1 0l188 703h178l189 -703h-169l-30 127h-162l-30 -127h-164zM227 262h98l-49 214zM298 741v119h133v-119h-133zM124 741v119h132v-119h-132z" />
    <glyph glyph-name="Aring" unicode="&#xc5;" horiz-adv-x="556" 
d="M1 0l182 685q-16 24 -16 55q0 44 32 73t79 29q48 0 80 -29t32 -73q0 -31 -17 -56l183 -684h-169l-30 127h-162l-30 -127h-164zM227 262h98l-49 214zM278 689q24 0 39 14t15 36t-15 36.5t-39 14.5q-23 0 -38 -14.5t-15 -36.5t15 -36t38 -14z" />
    <glyph glyph-name="AE" unicode="&#xc6;" horiz-adv-x="750" 
d="M-6 0l237 700h490v-150h-220v-125h197v-145h-197v-130h224v-150h-387v127h-141l-40 -127h-163zM238 262h100v287h-12z" />
    <glyph glyph-name="Ccedilla" unicode="&#xc7;" horiz-adv-x="489" 
d="M279 -144l-138 44l73 101q-87 27 -137.5 113.5t-50.5 222.5v24q0 166 78 257.5t197 91.5q106 0 180 -71l-85 -132q-44 46 -89 46q-50 0 -81.5 -50.5t-31.5 -148.5v-6q0 -102 32.5 -151t80.5 -49q45 0 94 49l82 -128q-72 -69 -162 -77z" />
    <glyph glyph-name="Egrave" unicode="&#xc8;" horiz-adv-x="460" 
d="M300 735h-116l-120 87l151 46zM40 0v700h391v-150h-227v-125h204v-145h-204v-130h231v-150h-395z" />
    <glyph glyph-name="Eacute" unicode="&#xc9;" horiz-adv-x="460" 
d="M175 735l85 133l151 -46l-120 -87h-116zM40 0v700h391v-150h-227v-125h204v-145h-204v-130h231v-150h-395z" />
    <glyph glyph-name="Ecircumflex" unicode="&#xca;" horiz-adv-x="460" 
d="M40 0v700h391v-150h-227v-125h204v-145h-204v-130h231v-150h-395zM81 735l91 123h132l91 -123h-104l-54 44l-53 -44h-103z" />
    <glyph glyph-name="Edieresis" unicode="&#xcb;" horiz-adv-x="460" 
d="M259 736v119h133v-119h-133zM85 736v119h132v-119h-132zM40 0v700h391v-150h-227v-125h204v-145h-204v-130h231v-150h-395z" />
    <glyph glyph-name="Igrave" unicode="&#xcc;" horiz-adv-x="250" 
d="M43 0v700h164v-700h-164zM188 735h-116l-120 87l151 46z" />
    <glyph glyph-name="Iacute" unicode="&#xcd;" horiz-adv-x="250" 
d="M43 0v700h164v-700h-164zM64 735l85 133l151 -46l-120 -87h-116z" />
    <glyph glyph-name="Icircumflex" unicode="&#xce;" horiz-adv-x="250" 
d="M43 0v700h164v-700h-164zM-31 735l91 123h132l91 -123h-104l-54 44l-53 -44h-103z" />
    <glyph glyph-name="Idieresis" unicode="&#xcf;" horiz-adv-x="250" 
d="M43 0v700h164v-700h-164zM147 736v119h133v-119h-133zM-27 736v119h132v-119h-132z" />
    <glyph glyph-name="Eth" unicode="&#xd0;" horiz-adv-x="582" 
d="M65 0v284h-50v137h50v279h186q146 0 226 -89t80 -248v-24q0 -159 -80 -249t-227 -90h-185zM300 285h-73v-137h26q136 0 136 193v18q0 194 -136 194h-26v-134h73v-134z" />
    <glyph glyph-name="Ntilde" unicode="&#xd1;" horiz-adv-x="567" 
d="M362 733q-21 0 -76 19q-42 16 -54 16q-14 0 -21.5 -9t-14.5 -30l-78 18q18 126 92 126q29 0 77 -19q39 -15 53 -15q15 0 22.5 8.5t13.5 30.5l78 -18q-9 -65 -31 -96t-61 -31zM40 0v700h156l171 -332v332h160v-700h-148l-179 348v-348h-160z" />
    <glyph glyph-name="Ograve" unicode="&#xd2;" horiz-adv-x="581" 
d="M352 740h-116l-120 87l151 46zM290 -13q-120 0 -192 93t-72 255v30q0 162 72.5 255t192.5 93t192 -92.5t72 -254.5v-30q0 -162 -72.5 -255.5t-192.5 -93.5zM291 137q96 0 96 202v21q0 104 -26 153.5t-71 49.5t-71 -49.5t-26 -152.5v-21q0 -103 26 -153t72 -50z" />
    <glyph glyph-name="Oacute" unicode="&#xd3;" horiz-adv-x="581" 
d="M228 740l85 133l151 -46l-120 -87h-116zM290 -13q-120 0 -192 93t-72 255v30q0 162 72.5 255t192.5 93t192 -92.5t72 -254.5v-30q0 -162 -72.5 -255.5t-192.5 -93.5zM291 137q96 0 96 202v21q0 104 -26 153.5t-71 49.5t-71 -49.5t-26 -152.5v-21q0 -103 26 -153t72 -50z
" />
    <glyph glyph-name="Ocircumflex" unicode="&#xd4;" horiz-adv-x="581" 
d="M290 -13q-120 0 -192 93t-72 255v30q0 162 72.5 255t192.5 93t192 -92.5t72 -254.5v-30q0 -162 -72.5 -255.5t-192.5 -93.5zM291 137q96 0 96 202v21q0 104 -26 153.5t-71 49.5t-71 -49.5t-26 -152.5v-21q0 -103 26 -153t72 -50zM133 740l91 123h132l91 -123h-104l-54 44
l-53 -44h-103z" />
    <glyph glyph-name="Otilde" unicode="&#xd5;" horiz-adv-x="581" 
d="M369 738q-21 0 -76 19q-42 16 -54 16q-14 0 -21.5 -9t-14.5 -30l-78 18q18 126 92 126q29 0 77 -19q39 -15 53 -15q15 0 22.5 8.5t13.5 30.5l78 -18q-9 -65 -31 -96t-61 -31zM290 -13q-120 0 -192 93t-72 255v30q0 162 72.5 255t192.5 93t192 -92.5t72 -254.5v-30
q0 -162 -72.5 -255.5t-192.5 -93.5zM291 137q96 0 96 202v21q0 104 -26 153.5t-71 49.5t-71 -49.5t-26 -152.5v-21q0 -103 26 -153t72 -50z" />
    <glyph glyph-name="Odieresis" unicode="&#xd6;" horiz-adv-x="581" 
d="M310 741v119h133v-119h-133zM136 741v119h132v-119h-132zM290 -13q-120 0 -192 93t-72 255v30q0 162 72.5 255t192.5 93t192 -92.5t72 -254.5v-30q0 -162 -72.5 -255.5t-192.5 -93.5zM291 137q96 0 96 202v21q0 104 -26 153.5t-71 49.5t-71 -49.5t-26 -152.5v-21
q0 -103 26 -153t72 -50z" />
    <glyph glyph-name="multiply" unicode="&#xd7;" horiz-adv-x="488" 
d="M355 135l-111 117l-112 -117l-102 97l117 120l-118 119l104 98l111 -117l112 117l103 -97l-118 -119l118 -119z" />
    <glyph glyph-name="Oslash" unicode="&#xd8;" horiz-adv-x="581" 
d="M457 705h97l-61 -101q62 -94 62 -238v-30q0 -162 -73 -255.5t-192 -93.5q-82 0 -143 46l-23 -38h-97l61 101q-62 91 -62 239v30q0 162 72.5 255t192.5 93q82 0 143 -46zM291 134q100 0 100 204v23q0 42 -5 80l-157 -276q24 -31 62 -31zM190 339q0 -51 5 -80l157 276
q-25 31 -62 31q-100 0 -100 -204v-23z" />
    <glyph glyph-name="Ugrave" unicode="&#xd9;" horiz-adv-x="547" 
d="M336 735h-116l-120 87l151 46zM272 -12q-110 0 -173.5 64t-63.5 191v457h166v-464q0 -48 19.5 -72.5t53.5 -24.5q73 0 73 96v465h164v-455q0 -129 -64.5 -193t-174.5 -64z" />
    <glyph glyph-name="Uacute" unicode="&#xda;" horiz-adv-x="547" 
d="M211 735l85 133l151 -46l-120 -87h-116zM272 -12q-110 0 -173.5 64t-63.5 191v457h166v-464q0 -48 19.5 -72.5t53.5 -24.5q73 0 73 96v465h164v-455q0 -129 -64.5 -193t-174.5 -64z" />
    <glyph glyph-name="Ucircumflex" unicode="&#xdb;" horiz-adv-x="547" 
d="M272 -12q-110 0 -173.5 64t-63.5 191v457h166v-464q0 -48 19.5 -72.5t53.5 -24.5q73 0 73 96v465h164v-455q0 -129 -64.5 -193t-174.5 -64zM116 735l91 123h132l91 -123h-104l-54 44l-53 -44h-103z" />
    <glyph glyph-name="Udieresis" unicode="&#xdc;" horiz-adv-x="547" 
d="M293 736v119h133v-119h-133zM119 736v119h132v-119h-132zM272 -12q-110 0 -173.5 64t-63.5 191v457h166v-464q0 -48 19.5 -72.5t53.5 -24.5q73 0 73 96v465h164v-455q0 -129 -64.5 -193t-174.5 -64z" />
    <glyph glyph-name="Yacute" unicode="&#xdd;" horiz-adv-x="517" 
d="M176 0v261l-179 439h176l87 -250l87 250h172l-178 -438v-262h-165zM196 735l85 133l151 -46l-120 -87h-116z" />
    <glyph glyph-name="Thorn" unicode="&#xde;" horiz-adv-x="504" 
d="M40 0v700h164v-94h34q113 0 181 -61.5t68 -177.5v-7q0 -120 -70.5 -182.5t-176.5 -62.5h-36v-115h-164zM204 256h28q43 0 67 27t24 75v4q0 103 -90 103h-29v-209z" />
    <glyph glyph-name="germandbls" unicode="&#xdf;" horiz-adv-x="499" 
d="M245 -3v129q36 4 56 27t20 61q0 77 -76 91v106q57 34 57 103v1q0 33 -14 52t-37 19q-56 0 -56 -94v-492h-160v490q0 107 56 169t162 62q98 0 152 -52.5t54 -131.5v-7q0 -103 -89 -157q110 -50 110 -169v-5q0 -98 -61.5 -150.5t-173.5 -51.5z" />
    <glyph glyph-name="agrave" unicode="&#xe0;" horiz-adv-x="450" 
d="M147 -10q-57 0 -94.5 43t-37.5 119v12q0 86 41.5 128.5t112.5 42.5q50 0 93 -20v16q0 80 -79 80q-55 0 -103 -31l-42 128q84 41 172 41q103 0 158 -53q52 -52 52 -157v-339h-159v53q-43 -63 -114 -63zM208 102q23 -1 38.5 17t15.5 49v59q-22 10 -46 10q-51 0 -51 -67v-6
q0 -60 43 -62zM182 581l-123 106l140 48l86 -154h-103z" />
    <glyph glyph-name="aacute" unicode="&#xe1;" horiz-adv-x="450" 
d="M147 -10q-57 0 -94.5 43t-37.5 119v12q0 86 41.5 128.5t112.5 42.5q50 0 93 -20v16q0 80 -79 80q-55 0 -103 -31l-42 128q84 41 172 41q103 0 158 -53q52 -52 52 -157v-339h-159v53q-43 -63 -114 -63zM208 102q23 -1 38.5 17t15.5 49v59q-22 10 -46 10q-51 0 -51 -67v-6
q0 -60 43 -62zM167 581l86 154l140 -48l-123 -106h-103z" />
    <glyph glyph-name="acircumflex" unicode="&#xe2;" horiz-adv-x="450" 
d="M147 -10q-57 0 -94.5 43t-37.5 119v12q0 86 41.5 128.5t112.5 42.5q50 0 93 -20v16q0 80 -79 80q-55 0 -103 -31l-42 128q84 41 172 41q103 0 158 -53q52 -52 52 -157v-339h-159v53q-43 -63 -114 -63zM208 102q23 -1 38.5 17t15.5 49v59q-22 10 -46 10q-51 0 -51 -67v-6
q0 -60 43 -62zM72 581l94 140h122l95 -140h-98l-59 54l-58 -54h-96z" />
    <glyph glyph-name="atilde" unicode="&#xe3;" horiz-adv-x="450" 
d="M147 -10q-57 0 -94.5 43t-37.5 119v12q0 86 41.5 128.5t112.5 42.5q50 0 93 -20v16q0 80 -79 80q-55 0 -103 -31l-42 128q84 41 172 41q103 0 158 -53q52 -52 52 -157v-339h-159v53q-43 -63 -114 -63zM208 102q23 -1 38.5 17t15.5 49v59q-22 10 -46 10q-51 0 -51 -67v-6
q0 -60 43 -62zM305 580q-24 0 -73 19q-45 15 -54 15q-15 0 -22.5 -8.5t-13.5 -30.5l-77 17q18 126 90 126q23 0 74 -19q46 -16 53 -16q15 0 22.5 9t13.5 31l77 -17q-9 -65 -30.5 -95.5t-59.5 -30.5z" />
    <glyph glyph-name="adieresis" unicode="&#xe4;" horiz-adv-x="450" 
d="M147 -10q-57 0 -94.5 43t-37.5 119v12q0 86 41.5 128.5t112.5 42.5q50 0 93 -20v16q0 80 -79 80q-55 0 -103 -31l-42 128q84 41 172 41q103 0 158 -53q52 -52 52 -157v-339h-159v53q-43 -63 -114 -63zM208 102q23 -1 38.5 17t15.5 49v59q-22 10 -46 10q-51 0 -51 -67v-6
q0 -60 43 -62zM246 582v125h129v-125h-129zM80 582v125h129v-125h-129z" />
    <glyph glyph-name="aring" unicode="&#xe5;" horiz-adv-x="450" 
d="M147 -10q-57 0 -94.5 43t-37.5 119v12q0 86 41.5 128.5t112.5 42.5q50 0 93 -20v16q0 80 -79 80q-55 0 -103 -31l-42 128q84 41 172 41q103 0 158 -53q52 -52 52 -157v-339h-159v53q-43 -63 -114 -63zM208 102q23 -1 38.5 17t15.5 49v59q-22 10 -46 10q-51 0 -51 -67v-6
q0 -60 43 -62zM227 578q-44 0 -75 30.5t-31 75.5q0 43 31 73.5t75 30.5q45 0 75.5 -30t30.5 -75q0 -44 -31 -74.5t-75 -30.5zM227 630q22 0 36 15t14 38t-14 38.5t-36 15.5q-21 0 -35.5 -15.5t-14.5 -38.5t14.5 -38t35.5 -15z" />
    <glyph glyph-name="ae" unicode="&#xe6;" horiz-adv-x="693" 
d="M166 -10q-67 0 -109 44.5t-42 123.5v8q0 85 41.5 127t112.5 42q50 0 93 -20v16q0 39 -20.5 59.5t-57.5 20.5q-54 0 -105 -34l-41 133q86 39 171 39q90 0 139 -54q50 58 125 58q95 0 148 -75t53 -205q0 -47 -1 -62h-260q15 -87 91 -87q52 0 98 46l61 -114
q-81 -68 -176 -68q-110 0 -169 88q-62 -86 -152 -86zM412 310h113q-4 112 -56 112q-53 0 -57 -112zM213 103q39 0 67 51q-10 38 -13 71q-26 12 -50 12q-25 0 -38.5 -17.5t-13.5 -48.5v-7q0 -29 13 -45t35 -16z" />
    <glyph glyph-name="ccedilla" unicode="&#xe7;" horiz-adv-x="396" 
d="M229 -144l-138 44l73 100q-67 24 -104.5 91t-37.5 166v21q0 124 62.5 199t161.5 75q83 0 147 -58l-74 -124q-30 35 -63 35q-35 0 -55 -34.5t-20 -95.5v-5q0 -65 20 -100t57 -35q32 0 64 36l69 -117q-51 -52 -120 -63z" />
    <glyph glyph-name="egrave" unicode="&#xe8;" horiz-adv-x="456" 
d="M251 -12q-103 0 -166.5 72t-63.5 199v21q0 125 59 199t153 74q97 0 150.5 -75t53.5 -205v-62h-260q15 -87 90 -87q48 0 98 46l62 -114q-85 -68 -176 -68zM189 581l-123 106l140 48l86 -154h-103zM175 310h113q-3 112 -56 112q-51 0 -57 -112z" />
    <glyph glyph-name="eacute" unicode="&#xe9;" horiz-adv-x="456" 
d="M251 -12q-103 0 -166.5 72t-63.5 199v21q0 125 59 199t153 74q97 0 150.5 -75t53.5 -205v-62h-260q15 -87 90 -87q48 0 98 46l62 -114q-85 -68 -176 -68zM173 581l86 154l140 -48l-123 -106h-103zM175 310h113q-3 112 -56 112q-51 0 -57 -112z" />
    <glyph glyph-name="ecircumflex" unicode="&#xea;" horiz-adv-x="456" 
d="M251 -12q-103 0 -166.5 72t-63.5 199v21q0 125 59 199t153 74q97 0 150.5 -75t53.5 -205v-62h-260q15 -87 90 -87q48 0 98 46l62 -114q-85 -68 -176 -68zM79 580l94 140h122l95 -140h-98l-59 54l-58 -54h-96zM175 310h113q-3 112 -56 112q-51 0 -57 -112z" />
    <glyph glyph-name="edieresis" unicode="&#xeb;" horiz-adv-x="456" 
d="M251 -12q-103 0 -166.5 72t-63.5 199v21q0 125 59 199t153 74q97 0 150.5 -75t53.5 -205v-62h-260q15 -87 90 -87q48 0 98 46l62 -114q-85 -68 -176 -68zM86 582v125h129v-125h-129zM252 582v125h129v-125h-129zM175 310h113q-3 112 -56 112q-51 0 -57 -112z" />
    <glyph glyph-name="igrave" unicode="&#xec;" horiz-adv-x="234" 
d="M37 0v541h160v-541h-160zM73 577l-123 106l140 48l86 -154h-103z" />
    <glyph glyph-name="iacute" unicode="&#xed;" horiz-adv-x="234" 
d="M59 577l86 154l140 -48l-123 -106h-103zM37 0v541h160v-541h-160z" />
    <glyph glyph-name="icircumflex" unicode="&#xee;" horiz-adv-x="234" 
d="M-37 577l94 140h122l95 -140h-98l-59 54l-58 -54h-96zM37 0v541h160v-541h-160z" />
    <glyph glyph-name="idieresis" unicode="&#xef;" horiz-adv-x="234" 
d="M137 578v125h129v-125h-129zM-29 578v125h129v-125h-129zM37 0v541h160v-541h-160z" />
    <glyph glyph-name="eth" unicode="&#xf0;" horiz-adv-x="486" 
d="M417 644l-52 -15q99 -144 99 -318v-23q0 -143 -59.5 -222t-163.5 -79q-99 0 -159 73.5t-60 200.5v32q0 117 46.5 184t115.5 67q47 0 91 -35q-19 39 -50 81l-87 -24l-26 74l57 16q-34 34 -65 61h186l21 -21l81 23zM243 127q64 0 64 135v17q0 64 -17 99.5t-48 35.5
q-62 0 -62 -135v-17q0 -64 16.5 -99.5t46.5 -35.5z" />
    <glyph glyph-name="ntilde" unicode="&#xf1;" horiz-adv-x="479" 
d="M34 0v541h160v-66q50 77 122 77q63 0 97.5 -42t34.5 -114v-396h-160v349q0 29 -12.5 44.5t-33.5 15.5q-22 0 -35 -15.5t-13 -44.5v-349h-160zM319 580q-24 0 -73 19q-45 15 -54 15q-15 0 -22.5 -8.5t-13.5 -30.5l-77 17q18 126 90 126q23 0 74 -19q46 -16 53 -16
q15 0 22.5 9t13.5 31l77 -17q-9 -65 -30.5 -95.5t-59.5 -30.5z" />
    <glyph glyph-name="ograve" unicode="&#xf2;" horiz-adv-x="487" 
d="M243 -13q-99 0 -160 72.5t-61 195.5v29q0 123 61.5 196t160.5 73t160 -72.5t61 -195.5v-29q0 -123 -61.5 -196t-160.5 -73zM244 127q63 0 63 135v17q0 135 -64 135q-63 0 -63 -135v-17q0 -64 16.5 -99.5t47.5 -35.5zM200 581l-123 106l140 48l86 -154h-103z" />
    <glyph glyph-name="oacute" unicode="&#xf3;" horiz-adv-x="487" 
d="M184 581l86 154l140 -48l-123 -106h-103zM243 -13q-99 0 -160 72.5t-61 195.5v29q0 123 61.5 196t160.5 73t160 -72.5t61 -195.5v-29q0 -123 -61.5 -196t-160.5 -73zM244 127q63 0 63 135v17q0 135 -64 135q-63 0 -63 -135v-17q0 -64 16.5 -99.5t47.5 -35.5z" />
    <glyph glyph-name="ocircumflex" unicode="&#xf4;" horiz-adv-x="487" 
d="M90 580l94 140h122l95 -140h-98l-59 54l-58 -54h-96zM243 -13q-99 0 -160 72.5t-61 195.5v29q0 123 61.5 196t160.5 73t160 -72.5t61 -195.5v-29q0 -123 -61.5 -196t-160.5 -73zM244 127q63 0 63 135v17q0 135 -64 135q-63 0 -63 -135v-17q0 -64 16.5 -99.5t47.5 -35.5z
" />
    <glyph glyph-name="otilde" unicode="&#xf5;" horiz-adv-x="487" 
d="M243 -13q-99 0 -160 72.5t-61 195.5v29q0 123 61.5 196t160.5 73t160 -72.5t61 -195.5v-29q0 -123 -61.5 -196t-160.5 -73zM244 127q63 0 63 135v17q0 135 -64 135q-63 0 -63 -135v-17q0 -64 16.5 -99.5t47.5 -35.5zM322 580q-24 0 -73 19q-45 15 -54 15
q-15 0 -22.5 -8.5t-13.5 -30.5l-77 17q18 126 90 126q23 0 74 -19q46 -16 53 -16q15 0 22.5 9t13.5 31l77 -17q-9 -65 -30.5 -95.5t-59.5 -30.5z" />
    <glyph glyph-name="odieresis" unicode="&#xf6;" horiz-adv-x="487" 
d="M263 582v125h129v-125h-129zM97 582v125h129v-125h-129zM243 -13q-99 0 -160 72.5t-61 195.5v29q0 123 61.5 196t160.5 73t160 -72.5t61 -195.5v-29q0 -123 -61.5 -196t-160.5 -73zM244 127q63 0 63 135v17q0 135 -64 135q-63 0 -63 -135v-17q0 -64 16.5 -99.5
t47.5 -35.5z" />
    <glyph glyph-name="divide" unicode="&#xf7;" horiz-adv-x="488" 
d="M169 473v138h150v-138h-150zM454 284h-420v136h420v-136zM169 94v137h150v-137h-150z" />
    <glyph glyph-name="oslash" unicode="&#xf8;" horiz-adv-x="487" 
d="M385 545h91l-58 -85q47 -71 47 -175v-29q0 -123 -61.5 -196t-160.5 -73q-69 0 -121 38l-20 -30h-91l58 85q-47 70 -47 175v29q0 123 61.5 196t160.5 73q67 0 121 -38zM174 260q0 -23 1 -34l110 172q-17 21 -42 21q-33 0 -51 -36.5t-18 -102.5v-20zM244 122q33 0 51 36.5
t18 101.5v20q0 23 -1 33l-110 -171q17 -20 42 -20z" />
    <glyph glyph-name="ugrave" unicode="&#xf9;" horiz-adv-x="479" 
d="M163 -11q-63 0 -97.5 42t-34.5 115v395h160v-349q0 -28 12.5 -44t33.5 -16t34 16t13 44v349h161v-541h-161v66q-48 -77 -121 -77zM194 577l-123 106l140 48l86 -154h-103z" />
    <glyph glyph-name="uacute" unicode="&#xfa;" horiz-adv-x="479" 
d="M178 577l86 154l140 -48l-123 -106h-103zM163 -11q-63 0 -97.5 42t-34.5 115v395h160v-349q0 -28 12.5 -44t33.5 -16t34 16t13 44v349h161v-541h-161v66q-48 -77 -121 -77z" />
    <glyph glyph-name="ucircumflex" unicode="&#xfb;" horiz-adv-x="479" 
d="M83 577l94 140h122l95 -140h-98l-59 54l-58 -54h-96zM163 -11q-63 0 -97.5 42t-34.5 115v395h160v-349q0 -28 12.5 -44t33.5 -16t34 16t13 44v349h161v-541h-161v66q-48 -77 -121 -77z" />
    <glyph glyph-name="udieresis" unicode="&#xfc;" horiz-adv-x="479" 
d="M257 578v125h129v-125h-129zM91 578v125h129v-125h-129zM163 -11q-63 0 -97.5 42t-34.5 115v395h160v-349q0 -28 12.5 -44t33.5 -16t34 16t13 44v349h161v-541h-161v66q-48 -77 -121 -77z" />
    <glyph glyph-name="yacute" unicode="&#xfd;" horiz-adv-x="463" 
d="M234 231l64 310h161l-142 -522q-23 -88 -61.5 -126t-105.5 -38q-55 0 -109 28l29 119q28 -16 52 -16q26 0 32 21l-149 534h163zM173 577l86 154l140 -48l-123 -106h-103z" />
    <glyph glyph-name="thorn" unicode="&#xfe;" horiz-adv-x="499" 
d="M34 -140v857h160v-242q24 36 51.5 56.5t69.5 20.5q70 0 115 -64t45 -199v-36q0 -135 -44.5 -199.5t-114.5 -64.5q-71 0 -122 75v-204h-160zM255 130q29 0 45 34.5t16 94.5v24q0 60 -16 94t-45 34t-45.5 -34t-16.5 -94v-24q0 -60 16.5 -94.5t45.5 -34.5z" />
    <glyph glyph-name="ydieresis" unicode="&#xff;" horiz-adv-x="463" 
d="M234 231l64 310h161l-142 -522q-23 -88 -61.5 -126t-105.5 -38q-55 0 -109 28l29 119q28 -16 52 -16q26 0 32 21l-149 534h163zM252 578v125h129v-125h-129zM86 578v125h129v-125h-129z" />
    <glyph glyph-name="Amacron" unicode="&#x100;" horiz-adv-x="556" 
d="M1 0l188 703h178l189 -703h-169l-30 127h-162l-30 -127h-164zM227 262h98l-49 214zM124 744v101h307v-101h-307z" />
    <glyph glyph-name="amacron" unicode="&#x101;" horiz-adv-x="450" 
d="M147 -10q-57 0 -94.5 43t-37.5 119v12q0 86 41.5 128.5t112.5 42.5q50 0 93 -20v16q0 80 -79 80q-55 0 -103 -31l-42 128q84 41 172 41q103 0 158 -53q52 -52 52 -157v-339h-159v53q-43 -63 -114 -63zM208 102q23 -1 38.5 17t15.5 49v59q-22 10 -46 10q-51 0 -51 -67v-6
q0 -60 43 -62zM82 586v98h290v-98h-290z" />
    <glyph glyph-name="Abreve" unicode="&#x102;" horiz-adv-x="556" 
d="M1 0l188 703h178l189 -703h-169l-30 127h-162l-30 -127h-164zM227 262h98l-49 214zM277 737q-64 0 -103.5 30.5t-43.5 91.5h92q10 -37 55 -37q44 0 56 37h91q-4 -61 -43.5 -91.5t-103.5 -30.5z" />
    <glyph glyph-name="abreve" unicode="&#x103;" horiz-adv-x="450" 
d="M147 -10q-57 0 -94.5 43t-37.5 119v12q0 86 41.5 128.5t112.5 42.5q50 0 93 -20v16q0 80 -79 80q-55 0 -103 -31l-42 128q84 41 172 41q103 0 158 -53q52 -52 52 -157v-339h-159v53q-43 -63 -114 -63zM208 102q23 -1 38.5 17t15.5 49v59q-22 10 -46 10q-51 0 -51 -67v-6
q0 -60 43 -62zM227 578q-63 0 -103 34.5t-46 99.5h91q10 -47 58 -47t59 47h90q-6 -65 -46 -99.5t-103 -34.5z" />
    <glyph glyph-name="Aogonek" unicode="&#x104;" horiz-adv-x="556" 
d="M562 -71v-79q-25 -4 -56 -4q-58 0 -91 19t-33 55q0 40 39 80h-34l-30 127h-162l-30 -127h-164l188 703h178l189 -703h-29q-19 -24 -19 -43q0 -15 12 -21t42 -7zM227 262h98l-49 214z" />
    <glyph glyph-name="aogonek" unicode="&#x105;" horiz-adv-x="450" 
d="M427 -71v-79q-25 -4 -56 -4q-58 0 -91 19t-33 55q0 40 39 80h-25v53q-43 -63 -114 -63q-57 0 -94.5 43t-37.5 119v12q0 86 41.5 128.5t112.5 42.5q50 0 93 -20v16q0 80 -79 80q-55 0 -103 -31l-42 128q84 41 172 41q103 0 158 -53q52 -52 52 -157v-339h-28
q-19 -24 -19 -43q0 -15 12 -21t42 -7zM208 102q23 -1 38.5 17t15.5 49v59q-22 10 -46 10q-51 0 -51 -67v-6q0 -60 43 -62z" />
    <glyph glyph-name="Cacute" unicode="&#x106;" horiz-adv-x="489" 
d="M294 -10q-120 0 -194 90.5t-74 256.5v24q0 166 78 257.5t197 91.5q106 0 180 -71l-85 -132q-44 46 -89 46q-50 0 -81.5 -50.5t-31.5 -148.5v-6q0 -102 32.5 -151t80.5 -49q45 0 94 49l82 -128q-82 -79 -189 -79zM222 740l85 133l151 -46l-120 -87h-116z" />
    <glyph glyph-name="cacute" unicode="&#x107;" horiz-adv-x="396" 
d="M173 581l86 154l140 -48l-123 -106h-103zM238 -12q-99 0 -157.5 72.5t-58.5 196.5v21q0 124 62.5 199t161.5 75q83 0 147 -58l-74 -124q-30 35 -63 35q-35 0 -55 -34.5t-20 -95.5v-5q0 -65 20 -100t57 -35q32 0 64 36l69 -117q-63 -66 -153 -66z" />
    <glyph glyph-name="Cdotaccent" unicode="&#x10a;" horiz-adv-x="489" 
d="M214 741v119h138v-119h-138zM294 -10q-120 0 -194 90.5t-74 256.5v24q0 166 78 257.5t197 91.5q106 0 180 -71l-85 -132q-44 46 -89 46q-50 0 -81.5 -50.5t-31.5 -148.5v-6q0 -102 32.5 -151t80.5 -49q45 0 94 49l82 -128q-82 -79 -189 -79z" />
    <glyph glyph-name="cdotaccent" unicode="&#x10b;" horiz-adv-x="396" 
d="M238 -12q-99 0 -157.5 72.5t-58.5 196.5v21q0 124 62.5 199t161.5 75q83 0 147 -58l-74 -124q-30 35 -63 35q-35 0 -55 -34.5t-20 -95.5v-5q0 -65 20 -100t57 -35q32 0 64 36l69 -117q-63 -66 -153 -66zM166 582v125h135v-125h-135z" />
    <glyph glyph-name="Ccaron" unicode="&#x10c;" horiz-adv-x="489" 
d="M294 -10q-120 0 -194 90.5t-74 256.5v24q0 166 78 257.5t197 91.5q106 0 180 -71l-85 -132q-44 46 -89 46q-50 0 -81.5 -50.5t-31.5 -148.5v-6q0 -102 32.5 -151t80.5 -49q45 0 94 49l82 -128q-82 -79 -189 -79zM440 863l-91 -123h-132l-91 123h104l54 -44l53 44h103z
" />
    <glyph glyph-name="ccaron" unicode="&#x10d;" horiz-adv-x="396" 
d="M389 721l-95 -140h-121l-95 140h98l58 -54l59 54h96zM238 -12q-99 0 -157.5 72.5t-58.5 196.5v21q0 124 62.5 199t161.5 75q83 0 147 -58l-74 -124q-30 35 -63 35q-35 0 -55 -34.5t-20 -95.5v-5q0 -65 20 -100t57 -35q32 0 64 36l69 -117q-63 -66 -153 -66z" />
    <glyph glyph-name="Dcaron" unicode="&#x10e;" horiz-adv-x="556" 
d="M40 0v700h185q148 0 227.5 -88.5t79.5 -248.5v-24q0 -160 -80 -249.5t-228 -89.5h-184zM228 551h-23v-402h23q135 0 135 192v18q0 192 -135 192zM425 858l-91 -123h-132l-91 123h104l54 -44l53 44h103z" />
    <glyph glyph-name="dcaron" unicode="&#x10f;" horiz-adv-x="499" 
d="M494 570l9 170h101v-1l-48 -169h-62zM184 -11q-70 0 -115 64t-45 199v36q0 135 44.5 199.5t114.5 64.5q42 0 69.5 -19.5t52.5 -55.5v240h160v-717h-160v67q-51 -78 -121 -78zM244 130q29 0 45.5 34.5t16.5 94.5v24q0 60 -16.5 94t-45.5 34t-45 -34t-16 -94v-24
q0 -60 16 -94.5t45 -34.5z" />
    <glyph glyph-name="Dcroat" unicode="&#x110;" horiz-adv-x="582" 
d="M65 0v284h-50v137h50v279h186q146 0 226 -89t80 -248v-24q0 -159 -80 -249t-227 -90h-185zM300 285h-73v-137h26q136 0 136 193v18q0 194 -136 194h-26v-134h73v-134z" />
    <glyph glyph-name="dcroat" unicode="&#x111;" horiz-adv-x="499" 
d="M207 582v90h98v45h160v-45h39v-92h-39v-580h-160v67q-51 -78 -121 -78t-115 64t-45 199v36q0 135 44.5 199.5t114.5 64.5q42 0 69.5 -19.5t52.5 -55.5v105h-98zM244 130q29 0 45.5 34.5t16.5 94.5v24q0 60 -16.5 94t-45.5 34t-45 -34t-16 -94v-24q0 -60 16 -94.5
t45 -34.5z" />
    <glyph glyph-name="Emacron" unicode="&#x112;" horiz-adv-x="460" 
d="M85 739v101h307v-101h-307zM40 0v700h391v-150h-227v-125h204v-145h-204v-130h231v-150h-395z" />
    <glyph glyph-name="emacron" unicode="&#x113;" horiz-adv-x="456" 
d="M251 -12q-103 0 -166.5 72t-63.5 199v21q0 125 59 199t153 74q97 0 150.5 -75t53.5 -205v-62h-260q15 -87 90 -87q48 0 98 46l62 -114q-85 -68 -176 -68zM88 586v98h290v-98h-290zM175 310h113q-3 112 -56 112q-51 0 -57 -112z" />
    <glyph glyph-name="Ebreve" unicode="&#x114;" horiz-adv-x="460" 
d="M238 732q-64 0 -103.5 30.5t-43.5 91.5h92q10 -37 55 -37q44 0 56 37h91q-4 -61 -43.5 -91.5t-103.5 -30.5zM40 0v700h391v-150h-227v-125h204v-145h-204v-130h231v-150h-395z" />
    <glyph glyph-name="ebreve" unicode="&#x115;" horiz-adv-x="456" 
d="M251 -12q-103 0 -166.5 72t-63.5 199v21q0 125 59 199t153 74q97 0 150.5 -75t53.5 -205v-62h-260q15 -87 90 -87q48 0 98 46l62 -114q-85 -68 -176 -68zM233 578q-63 0 -103 34.5t-46 99.5h91q10 -47 58 -47t59 47h90q-6 -65 -46 -99.5t-103 -34.5zM175 310h113
q-3 112 -56 112q-51 0 -57 -112z" />
    <glyph glyph-name="Edotaccent" unicode="&#x116;" horiz-adv-x="460" 
d="M169 736v119h138v-119h-138zM40 0v700h391v-150h-227v-125h204v-145h-204v-130h231v-150h-395z" />
    <glyph glyph-name="edotaccent" unicode="&#x117;" horiz-adv-x="456" 
d="M251 -12q-103 0 -166.5 72t-63.5 199v21q0 125 59 199t153 74q97 0 150.5 -75t53.5 -205v-62h-260q15 -87 90 -87q48 0 98 46l62 -114q-85 -68 -176 -68zM166 582v125h135v-125h-135zM175 310h113q-3 112 -56 112q-51 0 -57 -112z" />
    <glyph glyph-name="Eogonek" unicode="&#x118;" horiz-adv-x="460" 
d="M40 0v700h391v-150h-227v-125h204v-145h-204v-130h231v-150h-34q-19 -24 -19 -43q0 -15 12 -21t42 -7v-79q-25 -4 -56 -4q-58 0 -91 19t-33 55q0 40 39 80h-255z" />
    <glyph glyph-name="eogonek" unicode="&#x119;" horiz-adv-x="456" 
d="M365 170l62 -114q-30 -27 -31 -28q-42 -43 -42 -70q0 -16 12 -22t42 -7v-79q-25 -4 -56 -4q-58 0 -91 19t-33 54q0 31 30 69h-7q-103 0 -166.5 72t-63.5 199v21q0 125 59 199t153 74q97 0 150.5 -75t53.5 -205v-62h-260q15 -87 90 -87q48 0 98 46zM175 310h113
q-3 112 -56 112q-51 0 -57 -112z" />
    <glyph glyph-name="Ecaron" unicode="&#x11a;" horiz-adv-x="460" 
d="M395 858l-91 -123h-132l-91 123h104l54 -44l53 44h103zM40 0v700h391v-150h-227v-125h204v-145h-204v-130h231v-150h-395z" />
    <glyph glyph-name="ecaron" unicode="&#x11b;" horiz-adv-x="456" 
d="M251 -12q-103 0 -166.5 72t-63.5 199v21q0 125 59 199t153 74q97 0 150.5 -75t53.5 -205v-62h-260q15 -87 90 -87q48 0 98 46l62 -114q-85 -68 -176 -68zM389 721l-95 -140h-121l-95 140h98l58 -54l59 54h96zM175 310h113q-3 112 -56 112q-51 0 -57 -112z" />
    <glyph glyph-name="Gbreve" unicode="&#x11e;" horiz-adv-x="547" 
d="M301 737q-64 0 -103.5 30.5t-43.5 91.5h92q10 -37 55 -37q44 0 56 37h91q-4 -61 -43.5 -91.5t-103.5 -30.5zM311 -10q-126 0 -205.5 90.5t-79.5 255.5v28q0 159 82 252.5t210 93.5q103 0 192 -67l-84 -135q-46 48 -102 48q-58 0 -94.5 -52t-36.5 -145v-18
q0 -103 35 -153.5t89 -50.5q28 0 46 11v126h-82v136h234v-356q-100 -64 -204 -64z" />
    <glyph glyph-name="gbreve" unicode="&#x11f;" horiz-adv-x="499" 
d="M223 -143q-96 0 -187 35l36 125q64 -32 135 -32q99 0 99 97v35q-52 -76 -123 -76t-115 60.5t-44 186.5v14q0 127 44 188.5t113 61.5q42 0 70 -19.5t54 -54.5v63h160v-452q0 -117 -57 -172q-59 -60 -185 -60zM244 177q29 0 45.5 31t16.5 86v4q0 55 -16.5 86t-45.5 31
t-45 -31t-16 -87v-3q0 -117 61 -117zM258 578q-63 0 -103 34.5t-46 99.5h91q10 -47 58 -47t59 47h90q-6 -65 -46 -99.5t-103 -34.5z" />
    <glyph glyph-name="Gdotaccent" unicode="&#x120;" horiz-adv-x="547" 
d="M232 741v119h138v-119h-138zM311 -10q-126 0 -205.5 90.5t-79.5 255.5v28q0 159 82 252.5t210 93.5q103 0 192 -67l-84 -135q-46 48 -102 48q-58 0 -94.5 -52t-36.5 -145v-18q0 -103 35 -153.5t89 -50.5q28 0 46 11v126h-82v136h234v-356q-100 -64 -204 -64z" />
    <glyph glyph-name="gdotaccent" unicode="&#x121;" horiz-adv-x="499" 
d="M223 -143q-96 0 -187 35l36 125q64 -32 135 -32q99 0 99 97v35q-52 -76 -123 -76t-115 60.5t-44 186.5v14q0 127 44 188.5t113 61.5q42 0 70 -19.5t54 -54.5v63h160v-452q0 -117 -57 -172q-59 -60 -185 -60zM244 177q29 0 45.5 31t16.5 86v4q0 55 -16.5 86t-45.5 31
t-45 -31t-16 -87v-3q0 -117 61 -117zM191 582v125h135v-125h-135z" />
    <glyph glyph-name="Gcommaaccent" unicode="&#x122;" horiz-adv-x="547" 
d="M235 -252l-7 46q36 5 51 17.5t15 36.5h-60v109h131v-91q0 -58 -33 -85.5t-97 -32.5zM311 -10q-126 0 -205.5 90.5t-79.5 255.5v28q0 159 82 252.5t210 93.5q103 0 192 -67l-84 -135q-46 48 -102 48q-58 0 -94.5 -52t-36.5 -145v-18q0 -103 35 -153.5t89 -50.5q28 0 46 11
v126h-82v136h234v-356q-100 -64 -204 -64z" />
    <glyph glyph-name="gcommaaccent" unicode="&#x123;" horiz-adv-x="499" 
d="M321 791l7 -46q-36 -5 -51 -17.5t-15 -36.5h60v-109h-131v91q0 58 33 85.5t97 32.5zM223 -143q-96 0 -187 35l36 125q64 -32 135 -32q99 0 99 97v35q-52 -76 -123 -76t-115 60.5t-44 186.5v14q0 127 44 188.5t113 61.5q42 0 70 -19.5t54 -54.5v63h160v-452
q0 -117 -57 -172q-59 -60 -185 -60zM244 177q29 0 45.5 31t16.5 86v4q0 55 -16.5 86t-45.5 31t-45 -31t-16 -87v-3q0 -117 61 -117z" />
    <glyph glyph-name="Hbar" unicode="&#x126;" horiz-adv-x="572" 
d="M6 513v115h43v72h165v-75h145v75h164v-72h44v-115h-44v-513h-164v276h-145v-276h-165v513h-43zM214 427h145v89h-145v-89z" />
    <glyph glyph-name="hbar" unicode="&#x127;" horiz-adv-x="479" 
d="M292 582h-98v-107q50 77 122 77q63 0 97.5 -42t34.5 -114v-396h-160v349q0 29 -12.5 44.5t-33.5 15.5q-22 0 -35 -15.5t-13 -44.5v-349h-160v580h-39v92h39v45h160v-45h98v-90z" />
    <glyph glyph-name="Imacron" unicode="&#x12a;" horiz-adv-x="250" 
d="M43 0v700h164v-700h-164zM-27 739v101h307v-101h-307z" />
    <glyph glyph-name="imacron" unicode="&#x12b;" horiz-adv-x="234" 
d="M37 0v541h160v-541h-160zM-27 582v98h290v-98h-290z" />
    <glyph glyph-name="Ibreve" unicode="&#x12c;" horiz-adv-x="250" 
d="M43 0v700h164v-700h-164zM126 732q-64 0 -103.5 30.5t-43.5 91.5h92q10 -37 55 -37q44 0 56 37h91q-4 -61 -43.5 -91.5t-103.5 -30.5z" />
    <glyph glyph-name="ibreve" unicode="&#x12d;" horiz-adv-x="234" 
d="M37 0v541h160v-541h-160zM118 574q-63 0 -103 34.5t-46 99.5h91q10 -47 58 -47t59 47h90q-6 -65 -46 -99.5t-103 -34.5z" />
    <glyph glyph-name="Iogonek" unicode="&#x12e;" horiz-adv-x="250" 
d="M43 0v700h164v-700h-26q-19 -24 -19 -43q0 -15 12 -21t42 -7v-79q-25 -4 -56 -4q-58 0 -91 19t-33 55q0 40 39 80h-32z" />
    <glyph glyph-name="iogonek" unicode="&#x12f;" horiz-adv-x="234" 
d="M37 0v541h160v-541h-24q-19 -24 -19 -43q0 -15 12 -21t42 -7v-79q-25 -4 -56 -4q-58 0 -91 19t-33 55q0 40 39 80h-30zM35 585v132h164v-132h-164z" />
    <glyph glyph-name="Idotaccent" unicode="&#x130;" horiz-adv-x="250" 
d="M43 0v700h164v-700h-164zM57 736v119h138v-119h-138z" />
    <glyph glyph-name="dotlessi" unicode="&#x131;" horiz-adv-x="234" 
d="M37 0v541h160v-541h-160z" />
    <glyph glyph-name="Kcommaaccent" unicode="&#x136;" horiz-adv-x="530" 
d="M203 -248l-7 46q36 5 51 17.5t15 36.5h-60v109h131v-91q0 -58 -33 -85.5t-97 -32.5zM41 0v700h164v-270l138 270h182l-162 -295l168 -405h-186l-101 250l-39 -68v-182h-164z" />
    <glyph glyph-name="kcommaaccent" unicode="&#x137;" horiz-adv-x="458" 
d="M171 -248l-7 46q36 5 51 17.5t15 36.5h-60v109h131v-91q0 -58 -33 -85.5t-97 -32.5zM34 0v717h160v-356l91 180h172l-118 -215l119 -326h-174l-62 189l-28 -47v-142h-160z" />
    <glyph glyph-name="Lacute" unicode="&#x139;" horiz-adv-x="423" 
d="M76 735l85 133l151 -46l-120 -87h-116zM40 0v700h165v-548h203v-152h-368z" />
    <glyph glyph-name="lacute" unicode="&#x13a;" horiz-adv-x="234" 
d="M60 745l85 133l151 -46l-120 -87h-116zM37 0v717h160v-717h-160z" />
    <glyph glyph-name="Lcommaaccent" unicode="&#x13b;" horiz-adv-x="423" 
d="M161 -248l-7 46q36 5 51 17.5t15 36.5h-60v109h131v-91q0 -58 -33 -85.5t-97 -32.5zM40 0v700h165v-548h203v-152h-368z" />
    <glyph glyph-name="lcommaaccent" unicode="&#x13c;" horiz-adv-x="234" 
d="M54 -248l-7 46q36 5 51 17.5t15 36.5h-60v109h131v-91q0 -58 -33 -85.5t-97 -32.5zM37 0v717h160v-717h-160z" />
    <glyph glyph-name="Lcaron" unicode="&#x13d;" horiz-adv-x="423" 
d="M238 530l9 170h101v-1l-48 -169h-62zM40 0v700h165v-548h203v-152h-368z" />
    <glyph glyph-name="lcaron" unicode="&#x13e;" horiz-adv-x="234" 
d="M226 570l9 170h101v-1l-48 -169h-62zM37 0v717h160v-717h-160z" />
    <glyph glyph-name="Ldot" unicode="&#x13f;" horiz-adv-x="423" 
d="M273 313v143h127v-143h-127zM40 0v700h165v-548h203v-152h-368z" />
    <glyph glyph-name="ldot" unicode="&#x140;" horiz-adv-x="345" 
d="M232 292v142h115v-142h-115zM37 0v717h160v-717h-160z" />
    <glyph glyph-name="Lslash" unicode="&#x141;" horiz-adv-x="453" 
d="M327 356l-99 -49v-155h204v-152h-368v228l-49 -24v157l49 24v315h164v-235l99 49v-158z" />
    <glyph glyph-name="lslash" unicode="&#x142;" horiz-adv-x="293" 
d="M282 355l-55 -28v-327h-160v244l-55 -28v152l55 28v321h160v-239l55 29v-152z" />
    <glyph glyph-name="Nacute" unicode="&#x143;" horiz-adv-x="567" 
d="M221 735l85 133l151 -46l-120 -87h-116zM40 0v700h156l171 -332v332h160v-700h-148l-179 348v-348h-160z" />
    <glyph glyph-name="nacute" unicode="&#x144;" horiz-adv-x="479" 
d="M181 581l86 154l140 -48l-123 -106h-103zM34 0v541h160v-66q50 77 122 77q63 0 97.5 -42t34.5 -114v-396h-160v349q0 29 -12.5 44.5t-33.5 15.5q-22 0 -35 -15.5t-13 -44.5v-349h-160z" />
    <glyph glyph-name="Ncommaaccent" unicode="&#x145;" horiz-adv-x="567" 
d="M219 -248l-7 46q36 5 51 17.5t15 36.5h-60v109h131v-91q0 -58 -33 -85.5t-97 -32.5zM40 0v700h156l171 -332v332h160v-700h-148l-179 348v-348h-160z" />
    <glyph glyph-name="ncommaaccent" unicode="&#x146;" horiz-adv-x="479" 
d="M178 -248l-7 46q36 5 51 17.5t15 36.5h-60v109h131v-91q0 -58 -33 -85.5t-97 -32.5zM34 0v541h160v-66q50 77 122 77q63 0 97.5 -42t34.5 -114v-396h-160v349q0 29 -12.5 44.5t-33.5 15.5q-22 0 -35 -15.5t-13 -44.5v-349h-160z" />
    <glyph glyph-name="Ncaron" unicode="&#x147;" horiz-adv-x="567" 
d="M439 858l-91 -123h-132l-91 123h104l54 -44l53 44h103zM40 0v700h156l171 -332v332h160v-700h-148l-179 348v-348h-160z" />
    <glyph glyph-name="ncaron" unicode="&#x148;" horiz-adv-x="479" 
d="M397 721l-95 -140h-121l-95 140h98l58 -54l59 54h96zM34 0v541h160v-66q50 77 122 77q63 0 97.5 -42t34.5 -114v-396h-160v349q0 29 -12.5 44.5t-33.5 15.5q-22 0 -35 -15.5t-13 -44.5v-349h-160z" />
    <glyph glyph-name="Omacron" unicode="&#x14c;" horiz-adv-x="581" 
d="M136 744v101h307v-101h-307zM290 -13q-120 0 -192 93t-72 255v30q0 162 72.5 255t192.5 93t192 -92.5t72 -254.5v-30q0 -162 -72.5 -255.5t-192.5 -93.5zM291 137q96 0 96 202v21q0 104 -26 153.5t-71 49.5t-71 -49.5t-26 -152.5v-21q0 -103 26 -153t72 -50z" />
    <glyph glyph-name="omacron" unicode="&#x14d;" horiz-adv-x="487" 
d="M99 586v98h290v-98h-290zM243 -13q-99 0 -160 72.5t-61 195.5v29q0 123 61.5 196t160.5 73t160 -72.5t61 -195.5v-29q0 -123 -61.5 -196t-160.5 -73zM244 127q63 0 63 135v17q0 135 -64 135q-63 0 -63 -135v-17q0 -64 16.5 -99.5t47.5 -35.5z" />
    <glyph glyph-name="Obreve" unicode="&#x14e;" horiz-adv-x="581" 
d="M290 737q-64 0 -103.5 30.5t-43.5 91.5h92q10 -37 55 -37q44 0 56 37h91q-4 -61 -43.5 -91.5t-103.5 -30.5zM290 -13q-120 0 -192 93t-72 255v30q0 162 72.5 255t192.5 93t192 -92.5t72 -254.5v-30q0 -162 -72.5 -255.5t-192.5 -93.5zM291 137q96 0 96 202v21
q0 104 -26 153.5t-71 49.5t-71 -49.5t-26 -152.5v-21q0 -103 26 -153t72 -50z" />
    <glyph glyph-name="obreve" unicode="&#x14f;" horiz-adv-x="487" 
d="M243 -13q-99 0 -160 72.5t-61 195.5v29q0 123 61.5 196t160.5 73t160 -72.5t61 -195.5v-29q0 -123 -61.5 -196t-160.5 -73zM244 127q63 0 63 135v17q0 135 -64 135q-63 0 -63 -135v-17q0 -64 16.5 -99.5t47.5 -35.5zM244 578q-63 0 -103 34.5t-46 99.5h91q10 -47 58 -47
t59 47h90q-6 -65 -46 -99.5t-103 -34.5z" />
    <glyph glyph-name="Ohungarumlaut" unicode="&#x150;" horiz-adv-x="581" 
d="M290 -13q-120 0 -192 93t-72 255v30q0 162 72.5 255t192.5 93t192 -92.5t72 -254.5v-30q0 -162 -72.5 -255.5t-192.5 -93.5zM291 137q96 0 96 202v21q0 104 -26 153.5t-71 49.5t-71 -49.5t-26 -152.5v-21q0 -103 26 -153t72 -50zM307 740l48 77l-98 -77h-104l82 133
l129 -42l26 42l135 -44l-113 -89h-105z" />
    <glyph glyph-name="ohungarumlaut" unicode="&#x151;" horiz-adv-x="487" 
d="M243 -13q-99 0 -160 72.5t-61 195.5v29q0 123 61.5 196t160.5 73t160 -72.5t61 -195.5v-29q0 -123 -61.5 -196t-160.5 -73zM115 581l84 154l118 -44l24 44l126 -46l-117 -108h-93l50 93l-100 -93h-92zM244 127q63 0 63 135v17q0 135 -64 135q-63 0 -63 -135v-17
q0 -64 16.5 -99.5t47.5 -35.5z" />
    <glyph glyph-name="OE" unicode="&#x152;" horiz-adv-x="760" 
d="M332 0q-147 0 -226.5 89t-79.5 249v23q0 159 80 249t227 90h398v-150h-220v-125h197v-145h-197v-130h224v-150h-403zM329 149h18v403h-18q-136 0 -136 -193v-18q0 -192 136 -192z" />
    <glyph glyph-name="oe" unicode="&#x153;" horiz-adv-x="743" 
d="M237 -13q-93 0 -154 73t-61 195v29q0 122 61.5 195.5t155.5 73.5q92 0 146 -72q52 72 138 72q95 0 148 -75t53 -205q0 -47 -1 -62h-259q15 -87 90 -87q54 0 98 46l62 -114q-83 -68 -174 -68q-98 0 -155 74q-55 -75 -148 -75zM462 310h113q-4 112 -56 112q-53 0 -57 -112z
M243 127q63 0 63 135v17q0 135 -63 135t-63 -135v-17q0 -64 16.5 -99.5t46.5 -35.5z" />
    <glyph glyph-name="Racute" unicode="&#x154;" horiz-adv-x="524" 
d="M40 0v700h212q126 0 191 -65q59 -59 59 -166v-7q0 -134 -103 -196l119 -266h-182l-94 223h-38v-223h-164zM204 357h43q43 0 66 25.5t23 72.5v4q0 96 -90 96h-42v-198zM193 735l85 133l151 -46l-120 -87h-116z" />
    <glyph glyph-name="racute" unicode="&#x155;" horiz-adv-x="319" 
d="M107 577l86 154l140 -48l-123 -106h-103zM34 0v541h160v-86q34 98 114 93v-183h-7q-107 0 -107 -134v-231h-160z" />
    <glyph glyph-name="Rcommaaccent" unicode="&#x156;" horiz-adv-x="524" 
d="M40 0v700h212q126 0 191 -65q59 -59 59 -166v-7q0 -134 -103 -196l119 -266h-182l-94 223h-38v-223h-164zM204 357h43q43 0 66 25.5t23 72.5v4q0 96 -90 96h-42v-198zM192 -248l-7 46q36 5 51 17.5t15 36.5h-60v109h131v-91q0 -58 -33 -85.5t-97 -32.5z" />
    <glyph glyph-name="rcommaaccent" unicode="&#x157;" horiz-adv-x="319" 
d="M56 -248l-7 46q36 5 51 17.5t15 36.5h-60v109h131v-91q0 -58 -33 -85.5t-97 -32.5zM34 0v541h160v-86q34 98 114 93v-183h-7q-107 0 -107 -134v-231h-160z" />
    <glyph glyph-name="Rcaron" unicode="&#x158;" horiz-adv-x="524" 
d="M40 0v700h212q126 0 191 -65q59 -59 59 -166v-7q0 -134 -103 -196l119 -266h-182l-94 223h-38v-223h-164zM412 858l-91 -123h-132l-91 123h104l54 -44l53 44h103zM204 357h43q43 0 66 25.5t23 72.5v4q0 96 -90 96h-42v-198z" />
    <glyph glyph-name="rcaron" unicode="&#x159;" horiz-adv-x="319" 
d="M321 717l-95 -140h-121l-95 140h98l58 -54l59 54h96zM34 0v541h160v-86q34 98 114 93v-183h-7q-107 0 -107 -134v-231h-160z" />
    <glyph glyph-name="Sacute" unicode="&#x15a;" horiz-adv-x="469" 
d="M229 -9q-132 0 -236 90l81 133q86 -74 150 -74q30 0 46.5 15.5t16.5 39.5q0 20 -18 37.5t-66 43.5q-94 48 -138 96.5t-44 124.5v3q0 94 62 151.5t163 57.5q118 0 208 -78l-84 -129q-67 58 -126 58q-25 0 -41 -13.5t-16 -33.5v-1q0 -21 20 -39.5t80 -51.5
q83 -45 124.5 -93.5t41.5 -120.5v-4q0 -94 -63.5 -153t-160.5 -59zM177 740l85 133l151 -46l-120 -87h-116z" />
    <glyph glyph-name="sacute" unicode="&#x15b;" horiz-adv-x="385" 
d="M139 581l86 154l140 -48l-123 -106h-103zM188 -11q-104 0 -190 66l62 121q74 -56 124 -56q19 0 29 9t10 22v1q0 14 -14.5 26t-54.5 33q-70 35 -102.5 71.5t-32.5 97.5v2q0 76 50.5 122.5t132.5 46.5q92 0 170 -52l-62 -119q-57 41 -103 41q-18 0 -28 -8.5t-10 -20.5v-2
q0 -14 14.5 -25t56.5 -33q70 -37 101.5 -74.5t31.5 -92.5v-2q0 -80 -50.5 -127t-134.5 -47z" />
    <glyph glyph-name="Scedilla" unicode="&#x15e;" horiz-adv-x="469" 
d="M241 -144l-138 44l69 96q-98 14 -179 85l81 133q86 -74 150 -74q30 0 46.5 15.5t16.5 39.5q0 20 -18 37.5t-66 43.5q-94 48 -138 96.5t-44 124.5v3q0 94 62 151.5t163 57.5q118 0 208 -78l-84 -129q-67 58 -126 58q-25 0 -41 -13.5t-16 -33.5v-1q0 -21 20 -39.5t80 -51.5
q83 -45 124.5 -93.5t41.5 -120.5v-4q0 -79 -47 -135t-122 -71z" />
    <glyph glyph-name="scedilla" unicode="&#x15f;" horiz-adv-x="385" 
d="M197 -144l-138 44l69 95q-69 13 -130 60l62 121q74 -56 124 -56q19 0 29 9t10 22v1q0 14 -14.5 26t-54.5 33q-70 35 -102.5 71.5t-32.5 97.5v2q0 76 50.5 122.5t132.5 46.5q92 0 170 -52l-62 -119q-57 41 -103 41q-18 0 -28 -8.5t-10 -20.5v-2q0 -14 14.5 -25t56.5 -33
q70 -37 101.5 -74.5t31.5 -92.5v-2q0 -66 -36 -110.5t-97 -57.5z" />
    <glyph glyph-name="Scaron" unicode="&#x160;" horiz-adv-x="469" 
d="M229 -9q-132 0 -236 90l81 133q86 -74 150 -74q30 0 46.5 15.5t16.5 39.5q0 20 -18 37.5t-66 43.5q-94 48 -138 96.5t-44 124.5v3q0 94 62 151.5t163 57.5q118 0 208 -78l-84 -129q-67 58 -126 58q-25 0 -41 -13.5t-16 -33.5v-1q0 -21 20 -39.5t80 -51.5
q83 -45 124.5 -93.5t41.5 -120.5v-4q0 -94 -63.5 -153t-160.5 -59zM398 863l-91 -123h-132l-91 123h104l54 -44l53 44h103z" />
    <glyph glyph-name="scaron" unicode="&#x161;" horiz-adv-x="385" 
d="M354 721l-95 -140h-121l-95 140h98l58 -54l59 54h96zM188 -11q-104 0 -190 66l62 121q74 -56 124 -56q19 0 29 9t10 22v1q0 14 -14.5 26t-54.5 33q-70 35 -102.5 71.5t-32.5 97.5v2q0 76 50.5 122.5t132.5 46.5q92 0 170 -52l-62 -119q-57 41 -103 41q-18 0 -28 -8.5
t-10 -20.5v-2q0 -14 14.5 -25t56.5 -33q70 -37 101.5 -74.5t31.5 -92.5v-2q0 -80 -50.5 -127t-134.5 -47z" />
    <glyph glyph-name="Tcommaaccent" unicode="&#x162;" horiz-adv-x="460" 
d="M168 -248l-7 46q36 5 51 17.5t15 36.5h-60v109h131v-91q0 -58 -33 -85.5t-97 -32.5zM148 0v548h-132v152h429v-152h-132v-548h-165z" />
    <glyph glyph-name="tcommaaccent" unicode="&#x163;" horiz-adv-x="316" 
d="M106 -252l-7 46q36 5 51 17.5t15 36.5h-60v109h131v-91q0 -58 -33 -85.5t-97 -32.5zM195 -10q-139 0 -139 135v287h-42v129h42v134h159v-134h83v-129h-83v-244q0 -37 36 -37q21 0 46 11v-127q-48 -25 -102 -25z" />
    <glyph glyph-name="Tcaron" unicode="&#x164;" horiz-adv-x="460" 
d="M388 858l-91 -123h-132l-91 123h104l54 -44l53 44h103zM148 0v548h-132v152h429v-152h-132v-548h-165z" />
    <glyph glyph-name="tcaron" unicode="&#x165;" horiz-adv-x="316" 
d="M246 570l9 170h101v-1l-48 -169h-62zM195 -10q-139 0 -139 135v287h-42v129h42v134h159v-134h83v-129h-83v-244q0 -37 36 -37q21 0 46 11v-127q-48 -25 -102 -25z" />
    <glyph glyph-name="Umacron" unicode="&#x16a;" horiz-adv-x="547" 
d="M119 739v101h307v-101h-307zM272 -12q-110 0 -173.5 64t-63.5 191v457h166v-464q0 -48 19.5 -72.5t53.5 -24.5q73 0 73 96v465h164v-455q0 -129 -64.5 -193t-174.5 -64z" />
    <glyph glyph-name="umacron" unicode="&#x16b;" horiz-adv-x="479" 
d="M163 -11q-63 0 -97.5 42t-34.5 115v395h160v-349q0 -28 12.5 -44t33.5 -16t34 16t13 44v349h161v-541h-161v66q-48 -77 -121 -77zM93 582v98h290v-98h-290z" />
    <glyph glyph-name="Ubreve" unicode="&#x16c;" horiz-adv-x="547" 
d="M273 727q-64 0 -103.5 30.5t-43.5 91.5h92q10 -37 55 -37q44 0 56 37h91q-4 -61 -43.5 -91.5t-103.5 -30.5zM272 -12q-110 0 -173.5 64t-63.5 191v457h166v-464q0 -48 19.5 -72.5t53.5 -24.5q73 0 73 96v465h164v-455q0 -129 -64.5 -193t-174.5 -64z" />
    <glyph glyph-name="ubreve" unicode="&#x16d;" horiz-adv-x="479" 
d="M163 -11q-63 0 -97.5 42t-34.5 115v395h160v-349q0 -28 12.5 -44t33.5 -16t34 16t13 44v349h161v-541h-161v66q-48 -77 -121 -77zM238 573q-63 0 -103 34.5t-46 99.5h91q10 -47 58 -47t59 47h90q-6 -65 -46 -99.5t-103 -34.5z" />
    <glyph glyph-name="Uring" unicode="&#x16e;" horiz-adv-x="547" 
d="M272 -12q-110 0 -173.5 64t-63.5 191v457h166v-464q0 -48 19.5 -72.5t53.5 -24.5q73 0 73 96v465h164v-455q0 -129 -64.5 -193t-174.5 -64zM272 720q-47 0 -79 29.5t-32 73.5t32 73t79 29t79 -29t32 -73t-32 -73.5t-79 -29.5zM272 772q24 0 39 14.5t15 36.5q0 21 -15 36
t-39 15q-23 0 -38 -15t-15 -36q0 -22 15 -36.5t38 -14.5z" />
    <glyph glyph-name="uring" unicode="&#x16f;" horiz-adv-x="479" 
d="M238 568q-44 0 -75 30.5t-31 75.5q0 43 31 73.5t75 30.5q45 0 75.5 -30t30.5 -75q0 -44 -31 -74.5t-75 -30.5zM238 620q22 0 36 15t14 38t-14 38.5t-36 15.5q-21 0 -35.5 -15.5t-14.5 -38.5t14.5 -38t35.5 -15zM163 -11q-63 0 -97.5 42t-34.5 115v395h160v-349
q0 -28 12.5 -44t33.5 -16t34 16t13 44v349h161v-541h-161v66q-48 -77 -121 -77z" />
    <glyph glyph-name="Uhungarumlaut" unicode="&#x170;" horiz-adv-x="547" 
d="M272 -12q-110 0 -173.5 64t-63.5 191v457h166v-464q0 -48 19.5 -72.5t53.5 -24.5q73 0 73 96v465h164v-455q0 -129 -64.5 -193t-174.5 -64zM287 735l48 77l-98 -77h-104l82 133l129 -42l26 42l135 -44l-113 -89h-105z" />
    <glyph glyph-name="uhungarumlaut" unicode="&#x171;" horiz-adv-x="479" 
d="M163 -11q-63 0 -97.5 42t-34.5 115v395h160v-349q0 -28 12.5 -44t33.5 -16t34 16t13 44v349h161v-541h-161v66q-48 -77 -121 -77zM106 577l84 154l118 -44l24 44l126 -46l-117 -108h-93l50 93l-100 -93h-92z" />
    <glyph glyph-name="Uogonek" unicode="&#x172;" horiz-adv-x="547" 
d="M360 -71v-79q-25 -4 -56 -4q-58 0 -91 19t-33 55t33 74q-84 15 -131 77.5t-47 171.5v457h166v-464q0 -48 19.5 -72.5t53.5 -24.5q73 0 73 96v465h164v-455q0 -115 -51 -178.5t-141 -75.5q-13 -19 -13 -34t12 -21t42 -7z" />
    <glyph glyph-name="uogonek" unicode="&#x173;" horiz-adv-x="479" 
d="M163 -11q-63 0 -97.5 42t-34.5 115v395h160v-349q0 -28 12.5 -44t33.5 -16t34 16t13 44v349h161v-541h-28q-19 -24 -19 -43q0 -15 12 -21t42 -7v-79q-25 -4 -56 -4q-58 0 -91 19t-33 55q0 40 39 80h-27v66q-48 -77 -121 -77z" />
    <glyph glyph-name="Wcircumflex" unicode="&#x174;" horiz-adv-x="797" 
d="M156 -3l-151 703h173l70 -405l81 406h142l81 -406l70 405h170l-151 -703h-161l-82 370l-81 -370h-161zM241 735l91 123h132l91 -123h-104l-54 44l-53 -44h-103z" />
    <glyph glyph-name="wcircumflex" unicode="&#x175;" horiz-adv-x="653" 
d="M171 577l94 140h122l95 -140h-98l-59 54l-58 -54h-96zM125 -3l-118 544h158l47 -276l51 277h128l52 -278l47 277h157l-120 -544h-144l-57 265l-58 -265h-143z" />
    <glyph glyph-name="Ycircumflex" unicode="&#x176;" horiz-adv-x="517" 
d="M176 0v261l-179 439h176l87 -250l87 250h172l-178 -438v-262h-165zM101 735l91 123h132l91 -123h-104l-54 44l-53 -44h-103z" />
    <glyph glyph-name="ycircumflex" unicode="&#x177;" horiz-adv-x="463" 
d="M234 231l64 310h161l-142 -522q-23 -88 -61.5 -126t-105.5 -38q-55 0 -109 28l29 119q28 -16 52 -16q26 0 32 21l-149 534h163zM79 577l94 140h122l95 -140h-98l-59 54l-58 -54h-96z" />
    <glyph glyph-name="Ydieresis" unicode="&#x178;" horiz-adv-x="517" 
d="M176 0v261l-179 439h176l87 -250l87 250h172l-178 -438v-262h-165zM278 736v119h133v-119h-133zM104 736v119h132v-119h-132z" />
    <glyph glyph-name="Zacute" unicode="&#x179;" horiz-adv-x="475" 
d="M26 0v128l224 423h-217v149h417v-128l-224 -423h224v-149h-424zM180 735l85 133l151 -46l-120 -87h-116z" />
    <glyph glyph-name="zacute" unicode="&#x17a;" horiz-adv-x="400" 
d="M145 577l86 154l140 -48l-123 -106h-103zM19 0v112l176 298h-171v131h359v-111l-176 -298h176v-132h-364z" />
    <glyph glyph-name="Zdotaccent" unicode="&#x17b;" horiz-adv-x="475" 
d="M174 736v119h138v-119h-138zM26 0v128l224 423h-217v149h417v-128l-224 -423h224v-149h-424z" />
    <glyph glyph-name="zdotaccent" unicode="&#x17c;" horiz-adv-x="400" 
d="M19 0v112l176 298h-171v131h359v-111l-176 -298h176v-132h-364zM137 578v125h135v-125h-135z" />
    <glyph glyph-name="Zcaron" unicode="&#x17d;" horiz-adv-x="475" 
d="M401 858l-91 -123h-132l-91 123h104l54 -44l53 44h103zM26 0v128l224 423h-217v149h417v-128l-224 -423h224v-149h-424z" />
    <glyph glyph-name="zcaron" unicode="&#x17e;" horiz-adv-x="400" 
d="M360 717l-95 -140h-121l-95 140h98l58 -54l59 54h96zM19 0v112l176 298h-171v131h359v-111l-176 -298h176v-132h-364z" />
    <glyph glyph-name="Aringacute" unicode="&#x1fa;" horiz-adv-x="556" 
d="M1 0l182 685q-16 24 -16 55q0 44 32 73t79 29q48 0 80 -29t32 -73q0 -31 -17 -56l183 -684h-169l-30 127h-162l-30 -127h-164zM217 860l82 118l153 -45l-120 -73h-115zM227 262h98l-49 214zM278 689q24 0 39 14t15 36t-15 36.5t-39 14.5q-23 0 -38 -14.5t-15 -36.5
t15 -36t38 -14z" />
    <glyph glyph-name="aringacute" unicode="&#x1fb;" horiz-adv-x="450" 
d="M167 812l86 124l140 -42l-119 -82h-107zM147 -10q-57 0 -94.5 43t-37.5 119v12q0 86 41.5 128.5t112.5 42.5q50 0 93 -20v16q0 80 -79 80q-55 0 -103 -31l-42 128q84 41 172 41q103 0 158 -53q52 -52 52 -157v-339h-159v53q-43 -63 -114 -63zM208 102q23 -1 38.5 17
t15.5 49v59q-22 10 -46 10q-51 0 -51 -67v-6q0 -60 43 -62zM227 578q-44 0 -75 30.5t-31 75.5q0 43 31 73.5t75 30.5q45 0 75.5 -30t30.5 -75q0 -44 -31 -74.5t-75 -30.5zM227 630q22 0 36 15t14 38t-14 38.5t-36 15.5q-21 0 -35.5 -15.5t-14.5 -38.5t14.5 -38t35.5 -15z
" />
    <glyph glyph-name="AEacute" unicode="&#x1fc;" horiz-adv-x="750" 
d="M363 735l85 133l151 -46l-120 -87h-116zM-6 0l237 700h490v-150h-220v-125h197v-145h-197v-130h224v-150h-387v127h-141l-40 -127h-163zM238 262h100v287h-12z" />
    <glyph glyph-name="aeacute" unicode="&#x1fd;" horiz-adv-x="693" 
d="M284 577l86 154l140 -48l-123 -106h-103zM166 -10q-67 0 -109 44.5t-42 123.5v8q0 85 41.5 127t112.5 42q50 0 93 -20v16q0 39 -20.5 59.5t-57.5 20.5q-54 0 -105 -34l-41 133q86 39 171 39q90 0 139 -54q50 58 125 58q95 0 148 -75t53 -205q0 -47 -1 -62h-260
q15 -87 91 -87q52 0 98 46l61 -114q-81 -68 -176 -68q-110 0 -169 88q-62 -86 -152 -86zM412 310h113q-4 112 -56 112q-53 0 -57 -112zM213 103q39 0 67 51q-10 38 -13 71q-26 12 -50 12q-25 0 -38.5 -17.5t-13.5 -48.5v-7q0 -29 13 -45t35 -16z" />
    <glyph glyph-name="Oslashacute" unicode="&#x1fe;" horiz-adv-x="581" 
d="M457 705h97l-61 -101q62 -94 62 -238v-30q0 -162 -73 -255.5t-192 -93.5q-82 0 -143 46l-23 -38h-97l61 101q-62 91 -62 239v30q0 162 72.5 255t192.5 93q82 0 143 -46zM291 134q100 0 100 204v23q0 42 -5 80l-157 -276q24 -31 62 -31zM190 339q0 -51 5 -80l157 276
q-25 31 -62 31q-100 0 -100 -204v-23zM228 740l85 133l151 -46l-120 -87h-116z" />
    <glyph glyph-name="oslashacute" unicode="&#x1ff;" horiz-adv-x="487" 
d="M385 545h91l-58 -85q47 -71 47 -175v-29q0 -123 -61.5 -196t-160.5 -73q-69 0 -121 38l-20 -30h-91l58 85q-47 70 -47 175v29q0 123 61.5 196t160.5 73q67 0 121 -38zM184 581l86 154l140 -48l-123 -106h-103zM174 260q0 -23 1 -34l110 172q-17 21 -42 21
q-33 0 -51 -36.5t-18 -102.5v-20zM244 122q33 0 51 36.5t18 101.5v20q0 23 -1 33l-110 -171q17 -20 42 -20z" />
    <glyph glyph-name="Scommaaccent" unicode="&#x218;" horiz-adv-x="469" 
d="M229 -9q-132 0 -236 90l81 133q86 -74 150 -74q30 0 46.5 15.5t16.5 39.5q0 20 -18 37.5t-66 43.5q-94 48 -138 96.5t-44 124.5v3q0 94 62 151.5t163 57.5q118 0 208 -78l-84 -129q-67 58 -126 58q-25 0 -41 -13.5t-16 -33.5v-1q0 -21 20 -39.5t80 -51.5
q83 -45 124.5 -93.5t41.5 -120.5v-4q0 -94 -63.5 -153t-160.5 -59zM168 -252l-7 46q36 5 51 17.5t15 36.5h-60v109h131v-91q0 -58 -33 -85.5t-97 -32.5z" />
    <glyph glyph-name="scommaaccent" unicode="&#x219;" horiz-adv-x="385" 
d="M127 -252l-7 46q36 5 51 17.5t15 36.5h-60v109h131v-91q0 -58 -33 -85.5t-97 -32.5zM188 -11q-104 0 -190 66l62 121q74 -56 124 -56q19 0 29 9t10 22v1q0 14 -14.5 26t-54.5 33q-70 35 -102.5 71.5t-32.5 97.5v2q0 76 50.5 122.5t132.5 46.5q92 0 170 -52l-62 -119
q-57 41 -103 41q-18 0 -28 -8.5t-10 -20.5v-2q0 -14 14.5 -25t56.5 -33q70 -37 101.5 -74.5t31.5 -92.5v-2q0 -80 -50.5 -127t-134.5 -47z" />
    <glyph glyph-name="schwa" unicode="&#x259;" horiz-adv-x="456" 
d="M204 553q103 0 166.5 -72t63.5 -199v-21q0 -125 -59 -199t-153 -74q-97 0 -150.5 75t-53.5 205v62h260q-15 87 -90 87q-48 0 -98 -46l-62 114q85 68 176 68zM280 231h-113q3 -112 56 -112q51 0 57 112z" />
    <glyph glyph-name="circumflex" unicode="&#x2c6;" 
d="M95 577l94 140h122l95 -140h-98l-59 54l-58 -54h-96z" />
    <glyph glyph-name="caron" unicode="&#x2c7;" 
d="M406 717l-95 -140h-121l-95 140h98l58 -54l59 54h96z" />
    <glyph glyph-name="breve" unicode="&#x2d8;" 
d="M250 574q-63 0 -103 34.5t-46 99.5h91q10 -47 58 -47t59 47h90q-6 -65 -46 -99.5t-103 -34.5z" />
    <glyph glyph-name="dotaccent" unicode="&#x2d9;" 
d="M183 578v125h135v-125h-135z" />
    <glyph glyph-name="ring" unicode="&#x2da;" 
d="M250 574q-44 0 -75 30.5t-31 75.5q0 43 31 73.5t75 30.5q45 0 75.5 -30t30.5 -75q0 -44 -31 -74.5t-75 -30.5zM250 626q22 0 36 15t14 38t-14 38.5t-36 15.5q-21 0 -35.5 -15.5t-14.5 -38.5t14.5 -38t35.5 -15z" />
    <glyph glyph-name="ogonek" unicode="&#x2db;" 
d="M345 -71v-79q-25 -4 -56 -4q-58 0 -91 19t-33 55q0 46 59 99l97 -5q-30 -37 -30 -57q0 -15 12 -21t42 -7z" />
    <glyph glyph-name="tilde" unicode="&#x2dc;" 
d="M325 576q-24 0 -73 19q-45 15 -54 15q-15 0 -22.5 -8.5t-13.5 -30.5l-77 17q18 126 90 126q23 0 74 -19q46 -16 53 -16q15 0 22.5 9t13.5 31l77 -17q-9 -65 -30.5 -95.5t-59.5 -30.5z" />
    <glyph glyph-name="hungarumlaut" unicode="&#x2dd;" 
d="M76 577l84 154l118 -44l24 44l126 -46l-117 -108h-93l50 93l-100 -93h-92z" />
    <glyph glyph-name="commaaccent" unicode="&#x326;" 
d="M187 -248l-7 46q36 5 51 17.5t15 36.5h-60v109h131v-91q0 -58 -33 -85.5t-97 -32.5z" />
    <glyph glyph-name="Wgrave" unicode="&#x1e80;" horiz-adv-x="797" 
d="M459 735h-116l-120 87l151 46zM156 -3l-151 703h173l70 -405l81 406h142l81 -406l70 405h170l-151 -703h-161l-82 370l-81 -370h-161z" />
    <glyph glyph-name="wgrave" unicode="&#x1e81;" horiz-adv-x="653" 
d="M125 -3l-118 544h158l47 -276l51 277h128l52 -278l47 277h157l-120 -544h-144l-57 265l-58 -265h-143zM282 577l-123 106l140 48l86 -154h-103z" />
    <glyph glyph-name="Wacute" unicode="&#x1e82;" horiz-adv-x="797" 
d="M336 735l85 133l151 -46l-120 -87h-116zM156 -3l-151 703h173l70 -405l81 406h142l81 -406l70 405h170l-151 -703h-161l-82 370l-81 -370h-161z" />
    <glyph glyph-name="wacute" unicode="&#x1e83;" horiz-adv-x="653" 
d="M267 577l86 154l140 -48l-123 -106h-103zM125 -3l-118 544h158l47 -276l51 277h128l52 -278l47 277h157l-120 -544h-144l-57 265l-58 -265h-143z" />
    <glyph glyph-name="Wdieresis" unicode="&#x1e84;" horiz-adv-x="797" 
d="M418 736v119h133v-119h-133zM244 736v119h132v-119h-132zM156 -3l-151 703h173l70 -405l81 406h142l81 -406l70 405h170l-151 -703h-161l-82 370l-81 -370h-161z" />
    <glyph glyph-name="wdieresis" unicode="&#x1e85;" horiz-adv-x="653" 
d="M344 578v125h129v-125h-129zM178 578v125h129v-125h-129zM125 -3l-118 544h158l47 -276l51 277h128l52 -278l47 277h157l-120 -544h-144l-57 265l-58 -265h-143z" />
    <glyph glyph-name="Ygrave" unicode="&#x1ef2;" horiz-adv-x="517" 
d="M176 0v261l-179 439h176l87 -250l87 250h172l-178 -438v-262h-165zM321 735h-116l-120 87l151 46z" />
    <glyph glyph-name="ygrave" unicode="&#x1ef3;" horiz-adv-x="463" 
d="M234 231l64 310h161l-142 -522q-23 -88 -61.5 -126t-105.5 -38q-55 0 -109 28l29 119q28 -16 52 -16q26 0 32 21l-149 534h163zM189 577l-123 106l140 48l86 -154h-103z" />
    <glyph glyph-name="enspace" unicode="&#x2002;" 
 />
    <glyph glyph-name="emspace" unicode="&#x2003;" horiz-adv-x="1000" 
 />
    <glyph glyph-name="threeperemspace" unicode="&#x2004;" horiz-adv-x="333" 
 />
    <glyph glyph-name="fourperemspace" unicode="&#x2005;" horiz-adv-x="250" 
 />
    <glyph glyph-name="thinspace" unicode="&#x2009;" horiz-adv-x="122" 
 />
    <glyph glyph-name="hairspace" unicode="&#x200a;" horiz-adv-x="67" 
 />
    <glyph glyph-name="endash" unicode="&#x2013;" horiz-adv-x="475" 
d="M32 240v145h412v-145h-412z" />
    <glyph glyph-name="emdash" unicode="&#x2014;" horiz-adv-x="749" 
d="M32 240v145h686v-145h-686z" />
    <glyph glyph-name="quoteleft" unicode="&#x2018;" horiz-adv-x="241" 
d="M32 378v141q0 168 176 186l13 -63q-49 -9 -71.5 -33t-21.5 -58h76v-173h-172z" />
    <glyph glyph-name="quoteright" unicode="&#x2019;" horiz-adv-x="241" 
d="M33 374l-13 62q49 9 71.5 33.5t21.5 58.5h-76v172h172v-141q0 -167 -176 -185z" />
    <glyph glyph-name="quotesinglbase" unicode="&#x201a;" horiz-adv-x="249" 
d="M33 -154l-14 62q51 9 75 33.5t23 58.5h-77v173h173v-141q0 -168 -180 -186z" />
    <glyph glyph-name="quotedblleft" unicode="&#x201c;" horiz-adv-x="456" 
d="M252 378v141q0 168 171 186l14 -63q-49 -9 -71.5 -33.5t-20.5 -57.5h75v-173h-168zM32 378v141q0 168 172 186l13 -63q-94 -18 -92 -91h75v-173h-168z" />
    <glyph glyph-name="quotedblright" unicode="&#x201d;" horiz-adv-x="456" 
d="M253 374l-14 62q49 9 71.5 33.5t21.5 58.5h-76v172h169v-141q0 -167 -172 -185zM33 374l-13 62q48 9 70.5 33.5t21.5 58.5h-75v172h168v-141q0 -167 -172 -185z" />
    <glyph glyph-name="quotedblbase" unicode="&#x201e;" horiz-adv-x="467" 
d="M255 -154l-13 62q98 18 96 92h-75v173h168v-141q0 -168 -176 -186zM33 -154l-14 62q51 9 74.5 33.5t22.5 58.5h-76v173h169v-141q0 -168 -176 -186z" />
    <glyph glyph-name="dagger" unicode="&#x2020;" horiz-adv-x="311" 
d="M107 234l13 264l-93 -11v100l92 -11l-16 124h106l-16 -124l92 11v-100l-93 11l12 -264h-97z" />
    <glyph glyph-name="daggerdbl" unicode="&#x2021;" horiz-adv-x="327" 
d="M111 0l16 124l-92 -11v100l94 -11l-16 148l16 148l-94 -11v100l92 -11l-16 124h106l-16 -124l91 11v-100l-93 11l15 -148l-15 -148l93 11v-100l-91 11l16 -124h-106z" />
    <glyph glyph-name="bullet" unicode="&#x2022;" horiz-adv-x="410" 
d="M205 183q-59 0 -98 44.5t-39 118.5v14q0 75 39 119.5t98 44.5q60 0 98.5 -44.5t38.5 -119.5v-14q0 -74 -38.5 -118.5t-98.5 -44.5z" />
    <glyph glyph-name="ellipsis" unicode="&#x2026;" horiz-adv-x="736" 
d="M529 0v172h171v-172h-171zM283 0v172h171v-172h-171zM36 0v172h171v-172h-171z" />
    <glyph glyph-name="perthousand" unicode="&#x2030;" horiz-adv-x="990" 
d="M163 417q38 0 38 92v11q0 93 -38 93q-37 0 -37 -92v-12q0 -92 37 -92zM163 322q-62 0 -100 50t-38 136v13q0 86 38 136.5t100 50.5t100 -50.5t38 -136.5v-12q0 -86 -38 -136.5t-100 -50.5zM593 700l-213 -365l-187 -335h-99l212 364l188 336h99zM522 88q37 0 37 92v11
q0 93 -37 93q-38 0 -38 -93v-11q0 -92 38 -92zM522 -8q-62 0 -100 50.5t-38 136.5v13q0 86 38 136t100 50t100 -50t38 -136v-13q0 -86 -38 -136.5t-100 -50.5zM828 88q37 0 37 92v11q0 93 -38 93q-37 0 -37 -93v-11q0 -92 38 -92zM827 -8q-62 0 -100 50.5t-38 136.5v13
q0 86 38.5 136t100.5 50t100 -50t38 -136v-13q0 -86 -38.5 -136.5t-100.5 -50.5z" />
    <glyph glyph-name="guilsinglleft" unicode="&#x2039;" horiz-adv-x="288" 
d="M162 40l-141 215v30l141 215l105 -50l-99 -179l100 -180z" />
    <glyph glyph-name="guilsinglright" unicode="&#x203a;" horiz-adv-x="288" 
d="M126 40l-105 50l99 179l-100 180l106 51l141 -215v-30z" />
    <glyph glyph-name="Euro" unicode="&#x20ac;" horiz-adv-x="495" 
d="M487 648l-76 -124q-38 36 -75 36q-64 0 -88 -79h124v-102h-137v-10v-37v-7h137v-102h-126q21 -83 90 -83q42 0 79 39l72 -121q-76 -70 -166 -70q-91 0 -155 60.5t-84 172.5h-61v104h53v4v41v10h-53v103h63q20 110 86.5 169.5t157.5 59.5q86 0 159 -64z" />
    <glyph glyph-name="published" unicode="&#x2117;" horiz-adv-x="622" 
d="M311 -13q-123 0 -202 98.5t-79 253.5v23q0 155 79 253t202 98t202 -98t79 -253v-23q0 -155 -79 -253.5t-202 -98.5zM311 25q108 0 175 87.5t67 226.5v24q0 139 -66.5 226t-175.5 87q-108 0 -175 -87.5t-67 -226.5v-24q0 -139 66.5 -226t175.5 -87zM203 157v397h109
q67 0 105.5 -35t38.5 -102v-4q0 -68 -40 -102.5t-100 -36.5h-20v-117h-93zM296 354h17q23 0 36.5 15t13.5 43v2q0 59 -49 59h-18v-119z" />
    <glyph glyph-name="servicemark" unicode="&#x2120;" horiz-adv-x="533" 
d="M249 388v312h79l49 -104l50 104h78v-312h-75v172l-52 -108h-2l-52 108v-172h-75zM115 384q-59 0 -107 37l30 64q44 -33 75 -33q27 0 27 22q0 9 -8 16t-30 19q-45 23 -64.5 43.5t-19.5 55.5q0 42 28 69t76 27q53 0 95 -31l-31 -64q-39 27 -63 27q-27 0 -27 -21
q0 -9 7.5 -15.5t30.5 -19.5q45 -22 64.5 -44t19.5 -56q0 -44 -29 -70t-74 -26z" />
    <glyph glyph-name="trademark" unicode="&#x2122;" horiz-adv-x="526" 
d="M242 388v312h79l49 -104l50 104h78v-312h-75v172l-52 -108h-2l-52 108v-172h-75zM73 388v240h-60v72h198v-72h-60v-240h-78z" />
    <glyph glyph-name="minus" unicode="&#x2212;" horiz-adv-x="488" 
d="M454 278h-420v148h420v-148z" />
    <glyph glyph-name="Q.alt" horiz-adv-x="581" 
d="M398 -79l-53 73q-27 -6 -56 -6q-119 0 -191 93t-72 255v29q0 162 72.5 255t192.5 93t192 -92.5t72 -254.5v-30q0 -163 -76 -258l114 -156v-1h-195zM291 136q96 0 96 202v22q0 104 -26 153.5t-71 49.5t-71 -49.5t-26 -152.5v-22q0 -103 26.5 -153t71.5 -50z" />
    <glyph glyph-name="a.alt" horiz-adv-x="499" 
d="M184 -11q-70 0 -115 64t-45 199v36q0 135 44.5 199.5t114.5 64.5q42 0 69.5 -19.5t52.5 -55.5v64h160v-541h-160v67q-51 -78 -121 -78zM244 130q29 0 45.5 34t16.5 96v22q0 62 -16.5 95.5t-45.5 33.5t-45 -33.5t-16 -95.5v-22q0 -62 16 -96t45 -34z" />
    <glyph glyph-name="aacute.alt" horiz-adv-x="499" 
d="M200 581l86 154l140 -48l-123 -106h-103zM184 -11q-70 0 -115 64t-45 199v36q0 135 44.5 199.5t114.5 64.5q42 0 69.5 -19.5t52.5 -55.5v64h160v-541h-160v67q-51 -78 -121 -78zM244 130q29 0 45.5 34t16.5 96v22q0 62 -16.5 95.5t-45.5 33.5t-45 -33.5t-16 -95.5v-22
q0 -62 16 -96t45 -34z" />
    <glyph glyph-name="abreve.alt" horiz-adv-x="499" 
d="M184 -11q-70 0 -115 64t-45 199v36q0 135 44.5 199.5t114.5 64.5q42 0 69.5 -19.5t52.5 -55.5v64h160v-541h-160v67q-51 -78 -121 -78zM244 130q29 0 45.5 34t16.5 96v22q0 62 -16.5 95.5t-45.5 33.5t-45 -33.5t-16 -95.5v-22q0 -62 16 -96t45 -34zM258 578
q-63 0 -103 34.5t-46 99.5h91q10 -47 58 -47t59 47h90q-6 -65 -46 -99.5t-103 -34.5z" />
    <glyph glyph-name="acircumflex.alt" horiz-adv-x="499" 
d="M103 581l94 140h122l95 -140h-98l-59 54l-58 -54h-96zM184 -11q-70 0 -115 64t-45 199v36q0 135 44.5 199.5t114.5 64.5q42 0 69.5 -19.5t52.5 -55.5v64h160v-541h-160v67q-51 -78 -121 -78zM244 130q29 0 45.5 34t16.5 96v22q0 62 -16.5 95.5t-45.5 33.5t-45 -33.5
t-16 -95.5v-22q0 -62 16 -96t45 -34z" />
    <glyph glyph-name="adieresis.alt" horiz-adv-x="499" 
d="M277 582v125h129v-125h-129zM111 582v125h129v-125h-129zM184 -11q-70 0 -115 64t-45 199v36q0 135 44.5 199.5t114.5 64.5q42 0 69.5 -19.5t52.5 -55.5v64h160v-541h-160v67q-51 -78 -121 -78zM244 130q29 0 45.5 34t16.5 96v22q0 62 -16.5 95.5t-45.5 33.5t-45 -33.5
t-16 -95.5v-22q0 -62 16 -96t45 -34z" />
    <glyph glyph-name="agrave.alt" horiz-adv-x="499" 
d="M184 -11q-70 0 -115 64t-45 199v36q0 135 44.5 199.5t114.5 64.5q42 0 69.5 -19.5t52.5 -55.5v64h160v-541h-160v67q-51 -78 -121 -78zM244 130q29 0 45.5 34t16.5 96v22q0 62 -16.5 95.5t-45.5 33.5t-45 -33.5t-16 -95.5v-22q0 -62 16 -96t45 -34zM216 581l-123 106
l140 48l86 -154h-103z" />
    <glyph glyph-name="amacron.alt" horiz-adv-x="499" 
d="M184 -11q-70 0 -115 64t-45 199v36q0 135 44.5 199.5t114.5 64.5q42 0 69.5 -19.5t52.5 -55.5v64h160v-541h-160v67q-51 -78 -121 -78zM244 130q29 0 45.5 34t16.5 96v22q0 62 -16.5 95.5t-45.5 33.5t-45 -33.5t-16 -95.5v-22q0 -62 16 -96t45 -34zM113 586v98h290v-98
h-290z" />
    <glyph glyph-name="aogonek.alt" horiz-adv-x="499" 
d="M472 -71v-79q-25 -4 -56 -4q-58 0 -91 19t-33 55q0 40 39 80h-26v67q-51 -78 -121 -78t-115 64t-45 199v36q0 135 44.5 199.5t114.5 64.5q42 0 69.5 -19.5t52.5 -55.5v64h160v-541h-28q-19 -24 -19 -43q0 -15 12 -21t42 -7zM244 130q29 0 45.5 34t16.5 96v22
q0 62 -16.5 95.5t-45.5 33.5t-45 -33.5t-16 -95.5v-22q0 -62 16 -96t45 -34z" />
    <glyph glyph-name="aring.alt" horiz-adv-x="499" 
d="M258 578q-44 0 -75 30.5t-31 75.5q0 43 31 73.5t75 30.5q45 0 75.5 -30t30.5 -75q0 -44 -31 -74.5t-75 -30.5zM258 630q22 0 36 15t14 38t-14 38.5t-36 15.5q-21 0 -35.5 -15.5t-14.5 -38.5t14.5 -38t35.5 -15zM184 -11q-70 0 -115 64t-45 199v36q0 135 44.5 199.5
t114.5 64.5q42 0 69.5 -19.5t52.5 -55.5v64h160v-541h-160v67q-51 -78 -121 -78zM244 130q29 0 45.5 34t16.5 96v22q0 62 -16.5 95.5t-45.5 33.5t-45 -33.5t-16 -95.5v-22q0 -62 16 -96t45 -34z" />
    <glyph glyph-name="aring.alt2" horiz-adv-x="450" 
d="M147 -10q-57 0 -94.5 43t-37.5 119v12q0 86 41.5 128.5t112.5 42.5q50 0 93 -20v16q0 80 -79 80q-55 0 -103 -31l-42 128q48 24 103 34q-21 27 -21 63q0 44 31 74t75 30q45 0 75.5 -29.5t30.5 -74.5q0 -42 -27 -71q37 -13 63 -38q52 -52 52 -157v-339h-159v53
q-43 -63 -114 -63zM208 102q23 -1 38.5 17t15.5 49v59q-22 10 -46 10q-51 0 -51 -67v-6q0 -60 43 -62zM226 551q22 0 36 15.5t14 38.5t-14 38.5t-36 15.5q-21 0 -35.5 -15.5t-14.5 -38.5t14.5 -38.5t35.5 -15.5z" />
    <glyph glyph-name="aringacute.alt" horiz-adv-x="499" 
d="M200 812l86 124l140 -42l-120 -82h-106zM258 578q-44 0 -75 30.5t-31 75.5q0 43 31 73.5t75 30.5q45 0 75.5 -30t30.5 -75q0 -44 -31 -74.5t-75 -30.5zM258 630q22 0 36 15t14 38t-14 38.5t-36 15.5q-21 0 -35.5 -15.5t-14.5 -38.5t14.5 -38t35.5 -15zM184 -11
q-70 0 -115 64t-45 199v36q0 135 44.5 199.5t114.5 64.5q42 0 69.5 -19.5t52.5 -55.5v64h160v-541h-160v67q-51 -78 -121 -78zM244 130q29 0 45.5 34t16.5 96v22q0 62 -16.5 95.5t-45.5 33.5t-45 -33.5t-16 -95.5v-22q0 -62 16 -96t45 -34z" />
    <glyph glyph-name="aringacute.alt2" horiz-adv-x="450" 
d="M167 734l86 124l140 -41l-119 -83h-107zM147 -10q-57 0 -94.5 43t-37.5 119v12q0 86 41.5 128.5t112.5 42.5q50 0 93 -20v16q0 80 -79 80q-55 0 -103 -31l-42 128q48 24 103 34q-21 27 -21 63q0 44 31 74t75 30q45 0 75.5 -29.5t30.5 -74.5q0 -42 -27 -71q37 -13 63 -38
q52 -52 52 -157v-339h-159v53q-43 -63 -114 -63zM208 102q23 -1 38.5 17t15.5 49v59q-22 10 -46 10q-51 0 -51 -67v-6q0 -60 43 -62zM226 551q22 0 36 15.5t14 38.5t-14 38.5t-36 15.5q-21 0 -35.5 -15.5t-14.5 -38.5t14.5 -38.5t35.5 -15.5z" />
    <glyph glyph-name="atilde.alt" horiz-adv-x="499" 
d="M184 -11q-70 0 -115 64t-45 199v36q0 135 44.5 199.5t114.5 64.5q42 0 69.5 -19.5t52.5 -55.5v64h160v-541h-160v67q-51 -78 -121 -78zM244 130q29 0 45.5 34t16.5 96v22q0 62 -16.5 95.5t-45.5 33.5t-45 -33.5t-16 -95.5v-22q0 -62 16 -96t45 -34zM336 580q-24 0 -73 19
q-45 15 -54 15q-15 0 -22.5 -8.5t-13.5 -30.5l-77 17q18 126 90 126q23 0 74 -19q46 -16 53 -16q15 0 22.5 9t13.5 31l77 -17q-9 -65 -30.5 -95.5t-59.5 -30.5z" />
    <glyph glyph-name="three.alt" horiz-adv-x="453" 
d="M206 -12q-114 0 -201 68l68 131q65 -48 121 -48q36 0 57.5 20.5t21.5 52.5v2q0 75 -111 75h-42v135h41q53 0 79 20.5t26 54.5v1q0 29 -20 46t-52 17q-49 0 -110 -47l-66 123q86 73 199 73q94 0 152 -48.5t58 -131.5v-3q0 -58 -28.5 -101.5t-75.5 -65.5q112 -46 112 -166
v-3q0 -90 -63 -147.5t-166 -57.5z" />
    <glyph glyph-name="registered.alt" horiz-adv-x="622" 
d="M311 -13q-123 0 -202 98.5t-79 253.5v23q0 155 79 253t202 98t202 -98t79 -253v-23q0 -155 -79 -253.5t-202 -98.5zM311 25q108 0 175 87.5t67 226.5v24q0 139 -66.5 226t-175.5 87q-108 0 -175 -87.5t-67 -226.5v-24q0 -139 66.5 -226t175.5 -87zM189 158v398h119
q70 0 109 -37q34 -34 34 -94v-5q0 -77 -58 -110l66 -152h-103l-53 127h-21v-127h-93zM282 361h25q22 0 35.5 15t13.5 41v2q0 55 -50 55h-24v-113z" />
    <glyph glyph-name="NUL" horiz-adv-x="0" 
 />
    <glyph glyph-name="hfjslug" horiz-adv-x="694" 
d="M644 -200h-208l-8 14h-163l-8 -14h-207v303q14 0 23 9.5t9 22.5t-9.5 22.5t-22.5 9.5v554h100l30 79h334l29 -79h101v-921zM400 563v-172h15v78h38v14h-38v66h43v14h-58zM184 563v-172h15v79h47v-79h15v172h-15v-79h-47v79h-15zM460 394q10 -4 21 -4q31 0 31 36v137h-16
v-137q0 -22 -16 -22q-8 0 -20 5v-15zM371 465l-13 3q-4 -18 -8 -30h-1l-16 31q23 21 23 42q0 13 -7 22t-20 9q-12 0 -20 -9t-8 -22t14 -39q-23 -18 -23 -47q0 -16 8 -26.5t21 -10.5q19 0 29 24h1l12 -24l12 6l-17 32q6 14 13 39zM523 323v-46h8v12l8 8l15 -20h10l-20 26
l18 20h-10l-20 -24h-1v24h-8zM488 292l10 -15h9l-12 17q10 4 10 14q0 15 -17 15h-20v-46h8v15h12zM426 276q10 0 17 7t7 17q0 9 -7 16.5t-17 7.5t-17 -7.5t-7 -16.5q0 -10 7 -17t17 -7zM370 301l-13 22h-9l18 -29v-17h8v17l18 29h-9zM193 323v-46h34v7h-26v13h23v7h-23v12
h26v7h-34zM132 323v-46h8v32l25 -32h7v46h-8v-32l-25 32h-7zM241 323l14 -47h8l11 34h1l11 -34h8l14 47h-8l-10 -35h-1l-11 35h-7l-11 -35h-1l-10 35h-8zM327 479q-12 22 -12 32q0 19 14 19q13 0 13 -19q0 -15 -15 -32zM342 423q-8 -21 -20 -21q-16 0 -16 25q0 19 16 35z
M487 299h-11v17h11q10 0 10 -8q0 -9 -10 -9zM426 283q-16 0 -16 17q0 6 4.5 11.5t11.5 5.5t11.5 -5.5t4.5 -11.5q0 -17 -16 -17z" />
    <glyph glyph-name="i.dot" horiz-adv-x="234" 
d="M35 585v132h164v-132h-164zM37 0v541h160v-541h-160z" />
    <glyph glyph-name="caron.alt" 
d="M189 570l9 170h101v-1l-48 -169h-62z" />
    <glyph glyph-name="acute.cap" 
d="M141 735l85 133l151 -46l-120 -87h-116z" />
    <glyph glyph-name="hungarumlaut.cap" 
d="M242 735l48 77l-98 -77h-104l82 133l129 -42l26 42l135 -44l-113 -89h-105z" />
    <glyph glyph-name="grave.cap" 
d="M359 735h-116l-120 87l151 46z" />
    <glyph glyph-name="circumflex.cap" 
d="M93 735l91 123h132l91 -123h-104l-54 44l-53 -44h-103z" />
    <glyph glyph-name="caron.cap" 
d="M407 858l-91 -123h-132l-91 123h104l54 -44l53 44h103z" />
    <glyph glyph-name="breve.cap" 
d="M250 732q-64 0 -103.5 30.5t-43.5 91.5h92q10 -37 55 -37q44 0 56 37h91q-4 -61 -43.5 -91.5t-103.5 -30.5z" />
    <glyph glyph-name="tilde.cap" 
d="M326 733q-21 0 -76 19q-42 16 -54 16q-14 0 -21.5 -9t-14.5 -30l-78 18q18 126 92 126q29 0 77 -19q39 -15 53 -15q15 0 22.5 8.5t13.5 30.5l78 -18q-9 -65 -31 -96t-61 -31z" />
    <glyph glyph-name="macron.cap" 
d="M97 739v101h307v-101h-307z" />
    <glyph glyph-name="dieresis.cap" 
d="M271 736v119h133v-119h-133zM97 736v119h132v-119h-132z" />
    <glyph glyph-name="dotaccent.cap" 
d="M181 736v119h138v-119h-138z" />
    <glyph glyph-name="ring.cap" 
d="M250 732q-47 0 -79 29.5t-32 73.5t32 73t79 29t79 -29t32 -73t-32 -73.5t-79 -29.5zM250 784q24 0 39 14.5t15 36.5q0 21 -15 36t-39 15q-23 0 -38 -15t-15 -36q0 -22 15 -36.5t38 -14.5z" />
    </font>
</defs>
</svg>
