<?xml version="1.0" standalone="no"?>
<!DOCTYPE svg PUBLIC "-//W3C//DTD SVG 1.1//EN" "http://www.w3.org/Graphics/SVG/1.1/DTD/svg11.dtd" >
<svg xmlns="http://www.w3.org/2000/svg" xmlns:xlink="http://www.w3.org/1999/xlink" version="1.1">
<metadata>
Created by FontForge 20170731 at Thu Oct 16 17:28:42 2008
 By ,,,
Copyright (C) 2005, 2008 Hoefler &#38; Frere-Jones. http://www.typography.com
</metadata>
<defs>
<font id="GothamXNarrow-MediumItalic" horiz-adv-x="300" >
  <font-face 
    font-family="Gotham XNarrow Medium"
    font-weight="350"
    font-style="italic"
    font-stretch="condensed"
    units-per-em="1000"
    panose-1="0 0 0 0 0 0 0 0 0 0"
    ascent="800"
    descent="-200"
    x-height="532"
    cap-height="700"
    bbox="-246 -233 933 959"
    underline-thickness="50"
    underline-position="-200"
    slope="-13"
    unicode-range="U+0020-FB04"
  />
<missing-glyph horiz-adv-x="500" 
d="M0 -200v1000h500v-1000h-500zM50 -76l172 376l-172 376v-752zM71 -150h358l-179 390zM250 360l179 390h-358zM450 -76v752l-172 -376z" />
    <glyph glyph-name="f_f" unicode="ff" horiz-adv-x="566" 
d="M12 0l97 444h-49l20 88h48l10 46q14 64 47 99q42 40 107 40q39 0 73 -12l-20 -87q-24 8 -42 8q-27 0 -41.5 -15t-22.5 -48l-7 -31h92l-19 -88h-92l-96 -444h-105zM295 0l97 444h-49l20 88h48l10 46q14 64 47 99q42 40 107 40q39 0 73 -12l-20 -87q-24 8 -42 8
q-27 0 -41.5 -15t-22.5 -48l-7 -31h92l-19 -88h-92l-96 -444h-105z" />
    <glyph glyph-name="fi" unicode="fi" horiz-adv-x="499" 
d="M12 0l97 444h-49l20 88h48l10 46q14 64 47 99q42 40 107 40q39 0 73 -12l-20 -87q-24 8 -42 8q-27 0 -41.5 -15t-22.5 -48l-7 -31h92l-19 -88h-92l-96 -444h-105zM280 0l116 532h104l-115 -532h-105zM410 605l23 107h109l-24 -107h-108z" />
    <glyph glyph-name="fl" unicode="fl" horiz-adv-x="499" 
d="M12 0l97 444h-49l20 88h48l10 46q14 64 47 99q42 40 107 40q39 0 73 -12l-20 -87q-24 8 -42 8q-27 0 -41.5 -15t-22.5 -48l-7 -31h92l-19 -88h-92l-96 -444h-105zM280 0l156 714h104l-155 -714h-105z" />
    <glyph glyph-name="f_f_i" unicode="ffi" horiz-adv-x="782" 
d="M12 0l97 444h-49l20 88h48l10 46q14 64 47 99q42 40 107 40q39 0 73 -12l-20 -87q-24 8 -42 8q-27 0 -41.5 -15t-22.5 -48l-7 -31h92l-19 -88h-92l-96 -444h-105zM295 0l97 444h-49l20 88h48l10 46q14 64 47 99q42 40 107 40q39 0 73 -12l-20 -87q-24 8 -42 8
q-27 0 -41.5 -15t-22.5 -48l-7 -31h92l-19 -88h-92l-96 -444h-105zM564 0l116 532h104l-115 -532h-105zM694 605l23 107h109l-24 -107h-108z" />
    <glyph glyph-name="f_f_l" unicode="ffl" horiz-adv-x="783" 
d="M12 0l97 444h-49l20 88h48l10 46q14 64 47 99q42 40 107 40q39 0 73 -12l-20 -87q-24 8 -42 8q-27 0 -41.5 -15t-22.5 -48l-7 -31h92l-19 -88h-92l-96 -444h-105zM295 0l97 444h-49l20 88h48l10 46q14 64 47 99q42 40 107 40q39 0 73 -12l-20 -87q-24 8 -42 8
q-27 0 -41.5 -15t-22.5 -48l-7 -31h92l-19 -88h-92l-96 -444h-105zM564 0l156 714h104l-155 -714h-105z" />
    <glyph glyph-name=".notdef" horiz-adv-x="500" 
d="M0 -200v1000h500v-1000h-500zM50 -76l172 376l-172 376v-752zM71 -150h358l-179 390zM250 360l179 390h-358zM450 -76v752l-172 -376z" />
    <glyph glyph-name=".null" horiz-adv-x="0" 
 />
    <glyph glyph-name="nonmarkingreturn" horiz-adv-x="333" 
 />
    <glyph glyph-name="space" unicode=" " horiz-adv-x="189" 
 />
    <glyph glyph-name="exclam" unicode="!" horiz-adv-x="246" 
d="M83 212l64 453l8 35h125l-7 -35l-134 -453h-56zM5 0l27 128h121l-27 -128h-121z" />
    <glyph glyph-name="quotedbl" unicode="&#x22;" horiz-adv-x="377" 
d="M82 403l68 297h113l-2 -8l-132 -289h-47zM258 403l66 297h114l-1 -8l-133 -289h-46z" />
    <glyph glyph-name="numbersign" unicode="#" horiz-adv-x="492" 
d="M37 0l43 165h-70l19 94h76l48 185h-77l21 94h81l43 162h80l-42 -162h109l42 162h81l-42 -162h71l-20 -94h-77l-47 -185h76l-20 -94h-82l-43 -165h-80l43 165h-110l-42 -165h-81zM186 259h109l48 185h-109z" />
    <glyph glyph-name="dollar" unicode="$" horiz-adv-x="450" 
d="M304 767h75l-18 -75q73 -22 124 -87l-77 -72q-32 44 -70 60l-46 -201q57 -50 84 -94t27 -95q0 -83 -55 -143t-144 -63l-24 -100h-74l25 108q-89 23 -150 104l75 75q48 -62 99 -81l49 213q-58 49 -86 93t-28 97q0 82 57 139t142 58zM200 515q0 -34 32 -70l36 157
q-32 -7 -50 -31.5t-18 -55.5zM293 195q0 34 -29 67l-37 -163q30 9 48 35.5t18 60.5z" />
    <glyph glyph-name="percent" unicode="%" horiz-adv-x="663" 
d="M43 0l283 365l253 335h78l-283 -365l-252 -335h-79zM188 347q-52 0 -81.5 36t-29.5 101q0 53 17.5 103t47.5 81q41 39 91 39q52 0 81.5 -36.5t29.5 -101.5q0 -54 -18 -103.5t-48 -79.5q-39 -39 -90 -39zM192 417q18 0 33 15q19 19 31 61.5t12 77.5q0 66 -40 66
q-17 0 -33 -16q-19 -19 -31 -61.5t-12 -77.5q0 -65 40 -65zM468 -7q-52 0 -81.5 36.5t-29.5 101.5q0 54 17.5 103.5t48.5 80.5q39 39 90 39q52 0 81.5 -37t29.5 -101q0 -54 -17.5 -103.5t-48.5 -80.5q-39 -39 -90 -39zM472 63q18 0 34 16q18 19 30.5 61.5t12.5 77.5
q0 65 -41 65q-18 0 -33 -15q-19 -19 -31 -61.5t-12 -77.5q0 -66 40 -66z" />
    <glyph glyph-name="ampersand" unicode="&#x26;" horiz-adv-x="524" 
d="M426 333l77 -32q-40 -100 -90 -167l56 -105l-84 -41l-38 74q-79 -71 -163 -71q-78 0 -126 48t-48 125q0 152 171 233q-36 77 -36 138q0 73 46.5 124t123.5 51q67 0 108 -40.5t41 -101.5q0 -135 -166 -209l73 -145q28 49 55 119zM196 82q55 0 111 56l-91 184
q-104 -51 -104 -148q0 -40 22 -66t62 -26zM240 535q0 -49 24 -103q105 49 105 128q0 28 -15.5 46t-42.5 18q-32 0 -51.5 -26t-19.5 -63z" />
    <glyph glyph-name="quotesingle" unicode="'" horiz-adv-x="200" 
d="M82 403l68 297h113l-2 -8l-132 -289h-47z" />
    <glyph glyph-name="parenleft" unicode="(" horiz-adv-x="338" 
d="M201 -132q-153 129 -153 346q0 237 146 383q77 77 184 115l25 -71q-71 -35 -125 -87q-62 -62 -94.5 -154t-32.5 -193q0 -163 102 -281z" />
    <glyph glyph-name="parenright" unicode=")" horiz-adv-x="338" 
d="M146 712q153 -129 153 -346q0 -237 -146 -383q-77 -77 -184 -115l-25 71q71 35 125 87q62 62 94.5 154t32.5 193q0 163 -102 281z" />
    <glyph glyph-name="asterisk" unicode="*" horiz-adv-x="342" 
d="M230 395l-66 15l39 110l-98 -47l-21 65l108 21l-88 65l46 51l68 -85l12 117l65 -15l-39 -111l98 48l21 -66l-107 -21l87 -65l-46 -50l-68 85z" />
    <glyph glyph-name="plus" unicode="+" horiz-adv-x="465" 
d="M159 155l32 148h-143l22 98h143l32 148h98l-32 -148h143l-21 -98h-143l-33 -148h-98z" />
    <glyph glyph-name="comma" unicode="," horiz-adv-x="232" 
d="M-45 -144l-7 45q53 10 74.5 35t26.5 64h-52l28 128h122l-25 -115q-17 -77 -55.5 -113.5t-111.5 -43.5z" />
    <glyph glyph-name="hyphen" unicode="-" horiz-adv-x="350" 
d="M43 254l23 104h258l-23 -104h-258z" />
    <glyph glyph-name="period" unicode="." horiz-adv-x="232" 
d="M-3 0l28 128h122l-27 -128h-123z" />
    <glyph glyph-name="slash" unicode="/" horiz-adv-x="377" 
d="M-99 -109l500 888h94l-500 -888h-94z" />
    <glyph glyph-name="zero" unicode="0" horiz-adv-x="517" 
d="M327 710q89 0 136 -61t47 -176q0 -107 -37.5 -231.5t-100.5 -187.5q-63 -64 -147 -64q-89 0 -136 61t-47 176q0 107 37.5 231.5t100.5 187.5q63 64 147 64zM230 88q36 0 66 29q47 47 77.5 160.5t30.5 197.5q0 137 -82 137q-36 0 -66 -29q-46 -47 -77 -160.5t-31 -197.5
q0 -137 82 -137z" />
    <glyph glyph-name="one" unicode="1" horiz-adv-x="299" 
d="M59 0l127 584l-98 -30l11 105l143 45h78l-153 -704h-108z" />
    <glyph glyph-name="two" unicode="2" horiz-adv-x="442" 
d="M-27 0l19 88l256 280q50 55 72 92.5t22 71.5q0 35 -21.5 56t-56.5 21q-54 0 -125 -63l-52 82q89 82 187 82q77 0 127.5 -46.5t50.5 -118.5q0 -57 -27 -106t-86 -114l-206 -224h244l-22 -101h-382z" />
    <glyph glyph-name="three" unicode="3" horiz-adv-x="434" 
d="M162 -10q-115 0 -184 80l64 78q54 -59 120 -59q54 0 85.5 38t31.5 91q0 54 -42 83t-102 29h-3l5 68l190 201h-221l23 101h351l-20 -89l-206 -215q133 -46 133 -176q0 -101 -65 -167q-65 -63 -160 -63z" />
    <glyph glyph-name="four" unicode="4" horiz-adv-x="488" 
d="M233 0l31 145h-258l5 83l361 476h115l-100 -467h73l-21 -92h-73l-31 -145h-102zM125 237h160l68 308z" />
    <glyph glyph-name="five" unicode="5" horiz-adv-x="442" 
d="M171 -10q-112 0 -186 86l68 79q58 -65 121 -65q58 0 92.5 49t34.5 109q0 49 -25.5 74t-69.5 25q-40 0 -82 -20l-54 42l90 331h309l-21 -100h-221l-46 -170q34 10 63 10q75 0 120 -47t45 -129q0 -131 -80 -209q-63 -65 -158 -65z" />
    <glyph glyph-name="six" unicode="6" horiz-adv-x="479" 
d="M221 -10q-78 0 -125 47q-57 55 -57 174q0 110 39.5 238t101.5 190q71 71 164 71q92 0 161 -64l-60 -80q-47 47 -106 47q-48 0 -86 -38q-54 -54 -86 -179q50 52 119 52q73 0 117 -49.5t44 -128.5q0 -63 -22.5 -123t-59.5 -97q-60 -60 -144 -60zM228 84q37 0 64 27
q51 51 51 145q0 49 -23.5 75t-63.5 26q-39 0 -66 -27q-24 -23 -36.5 -61.5t-12.5 -74.5q0 -61 26 -87q25 -23 61 -23z" />
    <glyph glyph-name="seven" unicode="7" horiz-adv-x="432" 
d="M25 0l323 598h-250l23 102h363l-19 -89l-323 -611h-117z" />
    <glyph glyph-name="eight" unicode="8" horiz-adv-x="470" 
d="M209 -10q-85 0 -137.5 49.5t-52.5 132.5q0 69 36 123t100 79q-59 46 -59 129q0 86 57 146.5t146 60.5q79 0 127.5 -46t48.5 -125q0 -59 -33 -111.5t-87 -73.5q72 -52 72 -142q0 -91 -59 -156.5t-159 -65.5zM212 78q50 0 80.5 42t30.5 96q0 47 -24 74.5t-64 27.5
q-48 0 -79.5 -43t-31.5 -98q0 -46 24 -72.5t64 -26.5zM272 403q42 0 71 38t29 92q0 39 -20.5 64t-57.5 25q-43 0 -70.5 -38.5t-27.5 -90.5q0 -39 20.5 -64.5t55.5 -25.5z" />
    <glyph glyph-name="nine" unicode="9" horiz-adv-x="479" 
d="M171 -10q-96 0 -169 71l60 81q52 -54 114 -54q49 0 86 37q54 54 83 171q-49 -52 -117 -52q-74 0 -117.5 50.5t-43.5 131.5q0 65 23 126t60 98q58 60 144 60q78 0 125 -47q57 -55 57 -174q0 -110 -39 -237.5t-102 -190.5q-71 -71 -164 -71zM258 335q40 0 65 27
q51 48 51 141q0 62 -28 90q-23 23 -59 23t-65 -29q-51 -51 -51 -146q0 -52 23 -79t64 -27z" />
    <glyph glyph-name="colon" unicode=":" horiz-adv-x="240" 
d="M1 0l28 128h122l-28 -128h-122zM89 403l28 128h122l-28 -128h-122z" />
    <glyph glyph-name="semicolon" unicode=";" horiz-adv-x="240" 
d="M-42 -144l-7 45q53 10 75 35.5t27 63.5h-52l28 128h122l-25 -115q-17 -77 -56 -113.5t-112 -43.5zM89 403l28 128h122l-28 -128h-122z" />
    <glyph glyph-name="less" unicode="&#x3c;" horiz-adv-x="465" 
d="M373 110l-320 194l21 96l405 194l-27 -121l-282 -127l227 -127z" />
    <glyph glyph-name="equal" unicode="=" horiz-adv-x="465" 
d="M31 200l22 102h375l-23 -102h-374zM75 402l22 103h375l-23 -103h-374z" />
    <glyph glyph-name="greater" unicode="&#x3e;" horiz-adv-x="465" 
d="M24 110l26 121l282 127l-227 127l24 109l320 -194l-20 -96z" />
    <glyph glyph-name="question" unicode="?" horiz-adv-x="397" 
d="M123 212l23 176l6 5q79 13 120.5 49t41.5 88q0 37 -22 57.5t-57 20.5q-49 0 -107 -44l-46 85q76 58 162 58q82 0 130 -46t49 -120q0 -83 -52 -139t-144 -78l-34 -112h-70zM53 0l28 128h121l-27 -128h-122z" />
    <glyph glyph-name="at" unicode="@" horiz-adv-x="761" 
d="M344 -144q-138 0 -223 87t-85 244q0 131 50 250t145.5 196.5t214.5 77.5q135 0 213 -85.5t78 -213.5q0 -141 -59.5 -242t-146.5 -101q-43 0 -69.5 23.5t-31.5 63.5q-61 -87 -131 -87q-49 0 -78 35t-29 98q0 70 27 140.5t74.5 117.5t100.5 47q70 0 94 -76l19 66l83 -18
l-67 -248q-14 -47 -14 -71q0 -47 45 -47q52 0 98 89.5t46 208.5q0 110 -66.5 186.5t-188.5 76.5q-109 0 -195.5 -77.5t-129.5 -187t-43 -222.5q0 -140 75 -217t196 -77q88 0 170 45l15 -34q-94 -48 -187 -48zM337 145q44 0 83.5 73t39.5 139q0 33 -14.5 51.5t-39.5 18.5
q-45 0 -83 -74t-38 -142q0 -32 14 -49t38 -17z" />
    <glyph glyph-name="A" unicode="A" horiz-adv-x="533" 
d="M-43 0l352 703h110l49 -703h-109l-9 161h-205l-78 -161h-110zM189 257h157l-16 288z" />
    <glyph glyph-name="B" unicode="B" horiz-adv-x="508" 
d="M2 0l152 700h151q99 0 153.5 -44t54.5 -119q0 -71 -40.5 -118t-106.5 -65q45 -19 72 -55t27 -85q0 -97 -73.5 -155.5t-194.5 -58.5h-195zM131 98h79q69 0 108.5 32t39.5 90q0 39 -28 63t-79 24h-75zM196 399h65q70 0 107.5 35.5t37.5 86.5q0 81 -101 81h-65z" />
    <glyph glyph-name="C" unicode="C" horiz-adv-x="477" 
d="M261 -8q-99 0 -155 69t-56 198q0 102 34.5 206t98.5 168q75 75 166 75q109 0 175 -91l-75 -75q-46 64 -98 64q-47 0 -88 -41q-46 -46 -74.5 -134.5t-28.5 -168.5q0 -83 29 -125.5t78 -42.5t108 50l46 -89q-75 -63 -160 -63z" />
    <glyph glyph-name="D" unicode="D" horiz-adv-x="545" 
d="M2 0l152 700h122q125 0 191 -66q65 -67 65 -194q0 -93 -32 -189t-93 -157q-94 -94 -248 -94h-157zM383 564q-38 38 -104 38h-38l-109 -504h48q88 0 149 63q44 44 69.5 122.5t25.5 150.5q0 89 -41 130z" />
    <glyph glyph-name="E" unicode="E" horiz-adv-x="449" 
d="M2 0l152 700h352l-22 -100h-243l-43 -198h216l-21 -99h-217l-44 -203h249l-23 -100h-356z" />
    <glyph glyph-name="F" unicode="F" horiz-adv-x="437" 
d="M2 0l152 700h347l-22 -100h-238l-45 -204h211l-22 -101h-210l-65 -295h-108z" />
    <glyph glyph-name="G" unicode="G" horiz-adv-x="540" 
d="M279 -8q-105 0 -167.5 73.5t-62.5 200.5q0 94 34.5 193t101.5 166q85 83 193 83q111 0 182 -80l-75 -80q-44 57 -111 57q-61 0 -111 -50q-51 -51 -77.5 -132t-26.5 -157q0 -84 35 -130t97 -46q37 0 62 15l40 187h-111l21 95h212l-76 -353q-82 -42 -160 -42z" />
    <glyph glyph-name="H" unicode="H" horiz-adv-x="543" 
d="M2 0l152 700h108l-64 -298h207l65 298h108l-152 -700h-108l65 302h-207l-66 -302h-108z" />
    <glyph glyph-name="I" unicode="I" horiz-adv-x="236" 
d="M7 0l152 700h107l-152 -700h-107z" />
    <glyph glyph-name="J" unicode="J" horiz-adv-x="383" 
d="M121 -7q-47 0 -88 21.5t-64 63.5l72 70q34 -53 79 -53q30 0 50 21q22 21 34 75l110 509h108l-114 -528q-18 -85 -62 -129q-50 -50 -125 -50z" />
    <glyph glyph-name="K" unicode="K" horiz-adv-x="513" 
d="M2 0l152 700h108l-73 -337l272 337h129l-251 -308l106 -392h-116l-80 305l-98 -113l-41 -192h-108z" />
    <glyph glyph-name="L" unicode="L" horiz-adv-x="411" 
d="M2 0l152 700h108l-130 -600h223l-22 -100h-331z" />
    <glyph glyph-name="M" unicode="M" horiz-adv-x="623" 
d="M2 0l152 700h108l72 -314l208 314h116l-152 -700h-104l105 487l-215 -317h-3l-76 316l-106 -486h-105z" />
    <glyph glyph-name="N" unicode="N" horiz-adv-x="556" 
d="M2 0l152 700h98l136 -463l100 463h105l-152 -700h-92l-139 474l-103 -474h-105z" />
    <glyph glyph-name="O" unicode="O" horiz-adv-x="568" 
d="M354 711q102 0 153.5 -70t51.5 -185q0 -101 -37.5 -215t-100.5 -178q-74 -74 -170 -74q-102 0 -153.5 70t-51.5 185q0 101 37.5 215t100.5 178q74 74 170 74zM259 88q44 0 82 38q51 51 80 150t29 178q0 158 -104 158q-43 0 -82 -37q-51 -52 -80 -151.5t-29 -177.5
q0 -158 104 -158z" />
    <glyph glyph-name="P" unicode="P" horiz-adv-x="484" 
d="M2 0l152 700h133q114 0 169 -56q50 -50 50 -138q0 -121 -77 -198q-78 -78 -214 -78h-55l-50 -230h-108zM371 574q-28 28 -87 28h-43l-60 -275h44q78 0 125 45q47 47 47 128q0 48 -26 74z" />
    <glyph glyph-name="Q" unicode="Q" horiz-adv-x="572" 
d="M354 711q102 0 153.5 -70t51.5 -185q0 -90 -29.5 -190t-81.5 -168l54 -66l-74 -57l-42 60q-62 -46 -135 -46q-102 0 -153.5 70t-51.5 185q0 101 37.5 215t100.5 178q74 74 170 74zM259 88q39 0 71 24l-66 87l71 56l50 -72q30 57 47.5 134.5t17.5 136.5q0 158 -104 158
q-43 0 -82 -37q-51 -52 -80 -151.5t-29 -177.5q0 -158 104 -158z" />
    <glyph glyph-name="R" unicode="R" horiz-adv-x="512" 
d="M318 0l-73 251h-16h-64l-55 -251h-108l152 700h144q116 0 174 -56q50 -52 50 -134q0 -110 -71 -181q-38 -38 -98 -58l79 -271h-114zM185 347h60q83 0 127 44q41 43 41 111q0 44 -24 70q-31 29 -91 29h-57z" />
    <glyph glyph-name="S" unicode="S" horiz-adv-x="439" 
d="M198 -8q-131 0 -213 115l73 75q68 -90 140 -90q39 0 65 26t26 64q0 29 -18 58t-67 75q-61 60 -88.5 102t-27.5 95q0 83 54 137q57 59 142 59q116 0 191 -99l-76 -72q-52 71 -117 71q-38 0 -62 -25t-24 -60q0 -28 18.5 -56t65.5 -71q61 -57 89.5 -102.5t28.5 -96.5
q0 -90 -59 -149q-56 -56 -141 -56z" />
    <glyph glyph-name="T" unicode="T" horiz-adv-x="426" 
d="M101 0l129 599h-141l23 101h390l-23 -101h-141l-129 -599h-108z" />
    <glyph glyph-name="U" unicode="U" horiz-adv-x="538" 
d="M233 -10q-88 0 -139 47.5t-51 132.5q0 38 11 91l95 439h108l-97 -444q-9 -41 -9 -77q0 -42 24 -66t67 -24q45 0 76 31q33 33 51 109l102 471h108l-104 -478q-26 -113 -83 -170q-61 -62 -159 -62z" />
    <glyph glyph-name="V" unicode="V" horiz-adv-x="505" 
d="M141 -4l-36 704h110l17 -517l239 517h114l-340 -704h-104z" />
    <glyph glyph-name="W" unicode="W" horiz-adv-x="780" 
d="M115 -4l-6 704h110l-7 -497l219 498h96l4 -498l210 497h115l-312 -704h-106l-4 482l-214 -482h-105z" />
    <glyph glyph-name="X" unicode="X" horiz-adv-x="496" 
d="M-39 0l244 363l-90 337h116l55 -238l156 238h124l-236 -346l95 -354h-115l-61 253l-165 -253h-123z" />
    <glyph glyph-name="Y" unicode="Y" horiz-adv-x="476" 
d="M124 0l61 282l-93 418h114l56 -297l188 297h121l-279 -423l-60 -277h-108z" />
    <glyph glyph-name="Z" unicode="Z" horiz-adv-x="459" 
d="M-22 0l18 83l368 520h-251l21 97h383l-17 -83l-370 -520h261l-21 -97h-392z" />
    <glyph glyph-name="bracketleft" unicode="[" horiz-adv-x="341" 
d="M-5 -130l180 830h226l-18 -78h-130l-144 -674h129l-17 -78h-226z" />
    <glyph glyph-name="backslash" unicode="\" horiz-adv-x="375" 
d="M224 -109l-125 888h85l124 -888h-84z" />
    <glyph glyph-name="bracketright" unicode="]" horiz-adv-x="341" 
d="M354 700l-180 -830h-226l18 78h130l144 674h-129l17 78h226z" />
    <glyph glyph-name="asciicircum" unicode="^" horiz-adv-x="461" 
d="M133 505l142 190h81l60 -190h-70l-40 125l-94 -125h-79z" />
    <glyph glyph-name="underscore" unicode="_" horiz-adv-x="506" 
d="M-94 -156l18 83h510l-18 -83h-510z" />
    <glyph glyph-name="grave" unicode="`" horiz-adv-x="500" 
d="M332 582l-91 103l88 46l74 -149h-71z" />
    <glyph glyph-name="a" unicode="a" horiz-adv-x="426" 
d="M109 -9q-50 0 -79.5 35t-29.5 99q0 45 16 89t43 71q46 46 118 46q53 0 110 -26l3 17q7 35 7 51q0 34 -22.5 52t-63.5 18q-49 0 -95 -23l-16 91q68 27 132 27q80 0 124 -39t44 -109q0 -27 -12 -84l-65 -306h-103l13 63q-52 -72 -124 -72zM161 72q35 0 61.5 27.5t36.5 73.5
l13 62q-38 19 -77 19q-36 0 -60 -24q-33 -33 -33 -90q0 -68 59 -68z" />
    <glyph glyph-name="b" unicode="b" horiz-adv-x="475" 
d="M234 -10q-83 0 -118 94l-18 -84h-104l155 714h104l-56 -255q63 82 130 82q58 0 91 -49t33 -136q0 -90 -30 -179.5t-80 -139.5q-47 -47 -107 -47zM215 85q32 0 56 26q33 32 54 102t21 128q0 51 -17.5 78.5t-48.5 27.5q-32 0 -60 -28q-32 -32 -53 -102t-21 -126
q0 -51 19 -78.5t50 -27.5z" />
    <glyph glyph-name="c" unicode="c" horiz-adv-x="372" 
d="M189 -10q-76 0 -121 51t-45 151q0 76 27.5 157.5t78.5 132.5q58 58 133 58q82 0 135 -74l-66 -70q-33 47 -70 47q-32 0 -60 -28q-36 -36 -56 -100.5t-20 -119.5t20.5 -82t53.5 -27q32 0 72 32l41 -79q-55 -49 -123 -49z" />
    <glyph glyph-name="d" unicode="d" horiz-adv-x="475" 
d="M262 0l16 72q-64 -82 -130 -82q-58 0 -91 49.5t-33 136.5q0 89 30 179t80 140q46 46 107 46q85 0 118 -93l58 266h104l-155 -714h-104zM196 85q33 0 59 28q32 32 53 102t21 126q0 51 -19 78.5t-50 27.5q-30 0 -56 -26q-33 -33 -54 -102.5t-21 -127.5q0 -51 17.5 -78.5
t49.5 -27.5z" />
    <glyph glyph-name="e" unicode="e" horiz-adv-x="431" 
d="M390 223h-268q-1 -9 -1 -25q0 -56 24 -85.5t67 -29.5q49 0 100 39l31 -84q-71 -48 -145 -48q-82 0 -129.5 53.5t-47.5 152.5q0 81 29.5 158.5t79.5 127.5q57 59 131 59q69 0 108.5 -48.5t39.5 -133.5q0 -60 -19 -136zM200 426q-40 -40 -65 -126h171q8 28 8 63
q0 41 -15.5 64.5t-44.5 23.5t-54 -25z" />
    <glyph glyph-name="f" unicode="f" horiz-adv-x="282" 
d="M12 0l97 444h-49l20 88h48l10 46q14 64 47 99q42 40 107 40q39 0 73 -12l-20 -87q-24 8 -42 8q-27 0 -41.5 -15t-22.5 -48l-7 -31h92l-19 -88h-92l-96 -444h-105z" />
    <glyph glyph-name="g" unicode="g" horiz-adv-x="472" 
d="M151 -142q-101 0 -180 44l39 85q68 -39 140 -39q54 0 85 32q26 25 38 81l12 55q-61 -82 -129 -82q-59 0 -92 46.5t-33 132.5q0 73 27 154t72 126q48 48 108 48q84 0 119 -92l18 83h104l-104 -480q-21 -92 -66 -137q-57 -57 -158 -57zM200 128q34 0 62 28q26 26 45 81.5
t19 110.5q0 48 -18 73.5t-49 25.5q-30 0 -58 -28t-46.5 -85.5t-18.5 -109.5q0 -96 64 -96z" />
    <glyph glyph-name="h" unicode="h" horiz-adv-x="457" 
d="M-6 0l155 714h104l-55 -250q60 77 127 77q52 0 82 -32t30 -86q0 -28 -10 -75l-75 -348h-104l72 332q7 35 7 56q0 28 -15 44t-42 16q-34 0 -61 -28.5t-36 -72.5l-75 -347h-104z" />
    <glyph glyph-name="i" unicode="i" horiz-adv-x="215" 
d="M-3 0l116 532h104l-115 -532h-105zM127 605l23 107h109l-24 -107h-108z" />
    <glyph glyph-name="j" unicode="j" horiz-adv-x="217" 
d="M-40 -143q-32 0 -64 7l18 84q15 -4 31 -4q43 0 57 63l113 525h104l-117 -543q-29 -132 -142 -132zM129 605l24 107h108l-23 -107h-109z" />
    <glyph glyph-name="k" unicode="k" horiz-adv-x="424" 
d="M-6 0l155 714h104l-88 -404l183 222h124l-186 -219l70 -313h-111l-49 231l-65 -77l-33 -154h-104z" />
    <glyph glyph-name="l" unicode="l" horiz-adv-x="215" 
d="M-3 0l156 714h104l-155 -714h-105z" />
    <glyph glyph-name="m" unicode="m" horiz-adv-x="703" 
d="M-6 0l115 532h104l-15 -68q60 77 123 77q84 0 104 -84q61 84 145 84q51 0 80.5 -32t29.5 -86q0 -33 -9 -75l-75 -348h-104l72 332q7 35 7 56q0 28 -14 44t-40 16q-33 0 -59 -27.5t-36 -71.5l-75 -349h-104l72 332q7 35 7 56q0 28 -14 44t-40 16q-34 0 -59.5 -28
t-35.5 -73l-75 -347h-104z" />
    <glyph glyph-name="n" unicode="n" horiz-adv-x="456" 
d="M-6 0l115 532h104l-15 -68q60 77 127 77q52 0 82 -32t30 -86q0 -28 -10 -75l-75 -348h-104l72 332q7 35 7 56q0 28 -15 44t-42 16q-34 0 -61 -28.5t-36 -72.5l-75 -347h-104z" />
    <glyph glyph-name="o" unicode="o" horiz-adv-x="456" 
d="M261 541q80 0 125.5 -55t45.5 -150q0 -79 -26.5 -159.5t-74.5 -128.5q-58 -58 -137 -58q-80 0 -125 55t-45 149q0 79 26.5 159.5t74.5 128.5q59 59 136 59zM197 82q31 0 61 28q32 33 52.5 99t20.5 125q0 114 -73 114q-32 0 -60 -28q-33 -33 -53 -99t-20 -125
q0 -56 19 -85t53 -29z" />
    <glyph glyph-name="p" unicode="p" horiz-adv-x="475" 
d="M234 -10q-83 0 -118 94l-49 -224h-104l146 672h104l-16 -73q63 82 130 82q58 0 91 -49t33 -136q0 -90 -30 -179.5t-80 -139.5q-47 -47 -107 -47zM215 85q32 0 56 26q33 32 54 102t21 128q0 51 -17.5 78.5t-48.5 27.5q-32 0 -60 -28q-32 -32 -53 -102t-21 -126
q0 -51 19 -78.5t50 -27.5z" />
    <glyph glyph-name="q" unicode="q" horiz-adv-x="475" 
d="M148 -10q-58 0 -91 49.5t-33 136.5q0 89 30 179t80 140q46 46 107 46q85 0 118 -93l18 84h105l-146 -672h-104l46 212q-64 -82 -130 -82zM196 85q33 0 59 28q32 32 53 102t21 126q0 51 -19 78.5t-50 27.5q-30 0 -56 -26q-33 -33 -54 -102.5t-21 -127.5q0 -51 17.5 -78.5
t49.5 -27.5z" />
    <glyph glyph-name="r" unicode="r" horiz-adv-x="301" 
d="M-6 0l115 532h104l-19 -89q61 102 146 95l-26 -117h-4q-120 0 -154 -151l-58 -270h-104z" />
    <glyph glyph-name="s" unicode="s" horiz-adv-x="354" 
d="M147 -10q-97 0 -173 86l58 72q64 -69 115 -69q26 0 44 17t18 44q0 36 -59 91q-53 50 -75 82.5t-22 76.5q0 63 43 106.5t114 43.5q89 0 159 -73l-56 -73q-55 57 -102 57q-26 0 -42 -15.5t-16 -38.5q0 -19 12 -38t51 -55q52 -49 72 -83.5t20 -75.5q0 -65 -45.5 -110
t-115.5 -45z" />
    <glyph glyph-name="t" unicode="t" horiz-adv-x="295" 
d="M138 -7q-48 0 -75.5 23t-27.5 67q0 26 7 57l66 304h-48l20 88h47l31 141h104l-31 -141h93l-19 -88h-93l-61 -284q-7 -33 -7 -43q0 -31 39 -31q23 0 47 9l-19 -88q-31 -14 -73 -14z" />
    <glyph glyph-name="u" unicode="u" horiz-adv-x="456" 
d="M132 -10q-52 0 -82 32t-30 87q0 27 10 74l75 349h104l-72 -333q-8 -38 -8 -56q0 -28 15.5 -43.5t42.5 -15.5q34 0 60.5 28.5t36.5 72.5l75 347h104l-115 -532h-104l14 68q-58 -78 -126 -78z" />
    <glyph glyph-name="v" unicode="v" horiz-adv-x="432" 
d="M105 -3l-33 535h105l10 -383l176 383h107l-265 -535h-100z" />
    <glyph glyph-name="w" unicode="w" horiz-adv-x="636" 
d="M81 -3l-5 535h104l-5 -354l155 354h86l1 -354l149 354h104l-238 -535h-97l-2 348l-156 -348h-96z" />
    <glyph glyph-name="x" unicode="x" horiz-adv-x="424" 
d="M188 532l42 -172l114 172h115l-187 -263l77 -269h-109l-44 183l-120 -183h-115l194 276l-74 256h107z" />
    <glyph glyph-name="y" unicode="y" horiz-adv-x="433" 
d="M109 1l-35 531h105l13 -370l169 370h108l-258 -534q-38 -79 -74 -110.5t-87 -31.5q-50 0 -86 26l32 83q26 -18 51 -18q35 0 62 54z" />
    <glyph glyph-name="z" unicode="z" horiz-adv-x="373" 
d="M-31 0l16 75l276 369h-193l19 88h315l-16 -76l-275 -369h200l-19 -87h-323z" />
    <glyph glyph-name="braceleft" unicode="{" horiz-adv-x="366" 
d="M235 -140q-158 24 -158 135q0 37 29 105q24 57 24 83q0 63 -85 63h-15l19 83h18q62 0 92 32q24 23 29 52.5t2 82.5t5 90.5t41 71.5q58 58 181 56l-1 -71q-76 -4 -106 -36q-22 -22 -27 -57.5t1 -71.5q5 -47 -1.5 -82.5t-36.5 -65.5q-35 -35 -104 -46q86 -27 86 -93
q0 -32 -26 -89q-29 -68 -29 -94q0 -30 21 -49t67 -31z" />
    <glyph glyph-name="bar" unicode="|" horiz-adv-x="273" 
d="M13 -109l193 888h83l-193 -888h-83z" />
    <glyph glyph-name="braceright" unicode="}" horiz-adv-x="366" 
d="M140 714q158 -24 158 -135q0 -37 -29 -105q-24 -57 -24 -83q0 -63 85 -63h15l-19 -83h-18q-62 0 -92 -32q-24 -23 -29 -52.5t-2 -82.5t-5 -90.5t-41 -71.5q-58 -58 -181 -56l1 71q76 4 106 36q22 22 27 57.5t-1 71.5q-5 47 1.5 82.5t36.5 65.5q35 35 104 46
q-86 27 -86 93q0 32 26 89q29 68 29 94q0 30 -21 49t-67 31z" />
    <glyph glyph-name="asciitilde" unicode="~" horiz-adv-x="400" 
d="M106 242l-56 22q39 108 105 108q31 0 66 -28q28 -23 43 -23q28 0 51 53l56 -23q-39 -107 -105 -107q-31 0 -66 28q-28 23 -43 23q-28 0 -51 -53z" />
    <glyph glyph-name="uni00A0" unicode="&#xa0;" horiz-adv-x="189" 
 />
    <glyph glyph-name="exclamdown" unicode="&#xa1;" horiz-adv-x="246" 
d="M199 488l-64 -453l-8 -35h-125l7 35l134 453h56zM277 700l-27 -128h-121l27 128h121z" />
    <glyph glyph-name="cent" unicode="&#xa2;" horiz-adv-x="399" 
d="M301 705h74l-23 -86q47 -16 86 -62l-70 -73q-25 30 -44 39l-91 -349q40 1 77 31l39 -80q-60 -48 -132 -48h-8l-22 -83h-73l26 98q-93 44 -93 189q0 79 27 160t76 129q55 55 131 58zM152 283q0 -53 20 -81l82 320q-16 -8 -30 -21q-33 -32 -52.5 -96t-19.5 -122z" />
    <glyph glyph-name="sterling" unicode="&#xa3;" horiz-adv-x="454" 
d="M-18 0l15 68l63 23l44 197h-60l21 94h59l26 124q21 101 71 151q51 51 132 51q102 0 156 -83l-78 -68q-34 50 -80 50q-33 0 -57 -24t-39 -89l-24 -112h158l-20 -94h-158l-42 -192h217l-20 -96h-384z" />
    <glyph glyph-name="yen" unicode="&#xa5;" horiz-adv-x="496" 
d="M138 0l23 107h-127l18 80h127l15 73h-127l17 80h105l-81 360h110l56 -298l183 298h120l-239 -360h105l-17 -80h-128l-16 -73h128l-18 -80h-127l-23 -107h-104z" />
    <glyph glyph-name="section" unicode="&#xa7;" horiz-adv-x="480" 
d="M468 346q0 -54 -37 -88.5t-93 -45.5q33 -40 33 -82q0 -55 -44.5 -97t-121.5 -42q-98 0 -169 64l53 74q20 -19 52.5 -34.5t63.5 -15.5q29 0 47 14t18 37q0 21 -19 38t-69 44q-68 37 -100.5 67.5t-32.5 75.5q0 54 37 88t92 45q-32 39 -32 83q0 55 45 97t122 42
q96 0 169 -64l-53 -74q-58 50 -117 50q-28 0 -46 -14t-18 -37q0 -21 19 -38t69 -44q68 -37 100 -67.5t32 -75.5zM151 369q0 -35 64 -74q49 -27 78 -27q32 0 53 17t21 45q0 35 -64 74q-44 27 -78 27q-32 0 -53 -17t-21 -45z" />
    <glyph glyph-name="dieresis" unicode="&#xa8;" horiz-adv-x="500" 
d="M192 586l22 102h100l-22 -102h-100zM344 586l23 102h100l-23 -102h-100z" />
    <glyph glyph-name="copyright" unicode="&#xa9;" horiz-adv-x="634" 
d="M315 154q-55 0 -85.5 37t-30.5 102q0 59 20 119t57 97q42 42 97 42q54 0 91 -51l-44 -45q-25 35 -52 35q-23 0 -46 -21q-26 -26 -41.5 -74.5t-15.5 -95.5q0 -85 58 -85q23 0 57 24l22 -53q-43 -31 -87 -31zM620 427q0 -97 -30.5 -193t-96.5 -161q-84 -84 -201 -84
q-112 0 -179 78.5t-67 205.5q0 96 31 192.5t96 161.5q84 84 201 84q112 0 179 -78.5t67 -205.5zM82 274q0 -112 57 -181.5t156 -69.5t173 74q59 60 87.5 149.5t28.5 180.5q0 112 -57 181t-156 69q-100 0 -172 -74q-60 -60 -88.5 -149.5t-28.5 -179.5z" />
    <glyph glyph-name="ordfeminine" unicode="&#xaa;" horiz-adv-x="301" 
d="M152 403q-28 0 -44.5 20t-16.5 53q0 46 26 79.5t73 33.5q28 0 61 -14l2 11q4 18 4 24q0 38 -49 38q-30 0 -54 -13l-11 52q38 17 75 17q46 0 71.5 -22.5t25.5 -61.5q0 -17 -5 -44l-37 -168h-58l7 33q-31 -38 -70 -38zM180 450q19 0 35 15.5t20 39.5l7 30q-24 10 -42 10
q-24 0 -37 -18.5t-13 -42.5q0 -34 30 -34zM47 299l11 47h212l-11 -47h-212z" />
    <glyph glyph-name="guillemotleft" unicode="&#xab;" horiz-adv-x="487" 
d="M138 40l-106 218l2 8l196 219l61 -51l-147 -180l75 -178zM330 40l-102 218l1 8l200 219l61 -51l-150 -180l71 -178z" />
    <glyph glyph-name="registered" unicode="&#xae;" horiz-adv-x="338" 
d="M246 714q58 0 92.5 -40.5t34.5 -102.5q0 -109 -62 -171q-46 -44 -103 -44q-59 0 -93.5 40.5t-34.5 102.5q0 109 62 171q44 44 104 44zM210 377q48 0 85 37q57 56 57 156q0 53 -28.5 88t-79.5 35q-50 0 -86 -36q-56 -57 -56 -157q0 -53 28.5 -88t79.5 -35zM201 509
l-12 -64h-36l37 188h43q67 0 67 -57q0 -44 -44 -61l22 -70h-37l-19 64h-21zM208 540h15q22 0 31 10q9 9 9 25q0 26 -31 26h-13z" />
    <glyph glyph-name="macron" unicode="&#xaf;" horiz-adv-x="500" 
d="M191 590l15 73h259l-15 -73h-259z" />
    <glyph glyph-name="degree" unicode="&#xb0;" horiz-adv-x="332" 
d="M244 706q50 0 80 -36t30 -91q0 -102 -61 -164q-41 -39 -91 -39q-51 0 -81 36t-30 91q0 102 62 164q39 39 91 39zM208 441q23 0 40 18q19 19 30 52t11 64q0 30 -13 48.5t-38 18.5q-22 0 -40 -18q-40 -40 -40 -116q0 -67 50 -67z" />
    <glyph glyph-name="plusminus" unicode="&#xb1;" horiz-adv-x="465" 
d="M167 187l31 144h-142l21 97h142l31 144h97l-32 -144h142l-21 -97h-142l-30 -144h-97zM-10 19l20 93h378l-20 -93h-378z" />
    <glyph glyph-name="two.sup" unicode="&#xb2;" 
d="M80 447l12 57l138 126q30 29 41.5 47t11.5 37q0 18 -12 29t-32 11q-33 0 -72 -33l-31 50q54 46 111 46q46 0 76 -27t30 -69q0 -29 -15 -56.5t-58 -65.5l-98 -90h134l-14 -62h-222z" />
    <glyph glyph-name="three.sup" unicode="&#xb3;" 
d="M200 440q-72 0 -113 54l41 47q34 -39 74 -39q25 0 39.5 16t14.5 39q0 52 -81 54h-3l3 43l102 95h-124l14 62h209l-10 -51l-119 -107q36 -10 56.5 -34t20.5 -59q0 -53 -35 -86.5t-89 -33.5z" />
    <glyph glyph-name="acute" unicode="&#xb4;" horiz-adv-x="500" 
d="M223 582l119 149l86 -46l-123 -103h-82z" />
    <glyph glyph-name="paragraph" unicode="&#xb6;" horiz-adv-x="428" 
d="M202 0l49 232q-92 13 -137 58q-51 51 -51 133q0 124 77 201q76 76 213 76h108l-152 -700h-107z" />
    <glyph glyph-name="periodcentered" unicode="&#xb7;" horiz-adv-x="242" 
d="M53 242l28 128h122l-27 -128h-123z" />
    <glyph glyph-name="cedilla" unicode="&#xb8;" horiz-adv-x="500" 
d="M164 -136l-84 37l100 114h74z" />
    <glyph glyph-name="one.sup" unicode="&#xb9;" horiz-adv-x="244" 
d="M144 447l63 292l-70 -29l6 65l98 39h51l-79 -367h-69z" />
    <glyph glyph-name="ordmasculine" unicode="&#xba;" horiz-adv-x="304" 
d="M51 299l10 47h213l-11 -47h-212zM156 516q0 -60 40 -60q19 0 32 15q18 18 29 54t11 67q0 59 -40 59q-18 0 -33 -15q-18 -18 -28.5 -53.5t-10.5 -66.5zM328 592q0 -40 -15 -84.5t-42 -72.5q-35 -33 -78 -33q-45 0 -71 29.5t-26 83.5q0 42 14.5 86t42.5 71q33 33 77 33
q46 0 72 -29t26 -84z" />
    <glyph glyph-name="guillemotright" unicode="&#xbb;" horiz-adv-x="487" 
d="M347 485l106 -218l-2 -8l-196 -219l-61 51l147 180l-75 178zM155 485l102 -218l-1 -8l-200 -219l-61 51l150 180l-71 178z" />
    <glyph glyph-name="onequarter" unicode="&#xbc;" horiz-adv-x="620" 
d="M104 337l62 291l-70 -29l6 66l98 38h52l-80 -366h-68zM16 0l264 363l239 337h64l-265 -363l-238 -337h-64zM412 -1l16 73h-147l10 61l177 234h85l-51 -238h37l-12 -57h-38l-15 -73h-62zM351 128h91l35 165h-4z" />
    <glyph glyph-name="onehalf" unicode="&#xbd;" horiz-adv-x="620" 
d="M280 0l12 57l138 126q30 29 41.5 47t11.5 37q0 18 -12 29t-32 11q-33 0 -72 -33l-31 50q54 46 111 46q46 0 76 -27t30 -69q0 -29 -15 -56.5t-58 -65.5l-98 -90h134l-14 -62h-222zM0 0l264 363l239 337h64l-265 -363l-238 -337h-64zM104 337l62 291l-70 -29l6 66l98 38h52
l-80 -366h-68z" />
    <glyph glyph-name="threequarters" unicode="&#xbe;" horiz-adv-x="675" 
d="M472 -1l16 73h-147l10 61l177 234h85l-51 -238h37l-12 -57h-38l-15 -73h-62zM411 128h91l35 165h-4zM70 0l264 363l239 337h64l-265 -363l-238 -337h-64zM158 330q-72 0 -114 53l41 47q34 -39 74 -39q25 0 39.5 16.5t14.5 39.5q0 53 -81 53h-2l2 43l102 96h-123l13 61
h210l-11 -50l-119 -108q36 -9 56.5 -33t20.5 -59q0 -53 -35 -86.5t-88 -33.5z" />
    <glyph glyph-name="questiondown" unicode="&#xbf;" horiz-adv-x="397" 
d="M310 488l-23 -176l-6 -5q-79 -13 -120.5 -49t-41.5 -88q0 -37 22 -57.5t57 -20.5q49 0 107 44l46 -85q-76 -58 -162 -58q-82 0 -130 46t-49 120q0 83 52 139t144 78l34 112h70zM380 700l-28 -128h-121l27 128h122z" />
    <glyph glyph-name="Agrave" unicode="&#xc0;" horiz-adv-x="533" 
d="M-43 0l352 703h110l49 -703h-109l-9 161h-205l-78 -161h-110zM189 257h157l-16 288zM334 752l-96 84l91 46l80 -130h-75z" />
    <glyph glyph-name="Aacute" unicode="&#xc1;" horiz-adv-x="533" 
d="M-43 0l352 703h110l49 -703h-109l-9 161h-205l-78 -161h-110zM189 257h157l-16 288zM326 752l119 130l91 -46l-124 -84h-86z" />
    <glyph glyph-name="Acircumflex" unicode="&#xc2;" horiz-adv-x="533" 
d="M-43 0l352 703h110l49 -703h-109l-9 161h-205l-78 -161h-110zM189 257h157l-16 288zM236 753l117 121h92l65 -121h-77l-45 53l-68 -53h-84z" />
    <glyph glyph-name="Atilde" unicode="&#xc3;" horiz-adv-x="533" 
d="M-43 0l352 703h110l49 -703h-109l-9 161h-205l-78 -161h-110zM189 257h157l-16 288zM290 748l-60 18q23 56 44.5 80t53.5 24q26 0 68 -21q32 -16 44 -16q14 0 23.5 9t22.5 32l60 -18q-23 -56 -44.5 -80t-53.5 -24q-24 0 -66 20q-32 17 -46 17t-23 -9t-23 -32z" />
    <glyph glyph-name="Adieresis" unicode="&#xc4;" horiz-adv-x="533" 
d="M-43 0l352 703h110l49 -703h-109l-9 161h-205l-78 -161h-110zM189 257h157l-16 288zM243 755l22 101h103l-22 -101h-103zM405 755l21 101h103l-22 -101h-102z" />
    <glyph glyph-name="Aring" unicode="&#xc5;" horiz-adv-x="533" 
d="M-43 0l336 673q-20 22 -20 53q0 43 31 72t77 29q39 0 63.5 -23.5t24.5 -57.5q0 -53 -46 -83l45 -663h-109l-9 161h-205l-78 -161h-110zM189 257h157l-16 288zM366 688q24 0 40 15.5t16 38.5q0 19 -12 31t-33 12q-24 0 -40 -16t-16 -38q0 -19 12 -31t33 -12z" />
    <glyph glyph-name="AE" unicode="&#xc6;" horiz-adv-x="728" 
d="M-50 0l413 700h421l-22 -100h-236l-43 -198h209l-20 -99h-211l-44 -203h242l-23 -100h-348l35 161h-169l-94 -161h-110zM210 257h134l74 340h-13z" />
    <glyph glyph-name="Ccedilla" unicode="&#xc7;" horiz-adv-x="477" 
d="M178 -136l-84 37l91 103q-135 49 -135 255q0 102 34.5 206t98.5 168q75 75 166 75q109 0 175 -91l-75 -75q-46 64 -98 64q-47 0 -88 -41q-46 -46 -74.5 -134.5t-28.5 -168.5q0 -83 29 -125.5t78 -42.5t108 50l46 -89q-75 -63 -160 -63h-7z" />
    <glyph glyph-name="Egrave" unicode="&#xc8;" horiz-adv-x="449" 
d="M293 744l-96 84l91 46l80 -130h-75zM2 0l152 700h352l-22 -100h-243l-43 -198h216l-21 -99h-217l-44 -203h249l-23 -100h-356z" />
    <glyph glyph-name="Eacute" unicode="&#xc9;" horiz-adv-x="449" 
d="M285 744l119 130l91 -46l-124 -84h-86zM2 0l152 700h352l-22 -100h-243l-43 -198h216l-21 -99h-217l-44 -203h249l-23 -100h-356z" />
    <glyph glyph-name="Ecircumflex" unicode="&#xca;" horiz-adv-x="449" 
d="M2 0l152 700h352l-22 -100h-243l-43 -198h216l-21 -99h-217l-44 -203h249l-23 -100h-356zM196 745l117 121h92l65 -121h-77l-45 53l-68 -53h-84z" />
    <glyph glyph-name="Edieresis" unicode="&#xcb;" horiz-adv-x="449" 
d="M204 747l22 101h103l-22 -101h-103zM366 747l21 101h103l-22 -101h-102zM2 0l152 700h352l-22 -100h-243l-43 -198h216l-21 -99h-217l-44 -203h249l-23 -100h-356z" />
    <glyph glyph-name="Igrave" unicode="&#xcc;" horiz-adv-x="236" 
d="M7 0l152 700h107l-152 -700h-107zM180 744l-96 84l91 46l80 -130h-75z" />
    <glyph glyph-name="Iacute" unicode="&#xcd;" horiz-adv-x="236" 
d="M7 0l152 700h107l-152 -700h-107zM173 744l119 130l91 -46l-124 -84h-86z" />
    <glyph glyph-name="Icircumflex" unicode="&#xce;" horiz-adv-x="236" 
d="M7 0l152 700h107l-152 -700h-107zM83 745l117 121h92l65 -121h-77l-45 53l-68 -53h-84z" />
    <glyph glyph-name="Idieresis" unicode="&#xcf;" horiz-adv-x="236" 
d="M7 0l152 700h107l-152 -700h-107zM91 747l22 101h103l-22 -101h-103zM253 747l21 101h103l-22 -101h-102z" />
    <glyph glyph-name="Eth" unicode="&#xd0;" horiz-adv-x="560" 
d="M29 304l21 96h55l65 300h121q125 0 191 -66t66 -194q0 -93 -32 -189t-93 -157q-94 -94 -248 -94h-157l66 304h-55zM398 564q-36 38 -103 38h-39l-44 -202h104l-21 -96h-104l-44 -206h48q87 0 150 63q43 44 68.5 122.5t25.5 150.5q0 89 -41 130z" />
    <glyph glyph-name="Ntilde" unicode="&#xd1;" horiz-adv-x="556" 
d="M295 735l-60 18q23 56 44.5 80t53.5 24q26 0 68 -21q32 -16 44 -16q14 0 23.5 9t22.5 32l60 -18q-23 -56 -44.5 -80t-53.5 -24q-24 0 -66 20q-32 17 -46 17t-23 -9t-23 -32zM2 0l152 700h98l136 -463l100 463h105l-152 -700h-92l-139 474l-103 -474h-105z" />
    <glyph glyph-name="Ograve" unicode="&#xd2;" horiz-adv-x="568" 
d="M342 752l-96 84l91 46l80 -130h-75zM354 711q102 0 153.5 -70t51.5 -185q0 -101 -37.5 -215t-100.5 -178q-74 -74 -170 -74q-102 0 -153.5 70t-51.5 185q0 101 37.5 215t100.5 178q74 74 170 74zM259 88q44 0 82 38q51 51 80 150t29 178q0 158 -104 158q-43 0 -82 -37
q-51 -52 -80 -151.5t-29 -177.5q0 -158 104 -158z" />
    <glyph glyph-name="Oacute" unicode="&#xd3;" horiz-adv-x="568" 
d="M334 752l119 130l91 -46l-124 -84h-86zM354 711q102 0 153.5 -70t51.5 -185q0 -101 -37.5 -215t-100.5 -178q-74 -74 -170 -74q-102 0 -153.5 70t-51.5 185q0 101 37.5 215t100.5 178q74 74 170 74zM259 88q44 0 82 38q51 51 80 150t29 178q0 158 -104 158q-43 0 -82 -37
q-51 -52 -80 -151.5t-29 -177.5q0 -158 104 -158z" />
    <glyph glyph-name="Ocircumflex" unicode="&#xd4;" horiz-adv-x="568" 
d="M354 711q102 0 153.5 -70t51.5 -185q0 -101 -37.5 -215t-100.5 -178q-74 -74 -170 -74q-102 0 -153.5 70t-51.5 185q0 101 37.5 215t100.5 178q74 74 170 74zM259 88q44 0 82 38q51 51 80 150t29 178q0 158 -104 158q-43 0 -82 -37q-51 -52 -80 -151.5t-29 -177.5
q0 -158 104 -158zM244 753l117 121h92l65 -121h-77l-45 53l-68 -53h-84z" />
    <glyph glyph-name="Otilde" unicode="&#xd5;" horiz-adv-x="568" 
d="M297 748l-60 18q23 56 44.5 80t53.5 24q26 0 68 -21q32 -16 44 -16q14 0 23.5 9t22.5 32l60 -18q-23 -56 -44.5 -80t-53.5 -24q-24 0 -66 20q-32 17 -46 17t-23 -9t-23 -32zM354 711q102 0 153.5 -70t51.5 -185q0 -101 -37.5 -215t-100.5 -178q-74 -74 -170 -74
q-102 0 -153.5 70t-51.5 185q0 101 37.5 215t100.5 178q74 74 170 74zM259 88q44 0 82 38q51 51 80 150t29 178q0 158 -104 158q-43 0 -82 -37q-51 -52 -80 -151.5t-29 -177.5q0 -158 104 -158z" />
    <glyph glyph-name="Odieresis" unicode="&#xd6;" horiz-adv-x="568" 
d="M251 755l22 101h103l-22 -101h-103zM413 755l21 101h103l-22 -101h-102zM354 711q102 0 153.5 -70t51.5 -185q0 -101 -37.5 -215t-100.5 -178q-74 -74 -170 -74q-102 0 -153.5 70t-51.5 185q0 101 37.5 215t100.5 178q74 74 170 74zM259 88q44 0 82 38q51 51 80 150
t29 178q0 158 -104 158q-43 0 -82 -37q-51 -52 -80 -151.5t-29 -177.5q0 -158 104 -158z" />
    <glyph glyph-name="multiply" unicode="&#xd7;" horiz-adv-x="465" 
d="M97 157l-63 69l152 133l-93 125l80 61l88 -124l145 126l63 -68l-152 -133l93 -126l-81 -60l-87 124z" />
    <glyph glyph-name="Oslash" unicode="&#xd8;" horiz-adv-x="568" 
d="M354 711q92 0 145 -61l44 56h84l-92 -115q24 -57 24 -135q0 -101 -37.5 -215t-100.5 -178q-74 -74 -170 -74q-92 0 -144 58l-44 -53h-85l93 111q-25 59 -25 139q0 101 37.5 215t100.5 178q74 74 170 74zM153 246q0 -17 2 -43l274 364q-27 47 -83 47q-45 0 -84 -39
q-51 -51 -80 -151t-29 -178zM259 86q45 0 84 39q51 52 80 151.5t29 177.5q0 14 -2 38l-272 -362q26 -44 81 -44z" />
    <glyph glyph-name="Ugrave" unicode="&#xd9;" horiz-adv-x="538" 
d="M327 739l-96 84l91 46l80 -130h-75zM233 -10q-88 0 -139 47.5t-51 132.5q0 38 11 91l95 439h108l-97 -444q-9 -41 -9 -77q0 -42 24 -66t67 -24q45 0 76 31q33 33 51 109l102 471h108l-104 -478q-26 -113 -83 -170q-61 -62 -159 -62z" />
    <glyph glyph-name="Uacute" unicode="&#xda;" horiz-adv-x="538" 
d="M318 739l119 130l91 -46l-124 -84h-86zM233 -10q-88 0 -139 47.5t-51 132.5q0 38 11 91l95 439h108l-97 -444q-9 -41 -9 -77q0 -42 24 -66t67 -24q45 0 76 31q33 33 51 109l102 471h108l-104 -478q-26 -113 -83 -170q-61 -62 -159 -62z" />
    <glyph glyph-name="Ucircumflex" unicode="&#xdb;" horiz-adv-x="538" 
d="M233 -10q-88 0 -139 47.5t-51 132.5q0 38 11 91l95 439h108l-97 -444q-9 -41 -9 -77q0 -42 24 -66t67 -24q45 0 76 31q33 33 51 109l102 471h108l-104 -478q-26 -113 -83 -170q-61 -62 -159 -62zM229 740l117 121h92l65 -121h-77l-45 53l-68 -53h-84z" />
    <glyph glyph-name="Udieresis" unicode="&#xdc;" horiz-adv-x="538" 
d="M236 742l22 101h103l-22 -101h-103zM398 742l21 101h103l-22 -101h-102zM233 -10q-88 0 -139 47.5t-51 132.5q0 38 11 91l95 439h108l-97 -444q-9 -41 -9 -77q0 -42 24 -66t67 -24q45 0 76 31q33 33 51 109l102 471h108l-104 -478q-26 -113 -83 -170q-61 -62 -159 -62z
" />
    <glyph glyph-name="Yacute" unicode="&#xdd;" horiz-adv-x="476" 
d="M124 0l61 282l-93 418h114l56 -297l188 297h121l-279 -423l-60 -277h-108zM283 739l119 130l91 -46l-124 -84h-86z" />
    <glyph glyph-name="Thorn" unicode="&#xde;" horiz-adv-x="484" 
d="M2 0l152 700h108l-23 -106h25q113 0 169 -56q50 -50 50 -138q0 -121 -77 -198q-79 -79 -214 -79h-55l-27 -123h-108zM158 220h44q79 0 125 46q47 47 47 127q0 49 -25 75q-29 27 -88 27h-43z" />
    <glyph glyph-name="germandbls" unicode="&#xdf;" horiz-adv-x="470" 
d="M163 -2l19 86q73 -1 107 37t34 95q0 82 -89 107l15 73q60 17 91.5 59.5t31.5 93.5q0 36 -18.5 57t-48.5 21q-70 0 -98 -121l-110 -506h-103l111 514q22 101 72 151q52 52 131 52q75 0 120 -45t45 -117q0 -66 -36.5 -117.5t-102.5 -76.5q91 -54 91 -149q0 -43 -15 -81.5
t-45 -70t-82 -48.5t-120 -14z" />
    <glyph glyph-name="agrave" unicode="&#xe0;" horiz-adv-x="426" 
d="M109 -9q-50 0 -79.5 35t-29.5 99q0 45 16 89t43 71q46 46 118 46q53 0 110 -26l3 17q7 35 7 51q0 34 -22.5 52t-63.5 18q-49 0 -95 -23l-16 91q68 27 132 27q80 0 124 -39t44 -109q0 -27 -12 -84l-65 -306h-103l13 63q-52 -72 -124 -72zM161 72q35 0 61.5 27.5t36.5 73.5
l13 62q-38 19 -77 19q-36 0 -60 -24q-33 -33 -33 -90q0 -68 59 -68zM229 582l-91 103l88 46l74 -149h-71z" />
    <glyph glyph-name="aacute" unicode="&#xe1;" horiz-adv-x="426" 
d="M109 -9q-50 0 -79.5 35t-29.5 99q0 45 16 89t43 71q46 46 118 46q53 0 110 -26l3 17q7 35 7 51q0 34 -22.5 52t-63.5 18q-49 0 -95 -23l-16 91q68 27 132 27q80 0 124 -39t44 -109q0 -27 -12 -84l-65 -306h-103l13 63q-52 -72 -124 -72zM161 72q35 0 61.5 27.5t36.5 73.5
l13 62q-38 19 -77 19q-36 0 -60 -24q-33 -33 -33 -90q0 -68 59 -68zM223 582l119 149l86 -46l-123 -103h-82z" />
    <glyph glyph-name="acircumflex" unicode="&#xe2;" horiz-adv-x="426" 
d="M109 -9q-50 0 -79.5 35t-29.5 99q0 45 16 89t43 71q46 46 118 46q53 0 110 -26l3 17q7 35 7 51q0 34 -22.5 52t-63.5 18q-49 0 -95 -23l-16 91q68 27 132 27q80 0 124 -39t44 -109q0 -27 -12 -84l-65 -306h-103l13 63q-52 -72 -124 -72zM161 72q35 0 61.5 27.5t36.5 73.5
l13 62q-38 19 -77 19q-36 0 -60 -24q-33 -33 -33 -90q0 -68 59 -68zM139 583l119 138h85l59 -138h-71l-43 66l-71 -66h-78z" />
    <glyph glyph-name="atilde" unicode="&#xe3;" horiz-adv-x="426" 
d="M109 -9q-50 0 -79.5 35t-29.5 99q0 45 16 89t43 71q46 46 118 46q53 0 110 -26l3 17q7 35 7 51q0 34 -22.5 52t-63.5 18q-49 0 -95 -23l-16 91q68 27 132 27q80 0 124 -39t44 -109q0 -27 -12 -84l-65 -306h-103l13 63q-52 -72 -124 -72zM161 72q35 0 61.5 27.5t36.5 73.5
l13 62q-38 19 -77 19q-36 0 -60 -24q-33 -33 -33 -90q0 -68 59 -68zM380 704l59 -16q-21 -55 -44 -80.5t-55 -25.5q-26 0 -61 22q-32 18 -43 18q-14 0 -24 -10t-22 -35l-59 17q22 57 44 81.5t54 24.5q24 0 62 -22q32 -18 43 -18q25 0 46 44z" />
    <glyph glyph-name="adieresis" unicode="&#xe4;" horiz-adv-x="426" 
d="M109 -9q-50 0 -79.5 35t-29.5 99q0 45 16 89t43 71q46 46 118 46q53 0 110 -26l3 17q7 35 7 51q0 34 -22.5 52t-63.5 18q-49 0 -95 -23l-16 91q68 27 132 27q80 0 124 -39t44 -109q0 -27 -12 -84l-65 -306h-103l13 63q-52 -72 -124 -72zM161 72q35 0 61.5 27.5t36.5 73.5
l13 62q-38 19 -77 19q-36 0 -60 -24q-33 -33 -33 -90q0 -68 59 -68zM147 586l22 102h100l-22 -102h-100zM299 586l23 102h100l-23 -102h-100z" />
    <glyph glyph-name="aring" unicode="&#xe5;" horiz-adv-x="426" 
d="M109 -9q-50 0 -79.5 35t-29.5 99q0 45 16 89t43 71q46 46 118 46q53 0 110 -26l3 17q7 35 7 51q0 34 -22.5 52t-63.5 18q-49 0 -95 -23l-16 91q68 27 132 27q80 0 124 -39t44 -109q0 -27 -12 -84l-65 -306h-103l13 63q-52 -72 -124 -72zM161 72q35 0 61.5 27.5t36.5 73.5
l13 62q-38 19 -77 19q-36 0 -60 -24q-33 -33 -33 -90q0 -68 59 -68zM387 685q0 -43 -29.5 -74.5t-74.5 -31.5q-38 0 -62.5 24t-24.5 60q0 43 29.5 74.5t74.5 31.5q38 0 62.5 -24.5t24.5 -59.5zM241 667q0 -20 12 -33.5t32 -13.5q25 0 40.5 18t15.5 43q0 20 -12 33.5
t-32 13.5q-24 0 -40 -18t-16 -43z" />
    <glyph glyph-name="ae" unicode="&#xe6;" horiz-adv-x="681" 
d="M451 -10q-115 0 -155 103q-73 -102 -168 -102q-60 0 -94 35.5t-34 98.5q0 46 16.5 89.5t42.5 70.5q46 46 118 46q53 0 110 -26l3 17q7 35 7 51q0 34 -22.5 52t-63.5 18q-49 0 -95 -23l-16 91q68 27 132 27q107 0 138 -79q68 82 145 82q66 0 105 -48.5t39 -133.5
q0 -60 -19 -136h-268q-1 -9 -1 -25q0 -56 24 -85.5t67 -29.5q47 0 100 39l31 -84q-72 -48 -142 -48zM164 72q61 0 116 82q-4 38 0 77q-41 23 -85 23q-36 0 -60 -24q-33 -33 -33 -90q0 -31 16.5 -49.5t45.5 -18.5zM450 426q-40 -40 -65 -126h171q8 28 8 63q0 41 -15.5 64.5
t-44.5 23.5t-54 -25z" />
    <glyph glyph-name="ccedilla" unicode="&#xe7;" horiz-adv-x="372" 
d="M117 -136l-84 37l88 101q-98 39 -98 190q0 76 27.5 157.5t78.5 132.5q58 58 133 58q82 0 135 -74l-66 -70q-33 47 -70 47q-32 0 -60 -28q-36 -36 -56 -100.5t-20 -119.5t20.5 -82t53.5 -27q32 0 72 32l41 -79q-53 -48 -120 -49z" />
    <glyph glyph-name="egrave" unicode="&#xe8;" horiz-adv-x="431" 
d="M390 223h-268q-1 -9 -1 -25q0 -56 24 -85.5t67 -29.5q49 0 100 39l31 -84q-71 -48 -145 -48q-82 0 -129.5 53.5t-47.5 152.5q0 81 29.5 158.5t79.5 127.5q57 59 131 59q69 0 108.5 -48.5t39.5 -133.5q0 -60 -19 -136zM200 426q-40 -40 -65 -126h171q8 28 8 63
q0 41 -15.5 64.5t-44.5 23.5t-54 -25zM239 582l-91 103l88 46l74 -149h-71z" />
    <glyph glyph-name="eacute" unicode="&#xe9;" horiz-adv-x="431" 
d="M390 223h-268q-1 -9 -1 -25q0 -56 24 -85.5t67 -29.5q49 0 100 39l31 -84q-71 -48 -145 -48q-82 0 -129.5 53.5t-47.5 152.5q0 81 29.5 158.5t79.5 127.5q57 59 131 59q69 0 108.5 -48.5t39.5 -133.5q0 -60 -19 -136zM200 426q-40 -40 -65 -126h171q8 28 8 63
q0 41 -15.5 64.5t-44.5 23.5t-54 -25zM233 582l119 149l86 -46l-123 -103h-82z" />
    <glyph glyph-name="ecircumflex" unicode="&#xea;" horiz-adv-x="431" 
d="M390 223h-268q-1 -9 -1 -25q0 -56 24 -85.5t67 -29.5q49 0 100 39l31 -84q-71 -48 -145 -48q-82 0 -129.5 53.5t-47.5 152.5q0 81 29.5 158.5t79.5 127.5q57 59 131 59q69 0 108.5 -48.5t39.5 -133.5q0 -60 -19 -136zM200 426q-40 -40 -65 -126h171q8 28 8 63
q0 41 -15.5 64.5t-44.5 23.5t-54 -25zM149 583l119 138h85l59 -138h-71l-43 66l-71 -66h-78z" />
    <glyph glyph-name="edieresis" unicode="&#xeb;" horiz-adv-x="431" 
d="M390 223h-268q-1 -9 -1 -25q0 -56 24 -85.5t67 -29.5q49 0 100 39l31 -84q-71 -48 -145 -48q-82 0 -129.5 53.5t-47.5 152.5q0 81 29.5 158.5t79.5 127.5q57 59 131 59q69 0 108.5 -48.5t39.5 -133.5q0 -60 -19 -136zM200 426q-40 -40 -65 -126h171q8 28 8 63
q0 41 -15.5 64.5t-44.5 23.5t-54 -25zM309 586l23 102h100l-23 -102h-100zM157 586l22 102h100l-22 -102h-100z" />
    <glyph glyph-name="igrave" unicode="&#xec;" horiz-adv-x="215" 
d="M-3 0l116 532h104l-115 -532h-105zM133 582l-91 103l88 46l74 -149h-71z" />
    <glyph glyph-name="iacute" unicode="&#xed;" horiz-adv-x="215" 
d="M129 582l119 149l86 -46l-123 -103h-82zM-3 0l116 532h104l-115 -532h-105z" />
    <glyph glyph-name="icircumflex" unicode="&#xee;" horiz-adv-x="215" 
d="M43 583l119 138h85l59 -138h-71l-43 66l-71 -66h-78zM-3 0l116 532h104l-115 -532h-105z" />
    <glyph glyph-name="idieresis" unicode="&#xef;" horiz-adv-x="215" 
d="M52 586l22 102h100l-22 -102h-100zM204 586l23 102h100l-23 -102h-100zM-3 0l116 532h104l-115 -532h-105z" />
    <glyph glyph-name="eth" unicode="&#xf0;" horiz-adv-x="458" 
d="M196 569l-18 61l78 24q-14 20 -44 60h118q14 -20 20 -31l82 26l19 -60l-69 -22q55 -112 55 -233q0 -106 -30.5 -199.5t-81.5 -144.5q-58 -60 -134 -60t-121.5 53t-45.5 146q0 76 25.5 159t74.5 132q53 52 116 52q58 0 96 -51q-12 55 -46 117zM197 82q32 0 59 27
q34 33 54 104t20 130q0 51 -19 78t-53 27q-33 0 -58 -27q-34 -33 -54.5 -104.5t-20.5 -129.5q0 -51 19 -78t53 -27z" />
    <glyph glyph-name="ntilde" unicode="&#xf1;" horiz-adv-x="456" 
d="M-6 0l115 532h104l-15 -68q60 77 127 77q52 0 82 -32t30 -86q0 -28 -10 -75l-75 -348h-104l72 332q7 35 7 56q0 28 -15 44t-42 16q-34 0 -61 -28.5t-36 -72.5l-75 -347h-104zM398 704l59 -16q-21 -55 -44 -80.5t-55 -25.5q-26 0 -61 22q-32 18 -43 18q-14 0 -24 -10
t-22 -35l-59 17q22 57 44 81.5t54 24.5q24 0 62 -22q32 -18 43 -18q25 0 46 44z" />
    <glyph glyph-name="ograve" unicode="&#xf2;" horiz-adv-x="456" 
d="M261 541q80 0 125.5 -55t45.5 -150q0 -79 -26.5 -159.5t-74.5 -128.5q-58 -58 -137 -58q-80 0 -125 55t-45 149q0 79 26.5 159.5t74.5 128.5q59 59 136 59zM197 82q31 0 61 28q32 33 52.5 99t20.5 125q0 114 -73 114q-32 0 -60 -28q-33 -33 -53 -99t-20 -125
q0 -56 19 -85t53 -29zM251 582l-91 103l88 46l74 -149h-71z" />
    <glyph glyph-name="oacute" unicode="&#xf3;" horiz-adv-x="456" 
d="M246 582l119 149l86 -46l-123 -103h-82zM261 541q80 0 125.5 -55t45.5 -150q0 -79 -26.5 -159.5t-74.5 -128.5q-58 -58 -137 -58q-80 0 -125 55t-45 149q0 79 26.5 159.5t74.5 128.5q59 59 136 59zM197 82q31 0 61 28q32 33 52.5 99t20.5 125q0 114 -73 114
q-32 0 -60 -28q-33 -33 -53 -99t-20 -125q0 -56 19 -85t53 -29z" />
    <glyph glyph-name="ocircumflex" unicode="&#xf4;" horiz-adv-x="456" 
d="M162 583l119 138h85l59 -138h-71l-43 66l-71 -66h-78zM261 541q80 0 125.5 -55t45.5 -150q0 -79 -26.5 -159.5t-74.5 -128.5q-58 -58 -137 -58q-80 0 -125 55t-45 149q0 79 26.5 159.5t74.5 128.5q59 59 136 59zM197 82q31 0 61 28q32 33 52.5 99t20.5 125q0 114 -73 114
q-32 0 -60 -28q-33 -33 -53 -99t-20 -125q0 -56 19 -85t53 -29z" />
    <glyph glyph-name="otilde" unicode="&#xf5;" horiz-adv-x="456" 
d="M261 541q80 0 125.5 -55t45.5 -150q0 -79 -26.5 -159.5t-74.5 -128.5q-58 -58 -137 -58q-80 0 -125 55t-45 149q0 79 26.5 159.5t74.5 128.5q59 59 136 59zM197 82q31 0 61 28q32 33 52.5 99t20.5 125q0 114 -73 114q-32 0 -60 -28q-33 -33 -53 -99t-20 -125
q0 -56 19 -85t53 -29zM402 704l59 -16q-21 -55 -44 -80.5t-55 -25.5q-26 0 -61 22q-32 18 -43 18q-14 0 -24 -10t-22 -35l-59 17q22 57 44 81.5t54 24.5q24 0 62 -22q32 -18 43 -18q25 0 46 44z" />
    <glyph glyph-name="odieresis" unicode="&#xf6;" horiz-adv-x="456" 
d="M169 586l22 102h100l-22 -102h-100zM321 586l23 102h100l-23 -102h-100zM261 541q80 0 125.5 -55t45.5 -150q0 -79 -26.5 -159.5t-74.5 -128.5q-58 -58 -137 -58q-80 0 -125 55t-45 149q0 79 26.5 159.5t74.5 128.5q59 59 136 59zM197 82q31 0 61 28q32 33 52.5 99
t20.5 125q0 114 -73 114q-32 0 -60 -28q-33 -33 -53 -99t-20 -125q0 -56 19 -85t53 -29z" />
    <glyph glyph-name="divide" unicode="&#xf7;" horiz-adv-x="465" 
d="M147 123l24 111h110l-24 -111h-110zM50 305l20 95h383l-20 -95h-383zM222 470l24 111h110l-25 -111h-109z" />
    <glyph glyph-name="oslash" unicode="&#xf8;" horiz-adv-x="456" 
d="M261 541q74 0 120 -49l37 45h78l-83 -96q19 -46 19 -105q0 -79 -26.5 -159.5t-74.5 -128.5q-58 -58 -137 -58q-74 0 -118 47l-38 -46h-78l83 97q-19 48 -19 106q0 79 26.5 159.5t74.5 128.5q59 59 136 59zM258 452q-32 0 -62 -30q-33 -33 -53.5 -99.5t-20.5 -126.5
q0 -14 1 -20l193 243q-20 33 -58 33zM334 334q0 12 -1 18l-193 -242q19 -31 57 -31q34 0 63 29q33 33 53.5 99.5t20.5 126.5z" />
    <glyph glyph-name="ugrave" unicode="&#xf9;" horiz-adv-x="456" 
d="M132 -10q-52 0 -82 32t-30 87q0 27 10 74l75 349h104l-72 -333q-8 -38 -8 -56q0 -28 15.5 -43.5t42.5 -15.5q34 0 60.5 28.5t36.5 72.5l75 347h104l-115 -532h-104l14 68q-58 -78 -126 -78zM249 582l-91 103l88 46l74 -149h-71z" />
    <glyph glyph-name="uacute" unicode="&#xfa;" horiz-adv-x="456" 
d="M244 582l119 149l86 -46l-123 -103h-82zM132 -10q-52 0 -82 32t-30 87q0 27 10 74l75 349h104l-72 -333q-8 -38 -8 -56q0 -28 15.5 -43.5t42.5 -15.5q34 0 60.5 28.5t36.5 72.5l75 347h104l-115 -532h-104l14 68q-58 -78 -126 -78z" />
    <glyph glyph-name="ucircumflex" unicode="&#xfb;" horiz-adv-x="456" 
d="M160 583l119 138h85l59 -138h-71l-43 66l-71 -66h-78zM132 -10q-52 0 -82 32t-30 87q0 27 10 74l75 349h104l-72 -333q-8 -38 -8 -56q0 -28 15.5 -43.5t42.5 -15.5q34 0 60.5 28.5t36.5 72.5l75 347h104l-115 -532h-104l14 68q-58 -78 -126 -78z" />
    <glyph glyph-name="udieresis" unicode="&#xfc;" horiz-adv-x="456" 
d="M167 586l22 102h100l-22 -102h-100zM319 586l23 102h100l-23 -102h-100zM132 -10q-52 0 -82 32t-30 87q0 27 10 74l75 349h104l-72 -333q-8 -38 -8 -56q0 -28 15.5 -43.5t42.5 -15.5q34 0 60.5 28.5t36.5 72.5l75 347h104l-115 -532h-104l14 68q-58 -78 -126 -78z" />
    <glyph glyph-name="yacute" unicode="&#xfd;" horiz-adv-x="433" 
d="M109 1l-35 531h105l13 -370l169 370h108l-258 -534q-38 -79 -74 -110.5t-87 -31.5q-50 0 -86 26l32 83q26 -18 51 -18q35 0 62 54zM227 582l119 149l86 -46l-123 -103h-82z" />
    <glyph glyph-name="thorn" unicode="&#xfe;" horiz-adv-x="475" 
d="M253 714l-56 -255q63 82 130 82q58 0 91 -49t33 -136q0 -90 -30 -179.5t-80 -139.5q-47 -47 -107 -47q-83 0 -118 94l-49 -224h-104l186 854h104zM215 85q32 0 56 26q33 32 54 102t21 128q0 51 -17.5 78.5t-48.5 27.5q-32 0 -60 -28q-32 -32 -53 -102t-21 -126
q0 -51 19 -78.5t50 -27.5z" />
    <glyph glyph-name="ydieresis" unicode="&#xff;" horiz-adv-x="433" 
d="M109 1l-35 531h105l13 -370l169 370h108l-258 -534q-38 -79 -74 -110.5t-87 -31.5q-50 0 -86 26l32 83q26 -18 51 -18q35 0 62 54zM151 586l22 102h100l-22 -102h-100zM303 586l23 102h100l-23 -102h-100z" />
    <glyph glyph-name="Amacron" unicode="&#x100;" horiz-adv-x="533" 
d="M-43 0l352 703h110l49 -703h-109l-9 161h-205l-78 -161h-110zM189 257h157l-16 288zM240 760l16 76h275l-16 -76h-275z" />
    <glyph glyph-name="amacron" unicode="&#x101;" horiz-adv-x="426" 
d="M109 -9q-50 0 -79.5 35t-29.5 99q0 45 16 89t43 71q46 46 118 46q53 0 110 -26l3 17q7 35 7 51q0 34 -22.5 52t-63.5 18q-49 0 -95 -23l-16 91q68 27 132 27q80 0 124 -39t44 -109q0 -27 -12 -84l-65 -306h-103l13 63q-52 -72 -124 -72zM161 72q35 0 61.5 27.5t36.5 73.5
l13 62q-38 19 -77 19q-36 0 -60 -24q-33 -33 -33 -90q0 -68 59 -68zM145 590l15 73h259l-15 -73h-259z" />
    <glyph glyph-name="Abreve" unicode="&#x102;" horiz-adv-x="533" 
d="M-43 0l352 703h110l49 -703h-109l-9 161h-205l-78 -161h-110zM189 257h157l-16 288zM380 750q-57 0 -88.5 29.5t-22.5 83.5h66q3 -43 56 -43q51 0 70 43h72q-15 -55 -56 -84t-97 -29z" />
    <glyph glyph-name="abreve" unicode="&#x103;" horiz-adv-x="426" 
d="M109 -9q-50 0 -79.5 35t-29.5 99q0 45 16 89t43 71q46 46 118 46q53 0 110 -26l3 17q7 35 7 51q0 34 -22.5 52t-63.5 18q-49 0 -95 -23l-16 91q68 27 132 27q80 0 124 -39t44 -109q0 -27 -12 -84l-65 -306h-103l13 63q-52 -72 -124 -72zM161 72q35 0 61.5 27.5t36.5 73.5
l13 62q-38 19 -77 19q-36 0 -60 -24q-33 -33 -33 -90q0 -68 59 -68zM277 579q-57 0 -87.5 32.5t-26.5 90.5h67q0 -25 13.5 -39t39.5 -14q50 0 73 53h70q-16 -59 -55.5 -91t-93.5 -32z" />
    <glyph glyph-name="Aogonek" unicode="&#x104;" horiz-adv-x="533" 
d="M455 -89l-13 -58q-18 -3 -33 -3q-42 1 -65 17.5t-23 44.5q0 40 58 88h-20l-9 161h-205l-78 -161h-110l352 703h110l49 -703h-17q-44 -42 -44 -64q0 -27 48 -25zM189 257h157l-16 288z" />
    <glyph glyph-name="aogonek" unicode="&#x105;" horiz-adv-x="426" 
d="M313 -89l-13 -58q-18 -3 -33 -3q-42 1 -65 17.5t-23 44.5q0 40 58 88h-17l13 63q-52 -72 -124 -72q-50 0 -79.5 35t-29.5 99q0 45 16 89t43 71q46 46 118 46q53 0 110 -26l3 17q7 35 7 51q0 34 -22.5 52t-63.5 18q-49 0 -95 -23l-16 91q68 27 132 27q80 0 124 -39
t44 -109q0 -27 -12 -84l-65 -306h-14q-44 -42 -44 -64q0 -27 48 -25zM161 72q35 0 61.5 27.5t36.5 73.5l13 62q-38 19 -77 19q-36 0 -60 -24q-33 -33 -33 -90q0 -68 59 -68z" />
    <glyph glyph-name="Cacute" unicode="&#x106;" horiz-adv-x="477" 
d="M261 -8q-99 0 -155 69t-56 198q0 102 34.5 206t98.5 168q75 75 166 75q109 0 175 -91l-75 -75q-46 64 -98 64q-47 0 -88 -41q-46 -46 -74.5 -134.5t-28.5 -168.5q0 -83 29 -125.5t78 -42.5t108 50l46 -89q-75 -63 -160 -63zM323 752l119 130l91 -46l-124 -84h-86z" />
    <glyph glyph-name="cacute" unicode="&#x107;" horiz-adv-x="372" 
d="M227 582l119 149l86 -46l-123 -103h-82zM189 -10q-76 0 -121 51t-45 151q0 76 27.5 157.5t78.5 132.5q58 58 133 58q82 0 135 -74l-66 -70q-33 47 -70 47q-32 0 -60 -28q-36 -36 -56 -100.5t-20 -119.5t20.5 -82t53.5 -27q32 0 72 32l41 -79q-55 -49 -123 -49z" />
    <glyph glyph-name="Cdotaccent" unicode="&#x10a;" horiz-adv-x="477" 
d="M321 755l22 101h104l-21 -101h-105zM261 -8q-99 0 -155 69t-56 198q0 102 34.5 206t98.5 168q75 75 166 75q109 0 175 -91l-75 -75q-46 64 -98 64q-47 0 -88 -41q-46 -46 -74.5 -134.5t-28.5 -168.5q0 -83 29 -125.5t78 -42.5t108 50l46 -89q-75 -63 -160 -63z" />
    <glyph glyph-name="cdotaccent" unicode="&#x10b;" horiz-adv-x="372" 
d="M189 -10q-76 0 -121 51t-45 151q0 76 27.5 157.5t78.5 132.5q58 58 133 58q82 0 135 -74l-66 -70q-33 47 -70 47q-32 0 -60 -28q-36 -36 -56 -100.5t-20 -119.5t20.5 -82t53.5 -27q32 0 72 32l41 -79q-55 -49 -123 -49zM224 585l22 104h103l-23 -104h-102z" />
    <glyph glyph-name="Ccaron" unicode="&#x10c;" horiz-adv-x="477" 
d="M261 -8q-99 0 -155 69t-56 198q0 102 34.5 206t98.5 168q75 75 166 75q109 0 175 -91l-75 -75q-46 64 -98 64q-47 0 -88 -41q-46 -46 -74.5 -134.5t-28.5 -168.5q0 -83 29 -125.5t78 -42.5t108 50l46 -89q-75 -63 -160 -63zM537 874l-117 -121h-92l-65 121h78l44 -53
l68 53h84z" />
    <glyph glyph-name="ccaron" unicode="&#x10d;" horiz-adv-x="372" 
d="M232 583l-59 138h72l43 -66l71 66h78l-118 -138h-87zM189 -10q-76 0 -121 51t-45 151q0 76 27.5 157.5t78.5 132.5q58 58 133 58q82 0 135 -74l-66 -70q-33 47 -70 47q-32 0 -60 -28q-36 -36 -56 -100.5t-20 -119.5t20.5 -82t53.5 -27q32 0 72 32l41 -79
q-55 -49 -123 -49z" />
    <glyph glyph-name="Dcaron" unicode="&#x10e;" horiz-adv-x="545" 
d="M2 0l152 700h122q125 0 191 -66q65 -67 65 -194q0 -93 -32 -189t-93 -157q-94 -94 -248 -94h-157zM383 564q-38 38 -104 38h-38l-109 -504h48q88 0 149 63q44 44 69.5 122.5t25.5 150.5q0 89 -41 130zM514 866l-117 -121h-92l-65 121h78l44 -53l68 53h84z" />
    <glyph glyph-name="dcaron" unicode="&#x10f;" horiz-adv-x="474" 
d="M529 569l43 162h80v-2l-77 -160h-46zM262 0l16 72q-64 -82 -130 -82q-58 0 -91 49.5t-33 136.5q0 89 30 179t80 140q46 46 107 46q85 0 118 -93l58 266h104l-155 -714h-104zM196 85q33 0 59 28q32 32 53 102t21 126q0 51 -19 78.5t-50 27.5q-30 0 -56 -26
q-33 -33 -54 -102.5t-21 -127.5q0 -51 17.5 -78.5t49.5 -27.5z" />
    <glyph glyph-name="Dcroat" unicode="&#x110;" horiz-adv-x="560" 
d="M29 304l21 96h55l65 300h121q125 0 191 -66t66 -194q0 -93 -32 -189t-93 -157q-94 -94 -248 -94h-157l66 304h-55zM398 564q-36 38 -103 38h-39l-44 -202h104l-21 -96h-104l-44 -206h48q87 0 150 63q43 44 68.5 122.5t25.5 150.5q0 89 -41 130z" />
    <glyph glyph-name="dcroat" unicode="&#x111;" horiz-adv-x="475" 
d="M278 590l16 69h111l12 55h104l-12 -55h49l-16 -69h-48l-128 -590h-104l16 72q-64 -82 -130 -82q-58 0 -91 49.5t-33 136.5q0 89 30 179t80 140q46 46 107 46q85 0 118 -93l31 142h-112zM196 85q33 0 59 28q32 32 53 102t21 126q0 51 -19 78.5t-50 27.5q-30 0 -56 -26
q-33 -33 -54 -102.5t-21 -127.5q0 -51 17.5 -78.5t49.5 -27.5z" />
    <glyph glyph-name="Emacron" unicode="&#x112;" horiz-adv-x="449" 
d="M200 752l16 76h275l-16 -76h-275zM2 0l152 700h352l-22 -100h-243l-43 -198h216l-21 -99h-217l-44 -203h249l-23 -100h-356z" />
    <glyph glyph-name="emacron" unicode="&#x113;" horiz-adv-x="431" 
d="M390 223h-268q-1 -9 -1 -25q0 -56 24 -85.5t67 -29.5q49 0 100 39l31 -84q-71 -48 -145 -48q-82 0 -129.5 53.5t-47.5 152.5q0 81 29.5 158.5t79.5 127.5q57 59 131 59q69 0 108.5 -48.5t39.5 -133.5q0 -60 -19 -136zM200 426q-40 -40 -65 -126h171q8 28 8 63
q0 41 -15.5 64.5t-44.5 23.5t-54 -25zM155 590l15 73h259l-15 -73h-259z" />
    <glyph glyph-name="Ebreve" unicode="&#x114;" horiz-adv-x="449" 
d="M340 742q-57 0 -88.5 29.5t-22.5 83.5h66q3 -43 56 -43q51 0 70 43h72q-15 -55 -56 -84t-97 -29zM2 0l152 700h352l-22 -100h-243l-43 -198h216l-21 -99h-217l-44 -203h249l-23 -100h-356z" />
    <glyph glyph-name="ebreve" unicode="&#x115;" horiz-adv-x="431" 
d="M390 223h-268q-1 -9 -1 -25q0 -56 24 -85.5t67 -29.5q49 0 100 39l31 -84q-71 -48 -145 -48q-82 0 -129.5 53.5t-47.5 152.5q0 81 29.5 158.5t79.5 127.5q57 59 131 59q69 0 108.5 -48.5t39.5 -133.5q0 -60 -19 -136zM200 426q-40 -40 -65 -126h171q8 28 8 63
q0 41 -15.5 64.5t-44.5 23.5t-54 -25zM287 579q-57 0 -87.5 32.5t-26.5 90.5h67q0 -25 13.5 -39t39.5 -14q50 0 73 53h70q-16 -59 -55.5 -91t-93.5 -32z" />
    <glyph glyph-name="Edotaccent" unicode="&#x116;" horiz-adv-x="449" 
d="M284 747l22 101h104l-21 -101h-105zM2 0l152 700h352l-22 -100h-243l-43 -198h216l-21 -99h-217l-44 -203h249l-23 -100h-356z" />
    <glyph glyph-name="edotaccent" unicode="&#x117;" horiz-adv-x="431" 
d="M390 223h-268q-1 -9 -1 -25q0 -56 24 -85.5t67 -29.5q49 0 100 39l31 -84q-71 -48 -145 -48q-82 0 -129.5 53.5t-47.5 152.5q0 81 29.5 158.5t79.5 127.5q57 59 131 59q69 0 108.5 -48.5t39.5 -133.5q0 -60 -19 -136zM200 426q-40 -40 -65 -126h171q8 28 8 63
q0 41 -15.5 64.5t-44.5 23.5t-54 -25zM231 585l22 104h103l-23 -104h-102z" />
    <glyph glyph-name="Eogonek" unicode="&#x118;" horiz-adv-x="449" 
d="M2 0l152 700h352l-22 -100h-243l-43 -198h216l-21 -99h-217l-44 -203h249l-23 -100h-19q-44 -42 -44 -64q0 -27 48 -25l-13 -58q-18 -3 -33 -3q-42 1 -65 17.5t-23 44.5q0 40 58 88h-265z" />
    <glyph glyph-name="eogonek" unicode="&#x119;" horiz-adv-x="431" 
d="M312 122l31 -84q-48 -34 -69 -55q-27 -27 -27 -47q0 -27 47 -25l-12 -58q-18 -3 -33 -3q-88 2 -88 62q0 37 45 78h-8q-82 0 -129.5 53.5t-47.5 152.5q0 81 29.5 158.5t79.5 127.5q57 59 131 59q69 0 108.5 -48.5t39.5 -133.5q0 -60 -19 -136h-268q-1 -9 -1 -25
q0 -56 24 -85.5t67 -29.5q49 0 100 39zM200 426q-40 -40 -65 -126h171q8 28 8 63q0 41 -15.5 64.5t-44.5 23.5t-54 -25z" />
    <glyph glyph-name="Ecaron" unicode="&#x11a;" horiz-adv-x="449" 
d="M500 866l-117 -121h-92l-65 121h78l44 -53l68 53h84zM2 0l152 700h352l-22 -100h-243l-43 -198h216l-21 -99h-217l-44 -203h249l-23 -100h-356z" />
    <glyph glyph-name="ecaron" unicode="&#x11b;" horiz-adv-x="431" 
d="M390 223h-268q-1 -9 -1 -25q0 -56 24 -85.5t67 -29.5q49 0 100 39l31 -84q-71 -48 -145 -48q-82 0 -129.5 53.5t-47.5 152.5q0 81 29.5 158.5t79.5 127.5q57 59 131 59q69 0 108.5 -48.5t39.5 -133.5q0 -60 -19 -136zM200 426q-40 -40 -65 -126h171q8 28 8 63
q0 41 -15.5 64.5t-44.5 23.5t-54 -25zM240 583l-59 138h72l43 -66l71 66h78l-118 -138h-87z" />
    <glyph glyph-name="Gbreve" unicode="&#x11e;" horiz-adv-x="540" 
d="M399 750q-57 0 -88.5 29.5t-22.5 83.5h66q3 -43 56 -43q51 0 70 43h72q-15 -55 -56 -84t-97 -29zM279 -8q-105 0 -167.5 73.5t-62.5 200.5q0 94 34.5 193t101.5 166q85 83 193 83q111 0 182 -80l-75 -80q-44 57 -111 57q-61 0 -111 -50q-51 -51 -77.5 -132t-26.5 -157
q0 -84 35 -130t97 -46q37 0 62 15l40 187h-111l21 95h212l-76 -353q-82 -42 -160 -42z" />
    <glyph glyph-name="gbreve" unicode="&#x11f;" horiz-adv-x="472" 
d="M151 -142q-101 0 -180 44l39 85q68 -39 140 -39q54 0 85 32q26 25 38 81l12 55q-61 -82 -129 -82q-59 0 -92 46.5t-33 132.5q0 73 27 154t72 126q48 48 108 48q84 0 119 -92l18 83h104l-104 -480q-21 -92 -66 -137q-57 -57 -158 -57zM200 128q34 0 62 28q26 26 45 81.5
t19 110.5q0 48 -18 73.5t-49 25.5q-30 0 -58 -28t-46.5 -85.5t-18.5 -109.5q0 -96 64 -96zM309 579q-57 0 -87.5 32.5t-26.5 90.5h67q0 -25 13.5 -39t39.5 -14q50 0 73 53h70q-16 -59 -55.5 -91t-93.5 -32z" />
    <glyph glyph-name="Gdotaccent" unicode="&#x120;" horiz-adv-x="540" 
d="M343 755l22 101h104l-21 -101h-105zM279 -8q-105 0 -167.5 73.5t-62.5 200.5q0 94 34.5 193t101.5 166q85 83 193 83q111 0 182 -80l-75 -80q-44 57 -111 57q-61 0 -111 -50q-51 -51 -77.5 -132t-26.5 -157q0 -84 35 -130t97 -46q37 0 62 15l40 187h-111l21 95h212
l-76 -353q-82 -42 -160 -42z" />
    <glyph glyph-name="gdotaccent" unicode="&#x121;" horiz-adv-x="472" 
d="M151 -142q-101 0 -180 44l39 85q68 -39 140 -39q54 0 85 32q26 25 38 81l12 55q-61 -82 -129 -82q-59 0 -92 46.5t-33 132.5q0 73 27 154t72 126q48 48 108 48q84 0 119 -92l18 83h104l-104 -480q-21 -92 -66 -137q-57 -57 -158 -57zM200 128q34 0 62 28q26 26 45 81.5
t19 110.5q0 48 -18 73.5t-49 25.5q-30 0 -58 -28t-46.5 -85.5t-18.5 -109.5q0 -96 64 -96zM253 585l22 104h103l-23 -104h-102z" />
    <glyph glyph-name="Gcommaaccent" unicode="&#x122;" horiz-adv-x="540" 
d="M144 -233l-1 36q32 5 47.5 18t19.5 39h-45l19 88h99l-17 -79q-12 -50 -41.5 -73.5t-80.5 -28.5zM279 -8q-105 0 -167.5 73.5t-62.5 200.5q0 94 34.5 193t101.5 166q85 83 193 83q111 0 182 -80l-75 -80q-44 57 -111 57q-61 0 -111 -50q-51 -51 -77.5 -132t-26.5 -157
q0 -84 35 -130t97 -46q37 0 62 15l40 187h-111l21 95h212l-76 -353q-82 -42 -160 -42z" />
    <glyph glyph-name="gcommaaccent" unicode="&#x123;" horiz-adv-x="472" 
d="M391 768l1 -36q-32 -5 -47.5 -18t-19.5 -39h45l-19 -88h-99l17 79q12 50 41.5 73.5t80.5 28.5zM151 -142q-101 0 -180 44l39 85q68 -39 140 -39q54 0 85 32q26 25 38 81l12 55q-61 -82 -129 -82q-59 0 -92 46.5t-33 132.5q0 73 27 154t72 126q48 48 108 48q84 0 119 -92
l18 83h104l-104 -480q-21 -92 -66 -137q-57 -57 -158 -57zM200 128q34 0 62 28q26 26 45 81.5t19 110.5q0 48 -18 73.5t-49 25.5q-30 0 -58 -28t-46.5 -85.5t-18.5 -109.5q0 -96 64 -96z" />
    <glyph glyph-name="Hbar" unicode="&#x126;" horiz-adv-x="552" 
d="M68 522l19 86h52l20 92h108l-21 -94h207l21 94h108l-20 -92h52l-19 -86h-52l-113 -522h-108l66 301h-207l-66 -301h-108l113 522h-52zM202 402h208l26 122h-208z" />
    <glyph glyph-name="hbar" unicode="&#x127;" horiz-adv-x="457" 
d="M74 590l15 69h48l12 55h104l-12 -55h113l-15 -69h-114l-27 -126q60 77 127 77q52 0 82 -32t30 -86q0 -28 -10 -75l-75 -348h-104l72 332q7 35 7 56q0 28 -15 44t-42 16q-34 0 -61 -28.5t-36 -72.5l-75 -347h-104l128 590h-48z" />
    <glyph glyph-name="Imacron" unicode="&#x12a;" horiz-adv-x="236" 
d="M7 0l152 700h107l-152 -700h-107zM87 752l16 76h275l-16 -76h-275z" />
    <glyph glyph-name="imacron" unicode="&#x12b;" horiz-adv-x="215" 
d="M-3 0l116 532h104l-115 -532h-105zM49 590l15 73h259l-15 -73h-259z" />
    <glyph glyph-name="Ibreve" unicode="&#x12c;" horiz-adv-x="236" 
d="M7 0l152 700h107l-152 -700h-107zM227 742q-57 0 -88.5 29.5t-22.5 83.5h66q3 -43 56 -43q51 0 70 43h72q-15 -55 -56 -84t-97 -29z" />
    <glyph glyph-name="ibreve" unicode="&#x12d;" horiz-adv-x="215" 
d="M-3 0l116 532h104l-115 -532h-105zM182 579q-57 0 -87.5 32.5t-26.5 90.5h67q0 -25 13.5 -39t39.5 -14q50 0 73 53h70q-16 -59 -55.5 -91t-93.5 -32z" />
    <glyph glyph-name="Iogonek" unicode="&#x12e;" horiz-adv-x="236" 
d="M7 0l152 700h107l-152 -700h-13q-44 -42 -44 -64q0 -27 48 -25l-13 -58q-18 -3 -33 -3q-42 1 -65 17.5t-23 44.5q0 39 58 88h-22z" />
    <glyph glyph-name="iogonek" unicode="&#x12f;" horiz-adv-x="215" 
d="M-3 0l116 532h104l-115 -532h-12q-44 -42 -44 -64q0 -27 48 -25l-13 -58q-18 -3 -33 -3q-42 1 -65 17.5t-23 44.5q0 39 58 88h-21zM127 605l23 107h109l-24 -107h-108z" />
    <glyph glyph-name="Idotaccent" unicode="&#x130;" horiz-adv-x="236" 
d="M7 0l152 700h107l-152 -700h-107zM172 747l22 101h104l-21 -101h-105z" />
    <glyph glyph-name="dotlessi" unicode="&#x131;" horiz-adv-x="215" 
d="M-3 0l116 532h104l-115 -532h-105z" />
    <glyph glyph-name="Kcommaaccent" unicode="&#x136;" horiz-adv-x="513" 
d="M119 -230l-1 36q32 5 47.5 18t19.5 39h-45l19 88h99l-17 -79q-12 -50 -41.5 -73.5t-80.5 -28.5zM2 0l152 700h108l-73 -337l272 337h129l-251 -308l106 -392h-116l-80 305l-98 -113l-41 -192h-108z" />
    <glyph glyph-name="kcommaaccent" unicode="&#x137;" horiz-adv-x="424" 
d="M59 -233l-1 36q32 5 47.5 18t19.5 39h-45l19 88h99l-17 -79q-12 -50 -41.5 -73.5t-80.5 -28.5zM-6 0l155 714h104l-88 -404l183 222h124l-186 -219l70 -313h-111l-49 231l-65 -77l-33 -154h-104z" />
    <glyph glyph-name="Lacute" unicode="&#x139;" horiz-adv-x="411" 
d="M181 744l119 130l91 -46l-124 -84h-86zM2 0l152 700h108l-130 -600h223l-22 -100h-331z" />
    <glyph glyph-name="lacute" unicode="&#x13a;" horiz-adv-x="215" 
d="M170 753l119 130l91 -46l-124 -84h-86zM-3 0l156 714h104l-155 -714h-105z" />
    <glyph glyph-name="Lcommaaccent" unicode="&#x13b;" horiz-adv-x="411" 
d="M64 -233l-1 36q32 5 47.5 18t19.5 39h-45l19 88h99l-17 -79q-12 -50 -41.5 -73.5t-80.5 -28.5zM2 0l152 700h108l-130 -600h223l-22 -100h-331z" />
    <glyph glyph-name="lcommaaccent" unicode="&#x13c;" horiz-adv-x="215" 
d="M-49 -233l-1 36q32 5 47.5 18t19.5 39h-45l19 88h99l-17 -79q-12 -50 -41.5 -73.5t-80.5 -28.5zM-3 0l156 714h104l-155 -714h-105z" />
    <glyph glyph-name="Lcaron" unicode="&#x13d;" horiz-adv-x="411" 
d="M269 555l43 162h80v-2l-77 -160h-46zM2 0l152 700h108l-130 -600h223l-22 -100h-331z" />
    <glyph glyph-name="lcaron" unicode="&#x13e;" horiz-adv-x="215" 
d="M264 569l43 162h80v-2l-77 -160h-46zM-3 0l156 714h104l-155 -714h-105z" />
    <glyph glyph-name="Ldot" unicode="&#x13f;" horiz-adv-x="413" 
d="M286 315l23 104h98l-23 -104h-98zM2 0l152 700h108l-130 -600h223l-22 -100h-331z" />
    <glyph glyph-name="ldot" unicode="&#x140;" horiz-adv-x="292" 
d="M220 312l23 103h86l-22 -103h-87zM-3 0l156 714h104l-155 -714h-105z" />
    <glyph glyph-name="Lslash" unicode="&#x141;" horiz-adv-x="429" 
d="M22 261l23 104l57 19l69 316h108l-61 -278l138 45l-23 -102l-137 -46l-47 -219h223l-22 -100h-331l61 280z" />
    <glyph glyph-name="lslash" unicode="&#x142;" horiz-adv-x="252" 
d="M16 265l22 102l63 25l71 322h104l-60 -276l66 26l-23 -101l-65 -26l-73 -337h-105l63 290z" />
    <glyph glyph-name="Nacute" unicode="&#x143;" horiz-adv-x="556" 
d="M331 739l119 130l91 -46l-124 -84h-86zM2 0l152 700h98l136 -463l100 463h105l-152 -700h-92l-139 474l-103 -474h-105z" />
    <glyph glyph-name="nacute" unicode="&#x144;" horiz-adv-x="456" 
d="M241 582l119 149l86 -46l-123 -103h-82zM-6 0l115 532h104l-15 -68q60 77 127 77q52 0 82 -32t30 -86q0 -28 -10 -75l-75 -348h-104l72 332q7 35 7 56q0 28 -15 44t-42 16q-34 0 -61 -28.5t-36 -72.5l-75 -347h-104z" />
    <glyph glyph-name="Ncommaaccent" unicode="&#x145;" horiz-adv-x="556" 
d="M122 -230l-1 36q32 5 47.5 18t19.5 39h-45l19 88h99l-17 -79q-12 -50 -41.5 -73.5t-80.5 -28.5zM2 0l152 700h98l136 -463l100 463h105l-152 -700h-92l-139 474l-103 -474h-105z" />
    <glyph glyph-name="ncommaaccent" unicode="&#x146;" horiz-adv-x="456" 
d="M64 -233l-1 36q32 5 47.5 18t19.5 39h-45l19 88h99l-17 -79q-12 -50 -41.5 -73.5t-80.5 -28.5zM-6 0l115 532h104l-15 -68q60 77 127 77q52 0 82 -32t30 -86q0 -28 -10 -75l-75 -348h-104l72 332q7 35 7 56q0 28 -15 44t-42 16q-34 0 -61 -28.5t-36 -72.5l-75 -347h-104z
" />
    <glyph glyph-name="Ncaron" unicode="&#x147;" horiz-adv-x="556" 
d="M544 861l-117 -121h-92l-65 121h78l44 -53l68 53h84zM2 0l152 700h98l136 -463l100 463h105l-152 -700h-92l-139 474l-103 -474h-105z" />
    <glyph glyph-name="ncaron" unicode="&#x148;" horiz-adv-x="456" 
d="M247 583l-59 138h72l43 -66l71 66h78l-118 -138h-87zM-6 0l115 532h104l-15 -68q60 77 127 77q52 0 82 -32t30 -86q0 -28 -10 -75l-75 -348h-104l72 332q7 35 7 56q0 28 -15 44t-42 16q-34 0 -61 -28.5t-36 -72.5l-75 -347h-104z" />
    <glyph glyph-name="Omacron" unicode="&#x14c;" horiz-adv-x="568" 
d="M248 760l16 76h275l-16 -76h-275zM354 711q102 0 153.5 -70t51.5 -185q0 -101 -37.5 -215t-100.5 -178q-74 -74 -170 -74q-102 0 -153.5 70t-51.5 185q0 101 37.5 215t100.5 178q74 74 170 74zM259 88q44 0 82 38q51 51 80 150t29 178q0 158 -104 158q-43 0 -82 -37
q-51 -52 -80 -151.5t-29 -177.5q0 -158 104 -158z" />
    <glyph glyph-name="omacron" unicode="&#x14d;" horiz-adv-x="456" 
d="M167 590l15 73h259l-15 -73h-259zM261 541q80 0 125.5 -55t45.5 -150q0 -79 -26.5 -159.5t-74.5 -128.5q-58 -58 -137 -58q-80 0 -125 55t-45 149q0 79 26.5 159.5t74.5 128.5q59 59 136 59zM197 82q31 0 61 28q32 33 52.5 99t20.5 125q0 114 -73 114q-32 0 -60 -28
q-33 -33 -53 -99t-20 -125q0 -56 19 -85t53 -29z" />
    <glyph glyph-name="Obreve" unicode="&#x14e;" horiz-adv-x="568" 
d="M388 750q-57 0 -88.5 29.5t-22.5 83.5h66q3 -43 56 -43q51 0 70 43h72q-15 -55 -56 -84t-97 -29zM354 711q102 0 153.5 -70t51.5 -185q0 -101 -37.5 -215t-100.5 -178q-74 -74 -170 -74q-102 0 -153.5 70t-51.5 185q0 101 37.5 215t100.5 178q74 74 170 74zM259 88
q44 0 82 38q51 51 80 150t29 178q0 158 -104 158q-43 0 -82 -37q-51 -52 -80 -151.5t-29 -177.5q0 -158 104 -158z" />
    <glyph glyph-name="obreve" unicode="&#x14f;" horiz-adv-x="456" 
d="M261 541q80 0 125.5 -55t45.5 -150q0 -79 -26.5 -159.5t-74.5 -128.5q-58 -58 -137 -58q-80 0 -125 55t-45 149q0 79 26.5 159.5t74.5 128.5q59 59 136 59zM197 82q31 0 61 28q32 33 52.5 99t20.5 125q0 114 -73 114q-32 0 -60 -28q-33 -33 -53 -99t-20 -125
q0 -56 19 -85t53 -29zM300 579q-57 0 -87.5 32.5t-26.5 90.5h67q0 -25 13.5 -39t39.5 -14q50 0 73 53h70q-16 -59 -55.5 -91t-93.5 -32z" />
    <glyph glyph-name="Ohungarumlaut" unicode="&#x150;" horiz-adv-x="568" 
d="M354 711q102 0 153.5 -70t51.5 -185q0 -101 -37.5 -215t-100.5 -178q-74 -74 -170 -74q-102 0 -153.5 70t-51.5 185q0 101 37.5 215t100.5 178q74 74 170 74zM259 88q44 0 82 38q51 51 80 150t29 178q0 158 -104 158q-43 0 -82 -37q-51 -52 -80 -151.5t-29 -177.5
q0 -158 104 -158zM253 752l119 130l84 -46l-121 -84h-82zM392 752l118 130l84 -46l-121 -84h-81z" />
    <glyph glyph-name="ohungarumlaut" unicode="&#x151;" horiz-adv-x="456" 
d="M175 582l117 149l77 -46l-121 -103h-73zM308 582l119 149l76 -46l-121 -103h-74zM261 541q80 0 125.5 -55t45.5 -150q0 -79 -26.5 -159.5t-74.5 -128.5q-58 -58 -137 -58q-80 0 -125 55t-45 149q0 79 26.5 159.5t74.5 128.5q59 59 136 59zM197 82q31 0 61 28
q32 33 52.5 99t20.5 125q0 114 -73 114q-32 0 -60 -28q-33 -33 -53 -99t-20 -125q0 -56 19 -85t53 -29z" />
    <glyph glyph-name="OE" unicode="&#x152;" horiz-adv-x="749" 
d="M307 0q-125 0 -191 66q-65 65 -65 194q0 93 31.5 189t92.5 157q94 94 248 94h383l-23 -100h-236l-43 -198h210l-21 -99h-210l-44 -203h242l-23 -100h-351zM200 136q36 -38 104 -38h28l109 504h-38q-87 0 -149 -63q-44 -43 -69.5 -122t-25.5 -151q0 -89 41 -130z" />
    <glyph glyph-name="oe" unicode="&#x153;" horiz-adv-x="728" 
d="M686 223h-267q-1 -9 -1 -25q0 -56 24 -85.5t68 -29.5q49 0 101 40l26 -85q-66 -48 -139 -48q-108 0 -145 100q-62 -100 -159 -100q-80 0 -125 55t-45 149q0 76 25 156.5t76 131.5q59 59 137 59q99 0 142 -101q64 101 157 101q68 0 106.5 -48.5t38.5 -133.5
q0 -61 -20 -136zM197 82q32 0 61 27q32 33 52.5 99.5t20.5 125.5q0 114 -73 114q-33 0 -60 -27q-33 -33 -53 -99.5t-20 -125.5q0 -56 19 -85t53 -29zM497 426q-40 -40 -65 -126h171q8 34 8 63q0 41 -15.5 64.5t-44.5 23.5t-54 -25z" />
    <glyph glyph-name="Racute" unicode="&#x154;" horiz-adv-x="512" 
d="M318 0l-73 251h-16h-64l-55 -251h-108l152 700h144q116 0 174 -56q50 -52 50 -134q0 -110 -71 -181q-38 -38 -98 -58l79 -271h-114zM185 347h60q83 0 127 44q41 43 41 111q0 44 -24 70q-31 29 -91 29h-57zM289 744l119 130l91 -46l-124 -84h-86z" />
    <glyph glyph-name="racute" unicode="&#x155;" horiz-adv-x="301" 
d="M177 582l119 149l86 -46l-123 -103h-82zM-6 0l115 532h104l-19 -89q61 102 146 95l-26 -117h-4q-120 0 -154 -151l-58 -270h-104z" />
    <glyph glyph-name="Rcommaaccent" unicode="&#x156;" horiz-adv-x="512" 
d="M318 0l-73 251h-16h-64l-55 -251h-108l152 700h144q116 0 174 -56q50 -52 50 -134q0 -110 -71 -181q-38 -38 -98 -58l79 -271h-114zM185 347h60q83 0 127 44q41 43 41 111q0 44 -24 70q-31 29 -91 29h-57zM105 -230l-1 36q32 5 47.5 18t19.5 39h-45l19 88h99l-17 -79
q-12 -50 -41.5 -73.5t-80.5 -28.5z" />
    <glyph glyph-name="rcommaaccent" unicode="&#x157;" horiz-adv-x="301" 
d="M-49 -233l-1 36q32 5 47.5 18t19.5 39h-45l19 88h99l-17 -79q-12 -50 -41.5 -73.5t-80.5 -28.5zM-6 0l115 532h104l-19 -89q61 102 146 95l-26 -117h-4q-120 0 -154 -151l-58 -270h-104z" />
    <glyph glyph-name="Rcaron" unicode="&#x158;" horiz-adv-x="512" 
d="M318 0l-73 251h-16h-64l-55 -251h-108l152 700h144q116 0 174 -56q50 -52 50 -134q0 -110 -71 -181q-38 -38 -98 -58l79 -271h-114zM185 347h60q83 0 127 44q41 43 41 111q0 44 -24 70q-31 29 -91 29h-57zM504 866l-117 -121h-92l-65 121h78l44 -53l68 53h84z" />
    <glyph glyph-name="rcaron" unicode="&#x159;" horiz-adv-x="301" 
d="M182 583l-59 138h72l43 -66l71 66h78l-118 -138h-87zM-6 0l115 532h104l-19 -89q61 102 146 95l-26 -117h-4q-120 0 -154 -151l-58 -270h-104z" />
    <glyph glyph-name="Sacute" unicode="&#x15a;" horiz-adv-x="439" 
d="M198 -8q-131 0 -213 115l73 75q68 -90 140 -90q39 0 65 26t26 64q0 29 -18 58t-67 75q-61 60 -88.5 102t-27.5 95q0 83 54 137q57 59 142 59q116 0 191 -99l-76 -72q-52 71 -117 71q-38 0 -62 -25t-24 -60q0 -28 18.5 -56t65.5 -71q61 -57 89.5 -102.5t28.5 -96.5
q0 -90 -59 -149q-56 -56 -141 -56zM268 752l119 130l91 -46l-124 -84h-86z" />
    <glyph glyph-name="sacute" unicode="&#x15b;" horiz-adv-x="354" 
d="M192 582l119 149l86 -46l-123 -103h-82zM147 -10q-97 0 -173 86l58 72q64 -69 115 -69q26 0 44 17t18 44q0 36 -59 91q-53 50 -75 82.5t-22 76.5q0 63 43 106.5t114 43.5q89 0 159 -73l-56 -73q-55 57 -102 57q-26 0 -42 -15.5t-16 -38.5q0 -19 12 -38t51 -55
q52 -49 72 -83.5t20 -75.5q0 -65 -45.5 -110t-115.5 -45z" />
    <glyph glyph-name="Scedilla" unicode="&#x15e;" horiz-adv-x="439" 
d="M125 -136l-84 37l88 100q-87 23 -144 106l73 75q68 -90 140 -90q39 0 65 26t26 64q0 29 -18 58t-67 75q-61 60 -88.5 102t-27.5 95q0 83 54 137q57 59 142 59q116 0 191 -99l-76 -72q-52 71 -117 71q-38 0 -62 -25t-24 -60q0 -28 18.5 -56t65.5 -71q61 -57 89.5 -102.5
t28.5 -96.5q0 -90 -59 -149q-55 -55 -138 -56z" />
    <glyph glyph-name="scedilla" unicode="&#x15f;" horiz-adv-x="354" 
d="M82 -136l-84 37l86 99q-61 18 -110 76l58 72q64 -69 115 -69q26 0 44 17t18 44q0 36 -59 91q-53 50 -75 82.5t-22 76.5q0 63 43 106.5t114 43.5q89 0 159 -73l-56 -73q-55 57 -102 57q-26 0 -42 -15.5t-16 -38.5q0 -19 12 -38t51 -55q52 -49 72 -83.5t20 -75.5
q0 -63 -42.5 -107t-108.5 -48z" />
    <glyph glyph-name="Scaron" unicode="&#x160;" horiz-adv-x="439" 
d="M198 -8q-131 0 -213 115l73 75q68 -90 140 -90q39 0 65 26t26 64q0 29 -18 58t-67 75q-61 60 -88.5 102t-27.5 95q0 83 54 137q57 59 142 59q116 0 191 -99l-76 -72q-52 71 -117 71q-38 0 -62 -25t-24 -60q0 -28 18.5 -56t65.5 -71q61 -57 89.5 -102.5t28.5 -96.5
q0 -90 -59 -149q-56 -56 -141 -56zM483 874l-117 -121h-92l-65 121h78l44 -53l68 53h84z" />
    <glyph glyph-name="scaron" unicode="&#x161;" horiz-adv-x="354" 
d="M197 583l-59 138h72l43 -66l71 66h78l-118 -138h-87zM147 -10q-97 0 -173 86l58 72q64 -69 115 -69q26 0 44 17t18 44q0 36 -59 91q-53 50 -75 82.5t-22 76.5q0 63 43 106.5t114 43.5q89 0 159 -73l-56 -73q-55 57 -102 57q-26 0 -42 -15.5t-16 -38.5q0 -19 12 -38
t51 -55q52 -49 72 -83.5t20 -75.5q0 -65 -45.5 -110t-115.5 -45z" />
    <glyph glyph-name="Tcommaaccent" unicode="&#x162;" horiz-adv-x="426" 
d="M56 -233l-1 36q32 5 47.5 18t19.5 39h-45l19 88h99l-17 -79q-12 -50 -41.5 -73.5t-80.5 -28.5zM101 0l129 599h-141l23 101h390l-23 -101h-141l-129 -599h-108z" />
    <glyph glyph-name="tcommaaccent" unicode="&#x163;" horiz-adv-x="295" 
d="M10 -233l-1 36q32 5 47.5 18t19.5 39h-45l19 88h99l-17 -79q-12 -50 -41.5 -73.5t-80.5 -28.5zM138 -7q-48 0 -75.5 23t-27.5 67q0 26 7 57l66 304h-48l20 88h47l31 141h104l-31 -141h93l-19 -88h-93l-61 -284q-7 -33 -7 -43q0 -31 39 -31q23 0 47 9l-19 -88
q-31 -14 -73 -14z" />
    <glyph glyph-name="Tcaron" unicode="&#x164;" horiz-adv-x="426" 
d="M481 866l-117 -121h-92l-65 121h78l44 -53l68 53h84zM101 0l129 599h-141l23 101h390l-23 -101h-141l-129 -599h-108z" />
    <glyph glyph-name="tcaron" unicode="&#x165;" horiz-adv-x="295" 
d="M279 569l43 162h80v-2l-77 -160h-46zM138 -7q-48 0 -75.5 23t-27.5 67q0 26 7 57l66 304h-48l20 88h47l31 141h104l-31 -141h93l-19 -88h-93l-61 -284q-7 -33 -7 -43q0 -31 39 -31q23 0 47 9l-19 -88q-31 -14 -73 -14z" />
    <glyph glyph-name="Umacron" unicode="&#x16a;" horiz-adv-x="538" 
d="M233 747l16 76h275l-16 -76h-275zM233 -10q-88 0 -139 47.5t-51 132.5q0 38 11 91l95 439h108l-97 -444q-9 -41 -9 -77q0 -42 24 -66t67 -24q45 0 76 31q33 33 51 109l102 471h108l-104 -478q-26 -113 -83 -170q-61 -62 -159 -62z" />
    <glyph glyph-name="umacron" unicode="&#x16b;" horiz-adv-x="456" 
d="M132 -10q-52 0 -82 32t-30 87q0 27 10 74l75 349h104l-72 -333q-8 -38 -8 -56q0 -28 15.5 -43.5t42.5 -15.5q34 0 60.5 28.5t36.5 72.5l75 347h104l-115 -532h-104l14 68q-58 -78 -126 -78zM165 590l15 73h259l-15 -73h-259z" />
    <glyph glyph-name="Ubreve" unicode="&#x16c;" horiz-adv-x="538" 
d="M373 737q-57 0 -88.5 29.5t-22.5 83.5h66q3 -43 56 -43q51 0 70 43h72q-15 -55 -56 -84t-97 -29zM233 -10q-88 0 -139 47.5t-51 132.5q0 38 11 91l95 439h108l-97 -444q-9 -41 -9 -77q0 -42 24 -66t67 -24q45 0 76 31q33 33 51 109l102 471h108l-104 -478
q-26 -113 -83 -170q-61 -62 -159 -62z" />
    <glyph glyph-name="ubreve" unicode="&#x16d;" horiz-adv-x="456" 
d="M132 -10q-52 0 -82 32t-30 87q0 27 10 74l75 349h104l-72 -333q-8 -38 -8 -56q0 -28 15.5 -43.5t42.5 -15.5q34 0 60.5 28.5t36.5 72.5l75 347h104l-115 -532h-104l14 68q-58 -78 -126 -78zM298 579q-57 0 -87.5 32.5t-26.5 90.5h67q0 -25 13.5 -39t39.5 -14q50 0 73 53
h70q-16 -59 -55.5 -91t-93.5 -32z" />
    <glyph glyph-name="Uring" unicode="&#x16e;" horiz-adv-x="538" 
d="M233 -10q-88 0 -139 47.5t-51 132.5q0 38 11 91l95 439h108l-97 -444q-9 -41 -9 -77q0 -42 24 -66t67 -24q45 0 76 31q33 33 51 109l102 471h108l-104 -478q-26 -113 -83 -170q-61 -62 -159 -62zM391 909q40 0 64.5 -23t24.5 -57q0 -43 -30.5 -71.5t-76.5 -28.5
q-40 0 -64.5 23t-24.5 57q0 42 30.5 71t76.5 29zM377 770q24 0 40 16t16 38q0 19 -12 31.5t-34 12.5q-24 0 -40 -16t-16 -38q0 -19 12.5 -31.5t33.5 -12.5z" />
    <glyph glyph-name="uring" unicode="&#x16f;" horiz-adv-x="457" 
d="M407 678q0 -43 -29.5 -74.5t-74.5 -31.5q-38 0 -62.5 24t-24.5 60q0 43 29.5 74.5t74.5 31.5q38 0 62.5 -24.5t24.5 -59.5zM261 660q0 -20 12 -33.5t32 -13.5q25 0 40.5 18t15.5 43q0 20 -12 33.5t-32 13.5q-24 0 -40 -18.5t-16 -42.5zM132 -10q-52 0 -82 32t-30 87
q0 27 10 74l75 349h104l-72 -333q-8 -38 -8 -56q0 -28 15.5 -43.5t42.5 -15.5q34 0 60.5 28.5t36.5 72.5l75 347h104l-115 -532h-104l14 68q-58 -78 -126 -78z" />
    <glyph glyph-name="Uhungarumlaut" unicode="&#x170;" horiz-adv-x="538" 
d="M233 -10q-88 0 -139 47.5t-51 132.5q0 38 11 91l95 439h108l-97 -444q-9 -41 -9 -77q0 -42 24 -66t67 -24q45 0 76 31q33 33 51 109l102 471h108l-104 -478q-26 -113 -83 -170q-61 -62 -159 -62zM238 739l119 130l84 -46l-121 -84h-82zM377 739l118 130l84 -46l-121 -84
h-81z" />
    <glyph glyph-name="uhungarumlaut" unicode="&#x171;" horiz-adv-x="456" 
d="M132 -10q-52 0 -82 32t-30 87q0 27 10 74l75 349h104l-72 -333q-8 -38 -8 -56q0 -28 15.5 -43.5t42.5 -15.5q34 0 60.5 28.5t36.5 72.5l75 347h104l-115 -532h-104l14 68q-58 -78 -126 -78zM173 582l117 149l77 -46l-121 -103h-73zM306 582l119 149l76 -46l-121 -103h-74
z" />
    <glyph glyph-name="Uogonek" unicode="&#x172;" horiz-adv-x="538" 
d="M257 -89l-13 -58q-18 -3 -33 -3q-42 1 -65 17.5t-23 44.5q0 39 53 84q-63 14 -98 59t-35 115q0 38 11 91l95 439h108l-97 -444q-9 -41 -9 -77q0 -42 24 -66t67 -24q45 0 76 31q33 33 51 109l102 471h108l-104 -478q-26 -113 -83 -170q-57 -59 -149 -62q-34 -34 -34 -54
q0 -27 48 -25z" />
    <glyph glyph-name="uogonek" unicode="&#x173;" horiz-adv-x="456" 
d="M132 -10q-52 0 -82 32t-30 87q0 27 10 74l75 349h104l-72 -333q-8 -38 -8 -56q0 -28 15.5 -43.5t42.5 -15.5q34 0 60.5 28.5t36.5 72.5l75 347h104l-115 -532h-14q-44 -42 -44 -64q0 -27 48 -25l-13 -58q-18 -3 -33 -3q-42 1 -65 17.5t-23 44.5q0 40 58 88h-18l14 68
q-58 -78 -126 -78z" />
    <glyph glyph-name="Wcircumflex" unicode="&#x174;" horiz-adv-x="780" 
d="M115 -4l-6 704h110l-7 -497l219 498h96l4 -498l210 497h115l-312 -704h-106l-4 482l-214 -482h-105zM349 745l117 121h92l65 -121h-77l-45 53l-68 -53h-84z" />
    <glyph glyph-name="wcircumflex" unicode="&#x175;" horiz-adv-x="636" 
d="M250 583l119 138h85l59 -138h-71l-43 66l-71 -66h-78zM81 -3l-5 535h104l-5 -354l155 354h86l1 -354l149 354h104l-238 -535h-97l-2 348l-156 -348h-96z" />
    <glyph glyph-name="Ycircumflex" unicode="&#x176;" horiz-adv-x="476" 
d="M124 0l61 282l-93 418h114l56 -297l188 297h121l-279 -423l-60 -277h-108zM195 740l117 121h92l65 -121h-77l-45 53l-68 -53h-84z" />
    <glyph glyph-name="ycircumflex" unicode="&#x177;" horiz-adv-x="433" 
d="M109 1l-35 531h105l13 -370l169 370h108l-258 -534q-38 -79 -74 -110.5t-87 -31.5q-50 0 -86 26l32 83q26 -18 51 -18q35 0 62 54zM143 583l119 138h85l59 -138h-71l-43 66l-71 -66h-78z" />
    <glyph glyph-name="Ydieresis" unicode="&#x178;" horiz-adv-x="476" 
d="M124 0l61 282l-93 418h114l56 -297l188 297h121l-279 -423l-60 -277h-108zM201 742l22 101h103l-22 -101h-103zM363 742l21 101h103l-22 -101h-102z" />
    <glyph glyph-name="Zacute" unicode="&#x179;" horiz-adv-x="459" 
d="M-22 0l18 83l368 520h-251l21 97h383l-17 -83l-370 -520h261l-21 -97h-392zM275 744l119 130l91 -46l-124 -84h-86z" />
    <glyph glyph-name="zacute" unicode="&#x17a;" horiz-adv-x="373" 
d="M198 582l119 149l86 -46l-123 -103h-82zM-31 0l16 75l276 369h-193l19 88h315l-16 -76l-275 -369h200l-19 -87h-323z" />
    <glyph glyph-name="Zdotaccent" unicode="&#x17b;" horiz-adv-x="459" 
d="M275 747l22 101h104l-21 -101h-105zM-22 0l18 83l368 520h-251l21 97h383l-17 -83l-370 -520h261l-21 -97h-392z" />
    <glyph glyph-name="zdotaccent" unicode="&#x17c;" horiz-adv-x="373" 
d="M-31 0l16 75l276 369h-193l19 88h315l-16 -76l-275 -369h200l-19 -87h-323zM195 585l22 104h103l-23 -104h-102z" />
    <glyph glyph-name="Zcaron" unicode="&#x17d;" horiz-adv-x="459" 
d="M490 866l-117 -121h-92l-65 121h78l44 -53l68 53h84zM-22 0l18 83l368 520h-251l21 97h383l-17 -83l-370 -520h261l-21 -97h-392z" />
    <glyph glyph-name="zcaron" unicode="&#x17e;" horiz-adv-x="373" 
d="M202 583l-59 138h72l43 -66l71 66h78l-118 -138h-87zM-31 0l16 75l276 369h-193l19 88h315l-16 -76l-275 -369h200l-19 -87h-323z" />
    <glyph glyph-name="florin" unicode="&#x192;" horiz-adv-x="406" 
d="M36 -6q-37 0 -69 10l20 91q23 -9 40 -9q41 0 63 67l70 212h-62l19 86h70l39 119q43 136 160 136q53 0 89 -17l-21 -92q-30 15 -60 15q-50 0 -74 -72l-29 -89h104l-19 -86h-113l-78 -241q-43 -130 -149 -130z" />
    <glyph glyph-name="Aringacute" unicode="&#x1fa;" horiz-adv-x="533" 
d="M-43 0l336 673q-20 22 -20 53q0 43 31 72t77 29q39 0 63.5 -23.5t24.5 -57.5q0 -53 -46 -83l45 -663h-109l-9 161h-205l-78 -161h-110zM189 257h157l-16 288zM353 848l116 111l87 -44l-116 -67h-87zM366 688q24 0 40 15.5t16 38.5q0 19 -12 31t-33 12q-24 0 -40 -16
t-16 -38q0 -19 12 -31t33 -12z" />
    <glyph glyph-name="aringacute" unicode="&#x1fb;" horiz-adv-x="426" 
d="M278 796l110 119l85 -43l-114 -76h-81zM109 -9q-50 0 -79.5 35t-29.5 99q0 45 16 89t43 71q46 46 118 46q53 0 110 -26l3 17q7 35 7 51q0 34 -22.5 52t-63.5 18q-49 0 -95 -23l-16 91q68 27 132 27q80 0 124 -39t44 -109q0 -27 -12 -84l-65 -306h-103l13 63
q-52 -72 -124 -72zM161 72q35 0 61.5 27.5t36.5 73.5l13 62q-38 19 -77 19q-36 0 -60 -24q-33 -33 -33 -90q0 -68 59 -68zM387 685q0 -43 -29.5 -74.5t-74.5 -31.5q-38 0 -62.5 24t-24.5 60q0 43 29.5 74.5t74.5 31.5q38 0 62.5 -24.5t24.5 -59.5zM241 667q0 -20 12 -33.5
t32 -13.5q25 0 40.5 18t15.5 43q0 20 -12 33.5t-32 13.5q-24 0 -40 -18t-16 -43z" />
    <glyph glyph-name="AEacute" unicode="&#x1fc;" horiz-adv-x="730" 
d="M472 744l119 130l91 -46l-124 -84h-86zM-50 0l413 700h421l-22 -100h-236l-43 -198h209l-20 -99h-211l-44 -203h242l-23 -100h-348l35 161h-169l-94 -161h-110zM210 257h134l74 340h-13z" />
    <glyph glyph-name="aeacute" unicode="&#x1fd;" horiz-adv-x="681" 
d="M451 -10q-115 0 -155 103q-73 -102 -168 -102q-60 0 -94 35.5t-34 98.5q0 46 16.5 89.5t42.5 70.5q46 46 118 46q53 0 110 -26l3 17q7 35 7 51q0 34 -22.5 52t-63.5 18q-49 0 -95 -23l-16 91q68 27 132 27q107 0 138 -79q68 82 145 82q66 0 105 -48.5t39 -133.5
q0 -60 -19 -136h-268q-1 -9 -1 -25q0 -56 24 -85.5t67 -29.5q47 0 100 39l31 -84q-72 -48 -142 -48zM164 72q61 0 116 82q-4 38 0 77q-41 23 -85 23q-36 0 -60 -24q-33 -33 -33 -90q0 -31 16.5 -49.5t45.5 -18.5zM450 426q-40 -40 -65 -126h171q8 28 8 63q0 41 -15.5 64.5
t-44.5 23.5t-54 -25zM342 582l119 149l86 -46l-123 -103h-82z" />
    <glyph glyph-name="Oslashacute" unicode="&#x1fe;" horiz-adv-x="568" 
d="M354 711q92 0 145 -61l44 56h84l-92 -115q24 -57 24 -135q0 -101 -37.5 -215t-100.5 -178q-74 -74 -170 -74q-92 0 -144 58l-44 -53h-85l93 111q-25 59 -25 139q0 101 37.5 215t100.5 178q74 74 170 74zM153 246q0 -17 2 -43l274 364q-27 47 -83 47q-45 0 -84 -39
q-51 -51 -80 -151t-29 -178zM259 86q45 0 84 39q51 52 80 151.5t29 177.5q0 14 -2 38l-272 -362q26 -44 81 -44zM334 752l119 130l91 -46l-124 -84h-86z" />
    <glyph glyph-name="oslashacute" unicode="&#x1ff;" horiz-adv-x="456" 
d="M261 541q74 0 120 -49l37 45h78l-83 -96q19 -46 19 -105q0 -79 -26.5 -159.5t-74.5 -128.5q-58 -58 -137 -58q-74 0 -118 47l-38 -46h-78l83 97q-19 48 -19 106q0 79 26.5 159.5t74.5 128.5q59 59 136 59zM258 452q-32 0 -62 -30q-33 -33 -53.5 -99.5t-20.5 -126.5
q0 -14 1 -20l193 243q-20 33 -58 33zM334 334q0 12 -1 18l-193 -242q19 -31 57 -31q34 0 63 29q33 33 53.5 99.5t20.5 126.5zM246 582l119 149l86 -46l-123 -103h-82z" />
    <glyph glyph-name="Scommaaccent" unicode="&#x218;" horiz-adv-x="439" 
d="M57 -233l-1 36q32 5 47.5 18t19.5 39h-45l19 88h99l-17 -79q-12 -50 -41.5 -73.5t-80.5 -28.5zM198 -8q-131 0 -213 115l73 75q68 -90 140 -90q39 0 65 26t26 64q0 29 -18 58t-67 75q-61 60 -88.5 102t-27.5 95q0 83 54 137q57 59 142 59q116 0 191 -99l-76 -72
q-52 71 -117 71q-38 0 -62 -25t-24 -60q0 -28 18.5 -56t65.5 -71q61 -57 89.5 -102.5t28.5 -96.5q0 -90 -59 -149q-56 -56 -141 -56z" />
    <glyph glyph-name="scommaaccent" unicode="&#x219;" horiz-adv-x="354" 
d="M14 -233l-1 36q32 5 47.5 18t19.5 39h-45l19 88h99l-17 -79q-12 -50 -41.5 -73.5t-80.5 -28.5zM147 -10q-97 0 -173 86l58 72q64 -69 115 -69q26 0 44 17t18 44q0 36 -59 91q-53 50 -75 82.5t-22 76.5q0 63 43 106.5t114 43.5q89 0 159 -73l-56 -73q-55 57 -102 57
q-26 0 -42 -15.5t-16 -38.5q0 -19 12 -38t51 -55q52 -49 72 -83.5t20 -75.5q0 -65 -45.5 -110t-115.5 -45z" />
    <glyph glyph-name="schwa" unicode="&#x259;" horiz-adv-x="431" 
d="M21 171q0 60 19 136h268q0 4 0.5 12.5t0.5 12.5q0 56 -24 85.5t-67 29.5q-49 0 -100 -39l-31 84q71 48 145 48q82 0 129.5 -53.5t47.5 -152.5q0 -81 -29.5 -158.5t-79.5 -127.5q-57 -59 -131 -59q-69 0 -108.5 48.5t-39.5 133.5zM230 104q41 41 64 126h-170
q-8 -28 -8 -63q0 -41 15.5 -64.5t44.5 -23.5t54 25z" />
    <glyph glyph-name="circumflex" unicode="&#x2c6;" horiz-adv-x="500" 
d="M187 583l119 138h85l59 -138h-71l-43 66l-71 -66h-78z" />
    <glyph glyph-name="caron" unicode="&#x2c7;" horiz-adv-x="500" 
d="M274 583l-59 138h72l43 -66l71 66h78l-118 -138h-87z" />
    <glyph glyph-name="breve" unicode="&#x2d8;" horiz-adv-x="500" 
d="M327 579q-57 0 -87.5 32.5t-26.5 90.5h67q0 -25 13.5 -39t39.5 -14q50 0 73 53h70q-16 -59 -55.5 -91t-93.5 -32z" />
    <glyph glyph-name="dotaccent" unicode="&#x2d9;" horiz-adv-x="500" 
d="M268 585l22 104h103l-23 -104h-102z" />
    <glyph glyph-name="ring" unicode="&#x2da;" horiz-adv-x="500" 
d="M434 685q0 -43 -29.5 -74.5t-74.5 -31.5q-38 0 -62.5 24t-24.5 60q0 43 29.5 74.5t74.5 31.5q38 0 62.5 -24.5t24.5 -59.5zM288 667q0 -20 12 -33.5t32 -13.5q25 0 40.5 18t15.5 43q0 20 -12 33.5t-32 13.5q-24 0 -40 -18t-16 -43z" />
    <glyph glyph-name="ogonek" unicode="&#x2db;" horiz-adv-x="500" 
d="M244 -89l-13 -58q-18 -3 -33 -3q-42 1 -65 17.5t-23 44.5q0 25 17.5 46.5t52.5 50.5l69 -1q-53 -51 -53 -72q0 -27 48 -25z" />
    <glyph glyph-name="tilde" unicode="&#x2dc;" horiz-adv-x="500" 
d="M425 704l59 -16q-21 -55 -44 -80.5t-55 -25.5q-26 0 -61 22q-32 18 -43 18q-14 0 -24 -10t-22 -35l-59 17q22 57 44 81.5t54 24.5q24 0 62 -22q32 -18 43 -18q25 0 46 44z" />
    <glyph glyph-name="hungarumlaut" unicode="&#x2dd;" horiz-adv-x="500" 
d="M165 582l117 149l77 -46l-121 -103h-73zM298 582l119 149l76 -46l-121 -103h-74z" />
    <glyph glyph-name="commaaccent" unicode="&#x326;" horiz-adv-x="500" 
d="M95 -233l-1 36q32 5 47.5 18t19.5 39h-45l19 88h99l-17 -79q-12 -50 -41.5 -73.5t-80.5 -28.5z" />
    <glyph glyph-name="baht" unicode="&#xe3f;" horiz-adv-x="479" 
d="M-3 0l152 700h137q22 0 42 -3l29 88h73l-34 -104q47 -19 72.5 -56.5t25.5 -87.5q0 -71 -42 -119t-110 -66q96 -39 96 -138q0 -96 -72 -154.5t-194 -59.5l-39 -120h-73l39 120h-102zM335 219q0 67 -66 85l-68 -209q63 4 98.5 36t35.5 88zM184 397h47l69 208h-9h-61z
M390 521q0 43 -29 64l-60 -181q44 12 66.5 44t22.5 73zM120 95h13l69 214h-37z" />
    <glyph glyph-name="Wgrave" unicode="&#x1e80;" horiz-adv-x="780" 
d="M446 744l-96 84l91 46l80 -130h-75zM115 -4l-6 704h110l-7 -497l219 498h96l4 -498l210 497h115l-312 -704h-106l-4 482l-214 -482h-105z" />
    <glyph glyph-name="wgrave" unicode="&#x1e81;" horiz-adv-x="636" 
d="M81 -3l-5 535h104l-5 -354l155 354h86l1 -354l149 354h104l-238 -535h-97l-2 348l-156 -348h-96zM340 582l-91 103l88 46l74 -149h-71z" />
    <glyph glyph-name="Wacute" unicode="&#x1e82;" horiz-adv-x="780" 
d="M439 744l119 130l91 -46l-124 -84h-86zM115 -4l-6 704h110l-7 -497l219 498h96l4 -498l210 497h115l-312 -704h-106l-4 482l-214 -482h-105z" />
    <glyph glyph-name="wacute" unicode="&#x1e83;" horiz-adv-x="636" 
d="M335 582l119 149l86 -46l-123 -103h-82zM81 -3l-5 535h104l-5 -354l155 354h86l1 -354l149 354h104l-238 -535h-97l-2 348l-156 -348h-96z" />
    <glyph glyph-name="Wdieresis" unicode="&#x1e84;" horiz-adv-x="780" 
d="M357 747l22 101h103l-22 -101h-103zM519 747l21 101h103l-22 -101h-102zM115 -4l-6 704h110l-7 -497l219 498h96l4 -498l210 497h115l-312 -704h-106l-4 482l-214 -482h-105z" />
    <glyph glyph-name="wdieresis" unicode="&#x1e85;" horiz-adv-x="636" 
d="M258 586l22 102h100l-22 -102h-100zM410 586l23 102h100l-23 -102h-100zM81 -3l-5 535h104l-5 -354l155 354h86l1 -354l149 354h104l-238 -535h-97l-2 348l-156 -348h-96z" />
    <glyph glyph-name="Ygrave" unicode="&#x1ef2;" horiz-adv-x="476" 
d="M124 0l61 282l-93 418h114l56 -297l188 297h121l-279 -423l-60 -277h-108zM291 739l-96 84l91 46l80 -130h-75z" />
    <glyph glyph-name="ygrave" unicode="&#x1ef3;" horiz-adv-x="433" 
d="M109 1l-35 531h105l13 -370l169 370h108l-258 -534q-38 -79 -74 -110.5t-87 -31.5q-50 0 -86 26l32 83q26 -18 51 -18q35 0 62 54zM233 582l-91 103l88 46l74 -149h-71z" />
    <glyph glyph-name="enspace" unicode="&#x2002;" horiz-adv-x="500" 
 />
    <glyph glyph-name="emspace" unicode="&#x2003;" horiz-adv-x="1000" 
 />
    <glyph glyph-name="threeperemspace" unicode="&#x2004;" horiz-adv-x="333" 
 />
    <glyph glyph-name="fourperemspace" unicode="&#x2005;" horiz-adv-x="250" 
 />
    <glyph glyph-name="figurespace" unicode="&#x2007;" horiz-adv-x="450" 
 />
    <glyph glyph-name="thinspace" unicode="&#x2009;" horiz-adv-x="133" 
 />
    <glyph glyph-name="hairspace" unicode="&#x200a;" horiz-adv-x="75" 
 />
    <glyph glyph-name="endash" unicode="&#x2013;" horiz-adv-x="472" 
d="M43 255l23 102h380l-23 -102h-380z" />
    <glyph glyph-name="emdash" unicode="&#x2014;" horiz-adv-x="738" 
d="M43 255l23 102h645l-21 -102h-647z" />
    <glyph glyph-name="quoteleft" unicode="&#x2018;" horiz-adv-x="235" 
d="M86 431l25 115q17 77 55.5 113.5t111.5 43.5l7 -45q-53 -10 -74.5 -35.5t-26.5 -63.5h51l-27 -128h-122z" />
    <glyph glyph-name="quoteright" unicode="&#x2019;" horiz-adv-x="235" 
d="M80 428l-7 46q53 9 74.5 34.5t26.5 63.5h-51l27 128h122l-25 -115q-17 -77 -55.5 -113.5t-111.5 -43.5z" />
    <glyph glyph-name="quotesinglbase" unicode="&#x201a;" horiz-adv-x="247" 
d="M-35 -144l-7 45q53 10 74.5 35t26.5 64h-52l28 128h122l-25 -115q-16 -76 -55.5 -113t-111.5 -44z" />
    <glyph glyph-name="quotedblleft" unicode="&#x201c;" horiz-adv-x="429" 
d="M86 431l25 115q17 77 55.5 113.5t111.5 43.5l7 -45q-53 -10 -74.5 -35t-26.5 -64h51l-27 -128h-122zM280 431l25 115q17 77 55.5 113.5t111.5 43.5l7 -45q-53 -10 -74.5 -35t-26.5 -64h51l-27 -128h-122z" />
    <glyph glyph-name="quotedblright" unicode="&#x201d;" horiz-adv-x="429" 
d="M80 428l-7 46q53 9 74.5 34.5t26.5 63.5h-52l28 128h122l-25 -115q-16 -76 -55.5 -113t-111.5 -44zM274 428l-7 46q53 9 74.5 34.5t26.5 63.5h-51l27 128h122l-25 -115q-17 -77 -55.5 -113.5t-111.5 -43.5z" />
    <glyph glyph-name="quotedblbase" unicode="&#x201e;" horiz-adv-x="445" 
d="M-35 -144l-7 45q53 10 74.5 35t26.5 64h-52l28 128h122l-25 -115q-16 -76 -55.5 -113t-111.5 -44zM158 -144l-7 45q53 10 75 35.5t26 63.5h-51l28 128h121l-24 -115q-17 -77 -56 -113.5t-112 -43.5z" />
    <glyph glyph-name="dagger" unicode="&#x2020;" 
d="M107 238l70 276l-95 -9l14 69l91 -10l17 136h76l-42 -136l94 10l-15 -69l-92 9l-49 -276h-69z" />
    <glyph glyph-name="daggerdbl" unicode="&#x2021;" horiz-adv-x="315" 
d="M59 0l44 136l-96 -10l15 69l92 -9l24 164l46 164l-94 -9l14 69l91 -10l17 136h76l-43 -136l95 10l-14 -69l-93 9l-23 -164l-47 -164l94 9l-14 -69l-90 10l-18 -136h-76z" />
    <glyph glyph-name="bullet" unicode="&#x2022;" horiz-adv-x="394" 
d="M235 495q45 0 71 -28.5t26 -76.5q0 -90 -51 -142q-36 -36 -86 -36q-45 0 -71.5 28.5t-26.5 76.5q0 90 52 142q36 36 86 36z" />
    <glyph glyph-name="ellipsis" unicode="&#x2026;" horiz-adv-x="713" 
d="M2 0l28 127h121l-28 -127h-121zM239 0l27 127h121l-27 -127h-121zM475 0l28 127h121l-27 -127h-122z" />
    <glyph glyph-name="perthousand" unicode="&#x2030;" horiz-adv-x="973" 
d="M43 0l283 365l253 335h78l-283 -365l-252 -335h-79zM188 347q-52 0 -81.5 36t-29.5 101q0 53 17.5 103t47.5 81q41 39 91 39q52 0 81.5 -36.5t29.5 -101.5q0 -54 -18 -103.5t-48 -79.5q-39 -39 -90 -39zM192 417q18 0 33 15q19 19 31 61.5t12 77.5q0 66 -40 66
q-17 0 -33 -16q-19 -19 -31 -61.5t-12 -77.5q0 -65 40 -65zM468 -7q-52 0 -81.5 36.5t-29.5 101.5q0 54 17.5 103.5t48.5 80.5q39 39 90 39q52 0 81.5 -37t29.5 -101q0 -54 -17.5 -103.5t-48.5 -80.5q-39 -39 -90 -39zM472 63q18 0 34 16q18 19 30.5 61.5t12.5 77.5
q0 65 -41 65q-18 0 -33 -15q-19 -19 -31 -61.5t-12 -77.5q0 -66 40 -66zM777 -7q-52 0 -81.5 36.5t-29.5 101.5q0 54 17.5 103.5t48.5 80.5q39 39 90 39q52 0 81.5 -37t29.5 -101q0 -54 -17.5 -103.5t-48.5 -80.5q-39 -39 -90 -39zM781 63q18 0 34 16q19 19 31 61.5t12 77.5
q0 65 -40 65q-19 0 -34 -15q-19 -19 -31 -61.5t-12 -77.5q0 -66 40 -66z" />
    <glyph glyph-name="guilsinglleft" unicode="&#x2039;" horiz-adv-x="291" 
d="M134 40l-102 218l2 8l199 219l61 -51l-150 -180l71 -178z" />
    <glyph glyph-name="guilsinglright" unicode="&#x203a;" horiz-adv-x="291" 
d="M155 485l102 -218l-2 -8l-199 -219l-61 51l150 180l-71 178z" />
    <glyph glyph-name="fraction" unicode="&#x2044;" horiz-adv-x="75" 
d="M-246 0l264 363l239 337h64l-265 -363l-238 -337h-64z" />
    <glyph glyph-name="zero.sup" unicode="&#x2070;" 
d="M359 690q0 -51 -18.5 -114t-55.5 -100q-36 -36 -82 -36q-49 0 -75 33t-26 95q0 49 19 113t55 100t82 36q48 0 74.5 -33t26.5 -94zM169 564q0 -62 38 -62q16 0 31 15q24 24 39 81t15 95q0 62 -38 62q-15 0 -31 -14q-24 -24 -39 -81.5t-15 -95.5z" />
    <glyph glyph-name="four.sup" unicode="&#x2074;" 
d="M219 446l16 73h-147l10 61l177 234h85l-51 -238h37l-12 -57h-38l-15 -73h-62zM158 575h91l35 165h-4z" />
    <glyph glyph-name="five.sup" unicode="&#x2075;" 
d="M200 440q-71 0 -116 53l41 49q36 -41 77 -41q29 0 45.5 20t16.5 47q0 25 -14.5 38t-37.5 13q-22 0 -44 -11l-39 25l52 178h184l-14 -62h-129l-23 -79q17 5 33 5q43 0 71.5 -25.5t28.5 -73.5q0 -57 -36 -96.5t-96 -39.5z" />
    <glyph glyph-name="six.sup" unicode="&#x2076;" 
d="M211 440q-48 0 -76.5 31.5t-28.5 92.5q0 48 20 112.5t58 102.5t88 38t93 -37l-36 -51q-30 28 -60 28q-25 0 -44 -19q-24 -24 -40 -77q27 23 63 23q34 0 60 -24t26 -72q0 -60 -35 -104t-88 -44zM212 499q27 0 43 24.5t16 55.5q0 23 -12.5 36t-31.5 13q-22 0 -38 -14
q-21 -21 -21 -63q0 -24 12 -38t32 -14z" />
    <glyph glyph-name="seven.sup" unicode="&#x2077;" 
d="M105 446l187 301h-144l13 64h219l-11 -52l-190 -313h-74z" />
    <glyph glyph-name="eight.sup" unicode="&#x2078;" 
d="M208 440q-48 0 -81 27t-33 72q0 40 22 67.5t56 36.5q-36 27 -36 69q0 46 33 75.5t84 29.5q48 0 78 -26t30 -68q0 -34 -18.5 -58.5t-49.5 -35.5q41 -26 41 -75t-34.5 -81.5t-91.5 -32.5zM210 493q27 0 43.5 19t16.5 45q0 22 -13.5 36.5t-37.5 14.5q-27 0 -44 -18.5
t-17 -45.5q0 -23 14 -37t38 -14zM246 662q23 0 38.5 16.5t15.5 41.5q0 20 -13 33t-34 13q-23 0 -38 -16.5t-15 -41.5q0 -20 12.5 -33t33.5 -13z" />
    <glyph glyph-name="nine.sup" unicode="&#x2079;" 
d="M189 440q-49 0 -98 42l36 51q34 -32 65 -32q25 0 44 19q23 22 39 72q-28 -22 -62 -22q-35 0 -60.5 24t-25.5 74q0 61 35 105t89 44q47 0 75.5 -31.5t28.5 -91.5q0 -48 -20 -113t-58 -103t-88 -38zM234 625q22 0 37 15q23 23 23 64q0 26 -12 40t-33 14q-28 0 -43.5 -24
t-15.5 -57q0 -25 12 -38.5t32 -13.5z" />
    <glyph glyph-name="zero.inf" unicode="&#x2080;" 
d="M234 111q0 -51 -18.5 -114t-55.5 -100q-36 -36 -82 -36q-49 0 -75 33t-26 95q0 49 19 113t55 100t82 36q48 0 74.5 -33t26.5 -94zM44 -15q0 -62 38 -62q16 0 31 15q24 24 39 81t15 95q0 62 -38 62q-15 0 -31 -14q-24 -24 -39 -81.5t-15 -95.5z" />
    <glyph glyph-name="one.inf" unicode="&#x2081;" horiz-adv-x="244" 
d="M18 -132l63 292l-70 -29l6 65l98 39h51l-79 -367h-69z" />
    <glyph glyph-name="two.inf" unicode="&#x2082;" 
d="M-45 -132l12 57l138 126q30 29 41.5 47t11.5 37q0 18 -12 29t-32 11q-33 0 -72 -33l-31 50q54 46 111 46q46 0 76 -27t30 -69q0 -29 -15 -56.5t-58 -65.5l-98 -90h134l-14 -62h-222z" />
    <glyph glyph-name="three.inf" unicode="&#x2083;" 
d="M75 -139q-72 0 -113 54l41 47q34 -39 74 -39q25 0 39.5 16t14.5 39q0 52 -81 54h-3l3 43l102 95h-124l14 62h209l-10 -51l-119 -107q36 -10 56.5 -34t20.5 -59q0 -53 -35 -86.5t-89 -33.5z" />
    <glyph glyph-name="four.inf" unicode="&#x2084;" 
d="M94 -133l16 73h-147l10 61l177 234h85l-51 -238h37l-12 -57h-38l-15 -73h-62zM33 -4h91l35 165h-4z" />
    <glyph glyph-name="five.inf" unicode="&#x2085;" 
d="M75 -139q-71 0 -116 53l41 49q36 -41 77 -41q29 0 45.5 20t16.5 47q0 25 -14.5 38t-37.5 13q-22 0 -44 -11l-39 25l52 178h184l-14 -62h-129l-23 -79q17 5 33 5q43 0 71.5 -25.5t28.5 -73.5q0 -57 -36 -96.5t-96 -39.5z" />
    <glyph glyph-name="six.inf" unicode="&#x2086;" 
d="M86 -139q-48 0 -76.5 31.5t-28.5 92.5q0 48 20 112.5t58 102.5t88 38t93 -37l-36 -51q-30 28 -60 28q-25 0 -44 -19q-24 -24 -40 -77q27 23 63 23q34 0 60 -24t26 -72q0 -60 -35 -104t-88 -44zM87 -80q27 0 43 24.5t16 55.5q0 23 -12.5 36t-31.5 13q-22 0 -38 -14
q-21 -21 -21 -63q0 -24 12 -38t32 -14z" />
    <glyph glyph-name="seven.inf" unicode="&#x2087;" 
d="M-20 -133l187 301h-144l13 64h219l-11 -52l-190 -313h-74z" />
    <glyph glyph-name="eight.inf" unicode="&#x2088;" 
d="M83 -139q-48 0 -81 27t-33 72q0 40 22 67.5t56 36.5q-36 27 -36 69q0 46 33 75.5t84 29.5q48 0 78 -26t30 -68q0 -34 -18.5 -58.5t-49.5 -35.5q41 -26 41 -75t-34.5 -81.5t-91.5 -32.5zM85 -86q27 0 43.5 19t16.5 45q0 22 -13.5 36.5t-37.5 14.5q-27 0 -44 -18.5
t-17 -45.5q0 -23 14 -37t38 -14zM121 83q23 0 38.5 16.5t15.5 41.5q0 20 -13 33t-34 13q-23 0 -38 -16.5t-15 -41.5q0 -20 12.5 -33t33.5 -13z" />
    <glyph glyph-name="nine.inf" unicode="&#x2089;" 
d="M64 -139q-49 0 -98 42l36 51q34 -32 65 -32q25 0 44 19q23 22 39 72q-28 -22 -62 -22q-35 0 -60.5 24t-25.5 74q0 61 35 105t89 44q47 0 75.5 -31.5t28.5 -91.5q0 -48 -20 -113t-58 -103t-88 -38zM109 46q22 0 37 15q23 23 23 64q0 26 -12 40t-33 14q-28 0 -43.5 -24
t-15.5 -57q0 -25 12 -38.5t32 -13.5z" />
    <glyph glyph-name="colonmonetary" unicode="&#x20a1;" horiz-adv-x="441" 
d="M443 779h47l-36 -107q26 -17 48 -41l-64 -79l-21 20l-158 -478q39 1 91 35l38 -86q-67 -47 -139 -47q-13 0 -19 1l-39 -115h-46l41 121q-32 9 -55 25l-49 -146h-47l60 179q-53 65 -53 189q0 103 33.5 210t99.5 173q58 58 133 68l26 78h46l-25 -75q28 -1 58 -12zM167 145
q19 -35 53 -46l165 495q-24 12 -48 12q-12 0 -18 -1zM146 250q0 -15 2 -39l124 376q-15 -10 -26 -21q-45 -46 -72.5 -139t-27.5 -177z" />
    <glyph glyph-name="naira" unicode="&#x20a6;" horiz-adv-x="632" 
d="M599 208h-86l-45 -208h-103l-45 209h-125l-46 -209h-102l45 208h-83l17 81h83l28 126h-84l17 81h84l45 204h110l45 -205h120l45 205h101l-45 -204h87l-18 -81h-86l-28 -126h87zM257 496l-45 -208h91l-45 208h-1zM413 219h1l43 197h-87z" />
    <glyph glyph-name="rupee" unicode="&#x20a8;" horiz-adv-x="791" 
d="M649 139q0 20 -12.5 40t-44.5 52q-52 52 -71.5 84.5t-19.5 73.5q0 64 42 107t113 43q83 0 148 -65l-54 -73q-50 52 -94 52q-27 0 -43.5 -16t-16.5 -42q0 -19 13 -38t48 -54q46 -46 66.5 -81t20.5 -76q0 -67 -44 -111.5t-113 -44.5q-100 0 -166 82l59 70q54 -65 107 -65
q27 0 44.5 17t17.5 45zM269 0l-57 253q-3 -1 -64 -1l-55 -252h-101l153 700h110q109 0 161.5 -53.5t52.5 -134.5q0 -82 -41.5 -146.5t-116.5 -92.5l65 -274zM168 343h49q71 0 111 47t40 119q0 46 -26.5 71.5t-75.5 25.5h-42z" />
    <glyph glyph-name="won" unicode="&#x20a9;" horiz-adv-x="828" 
d="M801 209h-139l-85 -211h-120l5 211h-122l-86 -211h-120l6 211h-136l16 82h122l4 121h-100l18 81h84l6 207h110l-13 -207h112l86 208h113l-5 -208h113l78 207h114l-84 -207h85l-18 -81h-100l-49 -120h123zM231 178h3l96 235h-85zM550 178h3l87 235h-85zM467 510l-93 -220
h90l5 220h-2z" />
    <glyph glyph-name="sheqel" unicode="&#x20aa;" horiz-adv-x="506" 
d="M-11 0l115 528h135q120 0 120 -109q0 -29 -7 -60l-34 -158h-57l22 109q7 42 7 59q0 35 -17 48t-52 13h-60l-95 -430h-77zM293 0q-77 0 -109.5 39.5t-22.5 131.5l16 159h56l-11 -126q-6 -62 12 -84t66 -22h43l93 430h78l-115 -528h-106z" />
    <glyph glyph-name="Euro" unicode="&#x20ac;" horiz-adv-x="495" 
d="M51 396l17 78h61q37 108 99 170q66 66 154 66q104 0 166 -85l-73 -71q-37 55 -93 55q-43 0 -77 -34t-61 -102h160l-17 -77h-166q-12 -52 -16 -87h163l-16 -77h-152q2 -140 100 -140q44 0 91 41l47 -84q-73 -59 -151 -59q-90 0 -143 62t-53 179h-76l18 78h61q4 39 14 87
h-57z" />
    <glyph glyph-name="peso" unicode="&#x20b1;" horiz-adv-x="576" 
d="M598 420h-80q-18 -71 -68 -120q-78 -78 -209 -78h-45l-48 -222h-108l91 420h-83l17 80h83l44 200h120q111 0 166 -56q51 -51 51 -141v-3h87zM216 318h42q71 0 114 43q23 23 37 61h-170zM279 603l-23 -105h166v1q0 51 -26 78q-26 26 -79 26h-38z" />
    <glyph glyph-name="published" unicode="&#x2117;" horiz-adv-x="634" 
d="M282 548h73q67 0 95 -32.5t28 -75.5q0 -66 -43 -109t-116 -43h-31l-27 -123h-63zM414 436q0 54 -60 54h-22l-32 -144h28q40 0 62.5 24.5t23.5 65.5zM374 711q112 0 179 -78.5t67 -205.5q0 -97 -30.5 -193t-96.5 -161q-84 -84 -201 -84q-112 0 -179 78.5t-67 205.5
q0 96 31 192.5t96 161.5q84 84 201 84zM295 23q99 0 173 74q59 60 87.5 149.5t28.5 180.5q0 112 -57 181t-156 69q-100 0 -172 -74q-60 -60 -88.5 -149.5t-28.5 -179.5q0 -112 57 -181.5t156 -69.5z" />
    <glyph glyph-name="servicemark" unicode="&#x2120;" horiz-adv-x="532" 
d="M153 384q-55 0 -99 49l33 39q36 -39 65 -39q18 0 29 10.5t11 28.5q0 20 -36 53q-54 49 -54 90q0 38 26 62q24 26 66 26q51 0 90 -42l-32 -39q-29 32 -58 32q-16 0 -26.5 -10.5t-10.5 -25.5q0 -18 37 -54q52 -46 52 -89q0 -40 -26 -66q-27 -25 -67 -25zM276 388l68 312h58
l31 -130l86 130h63l-68 -312h-54l46 214l-93 -141h-3l-33 141l-46 -214h-55z" />
    <glyph glyph-name="trademark" unicode="&#x2122;" horiz-adv-x="520" 
d="M100 388l56 259h-61l12 53h179l-12 -53h-62l-56 -259h-56zM263 388l68 312h58l31 -130l87 130h62l-68 -312h-53l46 214l-93 -141h-3l-34 141l-46 -214h-55z" />
    <glyph glyph-name="onethird" unicode="&#x2153;" horiz-adv-x="620" 
d="M409 -7q-72 0 -113 54l41 47q34 -39 74 -39q25 0 39.5 16t14.5 39q0 52 -81 54h-3l3 43l102 95h-124l14 62h209l-10 -51l-119 -107q36 -10 56.5 -34t20.5 -59q0 -53 -35 -86.5t-89 -33.5zM104 337l62 291l-70 -29l6 66l98 38h52l-80 -366h-68zM-4 0l264 363l239 337h64
l-265 -363l-238 -337h-64z" />
    <glyph glyph-name="twothirds" unicode="&#x2154;" horiz-adv-x="675" 
d="M469 -7q-72 0 -113 54l41 47q34 -39 74 -39q25 0 39.5 16t14.5 39q0 52 -81 54h-3l3 43l102 95h-124l14 62h209l-10 -51l-119 -107q36 -10 56.5 -34t20.5 -59q0 -53 -35 -86.5t-89 -33.5zM32 337l13 56l137 126q31 31 42 48.5t11 36.5q0 17 -12 28.5t-31 11.5
q-31 0 -72 -33l-32 49q52 46 111 46q46 0 76 -26.5t30 -68.5q0 -30 -15 -57.5t-57 -64.5l-99 -90h134l-13 -62h-223zM55 0l264 363l239 337h64l-265 -363l-238 -337h-64z" />
    <glyph glyph-name="onefifth" unicode="&#x2155;" horiz-adv-x="620" 
d="M403 -7q-71 0 -116 53l41 49q36 -41 77 -41q29 0 45.5 20t16.5 47q0 25 -14.5 38t-37.5 13q-22 0 -44 -11l-39 25l52 178h184l-14 -62h-129l-23 -79q17 5 33 5q43 0 71.5 -25.5t28.5 -73.5q0 -57 -36 -96.5t-96 -39.5zM104 337l62 291l-70 -29l6 66l98 38h52l-80 -366
h-68zM-4 0l264 363l239 337h64l-265 -363l-238 -337h-64z" />
    <glyph glyph-name="twofifths" unicode="&#x2156;" horiz-adv-x="675" 
d="M468 -7q-71 0 -116 53l41 49q36 -41 77 -41q29 0 45.5 20t16.5 47q0 25 -14.5 38t-37.5 13q-22 0 -44 -11l-39 25l52 178h184l-14 -62h-129l-23 -79q17 5 33 5q43 0 71.5 -25.5t28.5 -73.5q0 -57 -36 -96.5t-96 -39.5zM62 0l264 363l239 337h64l-265 -363l-238 -337h-64z
M32 337l13 56l137 126q31 31 42 48.5t11 36.5q0 17 -12 28.5t-31 11.5q-31 0 -72 -33l-32 49q52 46 111 46q46 0 76 -26.5t30 -68.5q0 -30 -15 -57.5t-57 -64.5l-99 -90h134l-13 -62h-223z" />
    <glyph glyph-name="threefifths" unicode="&#x2157;" horiz-adv-x="675" 
d="M468 -7q-71 0 -116 53l41 49q36 -41 77 -41q29 0 45.5 20t16.5 47q0 25 -14.5 38t-37.5 13q-22 0 -44 -11l-39 25l52 178h184l-14 -62h-129l-23 -79q17 5 33 5q43 0 71.5 -25.5t28.5 -73.5q0 -57 -36 -96.5t-96 -39.5zM51 0l264 363l239 337h64l-265 -363l-238 -337h-64z
M156 330q-72 0 -114 53l41 47q34 -39 74 -39q25 0 39.5 16.5t14.5 39.5q0 53 -81 53h-2l2 43l102 96h-123l13 61h210l-11 -50l-119 -108q36 -9 56.5 -33t20.5 -59q0 -53 -35 -86.5t-88 -33.5z" />
    <glyph glyph-name="fourfifths" unicode="&#x2158;" horiz-adv-x="675" 
d="M169 336l15 73h-146l10 61l177 233h85l-52 -238h37l-12 -56h-38l-15 -73h-61zM107 464h91l35 165h-4zM468 -7q-71 0 -116 53l41 49q36 -41 77 -41q29 0 45.5 20t16.5 47q0 25 -14.5 38t-37.5 13q-22 0 -44 -11l-39 25l52 178h184l-14 -62h-129l-23 -79q17 5 33 5
q43 0 71.5 -25.5t28.5 -73.5q0 -57 -36 -96.5t-96 -39.5zM58 0l264 363l239 337h64l-265 -363l-238 -337h-64z" />
    <glyph glyph-name="onesixth" unicode="&#x2159;" horiz-adv-x="620" 
d="M408 -7q-48 0 -76.5 31.5t-28.5 92.5q0 48 20 112.5t58 102.5t88 38t93 -37l-36 -51q-30 28 -60 28q-25 0 -44 -19q-24 -24 -40 -77q27 23 63 23q34 0 60 -24t26 -72q0 -60 -35 -104t-88 -44zM2 0l264 363l239 337h64l-265 -363l-238 -337h-64zM104 337l62 291l-70 -29
l6 66l98 38h52l-80 -366h-68zM409 52q27 0 43 24.5t16 55.5q0 23 -12.5 36t-31.5 13q-22 0 -38 -14q-21 -21 -21 -63q0 -24 12 -38t32 -14z" />
    <glyph glyph-name="fivesixths" unicode="&#x215a;" horiz-adv-x="675" 
d="M470 -7q-48 0 -76.5 31.5t-28.5 92.5q0 48 20 112.5t58 102.5t88 38t93 -37l-36 -51q-30 28 -60 28q-25 0 -44 -19q-24 -24 -40 -77q27 23 63 23q34 0 60 -24t26 -72q0 -60 -35 -104t-88 -44zM156 330q-71 0 -116 53l41 48q37 -40 78 -40q29 0 45 20t16 47q0 25 -14 38
t-37 13q-19 0 -45 -12l-39 25l52 178h184l-14 -62h-129l-23 -78q20 4 33 4q42 0 71 -25.5t29 -72.5q0 -57 -36 -96.5t-96 -39.5zM53 0l264 363l239 337h64l-265 -363l-238 -337h-64zM471 52q27 0 43 24.5t16 55.5q0 23 -12.5 36t-31.5 13q-22 0 -38 -14q-21 -21 -21 -63
q0 -24 12 -38t32 -14z" />
    <glyph glyph-name="oneeighth" unicode="&#x215b;" horiz-adv-x="620" 
d="M406 -7q-48 0 -81 27t-33 72q0 40 22 67.5t56 36.5q-36 27 -36 69q0 46 33 75.5t84 29.5q48 0 78 -26t30 -68q0 -34 -18.5 -58.5t-49.5 -35.5q41 -26 41 -75t-34.5 -81.5t-91.5 -32.5zM408 46q27 0 43.5 19t16.5 45q0 22 -13.5 36.5t-37.5 14.5q-27 0 -44 -18.5
t-17 -45.5q0 -23 14 -37t38 -14zM444 215q23 0 38.5 16.5t15.5 41.5q0 20 -13 33t-34 13q-23 0 -38 -16.5t-15 -41.5q0 -20 12.5 -33t33.5 -13zM104 337l62 291l-70 -29l6 66l98 38h52l-80 -366h-68zM-2 0l264 363l239 337h64l-265 -363l-238 -337h-64z" />
    <glyph glyph-name="threeeighths" unicode="&#x215c;" horiz-adv-x="675" 
d="M471 -7q-48 0 -81 27t-33 72q0 40 22 67.5t56 36.5q-36 27 -36 69q0 46 33 75.5t84 29.5q48 0 78 -26t30 -68q0 -34 -18.5 -58.5t-49.5 -35.5q41 -26 41 -75t-34.5 -81.5t-91.5 -32.5zM473 46q27 0 43.5 19t16.5 45q0 22 -13.5 36.5t-37.5 14.5q-27 0 -44 -18.5
t-17 -45.5q0 -23 14 -37t38 -14zM509 215q23 0 38.5 16.5t15.5 41.5q0 20 -13 33t-34 13q-23 0 -38 -16.5t-15 -41.5q0 -20 12.5 -33t33.5 -13zM53 0l264 363l239 337h64l-265 -363l-238 -337h-64zM157 330q-72 0 -114 53l41 47q34 -39 74 -39q25 0 39.5 16.5t14.5 39.5
q0 53 -81 53h-2l2 43l102 96h-123l13 61h210l-11 -50l-119 -108q36 -9 56.5 -33t20.5 -59q0 -53 -35 -86.5t-88 -33.5z" />
    <glyph glyph-name="fiveeighths" unicode="&#x215d;" horiz-adv-x="675" 
d="M471 -7q-48 0 -81 27t-33 72q0 40 22 67.5t56 36.5q-36 27 -36 69q0 46 33 75.5t84 29.5q48 0 78 -26t30 -68q0 -34 -18.5 -58.5t-49.5 -35.5q41 -26 41 -75t-34.5 -81.5t-91.5 -32.5zM473 46q27 0 43.5 19t16.5 45q0 22 -13.5 36.5t-37.5 14.5q-27 0 -44 -18.5
t-17 -45.5q0 -23 14 -37t38 -14zM509 215q23 0 38.5 16.5t15.5 41.5q0 20 -13 33t-34 13q-23 0 -38 -16.5t-15 -41.5q0 -20 12.5 -33t33.5 -13zM53 0l264 363l239 337h64l-265 -363l-238 -337h-64zM156 330q-71 0 -116 53l41 48q37 -40 78 -40q29 0 45 20t16 47q0 25 -14 38
t-37 13q-19 0 -45 -12l-39 25l52 178h184l-14 -62h-129l-23 -78q20 4 33 4q42 0 71 -25.5t29 -72.5q0 -57 -36 -96.5t-96 -39.5z" />
    <glyph glyph-name="seveneighths" unicode="&#x215e;" horiz-adv-x="675" 
d="M455 -7q-48 0 -81 27t-33 72q0 40 22 67.5t56 36.5q-36 27 -36 69q0 46 33 75.5t84 29.5q48 0 78 -26t30 -68q0 -34 -18.5 -58.5t-49.5 -35.5q41 -26 41 -75t-34.5 -81.5t-91.5 -32.5zM457 46q27 0 43.5 19t16.5 45q0 22 -13.5 36.5t-37.5 14.5q-27 0 -44 -18.5
t-17 -45.5q0 -23 14 -37t38 -14zM493 215q23 0 38.5 16.5t15.5 41.5q0 20 -13 33t-34 13q-23 0 -38 -16.5t-15 -41.5q0 -20 12.5 -33t33.5 -13zM68 336l187 300h-144l14 64h218l-11 -51l-190 -313h-74zM20 0l264 363l239 337h64l-265 -363l-238 -337h-64z" />
    <glyph glyph-name="minus" unicode="&#x2212;" horiz-adv-x="465" 
d="M49 300l23 104h382l-22 -104h-383z" />
    <glyph glyph-name="Q.alt" horiz-adv-x="572" 
d="M354 711q102 0 153.5 -70t51.5 -185q0 -90 -29.5 -190t-81.5 -168l54 -66l-74 -57l-42 60q-62 -46 -135 -46q-102 0 -153.5 70t-51.5 185q0 101 37.5 215t100.5 178q74 74 170 74zM259 88q39 0 71 24l-66 87l71 56l50 -72q30 57 47.5 134.5t17.5 136.5q0 158 -104 158
q-43 0 -82 -37q-51 -52 -80 -151.5t-29 -177.5q0 -158 104 -158z" />
    <glyph glyph-name="a.alt" horiz-adv-x="475" 
d="M148 -10q-58 0 -91 49.5t-33 136.5q0 89 30 179t80 140q46 46 107 46q85 0 118 -93l18 84h105l-116 -532h-104l16 72q-64 -82 -130 -82zM196 85q33 0 59 28q32 32 53 102t21 126q0 51 -19 78.5t-50 27.5q-30 0 -56 -26q-33 -33 -54 -102.5t-21 -127.5q0 -51 17.5 -78.5
t49.5 -27.5z" />
    <glyph glyph-name="aacute.alt" horiz-adv-x="475" 
d="M263 582l119 149l86 -46l-123 -103h-82zM148 -10q-58 0 -91 49.5t-33 136.5q0 89 30 179t80 140q46 46 107 46q85 0 118 -93l18 84h105l-116 -532h-104l16 72q-64 -82 -130 -82zM196 85q33 0 59 28q32 32 53 102t21 126q0 51 -19 78.5t-50 27.5q-30 0 -56 -26
q-33 -33 -54 -102.5t-21 -127.5q0 -51 17.5 -78.5t49.5 -27.5z" />
    <glyph glyph-name="abreve.alt" horiz-adv-x="475" 
d="M148 -10q-58 0 -91 49.5t-33 136.5q0 89 30 179t80 140q46 46 107 46q85 0 118 -93l18 84h105l-116 -532h-104l16 72q-64 -82 -130 -82zM196 85q33 0 59 28q32 32 53 102t21 126q0 51 -19 78.5t-50 27.5q-30 0 -56 -26q-33 -33 -54 -102.5t-21 -127.5q0 -51 17.5 -78.5
t49.5 -27.5zM317 579q-57 0 -87.5 32.5t-26.5 90.5h67q0 -25 13.5 -39t39.5 -14q50 0 73 53h70q-16 -59 -55.5 -91t-93.5 -32z" />
    <glyph glyph-name="acircumflex.alt" horiz-adv-x="475" 
d="M178 583l119 138h85l59 -138h-71l-43 66l-71 -66h-78zM148 -10q-58 0 -91 49.5t-33 136.5q0 89 30 179t80 140q46 46 107 46q85 0 118 -93l18 84h105l-116 -532h-104l16 72q-64 -82 -130 -82zM196 85q33 0 59 28q32 32 53 102t21 126q0 51 -19 78.5t-50 27.5
q-30 0 -56 -26q-33 -33 -54 -102.5t-21 -127.5q0 -51 17.5 -78.5t49.5 -27.5z" />
    <glyph glyph-name="adieresis.alt" horiz-adv-x="475" 
d="M186 586l22 102h100l-22 -102h-100zM338 586l23 102h100l-23 -102h-100zM148 -10q-58 0 -91 49.5t-33 136.5q0 89 30 179t80 140q46 46 107 46q85 0 118 -93l18 84h105l-116 -532h-104l16 72q-64 -82 -130 -82zM196 85q33 0 59 28q32 32 53 102t21 126q0 51 -19 78.5
t-50 27.5q-30 0 -56 -26q-33 -33 -54 -102.5t-21 -127.5q0 -51 17.5 -78.5t49.5 -27.5z" />
    <glyph glyph-name="agrave.alt" horiz-adv-x="475" 
d="M148 -10q-58 0 -91 49.5t-33 136.5q0 89 30 179t80 140q46 46 107 46q85 0 118 -93l18 84h105l-116 -532h-104l16 72q-64 -82 -130 -82zM196 85q33 0 59 28q32 32 53 102t21 126q0 51 -19 78.5t-50 27.5q-30 0 -56 -26q-33 -33 -54 -102.5t-21 -127.5q0 -51 17.5 -78.5
t49.5 -27.5zM268 582l-91 103l88 46l74 -149h-71z" />
    <glyph glyph-name="amacron.alt" horiz-adv-x="475" 
d="M148 -10q-58 0 -91 49.5t-33 136.5q0 89 30 179t80 140q46 46 107 46q85 0 118 -93l18 84h105l-116 -532h-104l16 72q-64 -82 -130 -82zM196 85q33 0 59 28q32 32 53 102t21 126q0 51 -19 78.5t-50 27.5q-30 0 -56 -26q-33 -33 -54 -102.5t-21 -127.5q0 -51 17.5 -78.5
t49.5 -27.5zM185 590l15 73h259l-15 -73h-259z" />
    <glyph glyph-name="aogonek.alt" horiz-adv-x="475" 
d="M356 -89l-13 -58q-18 -3 -33 -3q-42 1 -65 17.5t-23 44.5q0 40 58 88h-18l16 72q-64 -82 -130 -82q-58 0 -91 49.5t-33 136.5q0 89 30 179t80 140q46 46 107 46q85 0 118 -93l18 84h105l-116 -532h-14q-44 -42 -44 -64q0 -27 48 -25zM196 85q33 0 59 28q32 32 53 102
t21 126q0 51 -19 78.5t-50 27.5q-30 0 -56 -26q-33 -33 -54 -102.5t-21 -127.5q0 -51 17.5 -78.5t49.5 -27.5z" />
    <glyph glyph-name="aring.alt" horiz-adv-x="475" 
d="M427 685q0 -43 -29.5 -74.5t-74.5 -31.5q-38 0 -62.5 24t-24.5 60q0 43 29.5 74.5t74.5 31.5q38 0 62.5 -24.5t24.5 -59.5zM281 667q0 -20 12 -33.5t32 -13.5q25 0 40.5 18t15.5 43q0 20 -12 33.5t-32 13.5q-24 0 -40 -18t-16 -43zM148 -10q-58 0 -91 49.5t-33 136.5
q0 89 30 179t80 140q46 46 107 46q85 0 118 -93l18 84h105l-116 -532h-104l16 72q-64 -82 -130 -82zM196 85q33 0 59 28q32 32 53 102t21 126q0 51 -19 78.5t-50 27.5q-30 0 -56 -26q-33 -33 -54 -102.5t-21 -127.5q0 -51 17.5 -78.5t49.5 -27.5z" />
    <glyph glyph-name="aring.alt2" horiz-adv-x="426" 
d="M220 0l13 63q-52 -72 -124 -72q-50 0 -79.5 35t-29.5 99q0 45 16 89t43 71q46 46 118 46q53 0 110 -26l3 17q7 35 7 51q0 34 -22.5 52t-63.5 18q-49 0 -95 -23l-16 91q55 20 99 25q-13 19 -13 47q0 42 29.5 73t73.5 31q39 0 63 -24t24 -60q0 -56 -46 -87q70 -37 70 -126
q0 -27 -12 -84l-65 -306h-103zM275 538q24 0 40 18t16 43q0 21 -11.5 34t-32.5 13q-24 0 -39.5 -18t-15.5 -43q0 -21 11.5 -34t31.5 -13zM161 72q35 0 61.5 27.5t36.5 73.5l13 62q-38 19 -77 19q-36 0 -60 -24q-33 -33 -33 -90q0 -68 59 -68z" />
    <glyph glyph-name="aringacute.alt" horiz-adv-x="475" 
d="M318 796l110 119l85 -43l-114 -76h-81zM427 685q0 -43 -29.5 -74.5t-74.5 -31.5q-38 0 -62.5 24t-24.5 60q0 43 29.5 74.5t74.5 31.5q38 0 62.5 -24.5t24.5 -59.5zM281 667q0 -20 12 -33.5t32 -13.5q25 0 40.5 18t15.5 43q0 20 -12 33.5t-32 13.5q-24 0 -40 -18t-16 -43z
M148 -10q-58 0 -91 49.5t-33 136.5q0 89 30 179t80 140q46 46 107 46q85 0 118 -93l18 84h105l-116 -532h-104l16 72q-64 -82 -130 -82zM196 85q33 0 59 28q32 32 53 102t21 126q0 51 -19 78.5t-50 27.5q-30 0 -56 -26q-33 -33 -54 -102.5t-21 -127.5q0 -51 17.5 -78.5
t49.5 -27.5z" />
    <glyph glyph-name="aringacute.alt2" horiz-adv-x="426" 
d="M268 714l110 118l85 -43l-114 -75h-81zM220 0l13 63q-52 -72 -124 -72q-50 0 -79.5 35t-29.5 99q0 45 16 89t43 71q46 46 118 46q53 0 110 -26l3 17q7 35 7 51q0 34 -22.5 52t-63.5 18q-49 0 -95 -23l-16 91q55 20 99 25q-13 19 -13 47q0 42 29.5 73t73.5 31q39 0 63 -24
t24 -60q0 -56 -46 -87q70 -37 70 -126q0 -27 -12 -84l-65 -306h-103zM275 538q24 0 40 18t16 43q0 21 -11.5 34t-32.5 13q-24 0 -39.5 -18t-15.5 -43q0 -21 11.5 -34t31.5 -13zM161 72q35 0 61.5 27.5t36.5 73.5l13 62q-38 19 -77 19q-36 0 -60 -24q-33 -33 -33 -90
q0 -68 59 -68z" />
    <glyph glyph-name="atilde.alt" horiz-adv-x="475" 
d="M148 -10q-58 0 -91 49.5t-33 136.5q0 89 30 179t80 140q46 46 107 46q85 0 118 -93l18 84h105l-116 -532h-104l16 72q-64 -82 -130 -82zM196 85q33 0 59 28q32 32 53 102t21 126q0 51 -19 78.5t-50 27.5q-30 0 -56 -26q-33 -33 -54 -102.5t-21 -127.5q0 -51 17.5 -78.5
t49.5 -27.5zM419 704l59 -16q-21 -55 -44 -80.5t-55 -25.5q-26 0 -61 22q-32 18 -43 18q-14 0 -24 -10t-22 -35l-59 17q22 57 44 81.5t54 24.5q24 0 62 -22q32 -18 43 -18q25 0 46 44z" />
    <glyph glyph-name="three.alt" horiz-adv-x="434" 
d="M168 -10q-116 0 -193 90l66 78q59 -69 125 -69q49 0 80.5 34.5t31.5 84.5q0 48 -35.5 78t-102.5 30h-10l19 88h21q75 0 121 33.5t46 90.5q0 37 -24.5 60t-66.5 23q-55 0 -111 -38l-40 85q79 52 165 52q83 0 134 -46.5t51 -121.5q0 -66 -40 -118t-117 -74q97 -47 97 -153
q0 -85 -61.5 -146t-155.5 -61z" />
    <glyph glyph-name="registered.alt" horiz-adv-x="634" 
d="M374 711q112 0 179 -78.5t67 -205.5q0 -97 -30.5 -193t-96.5 -161q-84 -84 -201 -84q-112 0 -179 78.5t-67 205.5q0 96 31 192.5t96 161.5q84 84 201 84zM295 23q99 0 173 74q59 60 87.5 149.5t28.5 180.5q0 112 -57 181t-156 69q-100 0 -172 -74q-60 -60 -88.5 -149.5
t-28.5 -179.5q0 -112 57 -181.5t156 -69.5zM281 302l-30 -136h-63l84 383h72q73 0 106 -33q28 -27 28 -72q0 -60 -39 -99q-21 -21 -53 -31l41 -148h-66l-35 137q-3 -1 -45 -1zM293 358h32q44 0 68 24q22 20 22 57q0 23 -13 36q-15 16 -55 16h-25z" />
    <glyph glyph-name="R_p" horiz-adv-x="878" 
d="M-8 0l153 700h110q109 0 161.5 -53.5t52.5 -134.5q0 -82 -41.5 -146.5t-116.5 -92.5l63 -273h-105l-57 253q-3 -1 -64 -1l-55 -252h-101zM402 -141l146 673h98l-16 -71q56 81 119 81q52 0 82.5 -44t30.5 -129q0 -89 -30.5 -187t-79.5 -147q-45 -45 -98 -45q-77 0 -106 92
l-48 -223h-98zM168 343h49q71 0 111 47t40 119q0 46 -26.5 71.5t-75.5 25.5h-42zM635 82q25 0 47 22q34 34 54.5 109t20.5 137q0 100 -58 100q-27 0 -49 -24q-34 -34 -55 -107t-21 -133q0 -49 16 -76.5t45 -27.5z" />
    <glyph glyph-name="onehalf.alt" horiz-adv-x="675" 
d="M43 337l13 57h80l51 236l-81 -31l5 64l108 41h51l-67 -310h72l-12 -57h-220zM343 0l12 57l138 126q30 29 41.5 47t11.5 37q0 18 -12 29t-32 11q-33 0 -72 -33l-31 50q54 46 111 46q46 0 76 -27t30 -69q0 -29 -15 -56.5t-58 -65.5l-98 -90h134l-14 -62h-222zM66 0l264 363
l239 337h64l-265 -363l-238 -337h-64z" />
    <glyph glyph-name="onethird.alt" horiz-adv-x="675" 
d="M43 337l13 57h80l51 236l-81 -31l5 64l108 41h51l-67 -310h72l-12 -57h-220zM464 -7q-72 0 -113 54l41 47q34 -39 74 -39q25 0 39.5 16t14.5 39q0 52 -81 54h-3l3 43l102 95h-124l14 62h209l-10 -51l-119 -107q36 -10 56.5 -34t20.5 -59q0 -53 -35 -86.5t-89 -33.5zM60 0
l264 363l239 337h64l-265 -363l-238 -337h-64z" />
    <glyph glyph-name="onequarter.alt" horiz-adv-x="675" 
d="M47 337l13 57h80l51 236l-81 -31l5 64l108 41h51l-67 -310h72l-12 -57h-220zM75 0l264 363l239 337h64l-265 -363l-238 -337h-64zM471 -1l16 73h-147l10 61l177 234h85l-51 -238h37l-12 -57h-38l-15 -73h-62zM410 128h91l35 165h-4z" />
    <glyph glyph-name="onefifth.alt" horiz-adv-x="675" 
d="M43 337l13 57h80l51 236l-81 -31l5 64l108 41h51l-67 -310h72l-12 -57h-220zM465 -7q-71 0 -116 53l41 49q36 -41 77 -41q29 0 45.5 20t16.5 47q0 25 -14.5 38t-37.5 13q-22 0 -44 -11l-39 25l52 178h184l-14 -62h-129l-23 -79q17 5 33 5q43 0 71.5 -25.5t28.5 -73.5
q0 -57 -36 -96.5t-96 -39.5zM65 0l264 363l239 337h64l-265 -363l-238 -337h-64z" />
    <glyph glyph-name="onesixth.alt" horiz-adv-x="675" 
d="M475 -7q-48 0 -76.5 31.5t-28.5 92.5q0 48 20 112.5t58 102.5t88 38t93 -37l-36 -51q-30 28 -60 28q-25 0 -44 -19q-24 -24 -40 -77q27 23 63 23q34 0 60 -24t26 -72q0 -60 -35 -104t-88 -44zM68 0l264 363l239 337h64l-265 -363l-238 -337h-64zM43 337l13 57h80l51 236
l-81 -31l5 64l108 41h51l-67 -310h72l-12 -57h-220zM476 52q27 0 43 24.5t16 55.5q0 23 -12.5 36t-31.5 13q-22 0 -38 -14q-21 -21 -21 -63q0 -24 12 -38t32 -14z" />
    <glyph glyph-name="oneeighth.alt" horiz-adv-x="675" 
d="M41 337l13 57h80l51 236l-81 -31l5 64l108 41h51l-67 -310h72l-12 -57h-220zM473 -7q-48 0 -81 27t-33 72q0 40 22 67.5t56 36.5q-36 27 -36 69q0 46 33 75.5t84 29.5q48 0 78 -26t30 -68q0 -34 -18.5 -58.5t-49.5 -35.5q41 -26 41 -75t-34.5 -81.5t-91.5 -32.5zM475 46
q27 0 43.5 19t16.5 45q0 22 -13.5 36.5t-37.5 14.5q-27 0 -44 -18.5t-17 -45.5q0 -23 14 -37t38 -14zM511 215q23 0 38.5 16.5t15.5 41.5q0 20 -13 33t-34 13q-23 0 -38 -16.5t-15 -41.5q0 -20 12.5 -33t33.5 -13zM65 0l264 363l239 337h64l-265 -363l-238 -337h-64z" />
    <glyph glyph-name="one.sup_alt" 
d="M91 447l13 58h80l51 236l-82 -32l6 65l108 41h51l-67 -310h72l-13 -58h-219z" />
    <glyph glyph-name="one.inf_alt" 
d="M-34 -132l13 58h80l51 236l-82 -32l6 65l108 41h51l-67 -310h72l-13 -58h-219z" />
    <glyph glyph-name="zero.tab" horiz-adv-x="450" 
d="M436 503q0 -109 -39.5 -250t-106.5 -208q-56 -55 -124 -55q-74 0 -114 52.5t-40 154.5q0 109 39.5 250t106.5 208q56 55 124 55q74 0 114 -52.5t40 -154.5zM112 193q0 -58 15 -82.5t46 -24.5q26 0 50 24q43 43 78 177.5t35 219.5q0 58 -15 82.5t-46 24.5q-26 0 -50 -24
q-43 -43 -78 -177.5t-35 -219.5z" />
    <glyph glyph-name="one.tab" horiz-adv-x="450" 
d="M-20 0l20 92h139l107 492l-145 -60l11 105l190 75h76l-133 -612h124l-21 -92h-368z" />
    <glyph glyph-name="two.tab" horiz-adv-x="450" 
d="M-35 0l18 86l255 283q89 98 89 165q0 36 -22.5 55t-54.5 19q-49 0 -122 -66l-55 76q90 92 190 92q79 0 125.5 -46t46.5 -119q0 -59 -29.5 -111t-86.5 -114l-198 -218h237l-22 -102h-371z" />
    <glyph glyph-name="three.tab" horiz-adv-x="450" 
d="M154 -10q-120 0 -191 90l67 77q56 -68 126 -68q52 0 84.5 36.5t32.5 88.5q0 53 -39.5 81.5t-105.5 30.5h-4l4 73l190 200h-222l22 101h355l-20 -90l-207 -216q65 -20 100.5 -64.5t35.5 -109.5q0 -90 -61.5 -160t-166.5 -70z" />
    <glyph glyph-name="three.tab_alt" horiz-adv-x="450" 
d="M163 -10q-120 0 -196 93l66 78q56 -73 127 -73q51 0 80.5 33.5t29.5 84.5q0 50 -38.5 80t-104.5 30h-9l19 88h25q77 2 122 35.5t45 88.5q0 38 -24.5 60.5t-65.5 22.5q-55 0 -112 -40l-40 84q73 55 167 55q83 0 133.5 -47t50.5 -122q0 -70 -39 -120t-117 -71
q94 -47 94 -154q0 -85 -58.5 -145.5t-154.5 -60.5z" />
    <glyph glyph-name="four.tab" horiz-adv-x="450" 
d="M194 0l31 144h-239l12 92l314 468h132l-102 -470h63l-19 -90h-64l-31 -144h-97zM91 233h154l69 321h-5z" />
    <glyph glyph-name="five.tab" horiz-adv-x="450" 
d="M156 -10q-105 0 -182 82l62 83q62 -65 122 -65q57 0 90.5 47t33.5 109q0 97 -91 97q-43 0 -83 -23l-55 41l94 339h309l-22 -100h-223l-48 -176q30 11 66 11q72 0 117 -47.5t45 -129.5q0 -108 -63 -188t-172 -80z" />
    <glyph glyph-name="six.tab" horiz-adv-x="450" 
d="M192 -10q-74 0 -120 46q-56 56 -56 184q0 102 37.5 228.5t108.5 198.5q65 63 147 63q83 0 152 -57l-55 -84q-44 44 -99 44q-43 0 -78 -35q-56 -56 -88 -178q54 50 116 50q70 0 111 -48.5t41 -132.5q0 -67 -23 -128.5t-74 -106t-120 -44.5zM197 82q52 0 80 56t28 120
q0 103 -80 103q-34 0 -64 -28q-47 -47 -47 -144q0 -51 22 -79t61 -28z" />
    <glyph glyph-name="seven.tab" horiz-adv-x="450" 
d="M14 0l327 597h-254l22 103h368l-19 -90l-330 -610h-114z" />
    <glyph glyph-name="eight.tab" horiz-adv-x="450" 
d="M181 -10q-84 0 -134 48t-50 128q0 69 35 125.5t101 82.5q-27 20 -43.5 56t-16.5 77q0 84 54 143.5t142 59.5q77 0 123.5 -47t46.5 -123q0 -65 -32 -116.5t-89 -73.5q72 -48 72 -144q0 -88 -55.5 -152t-153.5 -64zM184 76q48 0 77 42t29 101q0 47 -22.5 73.5t-62.5 26.5
q-47 0 -77 -44t-30 -101q0 -46 23.5 -72t62.5 -26zM244 402q43 0 69 39.5t26 95.5q0 40 -19.5 63.5t-54.5 23.5q-43 0 -68.5 -38.5t-25.5 -95.5q0 -38 19 -63t54 -25z" />
    <glyph glyph-name="nine.tab" horiz-adv-x="450" 
d="M139 -10q-85 0 -159 63l55 84q54 -51 107 -51q43 0 78 35q55 55 86 171q-54 -50 -117 -50q-70 0 -110 48t-40 134q0 112 58.5 199t159.5 87q72 0 119 -47q57 -57 57 -184q0 -102 -37.5 -228.5t-109.5 -197.5q-61 -63 -147 -63zM221 331q38 0 63 27q50 50 50 148
q0 112 -82 112q-52 0 -81 -57t-29 -123q0 -107 79 -107z" />
    <glyph glyph-name="period.tab" horiz-adv-x="225" 
d="M-23 0l30 136h119l-30 -136h-119z" />
    <glyph glyph-name="comma.tab" horiz-adv-x="225" 
d="M-65 -142l-6 45q48 9 70 33.5t27 63.5h-49l30 136h119l-27 -119q-17 -77 -54 -113t-110 -46z" />
    <glyph glyph-name="colon.tab" horiz-adv-x="225" 
d="M-23 0l30 135h118l-30 -135h-118zM63 396l30 135h118l-30 -135h-118z" />
    <glyph glyph-name="semicolon.tab" horiz-adv-x="225" 
d="M-65 -142l-6 45q48 9 70 33.5t27 63.5h-49l30 135h118l-26 -118q-17 -78 -54 -113.5t-110 -45.5zM63 396l30 135h118l-30 -135h-118z" />
    <glyph glyph-name="twodotleader.tab" horiz-adv-x="450" 
d="M-21 0l28 131h116l-29 -131h-115zM202 0l30 131h115l-29 -131h-116z" />
    <glyph glyph-name="periodcentered.tab" horiz-adv-x="225" 
d="M28 238l30 136h119l-30 -136h-119z" />
    <glyph glyph-name="slash.tab" horiz-adv-x="450" 
d="M-100 -110l535 890h95l-534 -890h-96z" />
    <glyph glyph-name="bar.tab" horiz-adv-x="225" 
d="M-30 -110l195 890h83l-194 -890h-84z" />
    <glyph glyph-name="underscore.tab" horiz-adv-x="450" 
d="M-112 -156l18 83h452l-19 -83h-451z" />
    <glyph glyph-name="dollar.tab" horiz-adv-x="450" 
d="M307 775h74l-23 -86q58 -21 110 -76l-71 -75q-39 42 -66 55l-55 -208q57 -51 82 -91t25 -93q0 -84 -57 -144t-149 -60h-7l-28 -102h-74l31 114q-74 22 -135 93l66 77q49 -55 97 -75l59 214q-58 50 -84.5 93t-26.5 95q0 83 58.5 140t143.5 57h10zM276 193q0 39 -33 75
l-48 -174q37 5 59 32.5t22 66.5zM183 517q0 -40 36 -80l44 169q-36 -4 -58 -29t-22 -60z" />
    <glyph glyph-name="sterling.tab" horiz-adv-x="450" 
d="M-38 0l15 68l65 23l42 198h-59l21 93h59l26 124q24 104 71 151q51 51 131 51q100 0 154 -78l-74 -72q-35 50 -81 50q-32 0 -55 -23q-26 -26 -41 -91l-23 -112h156l-20 -93h-157l-42 -193h215l-21 -96h-382z" />
    <glyph glyph-name="Euro.tab" horiz-adv-x="450" 
d="M32 397l17 75h58q36 110 100 174q65 64 144 64q84 0 142 -71l-65 -74q-34 45 -78 45q-38 0 -71 -33t-60 -105h143l-17 -75h-151q-10 -41 -16 -89h148l-16 -75h-136v-3q0 -140 87 -140q35 0 80 33l38 -84q-65 -49 -131 -49q-81 0 -130.5 59.5t-49.5 177.5v5h-71l16 76h59
q5 51 14 89h-54z" />
    <glyph glyph-name="yen.tab" horiz-adv-x="450" 
d="M39 260l17 77h95l-68 363h108l42 -296l169 296h116l-226 -363h96l-17 -77h-115l-17 -77h115l-17 -77h-115l-23 -106h-102l23 106h-114l16 77h115l16 77h-114z" />
    <glyph glyph-name="cent.tab" horiz-adv-x="450" 
d="M384 705l-25 -89q55 -17 96 -70l-69 -71q-26 35 -55 48l-93 -350q40 1 93 41l44 -78q-68 -56 -145 -56h-15l-23 -86h-75l29 102q-107 47 -107 189q0 77 27.5 153t73.5 122q64 64 149 66l21 79h74zM141 291q0 -63 34 -95l87 331q-26 -9 -49 -32q-33 -33 -52.5 -91.5
t-19.5 -112.5z" />
    <glyph glyph-name="numbersign.tab" horiz-adv-x="450" 
d="M20 0l38 165h-63l17 94h68l42 185h-66l19 94h69l36 162h76l-37 -162h101l38 162h75l-37 -162h63l-19 -94h-67l-42 -185h65l-18 -94h-69l-37 -165h-75l37 165h-101l-37 -165h-76zM155 259h101l42 185h-101z" />
    <glyph glyph-name="paragraph.tab" horiz-adv-x="450" 
d="M198 0l50 232q-96 9 -146 59t-50 132q0 124 76 200q77 77 214 77h116l-152 -700h-108z" />
    <glyph glyph-name="section.tab" horiz-adv-x="450" 
d="M165 -9q-86 0 -153 54l48 78q55 -44 105 -44q28 0 45.5 14t17.5 36q0 21 -16.5 38t-64.5 46q-65 39 -93 70t-28 76q0 50 34 85t97 42q-36 38 -36 86q0 54 43.5 96t118.5 42q82 0 153 -54l-48 -79q-58 45 -105 45q-28 0 -45.5 -14.5t-17.5 -36.5q0 -20 16.5 -37t64.5 -46
q65 -39 93 -70t28 -76q0 -50 -34.5 -85t-96.5 -43q36 -38 36 -86q0 -54 -43.5 -95.5t-118.5 -41.5zM256 271q30 0 50.5 16t20.5 42q0 37 -61 76q-39 25 -74 25q-31 0 -51 -16t-20 -43q0 -36 61 -76q40 -24 74 -24z" />
    <glyph glyph-name="degree.tab" horiz-adv-x="450" 
d="M283 708q63 0 100.5 -42t37.5 -114q0 -52 -18.5 -105t-55.5 -90q-50 -50 -113 -50t-100.5 42.5t-37.5 113.5q0 52 18.5 105t55.5 90q50 50 113 50zM238 377q32 0 59 27q25 25 38 66t13 79q0 43 -19 66t-50 23q-32 0 -59 -27q-25 -25 -38 -66t-13 -79q0 -43 19 -66t50 -23
z" />
    <glyph glyph-name="percent.tab" horiz-adv-x="450" 
d="M183 707q87 0 87 -114q0 -49 -20.5 -116.5t-57.5 -104.5q-30 -30 -66 -30q-40 0 -62.5 30t-22.5 86q0 53 18 117t55 101q31 31 69 31zM267 -7q-87 0 -87 114q0 48 21 116t57 105q30 30 66 30q40 0 62.5 -30t22.5 -85q0 -53 -18 -117.5t-55 -101.5q-31 -31 -69 -31z
M422 700h60l-245 -359l-209 -341h-60l244 358zM179 645q-11 0 -22 -11q-21 -21 -36.5 -82.5t-15.5 -101.5q0 -46 28 -46q12 0 22 10q22 22 37 83t15 101q0 47 -28 47zM271 55q13 0 22 11q21 21 36.5 82.5t15.5 101.5q0 47 -28 47q-11 0 -22 -11q-22 -22 -36.5 -82.5
t-14.5 -101.5q0 -47 27 -47z" />
    <glyph glyph-name="quotedbl.tab" horiz-adv-x="450" 
d="M91 403l81 297h114l-2 -8l-145 -289h-48zM277 403l81 297h114l-2 -8l-145 -289h-48z" />
    <glyph glyph-name="quotesingle.tab" horiz-adv-x="225" 
d="M73 403l81 297h114l-2 -8l-146 -289h-47z" />
    <glyph glyph-name="plus.tab" horiz-adv-x="450" 
d="M135 159l32 146h-139l20 94h139l32 146h94l-32 -146h141l-21 -94h-140l-32 -146h-94z" />
    <glyph glyph-name="minus.tab" horiz-adv-x="450" 
d="M28 301l22 102h372l-22 -102h-372z" />
    <glyph glyph-name="divide.tab" horiz-adv-x="450" 
d="M121 124l24 110h107l-24 -110h-107zM29 305l20 95h371l-20 -95h-371zM197 470l24 110h107l-24 -110h-107z" />
    <glyph glyph-name="equal.tab" horiz-adv-x="450" 
d="M14 202l21 99h357l-21 -99h-357zM58 403l21 99h357l-21 -99h-357z" />
    <glyph glyph-name="multiply.tab" horiz-adv-x="450" 
d="M75 159l-62 70l150 128l-90 124l80 60l84 -120l143 124l61 -69l-150 -129l90 -124l-80 -60l-84 121z" />
    <glyph glyph-name="less.tab" horiz-adv-x="450" 
d="M340 113l-305 192l20 94l390 195l-26 -118l-269 -129l214 -127z" />
    <glyph glyph-name="greater.tab" horiz-adv-x="450" 
d="M109 591l305 -192l-20 -94l-390 -195l26 118l269 129l-213 127z" />
    <glyph glyph-name="plusminus.tab" horiz-adv-x="450" 
d="M143 192l31 143h-138l20 93h139l31 143h94l-31 -143h139l-21 -93h-138l-32 -143h-94zM-32 18l19 92h371l-20 -92h-370z" />
    <glyph glyph-name="space.tab" horiz-adv-x="225" 
 />
    <glyph glyph-name="NUL" horiz-adv-x="0" 
 />
    <glyph glyph-name="hfjslug" horiz-adv-x="694" 
d="M255 276h8l11 34h1l11 -34h8l14 47h-8l-10 -35h-1l-11 35h-7l-11 -35h-1l-10 35h-8zM321 388q19 0 29 24h1l12 -24l12 6l-17 32q6 14 13 39l-13 3q-4 -18 -8 -30h-1l-16 31q23 21 23 42q0 31 -27 31q-12 0 -20 -9t-8 -22t14 -39q-23 -18 -23 -47q0 -16 8 -26.5t21 -10.5z
M50 -200v303q14 0 23 9.5t9 22.5t-9.5 22.5t-22.5 9.5v554h100l30 79h334l29 -79h101v-921h-208l-8 14h-163l-8 -14h-207zM523 277h8v12l8 8l15 -20h10l-20 26l18 20h-10l-20 -24h-1v24h-8v-46zM193 277h34v7h-26v13h23v7h-23v12h26v7h-34v-46zM184 391h15v79h47v-79h15v172
h-15v-79h-47v79h-15v-172zM132 277h8v32l25 -32h7v46h-8v-32l-25 32h-7v-46zM400 391h15v78h38v14h-38v66h43v14h-58v-172zM468 277h8v15h12l10 -15h9l-12 17q10 4 10 14q0 15 -17 15h-20v-46zM366 277h8v17l18 29h-9l-13 -22l-13 22h-9l18 -29v-17zM481 390q31 0 31 36v137
h-16v-137q0 -22 -16 -22q-8 0 -20 5v-15q10 -4 21 -4zM476 299v17h11q10 0 10 -8q0 -9 -10 -9h-11zM322 402q-16 0 -16 25q0 19 16 35l20 -39q-8 -21 -20 -21zM327 479q-12 22 -12 32q0 19 14 19q13 0 13 -19q0 -15 -15 -32zM426 283q-16 0 -16 17q0 6 4.5 11.5t11.5 5.5
t11.5 -5.5t4.5 -11.5q0 -17 -16 -17zM426 276q10 0 17 7t7 17q0 9 -7 16.5t-17 7.5t-17 -7.5t-7 -16.5q0 -10 7 -17t17 -7z" />
    <glyph glyph-name="i.dot" horiz-adv-x="215" 
d="M-3 0l116 532h104l-115 -532h-105zM127 605l23 107h109l-24 -107h-108z" />
    <glyph glyph-name="zero.num" 
d="M315 579q0 -50 -18.5 -113.5t-55.5 -99.5q-34 -36 -81 -36q-49 0 -75 33t-26 94q0 50 18.5 113.5t54.5 100.5q38 36 82 36q49 0 75 -33t26 -95zM126 454q0 -62 38 -62q16 0 30 14q24 24 39 81.5t15 95.5q0 62 -38 62q-16 0 -30 -15q-24 -24 -39 -81t-15 -95z" />
    <glyph glyph-name="one.num" horiz-adv-x="244" 
d="M102 337l62 291l-70 -29l6 66l98 38h52l-80 -366h-68z" />
    <glyph glyph-name="one.num_alt" 
d="M48 337l13 57h80l51 236l-81 -31l5 64l108 41h51l-67 -310h72l-12 -57h-220z" />
    <glyph glyph-name="two.num" 
d="M36 337l13 56l137 126q31 31 42 48.5t11 36.5q0 17 -12 28.5t-31 11.5q-31 0 -72 -33l-32 49q52 46 111 46q46 0 76 -26.5t30 -68.5q0 -30 -15 -57.5t-57 -64.5l-99 -90h134l-13 -62h-223z" />
    <glyph glyph-name="three.num" 
d="M157 330q-72 0 -114 53l41 47q34 -39 74 -39q25 0 39.5 16.5t14.5 39.5q0 53 -81 53h-2l2 43l102 96h-123l13 61h210l-11 -50l-119 -108q36 -9 56.5 -33t20.5 -59q0 -53 -35 -86.5t-88 -33.5z" />
    <glyph glyph-name="four.num" 
d="M176 336l15 73h-146l10 61l177 233h85l-52 -238h37l-12 -56h-38l-15 -73h-61zM114 464h91l35 165h-4z" />
    <glyph glyph-name="five.num" 
d="M156 330q-71 0 -116 53l41 48q37 -40 78 -40q29 0 45 20t16 47q0 25 -14 38t-37 13q-19 0 -45 -12l-39 25l52 178h184l-14 -62h-129l-23 -78q20 4 33 4q42 0 71 -25.5t29 -72.5q0 -57 -36 -96.5t-96 -39.5z" />
    <glyph glyph-name="six.num" 
d="M167 330q-47 0 -76 31.5t-29 91.5q0 48 20.5 113t57.5 103q38 38 89 38q49 0 92 -37l-36 -51q-27 27 -59 27q-26 0 -45 -19q-25 -25 -39 -76q24 22 62 22q35 0 60.5 -23.5t25.5 -72.5q0 -60 -35 -103.5t-88 -43.5zM168 389q28 0 43.5 24t15.5 55q0 24 -12 37t-32 13
q-23 0 -37 -15q-22 -22 -22 -62q0 -24 12 -38t32 -14z" />
    <glyph glyph-name="seven.num" 
d="M61 336l187 300h-144l14 64h218l-11 -51l-190 -313h-74z" />
    <glyph glyph-name="eight.num" 
d="M165 330q-51 0 -82.5 27.5t-31.5 71.5q0 39 22 66t55 37q-35 27 -35 70q0 46 32.5 75.5t83.5 29.5q48 0 78 -26.5t30 -68.5q0 -33 -18.5 -58t-48.5 -35q41 -29 41 -75q0 -49 -34.5 -81.5t-91.5 -32.5zM167 382q26 0 43 19t17 45q0 22 -14 37t-37 15q-27 0 -44 -18.5
t-17 -44.5q0 -24 14 -38.5t38 -14.5zM202 552q23 0 38.5 16t15.5 41q0 20 -13 33t-34 13q-23 0 -38 -16t-15 -41q0 -20 12.5 -33t33.5 -13z" />
    <glyph glyph-name="nine.num" 
d="M145 330q-52 0 -97 42l35 50q36 -32 65 -32q25 0 44 19q26 26 39 73q-27 -23 -62 -23t-60.5 24.5t-25.5 73.5q0 61 35.5 105.5t88.5 44.5q47 0 76 -32t29 -92q0 -47 -20.5 -112t-57.5 -103q-38 -38 -89 -38zM190 515q21 0 37 14q23 23 23 65q0 25 -12 39.5t-32 14.5
q-28 0 -44 -25t-16 -57q0 -24 12 -37.5t32 -13.5z" />
    <glyph glyph-name="zero.den" 
d="M242 243q0 -51 -18.5 -114t-55.5 -100q-36 -36 -82 -36q-49 0 -75 33t-26 95q0 49 19 113t55 100t82 36q48 0 74.5 -33t26.5 -94zM52 117q0 -62 38 -62q16 0 31 15q24 24 39 81t15 95q0 62 -38 62q-15 0 -31 -14q-24 -24 -39 -81.5t-15 -95.5z" />
    <glyph glyph-name="one.den" horiz-adv-x="244" 
d="M28 0l63 292l-70 -29l6 65l98 39h51l-79 -367h-69z" />
    <glyph glyph-name="one.den_alt" 
d="M-25 0l13 58h80l51 236l-82 -32l6 65l108 41h51l-67 -310h72l-13 -58h-219z" />
    <glyph glyph-name="two.den" 
d="M-37 0l12 57l138 126q30 29 41.5 47t11.5 37q0 18 -12 29t-32 11q-33 0 -72 -33l-31 50q54 46 111 46q46 0 76 -27t30 -69q0 -29 -15 -56.5t-58 -65.5l-98 -90h134l-14 -62h-222z" />
    <glyph glyph-name="three.den" 
d="M83 -7q-72 0 -113 54l41 47q34 -39 74 -39q25 0 39.5 16t14.5 39q0 52 -81 54h-3l3 43l102 95h-124l14 62h209l-10 -51l-119 -107q36 -10 56.5 -34t20.5 -59q0 -53 -35 -86.5t-89 -33.5z" />
    <glyph glyph-name="four.den" 
d="M102 -1l16 73h-147l10 61l177 234h85l-51 -238h37l-12 -57h-38l-15 -73h-62zM41 128h91l35 165h-4z" />
    <glyph glyph-name="five.den" 
d="M83 -7q-71 0 -116 53l41 49q36 -41 77 -41q29 0 45.5 20t16.5 47q0 25 -14.5 38t-37.5 13q-22 0 -44 -11l-39 25l52 178h184l-14 -62h-129l-23 -79q17 5 33 5q43 0 71.5 -25.5t28.5 -73.5q0 -57 -36 -96.5t-96 -39.5z" />
    <glyph glyph-name="six.den" 
d="M94 -7q-48 0 -76.5 31.5t-28.5 92.5q0 48 20 112.5t58 102.5t88 38t93 -37l-36 -51q-30 28 -60 28q-25 0 -44 -19q-24 -24 -40 -77q27 23 63 23q34 0 60 -24t26 -72q0 -60 -35 -104t-88 -44zM95 52q27 0 43 24.5t16 55.5q0 23 -12.5 36t-31.5 13q-22 0 -38 -14
q-21 -21 -21 -63q0 -24 12 -38t32 -14z" />
    <glyph glyph-name="seven.den" 
d="M-12 -1l187 301h-144l13 64h219l-11 -52l-190 -313h-74z" />
    <glyph glyph-name="eight.den" 
d="M91 -7q-48 0 -81 27t-33 72q0 40 22 67.5t56 36.5q-36 27 -36 69q0 46 33 75.5t84 29.5q48 0 78 -26t30 -68q0 -34 -18.5 -58.5t-49.5 -35.5q41 -26 41 -75t-34.5 -81.5t-91.5 -32.5zM93 46q27 0 43.5 19t16.5 45q0 22 -13.5 36.5t-37.5 14.5q-27 0 -44 -18.5t-17 -45.5
q0 -23 14 -37t38 -14zM129 215q23 0 38.5 16.5t15.5 41.5q0 20 -13 33t-34 13q-23 0 -38 -16.5t-15 -41.5q0 -20 12.5 -33t33.5 -13z" />
    <glyph glyph-name="nine.den" 
d="M72 -7q-49 0 -98 42l36 51q34 -32 65 -32q25 0 44 19q23 22 39 72q-28 -22 -62 -22q-35 0 -60.5 24t-25.5 74q0 61 35 105t89 44q47 0 75.5 -31.5t28.5 -91.5q0 -48 -20 -113t-58 -103t-88 -38zM117 178q22 0 37 15q23 23 23 64q0 26 -12 40t-33 14q-28 0 -43.5 -24
t-15.5 -57q0 -25 12 -38.5t32 -13.5z" />
    <glyph glyph-name="caron.alt" horiz-adv-x="500" 
d="M256 569l43 162h80v-2l-77 -160h-46z" />
    <glyph glyph-name="acute.cap" horiz-adv-x="500" 
d="M265 744l119 130l91 -46l-124 -84h-86z" />
    <glyph glyph-name="hungarumlaut.cap" horiz-adv-x="500" 
d="M209 744l119 130l84 -46l-121 -84h-82zM348 744l118 130l84 -46l-121 -84h-81z" />
    <glyph glyph-name="grave.cap" horiz-adv-x="500" 
d="M361 744l-96 84l91 46l80 -130h-75z" />
    <glyph glyph-name="circumflex.cap" horiz-adv-x="500" 
d="M218 745l117 121h92l65 -121h-77l-45 53l-68 -53h-84z" />
    <glyph glyph-name="caron.cap" horiz-adv-x="500" 
d="M518 866l-117 -121h-92l-65 121h78l44 -53l68 53h84z" />
    <glyph glyph-name="breve.cap" horiz-adv-x="500" 
d="M358 742q-57 0 -88.5 29.5t-22.5 83.5h66q3 -43 56 -43q51 0 70 43h72q-15 -55 -56 -84t-97 -29z" />
    <glyph glyph-name="tilde.cap" horiz-adv-x="500" 
d="M267 740l-60 18q23 56 44.5 80t53.5 24q26 0 68 -21q32 -16 44 -16q14 0 23.5 9t22.5 32l60 -18q-23 -56 -44.5 -80t-53.5 -24q-24 0 -66 20q-32 17 -46 17t-23 -9t-23 -32z" />
    <glyph glyph-name="macron.cap" horiz-adv-x="500" 
d="M220 752l16 76h275l-16 -76h-275z" />
    <glyph glyph-name="dieresis.cap" horiz-adv-x="500" 
d="M223 747l22 101h103l-22 -101h-103zM385 747l21 101h103l-22 -101h-102z" />
    <glyph glyph-name="dotaccent.cap" horiz-adv-x="500" 
d="M303 747l22 101h104l-21 -101h-105z" />
    <glyph glyph-name="ring.cap" horiz-adv-x="500" 
d="M341 921q40 0 64.5 -23t24.5 -57q0 -43 -30.5 -71.5t-76.5 -28.5q-40 0 -64.5 23t-24.5 57q0 42 30.5 71t76.5 29zM327 782q24 0 40 16t16 38q0 19 -12 31.5t-34 12.5q-24 0 -40 -16t-16 -38q0 -19 12.5 -31.5t33.5 -12.5z" />
    </font>
</defs>
</svg>
