<?xml version="1.0" standalone="no"?>
<!DOCTYPE svg PUBLIC "-//W3C//DTD SVG 1.1//EN" "http://www.w3.org/Graphics/SVG/1.1/DTD/svg11.dtd" >
<svg xmlns="http://www.w3.org/2000/svg" xmlns:xlink="http://www.w3.org/1999/xlink" version="1.1">
<metadata>
Created by FontForge 20170731 at Thu Oct 16 17:28:25 2008
 By ,,,
Copyright (C) 2005, 2008 Hoefler &#38; Frere-Jones. http://www.typography.com
</metadata>
<defs>
<font id="GothamXNarrow-BoldItalic" horiz-adv-x="300" >
  <font-face 
    font-family="Gotham XNarrow Bold"
    font-weight="400"
    font-style="italic"
    font-stretch="condensed"
    units-per-em="1000"
    panose-1="0 0 0 0 0 0 0 0 0 0"
    ascent="800"
    descent="-200"
    x-height="536"
    cap-height="700"
    bbox="-251 -249 960 967"
    underline-thickness="50"
    underline-position="-200"
    slope="-13"
    unicode-range="U+0020-FB04"
  />
<missing-glyph horiz-adv-x="500" 
d="M0 -200v1000h500v-1000h-500zM50 -76l172 376l-172 376v-752zM71 -150h358l-179 390zM250 360l179 390h-358zM450 -76v752l-172 -376z" />
    <glyph glyph-name="f_f" unicode="ff" horiz-adv-x="587" 
d="M4 0l93 428h-44l24 108h43l9 40q14 64 49 99q45 43 117 43q43 0 77 -12l-24 -107q-23 7 -38 7q-44 0 -56 -51l-4 -19h83l-24 -108h-82l-93 -428h-130zM298 0l93 428h-44l24 108h43l9 40q14 64 49 99q45 43 117 43q43 0 77 -12l-24 -107q-23 7 -38 7q-44 0 -56 -51l-4 -19
h83l-24 -108h-82l-93 -428h-130z" />
    <glyph glyph-name="fi" unicode="fi" horiz-adv-x="523" 
d="M4 0l93 428h-44l24 108h43l9 40q14 64 49 99q45 43 117 43q43 0 77 -12l-24 -107q-23 7 -38 7q-44 0 -56 -51l-4 -19h83l-24 -108h-82l-93 -428h-130zM285 0l116 536h130l-116 -536h-130zM411 590l27 124h134l-27 -124h-134z" />
    <glyph glyph-name="fl" unicode="fl" horiz-adv-x="523" 
d="M4 0l93 428h-44l24 108h43l9 40q14 64 49 99q45 43 117 43q43 0 77 -12l-24 -107q-23 7 -38 7q-44 0 -56 -51l-4 -19h83l-24 -108h-82l-93 -428h-130zM285 0l155 714h130l-155 -714h-130z" />
    <glyph glyph-name="f_f_i" unicode="ffi" horiz-adv-x="816" 
d="M4 0l93 428h-44l24 108h43l9 40q14 64 49 99q45 43 117 43q43 0 77 -12l-24 -107q-23 7 -38 7q-44 0 -56 -51l-4 -19h83l-24 -108h-82l-93 -428h-130zM298 0l93 428h-44l24 108h43l9 40q14 64 49 99q45 43 117 43q43 0 77 -12l-24 -107q-23 7 -38 7q-44 0 -56 -51l-4 -19
h83l-24 -108h-82l-93 -428h-130zM579 0l116 536h130l-116 -536h-130zM705 590l27 124h134l-27 -124h-134z" />
    <glyph glyph-name="f_f_l" unicode="ffl" horiz-adv-x="817" 
d="M4 0l93 428h-44l24 108h43l9 40q14 64 49 99q45 43 117 43q43 0 77 -12l-24 -107q-23 7 -38 7q-44 0 -56 -51l-4 -19h83l-24 -108h-82l-93 -428h-130zM298 0l93 428h-44l24 108h43l9 40q14 64 49 99q45 43 117 43q43 0 77 -12l-24 -107q-23 7 -38 7q-44 0 -56 -51l-4 -19
h83l-24 -108h-82l-93 -428h-130zM579 0l155 714h130l-155 -714h-130z" />
    <glyph glyph-name=".notdef" horiz-adv-x="500" 
d="M0 -200v1000h500v-1000h-500zM50 -76l172 376l-172 376v-752zM71 -150h358l-179 390zM250 360l179 390h-358zM450 -76v752l-172 -376z" />
    <glyph glyph-name=".null" horiz-adv-x="0" 
 />
    <glyph glyph-name="nonmarkingreturn" horiz-adv-x="333" 
 />
    <glyph glyph-name="space" unicode=" " horiz-adv-x="184" 
 />
    <glyph glyph-name="exclam" unicode="!" horiz-adv-x="260" 
d="M86 225l56 455l4 20h156l-4 -20l-143 -455h-69zM-1 0l31 147h147l-32 -147h-146z" />
    <glyph glyph-name="quotedbl" unicode="&#x22;" horiz-adv-x="413" 
d="M80 381l70 319h138l-2 -8l-149 -311h-57zM274 381l69 319h139l-2 -8l-149 -311h-57z" />
    <glyph glyph-name="numbersign" unicode="#" horiz-adv-x="493" 
d="M26 0l41 156h-62l24 116h70l42 160h-70l26 116h76l40 152h98l-40 -152h94l40 152h98l-40 -152h63l-25 -116h-70l-42 -160h70l-25 -116h-77l-41 -156h-98l41 156h-94l-41 -156h-98zM197 272h94l42 160h-94z" />
    <glyph glyph-name="dollar" unicode="$" horiz-adv-x="456" 
d="M301 768h90l-18 -79q72 -26 120 -91l-96 -89q-44 71 -106 71q-30 0 -49 -20t-19 -49q0 -22 16 -43.5t58 -60.5q60 -56 88 -101t28 -98q0 -82 -55 -143.5t-143 -66.5l-25 -102h-89l27 111q-89 26 -148 108l92 93q61 -88 129 -88q32 0 53 21.5t21 54.5q0 22 -15.5 43
t-61.5 65q-57 53 -84.5 96t-27.5 99q0 84 58 142.5t142 61.5z" />
    <glyph glyph-name="percent" unicode="%" horiz-adv-x="685" 
d="M45 0l287 367l251 333h93l-287 -367l-251 -333h-93zM189 339q-54 0 -84 36.5t-30 101.5q0 56 18 107.5t50 83.5q39 39 91 39q54 0 84 -36.5t30 -101.5q0 -56 -18 -107.5t-50 -83.5q-39 -39 -91 -39zM194 422q13 0 25 12q17 17 28.5 61t11.5 77q0 52 -30 52q-13 0 -25 -12
q-17 -17 -28.5 -61t-11.5 -77q0 -52 30 -52zM487 -7q-54 0 -84 36.5t-30 101.5q0 56 18 107.5t50 83.5q39 39 91 39q54 0 84 -36.5t30 -101.5q0 -56 -18 -107.5t-50 -83.5q-39 -39 -91 -39zM492 76q13 0 25 12q17 17 28.5 61t11.5 77q0 52 -30 52q-13 0 -25 -12
q-17 -17 -28.5 -61t-11.5 -77q0 -52 30 -52z" />
    <glyph glyph-name="ampersand" unicode="&#x26;" horiz-adv-x="531" 
d="M421 339l94 -39q-37 -98 -88 -164l53 -99l-103 -50l-34 64q-74 -61 -155 -61t-131.5 49.5t-50.5 128.5q0 151 165 228q-34 70 -34 132q0 75 49 129t131 54q72 0 115.5 -42.5t43.5 -108.5q0 -136 -161 -210l60 -116q20 35 46 105zM204 103q46 0 90 40l-80 161
q-83 -44 -83 -125q0 -32 19 -54t54 -22zM253 528q0 -42 21 -88q86 44 86 111q0 24 -12.5 39t-34.5 15q-27 0 -43.5 -22.5t-16.5 -54.5z" />
    <glyph glyph-name="quotesingle" unicode="'" horiz-adv-x="219" 
d="M80 381l70 319h138l-2 -8l-149 -311h-57z" />
    <glyph glyph-name="parenleft" unicode="(" horiz-adv-x="353" 
d="M208 -130q-162 125 -162 356q0 228 138 366q81 81 199 119l30 -90q-72 -32 -124 -84q-55 -55 -85 -140.5t-30 -181.5q0 -156 98 -273z" />
    <glyph glyph-name="parenright" unicode=")" horiz-adv-x="353" 
d="M153 710q162 -125 162 -356q0 -228 -138 -366q-81 -81 -199 -119l-30 90q72 32 124 84q55 55 85 140.5t30 181.5q0 156 -98 273z" />
    <glyph glyph-name="asterisk" unicode="*" horiz-adv-x="347" 
d="M235 383l-78 18l41 108l-96 -49l-24 78l106 18l-88 61l55 61l65 -86l9 116l78 -17l-42 -109l96 49l25 -78l-106 -18l87 -61l-54 -60l-66 86z" />
    <glyph glyph-name="plus" unicode="+" horiz-adv-x="476" 
d="M151 147l31 144h-138l27 122h138l31 144h122l-31 -144h138l-27 -122h-138l-32 -144h-121z" />
    <glyph glyph-name="comma" unicode="," horiz-adv-x="255" 
d="M-50 -162l-6 54q61 8 84.5 37t29.5 71h-62l32 147h147l-29 -133q-19 -88 -65.5 -130.5t-130.5 -45.5z" />
    <glyph glyph-name="hyphen" unicode="-" horiz-adv-x="364" 
d="M39 246l28 128h276l-28 -128h-276z" />
    <glyph glyph-name="period" unicode="." horiz-adv-x="255" 
d="M-4 0l32 147h147l-32 -147h-147z" />
    <glyph glyph-name="slash" unicode="/" horiz-adv-x="391" 
d="M-103 -109l501 888h115l-501 -888h-115z" />
    <glyph glyph-name="zero" unicode="0" horiz-adv-x="528" 
d="M329 711q94 0 144.5 -63t50.5 -182q0 -103 -36.5 -225.5t-98.5 -184.5q-67 -67 -156 -67q-94 0 -144.5 63t-50.5 182q0 103 36.5 225.5t98.5 184.5q67 67 156 67zM240 111q31 0 56 25q42 42 69.5 150.5t27.5 182.5q0 120 -71 120q-31 0 -56 -25q-42 -42 -69.5 -150.5
t-27.5 -182.5q0 -120 71 -120z" />
    <glyph glyph-name="one" unicode="1" horiz-adv-x="320" 
d="M58 0l121 559l-96 -25l14 127l154 44h94l-153 -705h-134z" />
    <glyph glyph-name="two" unicode="2" horiz-adv-x="451" 
d="M-30 0l25 112l249 266q46 49 65.5 81.5t19.5 62.5q0 28 -17.5 45.5t-45.5 17.5q-53 0 -123 -61l-62 103q48 41 93 62t104 21q80 0 133.5 -48t53.5 -124q0 -56 -25.5 -104t-83.5 -110l-188 -199h228l-28 -125h-398z" />
    <glyph glyph-name="three" unicode="3" horiz-adv-x="442" 
d="M165 -11q-120 0 -192 81l77 97q52 -54 113 -54q48 0 75 32.5t27 74.5q0 44 -36.5 71.5t-101.5 27.5h-4l7 86l173 171h-203l28 124h362l-25 -114l-192 -186q125 -52 125 -176q0 -103 -65 -168q-67 -67 -168 -67z" />
    <glyph glyph-name="four" unicode="4" horiz-adv-x="505" 
d="M228 0l28 137h-253l6 101l351 465h146l-97 -453h73l-27 -113h-72l-29 -137h-126zM151 250h132l59 265z" />
    <glyph glyph-name="five" unicode="5" horiz-adv-x="449" 
d="M176 -10q-117 0 -195 90l84 99q58 -64 115 -64q50 0 79.5 41.5t29.5 90.5q0 41 -22 63.5t-61 22.5q-37 0 -77 -19l-66 50l93 336h326l-27 -123h-217l-37 -137q28 7 56 7q75 0 120.5 -48t45.5 -129q0 -132 -83 -215q-65 -65 -164 -65z" />
    <glyph glyph-name="six" unicode="6" horiz-adv-x="489" 
d="M225 -11q-84 0 -134 50q-57 57 -57 175q0 116 39.5 240t98.5 183q74 74 173 74t173 -68l-73 -100q-47 47 -105 47q-45 0 -77 -32q-47 -47 -73 -141q48 37 106 37q75 0 120 -50t45 -129q0 -64 -23 -124.5t-60 -97.5q-64 -64 -153 -64zM233 106q32 0 55 23q44 44 44 127
q0 41 -20 63.5t-55 22.5q-33 0 -54 -21q-22 -21 -33.5 -56.5t-11.5 -65.5q0 -51 22 -73q20 -20 53 -20z" />
    <glyph glyph-name="seven" unicode="7" horiz-adv-x="445" 
d="M19 0l311 573h-241l28 127h382l-24 -111l-310 -589h-146z" />
    <glyph glyph-name="eight" unicode="8" horiz-adv-x="483" 
d="M216 -11q-89 0 -143.5 51t-54.5 136q0 67 33.5 119t93.5 81q-53 48 -53 125q0 88 59 148.5t152 60.5q84 0 134.5 -47.5t50.5 -128.5q0 -55 -30.5 -105.5t-81.5 -73.5q66 -55 66 -137q0 -95 -60 -162t-166 -67zM220 97q42 0 68 38.5t26 86.5q0 40 -19.5 63t-52.5 23
q-41 0 -67.5 -38.5t-26.5 -86.5q0 -40 19.5 -63t52.5 -23zM278 413q34 0 58.5 32t24.5 82q0 33 -17 54.5t-47 21.5q-36 0 -59 -34t-23 -81q0 -33 17.5 -54t45.5 -21z" />
    <glyph glyph-name="nine" unicode="9" horiz-adv-x="489" 
d="M179 -11q-105 0 -181 76l73 100q55 -55 113 -55q45 0 77 32q46 46 70 133q-48 -37 -104 -37q-75 0 -120 51t-45 132q0 65 23.5 127t60.5 99q64 64 153 64q84 0 134 -50q57 -57 57 -175q0 -116 -39.5 -240t-98.5 -183q-74 -74 -173 -74zM266 350q33 0 54 21q46 43 46 127
q0 52 -24 76q-20 20 -51 20t-56 -25q-44 -44 -44 -128q0 -44 20 -67.5t55 -23.5z" />
    <glyph glyph-name="colon" unicode=":" horiz-adv-x="262" 
d="M-1 0l32 147h147l-32 -147h-147zM84 389l32 147h147l-32 -147h-147z" />
    <glyph glyph-name="semicolon" unicode=";" horiz-adv-x="262" 
d="M-47 -162l-6 54q61 8 84.5 37t29.5 71h-62l32 147h147l-29 -133q-19 -88 -65.5 -130.5t-130.5 -45.5zM84 389l32 147h147l-32 -147h-147z" />
    <glyph glyph-name="less" unicode="&#x3c;" horiz-adv-x="476" 
d="M384 93l-336 199l26 120l423 199l-33 -149l-272 -117l222 -117z" />
    <glyph glyph-name="equal" unicode="=" horiz-adv-x="476" 
d="M23 180l28 127h391l-28 -127h-391zM70 397l28 127h391l-28 -127h-391z" />
    <glyph glyph-name="greater" unicode="&#x3e;" horiz-adv-x="476" 
d="M16 93l33 149l272 117l-222 117l30 135l336 -199l-26 -120z" />
    <glyph glyph-name="question" unicode="?" horiz-adv-x="403" 
d="M120 225l22 176l5 5q149 24 149 115q0 29 -18 46.5t-47 17.5q-42 0 -98 -41l-56 106q80 58 166 58t137 -47.5t52 -123.5q0 -82 -50 -137t-143 -78l-31 -97h-88zM44 0l32 147h147l-32 -147h-147z" />
    <glyph glyph-name="at" unicode="@" horiz-adv-x="763" 
d="M345 -144q-139 0 -225.5 89t-86.5 245q0 96 29.5 189t81.5 167.5t131 120t170 45.5q136 0 216 -86t80 -212q0 -146 -61 -246.5t-154 -100.5q-43 0 -71.5 21t-35.5 58q-59 -77 -125 -77q-49 0 -78 35t-29 98q0 110 60.5 208t139.5 98q64 0 90 -66l17 58l100 -22l-65 -247
q-14 -49 -14 -73q0 -42 41 -42q51 0 96.5 87t45.5 210q0 105 -67 181.5t-190 76.5q-83 0 -154.5 -45.5t-116 -117t-69.5 -155t-25 -163.5q0 -138 74.5 -215.5t196.5 -77.5q88 0 168 43l17 -37q-92 -47 -187 -47zM344 159q39 0 70.5 69.5t31.5 127.5q0 55 -42 55
q-39 0 -72 -68.5t-33 -128.5q0 -26 12 -40.5t33 -14.5z" />
    <glyph glyph-name="A" unicode="A" horiz-adv-x="534" 
d="M-51 0l346 703h137l43 -703h-135l-6 146h-181l-68 -146h-136zM208 265h121l-9 239z" />
    <glyph glyph-name="B" unicode="B" horiz-adv-x="514" 
d="M-4 0l152 700h154q106 0 163 -45.5t57 -122.5q0 -66 -36.5 -112.5t-100.5 -65.5q91 -44 91 -138t-71.5 -155t-197.5 -61h-211zM156 121h67q56 0 88.5 27t32.5 76q0 32 -22 52t-65 20h-63zM218 410h55q59 0 88 30.5t29 71.5q0 67 -86 67h-49z" />
    <glyph glyph-name="C" unicode="C" horiz-adv-x="480" 
d="M264 -8q-104 0 -161.5 70t-57.5 204q0 99 34 201.5t96 164.5q76 76 169 76q121 0 186 -96l-92 -95q-42 64 -91 64q-38 0 -72 -34q-42 -42 -67.5 -124.5t-25.5 -153.5q0 -76 25.5 -113t65.5 -37q44 0 101 49l56 -112q-76 -64 -166 -64z" />
    <glyph glyph-name="D" unicode="D" horiz-adv-x="551" 
d="M-4 0l152 700h132q131 0 198 -67q64 -64 64 -190q0 -95 -32 -192t-92 -157q-94 -94 -252 -94h-170zM373 547q-31 31 -87 31h-31l-98 -456h34q75 0 130 55q38 38 62 113.5t24 145.5q0 77 -34 111z" />
    <glyph glyph-name="E" unicode="E" horiz-adv-x="454" 
d="M-4 0l152 700h362l-28 -124h-227l-35 -162h200l-25 -123h-202l-36 -167h234l-29 -124h-366z" />
    <glyph glyph-name="F" unicode="F" horiz-adv-x="441" 
d="M-4 0l152 700h357l-27 -125h-223l-36 -166h195l-27 -125h-195l-62 -284h-134z" />
    <glyph glyph-name="G" unicode="G" horiz-adv-x="544" 
d="M282 -8q-109 0 -173.5 74.5t-64.5 204.5q0 90 33.5 188t101.5 166q83 83 195 83q118 0 194 -84l-92 -101q-44 57 -105 57q-54 0 -95 -41q-48 -48 -71.5 -123.5t-23.5 -143.5q0 -78 30.5 -117.5t86.5 -39.5q29 0 44 9l34 157h-95l26 118h220l-79 -365q-87 -42 -166 -42z
" />
    <glyph glyph-name="H" unicode="H" horiz-adv-x="546" 
d="M-4 0l152 700h134l-62 -285h170l62 285h134l-152 -700h-134l63 289h-170l-63 -289h-134z" />
    <glyph glyph-name="I" unicode="I" horiz-adv-x="249" 
d="M-1 0l152 700h134l-152 -700h-134z" />
    <glyph glyph-name="J" unicode="J" horiz-adv-x="399" 
d="M129 -7q-49 0 -93.5 22t-69.5 64l87 90q35 -49 73 -49q26 0 44 18q21 21 31 70l107 492h134l-111 -513q-20 -93 -66 -139q-55 -55 -136 -55z" />
    <glyph glyph-name="K" unicode="K" horiz-adv-x="523" 
d="M-4 0l152 700h133l-65 -302l228 302h161l-238 -306l90 -394h-144l-59 287l-84 -100l-40 -187h-134z" />
    <glyph glyph-name="L" unicode="L" horiz-adv-x="418" 
d="M-4 0l152 700h134l-125 -575h208l-27 -125h-342z" />
    <glyph glyph-name="M" unicode="M" horiz-adv-x="627" 
d="M-4 0l152 700h134l61 -275l181 275h143l-152 -700h-130l95 436l-190 -278h-3l-66 277l-95 -435h-130z" />
    <glyph glyph-name="N" unicode="N" horiz-adv-x="560" 
d="M-4 0l152 700h120l116 -404l87 404h130l-152 -700h-115l-118 414l-90 -414h-130z" />
    <glyph glyph-name="O" unicode="O" horiz-adv-x="572" 
d="M352 711q109 0 161.5 -71.5t52.5 -187.5q0 -99 -36.5 -211.5t-98.5 -175.5q-76 -76 -176 -76q-109 0 -161.5 71.5t-52.5 187.5q0 99 36.5 211.5t98.5 175.5q76 76 176 76zM264 112q37 0 67 30q49 49 74.5 143t25.5 165q0 138 -88 138q-37 0 -67 -30q-49 -49 -74.5 -143
t-25.5 -165q0 -138 88 -138z" />
    <glyph glyph-name="P" unicode="P" horiz-adv-x="491" 
d="M-4 0l152 700h140q116 0 174 -58q51 -51 51 -142q0 -124 -80 -204q-79 -79 -213 -79h-43l-47 -217h-134zM356 555q-23 23 -70 23h-31l-52 -240h31q63 0 101 38q43 43 43 114q0 43 -22 65z" />
    <glyph glyph-name="Q" unicode="Q" horiz-adv-x="577" 
d="M352 711q109 0 161.5 -71.5t52.5 -187.5q0 -86 -28 -182t-77 -164l54 -64l-90 -68l-39 56q-58 -41 -131 -41q-109 0 -161.5 71.5t-52.5 187.5q0 99 36.5 211.5t98.5 175.5q76 76 176 76zM264 112q31 0 53 14l-62 80l87 68l40 -59q24 53 36.5 119t12.5 116q0 138 -88 138
q-37 0 -67 -30q-49 -49 -74.5 -143t-25.5 -165q0 -138 88 -138z" />
    <glyph glyph-name="R" unicode="R" horiz-adv-x="518" 
d="M301 0l-62 237h-5h-53l-51 -237h-134l152 700h146q125 0 185 -58q52 -52 52 -140q0 -113 -73 -186q-33 -33 -85 -55l69 -261h-141zM207 356h45q70 0 108 38q36 36 36 97q0 40 -21 61q-25 25 -78 25h-42z" />
    <glyph glyph-name="S" unicode="S" horiz-adv-x="440" 
d="M200 -7q-140 0 -221 120l89 93q67 -90 131 -90q31 0 52.5 21t21.5 52q0 25 -16.5 48.5t-64.5 68.5q-60 56 -88 97.5t-28 97.5q0 89 56 145q61 61 147 61q123 0 202 -105l-94 -89q-51 71 -109 71q-31 0 -49.5 -20t-18.5 -49q0 -23 17 -46.5t61 -63.5q62 -55 91 -100
t29 -97q0 -96 -61 -157q-58 -58 -147 -58z" />
    <glyph glyph-name="T" unicode="T" horiz-adv-x="434" 
d="M91 0l124 574h-133l28 126h400l-28 -126h-133l-124 -574h-134z" />
    <glyph glyph-name="U" unicode="U" horiz-adv-x="542" 
d="M234 -10q-90 0 -143 49t-53 137q0 38 11 87l94 437h134l-95 -436q-10 -42 -10 -76q0 -36 20 -55.5t53 -19.5q38 0 64 26q27 27 42 92l102 469h134l-104 -476q-25 -113 -83 -171q-62 -63 -166 -63z" />
    <glyph glyph-name="V" unicode="V" horiz-adv-x="506" 
d="M129 -3l-31 703h137l7 -468l208 468h142l-334 -703h-129z" />
    <glyph glyph-name="W" unicode="W" horiz-adv-x="783" 
d="M104 -3l-3 703h137l-12 -446l193 447h120v-447l183 446h143l-308 -703h-134v427l-187 -427h-132z" />
    <glyph glyph-name="X" unicode="X" horiz-adv-x="506" 
d="M-45 0l238 360l-84 340h144l42 -213l133 213h155l-234 -348l89 -352h-144l-46 223l-139 -223h-154z" />
    <glyph glyph-name="Y" unicode="Y" horiz-adv-x="481" 
d="M113 0l60 276l-86 424h141l41 -272l162 272h148l-273 -429l-59 -271h-134z" />
    <glyph glyph-name="Z" unicode="Z" horiz-adv-x="465" 
d="M-23 0l23 107l334 471h-228l26 122h393l-23 -106l-336 -472h237l-26 -122h-400z" />
    <glyph glyph-name="bracketleft" unicode="[" horiz-adv-x="352" 
d="M-11 -130l180 830h243l-22 -97h-124l-136 -636h124l-22 -97h-243z" />
    <glyph glyph-name="backslash" unicode="\" horiz-adv-x="388" 
d="M220 -109l-130 888h104l130 -888h-104z" />
    <glyph glyph-name="bracketright" unicode="]" horiz-adv-x="352" 
d="M370 700l-180 -830h-243l22 97h124l136 636h-124l22 97h243z" />
    <glyph glyph-name="asciicircum" unicode="^" horiz-adv-x="500" 
d="M139 499l143 197h100l58 -197h-82l-37 124l-90 -124h-92z" />
    <glyph glyph-name="underscore" unicode="_" horiz-adv-x="507" 
d="M-94 -154l22 101h510l-22 -101h-510z" />
    <glyph glyph-name="grave" unicode="`" horiz-adv-x="500" 
d="M325 582l-96 104l104 54l80 -158h-88z" />
    <glyph glyph-name="a" unicode="a" horiz-adv-x="433" 
d="M100 -9q-48 0 -75.5 34t-27.5 98q0 48 16.5 94t42.5 72q44 44 114 44q49 0 104 -25l3 15q5 23 5 40q0 62 -78 62q-46 0 -92 -23l-16 113q72 27 137 27q84 0 130.5 -41t46.5 -116q0 -30 -11 -82l-65 -303h-128l12 57q-50 -66 -118 -66zM169 90q28 0 48.5 20.5t27.5 58.5
l11 55q-29 16 -60 16q-27 0 -45 -18q-28 -28 -28 -78q0 -54 46 -54z" />
    <glyph glyph-name="b" unicode="b" horiz-adv-x="482" 
d="M246 -10q-76 0 -114 80l-15 -70h-130l155 714h130l-53 -242q31 37 58.5 55.5t63.5 18.5q58 0 89.5 -49t31.5 -135q0 -92 -30.5 -184.5t-80.5 -142.5q-45 -45 -105 -45zM219 108q25 0 46 21q28 28 47 95.5t19 117.5q0 86 -53 86q-25 0 -46 -21q-28 -28 -47 -95.5
t-19 -117.5q0 -86 53 -86z" />
    <glyph glyph-name="c" unicode="c" horiz-adv-x="376" 
d="M193 -11q-79 0 -126 52t-47 156q0 73 26.5 155t78.5 134q59 59 136 59q86 0 143 -81l-81 -87q-29 47 -62 47q-25 0 -47 -22q-33 -33 -50.5 -93.5t-17.5 -110.5q0 -89 60 -89q29 0 66 31l49 -99q-58 -52 -128 -52z" />
    <glyph glyph-name="d" unicode="d" horiz-adv-x="482" 
d="M249 0l14 64q-31 -37 -58.5 -55.5t-63.5 -18.5q-58 0 -89.5 49t-31.5 135q0 92 30.5 184.5t80.5 142.5q45 45 105 45q76 0 114 -80l54 248h130l-155 -714h-130zM204 108q25 0 46 21q28 28 47 95.5t19 117.5q0 86 -53 86q-25 0 -46 -21q-28 -28 -47 -95.5t-19 -117.5
q0 -86 53 -86z" />
    <glyph glyph-name="e" unicode="e" horiz-adv-x="437" 
d="M398 214h-257v-13q0 -97 78 -97q46 0 97 39l35 -104q-73 -50 -151 -50q-86 0 -134.5 54.5t-48.5 155.5q0 80 29.5 158t80.5 129q59 59 135 59q73 0 115 -49.5t42 -137.5q0 -61 -21 -144zM214 416q-34 -34 -57 -109h137q7 28 7 56q0 71 -47 71q-22 0 -40 -18z" />
    <glyph glyph-name="f" unicode="f" horiz-adv-x="293" 
d="M4 0l93 428h-44l24 108h43l9 40q14 64 49 99q45 43 117 43q43 0 77 -12l-24 -107q-23 7 -38 7q-44 0 -56 -51l-4 -19h83l-24 -108h-82l-93 -428h-130z" />
    <glyph glyph-name="g" unicode="g" horiz-adv-x="478" 
d="M150 -143q-104 0 -187 43l47 105q68 -37 137 -37q50 0 79 29q25 25 35 74l9 40q-62 -76 -121 -76q-60 0 -91 46t-31 133q0 75 28 158.5t72 127.5q46 46 104 46q77 0 115 -80l15 70h130l-103 -477q-22 -95 -69 -142q-60 -60 -169 -60zM209 152q24 0 45 21q24 24 40.5 77
t16.5 101q0 77 -51 77q-24 0 -45 -21q-24 -24 -40.5 -77t-16.5 -101q0 -77 51 -77z" />
    <glyph glyph-name="h" unicode="h" horiz-adv-x="464" 
d="M-13 0l155 714h130l-52 -239q59 71 120 71q52 0 81 -31.5t29 -84.5q0 -28 -9 -69l-78 -361h-130l73 336q7 33 7 46q0 47 -46 47q-27 0 -46.5 -21t-27.5 -56l-76 -352h-130z" />
    <glyph glyph-name="i" unicode="i" horiz-adv-x="227" 
d="M-10 0l116 536h130l-116 -536h-130zM116 590l27 124h134l-27 -124h-134z" />
    <glyph glyph-name="j" unicode="j" horiz-adv-x="228" 
d="M-33 -144q-38 0 -72 8l22 102q15 -4 29 -4q38 0 50 54l112 520h130l-117 -539q-31 -141 -154 -141zM118 590l27 124h134l-27 -124h-134z" />
    <glyph glyph-name="k" unicode="k" horiz-adv-x="439" 
d="M-13 0l155 714h130l-80 -367l149 189h154l-182 -219l61 -317h-139l-35 215l-50 -62l-33 -153h-130z" />
    <glyph glyph-name="l" unicode="l" horiz-adv-x="227" 
d="M-10 0l155 714h130l-155 -714h-130z" />
    <glyph glyph-name="m" unicode="m" horiz-adv-x="707" 
d="M-13 0l116 536h130l-13 -61q59 71 117 71q81 0 102 -76q62 76 142 76q51 0 80 -31.5t29 -84.5q0 -28 -9 -69l-78 -361h-130l73 336q7 33 7 46q0 47 -44 47q-27 0 -46 -21t-27 -56l-76 -352h-130l73 336q7 33 7 46q0 47 -44 47q-27 0 -46 -21t-27 -56l-76 -352h-130z" />
    <glyph glyph-name="n" unicode="n" horiz-adv-x="463" 
d="M-13 0l116 536h130l-13 -61q59 71 120 71q52 0 81 -31.5t29 -84.5q0 -28 -9 -69l-78 -361h-130l73 336q7 33 7 46q0 47 -46 47q-27 0 -46.5 -21t-27.5 -56l-76 -352h-130z" />
    <glyph glyph-name="o" unicode="o" horiz-adv-x="462" 
d="M261 545q86 0 133.5 -56t47.5 -153q0 -76 -26 -158t-74 -130q-59 -59 -141 -59q-86 0 -133.5 56t-47.5 153q0 76 26 158t74 130q59 59 141 59zM204 103q25 0 47 22q29 29 47.5 92.5t18.5 117.5q0 96 -59 96q-25 0 -47 -22q-29 -29 -47.5 -92.5t-18.5 -117.5q0 -96 59 -96
z" />
    <glyph glyph-name="p" unicode="p" horiz-adv-x="482" 
d="M246 -10q-76 0 -114 80l-46 -211h-130l147 677h130l-14 -64q31 37 58.5 55.5t63.5 18.5q58 0 89.5 -49t31.5 -135q0 -92 -30.5 -184.5t-80.5 -142.5q-45 -45 -105 -45zM219 108q25 0 46 21q28 28 47 95.5t19 117.5q0 86 -53 86q-25 0 -46 -21q-28 -28 -47 -95.5
t-19 -117.5q0 -86 53 -86z" />
    <glyph glyph-name="q" unicode="q" horiz-adv-x="482" 
d="M141 -10q-58 0 -89.5 49t-31.5 135q0 92 30.5 184.5t80.5 142.5q45 45 105 45q76 0 114 -80l15 70h130l-147 -677h-130l45 205q-31 -37 -58.5 -55.5t-63.5 -18.5zM204 108q25 0 46 21q28 28 47 95.5t19 117.5q0 86 -53 86q-25 0 -46 -21q-28 -28 -47 -95.5t-19 -117.5
q0 -86 53 -86z" />
    <glyph glyph-name="r" unicode="r" horiz-adv-x="309" 
d="M-13 0l116 536h130l-18 -85q56 99 134 92l-32 -148h-5q-109 0 -141 -143l-54 -252h-130z" />
    <glyph glyph-name="s" unicode="s" horiz-adv-x="360" 
d="M151 -11q-103 0 -181 88l70 89q64 -67 110 -67q20 0 33.5 12.5t13.5 33.5q0 29 -52 80q-36 35 -52.5 53.5t-30.5 47.5t-14 62q0 67 45.5 112t120.5 45q94 0 166 -75l-68 -90q-55 55 -97 55q-19 0 -31.5 -11.5t-12.5 -28.5q0 -16 10.5 -30.5t47.5 -50.5q52 -51 71.5 -86
t19.5 -76q0 -68 -48 -115.5t-121 -47.5z" />
    <glyph glyph-name="t" unicode="t" horiz-adv-x="304" 
d="M139 -8q-51 0 -80.5 25t-29.5 71q0 23 8 59l61 281h-44l24 108h43l30 137h130l-30 -137h85l-24 -108h-84l-54 -246q-8 -40 -8 -48q0 -27 33 -27q19 0 46 8l-24 -107q-35 -16 -82 -16z" />
    <glyph glyph-name="u" unicode="u" horiz-adv-x="463" 
d="M123 -10q-52 0 -81 31.5t-29 84.5q0 28 9 69l78 361h130l-73 -336q-7 -33 -7 -46q0 -47 46 -47q27 0 46.5 21t27.5 56l76 352h130l-116 -536h-130l13 61q-59 -71 -120 -71z" />
    <glyph glyph-name="v" unicode="v" horiz-adv-x="443" 
d="M97 -3l-28 539h130l2 -351l153 351h132l-262 -539h-127z" />
    <glyph glyph-name="w" unicode="w" horiz-adv-x="642" 
d="M71 -3v539h131l-11 -312l133 313h107l-3 -313l126 312h129l-235 -539h-122l2 309l-136 -309h-121z" />
    <glyph glyph-name="x" unicode="x" horiz-adv-x="434" 
d="M207 536l32 -152l94 152h143l-185 -266l73 -270h-136l-33 162l-97 -162h-144l190 278l-71 258h134z" />
    <glyph glyph-name="y" unicode="y" horiz-adv-x="443" 
d="M102 1l-30 535h131l3 -332l145 332h133l-255 -536q-38 -80 -76 -112.5t-94 -32.5q-53 0 -91 26l36 101q24 -15 50 -15q32 0 48 34z" />
    <glyph glyph-name="z" unicode="z" horiz-adv-x="380" 
d="M-35 0l21 95l252 333h-178l24 108h329l-21 -95l-252 -333h185l-24 -108h-336z" />
    <glyph glyph-name="braceleft" unicode="{" horiz-adv-x="377" 
d="M242 -141q-168 23 -168 137q0 35 25 97q24 57 24 83q0 59 -80 59h-15l23 104h20q56 0 86 30q16 16 23 36t6.5 42t-1.5 51q-1 28 -0.5 53t11.5 53t34 51q62 62 195 59l-2 -87q-71 -4 -102 -35q-20 -20 -23.5 -52.5t2.5 -62.5q7 -33 0.5 -74.5t-36.5 -71.5
q-38 -38 -112 -48q92 -27 92 -95q0 -34 -25 -88q-27 -59 -27 -85q0 -28 19.5 -44.5t62.5 -28.5z" />
    <glyph glyph-name="bar" unicode="|" horiz-adv-x="286" 
d="M9 -109l193 888h103l-193 -888h-103z" />
    <glyph glyph-name="braceright" unicode="}" horiz-adv-x="377" 
d="M143 715q168 -23 168 -137q0 -34 -25 -97q-24 -57 -24 -83q0 -59 80 -59h15l-23 -104h-20q-56 0 -86 -30q-16 -16 -23 -36t-6.5 -42t1.5 -51q1 -28 0.5 -53t-11.5 -53t-34 -51q-62 -62 -195 -59l2 87q71 4 102 35q20 20 23.5 52.5t-2.5 62.5q-7 33 -0.5 74.5t36.5 71.5
q38 38 112 48q-92 27 -92 95q0 34 25 88q27 59 27 85q0 28 -19.5 44.5t-62.5 28.5z" />
    <glyph glyph-name="asciitilde" unicode="~" horiz-adv-x="421" 
d="M111 239l-66 26q20 58 50.5 88.5t66.5 30.5q30 0 72 -28q30 -21 45 -21q32 0 55 53l66 -27q-20 -58 -50.5 -88t-66.5 -30q-33 0 -72 28q-30 21 -45 21q-32 0 -55 -53z" />
    <glyph glyph-name="uni00A0" unicode="&#xa0;" horiz-adv-x="184" 
 />
    <glyph glyph-name="exclamdown" unicode="&#xa1;" horiz-adv-x="260" 
d="M209 475l-56 -455l-4 -20h-156l4 20l143 455h69zM296 700l-31 -147h-147l32 147h146z" />
    <glyph glyph-name="cent" unicode="&#xa2;" horiz-adv-x="406" 
d="M297 705h88l-22 -85q44 -16 82 -61l-85 -92q-31 43 -66 43q-31 0 -55 -24q-29 -29 -47 -89t-18 -113q0 -89 62 -89q36 0 74 30l47 -100q-60 -50 -137 -50l-21 -81h-88l26 98q-93 45 -93 191q0 78 27.5 159.5t76.5 130.5q53 53 130 58z" />
    <glyph glyph-name="sterling" unicode="&#xa3;" horiz-adv-x="465" 
d="M-21 0l19 88l63 25l36 162h-58l26 117h57l23 109q22 104 72 154q54 54 141 54q106 0 163 -87l-95 -86q-17 23 -32.5 34.5t-38.5 11.5q-27 0 -48 -21q-19 -19 -31 -73l-21 -96h146l-25 -117h-146l-34 -156h203l-26 -119h-394z" />
    <glyph glyph-name="yen" unicode="&#xa5;" horiz-adv-x="508" 
d="M132 0l21 95h-124l22 98h123l13 61h-123l21 98h96l-72 348h136l42 -268l153 268h148l-225 -348h97l-21 -98h-123l-13 -61h123l-22 -98h-122l-21 -95h-129z" />
    <glyph glyph-name="section" unicode="&#xa7;" horiz-adv-x="490" 
d="M481 349q0 -52 -34 -86t-83 -48q24 -39 24 -78q0 -57 -47.5 -102t-129.5 -45q-102 0 -176 67l64 91q17 -16 49.5 -32.5t62.5 -16.5q23 0 37 10.5t14 29.5q0 17 -18 32t-66 40q-32 16 -51 28t-40 29.5t-31 38t-10 45.5q0 52 33.5 85.5t83.5 48.5q-24 39 -24 78
q0 57 47.5 102t129.5 45q102 0 176 -67l-64 -91q-17 16 -49.5 32.5t-62.5 16.5q-23 0 -37 -10.5t-14 -29.5q0 -17 18 -32t66 -40q32 -16 51 -28t40 -29.5t31 -38t10 -45.5zM172 371q0 -30 62 -67q46 -26 68 -26q23 0 38.5 14t15.5 36q0 30 -62 67q-46 26 -68 26
q-23 0 -38.5 -14t-15.5 -36z" />
    <glyph glyph-name="dieresis" unicode="&#xa8;" horiz-adv-x="500" 
d="M174 584l25 117h120l-25 -117h-120zM341 584l26 117h120l-26 -117h-120z" />
    <glyph glyph-name="copyright" unicode="&#xa9;" horiz-adv-x="636" 
d="M316 152q-58 0 -89.5 37.5t-31.5 103.5q0 59 20 119.5t56 96.5q43 43 102 43q56 0 95 -54l-50 -53q-26 36 -51 36q-22 0 -41 -19q-24 -24 -39 -71.5t-15 -91.5q0 -76 54 -76q23 0 56 22l24 -62q-44 -31 -90 -31zM618 429q0 -97 -30 -193.5t-97 -163.5q-83 -83 -200 -83
q-110 0 -177.5 77t-67.5 205q0 97 30 193.5t97 163.5q83 83 200 83q110 0 177.5 -77t67.5 -205zM85 272q0 -113 56.5 -179t152.5 -66q98 0 170 72q60 61 87.5 149t27.5 180q0 113 -56.5 179t-152.5 66q-98 0 -170 -72q-60 -61 -87.5 -149t-27.5 -180z" />
    <glyph glyph-name="ordfeminine" unicode="&#xaa;" horiz-adv-x="302" 
d="M149 402q-28 0 -43.5 20t-15.5 53q0 46 25.5 80t73.5 34q25 0 58 -14l2 9q3 14 3 21q0 35 -46 35q-30 0 -52 -14l-11 61q40 17 77 17q47 0 73.5 -23t26.5 -65q0 -19 -5 -44l-36 -165h-68l6 30q-29 -35 -68 -35zM185 456q36 0 45 43l7 31q-20 8 -35 8q-20 0 -31 -16
t-11 -36q0 -30 25 -30zM44 293l12 54h220l-12 -54h-220z" />
    <glyph glyph-name="guillemotleft" unicode="&#xab;" horiz-adv-x="524" 
d="M143 39l-112 222l1 8l203 224l75 -63l-141 -175l75 -171zM353 39l-107 222l1 8l209 224l74 -63l-146 -175l70 -171z" />
    <glyph glyph-name="registered" unicode="&#xae;" horiz-adv-x="333" 
d="M241 714q58 0 93.5 -41t35.5 -104q0 -108 -61 -169q-44 -44 -103 -44q-58 0 -93.5 41t-35.5 104q0 108 61 169q44 44 103 44zM208 378q49 0 85 36q54 54 54 154q0 54 -29 89t-79 35q-49 0 -85 -36q-54 -54 -54 -154q0 -54 29 -89t79 -35zM200 506l-11 -62h-41l36 189h48
q66 0 66 -58q0 -44 -43 -62l22 -69h-43l-18 62h-16zM207 541h14q18 0 27 9q8 8 8 23q0 24 -28 24h-11z" />
    <glyph glyph-name="macron" unicode="&#xaf;" horiz-adv-x="500" 
d="M180 586l18 87h277l-18 -87h-277z" />
    <glyph glyph-name="degree" unicode="&#xb0;" horiz-adv-x="350" 
d="M254 706q54 0 85 -38t31 -94q0 -106 -64 -170q-40 -40 -94 -40t-85 38t-31 94q0 106 64 170q40 40 94 40zM220 440q19 0 35 16q38 38 38 112q0 62 -46 62q-19 0 -35 -16q-38 -38 -38 -112q0 -62 46 -62z" />
    <glyph glyph-name="plusminus" unicode="&#xb1;" horiz-adv-x="476" 
d="M160 186l31 140h-138l26 121h138l31 140h120l-32 -140h138l-26 -121h-138l-30 -140h-120zM-16 0l25 114h392l-25 -114h-392z" />
    <glyph glyph-name="two.sup" unicode="&#xb2;" 
d="M77 445l15 70l127 114q30 30 40.5 46t10.5 33q0 15 -10 24.5t-26 9.5q-30 0 -68 -31l-37 59q55 47 114 47q48 0 79.5 -28t31.5 -72q0 -29 -15 -57t-59 -66l-84 -75h122l-16 -74h-225z" />
    <glyph glyph-name="three.sup" unicode="&#xb3;" 
d="M198 438q-72 0 -114 51l47 57q33 -35 68 -35q21 0 33 13.5t12 32.5q0 47 -76 47h-1l4 52l89 81h-111l16 73h213l-13 -60l-111 -97q71 -23 71 -92q0 -55 -36 -89t-91 -34z" />
    <glyph glyph-name="acute" unicode="&#xb4;" horiz-adv-x="500" 
d="M211 582l127 158l102 -54l-129 -104h-100z" />
    <glyph glyph-name="paragraph" unicode="&#xb6;" horiz-adv-x="448" 
d="M200 0l47 220q-92 16 -135 59q-52 52 -52 135q0 56 19.5 112t59.5 96q78 78 216 78h130l-152 -700h-133z" />
    <glyph glyph-name="periodcentered" unicode="&#xb7;" horiz-adv-x="268" 
d="M52 236l32 147h147l-32 -147h-147z" />
    <glyph glyph-name="cedilla" unicode="&#xb8;" horiz-adv-x="500" 
d="M170 -143l-101 44l104 116h90z" />
    <glyph glyph-name="one.sup" unicode="&#xb9;" horiz-adv-x="244" 
d="M136 445l60 280l-65 -26l7 77l101 38h59l-80 -369h-82z" />
    <glyph glyph-name="ordmasculine" unicode="&#xba;" horiz-adv-x="306" 
d="M47 293l12 54h220l-12 -54h-220zM164 517q0 -53 34 -53q15 0 27 12q16 16 26 50.5t10 63.5q0 53 -34 53q-15 0 -27 -12q-16 -16 -26 -50.5t-10 -63.5zM331 591q0 -40 -14.5 -84.5t-42.5 -72.5q-33 -33 -79 -33q-47 0 -74 29.5t-27 85.5q0 40 14.5 84.5t42.5 72.5
q33 33 79 33q47 0 74 -29.5t27 -85.5z" />
    <glyph glyph-name="guillemotright" unicode="&#xbb;" horiz-adv-x="524" 
d="M380 493l112 -222l-1 -8l-203 -224l-75 63l141 175l-75 171zM170 493l107 -222l-1 -8l-209 -224l-74 63l146 175l-70 171z" />
    <glyph glyph-name="onequarter" unicode="&#xbc;" horiz-adv-x="620" 
d="M97 335l60 280l-65 -26l7 77l101 38h59l-80 -369h-82zM11 0l267 365l236 335h74l-267 -365l-236 -335h-74zM405 -1l15 71h-143l13 75l167 223h101l-50 -231h35l-14 -67h-36l-15 -71h-73zM357 136h80l32 149h-4z" />
    <glyph glyph-name="onehalf" unicode="&#xbd;" horiz-adv-x="620" 
d="M279 0l15 70l127 114q30 30 40.5 46t10.5 33q0 15 -10 24.5t-26 9.5q-30 0 -68 -31l-37 59q55 47 114 47q48 0 79.5 -28t31.5 -72q0 -29 -15 -57t-59 -66l-84 -75h122l-16 -74h-225zM-2 0l267 365l236 335h74l-267 -365l-236 -335h-74zM97 335l60 280l-65 -26l7 77
l101 38h59l-80 -369h-82z" />
    <glyph glyph-name="threequarters" unicode="&#xbe;" horiz-adv-x="675" 
d="M465 -1l15 71h-143l13 75l167 223h101l-50 -231h35l-14 -67h-36l-15 -71h-73zM417 136h80l32 149h-4zM65 0l267 365l236 335h74l-267 -365l-236 -335h-74zM157 328q-72 0 -114 51l47 57q33 -35 68 -35q21 0 33 13.5t12 32.5q0 47 -76 47h-1l4 52l89 81h-111l16 73h213
l-13 -60l-111 -97q71 -23 71 -92q0 -55 -36 -89t-91 -34z" />
    <glyph glyph-name="questiondown" unicode="&#xbf;" horiz-adv-x="403" 
d="M318 475l-22 -176l-5 -5q-149 -24 -149 -115q0 -29 18 -46.5t47 -17.5q42 0 98 41l56 -106q-80 -58 -166 -58t-137 47.5t-52 123.5q0 82 50 137t143 78l31 97h88zM394 700l-32 -147h-147l32 147h147z" />
    <glyph glyph-name="Agrave" unicode="&#xc0;" horiz-adv-x="534" 
d="M-51 0l346 703h137l43 -703h-135l-6 146h-181l-68 -146h-136zM208 265h121l-9 239zM323 752l-102 84l110 55l85 -139h-93z" />
    <glyph glyph-name="Aacute" unicode="&#xc1;" horiz-adv-x="534" 
d="M-51 0l346 703h137l43 -703h-135l-6 146h-181l-68 -146h-136zM208 265h121l-9 239zM316 752l128 139l108 -55l-131 -84h-105z" />
    <glyph glyph-name="Acircumflex" unicode="&#xc2;" horiz-adv-x="534" 
d="M-51 0l346 703h137l43 -703h-135l-6 146h-181l-68 -146h-136zM208 265h121l-9 239zM222 752l122 130h114l66 -130h-91l-45 51l-66 -51h-100z" />
    <glyph glyph-name="Atilde" unicode="&#xc3;" horiz-adv-x="534" 
d="M-51 0l346 703h137l43 -703h-135l-6 146h-181l-68 -146h-136zM208 265h121l-9 239zM288 746l-72 21q26 65 48.5 91.5t58.5 26.5q28 0 74 -21q34 -15 46 -15q14 0 24 9.5t23 32.5l72 -21q-25 -64 -48 -91t-60 -27q-28 0 -72 20q-36 16 -47 16q-14 0 -23.5 -9t-23.5 -33z
" />
    <glyph glyph-name="Adieresis" unicode="&#xc4;" horiz-adv-x="534" 
d="M-51 0l346 703h137l43 -703h-135l-6 146h-181l-68 -146h-136zM208 265h121l-9 239zM226 754l25 115h122l-25 -115h-122zM401 754l25 115h122l-25 -115h-122z" />
    <glyph glyph-name="Aring" unicode="&#xc5;" horiz-adv-x="534" 
d="M-51 0l334 677q-14 20 -14 46q0 45 31.5 75t80.5 30q41 0 66.5 -24t25.5 -59q0 -51 -38 -81l40 -664h-135l-6 146h-181l-68 -146h-136zM208 265h121l-9 239zM366 687q23 0 38.5 15.5t15.5 37.5q0 18 -11.5 29.5t-32.5 11.5q-23 0 -38.5 -15.5t-15.5 -36.5q0 -19 12 -30.5
t32 -11.5z" />
    <glyph glyph-name="AE" unicode="&#xc6;" horiz-adv-x="740" 
d="M-53 0l406 700h443l-28 -124h-219l-35 -162h192l-25 -123h-194l-36 -167h226l-29 -124h-357l32 146h-158l-83 -146h-135zM235 265h114l66 306h-12z" />
    <glyph glyph-name="Ccedilla" unicode="&#xc7;" horiz-adv-x="480" 
d="M184 -143l-101 44l95 106q-133 52 -133 259q0 99 34 201.5t96 164.5q76 76 169 76q121 0 186 -96l-92 -95q-42 64 -91 64q-38 0 -72 -34q-42 -42 -67.5 -124.5t-25.5 -153.5q0 -76 25.5 -113t65.5 -37q44 0 101 49l56 -112q-76 -64 -166 -64h-2z" />
    <glyph glyph-name="Egrave" unicode="&#xc8;" horiz-adv-x="454" 
d="M-4 0l152 700h362l-28 -124h-227l-35 -162h200l-25 -123h-202l-36 -167h234l-29 -124h-366zM282 742l-102 84l110 55l85 -139h-93z" />
    <glyph glyph-name="Eacute" unicode="&#xc9;" horiz-adv-x="454" 
d="M-4 0l152 700h362l-28 -124h-227l-35 -162h200l-25 -123h-202l-36 -167h234l-29 -124h-366zM275 742l128 139l108 -55l-131 -84h-105z" />
    <glyph glyph-name="Ecircumflex" unicode="&#xca;" horiz-adv-x="454" 
d="M-4 0l152 700h362l-28 -124h-227l-35 -162h200l-25 -123h-202l-36 -167h234l-29 -124h-366zM181 742l122 130h114l66 -130h-91l-45 51l-66 -51h-100z" />
    <glyph glyph-name="Edieresis" unicode="&#xcb;" horiz-adv-x="454" 
d="M-4 0l152 700h362l-28 -124h-227l-35 -162h200l-25 -123h-202l-36 -167h234l-29 -124h-366zM186 744l25 115h122l-25 -115h-122zM361 744l25 115h122l-25 -115h-122z" />
    <glyph glyph-name="Igrave" unicode="&#xcc;" horiz-adv-x="249" 
d="M-1 0l152 700h134l-152 -700h-134zM175 742l-102 84l110 55l85 -139h-93z" />
    <glyph glyph-name="Iacute" unicode="&#xcd;" horiz-adv-x="249" 
d="M-1 0l152 700h134l-152 -700h-134zM168 742l128 139l108 -55l-131 -84h-105z" />
    <glyph glyph-name="Icircumflex" unicode="&#xce;" horiz-adv-x="249" 
d="M-1 0l152 700h134l-152 -700h-134zM74 742l122 130h114l66 -130h-91l-45 51l-66 -51h-100z" />
    <glyph glyph-name="Idieresis" unicode="&#xcf;" horiz-adv-x="249" 
d="M-1 0l152 700h134l-152 -700h-134zM79 744l25 115h122l-25 -115h-122zM254 744l25 115h122l-25 -115h-122z" />
    <glyph glyph-name="Eth" unicode="&#xd0;" horiz-adv-x="567" 
d="M24 292l26 120h51l63 288h132q131 0 198 -67q64 -64 64 -190q0 -95 -32 -192t-92 -157q-94 -94 -252 -94h-170l63 292h-51zM389 547q-31 31 -87 31h-31l-36 -166h89l-26 -120h-89l-36 -170h34q75 0 130 55q38 38 62 113.5t24 145.5q0 77 -34 111z" />
    <glyph glyph-name="Ntilde" unicode="&#xd1;" horiz-adv-x="560" 
d="M-4 0l152 700h120l116 -404l87 404h130l-152 -700h-115l-118 414l-90 -414h-130zM295 731l-72 21q26 65 48.5 91.5t58.5 26.5q28 0 74 -21q34 -15 46 -15q14 0 24 9.5t23 32.5l72 -21q-25 -64 -48 -91t-60 -27q-28 0 -72 20q-36 16 -47 16q-14 0 -23.5 -9t-23.5 -33z" />
    <glyph glyph-name="Ograve" unicode="&#xd2;" horiz-adv-x="572" 
d="M352 711q109 0 161.5 -71.5t52.5 -187.5q0 -99 -36.5 -211.5t-98.5 -175.5q-76 -76 -176 -76q-109 0 -161.5 71.5t-52.5 187.5q0 99 36.5 211.5t98.5 175.5q76 76 176 76zM264 112q37 0 67 30q49 49 74.5 143t25.5 165q0 138 -88 138q-37 0 -67 -30q-49 -49 -74.5 -143
t-25.5 -165q0 -138 88 -138zM333 752l-102 84l110 55l85 -139h-93z" />
    <glyph glyph-name="Oacute" unicode="&#xd3;" horiz-adv-x="572" 
d="M352 711q109 0 161.5 -71.5t52.5 -187.5q0 -99 -36.5 -211.5t-98.5 -175.5q-76 -76 -176 -76q-109 0 -161.5 71.5t-52.5 187.5q0 99 36.5 211.5t98.5 175.5q76 76 176 76zM264 112q37 0 67 30q49 49 74.5 143t25.5 165q0 138 -88 138q-37 0 -67 -30q-49 -49 -74.5 -143
t-25.5 -165q0 -138 88 -138zM326 752l128 139l108 -55l-131 -84h-105z" />
    <glyph glyph-name="Ocircumflex" unicode="&#xd4;" horiz-adv-x="572" 
d="M352 711q109 0 161.5 -71.5t52.5 -187.5q0 -99 -36.5 -211.5t-98.5 -175.5q-76 -76 -176 -76q-109 0 -161.5 71.5t-52.5 187.5q0 99 36.5 211.5t98.5 175.5q76 76 176 76zM264 112q37 0 67 30q49 49 74.5 143t25.5 165q0 138 -88 138q-37 0 -67 -30q-49 -49 -74.5 -143
t-25.5 -165q0 -138 88 -138zM232 752l122 130h114l66 -130h-91l-45 51l-66 -51h-100z" />
    <glyph glyph-name="Otilde" unicode="&#xd5;" horiz-adv-x="572" 
d="M352 711q109 0 161.5 -71.5t52.5 -187.5q0 -99 -36.5 -211.5t-98.5 -175.5q-76 -76 -176 -76q-109 0 -161.5 71.5t-52.5 187.5q0 99 36.5 211.5t98.5 175.5q76 76 176 76zM264 112q37 0 67 30q49 49 74.5 143t25.5 165q0 138 -88 138q-37 0 -67 -30q-49 -49 -74.5 -143
t-25.5 -165q0 -138 88 -138zM298 746l-72 21q26 65 48.5 91.5t58.5 26.5q28 0 74 -21q34 -15 46 -15q14 0 24 9.5t23 32.5l72 -21q-25 -64 -48 -91t-60 -27q-28 0 -72 20q-36 16 -47 16q-14 0 -23.5 -9t-23.5 -33z" />
    <glyph glyph-name="Odieresis" unicode="&#xd6;" horiz-adv-x="572" 
d="M352 711q109 0 161.5 -71.5t52.5 -187.5q0 -99 -36.5 -211.5t-98.5 -175.5q-76 -76 -176 -76q-109 0 -161.5 71.5t-52.5 187.5q0 99 36.5 211.5t98.5 175.5q76 76 176 76zM264 112q37 0 67 30q49 49 74.5 143t25.5 165q0 138 -88 138q-37 0 -67 -30q-49 -49 -74.5 -143
t-25.5 -165q0 -138 88 -138zM237 754l25 115h122l-25 -115h-122zM412 754l25 115h122l-25 -115h-122z" />
    <glyph glyph-name="multiply" unicode="&#xd7;" horiz-adv-x="476" 
d="M103 143l-79 85l151 132l-92 124l100 75l85 -121l142 124l79 -85l-151 -132l92 -124l-100 -75l-85 121z" />
    <glyph glyph-name="Oslash" unicode="&#xd8;" horiz-adv-x="572" 
d="M352 711q91 0 146 -55l37 49h98l-92 -115q25 -59 25 -138q0 -99 -36.5 -211.5t-98.5 -175.5q-76 -76 -176 -76q-91 0 -145 52l-37 -46h-98l92 110q-26 59 -26 143q0 99 36.5 211.5t98.5 175.5q76 76 176 76zM173 250v-20l239 325q-22 36 -69 36q-38 0 -70 -32
q-49 -49 -74.5 -143.5t-25.5 -165.5zM264 109q38 0 70 32q49 49 74.5 143.5t25.5 165.5v14l-237 -323q22 -32 67 -32z" />
    <glyph glyph-name="Ugrave" unicode="&#xd9;" horiz-adv-x="542" 
d="M234 -10q-90 0 -143 49t-53 137q0 38 11 87l94 437h134l-95 -436q-10 -42 -10 -76q0 -36 20 -55.5t53 -19.5q38 0 64 26q27 27 42 92l102 469h134l-104 -476q-25 -113 -83 -171q-62 -63 -166 -63zM319 737l-102 84l110 55l85 -139h-93z" />
    <glyph glyph-name="Uacute" unicode="&#xda;" horiz-adv-x="542" 
d="M234 -10q-90 0 -143 49t-53 137q0 38 11 87l94 437h134l-95 -436q-10 -42 -10 -76q0 -36 20 -55.5t53 -19.5q38 0 64 26q27 27 42 92l102 469h134l-104 -476q-25 -113 -83 -171q-62 -63 -166 -63zM312 737l128 139l108 -55l-131 -84h-105z" />
    <glyph glyph-name="Ucircumflex" unicode="&#xdb;" horiz-adv-x="542" 
d="M234 -10q-90 0 -143 49t-53 137q0 38 11 87l94 437h134l-95 -436q-10 -42 -10 -76q0 -36 20 -55.5t53 -19.5q38 0 64 26q27 27 42 92l102 469h134l-104 -476q-25 -113 -83 -171q-62 -63 -166 -63zM218 737l122 130h114l66 -130h-91l-45 51l-66 -51h-100z" />
    <glyph glyph-name="Udieresis" unicode="&#xdc;" horiz-adv-x="542" 
d="M234 -10q-90 0 -143 49t-53 137q0 38 11 87l94 437h134l-95 -436q-10 -42 -10 -76q0 -36 20 -55.5t53 -19.5q38 0 64 26q27 27 42 92l102 469h134l-104 -476q-25 -113 -83 -171q-62 -63 -166 -63zM223 739l25 115h122l-25 -115h-122zM398 739l25 115h122l-25 -115h-122z
" />
    <glyph glyph-name="Yacute" unicode="&#xdd;" horiz-adv-x="481" 
d="M113 0l60 276l-86 424h141l41 -272l162 272h148l-273 -429l-59 -271h-134zM277 737l128 139l108 -55l-131 -84h-105z" />
    <glyph glyph-name="Thorn" unicode="&#xde;" horiz-adv-x="490" 
d="M-4 0l152 700h134l-22 -99h7q116 0 174 -58q51 -51 51 -142q0 -124 -80 -204q-79 -79 -213 -79h-43l-26 -118h-134zM182 239h31q63 0 101 38q43 43 43 114q0 43 -22 65q-23 23 -70 23h-31z" />
    <glyph glyph-name="germandbls" unicode="&#xdf;" horiz-adv-x="483" 
d="M174 -2l24 107q61 -2 89 32t28 83q0 34 -18.5 59t-53.5 34l19 90q49 16 74.5 53.5t25.5 81.5q0 32 -15 50t-40 18q-58 0 -82 -106l-109 -500h-129l110 506q23 105 74 156q55 55 140 55q81 0 128.5 -48t47.5 -122q0 -63 -32.5 -112t-94.5 -75q81 -56 81 -144
q0 -44 -14.5 -82t-44 -70.5t-83.5 -50.5t-125 -15z" />
    <glyph glyph-name="agrave" unicode="&#xe0;" horiz-adv-x="433" 
d="M100 -9q-48 0 -75.5 34t-27.5 98q0 48 16.5 94t42.5 72q44 44 114 44q49 0 104 -25l3 15q5 23 5 40q0 62 -78 62q-46 0 -92 -23l-16 113q72 27 137 27q84 0 130.5 -41t46.5 -116q0 -30 -11 -82l-65 -303h-128l12 57q-50 -66 -118 -66zM169 90q28 0 48.5 20.5t27.5 58.5
l11 55q-29 16 -60 16q-27 0 -45 -18q-28 -28 -28 -78q0 -54 46 -54zM223 582l-96 104l104 54l80 -158h-88z" />
    <glyph glyph-name="aacute" unicode="&#xe1;" horiz-adv-x="433" 
d="M100 -9q-48 0 -75.5 34t-27.5 98q0 48 16.5 94t42.5 72q44 44 114 44q49 0 104 -25l3 15q5 23 5 40q0 62 -78 62q-46 0 -92 -23l-16 113q72 27 137 27q84 0 130.5 -41t46.5 -116q0 -30 -11 -82l-65 -303h-128l12 57q-50 -66 -118 -66zM169 90q28 0 48.5 20.5t27.5 58.5
l11 55q-29 16 -60 16q-27 0 -45 -18q-28 -28 -28 -78q0 -54 46 -54zM218 582l127 158l102 -54l-129 -104h-100z" />
    <glyph glyph-name="acircumflex" unicode="&#xe2;" horiz-adv-x="433" 
d="M100 -9q-48 0 -75.5 34t-27.5 98q0 48 16.5 94t42.5 72q44 44 114 44q49 0 104 -25l3 15q5 23 5 40q0 62 -78 62q-46 0 -92 -23l-16 113q72 27 137 27q84 0 130.5 -41t46.5 -116q0 -30 -11 -82l-65 -303h-128l12 57q-50 -66 -118 -66zM169 90q28 0 48.5 20.5t27.5 58.5
l11 55q-29 16 -60 16q-27 0 -45 -18q-28 -28 -28 -78q0 -54 46 -54zM127 582l125 145h107l63 -145h-86l-45 63l-70 -63h-94z" />
    <glyph glyph-name="atilde" unicode="&#xe3;" horiz-adv-x="433" 
d="M100 -9q-48 0 -75.5 34t-27.5 98q0 48 16.5 94t42.5 72q44 44 114 44q49 0 104 -25l3 15q5 23 5 40q0 62 -78 62q-46 0 -92 -23l-16 113q72 27 137 27q84 0 130.5 -41t46.5 -116q0 -30 -11 -82l-65 -303h-128l12 57q-50 -66 -118 -66zM169 90q28 0 48.5 20.5t27.5 58.5
l11 55q-29 16 -60 16q-27 0 -45 -18q-28 -28 -28 -78q0 -54 46 -54zM387 718l71 -20q-23 -61 -47.5 -89t-60.5 -28q-23 0 -67 21q-36 16 -45 16q-15 0 -25 -9.5t-22 -33.5l-71 20q24 63 48 90t60 27q23 0 67 -21q36 -16 44 -16q15 0 26 9.5t22 33.5z" />
    <glyph glyph-name="adieresis" unicode="&#xe4;" horiz-adv-x="433" 
d="M100 -9q-48 0 -75.5 34t-27.5 98q0 48 16.5 94t42.5 72q44 44 114 44q49 0 104 -25l3 15q5 23 5 40q0 62 -78 62q-46 0 -92 -23l-16 113q72 27 137 27q84 0 130.5 -41t46.5 -116q0 -30 -11 -82l-65 -303h-128l12 57q-50 -66 -118 -66zM169 90q28 0 48.5 20.5t27.5 58.5
l11 55q-29 16 -60 16q-27 0 -45 -18q-28 -28 -28 -78q0 -54 46 -54zM132 584l25 117h120l-25 -117h-120zM299 584l26 117h120l-26 -117h-120z" />
    <glyph glyph-name="aring" unicode="&#xe5;" horiz-adv-x="433" 
d="M100 -9q-48 0 -75.5 34t-27.5 98q0 48 16.5 94t42.5 72q44 44 114 44q49 0 104 -25l3 15q5 23 5 40q0 62 -78 62q-46 0 -92 -23l-16 113q72 27 137 27q84 0 130.5 -41t46.5 -116q0 -30 -11 -82l-65 -303h-128l12 57q-50 -66 -118 -66zM169 90q28 0 48.5 20.5t27.5 58.5
l11 55q-29 16 -60 16q-27 0 -45 -18q-28 -28 -28 -78q0 -54 46 -54zM394 689q0 -45 -30.5 -78.5t-76.5 -33.5q-40 0 -65 25.5t-25 62.5q0 44 30.5 77.5t76.5 33.5q40 0 65 -25t25 -62zM248 669q0 -19 11.5 -31.5t29.5 -12.5q23 0 38 18t15 42q0 19 -11 31.5t-30 12.5
q-23 0 -38 -18t-15 -42z" />
    <glyph glyph-name="ae" unicode="&#xe6;" horiz-adv-x="680" 
d="M447 -11q-115 0 -158 94q-71 -92 -165 -92q-59 0 -93 35t-34 97q0 48 16.5 94t42.5 72q44 44 114 44q49 0 104 -25l3 15q5 23 5 40q0 62 -78 62q-46 0 -92 -23l-16 113q72 27 137 27q101 0 138 -68q65 71 140 71q68 0 109.5 -50t41.5 -137q0 -61 -21 -144h-257v-13
q0 -97 78 -97q46 0 97 39l35 -104q-73 -50 -147 -50zM173 90q25 0 51 17t46 43q-4 30 -3 70q-34 20 -71 20q-27 0 -45 -18q-28 -28 -28 -78q0 -24 13 -39t37 -15zM457 416q-34 -34 -57 -109h137q7 28 7 56q0 71 -47 71q-22 0 -40 -18z" />
    <glyph glyph-name="ccedilla" unicode="&#xe7;" horiz-adv-x="376" 
d="M123 -143l-101 44l93 104q-95 44 -95 192q0 73 26.5 155t78.5 134q59 59 136 59q86 0 143 -81l-81 -87q-29 47 -62 47q-25 0 -47 -22q-33 -33 -50.5 -93.5t-17.5 -110.5q0 -89 60 -89q29 0 66 31l49 -99q-55 -49 -122 -52z" />
    <glyph glyph-name="egrave" unicode="&#xe8;" horiz-adv-x="437" 
d="M398 214h-257v-13q0 -97 78 -97q46 0 97 39l35 -104q-73 -50 -151 -50q-86 0 -134.5 54.5t-48.5 155.5q0 80 29.5 158t80.5 129q59 59 135 59q73 0 115 -49.5t42 -137.5q0 -61 -21 -144zM231 582l-96 104l104 54l80 -158h-88zM214 416q-34 -34 -57 -109h137q7 28 7 56
q0 71 -47 71q-22 0 -40 -18z" />
    <glyph glyph-name="eacute" unicode="&#xe9;" horiz-adv-x="437" 
d="M398 214h-257v-13q0 -97 78 -97q46 0 97 39l35 -104q-73 -50 -151 -50q-86 0 -134.5 54.5t-48.5 155.5q0 80 29.5 158t80.5 129q59 59 135 59q73 0 115 -49.5t42 -137.5q0 -61 -21 -144zM226 582l127 158l102 -54l-129 -104h-100zM214 416q-34 -34 -57 -109h137
q7 28 7 56q0 71 -47 71q-22 0 -40 -18z" />
    <glyph glyph-name="ecircumflex" unicode="&#xea;" horiz-adv-x="437" 
d="M398 214h-257v-13q0 -97 78 -97q46 0 97 39l35 -104q-73 -50 -151 -50q-86 0 -134.5 54.5t-48.5 155.5q0 80 29.5 158t80.5 129q59 59 135 59q73 0 115 -49.5t42 -137.5q0 -61 -21 -144zM135 582l125 145h107l63 -145h-86l-45 63l-70 -63h-94zM214 416q-34 -34 -57 -109
h137q7 28 7 56q0 71 -47 71q-22 0 -40 -18z" />
    <glyph glyph-name="edieresis" unicode="&#xeb;" horiz-adv-x="437" 
d="M398 214h-257v-13q0 -97 78 -97q46 0 97 39l35 -104q-73 -50 -151 -50q-86 0 -134.5 54.5t-48.5 155.5q0 80 29.5 158t80.5 129q59 59 135 59q73 0 115 -49.5t42 -137.5q0 -61 -21 -144zM307 584l26 117h120l-26 -117h-120zM140 584l25 117h120l-25 -117h-120zM214 416
q-34 -34 -57 -109h137q7 28 7 56q0 71 -47 71q-22 0 -40 -18z" />
    <glyph glyph-name="igrave" unicode="&#xec;" horiz-adv-x="227" 
d="M-10 0l117 536h130l-117 -536h-130zM129 582l-96 104l104 54l80 -158h-88z" />
    <glyph glyph-name="iacute" unicode="&#xed;" horiz-adv-x="227" 
d="M-10 0l117 536h130l-117 -536h-130zM124 582l127 158l102 -54l-129 -104h-100z" />
    <glyph glyph-name="icircumflex" unicode="&#xee;" horiz-adv-x="227" 
d="M-10 0l117 536h130l-117 -536h-130zM32 582l125 145h107l63 -145h-86l-45 63l-70 -63h-94z" />
    <glyph glyph-name="idieresis" unicode="&#xef;" horiz-adv-x="227" 
d="M-10 0l117 536h130l-117 -536h-130zM38 584l25 117h120l-25 -117h-120zM205 584l26 117h120l-26 -117h-120z" />
    <glyph glyph-name="eth" unicode="&#xf0;" horiz-adv-x="467" 
d="M194 567l-20 72l70 18q-28 38 -43 57h146l17 -25l80 22l20 -72l-63 -17q47 -102 47 -216q0 -108 -30 -205t-83 -150q-62 -62 -139 -62q-81 0 -128.5 53.5t-47.5 148.5q0 73 24.5 157t75.5 135q52 52 115 52q53 0 88 -41q-11 45 -38 97zM203 103q25 0 46 21q32 32 50 101
t18 121q0 85 -57 85q-25 0 -46 -21q-32 -32 -50 -101t-18 -121q0 -85 57 -85z" />
    <glyph glyph-name="ntilde" unicode="&#xf1;" horiz-adv-x="463" 
d="M-13 0l116 536h130l-13 -61q59 71 120 71q52 0 81 -31.5t29 -84.5q0 -28 -9 -69l-78 -361h-130l73 336q7 33 7 46q0 47 -46 47q-27 0 -46.5 -21t-27.5 -56l-76 -352h-130zM402 718l71 -20q-23 -61 -47.5 -89t-60.5 -28q-23 0 -67 21q-36 16 -45 16q-15 0 -25 -9.5
t-22 -33.5l-71 20q24 63 48 90t60 27q23 0 67 -21q36 -16 44 -16q15 0 26 9.5t22 33.5z" />
    <glyph glyph-name="ograve" unicode="&#xf2;" horiz-adv-x="462" 
d="M261 545q86 0 133.5 -56t47.5 -153q0 -76 -26 -158t-74 -130q-59 -59 -141 -59q-86 0 -133.5 56t-47.5 153q0 76 26 158t74 130q59 59 141 59zM204 103q25 0 47 22q29 29 47.5 92.5t18.5 117.5q0 96 -59 96q-25 0 -47 -22q-29 -29 -47.5 -92.5t-18.5 -117.5q0 -96 59 -96
zM245 582l-96 104l104 54l80 -158h-88z" />
    <glyph glyph-name="oacute" unicode="&#xf3;" horiz-adv-x="462" 
d="M261 545q86 0 133.5 -56t47.5 -153q0 -76 -26 -158t-74 -130q-59 -59 -141 -59q-86 0 -133.5 56t-47.5 153q0 76 26 158t74 130q59 59 141 59zM204 103q25 0 47 22q29 29 47.5 92.5t18.5 117.5q0 96 -59 96q-25 0 -47 -22q-29 -29 -47.5 -92.5t-18.5 -117.5q0 -96 59 -96
zM240 582l127 158l102 -54l-129 -104h-100z" />
    <glyph glyph-name="ocircumflex" unicode="&#xf4;" horiz-adv-x="462" 
d="M261 545q86 0 133.5 -56t47.5 -153q0 -76 -26 -158t-74 -130q-59 -59 -141 -59q-86 0 -133.5 56t-47.5 153q0 76 26 158t74 130q59 59 141 59zM204 103q25 0 47 22q29 29 47.5 92.5t18.5 117.5q0 96 -59 96q-25 0 -47 -22q-29 -29 -47.5 -92.5t-18.5 -117.5q0 -96 59 -96
zM149 582l125 145h107l63 -145h-86l-45 63l-70 -63h-94z" />
    <glyph glyph-name="otilde" unicode="&#xf5;" horiz-adv-x="462" 
d="M261 545q86 0 133.5 -56t47.5 -153q0 -76 -26 -158t-74 -130q-59 -59 -141 -59q-86 0 -133.5 56t-47.5 153q0 76 26 158t74 130q59 59 141 59zM204 103q25 0 47 22q29 29 47.5 92.5t18.5 117.5q0 96 -59 96q-25 0 -47 -22q-29 -29 -47.5 -92.5t-18.5 -117.5q0 -96 59 -96
zM409 718l71 -20q-23 -61 -47.5 -89t-60.5 -28q-23 0 -67 21q-36 16 -45 16q-15 0 -25 -9.5t-22 -33.5l-71 20q24 63 48 90t60 27q23 0 67 -21q36 -16 44 -16q15 0 26 9.5t22 33.5z" />
    <glyph glyph-name="odieresis" unicode="&#xf6;" horiz-adv-x="462" 
d="M261 545q86 0 133.5 -56t47.5 -153q0 -76 -26 -158t-74 -130q-59 -59 -141 -59q-86 0 -133.5 56t-47.5 153q0 76 26 158t74 130q59 59 141 59zM204 103q25 0 47 22q29 29 47.5 92.5t18.5 117.5q0 96 -59 96q-25 0 -47 -22q-29 -29 -47.5 -92.5t-18.5 -117.5q0 -96 59 -96
zM154 584l25 117h120l-25 -117h-120zM321 584l26 117h120l-26 -117h-120z" />
    <glyph glyph-name="divide" unicode="&#xf7;" horiz-adv-x="476" 
d="M138 106l28 126h130l-28 -126h-130zM46 294l25 116h396l-25 -116h-396zM217 472l28 126h130l-28 -126h-130z" />
    <glyph glyph-name="oslash" unicode="&#xf8;" horiz-adv-x="462" 
d="M260 545q78 0 124 -46l35 43h90l-87 -99q20 -46 20 -107q0 -76 -26 -158t-74 -130q-59 -59 -141 -59q-76 0 -123 44l-35 -43h-90l87 100q-20 46 -20 108q0 76 26 158t74 130q59 59 140 59zM258 435q-27 0 -50 -23q-30 -30 -48.5 -93t-18.5 -117l164 208q-17 25 -47 25z
M254 122q29 29 47 90.5t20 116.5l-163 -207q17 -23 46 -23q27 0 50 23z" />
    <glyph glyph-name="ugrave" unicode="&#xf9;" horiz-adv-x="463" 
d="M123 -10q-52 0 -81 31.5t-29 84.5q0 28 9 69l78 361h130l-73 -336q-7 -33 -7 -46q0 -47 46 -47q27 0 46.5 21t27.5 56l76 352h130l-116 -536h-130l13 61q-59 -71 -120 -71zM243 582l-96 104l104 54l80 -158h-88z" />
    <glyph glyph-name="uacute" unicode="&#xfa;" horiz-adv-x="463" 
d="M123 -10q-52 0 -81 31.5t-29 84.5q0 28 9 69l78 361h130l-73 -336q-7 -33 -7 -46q0 -47 46 -47q27 0 46.5 21t27.5 56l76 352h130l-116 -536h-130l13 61q-59 -71 -120 -71zM238 582l127 158l102 -54l-129 -104h-100z" />
    <glyph glyph-name="ucircumflex" unicode="&#xfb;" horiz-adv-x="463" 
d="M123 -10q-52 0 -81 31.5t-29 84.5q0 28 9 69l78 361h130l-73 -336q-7 -33 -7 -46q0 -47 46 -47q27 0 46.5 21t27.5 56l76 352h130l-116 -536h-130l13 61q-59 -71 -120 -71zM147 582l125 145h107l63 -145h-86l-45 63l-70 -63h-94z" />
    <glyph glyph-name="udieresis" unicode="&#xfc;" horiz-adv-x="463" 
d="M123 -10q-52 0 -81 31.5t-29 84.5q0 28 9 69l78 361h130l-73 -336q-7 -33 -7 -46q0 -47 46 -47q27 0 46.5 21t27.5 56l76 352h130l-116 -536h-130l13 61q-59 -71 -120 -71zM152 584l25 117h120l-25 -117h-120zM319 584l26 117h120l-26 -117h-120z" />
    <glyph glyph-name="yacute" unicode="&#xfd;" horiz-adv-x="443" 
d="M102 1l-30 535h131l3 -332l145 332h133l-255 -536q-38 -80 -76 -112.5t-94 -32.5q-53 0 -91 26l36 101q24 -15 50 -15q32 0 48 34zM226 582l127 158l102 -54l-129 -104h-100z" />
    <glyph glyph-name="thorn" unicode="&#xfe;" horiz-adv-x="482" 
d="M272 714l-53 -242q31 37 58.5 55.5t63.5 18.5q58 0 89.5 -49t31.5 -135q0 -92 -30.5 -184.5t-80.5 -142.5q-45 -45 -105 -45q-76 0 -114 80l-46 -211h-130l186 855h130zM219 108q25 0 46 21q28 28 47 95.5t19 117.5q0 86 -53 86q-25 0 -46 -21q-28 -28 -47 -95.5
t-19 -117.5q0 -86 53 -86z" />
    <glyph glyph-name="ydieresis" unicode="&#xff;" horiz-adv-x="443" 
d="M102 1l-30 535h131l3 -332l145 332h133l-255 -536q-38 -80 -76 -112.5t-94 -32.5q-53 0 -91 26l36 101q24 -15 50 -15q32 0 48 34zM140 584l25 117h120l-25 -117h-120zM307 584l26 117h120l-26 -117h-120z" />
    <glyph glyph-name="Amacron" unicode="&#x100;" horiz-adv-x="534" 
d="M-51 0l346 703h137l43 -703h-135l-6 146h-181l-68 -146h-136zM208 265h121l-9 239zM229 756l19 90h293l-19 -90h-293z" />
    <glyph glyph-name="amacron" unicode="&#x101;" horiz-adv-x="433" 
d="M100 -9q-48 0 -75.5 34t-27.5 98q0 48 16.5 94t42.5 72q44 44 114 44q49 0 104 -25l3 15q5 23 5 40q0 62 -78 62q-46 0 -92 -23l-16 113q72 27 137 27q84 0 130.5 -41t46.5 -116q0 -30 -11 -82l-65 -303h-128l12 57q-50 -66 -118 -66zM169 90q28 0 48.5 20.5t27.5 58.5
l11 55q-29 16 -60 16q-27 0 -45 -18q-28 -28 -28 -78q0 -54 46 -54zM138 586l18 87h277l-18 -87h-277z" />
    <glyph glyph-name="Abreve" unicode="&#x102;" horiz-adv-x="534" 
d="M-51 0l346 703h137l43 -703h-135l-6 146h-181l-68 -146h-136zM208 265h121l-9 239zM381 748q-62 0 -95.5 32.5t-23.5 92.5h78q3 -43 54 -43q49 0 67 43h86q-16 -61 -60 -93t-106 -32z" />
    <glyph glyph-name="abreve" unicode="&#x103;" horiz-adv-x="433" 
d="M100 -9q-48 0 -75.5 34t-27.5 98q0 48 16.5 94t42.5 72q44 44 114 44q49 0 104 -25l3 15q5 23 5 40q0 62 -78 62q-46 0 -92 -23l-16 113q72 27 137 27q84 0 130.5 -41t46.5 -116q0 -30 -11 -82l-65 -303h-128l12 57q-50 -66 -118 -66zM169 90q28 0 48.5 20.5t27.5 58.5
l11 55q-29 16 -60 16q-27 0 -45 -18q-28 -28 -28 -78q0 -54 46 -54zM282 577q-62 0 -96 36t-30 97h80q1 -23 14 -37t38 -14q49 0 70 51h84q-16 -63 -58.5 -98t-101.5 -35z" />
    <glyph glyph-name="Aogonek" unicode="&#x104;" horiz-adv-x="534" 
d="M465 -85l-15 -68q-23 -4 -47 -4q-42 0 -66 17.5t-24 47.5q0 43 56 92h-29l-6 146h-181l-68 -146h-136l346 703h137l43 -703h-18q-40 -40 -40 -61q0 -27 48 -24zM208 265h121l-9 239z" />
    <glyph glyph-name="aogonek" unicode="&#x105;" horiz-adv-x="433" 
d="M326 -85l-15 -68q-23 -4 -47 -4q-42 0 -66 17.5t-24 47.5q0 43 56 92h-24l12 57q-50 -66 -118 -66q-48 0 -75.5 34t-27.5 98q0 48 16.5 94t42.5 72q44 44 114 44q49 0 104 -25l3 15q5 23 5 40q0 62 -78 62q-46 0 -92 -23l-16 113q72 27 137 27q84 0 130.5 -41t46.5 -116
q0 -30 -11 -82l-65 -303h-16q-40 -40 -40 -61q0 -27 48 -24zM169 90q28 0 48.5 20.5t27.5 58.5l11 55q-29 16 -60 16q-27 0 -45 -18q-28 -28 -28 -78q0 -54 46 -54z" />
    <glyph glyph-name="Cacute" unicode="&#x106;" horiz-adv-x="480" 
d="M264 -8q-104 0 -161.5 70t-57.5 204q0 99 34 201.5t96 164.5q76 76 169 76q121 0 186 -96l-92 -95q-42 64 -91 64q-38 0 -72 -34q-42 -42 -67.5 -124.5t-25.5 -153.5q0 -76 25.5 -113t65.5 -37q44 0 101 49l56 -112q-76 -64 -166 -64zM314 752l128 139l108 -55l-131 -84
h-105z" />
    <glyph glyph-name="cacute" unicode="&#x107;" horiz-adv-x="376" 
d="M193 -11q-79 0 -126 52t-47 156q0 73 26.5 155t78.5 134q59 59 136 59q86 0 143 -81l-81 -87q-29 47 -62 47q-25 0 -47 -22q-33 -33 -50.5 -93.5t-17.5 -110.5q0 -89 60 -89q29 0 66 31l49 -99q-58 -52 -128 -52zM218 582l127 158l102 -54l-129 -104h-100z" />
    <glyph glyph-name="Cdotaccent" unicode="&#x10a;" horiz-adv-x="480" 
d="M264 -8q-104 0 -161.5 70t-57.5 204q0 99 34 201.5t96 164.5q76 76 169 76q121 0 186 -96l-92 -95q-42 64 -91 64q-38 0 -72 -34q-42 -42 -67.5 -124.5t-25.5 -153.5q0 -76 25.5 -113t65.5 -37q44 0 101 49l56 -112q-76 -64 -166 -64zM312 754l25 115h124l-25 -115h-124z
" />
    <glyph glyph-name="cdotaccent" unicode="&#x10b;" horiz-adv-x="376" 
d="M193 -11q-79 0 -126 52t-47 156q0 73 26.5 155t78.5 134q59 59 136 59q86 0 143 -81l-81 -87q-29 47 -62 47q-25 0 -47 -22q-33 -33 -50.5 -93.5t-17.5 -110.5q0 -89 60 -89q29 0 66 31l49 -99q-58 -52 -128 -52zM214 584l25 117h123l-25 -117h-123z" />
    <glyph glyph-name="Ccaron" unicode="&#x10c;" horiz-adv-x="480" 
d="M264 -8q-104 0 -161.5 70t-57.5 204q0 99 34 201.5t96 164.5q76 76 169 76q121 0 186 -96l-92 -95q-42 64 -91 64q-38 0 -72 -34q-42 -42 -67.5 -124.5t-25.5 -153.5q0 -76 25.5 -113t65.5 -37q44 0 101 49l56 -112q-76 -64 -166 -64zM553 882l-122 -130h-114l-66 130h92
l44 -51l66 51h100z" />
    <glyph glyph-name="ccaron" unicode="&#x10d;" horiz-adv-x="376" 
d="M193 -11q-79 0 -126 52t-47 156q0 73 26.5 155t78.5 134q59 59 136 59q86 0 143 -81l-81 -87q-29 47 -62 47q-25 0 -47 -22q-33 -33 -50.5 -93.5t-17.5 -110.5q0 -89 60 -89q29 0 66 31l49 -99q-58 -52 -128 -52zM225 582l-63 145h86l45 -63l71 63h94l-125 -145h-108z
" />
    <glyph glyph-name="Dcaron" unicode="&#x10e;" horiz-adv-x="551" 
d="M-4 0l152 700h132q131 0 198 -67q64 -64 64 -190q0 -95 -32 -192t-92 -157q-94 -94 -252 -94h-170zM373 547q-31 31 -87 31h-31l-98 -456h34q75 0 130 55q38 38 62 113.5t24 145.5q0 77 -34 111zM534 872l-122 -130h-114l-66 130h92l44 -51l66 51h100z" />
    <glyph glyph-name="dcaron" unicode="&#x10f;" horiz-adv-x="481" 
d="M541 571l43 167h95v-2l-82 -165h-56zM249 0l14 64q-31 -37 -58.5 -55.5t-63.5 -18.5q-58 0 -89.5 49t-31.5 135q0 92 30.5 184.5t80.5 142.5q45 45 105 45q76 0 114 -80l54 248h130l-155 -714h-130zM204 108q25 0 46 21q28 28 47 95.5t19 117.5q0 86 -53 86
q-25 0 -46 -21q-28 -28 -47 -95.5t-19 -117.5q0 -86 53 -86z" />
    <glyph glyph-name="Dcroat" unicode="&#x110;" horiz-adv-x="567" 
d="M24 292l26 120h51l63 288h132q131 0 198 -67q64 -64 64 -190q0 -95 -32 -192t-92 -157q-94 -94 -252 -94h-170l63 292h-51zM389 547q-31 31 -87 31h-31l-36 -166h89l-26 -120h-89l-36 -170h34q75 0 130 55q38 38 62 113.5t24 145.5q0 77 -34 111z" />
    <glyph glyph-name="dcroat" unicode="&#x111;" horiz-adv-x="482" 
d="M270 584l19 82h104l11 48h130l-11 -48h46l-18 -83h-46l-126 -583h-130l14 64q-31 -37 -58.5 -55.5t-63.5 -18.5q-58 0 -89.5 49t-31.5 135q0 92 30.5 184.5t80.5 142.5q45 45 105 45q76 0 114 -80l25 118h-105zM204 108q25 0 46 21q28 28 47 95.5t19 117.5q0 86 -53 86
q-25 0 -46 -21q-28 -28 -47 -95.5t-19 -117.5q0 -86 53 -86z" />
    <glyph glyph-name="Emacron" unicode="&#x112;" horiz-adv-x="454" 
d="M-4 0l152 700h362l-28 -124h-227l-35 -162h200l-25 -123h-202l-36 -167h234l-29 -124h-366zM188 746l19 90h293l-19 -90h-293z" />
    <glyph glyph-name="emacron" unicode="&#x113;" horiz-adv-x="437" 
d="M398 214h-257v-13q0 -97 78 -97q46 0 97 39l35 -104q-73 -50 -151 -50q-86 0 -134.5 54.5t-48.5 155.5q0 80 29.5 158t80.5 129q59 59 135 59q73 0 115 -49.5t42 -137.5q0 -61 -21 -144zM146 586l18 87h277l-18 -87h-277zM214 416q-34 -34 -57 -109h137q7 28 7 56
q0 71 -47 71q-22 0 -40 -18z" />
    <glyph glyph-name="Ebreve" unicode="&#x114;" horiz-adv-x="454" 
d="M-4 0l152 700h362l-28 -124h-227l-35 -162h200l-25 -123h-202l-36 -167h234l-29 -124h-366zM340 738q-62 0 -95.5 32.5t-23.5 92.5h78q3 -43 54 -43q49 0 67 43h86q-16 -61 -60 -93t-106 -32z" />
    <glyph glyph-name="ebreve" unicode="&#x115;" horiz-adv-x="437" 
d="M398 214h-257v-13q0 -97 78 -97q46 0 97 39l35 -104q-73 -50 -151 -50q-86 0 -134.5 54.5t-48.5 155.5q0 80 29.5 158t80.5 129q59 59 135 59q73 0 115 -49.5t42 -137.5q0 -61 -21 -144zM290 577q-62 0 -96 36t-30 97h80q1 -23 14 -37t38 -14q49 0 70 51h84
q-16 -63 -58.5 -98t-101.5 -35zM214 416q-34 -34 -57 -109h137q7 28 7 56q0 71 -47 71q-22 0 -40 -18z" />
    <glyph glyph-name="Edotaccent" unicode="&#x116;" horiz-adv-x="454" 
d="M-4 0l152 700h362l-28 -124h-227l-35 -162h200l-25 -123h-202l-36 -167h234l-29 -124h-366zM273 744l25 115h124l-25 -115h-124z" />
    <glyph glyph-name="edotaccent" unicode="&#x117;" horiz-adv-x="437" 
d="M398 214h-257v-13q0 -97 78 -97q46 0 97 39l35 -104q-73 -50 -151 -50q-86 0 -134.5 54.5t-48.5 155.5q0 80 29.5 158t80.5 129q59 59 135 59q73 0 115 -49.5t42 -137.5q0 -61 -21 -144zM222 584l25 117h123l-25 -117h-123zM214 416q-34 -34 -57 -109h137q7 28 7 56
q0 71 -47 71q-22 0 -40 -18z" />
    <glyph glyph-name="Eogonek" unicode="&#x118;" horiz-adv-x="454" 
d="M-4 0l152 700h362l-28 -124h-227l-35 -162h200l-25 -123h-202l-36 -167h234l-29 -124h-22q-40 -40 -40 -61q0 -27 48 -24l-15 -68q-23 -4 -47 -4q-42 0 -66 17.5t-24 47.5q0 43 56 92h-256z" />
    <glyph glyph-name="eogonek" unicode="&#x119;" horiz-adv-x="437" 
d="M316 143l35 -104q-49 -37 -65 -53q-27 -27 -27 -47q0 -27 48 -24l-15 -68q-23 -4 -47 -4q-42 0 -66 17.5t-24 47.5q0 41 43 81q-85 1 -133 55t-48 155q0 80 29.5 158t80.5 129q59 59 135 59q73 0 115 -49.5t42 -137.5q0 -61 -21 -144h-257v-13q0 -97 78 -97q46 0 97 39z
M214 416q-34 -34 -57 -109h137q7 28 7 56q0 71 -47 71q-22 0 -40 -18z" />
    <glyph glyph-name="Ecaron" unicode="&#x11a;" horiz-adv-x="454" 
d="M-4 0l152 700h362l-28 -124h-227l-35 -162h200l-25 -123h-202l-36 -167h234l-29 -124h-366zM514 872l-122 -130h-114l-66 130h92l44 -51l66 51h100z" />
    <glyph glyph-name="ecaron" unicode="&#x11b;" horiz-adv-x="437" 
d="M398 214h-257v-13q0 -97 78 -97q46 0 97 39l35 -104q-73 -50 -151 -50q-86 0 -134.5 54.5t-48.5 155.5q0 80 29.5 158t80.5 129q59 59 135 59q73 0 115 -49.5t42 -137.5q0 -61 -21 -144zM233 582l-63 145h86l45 -63l71 63h94l-125 -145h-108zM214 416q-34 -34 -57 -109
h137q7 28 7 56q0 71 -47 71q-22 0 -40 -18z" />
    <glyph glyph-name="Gbreve" unicode="&#x11e;" horiz-adv-x="544" 
d="M282 -8q-109 0 -173.5 74.5t-64.5 204.5q0 90 33.5 188t101.5 166q83 83 195 83q118 0 194 -84l-92 -101q-44 57 -105 57q-54 0 -95 -41q-48 -48 -71.5 -123.5t-23.5 -143.5q0 -78 30.5 -117.5t86.5 -39.5q29 0 44 9l34 157h-95l26 118h220l-79 -365q-87 -42 -166 -42z
M400 748q-62 0 -95.5 32.5t-23.5 92.5h78q3 -43 54 -43q49 0 67 43h86q-16 -61 -60 -93t-106 -32z" />
    <glyph glyph-name="gbreve" unicode="&#x11f;" horiz-adv-x="478" 
d="M150 -143q-104 0 -187 43l47 105q68 -37 137 -37q50 0 79 29q25 25 35 74l9 40q-62 -76 -121 -76q-60 0 -91 46t-31 133q0 75 28 158.5t72 127.5q46 46 104 46q77 0 115 -80l15 70h130l-103 -477q-22 -95 -69 -142q-60 -60 -169 -60zM209 152q24 0 45 21q24 24 40.5 77
t16.5 101q0 77 -51 77q-24 0 -45 -21q-24 -24 -40.5 -77t-16.5 -101q0 -77 51 -77zM312 577q-62 0 -96 36t-30 97h80q1 -23 14 -37t38 -14q49 0 70 51h84q-16 -63 -58.5 -98t-101.5 -35z" />
    <glyph glyph-name="Gdotaccent" unicode="&#x120;" horiz-adv-x="544" 
d="M282 -8q-109 0 -173.5 74.5t-64.5 204.5q0 90 33.5 188t101.5 166q83 83 195 83q118 0 194 -84l-92 -101q-44 57 -105 57q-54 0 -95 -41q-48 -48 -71.5 -123.5t-23.5 -143.5q0 -78 30.5 -117.5t86.5 -39.5q29 0 44 9l34 157h-95l26 118h220l-79 -365q-87 -42 -166 -42z
M333 754l25 115h124l-25 -115h-124z" />
    <glyph glyph-name="gdotaccent" unicode="&#x121;" horiz-adv-x="478" 
d="M150 -143q-104 0 -187 43l47 105q68 -37 137 -37q50 0 79 29q25 25 35 74l9 40q-62 -76 -121 -76q-60 0 -91 46t-31 133q0 75 28 158.5t72 127.5q46 46 104 46q77 0 115 -80l15 70h130l-103 -477q-22 -95 -69 -142q-60 -60 -169 -60zM209 152q24 0 45 21q24 24 40.5 77
t16.5 101q0 77 -51 77q-24 0 -45 -21q-24 -24 -40.5 -77t-16.5 -101q0 -77 51 -77zM244 584l25 117h123l-25 -117h-123z" />
    <glyph glyph-name="Gcommaaccent" unicode="&#x122;" horiz-adv-x="544" 
d="M133 -249l1 42q36 4 53 17.5t22 41.5h-54l22 99h117l-19 -87q-24 -110 -142 -113zM282 -8q-109 0 -173.5 74.5t-64.5 204.5q0 90 33.5 188t101.5 166q83 83 195 83q118 0 194 -84l-92 -101q-44 57 -105 57q-54 0 -95 -41q-48 -48 -71.5 -123.5t-23.5 -143.5
q0 -78 30.5 -117.5t86.5 -39.5q29 0 44 9l34 157h-95l26 118h220l-79 -365q-87 -42 -166 -42z" />
    <glyph glyph-name="gcommaaccent" unicode="&#x123;" horiz-adv-x="478" 
d="M407 787l-1 -42q-36 -4 -53 -17.5t-22 -41.5h54l-22 -99h-117l19 87q24 110 142 113zM150 -143q-104 0 -187 43l47 105q68 -37 137 -37q50 0 79 29q25 25 35 74l9 40q-62 -76 -121 -76q-60 0 -91 46t-31 133q0 75 28 158.5t72 127.5q46 46 104 46q77 0 115 -80l15 70h130
l-103 -477q-22 -95 -69 -142q-60 -60 -169 -60zM209 152q24 0 45 21q24 24 40.5 77t16.5 101q0 77 -51 77q-24 0 -45 -21q-24 -24 -40.5 -77t-16.5 -101q0 -77 51 -77z" />
    <glyph glyph-name="Hbar" unicode="&#x126;" horiz-adv-x="556" 
d="M66 515l22 105h47l18 80h134l-18 -82h170l18 82h134l-18 -80h48l-22 -105h-48l-112 -515h-134l63 289h-170l-63 -289h-134l112 515h-47zM225 415h170l22 102h-170z" />
    <glyph glyph-name="hbar" unicode="&#x127;" horiz-adv-x="464" 
d="M69 583l18 83h44l11 48h130l-11 -48h107l-18 -82h-107l-23 -109q59 71 120 71q52 0 81 -31.5t29 -84.5q0 -28 -9 -69l-78 -361h-130l73 336q7 33 7 46q0 47 -46 47q-27 0 -46.5 -21t-27.5 -56l-76 -352h-130l126 583h-44z" />
    <glyph glyph-name="Imacron" unicode="&#x12a;" horiz-adv-x="249" 
d="M-1 0l152 700h134l-152 -700h-134zM81 746l19 90h293l-19 -90h-293z" />
    <glyph glyph-name="imacron" unicode="&#x12b;" horiz-adv-x="227" 
d="M-10 0l117 536h130l-117 -536h-130zM44 586l18 87h277l-18 -87h-277z" />
    <glyph glyph-name="Ibreve" unicode="&#x12c;" horiz-adv-x="249" 
d="M-1 0l152 700h134l-152 -700h-134zM233 738q-62 0 -95.5 32.5t-23.5 92.5h78q3 -43 54 -43q49 0 67 43h86q-16 -61 -60 -93t-106 -32z" />
    <glyph glyph-name="ibreve" unicode="&#x12d;" horiz-adv-x="227" 
d="M-10 0l117 536h130l-117 -536h-130zM188 577q-62 0 -96 36t-30 97h80q1 -23 14 -37t38 -14q49 0 70 51h84q-16 -63 -58.5 -98t-101.5 -35z" />
    <glyph glyph-name="Iogonek" unicode="&#x12e;" horiz-adv-x="249" 
d="M-1 0l152 700h134l-152 -700h-17q-40 -40 -40 -61q0 -27 48 -24l-15 -68q-23 -4 -47 -4q-42 0 -66 17.5t-24 47.5q0 41 56 92h-29z" />
    <glyph glyph-name="iogonek" unicode="&#x12f;" horiz-adv-x="227" 
d="M-10 0l116 536h130l-116 -536h-15q-40 -40 -40 -61q0 -27 48 -24l-15 -68q-23 -4 -47 -4q-42 0 -66 17.5t-24 47.5q0 41 56 92h-27zM116 590l27 124h134l-27 -124h-134z" />
    <glyph glyph-name="Idotaccent" unicode="&#x130;" horiz-adv-x="249" 
d="M-1 0l152 700h134l-152 -700h-134zM166 744l25 115h124l-25 -115h-124z" />
    <glyph glyph-name="dotlessi" unicode="&#x131;" horiz-adv-x="227" 
d="M-10 0l117 536h130l-117 -536h-130z" />
    <glyph glyph-name="Kcommaaccent" unicode="&#x136;" horiz-adv-x="523" 
d="M-4 0l152 700h133l-65 -302l228 302h161l-238 -306l90 -394h-144l-59 287l-84 -100l-40 -187h-134zM113 -243l1 42q36 4 53 17.5t22 41.5h-54l22 99h117l-19 -87q-24 -110 -142 -113z" />
    <glyph glyph-name="kcommaaccent" unicode="&#x137;" horiz-adv-x="439" 
d="M-13 0l155 714h130l-80 -367l149 189h154l-182 -219l61 -317h-139l-35 215l-50 -62l-33 -153h-130zM52 -248l1 42q36 4 53 17.5t22 41.5h-54l22 99h117l-19 -87q-24 -110 -142 -113z" />
    <glyph glyph-name="Lacute" unicode="&#x139;" horiz-adv-x="418" 
d="M178 742l128 139l108 -55l-131 -84h-105zM-4 0l152 700h134l-125 -575h208l-27 -125h-342z" />
    <glyph glyph-name="lacute" unicode="&#x13a;" horiz-adv-x="227" 
d="M167 753l128 139l108 -55l-131 -84h-105zM-10 0l155 714h130l-155 -714h-130z" />
    <glyph glyph-name="Lcommaaccent" unicode="&#x13b;" horiz-adv-x="418" 
d="M-4 0l152 700h134l-125 -575h208l-27 -125h-342zM51 -248l1 42q36 4 53 17.5t22 41.5h-54l22 99h117l-19 -87q-24 -110 -142 -113z" />
    <glyph glyph-name="lcommaaccent" unicode="&#x13c;" horiz-adv-x="227" 
d="M-10 0l155 714h130l-155 -714h-130zM-57 -248l1 42q36 4 53 17.5t22 41.5h-54l22 99h117l-19 -87q-24 -110 -142 -113z" />
    <glyph glyph-name="Lcaron" unicode="&#x13d;" horiz-adv-x="418" 
d="M283 557l43 167h95v-2l-82 -165h-56zM-4 0l152 700h134l-125 -575h208l-27 -125h-342z" />
    <glyph glyph-name="lcaron" unicode="&#x13e;" horiz-adv-x="227" 
d="M281 571l43 167h95v-2l-82 -165h-56zM-10 0l155 714h130l-155 -714h-130z" />
    <glyph glyph-name="Ldot" unicode="&#x13f;" horiz-adv-x="418" 
d="M287 310l26 118h115l-26 -118h-115zM-4 0l152 700h134l-125 -575h208l-27 -125h-342z" />
    <glyph glyph-name="ldot" unicode="&#x140;" horiz-adv-x="315" 
d="M230 308l25 114h99l-24 -114h-100zM-10 0l155 714h130l-155 -714h-130z" />
    <glyph glyph-name="Lslash" unicode="&#x141;" horiz-adv-x="434" 
d="M16 258l29 128l54 15l65 299h134l-56 -258l131 37l-29 -125l-130 -38l-41 -191h208l-27 -125h-342l59 274z" />
    <glyph glyph-name="lslash" unicode="&#x142;" horiz-adv-x="270" 
d="M11 254l27 124l61 22l68 314h130l-57 -261l64 24l-27 -124l-64 -24l-71 -329h-130l60 276z" />
    <glyph glyph-name="Nacute" unicode="&#x143;" horiz-adv-x="560" 
d="M-4 0l152 700h120l116 -404l87 404h130l-152 -700h-115l-118 414l-90 -414h-130zM323 737l128 139l108 -55l-131 -84h-105z" />
    <glyph glyph-name="nacute" unicode="&#x144;" horiz-adv-x="463" 
d="M-13 0l116 536h130l-13 -61q59 71 120 71q52 0 81 -31.5t29 -84.5q0 -28 -9 -69l-78 -361h-130l73 336q7 33 7 46q0 47 -46 47q-27 0 -46.5 -21t-27.5 -56l-76 -352h-130zM233 582l127 158l102 -54l-129 -104h-100z" />
    <glyph glyph-name="Ncommaaccent" unicode="&#x145;" horiz-adv-x="560" 
d="M-4 0l152 700h120l116 -404l87 404h130l-152 -700h-115l-118 414l-90 -414h-130zM111 -243l1 42q36 4 53 17.5t22 41.5h-54l22 99h117l-19 -87q-24 -110 -142 -113z" />
    <glyph glyph-name="ncommaaccent" unicode="&#x146;" horiz-adv-x="463" 
d="M-13 0l116 536h130l-13 -61q59 71 120 71q52 0 81 -31.5t29 -84.5q0 -28 -9 -69l-78 -361h-130l73 336q7 33 7 46q0 47 -46 47q-27 0 -46.5 -21t-27.5 -56l-76 -352h-130zM52 -248l1 42q36 4 53 17.5t22 41.5h-54l22 99h117l-19 -87q-24 -110 -142 -113z" />
    <glyph glyph-name="Ncaron" unicode="&#x147;" horiz-adv-x="560" 
d="M-4 0l152 700h120l116 -404l87 404h130l-152 -700h-115l-118 414l-90 -414h-130zM562 867l-122 -130h-114l-66 130h92l44 -51l66 51h100z" />
    <glyph glyph-name="ncaron" unicode="&#x148;" horiz-adv-x="463" 
d="M-13 0l116 536h130l-13 -61q59 71 120 71q52 0 81 -31.5t29 -84.5q0 -28 -9 -69l-78 -361h-130l73 336q7 33 7 46q0 47 -46 47q-27 0 -46.5 -21t-27.5 -56l-76 -352h-130zM239 582l-63 145h86l45 -63l71 63h94l-125 -145h-108z" />
    <glyph glyph-name="Omacron" unicode="&#x14c;" horiz-adv-x="572" 
d="M352 711q109 0 161.5 -71.5t52.5 -187.5q0 -99 -36.5 -211.5t-98.5 -175.5q-76 -76 -176 -76q-109 0 -161.5 71.5t-52.5 187.5q0 99 36.5 211.5t98.5 175.5q76 76 176 76zM264 112q37 0 67 30q49 49 74.5 143t25.5 165q0 138 -88 138q-37 0 -67 -30q-49 -49 -74.5 -143
t-25.5 -165q0 -138 88 -138zM240 756l19 90h293l-19 -90h-293z" />
    <glyph glyph-name="omacron" unicode="&#x14d;" horiz-adv-x="462" 
d="M261 545q86 0 133.5 -56t47.5 -153q0 -76 -26 -158t-74 -130q-59 -59 -141 -59q-86 0 -133.5 56t-47.5 153q0 76 26 158t74 130q59 59 141 59zM204 103q25 0 47 22q29 29 47.5 92.5t18.5 117.5q0 96 -59 96q-25 0 -47 -22q-29 -29 -47.5 -92.5t-18.5 -117.5q0 -96 59 -96
zM160 586l18 87h277l-18 -87h-277z" />
    <glyph glyph-name="Obreve" unicode="&#x14e;" horiz-adv-x="572" 
d="M352 711q109 0 161.5 -71.5t52.5 -187.5q0 -99 -36.5 -211.5t-98.5 -175.5q-76 -76 -176 -76q-109 0 -161.5 71.5t-52.5 187.5q0 99 36.5 211.5t98.5 175.5q76 76 176 76zM264 112q37 0 67 30q49 49 74.5 143t25.5 165q0 138 -88 138q-37 0 -67 -30q-49 -49 -74.5 -143
t-25.5 -165q0 -138 88 -138zM391 748q-62 0 -95.5 32.5t-23.5 92.5h78q3 -43 54 -43q49 0 67 43h86q-16 -61 -60 -93t-106 -32z" />
    <glyph glyph-name="obreve" unicode="&#x14f;" horiz-adv-x="462" 
d="M261 545q86 0 133.5 -56t47.5 -153q0 -76 -26 -158t-74 -130q-59 -59 -141 -59q-86 0 -133.5 56t-47.5 153q0 76 26 158t74 130q59 59 141 59zM204 103q25 0 47 22q29 29 47.5 92.5t18.5 117.5q0 96 -59 96q-25 0 -47 -22q-29 -29 -47.5 -92.5t-18.5 -117.5q0 -96 59 -96
zM304 577q-62 0 -96 36t-30 97h80q1 -23 14 -37t38 -14q49 0 70 51h84q-16 -63 -58.5 -98t-101.5 -35z" />
    <glyph glyph-name="Ohungarumlaut" unicode="&#x150;" horiz-adv-x="572" 
d="M352 711q109 0 161.5 -71.5t52.5 -187.5q0 -99 -36.5 -211.5t-98.5 -175.5q-76 -76 -176 -76q-109 0 -161.5 71.5t-52.5 187.5q0 99 36.5 211.5t98.5 175.5q76 76 176 76zM264 112q37 0 67 30q49 49 74.5 143t25.5 165q0 138 -88 138q-37 0 -67 -30q-49 -49 -74.5 -143
t-25.5 -165q0 -138 88 -138zM236 752l128 139l100 -55l-128 -84h-100zM388 752l127 139l100 -55l-128 -84h-99z" />
    <glyph glyph-name="ohungarumlaut" unicode="&#x151;" horiz-adv-x="462" 
d="M261 545q86 0 133.5 -56t47.5 -153q0 -76 -26 -158t-74 -130q-59 -59 -141 -59q-86 0 -133.5 56t-47.5 153q0 76 26 158t74 130q59 59 141 59zM204 103q25 0 47 22q29 29 47.5 92.5t18.5 117.5q0 96 -59 96q-25 0 -47 -22q-29 -29 -47.5 -92.5t-18.5 -117.5q0 -96 59 -96
zM163 582l125 158l91 -54l-126 -104h-90zM306 582l126 158l91 -54l-127 -104h-90z" />
    <glyph glyph-name="OE" unicode="&#x152;" horiz-adv-x="744" 
d="M308 0q-131 0 -198 67q-64 64 -64 190q0 95 32 192t92 157q94 94 252 94h378l-28 -124h-219l-35 -162h192l-25 -123h-194l-36 -167h226l-29 -124h-344zM215 153q31 -31 87 -31h21l98 456h-24q-75 0 -130 -55q-38 -38 -62 -113.5t-24 -145.5q0 -77 34 -111z" />
    <glyph glyph-name="oe" unicode="&#x153;" horiz-adv-x="726" 
d="M687 214h-257v-13q0 -97 78 -97q46 0 97 39l35 -104q-73 -50 -147 -50q-101 0 -142 84q-58 -84 -150 -84q-86 0 -133.5 56t-47.5 153q0 72 23.5 153.5t76.5 134.5q59 59 142 59q93 0 144 -84q60 84 150 84q70 0 111 -49.5t41 -137.5q0 -61 -21 -144zM204 103q26 0 47 21
q29 29 47.5 93t18.5 118q0 96 -59 96q-26 0 -47 -21q-29 -29 -47.5 -93t-18.5 -118q0 -96 59 -96zM503 416q-34 -34 -57 -109h137q7 28 7 56q0 71 -47 71q-22 0 -40 -18z" />
    <glyph glyph-name="Racute" unicode="&#x154;" horiz-adv-x="518" 
d="M301 0l-62 237h-5h-53l-51 -237h-134l152 700h146q125 0 185 -58q52 -52 52 -140q0 -113 -73 -186q-33 -33 -85 -55l69 -261h-141zM207 356h45q70 0 108 38q36 36 36 97q0 40 -21 61q-25 25 -78 25h-42zM281 742l128 139l108 -55l-131 -84h-105z" />
    <glyph glyph-name="racute" unicode="&#x155;" horiz-adv-x="309" 
d="M-13 0l116 536h130l-18 -85q56 99 134 92l-32 -148h-5q-109 0 -141 -143l-54 -252h-130zM169 582l127 158l102 -54l-129 -104h-100z" />
    <glyph glyph-name="Rcommaaccent" unicode="&#x156;" horiz-adv-x="518" 
d="M301 0l-62 237h-5h-53l-51 -237h-134l152 700h146q125 0 185 -58q52 -52 52 -140q0 -113 -73 -186q-33 -33 -85 -55l69 -261h-141zM207 356h45q70 0 108 38q36 36 36 97q0 40 -21 61q-25 25 -78 25h-42zM99 -243l1 42q36 4 53 17.5t22 41.5h-54l22 99h117l-19 -87
q-24 -110 -142 -113z" />
    <glyph glyph-name="rcommaaccent" unicode="&#x157;" horiz-adv-x="309" 
d="M-55 -248l1 42q36 4 53 17.5t22 41.5h-54l22 99h117l-19 -87q-24 -110 -142 -113zM-13 0l116 536h130l-18 -85q56 99 134 92l-32 -148h-5q-109 0 -141 -143l-54 -252h-130z" />
    <glyph glyph-name="Rcaron" unicode="&#x158;" horiz-adv-x="518" 
d="M301 0l-62 237h-5h-53l-51 -237h-134l152 700h146q125 0 185 -58q52 -52 52 -140q0 -113 -73 -186q-33 -33 -85 -55l69 -261h-141zM207 356h45q70 0 108 38q36 36 36 97q0 40 -21 61q-25 25 -78 25h-42zM520 872l-122 -130h-114l-66 130h92l44 -51l66 51h100z" />
    <glyph glyph-name="rcaron" unicode="&#x159;" horiz-adv-x="309" 
d="M-13 0l116 536h130l-18 -85q56 99 134 92l-32 -148h-5q-109 0 -141 -143l-54 -252h-130zM176 582l-63 145h86l45 -63l71 63h94l-125 -145h-108z" />
    <glyph glyph-name="Sacute" unicode="&#x15a;" horiz-adv-x="440" 
d="M200 -7q-140 0 -221 120l89 93q67 -90 131 -90q31 0 52.5 21t21.5 52q0 25 -16.5 48.5t-64.5 68.5q-60 56 -88 97.5t-28 97.5q0 89 56 145q61 61 147 61q123 0 202 -105l-94 -89q-51 71 -109 71q-31 0 -49.5 -20t-18.5 -49q0 -23 17 -46.5t61 -63.5q62 -55 91 -100
t29 -97q0 -96 -61 -157q-58 -58 -147 -58zM258 752l128 139l108 -55l-131 -84h-105z" />
    <glyph glyph-name="sacute" unicode="&#x15b;" horiz-adv-x="360" 
d="M151 -11q-103 0 -181 88l70 89q64 -67 110 -67q20 0 33.5 12.5t13.5 33.5q0 29 -52 80q-36 35 -52.5 53.5t-30.5 47.5t-14 62q0 67 45.5 112t120.5 45q94 0 166 -75l-68 -90q-55 55 -97 55q-19 0 -31.5 -11.5t-12.5 -28.5q0 -16 10.5 -30.5t47.5 -50.5q52 -51 71.5 -86
t19.5 -76q0 -68 -48 -115.5t-121 -47.5zM186 582l127 158l102 -54l-129 -104h-100z" />
    <glyph glyph-name="Scedilla" unicode="&#x15e;" horiz-adv-x="440" 
d="M129 -143l-101 44l92 103q-85 27 -141 109l89 93q67 -90 131 -90q31 0 52.5 21t21.5 52q0 25 -16.5 48.5t-64.5 68.5q-60 56 -88 97.5t-28 97.5q0 89 56 145q61 61 147 61q123 0 202 -105l-94 -89q-51 71 -109 71q-31 0 -49.5 -20t-18.5 -49q0 -23 17 -46.5t61 -63.5
q62 -55 91 -100t29 -97q0 -96 -61 -157q-55 -55 -139 -58z" />
    <glyph glyph-name="scedilla" unicode="&#x15f;" horiz-adv-x="360" 
d="M90 -143l-101 44l89 100q-59 21 -108 76l70 89q64 -67 110 -67q20 0 33.5 12.5t13.5 33.5q0 29 -52 80q-36 35 -52.5 53.5t-30.5 47.5t-14 62q0 67 45.5 112t120.5 45q94 0 166 -75l-68 -90q-55 55 -97 55q-19 0 -31.5 -11.5t-12.5 -28.5q0 -16 10.5 -30.5t47.5 -50.5
q52 -51 71.5 -86t19.5 -76q0 -64 -43 -110.5t-110 -51.5z" />
    <glyph glyph-name="Scaron" unicode="&#x160;" horiz-adv-x="440" 
d="M200 -7q-140 0 -221 120l89 93q67 -90 131 -90q31 0 52.5 21t21.5 52q0 25 -16.5 48.5t-64.5 68.5q-60 56 -88 97.5t-28 97.5q0 89 56 145q61 61 147 61q123 0 202 -105l-94 -89q-51 71 -109 71q-31 0 -49.5 -20t-18.5 -49q0 -23 17 -46.5t61 -63.5q62 -55 91 -100
t29 -97q0 -96 -61 -157q-58 -58 -147 -58zM497 882l-122 -130h-114l-66 130h92l44 -51l66 51h100z" />
    <glyph glyph-name="scaron" unicode="&#x161;" horiz-adv-x="360" 
d="M151 -11q-103 0 -181 88l70 89q64 -67 110 -67q20 0 33.5 12.5t13.5 33.5q0 29 -52 80q-36 35 -52.5 53.5t-30.5 47.5t-14 62q0 67 45.5 112t120.5 45q94 0 166 -75l-68 -90q-55 55 -97 55q-19 0 -31.5 -11.5t-12.5 -28.5q0 -16 10.5 -30.5t47.5 -50.5q52 -51 71.5 -86
t19.5 -76q0 -68 -48 -115.5t-121 -47.5zM193 582l-63 145h86l45 -63l71 63h94l-125 -145h-108z" />
    <glyph glyph-name="Tcommaaccent" unicode="&#x162;" horiz-adv-x="434" 
d="M91 0l124 574h-133l28 126h400l-28 -126h-133l-124 -574h-134zM46 -248l1 42q36 4 53 17.5t22 41.5h-54l22 99h117l-19 -87q-24 -110 -142 -113z" />
    <glyph glyph-name="tcommaaccent" unicode="&#x163;" horiz-adv-x="304" 
d="M139 -8q-51 0 -80.5 25t-29.5 71q0 23 8 59l61 281h-44l24 108h43l30 137h130l-30 -137h85l-24 -108h-84l-54 -246q-8 -40 -8 -48q0 -27 33 -27q19 0 46 8l-24 -107q-35 -16 -82 -16zM-2 -248l1 42q36 4 53 17.5t22 41.5h-54l22 99h117l-19 -87q-24 -110 -142 -113z" />
    <glyph glyph-name="Tcaron" unicode="&#x164;" horiz-adv-x="434" 
d="M91 0l124 574h-133l28 126h400l-28 -126h-133l-124 -574h-134zM499 872l-122 -130h-114l-66 130h92l44 -51l66 51h100z" />
    <glyph glyph-name="tcaron" unicode="&#x165;" horiz-adv-x="304" 
d="M291 571l43 167h95v-2l-82 -165h-56zM139 -8q-51 0 -80.5 25t-29.5 71q0 23 8 59l61 281h-44l24 108h43l30 137h130l-30 -137h85l-24 -108h-84l-54 -246q-8 -40 -8 -48q0 -27 33 -27q19 0 46 8l-24 -107q-35 -16 -82 -16z" />
    <glyph glyph-name="Umacron" unicode="&#x16a;" horiz-adv-x="542" 
d="M234 -10q-90 0 -143 49t-53 137q0 38 11 87l94 437h134l-95 -436q-10 -42 -10 -76q0 -36 20 -55.5t53 -19.5q38 0 64 26q27 27 42 92l102 469h134l-104 -476q-25 -113 -83 -171q-62 -63 -166 -63zM225 741l19 90h293l-19 -90h-293z" />
    <glyph glyph-name="umacron" unicode="&#x16b;" horiz-adv-x="463" 
d="M123 -10q-52 0 -81 31.5t-29 84.5q0 28 9 69l78 361h130l-73 -336q-7 -33 -7 -46q0 -47 46 -47q27 0 46.5 21t27.5 56l76 352h130l-116 -536h-130l13 61q-59 -71 -120 -71zM158 586l18 87h277l-18 -87h-277z" />
    <glyph glyph-name="Ubreve" unicode="&#x16c;" horiz-adv-x="542" 
d="M234 -10q-90 0 -143 49t-53 137q0 38 11 87l94 437h134l-95 -436q-10 -42 -10 -76q0 -36 20 -55.5t53 -19.5q38 0 64 26q27 27 42 92l102 469h134l-104 -476q-25 -113 -83 -171q-62 -63 -166 -63zM377 733q-62 0 -95.5 32.5t-23.5 92.5h78q3 -43 54 -43q49 0 67 43h86
q-16 -61 -60 -93t-106 -32z" />
    <glyph glyph-name="ubreve" unicode="&#x16d;" horiz-adv-x="463" 
d="M123 -10q-52 0 -81 31.5t-29 84.5q0 28 9 69l78 361h130l-73 -336q-7 -33 -7 -46q0 -47 46 -47q27 0 46.5 21t27.5 56l76 352h130l-116 -536h-130l13 61q-59 -71 -120 -71zM302 577q-62 0 -96 36t-30 97h80q1 -23 14 -37t38 -14q49 0 70 51h84q-16 -63 -58.5 -98
t-101.5 -35z" />
    <glyph glyph-name="Uring" unicode="&#x16e;" horiz-adv-x="542" 
d="M234 -10q-90 0 -143 49t-53 137q0 38 11 87l94 437h134l-95 -436q-10 -42 -10 -76q0 -36 20 -55.5t53 -19.5q38 0 64 26q27 27 42 92l102 469h134l-104 -476q-25 -113 -83 -171q-62 -63 -166 -63zM395 913q41 0 66.5 -24t25.5 -59q0 -45 -31.5 -75t-80.5 -30
q-41 0 -66.5 24t-25.5 59q0 45 31.5 75t80.5 30zM380 772q23 0 38.5 15.5t15.5 37.5q0 18 -11.5 29.5t-32.5 11.5q-23 0 -38.5 -15.5t-15.5 -36.5q0 -18 12 -30t32 -12z" />
    <glyph glyph-name="uring" unicode="&#x16f;" horiz-adv-x="464" 
d="M413 681q0 -45 -30.5 -78.5t-76.5 -33.5q-40 0 -65 25.5t-25 62.5q0 44 30.5 77.5t76.5 33.5q40 0 65 -25t25 -62zM267 661q0 -19 11.5 -31.5t29.5 -12.5q23 0 38 18t15 42q0 19 -11 31.5t-30 12.5q-23 0 -38 -18t-15 -42zM124 -10q-52 0 -81 31.5t-29 84.5q0 28 9 69
l78 361h130l-73 -336q-7 -33 -7 -46q0 -47 46 -47q27 0 46.5 21t27.5 56l76 352h130l-116 -536h-130l13 61q-59 -71 -120 -71z" />
    <glyph glyph-name="Uhungarumlaut" unicode="&#x170;" horiz-adv-x="542" 
d="M234 -10q-90 0 -143 49t-53 137q0 38 11 87l94 437h134l-95 -436q-10 -42 -10 -76q0 -36 20 -55.5t53 -19.5q38 0 64 26q27 27 42 92l102 469h134l-104 -476q-25 -113 -83 -171q-62 -63 -166 -63zM222 737l128 139l100 -55l-128 -84h-100zM374 737l127 139l100 -55
l-128 -84h-99z" />
    <glyph glyph-name="uhungarumlaut" unicode="&#x171;" horiz-adv-x="463" 
d="M123 -10q-52 0 -81 31.5t-29 84.5q0 28 9 69l78 361h130l-73 -336q-7 -33 -7 -46q0 -47 46 -47q27 0 46.5 21t27.5 56l76 352h130l-116 -536h-130l13 61q-59 -71 -120 -71zM161 582l125 158l91 -54l-126 -104h-90zM304 582l126 158l91 -54l-127 -104h-90z" />
    <glyph glyph-name="Uogonek" unicode="&#x172;" horiz-adv-x="542" 
d="M270 -85l-15 -68q-23 -4 -47 -4q-42 0 -66 17.5t-24 47.5q0 44 53 90q-63 15 -98 61t-35 117q0 38 11 87l94 437h134l-95 -436q-10 -42 -10 -76q0 -36 20 -55.5t53 -19.5q38 0 64 26q27 27 42 92l102 469h134l-104 -476q-25 -113 -83 -171q-56 -57 -147 -62
q-31 -33 -31 -52q0 -27 48 -24z" />
    <glyph glyph-name="uogonek" unicode="&#x173;" horiz-adv-x="463" 
d="M123 -10q-52 0 -81 31.5t-29 84.5q0 28 9 69l78 361h130l-73 -336q-7 -33 -7 -46q0 -47 46 -47q27 0 46.5 21t27.5 56l76 352h130l-116 -536h-17q-40 -40 -40 -61q0 -27 48 -24l-15 -68q-23 -4 -47 -4q-42 0 -66 17.5t-24 47.5q0 43 56 92h-25l13 61q-59 -71 -120 -71z
" />
    <glyph glyph-name="Wcircumflex" unicode="&#x174;" horiz-adv-x="783" 
d="M104 -3l-3 703h137l-12 -446l193 447h120v-447l183 446h143l-308 -703h-134v427l-187 -427h-132zM336 742l122 130h114l66 -130h-91l-45 51l-66 -51h-100z" />
    <glyph glyph-name="wcircumflex" unicode="&#x175;" horiz-adv-x="642" 
d="M71 -3v539h131l-11 -312l133 313h107l-3 -313l126 312h129l-235 -539h-122l2 309l-136 -309h-121zM240 582l125 145h107l63 -145h-86l-45 63l-70 -63h-94z" />
    <glyph glyph-name="Ycircumflex" unicode="&#x176;" horiz-adv-x="481" 
d="M113 0l60 276l-86 424h141l41 -272l162 272h148l-273 -429l-59 -271h-134zM183 737l122 130h114l66 -130h-91l-45 51l-66 -51h-100z" />
    <glyph glyph-name="ycircumflex" unicode="&#x177;" horiz-adv-x="443" 
d="M102 1l-30 535h131l3 -332l145 332h133l-255 -536q-38 -80 -76 -112.5t-94 -32.5q-53 0 -91 26l36 101q24 -15 50 -15q32 0 48 34zM135 582l125 145h107l63 -145h-86l-45 63l-70 -63h-94z" />
    <glyph glyph-name="Ydieresis" unicode="&#x178;" horiz-adv-x="481" 
d="M113 0l60 276l-86 424h141l41 -272l162 272h148l-273 -429l-59 -271h-134zM187 739l25 115h122l-25 -115h-122zM362 739l25 115h122l-25 -115h-122z" />
    <glyph glyph-name="Zacute" unicode="&#x179;" horiz-adv-x="465" 
d="M-23 0l23 107l334 471h-228l26 122h393l-23 -106l-336 -472h237l-26 -122h-400zM271 742l128 139l108 -55l-131 -84h-105z" />
    <glyph glyph-name="zacute" unicode="&#x17a;" horiz-adv-x="380" 
d="M-35 0l21 95l252 333h-178l24 108h329l-21 -95l-252 -333h185l-24 -108h-336zM191 582l127 158l102 -54l-129 -104h-100z" />
    <glyph glyph-name="Zdotaccent" unicode="&#x17b;" horiz-adv-x="465" 
d="M-23 0l23 107l334 471h-228l26 122h393l-23 -106l-336 -472h237l-26 -122h-400zM269 744l25 115h124l-25 -115h-124z" />
    <glyph glyph-name="zdotaccent" unicode="&#x17c;" horiz-adv-x="380" 
d="M-35 0l21 95l252 333h-178l24 108h329l-21 -95l-252 -333h185l-24 -108h-336zM187 584l25 117h123l-25 -117h-123z" />
    <glyph glyph-name="Zcaron" unicode="&#x17d;" horiz-adv-x="465" 
d="M-23 0l23 107l334 471h-228l26 122h393l-23 -106l-336 -472h237l-26 -122h-400zM510 872l-122 -130h-114l-66 130h92l44 -51l66 51h100z" />
    <glyph glyph-name="zcaron" unicode="&#x17e;" horiz-adv-x="380" 
d="M-35 0l21 95l252 333h-178l24 108h329l-21 -95l-252 -333h185l-24 -108h-336zM197 582l-63 145h86l45 -63l71 63h94l-125 -145h-108z" />
    <glyph glyph-name="florin" unicode="&#x192;" horiz-adv-x="411" 
d="M44 -6q-42 0 -77 10l25 112q26 -8 38 -8q36 0 54 54l62 193h-56l23 107h67l32 100q45 144 171 144q58 0 98 -18l-26 -113q-30 15 -59 15q-46 0 -67 -63l-21 -65h97l-23 -107h-108l-72 -225q-44 -136 -158 -136z" />
    <glyph glyph-name="Aringacute" unicode="&#x1fa;" horiz-adv-x="534" 
d="M-51 0l334 677q-14 20 -14 46q0 45 31.5 75t80.5 30q41 0 66.5 -24t25.5 -59q0 -51 -38 -81l40 -664h-135l-6 146h-181l-68 -146h-136zM208 265h121l-9 239zM344 849l124 118l104 -53l-122 -65h-106zM366 687q23 0 38.5 15.5t15.5 37.5q0 18 -11.5 29.5t-32.5 11.5
q-23 0 -38.5 -15.5t-15.5 -36.5q0 -19 12 -30.5t32 -11.5z" />
    <glyph glyph-name="aringacute" unicode="&#x1fb;" horiz-adv-x="433" 
d="M275 801l116 124l102 -50l-118 -74h-100zM100 -9q-48 0 -75.5 34t-27.5 98q0 48 16.5 94t42.5 72q44 44 114 44q49 0 104 -25l3 15q5 23 5 40q0 62 -78 62q-46 0 -92 -23l-16 113q72 27 137 27q84 0 130.5 -41t46.5 -116q0 -30 -11 -82l-65 -303h-128l12 57
q-50 -66 -118 -66zM169 90q28 0 48.5 20.5t27.5 58.5l11 55q-29 16 -60 16q-27 0 -45 -18q-28 -28 -28 -78q0 -54 46 -54zM394 689q0 -45 -30.5 -78.5t-76.5 -33.5q-40 0 -65 25.5t-25 62.5q0 44 30.5 77.5t76.5 33.5q40 0 65 -25t25 -62zM248 669q0 -19 11.5 -31.5
t29.5 -12.5q23 0 38 18t15 42q0 19 -11 31.5t-30 12.5q-23 0 -38 -18t-15 -42z" />
    <glyph glyph-name="AEacute" unicode="&#x1fc;" horiz-adv-x="740" 
d="M-53 0l406 700h443l-28 -124h-219l-35 -162h192l-25 -123h-194l-36 -167h226l-29 -124h-357l32 146h-158l-83 -146h-135zM235 265h114l66 306h-12zM465 742l128 139l108 -55l-131 -84h-105z" />
    <glyph glyph-name="aeacute" unicode="&#x1fd;" horiz-adv-x="680" 
d="M447 -11q-115 0 -158 94q-71 -92 -165 -92q-59 0 -93 35t-34 97q0 48 16.5 94t42.5 72q44 44 114 44q49 0 104 -25l3 15q5 23 5 40q0 62 -78 62q-46 0 -92 -23l-16 113q72 27 137 27q101 0 138 -68q65 71 140 71q68 0 109.5 -50t41.5 -137q0 -61 -21 -144h-257v-13
q0 -97 78 -97q46 0 97 39l35 -104q-73 -50 -147 -50zM173 90q25 0 51 17t46 43q-4 30 -3 70q-34 20 -71 20q-27 0 -45 -18q-28 -28 -28 -78q0 -24 13 -39t37 -15zM332 582l127 158l102 -54l-129 -104h-100zM457 416q-34 -34 -57 -109h137q7 28 7 56q0 71 -47 71
q-22 0 -40 -18z" />
    <glyph glyph-name="Oslashacute" unicode="&#x1fe;" horiz-adv-x="572" 
d="M352 711q91 0 146 -55l37 49h98l-92 -115q25 -59 25 -138q0 -99 -36.5 -211.5t-98.5 -175.5q-76 -76 -176 -76q-91 0 -145 52l-37 -46h-98l92 110q-26 59 -26 143q0 99 36.5 211.5t98.5 175.5q76 76 176 76zM173 250v-20l239 325q-22 36 -69 36q-38 0 -70 -32
q-49 -49 -74.5 -143.5t-25.5 -165.5zM264 109q38 0 70 32q49 49 74.5 143.5t25.5 165.5v14l-237 -323q22 -32 67 -32zM326 752l128 139l108 -55l-131 -84h-105z" />
    <glyph glyph-name="oslashacute" unicode="&#x1ff;" horiz-adv-x="462" 
d="M260 545q78 0 124 -46l35 43h90l-87 -99q20 -46 20 -107q0 -76 -26 -158t-74 -130q-59 -59 -141 -59q-76 0 -123 44l-35 -43h-90l87 100q-20 46 -20 108q0 76 26 158t74 130q59 59 140 59zM240 582l127 158l102 -54l-129 -104h-100zM258 435q-27 0 -50 -23
q-30 -30 -48.5 -93t-18.5 -117l164 208q-17 25 -47 25zM254 122q29 29 47 90.5t20 116.5l-163 -207q17 -23 46 -23q27 0 50 23z" />
    <glyph glyph-name="Scommaaccent" unicode="&#x218;" horiz-adv-x="440" 
d="M200 -7q-140 0 -221 120l89 93q67 -90 131 -90q31 0 52.5 21t21.5 52q0 25 -16.5 48.5t-64.5 68.5q-60 56 -88 97.5t-28 97.5q0 89 56 145q61 61 147 61q123 0 202 -105l-94 -89q-51 71 -109 71q-31 0 -49.5 -20t-18.5 -49q0 -23 17 -46.5t61 -63.5q62 -55 91 -100
t29 -97q0 -96 -61 -157q-58 -58 -147 -58zM43 -248l1 42q36 4 53 17.5t22 41.5h-54l22 99h117l-19 -87q-24 -110 -142 -113z" />
    <glyph glyph-name="scommaaccent" unicode="&#x219;" horiz-adv-x="360" 
d="M151 -11q-103 0 -181 88l70 89q64 -67 110 -67q20 0 33.5 12.5t13.5 33.5q0 29 -52 80q-36 35 -52.5 53.5t-30.5 47.5t-14 62q0 67 45.5 112t120.5 45q94 0 166 -75l-68 -90q-55 55 -97 55q-19 0 -31.5 -11.5t-12.5 -28.5q0 -16 10.5 -30.5t47.5 -50.5q52 -51 71.5 -86
t19.5 -76q0 -68 -48 -115.5t-121 -47.5zM5 -248l1 42q36 4 53 17.5t22 41.5h-54l22 99h117l-19 -87q-24 -110 -142 -113z" />
    <glyph glyph-name="schwa" unicode="&#x259;" horiz-adv-x="437" 
d="M18 176q0 61 21 144h256q0 2 0.5 6.5t0.5 6.5q0 97 -78 97q-46 0 -97 -39l-35 104q73 50 151 50q86 0 134.5 -54.5t48.5 -155.5q0 -80 -29.5 -158t-80.5 -129q-59 -59 -135 -59q-73 0 -115 49.5t-42 137.5zM223 118q35 35 56 109h-136q-7 -28 -7 -56q0 -71 47 -71
q22 0 40 18z" />
    <glyph glyph-name="circumflex" unicode="&#x2c6;" horiz-adv-x="500" 
d="M170 582l125 145h107l63 -145h-86l-45 63l-70 -63h-94z" />
    <glyph glyph-name="caron" unicode="&#x2c7;" horiz-adv-x="500" 
d="M262 582l-63 145h86l45 -63l71 63h94l-125 -145h-108z" />
    <glyph glyph-name="breve" unicode="&#x2d8;" horiz-adv-x="500" 
d="M328 577q-62 0 -96 36t-30 97h80q1 -23 14 -37t38 -14q49 0 70 51h84q-16 -63 -58.5 -98t-101.5 -35z" />
    <glyph glyph-name="dotaccent" unicode="&#x2d9;" horiz-adv-x="500" 
d="M257 584l25 117h123l-25 -117h-123z" />
    <glyph glyph-name="ring" unicode="&#x2da;" horiz-adv-x="500" 
d="M437 689q0 -45 -30.5 -78.5t-76.5 -33.5q-40 0 -65 25.5t-25 62.5q0 44 30.5 77.5t76.5 33.5q40 0 65 -25t25 -62zM291 669q0 -19 11.5 -31.5t29.5 -12.5q23 0 38 18t15 42q0 19 -11 31.5t-30 12.5q-23 0 -38 -18t-15 -42z" />
    <glyph glyph-name="ogonek" unicode="&#x2db;" horiz-adv-x="500" 
d="M254 -85l-15 -68q-23 -4 -47 -4q-42 0 -66 17.5t-24 47.5q0 27 17 50t51 52h86q-50 -52 -50 -71q0 -27 48 -24z" />
    <glyph glyph-name="tilde" unicode="&#x2dc;" horiz-adv-x="500" 
d="M428 718l71 -20q-23 -61 -47.5 -89t-60.5 -28q-23 0 -67 21q-36 16 -45 16q-15 0 -25 -9.5t-22 -33.5l-71 20q24 63 48 90t60 27q23 0 67 -21q36 -16 44 -16q15 0 26 9.5t22 33.5z" />
    <glyph glyph-name="hungarumlaut" unicode="&#x2dd;" horiz-adv-x="500" 
d="M149 582l125 158l91 -54l-126 -104h-90zM292 582l126 158l91 -54l-127 -104h-90z" />
    <glyph glyph-name="commaaccent" unicode="&#x326;" horiz-adv-x="500" 
d="M83 -248l1 42q36 4 53 17.5t22 41.5h-54l22 99h117l-19 -87q-24 -110 -142 -113z" />
    <glyph glyph-name="baht" unicode="&#xe3f;" horiz-adv-x="486" 
d="M-11 0l152 700h143q13 0 39 -2l29 90h86l-35 -108q104 -41 104 -148q0 -67 -37.5 -113t-104.5 -67q87 -44 87 -136q0 -96 -71.5 -156t-197.5 -60h-1l-38 -121h-86l38 121h-107zM141 118h63q55 0 87.5 27t32.5 78q0 35 -23.5 55.5t-66.5 20.5h-55zM202 407h63
q58 0 86 30.5t28 73.5q0 71 -85 71h-53z" />
    <glyph glyph-name="Wgrave" unicode="&#x1e80;" horiz-adv-x="783" 
d="M104 -3l-3 703h137l-12 -446l193 447h120v-447l183 446h143l-308 -703h-134v427l-187 -427h-132zM437 742l-102 84l110 55l85 -139h-93z" />
    <glyph glyph-name="wgrave" unicode="&#x1e81;" horiz-adv-x="642" 
d="M71 -3v539h131l-11 -312l133 313h107l-3 -313l126 312h129l-235 -539h-122l2 309l-136 -309h-121zM336 582l-96 104l104 54l80 -158h-88z" />
    <glyph glyph-name="Wacute" unicode="&#x1e82;" horiz-adv-x="783" 
d="M104 -3l-3 703h137l-12 -446l193 447h120v-447l183 446h143l-308 -703h-134v427l-187 -427h-132zM430 742l128 139l108 -55l-131 -84h-105z" />
    <glyph glyph-name="wacute" unicode="&#x1e83;" horiz-adv-x="642" 
d="M71 -3v539h131l-11 -312l133 313h107l-3 -313l126 312h129l-235 -539h-122l2 309l-136 -309h-121zM331 582l127 158l102 -54l-129 -104h-100z" />
    <glyph glyph-name="Wdieresis" unicode="&#x1e84;" horiz-adv-x="783" 
d="M104 -3l-3 703h137l-12 -446l193 447h120v-447l183 446h143l-308 -703h-134v427l-187 -427h-132zM341 744l25 115h122l-25 -115h-122zM516 744l25 115h122l-25 -115h-122z" />
    <glyph glyph-name="wdieresis" unicode="&#x1e85;" horiz-adv-x="642" 
d="M71 -3v539h131l-11 -312l133 313h107l-3 -313l126 312h129l-235 -539h-122l2 309l-136 -309h-121zM245 584l25 117h120l-25 -117h-120zM412 584l26 117h120l-26 -117h-120z" />
    <glyph glyph-name="Ygrave" unicode="&#x1ef2;" horiz-adv-x="481" 
d="M113 0l60 276l-86 424h141l41 -272l162 272h148l-273 -429l-59 -271h-134zM284 737l-102 84l110 55l85 -139h-93z" />
    <glyph glyph-name="ygrave" unicode="&#x1ef3;" horiz-adv-x="443" 
d="M102 1l-30 535h131l3 -332l145 332h133l-255 -536q-38 -80 -76 -112.5t-94 -32.5q-53 0 -91 26l36 101q24 -15 50 -15q32 0 48 34zM231 582l-96 104l104 54l80 -158h-88z" />
    <glyph glyph-name="enspace" unicode="&#x2002;" horiz-adv-x="500" 
 />
    <glyph glyph-name="emspace" unicode="&#x2003;" horiz-adv-x="1000" 
 />
    <glyph glyph-name="threeperemspace" unicode="&#x2004;" horiz-adv-x="333" 
 />
    <glyph glyph-name="fourperemspace" unicode="&#x2005;" horiz-adv-x="250" 
 />
    <glyph glyph-name="figurespace" unicode="&#x2007;" horiz-adv-x="450" 
 />
    <glyph glyph-name="thinspace" unicode="&#x2009;" horiz-adv-x="133" 
 />
    <glyph glyph-name="hairspace" unicode="&#x200a;" horiz-adv-x="75" 
 />
    <glyph glyph-name="endash" unicode="&#x2013;" horiz-adv-x="484" 
d="M39 247l28 126h396l-28 -126h-396z" />
    <glyph glyph-name="emdash" unicode="&#x2014;" horiz-adv-x="758" 
d="M39 247l28 126h670l-27 -126h-671z" />
    <glyph glyph-name="quoteleft" unicode="&#x2018;" horiz-adv-x="260" 
d="M75 395l29 133q19 88 65.5 130.5t130.5 45.5l6 -54q-61 -8 -84.5 -37t-29.5 -71h62l-32 -147h-147z" />
    <glyph glyph-name="quoteright" unicode="&#x2019;" horiz-adv-x="260" 
d="M71 391l-6 54q61 8 84.5 37t29.5 71h-62l32 147h147l-29 -133q-19 -88 -65.5 -130.5t-130.5 -45.5z" />
    <glyph glyph-name="quotesinglbase" unicode="&#x201a;" horiz-adv-x="276" 
d="M-36 -162l-6 54q61 8 84.5 37t29.5 71h-62l32 147h147l-29 -133q-19 -88 -65.5 -130.5t-130.5 -45.5z" />
    <glyph glyph-name="quotedblleft" unicode="&#x201c;" horiz-adv-x="473" 
d="M75 395l29 133q19 88 65.5 130.5t130.5 45.5l6 -54q-61 -8 -84.5 -37t-29.5 -71h62l-32 -147h-147zM289 395l29 133q19 88 65.5 130.5t130.5 45.5l6 -54q-61 -8 -84.5 -37t-29.5 -71h62l-32 -147h-147z" />
    <glyph glyph-name="quotedblright" unicode="&#x201d;" horiz-adv-x="473" 
d="M71 391l-6 54q61 8 84.5 37t29.5 71h-62l32 147h147l-29 -133q-19 -88 -65.5 -130.5t-130.5 -45.5zM285 391l-6 54q61 8 84.5 37t29.5 71h-62l32 147h147l-29 -133q-19 -88 -65.5 -130.5t-130.5 -45.5z" />
    <glyph glyph-name="quotedblbase" unicode="&#x201e;" horiz-adv-x="496" 
d="M-36 -162l-6 54q61 8 84.5 37t29.5 71h-62l32 147h147l-29 -133q-19 -88 -65.5 -130.5t-130.5 -45.5zM177 -162l-6 54q61 8 84.5 37t29.5 71h-62l32 147h147l-29 -133q-19 -88 -65.5 -130.5t-130.5 -45.5z" />
    <glyph glyph-name="dagger" unicode="&#x2020;" horiz-adv-x="302" 
d="M103 238l71 271l-93 -10l17 81l88 -11l15 131h88l-43 -131l92 11l-17 -81l-90 10l-47 -271h-81z" />
    <glyph glyph-name="daggerdbl" unicode="&#x2021;" horiz-adv-x="314" 
d="M54 0l44 131l-93 -11l16 81l91 -10l21 159l46 159l-91 -10l16 81l88 -11l15 131h88l-44 -131l93 11l-16 -81l-91 10l-21 -159l-46 -159l91 10l-16 -81l-88 11l-15 -131h-88z" />
    <glyph glyph-name="bullet" unicode="&#x2022;" horiz-adv-x="406" 
d="M243 505q48 0 75.5 -30t27.5 -81q0 -99 -55 -154q-38 -38 -92 -38q-49 0 -76.5 30t-27.5 81q0 99 55 154q38 38 93 38z" />
    <glyph glyph-name="ellipsis" unicode="&#x2026;" horiz-adv-x="785" 
d="M2 0l32 145h145l-31 -145h-146zM262 0l31 145h146l-32 -145h-145zM521 0l32 145h145l-31 -145h-146z" />
    <glyph glyph-name="perthousand" unicode="&#x2030;" horiz-adv-x="999" 
d="M45 0l287 367l251 333h93l-287 -367l-251 -333h-93zM189 339q-54 0 -84 36.5t-30 101.5q0 56 18 107.5t50 83.5q39 39 91 39q54 0 84 -36.5t30 -101.5q0 -56 -18 -107.5t-50 -83.5q-39 -39 -91 -39zM194 422q13 0 25 12q17 17 28.5 61t11.5 77q0 52 -30 52q-13 0 -25 -12
q-17 -17 -28.5 -61t-11.5 -77q0 -52 30 -52zM487 -7q-54 0 -84 36.5t-30 101.5q0 56 18 107.5t50 83.5q39 39 91 39q54 0 84 -36.5t30 -101.5q0 -56 -18 -107.5t-50 -83.5q-39 -39 -91 -39zM492 76q13 0 25 12q17 17 28.5 61t11.5 77q0 52 -30 52q-13 0 -25 -12
q-17 -17 -28.5 -61t-11.5 -77q0 -52 30 -52zM801 -7q-54 0 -84 36.5t-30 101.5q0 56 18 107.5t50 83.5q39 39 91 39q54 0 84 -36.5t30 -101.5q0 -56 -18 -107.5t-50 -83.5q-39 -39 -91 -39zM806 76q13 0 25 12q17 17 28.5 61t11.5 77q0 52 -30 52q-13 0 -25 -12
q-17 -17 -28.5 -61t-11.5 -77q0 -52 30 -52z" />
    <glyph glyph-name="guilsinglleft" unicode="&#x2039;" horiz-adv-x="309" 
d="M138 39l-107 222l1 8l208 224l75 -63l-146 -175l70 -171z" />
    <glyph glyph-name="guilsinglright" unicode="&#x203a;" horiz-adv-x="309" 
d="M170 493l107 -222l-1 -8l-208 -224l-75 63l146 175l-70 171z" />
    <glyph glyph-name="fraction" unicode="&#x2044;" horiz-adv-x="75" 
d="M-251 0l267 365l236 335h74l-267 -365l-236 -335h-74z" />
    <glyph glyph-name="zero.sup" unicode="&#x2070;" 
d="M360 687q0 -49 -18.5 -112.5t-54.5 -99.5q-37 -37 -85 -37q-106 0 -106 130q0 49 18.5 112.5t54.5 99.5q37 37 85 37q51 0 78.5 -33t27.5 -97zM176 563q0 -51 30 -51q13 0 25 12q20 20 34.5 76.5t14.5 91.5q0 51 -30 51q-13 0 -25 -12q-20 -20 -34.5 -76.5t-14.5 -91.5z
" />
    <glyph glyph-name="four.sup" unicode="&#x2074;" 
d="M210 444l15 71h-143l13 75l167 223h101l-50 -231h35l-14 -67h-36l-15 -71h-73zM162 581h80l32 149h-4z" />
    <glyph glyph-name="five.sup" unicode="&#x2075;" 
d="M198 438q-71 0 -120 52l48 59q38 -38 74 -38q25 0 39 17t14 38t-12.5 33t-32.5 12q-19 0 -41 -10l-44 29l53 180h190l-16 -73h-125l-19 -63q18 2 27 2q43 0 72 -25.5t29 -73.5q0 -59 -38 -99t-98 -40z" />
    <glyph glyph-name="six.sup" unicode="&#x2076;" 
d="M209 438q-50 0 -79 33t-29 94q0 47 20 111t58 102q39 39 91 39q53 0 96 -38l-42 -60q-28 26 -58 26q-23 0 -39 -16q-20 -20 -33 -61q25 17 56 17q33 0 59 -24t26 -73q0 -61 -36 -105.5t-90 -44.5zM210 508q24 0 37 21t13 48q0 19 -10 31t-27 12q-18 0 -30 -12
q-20 -20 -20 -57q0 -19 10 -31t27 -12z" />
    <glyph glyph-name="seven.sup" unicode="&#x2077;" 
d="M96 444l179 290h-134l16 76h223l-13 -61l-183 -305h-88z" />
    <glyph glyph-name="eight.sup" unicode="&#x2078;" 
d="M206 438q-48 0 -82 27.5t-34 74.5q0 40 21 66.5t52 36.5q-33 26 -33 68q0 47 33.5 76.5t86.5 29.5q51 0 82 -27t31 -70q0 -69 -66 -92q39 -28 39 -73q0 -51 -35.5 -84t-94.5 -33zM209 499q23 0 37 17.5t14 41.5q0 20 -11.5 32.5t-30.5 12.5q-23 0 -37.5 -17t-14.5 -41
q0 -21 11.5 -33.5t31.5 -12.5zM244 666q19 0 32.5 14t13.5 37q0 18 -11 29t-29 11q-19 0 -32 -14t-13 -37q0 -18 10.5 -29t28.5 -11z" />
    <glyph glyph-name="nine.sup" unicode="&#x2079;" 
d="M186 438q-53 0 -101 43l42 60q33 -31 63 -31q23 0 39 16q19 20 32 57q-25 -17 -56 -17q-34 0 -59.5 24t-25.5 75q0 63 36 107.5t91 44.5q50 0 79 -33t29 -94q0 -47 -20 -111t-58 -102q-39 -39 -91 -39zM232 631q18 0 30 12q21 21 21 59q0 21 -10 33t-27 12
q-24 0 -37.5 -21.5t-13.5 -49.5q0 -21 10 -33t27 -12z" />
    <glyph glyph-name="zero.inf" unicode="&#x2080;" 
d="M235 110q0 -49 -18.5 -112.5t-54.5 -99.5q-37 -37 -85 -37q-106 0 -106 130q0 49 18.5 112.5t54.5 99.5q37 37 85 37q51 0 78.5 -33t27.5 -97zM51 -14q0 -51 30 -51q13 0 25 12q20 20 34.5 76.5t14.5 91.5q0 51 -30 51q-13 0 -25 -12q-20 -20 -34.5 -76.5t-14.5 -91.5z
" />
    <glyph glyph-name="one.inf" unicode="&#x2081;" horiz-adv-x="244" 
d="M11 -132l60 280l-65 -26l7 77l101 38h59l-80 -369h-82z" />
    <glyph glyph-name="two.inf" unicode="&#x2082;" 
d="M-48 -132l15 70l127 114q30 30 40.5 46t10.5 33q0 15 -10 24.5t-26 9.5q-30 0 -68 -31l-37 59q55 47 114 47q48 0 79.5 -28t31.5 -72q0 -29 -15 -57t-59 -66l-84 -75h122l-16 -74h-225z" />
    <glyph glyph-name="three.inf" unicode="&#x2083;" 
d="M73 -139q-72 0 -114 51l47 57q33 -35 68 -35q21 0 33 13.5t12 32.5q0 47 -76 47h-1l4 52l89 81h-111l16 73h213l-13 -60l-111 -97q71 -23 71 -92q0 -55 -36 -89t-91 -34z" />
    <glyph glyph-name="four.inf" unicode="&#x2084;" 
d="M85 -133l15 71h-143l13 75l167 223h101l-50 -231h35l-14 -67h-36l-15 -71h-73zM37 4h80l32 149h-4z" />
    <glyph glyph-name="five.inf" unicode="&#x2085;" 
d="M73 -139q-71 0 -120 52l48 59q38 -38 74 -38q25 0 39 17t14 38t-12.5 33t-32.5 12q-19 0 -41 -10l-44 29l53 180h190l-16 -73h-125l-19 -63q18 2 27 2q43 0 72 -25.5t29 -73.5q0 -59 -38 -99t-98 -40z" />
    <glyph glyph-name="six.inf" unicode="&#x2086;" 
d="M84 -139q-50 0 -79 33t-29 94q0 47 20 111t58 102q39 39 91 39q53 0 96 -38l-42 -60q-28 26 -58 26q-23 0 -39 -16q-20 -20 -33 -61q25 17 56 17q33 0 59 -24t26 -73q0 -61 -36 -105.5t-90 -44.5zM85 -69q24 0 37 21t13 48q0 19 -10 31t-27 12q-18 0 -30 -12
q-20 -20 -20 -57q0 -19 10 -31t27 -12z" />
    <glyph glyph-name="seven.inf" unicode="&#x2087;" 
d="M-29 -133l179 290h-134l16 76h223l-13 -61l-183 -305h-88z" />
    <glyph glyph-name="eight.inf" unicode="&#x2088;" 
d="M81 -139q-48 0 -82 27.5t-34 74.5q0 40 21 66.5t52 36.5q-33 26 -33 68q0 47 33.5 76.5t86.5 29.5q51 0 82 -27t31 -70q0 -69 -66 -92q39 -28 39 -73q0 -51 -35.5 -84t-94.5 -33zM84 -78q23 0 37 17.5t14 41.5q0 20 -11.5 32.5t-30.5 12.5q-23 0 -37.5 -17t-14.5 -41
q0 -21 11.5 -33.5t31.5 -12.5zM119 89q19 0 32.5 14t13.5 37q0 18 -11 29t-29 11q-19 0 -32 -14t-13 -37q0 -18 10.5 -29t28.5 -11z" />
    <glyph glyph-name="nine.inf" unicode="&#x2089;" 
d="M61 -139q-53 0 -101 43l42 60q33 -31 63 -31q23 0 39 16q20 20 32 57q-25 -17 -56 -17q-34 0 -59.5 24t-25.5 75q0 63 36 107.5t91 44.5q50 0 79 -33t29 -94q0 -47 -20 -111t-58 -102q-39 -39 -91 -39zM107 54q18 0 30 12q21 21 21 59q0 21 -10 33t-27 12
q-24 0 -37.5 -21.5t-13.5 -49.5q0 -21 10 -33t27 -12z" />
    <glyph glyph-name="colonmonetary" unicode="&#x20a1;" horiz-adv-x="440" 
d="M436 779h49l-35 -108q23 -14 49 -40l-79 -99q-47 49 -90 49t-74 -31q-42 -42 -66.5 -131t-24.5 -166q0 -134 90 -134q38 0 86 28l45 -107q-70 -43 -139 -43q-12 0 -18 1l-38 -116h-49l40 122q-31 8 -52 22l-47 -144h-49l58 176q-57 66 -57 195q0 101 33 208t99 173
q58 58 135 68l26 77h49l-25 -76q25 -1 55 -10z" />
    <glyph glyph-name="naira" unicode="&#x20a6;" horiz-adv-x="646" 
d="M613 194h-88l-42 -194h-121l-49 222l-46 207h-2l-44 -207l-50 -222h-126l42 194h-86l22 100h85l26 116h-86l21 100h86l42 190h128l45 -197l47 -215h2l46 215l44 197h126l-42 -190h89l-22 -100h-88l-26 -116h89z" />
    <glyph glyph-name="rupee" unicode="&#x20a8;" horiz-adv-x="806" 
d="M649 145q0 17 -10.5 33.5t-39.5 47.5q-52 55 -71.5 87.5t-19.5 73.5q0 67 44 112t118 45q87 0 154 -65l-64 -91q-50 50 -90 50q-20 0 -32.5 -12.5t-12.5 -32.5q0 -15 12 -31.5t43 -49.5q46 -48 66 -82.5t20 -76.5q0 -71 -46 -117.5t-117 -46.5q-104 0 -172 83l71 86
q54 -62 100 -62q20 0 33.5 13.5t13.5 35.5zM256 0l-46 241h-45l-52 -241h-125l152 700h116q118 0 171 -56t53 -137t-38.5 -145.5t-109.5 -94.5l56 -269zM190 354h40q59 0 92 41t33 106q0 37 -21 59.5t-62 22.5h-33z" />
    <glyph glyph-name="won" unicode="&#x20a9;" horiz-adv-x="846" 
d="M817 196h-140l-81 -198h-148l9 238l1 7l6 207h-2l-86 -207l-2 -7l-96 -238h-147l5 198h-137l20 101h119l3 108h-99l22 101h80l5 194h137l-14 -216l-19 -250h3l101 253l88 214h135l-6 -216l-8 -251h2l89 242l4 10l79 214h143l-79 -194h80l-22 -101h-100l-44 -107h121z" />
    <glyph glyph-name="sheqel" unicode="&#x20aa;" horiz-adv-x="519" 
d="M-15 0l117 536h150q118 0 118 -110q0 -20 -7 -57l-33 -155h-63l15 85q7 42 7 58q0 32 -15 44t-47 12h-59l-91 -413h-92zM303 0q-83 0 -116 41.5t-23 139.5l14 141h63l-8 -98q-5 -60 13 -80.5t66 -20.5h37l89 413h93l-116 -536h-112z" />
    <glyph glyph-name="Euro" unicode="&#x20ac;" horiz-adv-x="505" 
d="M49 387l20 94h63q37 104 95 162q68 68 159 68q108 0 173 -86l-90 -89q-32 49 -81 49q-37 0 -65 -28t-47 -77h135l-20 -93h-144q-8 -31 -13 -70h142l-20 -93h-129q1 -108 84 -108q38 0 82 36l56 -105q-72 -58 -154 -58q-93 0 -148 59.5t-56 174.5h-78l21 94h62q2 18 11 70
h-58z" />
    <glyph glyph-name="peso" unicode="&#x20b1;" horiz-adv-x="596" 
d="M617 403h-83q-21 -67 -67 -113q-80 -80 -216 -80h-32l-45 -210h-134l87 403h-84l21 98h85l43 199h128q117 0 176 -59q51 -52 52 -140h90zM245 328h30q57 0 94 37q46 46 46 126q0 44 -22 67q-22 22 -64 22h-29z" />
    <glyph glyph-name="published" unicode="&#x2117;" horiz-adv-x="636" 
d="M277 549h76q39 0 66 -11.5t39 -30.5t16.5 -35.5t4.5 -33.5q0 -68 -43 -111.5t-116 -43.5h-27l-26 -120h-74zM404 434q0 48 -52 48h-16l-29 -132h23q34 0 54 23.5t20 60.5zM373 711q110 0 177.5 -77t67.5 -205q0 -97 -30 -193.5t-97 -163.5q-83 -83 -200 -83
q-110 0 -177.5 77t-67.5 205q0 97 30 193.5t97 163.5q83 83 200 83zM294 27q98 0 170 72q60 61 87.5 149t27.5 180q0 113 -56.5 179t-152.5 66q-98 0 -170 -72q-60 -61 -87.5 -149t-27.5 -180q0 -113 56.5 -179t152.5 -66z" />
    <glyph glyph-name="servicemark" unicode="&#x2120;" horiz-adv-x="538" 
d="M151 384q-57 0 -101 49l37 46q35 -37 63 -37q15 0 24.5 8.5t9.5 23.5q0 17 -34 48q-53 48 -53 89q0 39 26 65q27 27 69 27q54 0 93 -42l-37 -46q-27 30 -55 30q-14 0 -23 -8.5t-9 -21.5q0 -17 33 -47q53 -47 53 -90q0 -41 -27 -68q-26 -26 -69 -26zM274 388l68 312h67
l28 -114l77 114h72l-68 -312h-64l43 197l-84 -126h-3l-29 126l-43 -197h-64z" />
    <glyph glyph-name="trademark" unicode="&#x2122;" horiz-adv-x="531" 
d="M98 388l54 250h-58l13 62h184l-14 -62h-59l-54 -250h-66zM266 388l68 312h67l28 -114l78 114h71l-68 -312h-63l43 197l-84 -126h-3l-30 126l-43 -197h-64z" />
    <glyph glyph-name="onethird" unicode="&#x2153;" horiz-adv-x="620" 
d="M409 -7q-72 0 -114 51l47 57q33 -35 68 -35q21 0 33 13.5t12 32.5q0 47 -76 47h-1l4 52l89 81h-111l16 73h213l-13 -60l-111 -97q71 -23 71 -92q0 -55 -36 -89t-91 -34zM97 335l60 280l-65 -26l7 77l101 38h59l-80 -369h-82zM-6 0l267 365l236 335h74l-267 -365
l-236 -335h-74z" />
    <glyph glyph-name="twothirds" unicode="&#x2154;" horiz-adv-x="675" 
d="M469 -7q-72 0 -114 51l47 57q33 -35 68 -35q21 0 33 13.5t12 32.5q0 47 -76 47h-1l4 52l89 81h-111l16 73h213l-13 -60l-111 -97q71 -23 71 -92q0 -55 -36 -89t-91 -34zM30 335l15 70l127 114q30 30 40.5 46t10.5 33q0 15 -10 24.5t-26 9.5q-30 0 -68 -31l-37 59
q55 47 114 47q48 0 79.5 -28t31.5 -72q0 -29 -15 -57t-59 -66l-84 -75h122l-16 -74h-225zM50 0l267 365l236 335h74l-267 -365l-236 -335h-74z" />
    <glyph glyph-name="onefifth" unicode="&#x2155;" horiz-adv-x="620" 
d="M403 -7q-71 0 -120 52l48 59q38 -38 74 -38q25 0 39 17t14 38t-12.5 33t-32.5 12q-19 0 -41 -10l-44 29l53 180h190l-16 -73h-125l-19 -63q18 2 27 2q43 0 72 -25.5t29 -73.5q0 -59 -38 -99t-98 -40zM97 335l60 280l-65 -26l7 77l101 38h59l-80 -369h-82zM-7 0l267 365
l236 335h74l-267 -365l-236 -335h-74z" />
    <glyph glyph-name="twofifths" unicode="&#x2156;" horiz-adv-x="675" 
d="M467 -7q-71 0 -120 52l48 59q38 -38 74 -38q25 0 39 17t14 38t-12.5 33t-32.5 12q-19 0 -41 -10l-44 29l53 180h190l-16 -73h-125l-19 -63q18 2 27 2q43 0 72 -25.5t29 -73.5q0 -59 -38 -99t-98 -40zM57 0l267 365l236 335h74l-267 -365l-236 -335h-74zM30 335l15 70
l127 114q30 30 40.5 46t10.5 33q0 15 -10 24.5t-26 9.5q-30 0 -68 -31l-37 59q55 47 114 47q48 0 79.5 -28t31.5 -72q0 -29 -15 -57t-59 -66l-84 -75h122l-16 -74h-225z" />
    <glyph glyph-name="threefifths" unicode="&#x2157;" horiz-adv-x="675" 
d="M467 -7q-71 0 -120 52l48 59q38 -38 74 -38q25 0 39 17t14 38t-12.5 33t-32.5 12q-19 0 -41 -10l-44 29l53 180h190l-16 -73h-125l-19 -63q18 2 27 2q43 0 72 -25.5t29 -73.5q0 -59 -38 -99t-98 -40zM46 0l267 365l236 335h74l-267 -365l-236 -335h-74zM157 328
q-72 0 -114 51l47 57q33 -35 68 -35q21 0 33 13.5t12 32.5q0 47 -76 47h-1l4 52l89 81h-111l16 73h213l-13 -60l-111 -97q71 -23 71 -92q0 -55 -36 -89t-91 -34z" />
    <glyph glyph-name="fourfifths" unicode="&#x2158;" horiz-adv-x="675" 
d="M160 334l15 71h-143l13 75l167 223h101l-50 -231h35l-14 -67h-36l-15 -71h-73zM112 471h80l32 149h-4zM467 -7q-71 0 -120 52l48 59q38 -38 74 -38q25 0 39 17t14 38t-12.5 33t-32.5 12q-19 0 -41 -10l-44 29l53 180h190l-16 -73h-125l-19 -63q18 2 27 2q43 0 72 -25.5
t29 -73.5q0 -59 -38 -99t-98 -40zM53 0l267 365l236 335h74l-267 -365l-236 -335h-74z" />
    <glyph glyph-name="onesixth" unicode="&#x2159;" horiz-adv-x="620" 
d="M408 -7q-50 0 -79 33t-29 94q0 47 20 111t58 102q39 39 91 39q53 0 96 -38l-42 -60q-28 26 -58 26q-23 0 -39 -16q-20 -20 -33 -61q25 17 56 17q33 0 59 -24t26 -73q0 -61 -36 -105.5t-90 -44.5zM0 0l267 365l236 335h74l-267 -365l-236 -335h-74zM97 335l60 280l-65 -26
l7 77l101 38h59l-80 -369h-82zM409 63q24 0 37 21t13 48q0 19 -10 31t-27 12q-18 0 -30 -12q-20 -20 -20 -57q0 -19 10 -31t27 -12z" />
    <glyph glyph-name="fivesixths" unicode="&#x215a;" horiz-adv-x="675" 
d="M467 -7q-50 0 -79 33t-29 94q0 47 20 111t58 102q39 39 91 39q53 0 96 -38l-42 -60q-28 26 -58 26q-23 0 -39 -16q-20 -20 -33 -61q25 17 56 17q33 0 59 -24t26 -73q0 -61 -36 -105.5t-90 -44.5zM156 328q-71 0 -120 52l48 59q38 -38 74 -38q25 0 39 17t14 38t-12.5 33
t-32.5 12q-19 0 -41 -10l-44 29l53 180h190l-16 -73h-125l-19 -63q18 2 27 2q43 0 72 -25.5t29 -73.5q0 -59 -38 -99t-98 -40zM48 0l267 365l236 335h74l-267 -365l-236 -335h-74zM468 63q24 0 37 21t13 48q0 19 -10 31t-27 12q-18 0 -30 -12q-20 -20 -20 -57q0 -19 10 -31
t27 -12z" />
    <glyph glyph-name="oneeighth" unicode="&#x215b;" horiz-adv-x="620" 
d="M406 -7q-48 0 -82 27.5t-34 74.5q0 40 21 66.5t52 36.5q-33 26 -33 68q0 47 33.5 76.5t86.5 29.5q51 0 82 -27t31 -70q0 -69 -66 -92q39 -28 39 -73q0 -51 -35.5 -84t-94.5 -33zM409 54q23 0 37 17.5t14 41.5q0 20 -11.5 32.5t-30.5 12.5q-23 0 -37.5 -17t-14.5 -41
q0 -21 11.5 -33.5t31.5 -12.5zM444 221q19 0 32.5 14t13.5 37q0 18 -11 29t-29 11q-19 0 -32 -14t-13 -37q0 -18 10.5 -29t28.5 -11zM97 335l60 280l-65 -26l7 77l101 38h59l-80 -369h-82zM-7 0l267 365l236 335h74l-267 -365l-236 -335h-74z" />
    <glyph glyph-name="threeeighths" unicode="&#x215c;" horiz-adv-x="675" 
d="M470 -7q-48 0 -82 27.5t-34 74.5q0 40 21 66.5t52 36.5q-33 26 -33 68q0 47 33.5 76.5t86.5 29.5q51 0 82 -27t31 -70q0 -69 -66 -92q39 -28 39 -73q0 -51 -35.5 -84t-94.5 -33zM473 54q23 0 37 17.5t14 41.5q0 20 -11.5 32.5t-30.5 12.5q-23 0 -37.5 -17t-14.5 -41
q0 -21 11.5 -33.5t31.5 -12.5zM508 221q19 0 32.5 14t13.5 37q0 18 -11 29t-29 11q-19 0 -32 -14t-13 -37q0 -18 10.5 -29t28.5 -11zM48 0l267 365l236 335h74l-267 -365l-236 -335h-74zM157 328q-72 0 -114 51l47 57q33 -35 68 -35q21 0 33 13.5t12 32.5q0 47 -76 47h-1
l4 52l89 81h-111l16 73h213l-13 -60l-111 -97q71 -23 71 -92q0 -55 -36 -89t-91 -34z" />
    <glyph glyph-name="fiveeighths" unicode="&#x215d;" horiz-adv-x="675" 
d="M470 -7q-48 0 -82 27.5t-34 74.5q0 40 21 66.5t52 36.5q-33 26 -33 68q0 47 33.5 76.5t86.5 29.5q51 0 82 -27t31 -70q0 -69 -66 -92q39 -28 39 -73q0 -51 -35.5 -84t-94.5 -33zM473 54q23 0 37 17.5t14 41.5q0 20 -11.5 32.5t-30.5 12.5q-23 0 -37.5 -17t-14.5 -41
q0 -21 11.5 -33.5t31.5 -12.5zM508 221q19 0 32.5 14t13.5 37q0 18 -11 29t-29 11q-19 0 -32 -14t-13 -37q0 -18 10.5 -29t28.5 -11zM48 0l267 365l236 335h74l-267 -365l-236 -335h-74zM157 328q-71 0 -120 52l48 59q38 -38 74 -38q25 0 39 17t14 38t-12.5 33t-32.5 12
q-19 0 -41 -10l-44 29l53 180h190l-16 -73h-125l-19 -63q18 2 27 2q43 0 72 -25.5t29 -73.5q0 -59 -38 -99t-98 -40z" />
    <glyph glyph-name="seveneighths" unicode="&#x215e;" horiz-adv-x="675" 
d="M452 -7q-48 0 -82 27.5t-34 74.5q0 40 21 66.5t52 36.5q-33 26 -33 68q0 47 33.5 76.5t86.5 29.5q51 0 82 -27t31 -70q0 -69 -66 -92q39 -28 39 -73q0 -51 -35.5 -84t-94.5 -33zM455 54q23 0 37 17.5t14 41.5q0 20 -11.5 32.5t-30.5 12.5q-23 0 -37.5 -17t-14.5 -41
q0 -21 11.5 -33.5t31.5 -12.5zM490 221q19 0 32.5 14t13.5 37q0 18 -11 29t-29 11q-19 0 -32 -14t-13 -37q0 -18 10.5 -29t28.5 -11zM63 334l179 290h-134l16 76h223l-13 -61l-183 -305h-88zM15 0l267 365l236 335h74l-267 -365l-236 -335h-74z" />
    <glyph glyph-name="minus" unicode="&#x2212;" horiz-adv-x="476" 
d="M45 288l28 128h396l-28 -128h-396z" />
    <glyph glyph-name="Q.alt" horiz-adv-x="577" 
d="M352 711q109 0 161.5 -71.5t52.5 -187.5q0 -86 -28 -182t-77 -164l54 -64l-90 -68l-39 56q-58 -41 -131 -41q-109 0 -161.5 71.5t-52.5 187.5q0 99 36.5 211.5t98.5 175.5q76 76 176 76zM264 112q31 0 53 14l-62 80l87 68l40 -59q24 53 36.5 119t12.5 116q0 138 -88 138
q-37 0 -67 -30q-49 -49 -74.5 -143t-25.5 -165q0 -138 88 -138z" />
    <glyph glyph-name="a.alt" horiz-adv-x="482" 
d="M141 -10q-58 0 -89.5 49t-31.5 135q0 92 30.5 184.5t80.5 142.5q45 45 105 45q76 0 114 -80l15 70h130l-116 -536h-130l14 64q-31 -37 -58.5 -55.5t-63.5 -18.5zM204 108q25 0 46 21q28 28 47 95.5t19 117.5q0 86 -53 86q-25 0 -46 -21q-28 -28 -47 -95.5t-19 -117.5
q0 -86 53 -86z" />
    <glyph glyph-name="aacute.alt" horiz-adv-x="482" 
d="M141 -10q-58 0 -89.5 49t-31.5 135q0 92 30.5 184.5t80.5 142.5q45 45 105 45q76 0 114 -80l15 70h130l-116 -536h-130l14 64q-31 -37 -58.5 -55.5t-63.5 -18.5zM204 108q25 0 46 21q28 28 47 95.5t19 117.5q0 86 -53 86q-25 0 -46 -21q-28 -28 -47 -95.5t-19 -117.5
q0 -86 53 -86zM260 582l127 158l102 -54l-129 -104h-100z" />
    <glyph glyph-name="abreve.alt" horiz-adv-x="482" 
d="M141 -10q-58 0 -89.5 49t-31.5 135q0 92 30.5 184.5t80.5 142.5q45 45 105 45q76 0 114 -80l15 70h130l-116 -536h-130l14 64q-31 -37 -58.5 -55.5t-63.5 -18.5zM204 108q25 0 46 21q28 28 47 95.5t19 117.5q0 86 -53 86q-25 0 -46 -21q-28 -28 -47 -95.5t-19 -117.5
q0 -86 53 -86zM324 577q-62 0 -96 36t-30 97h80q1 -23 14 -37t38 -14q49 0 70 51h84q-16 -63 -58.5 -98t-101.5 -35z" />
    <glyph glyph-name="acircumflex.alt" horiz-adv-x="482" 
d="M141 -10q-58 0 -89.5 49t-31.5 135q0 92 30.5 184.5t80.5 142.5q45 45 105 45q76 0 114 -80l15 70h130l-116 -536h-130l14 64q-31 -37 -58.5 -55.5t-63.5 -18.5zM204 108q25 0 46 21q28 28 47 95.5t19 117.5q0 86 -53 86q-25 0 -46 -21q-28 -28 -47 -95.5t-19 -117.5
q0 -86 53 -86zM168 582l125 145h107l63 -145h-86l-45 63l-70 -63h-94z" />
    <glyph glyph-name="adieresis.alt" horiz-adv-x="482" 
d="M141 -10q-58 0 -89.5 49t-31.5 135q0 92 30.5 184.5t80.5 142.5q45 45 105 45q76 0 114 -80l15 70h130l-116 -536h-130l14 64q-31 -37 -58.5 -55.5t-63.5 -18.5zM204 108q25 0 46 21q28 28 47 95.5t19 117.5q0 86 -53 86q-25 0 -46 -21q-28 -28 -47 -95.5t-19 -117.5
q0 -86 53 -86zM174 584l25 117h120l-25 -117h-120zM341 584l26 117h120l-26 -117h-120z" />
    <glyph glyph-name="agrave.alt" horiz-adv-x="482" 
d="M141 -10q-58 0 -89.5 49t-31.5 135q0 92 30.5 184.5t80.5 142.5q45 45 105 45q76 0 114 -80l15 70h130l-116 -536h-130l14 64q-31 -37 -58.5 -55.5t-63.5 -18.5zM204 108q25 0 46 21q28 28 47 95.5t19 117.5q0 86 -53 86q-25 0 -46 -21q-28 -28 -47 -95.5t-19 -117.5
q0 -86 53 -86zM265 582l-96 104l104 54l80 -158h-88z" />
    <glyph glyph-name="amacron.alt" horiz-adv-x="482" 
d="M141 -10q-58 0 -89.5 49t-31.5 135q0 92 30.5 184.5t80.5 142.5q45 45 105 45q76 0 114 -80l15 70h130l-116 -536h-130l14 64q-31 -37 -58.5 -55.5t-63.5 -18.5zM204 108q25 0 46 21q28 28 47 95.5t19 117.5q0 86 -53 86q-25 0 -46 -21q-28 -28 -47 -95.5t-19 -117.5
q0 -86 53 -86zM180 586l18 87h277l-18 -87h-277z" />
    <glyph glyph-name="aogonek.alt" horiz-adv-x="482" 
d="M370 -85l-15 -68q-23 -4 -47 -4q-42 0 -66 17.5t-24 47.5q0 43 56 92h-25l14 64q-31 -37 -58.5 -55.5t-63.5 -18.5q-58 0 -89.5 49t-31.5 135q0 92 30.5 184.5t80.5 142.5q45 45 105 45q76 0 114 -80l15 70h130l-116 -536h-17q-40 -40 -40 -61q0 -27 48 -24zM204 108
q25 0 46 21q28 28 47 95.5t19 117.5q0 86 -53 86q-25 0 -46 -21q-28 -28 -47 -95.5t-19 -117.5q0 -86 53 -86z" />
    <glyph glyph-name="aring.alt" horiz-adv-x="482" 
d="M141 -10q-58 0 -89.5 49t-31.5 135q0 92 30.5 184.5t80.5 142.5q45 45 105 45q76 0 114 -80l15 70h130l-116 -536h-130l14 64q-31 -37 -58.5 -55.5t-63.5 -18.5zM204 108q25 0 46 21q28 28 47 95.5t19 117.5q0 86 -53 86q-25 0 -46 -21q-28 -28 -47 -95.5t-19 -117.5
q0 -86 53 -86zM436 689q0 -45 -30.5 -78.5t-76.5 -33.5q-40 0 -65 25.5t-25 62.5q0 44 30.5 77.5t76.5 33.5q40 0 65 -25t25 -62zM290 669q0 -19 11.5 -31.5t29.5 -12.5q23 0 38 18t15 42q0 19 -11 31.5t-30 12.5q-23 0 -38 -18t-15 -42z" />
    <glyph glyph-name="aring.alt2" horiz-adv-x="433" 
d="M206 0l12 57q-50 -66 -118 -66q-48 0 -75.5 34t-27.5 98q0 48 16.5 94t42.5 72q44 44 114 44q49 0 104 -25l3 15q5 23 5 40q0 62 -78 62q-46 0 -92 -23l-16 113q57 20 102 25q-11 18 -11 45q0 44 30.5 77t76.5 33q40 0 65 -25t25 -63q0 -55 -45 -89q71 -39 71 -133
q0 -30 -11 -82l-65 -303h-128zM280 543q23 0 38 18t15 42q0 20 -11 32.5t-30 12.5q-23 0 -38 -18.5t-15 -42.5q0 -19 11 -31.5t30 -12.5zM169 90q28 0 48.5 20.5t27.5 58.5l11 55q-29 16 -60 16q-27 0 -45 -18q-28 -28 -28 -78q0 -54 46 -54z" />
    <glyph glyph-name="aringacute.alt" horiz-adv-x="482" 
d="M317 801l116 124l102 -50l-118 -74h-100zM141 -10q-58 0 -89.5 49t-31.5 135q0 92 30.5 184.5t80.5 142.5q45 45 105 45q76 0 114 -80l15 70h130l-116 -536h-130l14 64q-31 -37 -58.5 -55.5t-63.5 -18.5zM204 108q25 0 46 21q28 28 47 95.5t19 117.5q0 86 -53 86
q-25 0 -46 -21q-28 -28 -47 -95.5t-19 -117.5q0 -86 53 -86zM436 689q0 -45 -30.5 -78.5t-76.5 -33.5q-40 0 -65 25.5t-25 62.5q0 44 30.5 77.5t76.5 33.5q40 0 65 -25t25 -62zM290 669q0 -19 11.5 -31.5t29.5 -12.5q23 0 38 18t15 42q0 19 -11 31.5t-30 12.5q-23 0 -38 -18
t-15 -42z" />
    <glyph glyph-name="aringacute.alt2" horiz-adv-x="433" 
d="M265 720l116 124l102 -50l-118 -74h-100zM206 0l12 57q-50 -66 -118 -66q-48 0 -75.5 34t-27.5 98q0 48 16.5 94t42.5 72q44 44 114 44q49 0 104 -25l3 15q5 23 5 40q0 62 -78 62q-46 0 -92 -23l-16 113q57 20 102 25q-11 18 -11 45q0 44 30.5 77t76.5 33q40 0 65 -25
t25 -63q0 -55 -45 -89q71 -39 71 -133q0 -30 -11 -82l-65 -303h-128zM280 543q23 0 38 18t15 42q0 20 -11 32.5t-30 12.5q-23 0 -38 -18.5t-15 -42.5q0 -19 11 -31.5t30 -12.5zM169 90q28 0 48.5 20.5t27.5 58.5l11 55q-29 16 -60 16q-27 0 -45 -18q-28 -28 -28 -78
q0 -54 46 -54z" />
    <glyph glyph-name="atilde.alt" horiz-adv-x="482" 
d="M141 -10q-58 0 -89.5 49t-31.5 135q0 92 30.5 184.5t80.5 142.5q45 45 105 45q76 0 114 -80l15 70h130l-116 -536h-130l14 64q-31 -37 -58.5 -55.5t-63.5 -18.5zM204 108q25 0 46 21q28 28 47 95.5t19 117.5q0 86 -53 86q-25 0 -46 -21q-28 -28 -47 -95.5t-19 -117.5
q0 -86 53 -86zM429 718l71 -20q-23 -61 -47.5 -89t-60.5 -28q-23 0 -67 21q-36 16 -45 16q-15 0 -25 -9.5t-22 -33.5l-71 20q24 63 48 90t60 27q23 0 67 -21q36 -16 44 -16q15 0 26 9.5t22 33.5z" />
    <glyph glyph-name="three.alt" horiz-adv-x="443" 
d="M172 -11q-121 0 -202 94l80 98q17 -19 27 -29.5t37 -24.5t55 -14q41 0 68 29.5t27 71.5q0 41 -29.5 66.5t-93.5 25.5h-13l23 108h28q65 0 104.5 28t39.5 76q0 31 -21.5 50t-57.5 19q-53 0 -108 -34l-46 106q82 52 172 52q87 0 141 -48t54 -126q0 -64 -37.5 -115.5
t-110.5 -73.5q88 -47 88 -148q0 -86 -63.5 -148.5t-161.5 -62.5z" />
    <glyph glyph-name="registered.alt" horiz-adv-x="636" 
d="M373 711q110 0 177.5 -77t67.5 -205q0 -97 -30 -193.5t-97 -163.5q-83 -83 -200 -83q-110 0 -177.5 77t-67.5 205q0 97 30 193.5t97 163.5q83 83 200 83zM294 27q98 0 170 72q60 61 87.5 149t27.5 180q0 113 -56.5 179t-152.5 66q-98 0 -170 -72q-60 -61 -87.5 -149
t-27.5 -180q0 -113 56.5 -179t152.5 -66zM286 296l-28 -131h-74l84 385h71q78 0 112 -34q28 -28 28 -74q0 -63 -40 -103q-19 -19 -48 -30l36 -144h-77l-29 131h-35zM300 361h26q40 0 59 21q21 19 21 54q0 21 -12 33q-14 14 -50 14h-17z" />
    <glyph glyph-name="R_p" horiz-adv-x="895" 
d="M-12 0l152 700h116q118 0 171 -56t53 -137t-38.5 -145.5t-109.5 -94.5l54 -267h-130l-46 241h-45l-52 -241h-125zM407 -141l147 677h121l-14 -63q52 73 111 73q51 0 80.5 -42.5t29.5 -126.5q0 -90 -31.5 -192.5t-80.5 -151.5q-43 -43 -95 -43q-74 0 -102 79l-44 -210
h-122zM190 354h40q59 0 92 41t33 106q0 37 -21 59.5t-62 22.5h-33zM647 104q19 0 37 18q30 30 49 101.5t19 126.5q0 82 -46 82q-19 0 -37 -18q-30 -30 -49 -101.5t-19 -126.5q0 -82 46 -82z" />
    <glyph glyph-name="onehalf.alt" horiz-adv-x="675" 
d="M42 335l15 68h76l46 214l-75 -28l5 75l110 40h59l-65 -301h67l-15 -68h-223zM340 0l15 70l127 114q30 30 40.5 46t10.5 33q0 15 -10 24.5t-26 9.5q-30 0 -68 -31l-37 59q55 47 114 47q48 0 79.5 -28t31.5 -72q0 -29 -15 -57t-59 -66l-84 -75h122l-16 -74h-225zM62 0
l267 365l236 335h74l-267 -365l-236 -335h-74z" />
    <glyph glyph-name="onethird.alt" horiz-adv-x="675" 
d="M42 335l15 68h76l46 214l-75 -28l5 75l110 40h59l-65 -301h67l-15 -68h-223zM463 -7q-72 0 -114 51l47 57q33 -35 68 -35q21 0 33 13.5t12 32.5q0 47 -76 47h-1l4 52l89 81h-111l16 73h213l-13 -60l-111 -97q71 -23 71 -92q0 -55 -36 -89t-91 -34zM55 0l267 365l236 335
h74l-267 -365l-236 -335h-74z" />
    <glyph glyph-name="onequarter.alt" horiz-adv-x="675" 
d="M45 335l15 68h76l46 214l-75 -28l5 75l110 40h59l-65 -301h67l-15 -68h-223zM70 0l267 365l236 335h74l-267 -365l-236 -335h-74zM462 -1l15 71h-143l13 75l167 223h101l-50 -231h35l-14 -67h-36l-15 -71h-73zM414 136h80l32 149h-4z" />
    <glyph glyph-name="onefifth.alt" horiz-adv-x="675" 
d="M42 335l15 68h76l46 214l-75 -28l5 75l110 40h59l-65 -301h67l-15 -68h-223zM464 -7q-71 0 -120 52l48 59q38 -38 74 -38q25 0 39 17t14 38t-12.5 33t-32.5 12q-19 0 -41 -10l-44 29l53 180h190l-16 -73h-125l-19 -63q18 2 27 2q43 0 72 -25.5t29 -73.5q0 -59 -38 -99
t-98 -40zM60 0l267 365l236 335h74l-267 -365l-236 -335h-74z" />
    <glyph glyph-name="onesixth.alt" horiz-adv-x="675" 
d="M474 -7q-50 0 -79 33t-29 94q0 47 20 111t58 102q39 39 91 39q53 0 96 -38l-42 -60q-28 26 -58 26q-23 0 -39 -16q-20 -20 -33 -61q25 17 56 17q33 0 59 -24t26 -73q0 -61 -36 -105.5t-90 -44.5zM63 0l267 365l236 335h74l-267 -365l-236 -335h-74zM42 335l15 68h76
l46 214l-75 -28l5 75l110 40h59l-65 -301h67l-15 -68h-223zM475 63q24 0 37 21t13 48q0 19 -10 31t-27 12q-18 0 -30 -12q-20 -20 -20 -57q0 -19 10 -31t27 -12z" />
    <glyph glyph-name="oneeighth.alt" horiz-adv-x="675" 
d="M39 335l15 68h76l46 214l-75 -28l5 75l110 40h59l-65 -301h67l-15 -68h-223zM472 -7q-48 0 -82 27.5t-34 74.5q0 40 21 66.5t52 36.5q-33 26 -33 68q0 47 33.5 76.5t86.5 29.5q51 0 82 -27t31 -70q0 -69 -66 -92q39 -28 39 -73q0 -51 -35.5 -84t-94.5 -33zM475 54
q23 0 37 17.5t14 41.5q0 20 -11.5 32.5t-30.5 12.5q-23 0 -37.5 -17t-14.5 -41q0 -21 11.5 -33.5t31.5 -12.5zM510 221q19 0 32.5 14t13.5 37q0 18 -11 29t-29 11q-19 0 -32 -14t-13 -37q0 -18 10.5 -29t28.5 -11zM60 0l267 365l236 335h74l-267 -365l-236 -335h-74z" />
    <glyph glyph-name="one.sup_alt" 
d="M87 445l15 68h76l46 214l-75 -28l5 75l110 40h59l-65 -301h67l-15 -68h-223z" />
    <glyph glyph-name="one.inf_alt" 
d="M-38 -132l15 68h76l46 214l-75 -28l5 75l110 40h59l-65 -301h67l-15 -68h-223z" />
    <glyph glyph-name="zero.tab" horiz-adv-x="450" 
d="M441 503q0 -107 -39 -248.5t-105 -208.5q-57 -56 -130 -56q-79 0 -120 53t-41 154q0 107 39 248.5t105 208.5q57 56 130 56q79 0 120 -53t41 -154zM129 191q0 -44 11.5 -63t35.5 -19q21 0 40 19q36 36 69 170.5t33 210.5q0 44 -11.5 63t-35.5 19q-21 0 -40 -19
q-36 -36 -69 -170.5t-33 -210.5z" />
    <glyph glyph-name="one.tab" horiz-adv-x="450" 
d="M-24 0l24 113h131l97 445l-137 -53l13 127l195 73h92l-129 -592h116l-25 -113h-377z" />
    <glyph glyph-name="two.tab" horiz-adv-x="450" 
d="M-39 0l23 109l245 270q76 83 76 143q0 31 -18.5 46.5t-44.5 15.5t-51.5 -15t-61.5 -46l-65 95q94 92 196 92q82 0 130 -48t48 -124q0 -60 -29 -112t-83 -110l-174 -190h213l-27 -126h-377z" />
    <glyph glyph-name="three.tab" horiz-adv-x="450" 
d="M149 -11q-123 0 -192 89l82 97q52 -62 113 -62q44 0 72 30.5t28 73.5q0 48 -38 73t-99 25h-2l7 91l166 170h-199l27 124h361l-24 -114l-187 -188q122 -45 122 -173q0 -57 -25.5 -109.5t-81 -89.5t-130.5 -37z" />
    <glyph glyph-name="three.tab_alt" horiz-adv-x="450" 
d="M162 -11q-123 0 -201 94l79 97q56 -68 118 -68q41 0 66.5 28t25.5 71q0 41 -31.5 67.5t-95.5 26.5h-12l24 109h29q63 0 103 28t40 76q0 31 -20.5 50.5t-55.5 19.5q-49 0 -103 -35l-47 106q75 52 170 52q87 0 139.5 -48.5t52.5 -125.5q0 -147 -145 -190q83 -48 83 -150
q0 -84 -61 -146t-158 -62z" />
    <glyph glyph-name="four.tab" horiz-adv-x="450" 
d="M179 0l29 136h-227l15 113l291 454h165l-99 -457h59l-24 -110h-60l-29 -136h-120zM109 245h123l60 276h-6z" />
    <glyph glyph-name="five.tab" horiz-adv-x="450" 
d="M154 -10q-107 0 -184 80l74 104q57 -59 112 -59q50 0 78 39.5t28 92.5q0 82 -78 82q-37 0 -74 -21l-66 50l96 342h322l-27 -123h-217l-39 -143q30 8 57 8q71 0 116 -48.5t45 -129.5q0 -112 -65 -193t-178 -81z" />
    <glyph glyph-name="six.tab" horiz-adv-x="450" 
d="M192 -11q-77 0 -126 49q-59 59 -59 192q0 101 37 224t105 191q65 65 154 65t161 -58l-66 -104q-45 43 -98 43q-38 0 -69 -31q-43 -43 -72 -141q49 37 103 37q71 0 112 -50t41 -135q0 -49 -14 -97.5t-40 -90.5t-70 -68t-99 -26zM198 103q43 0 66.5 47.5t23.5 104.5
q0 92 -68 92q-29 0 -53 -24q-18 -18 -29 -53.5t-11 -72.5q0 -94 71 -94z" />
    <glyph glyph-name="seven.tab" horiz-adv-x="450" 
d="M2 0l309 572h-235l27 128h377l-24 -113l-312 -587h-142z" />
    <glyph glyph-name="eight.tab" horiz-adv-x="450" 
d="M182 -11q-89 0 -139 49t-50 132q0 67 32 121.5t94 83.5q-25 21 -40 57t-15 74q0 85 55.5 144.5t147.5 59.5q81 0 129 -49.5t48 -125.5q0 -64 -30 -113t-85 -73q67 -50 67 -139q0 -91 -56.5 -156t-157.5 -65zM185 95q40 0 64.5 39t24.5 92q0 40 -18.5 62t-50.5 22
q-40 0 -64.5 -40t-24.5 -91q0 -40 18.5 -62t50.5 -22zM243 411q35 0 56 33.5t21 86.5q0 33 -15 53.5t-44 20.5q-35 0 -56 -33.5t-21 -86.5q0 -32 15 -53t44 -21z" />
    <glyph glyph-name="nine.tab" horiz-adv-x="450" 
d="M144 -11q-92 0 -168 65l66 104q53 -50 105 -50q38 0 69 31q43 43 70 133q-49 -37 -103 -37q-72 0 -112 49.5t-40 136.5q0 73 24 137t76.5 108t123.5 44q77 0 126 -49q59 -59 59 -192q0 -101 -37 -224t-105 -191q-65 -65 -154 -65zM225 344q29 0 51 22q43 43 43 132
q0 98 -70 98q-30 0 -51.5 -25.5t-30.5 -60t-9 -70.5q0 -96 67 -96z" />
    <glyph glyph-name="period.tab" horiz-adv-x="225" 
d="M-32 0l34 155h137l-34 -155h-137z" />
    <glyph glyph-name="comma.tab" horiz-adv-x="225" 
d="M-80 -159l-5 53q99 14 109 106h-56l34 155h137l-30 -136q-20 -89 -63 -130t-126 -48z" />
    <glyph glyph-name="colon.tab" horiz-adv-x="225" 
d="M-32 0l34 154h136l-34 -154h-136zM51 382l34 154h136l-34 -154h-136z" />
    <glyph glyph-name="semicolon.tab" horiz-adv-x="225" 
d="M-80 -159l-5 53q99 14 109 106h-56l34 154h136l-30 -135q-20 -89 -62.5 -130t-125.5 -48zM51 382l34 154h136l-34 -154h-136z" />
    <glyph glyph-name="twodotleader.tab" horiz-adv-x="450" 
d="M-31 0l33 150h134l-33 -150h-134zM193 0l34 150h134l-34 -150h-134z" />
    <glyph glyph-name="periodcentered.tab" horiz-adv-x="225" 
d="M18 232l34 155h137l-34 -155h-137z" />
    <glyph glyph-name="slash.tab" horiz-adv-x="450" 
d="M-108 -110l530 890h117l-530 -890h-117z" />
    <glyph glyph-name="bar.tab" horiz-adv-x="225" 
d="M-39 -110l194 890h103l-194 -890h-103z" />
    <glyph glyph-name="underscore.tab" horiz-adv-x="450" 
d="M-113 -154l22 101h453l-22 -101h-453z" />
    <glyph glyph-name="dollar.tab" horiz-adv-x="450" 
d="M303 776h88l-24 -90q56 -23 105 -76l-87 -93q-19 21 -29 30.5t-34.5 23t-48.5 13.5q-31 0 -50.5 -20t-19.5 -51q0 -24 14.5 -47.5t54.5 -61.5q64 -62 90 -102t26 -96q0 -86 -59 -147.5t-153 -61.5h-1l-28 -101h-88l32 114q-69 24 -132 95l81 96q76 -85 138 -85
q33 0 54.5 21.5t21.5 56.5q0 25 -13 45t-52 56q-65 60 -93 102t-28 102q0 86 60.5 145t146.5 59h8z" />
    <glyph glyph-name="sterling.tab" horiz-adv-x="450" 
d="M-43 0l19 87l64 25l35 164h-56l25 116h57l23 109q22 104 72 154q54 54 138 54q102 0 158 -77l-90 -92q-33 43 -69 43q-26 0 -45 -19q-22 -22 -33 -76l-20 -96h140l-25 -116h-141l-34 -157h197l-26 -119h-389z" />
    <glyph glyph-name="Euro.tab" horiz-adv-x="450" 
d="M27 388l20 92h59q38 109 97 168q63 63 145 63q51 0 84.5 -18t65.5 -55l-78 -93q-36 42 -72 42q-31 0 -57 -26q-25 -25 -48 -82h122l-20 -91h-130q-6 -24 -14 -72h128l-19 -91h-116q0 -112 74 -112q30 0 74 30l44 -106q-67 -48 -136 -48q-84 0 -135.5 58t-51.5 177h-71
l19 92h57q4 36 12 72h-53z" />
    <glyph glyph-name="yen.tab" horiz-adv-x="450" 
d="M32 255l21 94h84l-58 351h133l26 -268l141 268h141l-210 -351h86l-21 -94h-109l-14 -66h109l-21 -94h-109l-20 -95h-127l21 95h-107l20 94h107l15 66h-108z" />
    <glyph glyph-name="cent.tab" horiz-adv-x="450" 
d="M394 705l-24 -89q49 -16 92 -66l-85 -90q-38 50 -81 50q-37 0 -68 -31q-29 -29 -47 -82.5t-18 -104.5q0 -49 23 -73.5t54 -24.5q39 0 88 36l52 -97q-68 -55 -144 -55h-8l-22 -84h-89l28 101q-109 48 -109 191q0 78 28 153.5t74 121.5q64 64 146 67l21 77h89z" />
    <glyph glyph-name="numbersign.tab" horiz-adv-x="450" 
d="M9 0l35 156h-55l21 116h62l37 160h-61l24 116h64l35 152h92l-35 -152h85l36 152h91l-35 -152h56l-23 -116h-61l-37 -160h59l-23 -116h-64l-35 -156h-91l35 156h-86l-35 -156h-91zM163 272h86l37 160h-86z" />
    <glyph glyph-name="paragraph.tab" horiz-adv-x="450" 
d="M179 0l47 221q-85 13 -130 58q-52 52 -52 135q0 56 19.5 112t59.5 96q78 78 216 78h126l-152 -700h-134z" />
    <glyph glyph-name="section.tab" horiz-adv-x="450" 
d="M164 -10q-86 0 -157 56l58 97q55 -44 99 -44q21 0 35 10.5t14 28.5q0 17 -14.5 31.5t-60.5 42.5q-62 37 -89.5 68t-27.5 78t30.5 82t86.5 46q-25 34 -25 80q0 56 45.5 100.5t125.5 44.5q86 0 157 -56l-58 -97q-55 44 -99 44q-21 0 -35 -10.5t-14 -28.5q0 -17 14.5 -31.5
t60.5 -42.5q62 -37 89.5 -68t27.5 -78t-30.5 -82t-86.5 -46q25 -34 25 -80q0 -56 -45.5 -100.5t-125.5 -44.5zM260 282q23 0 37 12.5t14 32.5q0 32 -59 70q-36 22 -64 22q-23 0 -37 -12.5t-14 -32.5q0 -32 59 -70q36 -22 64 -22z" />
    <glyph glyph-name="degree.tab" horiz-adv-x="450" 
d="M282 708q66 0 104.5 -43t38.5 -116q0 -51 -18 -105t-57 -93q-50 -50 -115 -50q-66 0 -104.5 43t-38.5 116q0 51 18 105t57 93q50 50 115 50zM240 385q28 0 51 23t35 62.5t12 73.5q0 39 -16.5 59.5t-44.5 20.5t-51 -23t-35 -62.5t-12 -73.5q0 -39 16.5 -59.5t44.5 -20.5z
" />
    <glyph glyph-name="percent.tab" horiz-adv-x="450" 
d="M266 -7q-89 0 -89 115q0 50 22.5 125t60.5 113q31 31 67 31q40 0 63 -30t23 -88q0 -56 -18.5 -125.5t-57.5 -108.5q-32 -32 -71 -32zM184 707q89 0 89 -115q0 -50 -22.5 -125t-60.5 -113q-31 -31 -67 -31q-40 0 -63 30t-23 88q0 56 18.5 125.5t57.5 108.5q32 32 71 32z
M416 700h69l-247 -358l-204 -342h-69l247 358zM179 634q-8 0 -16 -8q-19 -19 -35 -87.5t-16 -106.5q0 -36 20 -36q8 0 16 8q20 20 35.5 87t15.5 106q0 37 -20 37zM271 66q8 0 16 8q19 19 35 87.5t16 106.5q0 36 -20 36q-8 0 -16 -8q-20 -20 -35.5 -87t-15.5 -106
q0 -37 20 -37z" />
    <glyph glyph-name="quotedbl.tab" horiz-adv-x="450" 
d="M74 381l78 319h140l-2 -8l-158 -311h-58zM271 381l79 319h140l-2 -8l-158 -311h-59z" />
    <glyph glyph-name="quotesingle.tab" horiz-adv-x="225" 
d="M61 381l79 319h140l-2 -8l-159 -311h-58z" />
    <glyph glyph-name="plus.tab" horiz-adv-x="450" 
d="M123 154l30 140h-133l25 116h133l31 140h116l-31 -140h135l-25 -116h-135l-30 -140h-116z" />
    <glyph glyph-name="minus.tab" horiz-adv-x="450" 
d="M21 289l27 126h381l-27 -126h-381z" />
    <glyph glyph-name="divide.tab" horiz-adv-x="450" 
d="M108 108l27 124h126l-27 -124h-126zM22 294l25 116h380l-25 -116h-380zM188 472l27 124h126l-27 -124h-126z" />
    <glyph glyph-name="equal.tab" horiz-adv-x="450" 
d="M5 184l26 122h367l-26 -122h-367zM52 398l26 122h367l-26 -122h-367z" />
    <glyph glyph-name="multiply.tab" horiz-adv-x="450" 
d="M78 147l-76 86l146 125l-87 120l100 74l79 -115l136 120l76 -86l-146 -125l87 -120l-100 -74l-79 115z" />
    <glyph glyph-name="less.tab" horiz-adv-x="450" 
d="M344 97l-316 197l25 116l403 201l-32 -146l-254 -119l203 -116z" />
    <glyph glyph-name="greater.tab" horiz-adv-x="450" 
d="M105 607l316 -197l-25 -116l-403 -201l32 146l254 119l-203 116z" />
    <glyph glyph-name="plusminus.tab" horiz-adv-x="450" 
d="M132 193l30 138h-133l25 116h133l30 138h116l-30 -138h133l-25 -116h-133l-30 -138h-116zM-42 0l24 112h381l-24 -112h-381z" />
    <glyph glyph-name="space.tab" horiz-adv-x="225" 
 />
    <glyph glyph-name="NUL" horiz-adv-x="0" 
 />
    <glyph glyph-name="hfjslug" horiz-adv-x="694" 
d="M255 276h8l11 34h1l11 -34h8l14 47h-8l-10 -35h-1l-11 35h-7l-11 -35h-1l-10 35h-8zM321 388q19 0 29 24h1l12 -24l12 6l-17 32q6 14 13 39l-13 3q-4 -18 -8 -30h-1l-16 31q23 21 23 42q0 31 -27 31q-12 0 -20 -9t-8 -22t14 -39q-23 -18 -23 -47q0 -16 8 -26.5t21 -10.5z
M50 -200v303q14 0 23 9.5t9 22.5t-9.5 22.5t-22.5 9.5v554h100l30 79h334l29 -79h101v-921h-208l-8 14h-163l-8 -14h-207zM523 277h8v12l8 8l15 -20h10l-20 26l18 20h-10l-20 -24h-1v24h-8v-46zM193 277h34v7h-26v13h23v7h-23v12h26v7h-34v-46zM184 391h15v79h47v-79h15v172
h-15v-79h-47v79h-15v-172zM132 277h8v32l25 -32h7v46h-8v-32l-25 32h-7v-46zM400 391h15v78h38v14h-38v66h43v14h-58v-172zM468 277h8v15h12l10 -15h9l-12 17q10 4 10 14q0 15 -17 15h-20v-46zM366 277h8v17l18 29h-9l-13 -22l-13 22h-9l18 -29v-17zM481 390q31 0 31 36v137
h-16v-137q0 -22 -16 -22q-8 0 -20 5v-15q10 -4 21 -4zM476 299v17h11q10 0 10 -8q0 -9 -10 -9h-11zM322 402q-16 0 -16 25q0 19 16 35l20 -39q-8 -21 -20 -21zM327 479q-12 22 -12 32q0 19 14 19q13 0 13 -19q0 -15 -15 -32zM426 283q-16 0 -16 17q0 6 4.5 11.5t11.5 5.5
t11.5 -5.5t4.5 -11.5q0 -17 -16 -17zM426 276q10 0 17 7t7 17q0 9 -7 16.5t-17 7.5t-17 -7.5t-7 -16.5q0 -10 7 -17t17 -7z" />
    <glyph glyph-name="i.dot" horiz-adv-x="227" 
d="M-10 0l116 536h130l-116 -536h-130zM116 590l27 124h134l-27 -124h-134z" />
    <glyph glyph-name="zero.num" 
d="M318 577q0 -49 -18.5 -112.5t-54.5 -99.5q-37 -37 -85 -37q-106 0 -106 130q0 49 18.5 112.5t54.5 99.5q37 37 85 37q51 0 78.5 -33t27.5 -97zM134 453q0 -51 30 -51q13 0 25 12q20 20 34.5 76.5t14.5 91.5q0 51 -30 51q-13 0 -25 -12q-20 -20 -34.5 -76.5t-14.5 -91.5z
" />
    <glyph glyph-name="one.num" horiz-adv-x="244" 
d="M95 335l60 280l-65 -26l7 77l101 38h59l-80 -369h-82z" />
    <glyph glyph-name="one.num_alt" 
d="M46 335l15 68h76l46 214l-75 -28l5 75l110 40h59l-65 -301h67l-15 -68h-223z" />
    <glyph glyph-name="two.num" 
d="M35 335l15 70l127 114q30 30 40.5 46t10.5 33q0 15 -10 24.5t-26 9.5q-30 0 -68 -31l-37 59q55 47 114 47q48 0 79.5 -28t31.5 -72q0 -29 -15 -57t-59 -66l-84 -75h122l-16 -74h-225z" />
    <glyph glyph-name="three.num" 
d="M156 328q-72 0 -114 51l47 57q33 -35 68 -35q21 0 33 13.5t12 32.5q0 47 -76 47h-1l4 52l89 81h-111l16 73h213l-13 -60l-111 -97q71 -23 71 -92q0 -55 -36 -89t-91 -34z" />
    <glyph glyph-name="four.num" 
d="M168 334l15 71h-143l13 75l167 223h101l-50 -231h35l-14 -67h-36l-15 -71h-73zM120 471h80l32 149h-4z" />
    <glyph glyph-name="five.num" 
d="M156 328q-71 0 -120 52l48 59q38 -38 74 -38q25 0 39 17t14 38t-12.5 33t-32.5 12q-19 0 -41 -10l-44 29l53 180h190l-16 -73h-125l-19 -63q18 2 27 2q43 0 72 -25.5t29 -73.5q0 -59 -38 -99t-98 -40z" />
    <glyph glyph-name="six.num" 
d="M167 328q-50 0 -79 33t-29 94q0 47 20 111t58 102q39 39 91 39q53 0 96 -38l-42 -60q-28 26 -58 26q-23 0 -39 -16q-20 -20 -33 -61q25 17 56 17q33 0 59 -24t26 -73q0 -61 -36 -105.5t-90 -44.5zM168 398q24 0 37 21t13 48q0 19 -10 31t-27 12q-18 0 -30 -12
q-20 -20 -20 -57q0 -19 10 -31t27 -12z" />
    <glyph glyph-name="seven.num" 
d="M54 334l179 290h-134l16 76h223l-13 -61l-183 -305h-88z" />
    <glyph glyph-name="eight.num" 
d="M165 328q-52 0 -84.5 28.5t-32.5 73.5q0 40 21 66.5t52 36.5q-33 26 -33 68q0 47 33.5 76.5t86.5 29.5q51 0 82 -27t31 -70q0 -69 -66 -92q39 -28 39 -73q0 -51 -35 -84t-94 -33zM167 389q23 0 37 17t14 41q0 21 -11.5 33.5t-30.5 12.5q-23 0 -37.5 -16.5t-14.5 -40.5
q0 -21 12 -34t31 -13zM202 556q19 0 32.5 14t13.5 37q0 18 -11 29t-29 11q-19 0 -32 -14t-13 -37q0 -18 10.5 -29t28.5 -11z" />
    <glyph glyph-name="nine.num" 
d="M144 328q-53 0 -101 43l42 60q33 -31 63 -31q23 0 39 16q19 20 32 57q-25 -17 -56 -17q-34 0 -59.5 24t-25.5 75q0 63 36 107.5t91 44.5q50 0 79 -33t29 -94q0 -47 -20 -111t-58 -102q-39 -39 -91 -39zM190 521q18 0 30 12q21 21 21 59q0 21 -10 33t-27 12
q-24 0 -37.5 -21.5t-13.5 -49.5q0 -21 10 -33t27 -12z" />
    <glyph glyph-name="zero.den" 
d="M245 242q0 -49 -18.5 -112.5t-54.5 -99.5q-37 -37 -85 -37q-106 0 -106 130q0 49 18.5 112.5t54.5 99.5q37 37 85 37q51 0 78.5 -33t27.5 -97zM61 118q0 -51 30 -51q13 0 25 12q20 20 34.5 76.5t14.5 91.5q0 51 -30 51q-13 0 -25 -12q-20 -20 -34.5 -76.5t-14.5 -91.5z
" />
    <glyph glyph-name="one.den" horiz-adv-x="244" 
d="M22 0l60 280l-65 -26l7 77l101 38h59l-80 -369h-82z" />
    <glyph glyph-name="one.den_alt" 
d="M-27 0l15 68h76l46 214l-75 -28l5 75l110 40h59l-65 -301h67l-15 -68h-223z" />
    <glyph glyph-name="two.den" 
d="M-38 0l15 70l127 114q30 30 40.5 46t10.5 33q0 15 -10 24.5t-26 9.5q-30 0 -68 -31l-37 59q55 47 114 47q48 0 79.5 -28t31.5 -72q0 -29 -15 -57t-59 -66l-84 -75h122l-16 -74h-225z" />
    <glyph glyph-name="three.den" 
d="M83 -7q-72 0 -114 51l47 57q33 -35 68 -35q21 0 33 13.5t12 32.5q0 47 -76 47h-1l4 52l89 81h-111l16 73h213l-13 -60l-111 -97q71 -23 71 -92q0 -55 -36 -89t-91 -34z" />
    <glyph glyph-name="four.den" 
d="M95 -1l15 71h-143l13 75l167 223h101l-50 -231h35l-14 -67h-36l-15 -71h-73zM47 136h80l32 149h-4z" />
    <glyph glyph-name="five.den" 
d="M83 -7q-71 0 -120 52l48 59q38 -38 74 -38q25 0 39 17t14 38t-12.5 33t-32.5 12q-19 0 -41 -10l-44 29l53 180h190l-16 -73h-125l-19 -63q18 2 27 2q43 0 72 -25.5t29 -73.5q0 -59 -38 -99t-98 -40z" />
    <glyph glyph-name="six.den" 
d="M94 -7q-50 0 -79 33t-29 94q0 47 20 111t58 102q39 39 91 39q53 0 96 -38l-42 -60q-28 26 -58 26q-23 0 -39 -16q-20 -20 -33 -61q25 17 56 17q33 0 59 -24t26 -73q0 -61 -36 -105.5t-90 -44.5zM95 63q24 0 37 21t13 48q0 19 -10 31t-27 12q-18 0 -30 -12
q-20 -20 -20 -57q0 -19 10 -31t27 -12z" />
    <glyph glyph-name="seven.den" 
d="M-19 -1l179 290h-134l16 76h223l-13 -61l-183 -305h-88z" />
    <glyph glyph-name="eight.den" 
d="M91 -7q-48 0 -82 27.5t-34 74.5q0 40 21 66.5t52 36.5q-33 26 -33 68q0 47 33.5 76.5t86.5 29.5q51 0 82 -27t31 -70q0 -69 -66 -92q39 -28 39 -73q0 -51 -35.5 -84t-94.5 -33zM94 54q23 0 37 17.5t14 41.5q0 20 -11.5 32.5t-30.5 12.5q-23 0 -37.5 -17t-14.5 -41
q0 -21 11.5 -33.5t31.5 -12.5zM129 221q19 0 32.5 14t13.5 37q0 18 -11 29t-29 11q-19 0 -32 -14t-13 -37q0 -18 10.5 -29t28.5 -11z" />
    <glyph glyph-name="nine.den" 
d="M71 -7q-53 0 -101 43l42 60q33 -31 63 -31q23 0 39 16q20 19 32 57q-25 -17 -56 -17q-34 0 -59.5 24t-25.5 75q0 63 36 107.5t91 44.5q50 0 79 -33t29 -94q0 -47 -20 -111t-58 -102q-39 -39 -91 -39zM117 186q18 0 30 12q21 21 21 59q0 21 -10 33t-27 12
q-24 0 -37.5 -21.5t-13.5 -49.5q0 -21 10 -33t27 -12z" />
    <glyph glyph-name="caron.alt" horiz-adv-x="500" 
d="M250 571l43 167h95v-2l-82 -165h-56z" />
    <glyph glyph-name="acute.cap" horiz-adv-x="500" 
d="M253 742l128 139l108 -55l-131 -84h-105z" />
    <glyph glyph-name="hungarumlaut.cap" horiz-adv-x="500" 
d="M173 742l128 139l100 -55l-128 -84h-100zM325 742l127 139l100 -55l-128 -84h-99z" />
    <glyph glyph-name="grave.cap" horiz-adv-x="500" 
d="M352 742l-102 84l110 55l85 -139h-93z" />
    <glyph glyph-name="circumflex.cap" horiz-adv-x="500" 
d="M203 742l122 130h114l66 -130h-91l-45 51l-66 -51h-100z" />
    <glyph glyph-name="caron.cap" horiz-adv-x="500" 
d="M533 872l-122 -130h-114l-66 130h92l44 -51l66 51h100z" />
    <glyph glyph-name="breve.cap" horiz-adv-x="500" 
d="M357 738q-62 0 -95.5 32.5t-23.5 92.5h78q3 -43 54 -43q49 0 67 43h86q-16 -61 -60 -93t-106 -32z" />
    <glyph glyph-name="tilde.cap" horiz-adv-x="500" 
d="M265 736l-72 21q26 65 48.5 91.5t58.5 26.5q28 0 74 -21q34 -15 46 -15q14 0 24 9.5t23 32.5l72 -21q-25 -64 -48 -91t-60 -27q-28 0 -72 20q-36 16 -47 16q-14 0 -23.5 -9t-23.5 -33z" />
    <glyph glyph-name="macron.cap" horiz-adv-x="500" 
d="M209 746l19 90h293l-19 -90h-293z" />
    <glyph glyph-name="dieresis.cap" horiz-adv-x="500" 
d="M206 744l25 115h122l-25 -115h-122zM381 744l25 115h122l-25 -115h-122z" />
    <glyph glyph-name="dotaccent.cap" horiz-adv-x="500" 
d="M292 744l25 115h124l-25 -115h-124z" />
    <glyph glyph-name="ring.cap" horiz-adv-x="500" 
d="M324 925q41 0 66.5 -24t25.5 -59q0 -45 -31.5 -75t-80.5 -30q-41 0 -66.5 24t-25.5 59q0 45 31.5 75t80.5 30zM309 784q23 0 38.5 15.5t15.5 37.5q0 18 -11.5 29.5t-32.5 11.5q-23 0 -38.5 -15.5t-15.5 -36.5q0 -18 11.5 -30t32.5 -12z" />
    </font>
</defs>
</svg>
